<svg baseProfile="tiny" xmlns="http://www.w3.org/2000/svg" viewBox="0 0 1920 1080">
  <defs/>
  <path fill="#484F59" d="M1470.8 236.7c64.6 2.8 122.3 58.2 127.8 122.6.8 9.2 1.2 18.4 1.2 27.7v334.4c-.1 68.9-45.2 124.5-112.6 138.7-7.6 1.6-15.3 2.4-23 2.4-70-.1-140 0-210 0-62.6 0-120.6-48-132.6-109.5-2-10.3-3.1-20.7-3-31.2.1-116.2 0-232.5.1-348.7.1-71.5 58.3-132.9 129.1-136.4 19.4.1 38.9.2 58.3.2 15.9 0 15.2.1 17 15.4.8 7-2.1 7.9-7.1 8.5-9.6 1.2-18.5 4.7-25.7 11.1-3.8 3.4-7.5 4.1-12.1 4.1-13.6 0-27.6-2-39.9 6.1-21.7-.1-43.5 0-65.2-.6-6.8-.2-8.1 1.8-8.1 8.2.2 169.7.2 339.4 0 509 0 6.7 1.6 8.6 8.5 8.6 125.7-.2 251.4-.2 377.1 0 7.1 0 9-1.6 9-8.9-.2-169.4-.2-338.9-.2-508.3 0-1.2-.1-2.5 0-3.7.4-3.6-1.1-4.8-4.7-4.8-28.2.2-56.5.3-84.7.4-11.6-7.7-24.8-6.1-37.7-6.2-3.2 0-6.4.5-9.1-2.1-8-7.6-17.8-11.4-28.7-13.2-12-2-11.5-2.3-12.1-14.9-.3-7.4 2.1-9.1 9.2-9 26.4.5 52.8.1 79.2.1z"/>
  <path fill="#F2D1C2" d="M414.9 931.3c-11.9 1.7-23.9 2.4-35.8.1-14.8-5.2-26.5-14.3-35-27.6-6-9.3-10.2-19.3-14.9-29.3-5.2-15.9-11.1-31.6-14.7-47.9 4.2-.4 6.6-2.1 6.1-6.9-.4-3.7.2-7.5-.4-11.2-2.7-17.9-6.5-35.7-11.8-53-7-22.9-14-45.8-25.5-66.9-1.8-3.2-3.3-9-7.6-8.1-5.1 1.1-2 6.8-2.7 10.4-.2 1.2-.1 2.5-.1 3.7-3.3-6.1-2.8-13-3.6-19.5-1.8-14-10.7-25.6-13.1-39.5-1.5-8.9-3-17.6-2.8-26.6.1-9.5-1.4-18.7-4.7-27.7-3.1-8.3-5.8-16.9-3.1-26.1 1.6-5.4 4.3-9.7 10.2-10.6 5.9-.9 8.2 3.7 10.6 7.8.3.6.6 1.2 2 1.1-2.7-9-5.4-17.9-8.1-26.9-.8-2.6-1.6-5.3.6-7.7.6 5.5 2 10.8 6.4 14.6 4.9 4.2 11.7 2.3 13-3.4 2.1-9.4-3.9-18.4-13.5-20.1 3.2-3.5 7.4-3.3 11.7-2.2-1.4-9.5 1.3-15.8 8.1-19.4 5.6-2.9 10.9-3.6 15.1 3 1.8-2 1-4.1 1-5.8 0-9.6 4.6-14.8 14-15.8 6.2-.6 11.8 4.3 13.9 12.1 1.2 4.4 1.1 9 .5 13.4-2.3 16.2 5.7 28.8 14.2 41.1 2.1 3 7.3 7.3 10.5 3.8 3.3-3.6.6-9.1-3.2-12.5-12.9-11.6-16.5-26.6-16.9-43.1-.2-9.7 2.5-18.3 11.1-23 9.1-4.9 19.1-3.5 27.9 1.6 15.9 9.1 25.4 24.7 26.2 41.5 1.5 29.2 13.8 54.2 24.2 80.1 5.1 12.9 9 25.8 8.3 39.9-2.6 9.6-4.7 19.3-7.9 28.7-10.2 30-10.5 60.4-4.6 91.3 4.9 25.9 14.8 50 24.7 74.1-.7 2.5-.3 4.9.6 7.3 5.6 15.8 8.9 32.1 8 48.9-1.3 26.3-7.7 47.2-38.9 56.3zm-75-77.6c-.4 24.3 9.1 41.5 28.5 53.1 17.9 10.6 42.7 6.4 56.2-9.2 12.5-14.5 14.8-30.9 11.4-48.9-4.3-22.7-25.9-42-48.2-43.3-24.8-1.4-49.6 21.2-47.9 48.3zm79.6-234.8c.8-12.4-2.3-24.4-9.1-35.1-4.4-7-9.8-13.5-19.7-12.3-6.8.9-10.8 5.7-12.6 11.3-7.4 22.8-4.3 44.3 10.8 63.3 7.3 9.2 18.5 8 25-1.8 5-7.6 5.9-16.1 5.6-25.4zM349 482.7c0 12.2 5.7 21.7 15.4 26 6.4 2.8 11.2.8 14.6-4.8 5.5-8.9 3-22.1-4.7-31.1-5-5.9-11.1-8.2-17.8-5.9-6.9 2.5-7.5 9.3-7.5 15.8zm-31.2-7.2c-5.4.1-6.1.5-7.7 2.8-4.7 7 .2 20.2 8.3 22.3 2.1.5 4 .5 5.6-1 4.5-4.1 4.7-9 2.5-14.3-2-5.1-4.2-9.7-8.7-9.8zm-33.2 28.4c-.7 4.3 1.2 7.9 3.4 11.2 2.3 3.4 6 4.6 9.8 3.6 3.7-1 6.1-4.4 5.8-7.8-.4-4.3-1-9-4.4-12.3-2.6-2.6-5.4-6-9.5-4.3-3.9 1.6-6 5.1-5.1 9.6z"/>
  <path fill="#209F99" d="M445.3 818.7c-10-24.1-19.8-48.3-24.7-74.1-5.9-30.9-5.7-61.2 4.6-91.3 3.2-9.4 5.3-19.1 7.9-28.7 39.5-17.9 79.7-19.9 120.6-5.1 2.3.8 4.5 2.1 6.7 3.1-.7 1.3-1.3 2.6-1.9 4-1.2 2.6-1.8 5.5 1.1 7.2 3.2 1.8 5-.8 6.5-3.1 1-1.4 1.7-3 3.4-3.7.5 0 1 0 1.4.1 4.6 17.5 9.3 35 13.9 52.5 2.9 21.2 1.8 42.2-1.9 63.2-3.1 18-9.3 35-14.9 52.3-.6 1.5-1.2 2.9-1.8 4.4-1.9 4-3.9 8.1-5.8 12.1-10.6-7.3-19.8-16.7-32.9-19.8-4.1-2.7-8.7-3-13.4-2.8-9.9-2.5-19.2.8-28.5 3.4-5.8 1.9-11.6 3.5-16.6 7.2-9.9 3.8-17.1 11-23.7 19.1zM861 931.4c-14 0-28.1.1-42.2.1-11.1-8.5-23.2-15.5-35.3-22.4-8.1-6.6-17.1-11.7-26.1-16.8-8.1-6.3-17.1-11.3-25.8-16.6-5.9-4.4-11.9-8.9-17.8-13.3-5.3-6-11-11.5-19.7-11.8-3.7-1.8-7.3-3.6-9.2-7.5 1.1-4.5 2.2-9 3.2-13.5v.1c.8-1.8 1.7-3.6 2.3-5.4 12.8-40.2 25.5-80.5 38.4-120.7.8-2.3.4-5.8 4.1-6.4 15.1 19.8 30.1 39.7 45.5 59.3 10.5 13.3 18.1 27.8 23.2 44 13.4 43.3 34 83.3 55.5 123 1.4 2.5 2.6 5.2 3.9 7.9z"/>
  <path fill="#389199" d="M1238.1 282.2c12.4-8.1 26.4-6 39.9-6.1 4.6 0 8.4-.8 12.1-4.1 7.2-6.4 16-9.9 25.7-11.1 5-.6 7.9-1.6 7.1-8.5-1.8-15.3-1.1-15.4-17-15.4-19.4 0-38.9-.1-58.3-.2 21.7-2.3 43.4-.9 65.1-.8 7.6 0 10.5-1.1 10.8-9.7.7-19.1 13.3-30.3 31.3-29.6 15.9.6 27.8 13.5 27.4 31.3-.1 7.2 2.5 7.9 8.5 7.9 25.2-.2 50.5.1 75.7.2 1.4 0 2.9.5 4.3.7-26.4.1-52.8.4-79.2 0-7.1-.1-9.6 1.6-9.2 9 .6 12.7.1 12.9 12.1 14.9 10.8 1.8 20.6 5.6 28.7 13.2 2.8 2.6 5.9 2.1 9.1 2.1 12.9.1 26-1.5 37.7 6.2 8 6.4 13.9 14.1 16.2 24.4 1.5 6.5.4 8.7-7.1 8.7-83.4-.3-166.8-.2-250.2-.2-1.2 0-2.5-.1-3.7 0-3.8.4-4.4-1.3-3.9-4.9 1.5-11.9 7.6-20.9 16.9-28z"/>
  <path fill="#209F99" d="M314.4 826.6c3.7 16.4 9.5 32 14.7 47.9-6 3.5-11.7 7.7-16.3 12.9-14.9 16.6-32.7 28.9-53.1 37.8-2.7 1.2-5.7 2-7.1 5.1-5 2.4-10.3 1.3-15.4 1.4-12.7.1-25.4-.1-38.2-.2 2.9-9.6 4.5-19.4 4.6-29.5 0-15.3 5.8-28.7 14.6-40.9 5.6-7.7 11.4-15.2 16.7-23 11.1-16.2 17.5-34.2 17.8-53.9.1-4.7 4-5.6 5.1-9.1 4.9-15.1 13.3-28.4 22.3-41.3 2 1.5 2 3.9 2.8 5.9 10.5 28.9 21 57.9 31.5 86.9z"/>
  <path fill="#F2D1C2" d="M647.7 541.5c2.9.2 5.7-.7 7.6-2.7 11.7-12.4 19.3-26.6 16.8-44.3-1-6.8.6-13 3.5-18.7 3.6-7.1 10.8-5.2 16.8-4.3 5.4.8 8.5 4.8 9.2 10.4.4 3.5-.5 6.8-2.2 12.2 5.5-6.3 9.8-9.9 16.6-6.2 8 4.3 10.4 8.6 9.4 19.7 11.1-1.2 16.4 2.6 18.2 13-7.8-6.1-14.6-3.6-18.3 6.3-1.9 5.1-1.2 9.4 2.6 13 4.1 3.8 7.8 1 11.4-1.3-1 4.5-2 9.1-3.2 14.5 1.2-1.2 1.8-1.6 2.2-2.1 3.1-3.5 6.1-8.4 11.6-5.9 5.4 2.5 8.7 7.1 8.9 13.6.2 8.8-.5 17.3-4.7 25.4-2.3 4.4-3.1 9.4-3 14.5.7 22.8-3.7 44.4-13.6 65-3.2 6.7-2.9 14.5-4.3 21.8-.3 1.7 0 3.5-1.5 4.8-.1-3.7.3-8.9-3.4-9.6-3.1-.6-5.8 4-7.6 7.4-.5.9-.9 1.8-1.3 2.7-2.5 5.4-5 10.9-7.6 16.3-.7 1.5-1 3.8-3.3 3.3-2-.4-2.3-2.4-2.3-4.2v-5.2-66c0-2.6 1-5.6-1.5-7.8-9.1-15.4-22-27.7-33.2-41.4-4.1-5.1-9.7-7.5-16.1-8.1-2.1-12.2-3.9-24.4-7.7-36.1zm52.3-30.9c.4 3.7.9 8.5 7.6 8.4 6.1-.1 12-7.7 11.8-15.7-.1-5.4-2.9-9.2-8.4-9.5-5.4-.3-11.1 8.2-11 16.8zm-24-20.3c-.3 5.6 1 10.3 7.6 10.6 5 .2 11.6-9 11.5-16.4-.1-4.8-2.3-8.8-8-8.9-5.6-.1-11 7.3-11.1 14.7zM566.3 799.4c.6-1.5 1.2-2.9 1.8-4.4 3 .8 6.7 1.4 8.5-.9 3.9-5.2 9.5-8.5 12.7-14.4 15.4-28 20.7-56.7 7.6-87.3-2.6-6.2-5.3-11.1-11.9-12.9-4.6-17.5-9.3-35-13.9-52.5-2.9-23.6 8.1-43.6 16.5-64.4 3.6-8.9 9-17.3 9.4-27.3 0-.6 1.5-1.1 2.3-1.6.5.8 1.1 1.6 1.6 2.3-1.4-.5-3.4-1.3-2.7 1.3.7 2.6 2 5.1 3.5 7.3 10.5 16 23.8 29.1 40 39.3-.9 3.8-4.1 6.1-6.2 9.2-1.2 1.8-2.8 4.9-5.6 4.1-2.6-.8-1.3-3.9-1.9-6-.7-2.4-1.5-4.7-2.4-7.1-2.2-6-5-11.5-12.2-12.7-7.8-1.2-13.7 2.2-17.8 8.4-12.4 18.7-16.2 38.8-8.1 60.2 2.8 7.4 8 12.5 16.7 12.4 4.6 1 2.9 4.6 2.9 7.3.1 22.6.1 45.3.1 67.9 0 3.7-.3 7.5 3 10.3v1.5c1.5 5.2 4.6 8.3 10.2 9 23.1 3.2 46.3 1.2 69.4 1.1 6.7 0 6.5 1.7 5.1 6.3-4.2 15-8.4 30.2-10.5 45.6-1.3 9.4-6 19.9 3.8 28v-.1c-9.2-1.6-12.8-8-10.4-20.4 3-15.2 5.3-30.6 10.1-45.4 1.6-5 .7-6.5-4.7-6.4-17.9.3-35.9 0-53.8.2-6.2.1-12.1-.9-17.1-4.4-5.1-3.5-6.2-1.4-7.8 3.3-5.2 15.1-11.5 29.4-24.2 40.1-4.7 4.2-8.6 5.9-14 3.1z"/>
  <path fill="#F2D1C2" d="M600.7 536.1c-.5-.8-1.1-1.6-1.6-2.3.2-15.5 1.8-30.8 8.2-45.2 7-15.7 17-27.9 35.4-29.4 19.1-1.6 24.9 9.9 25.2 23.4.3 13.9-2.2 27.9-11.5 39.4-3.7 4.5-8.5 8.1-10.8 13.7-5.7.6-2 3.8-1.4 5.7 4.3 12.6 6.8 25.5 7.5 38.8-1.9.6-3.7 1.4-4.9 3.1-19.8-11.4-35.9-26.4-46.1-47.2zm21.3-43.7c0 13.4 8.1 20.5 18 15.9 9.5-4.4 17.1-20.2 14.5-30.5-3-12.1-15.1-15.6-24.1-7-6.1 5.9-8.5 13.3-8.4 21.6z"/>
  <path fill="#EACBBD" d="M688.1 829.6c-9.9-8.1-5.2-18.6-3.8-28 2.2-15.5 6.3-30.6 10.5-45.6 1.3-4.7 1.5-6.4-5.1-6.3-23.1.1-46.3 2.1-69.4-1.1-5.6-.8-8.7-3.8-10.2-9 5.6 5.3 11.9 9 19.8 9 18.2 0 36.5.5 54.7-.3 5.8-.2 12.9 1 17.5-4.2 5.6-6.2 7.3-14.5 4.7-21.7-2-5.7-2.2-11-2.3-16.6-.1-26.2-.1-52.5-.1-78.7 2.5 2.2 1.4 5.2 1.5 7.8.1 22 0 44 0 66v5.2c0 1.8.3 3.8 2.3 4.2 2.3.5 2.6-1.9 3.3-3.3 2.6-5.4 5-10.8 7.6-16.3.4-.9.9-1.8 1.3-2.7 1.8-3.4 4.4-7.9 7.6-7.4 3.7.7 3.3 5.9 3.4 9.6-.1 2.4-.2 4.8 1.3 7-3.7.6-3.3 4.1-4.1 6.4-12.9 40.2-25.6 80.5-38.4 120.7-.4 1.7-1.3 3.5-2.1 5.3zM314.4 826.6l-31.5-87c-.7-2.1-.8-4.4-2.8-5.9-2.3-10.6-4.7-21.2-6.9-31.8-.5-2.4-.6-4.9-.8-7.3 0-1.2-.1-2.5.1-3.7.7-3.6-2.4-9.3 2.7-10.4 4.3-.9 5.8 4.9 7.6 8.1 11.5 21.1 18.5 44 25.5 66.9 5.3 17.3 9 35.1 11.8 53 .6 3.7 0 7.5.4 11.2.6 4.8-1.8 6.5-6.1 6.9z"/>
  <path fill="#E8C9BC" d="M266.4 510c9.6 1.7 15.6 10.7 13.5 20.1-1.3 5.7-8.2 7.6-13 3.4-4.4-3.8-5.8-9.1-6.4-14.6-.2-4.4 2.6-6.8 5.9-8.9zM739.2 538.5c-3.6 2.3-7.4 5-11.4 1.3-3.8-3.6-4.5-7.9-2.6-13 3.7-9.9 10.5-12.4 18.3-6.3.4 6.4-.1 12.7-4.3 18z"/>
  <path fill="#575151" d="M651.8 580.1c-.7-13.3-3.2-26.2-7.5-38.7-.6-1.9-4.4-5.1 1.4-5.7.7 1.9 1.4 3.9 2.1 5.8 3.8 11.7 5.6 23.9 7.5 36 0 .8 0 1.6.1 2.4-1.3 0-2.5.1-3.6.2z"/>
  <path fill="#4DA69F" d="M569.5 627c-1.7.7-2.4 2.3-3.4 3.7-1.5 2.2-3.3 4.9-6.5 3.1-3-1.7-2.4-4.5-1.1-7.2.6-1.3 1.3-2.6 1.9-4 3.5.6 6.4 2.2 9.1 4.4z"/>
  <path fill="#F2D1C2" d="M566.3 799.4c5.4 2.8 9.3 1.1 14-2.8 12.7-10.7 19-25.1 24.2-40.1 1.6-4.7 2.8-6.8 7.8-3.3s10.9 4.5 17.1 4.4c17.9-.2 35.9.1 53.8-.2 5.3-.1 6.3 1.4 4.7 6.4-4.8 14.8-7.2 30.2-10.1 45.4-2.4 12.4 1.2 18.7 10.4 20.4-1.1 4.5-2.2 9-3.2 13.5-3.8 9.3-5.7 19.4-10.3 28.5-4.1 14.2-12 26.5-19.6 39-9.2 9-18.7 17.3-31.4 20.9h-36c-16-4.7-27.6-14.6-34.4-30-4-15.5-5.6-31.1-3.1-47.1 1.7-11.5 2.7-23.3 8.4-33.7 1.7-3.1 2.3-5.9 2.1-9.1 1.7-4.1 3.7-8.1 5.6-12.2zm.2 62.9v3.8c-.1 33.6 33.9 58.1 67.5 41.4 23.4-11.6 35.6-42.4 27.4-68.4-7.7-24.5-30.5-37.6-54.8-32.1-22.3 5-42.3 30.5-40.1 55.3z"/>
  <path fill="#A5A4A4" d="M560.5 811.5c.1 3.2-.4 6.1-2.1 9.1-5.7 10.4-6.6 22.2-8.4 33.7-2.4 15.9-.8 31.6 3.1 47.1-2.4 1.8-1.6 4.5-1.6 6.9-.1 7.7 0 15.4 0 23.1h-24V791.7c13.2 3.1 22.4 12.6 33 19.8z"/>
  <path fill="#7B7979" d="M252.6 930.2c1.4-3 4.4-3.9 7.1-5.1 20.4-8.8 38.2-21.2 53.1-37.8 4.7-5.2 10.3-9.3 16.3-12.9 4.6 9.9 8.9 20 14.9 29.3 8.5 13.3 20.2 22.4 35 27.6-40.5.1-81.1.1-121.6.2-1.7.1-3.5.2-4.8-1.3z"/>
  <path fill="#A09E9E" d="M527.5 791.8v139.7h-21c0-44.8.1-89.6-.1-134.5 0-6 1.4-9 7.8-8 4.6-.2 9.2.1 13.3 2.8z"/>
  <path fill="#8F8E8E" d="M445.3 818.7c6.6-8 13.7-15.3 23.6-19.2 2 10.3 1.5 20.7 1.5 31.2v100.8c-18.5 0-37.1-.1-55.6-.1 31.2-9.1 37.5-30 39-56.4 1-16.8-2.4-33.1-8-48.9-.7-2.6-1.1-4.9-.5-7.4z"/>
  <path fill="#999798" d="M514.1 788.9c-6.3-.9-7.8 2-7.8 8 .2 44.8.1 89.6.1 134.5h-19.5V801.8c0-3.2.5-6.5-1.4-9.5 9.5-2.5 18.7-5.8 28.6-3.4z"/>
  <path fill="#959393" d="M485.6 792.3c1.9 2.9 1.4 6.3 1.4 9.5v129.6h-16.5V830.6c0-10.4.5-20.8-1.5-31.2 5-3.6 10.8-5.2 16.6-7.1z"/>
  <path fill="#D4D4D4" d="M694 850.5c8.7.4 14.4 5.8 19.7 11.8-2.7 2.1-1.7 5-1.7 7.7-.1 20.5 0 40.9 0 61.4h-18v-80.9z"/>
  <path fill="#D0CFCF" d="M694 850.5v80.9h-16.5c0-17.5.1-35.1-.1-52.6 0-2.6 1.7-6.3-2.9-7.3 4.6-9.1 6.4-19.1 10.3-28.5 1.9 3.9 5.5 5.8 9.2 7.5z"/>
  <path fill="#DFDFDF" d="M731.6 875.7c8.7 5.3 17.7 10.3 25.8 16.6-4 .6-3.4 3.6-3.4 6.3v32.8h-24c0-7.2-.2-14.4 0-21.6.5-11.4-1.5-22.9 1.6-34.1z"/>
  <path fill="#DAD9D9" d="M731.6 875.7c-3.1 11.2-1.1 22.7-1.5 34.1-.3 7.2 0 14.4 0 21.6h-18V870c0-2.6-1-5.6 1.7-7.7 5.9 4.5 11.8 9 17.8 13.4z"/>
  <path fill="#E7E7E7" d="M754 931.4v-32.8c0-2.7-.6-5.7 3.4-6.3 9 5.1 18 10.2 26.1 16.8-2.6 1.5-2.5 4-2.5 6.6v15.7h-27z"/>
  <path fill="#CBCACA" d="M674.6 871.5c4.5 1 2.8 4.7 2.9 7.3.1 17.5.1 35.1.1 52.6h-19.5c-.6-7 1.9-14.5-3-20.9 7.4-12.5 15.3-24.8 19.5-39z"/>
  <path fill="#EEEFEF" d="M781 931.4v-15.7c0-2.5-.1-5 2.5-6.6 12.1 6.9 24.2 13.8 35.3 22.4-12.6 0-25.2-.1-37.8-.1z"/>
  <path fill="#ADACAC" d="M551.5 931.4c0-7.7-.1-15.4 0-23.1 0-2.4-.8-5.1 1.6-6.9 6.8 15.3 18.4 25.2 34.4 30h-36z"/>
  <path fill="#C5C3C3" d="M655 910.5c4.9 6.4 2.4 13.9 3 20.9h-34.5c12.7-3.6 22.3-12 31.5-20.9z"/>
  <path fill="#E6C8BA" d="M339.9 853.7c-1.7-27.1 23.1-49.8 47.9-48.3 22.3 1.3 43.9 20.6 48.2 43.3 3.4 18 1.2 34.4-11.4 48.9-13.4 15.6-38.3 19.8-56.2 9.2-19.4-11.6-28.9-28.8-28.5-53.1zM419.5 618.9c.3 9.3-.6 17.8-5.6 25.5-6.5 9.8-17.7 11-25 1.8-15-19-18.2-40.5-10.8-63.3 1.8-5.6 5.8-10.5 12.6-11.3 9.9-1.2 15.3 5.3 19.7 12.3 6.7 10.6 9.9 22.6 9.1 35z"/>
  <path fill="#E8C9BC" d="M349 482.7c.1-6.4.6-13.2 7.5-15.6 6.8-2.3 12.8 0 17.8 5.9 7.7 9 10.2 22.2 4.7 31.1-3.5 5.6-8.2 7.6-14.6 4.8-9.8-4.5-15.4-14-15.4-26.2zM317.8 475.5c4.4.1 6.7 4.7 8.7 9.8 2.2 5.4 1.9 10.2-2.5 14.3-1.6 1.5-3.5 1.6-5.6 1-8.1-2.2-13-15.4-8.3-22.3 1.6-2.4 2.3-2.7 7.7-2.8zM284.6 503.9c-.8-4.6 1.3-8.1 5.1-9.7 4.1-1.7 6.8 1.7 9.5 4.3 3.4 3.4 4 8.1 4.4 12.3.3 3.4-2 6.8-5.8 7.8-3.9 1-7.6-.2-9.8-3.6-2.2-3.2-4.2-6.8-3.4-11.1z"/>
  <path fill="#EACBBD" d="M584.8 679.6c6.7 1.8 9.3 6.7 11.9 12.9 13.1 30.6 7.9 59.3-7.6 87.3-3.2 5.8-8.9 9.2-12.7 14.4-1.7 2.3-5.5 1.7-8.5.9 5.6-17.2 11.8-34.3 14.9-52.3 3.8-21.1 4.9-42.1 2-63.2z"/>
  <path fill="#E6C8BA" d="M655.2 579.8c0-.8 0-1.6-.1-2.4 6.4.6 12 3 16.1 8.1 11.2 13.7 24.1 26.1 33.2 41.4 0 26.2-.1 52.5.1 78.7 0 5.6.2 10.9 2.3 16.6 2.5 7.2.8 15.5-4.7 21.7-4.6 5.2-11.7 4-17.5 4.2-18.2.8-36.5.3-54.7.3-7.9 0-14.3-3.7-19.8-9v-1.5c-1.8-7.3-1.5-14.7-1.5-22.1V657c0-5.2-.1-5.2-4.5-4.6-8.7.2-13.9-5-16.7-12.4-8.1-21.4-4.3-41.5 8.1-60.2 4.1-6.2 10-9.6 17.8-8.4 7.2 1.1 10 6.7 12.2 12.7.9 2.3 1.7 4.7 2.4 7.1.6 2-.7 5.2 1.9 6 2.8.8 4.4-2.2 5.6-4.1 2-3.1 5.3-5.3 6.2-9.2 1 .6 2 1.3 3 1.9-3 3.7-6 7.3-9 11-5.5 6.6-11 13.1-16.4 19.7-3.4 2.9-6.2 6.3-7.9 10.5-.4.6-.9 1.2-1.1 1.9-3.1 9.3-.3 18.6-.2 28 .3 22.4.1 44.8.1 67.1 0 2.6-.9 5.5 1.1 7.9.6 1.6 1.2 3.3 1.8 4.9 2.1 5.9 6.5 8.6 12.6 8.6 21.2.1 42.4.2 63.7 0 9.2-.1 15.5-7.9 14.4-17-.3-2.7-.5-5.4-.5-8.2 0-27.7-.1-55.4 0-83.1 0-5.7-1.1-11-4.7-15.4-7.5-9.3-14.9-18.6-23-27.4-4.3-4.6-7.6-10.6-14.5-12.4-2-.6-3.9-1.3-5.8-2.1z"/>
  <path fill="#E8C9BC" d="M700 510.6c-.1-8.6 5.6-17.1 11-16.8 5.6.3 8.3 4.1 8.4 9.5.2 8-5.7 15.6-11.8 15.7-6.7.1-7.2-4.7-7.6-8.4zM676 490.3c.1-7.4 5.5-14.8 11.1-14.7 5.7.1 8 4.1 8 8.9.1 7.4-6.5 16.6-11.5 16.4-6.6-.4-7.8-5.1-7.6-10.6z"/>
  <path fill="#504A4B" d="M644.5 585.9c-1-.6-2-1.3-3-1.9-16.1-10.2-29.5-23.3-40-39.3-1.5-2.2-2.8-4.7-3.5-7.3-.7-2.6 1.3-1.8 2.7-1.3 10.2 20.8 26.2 35.8 46.1 47.1 2.8 1.3 5.6 2.7 8.4 4-1 3.1-3.2 1.6-5 1.2-1.9-.8-3.8-1.6-5.7-2.5z"/>
  <path fill="#EACBBD" d="M604 652.5c4.4-.6 4.5-.6 4.5 4.6v58.8c0 7.4-.3 14.8 1.5 22.1-3.3-2.8-3-6.6-3-10.3 0-22.6.1-45.3-.1-67.9 0-2.7 1.7-6.4-2.9-7.3z"/>
  <path fill="#BC0000" d="M655.3 587.2c-2.8-1.3-5.6-2.7-8.4-4 1.2-1.7 3-2.5 4.9-3.1 1.2-.1 2.3-.2 3.5-.2 1.9.7 3.8 1.5 5.6 2.2 10.8 12.9 21.6 25.8 32.5 38.7 2.6 3.1 4.7 6.4 3.7 10.8-1.9-.5-4-.5-5.7-1.4-17.6-9.4-35.2-19-52.8-28.5-1.9-1-3-2.4-3.1-4.6 3-3.7 6-7.3 9-11 1.9.8 3.8 1.6 5.8 2.5-2.5 3.7-2.3 7 1.9 9.2 2.9 1.5 5.5.1 6.8-2.4 1.9-4 .2-6.8-3.7-8.2z"/>
  <path fill="#E8C9BC" d="M622 492.4c-.1-8.3 2.4-15.7 8.5-21.6 9-8.7 21.1-5.1 24.1 7 2.5 10.2-5 26.1-14.5 30.5-10.1 4.6-18.1-2.4-18.1-15.9z"/>
  <path fill="#E6C8BA" d="M566.5 862.3c-2.2-24.8 17.8-50.3 40.1-55.4 24.2-5.5 47.1 7.6 54.8 32.1 8.2 26.1-4 56.8-27.4 68.4-33.6 16.7-67.6-7.8-67.5-41.4v-3.7z"/>
  <path fill="#F95A3A" d="M1355.3 444.2c-30.5 0-54-23.6-54.1-54.1 0-30.8 24-54.9 54.5-54.7 30.3.2 54.1 24.1 54.3 54.4.2 30.5-23.9 54.5-54.7 54.4z"/>
  <path fill="#798390" d="M1227.9 703.3c8.2 0 16.5.1 24.7-.1 3.6-.1 5.5.6 5.4 4.8-.2 17.5-.2 35 0 52.5 0 3.9-1.7 4.5-5 4.5-17.2-.1-34.5-.2-51.7 0-4 0-5.1-1.3-5.1-5.2.2-17 .2-34 0-51-.1-4.9 2-5.8 6.2-5.7 8.5.4 17 .2 25.5.2z"/>
  <path fill="#798490" d="M1227.3 649.7c-8.7 0-17.5-.1-26.2.1-3.5.1-4.8-1.1-4.8-4.7.1-17.5.1-34.9 0-52.4 0-3.8 1.8-4.5 5.1-4.5 17.2.1 34.4.1 51.6 0 3.9 0 5.2 1.2 5.1 5.1-.2 17.2-.2 34.4 0 51.6 0 4.2-1.8 4.9-5.4 4.9-8.5-.2-17-.1-25.4-.1z"/>
  <path fill="#798390" d="M1244.1 474.1c13.9-1 13.9-1 13.9 12.3 0 14.5-.1 28.9.1 43.4.1 4.2-1.3 5.6-5.5 5.5-17-.2-33.9-.2-50.9 0-4.4.1-5.5-1.5-5.5-5.7.2-17 .2-33.9 0-50.9 0-4 1.4-5.3 5.2-5.1 5.5.3 10.9.3 16.4.4-4.2 3.4-6 7.8-5.9 13.1.1 2.8-.2 5.7 3.9 5.8 3.8.1 4.6-2.1 4.5-5.3-.1-2.5-.4-5.5 2.4-6.5 5.3-1.9 11-2.5 16 0 5 2.6 2.8 8 2.6 12.3-.2 5-5.1 5.7-8.6 7.3-5.4 2.5-9.4 5.7-9.2 12.2.1 2.1.1 4.2 3 4.2 2.3 0 5.5 1 5.6-2.9.1-4 2.9-5.5 5.8-7.1 13.6-7 16.3-21.5 6.2-33zm-20.4 54c-.2 2.7-.3 4.9 3.6 4.7 3-.2 5.3-.4 5-4.4-.1-2.7-.4-4.7-3.9-4.8-3.2 0-5.2.9-4.7 4.5z"/>
  <path fill="#A2B9C3" d="M1402 564h-107.2c-2 0-4-.1-6-.2-1.1-.1-1.9-.6-2-1.8-.2-1.5.7-2.3 2.1-2.4 1.7-.1 3.5-.1 5.2-.1h217.4c1.5 0 3 0 4.5.1 1.3.1 2.6.3 2.8 1.9.2 2.1-1.3 2.5-2.8 2.5-2 .1-4 .1-6 .1-36.1-.1-72.1-.1-108-.1z"/>
  <path fill="#A7BDC7" d="M1402.7 588.1h107.9c2 0 4 0 6 .1 1.4.1 2.3.8 2.2 2.4-.1 1.2-.9 1.7-2 1.8-1.7.1-3.5.2-5.2.2h-217.3c-1 0-2 .1-3 0-1.8-.2-4.6.8-4.4-2.4.2-2.4 2.5-1.9 4.2-2 6.7-.1 13.5 0 20.2 0 30.4-.1 60.9-.1 91.4-.1zM1402.8 736.4h-107.9c-2 0-4 0-6-.1-1.4-.1-2.3-.8-2.2-2.4.1-1.2.9-1.7 2-1.8 1.7-.1 3.5-.2 5.2-.2h217.3c1 0 2-.1 3 0 1.8.2 4.6-.8 4.4 2.4-.2 2.4-2.5 1.9-4.2 2-6.7.1-13.5 0-20.2 0-30.4.1-60.9.1-91.4.1z"/>
  <path fill="#A2B9C3" d="M1402.8 765h-107.9c-2 0-4 0-6-.1-1.5-.1-2.3-.9-2.1-2.4.1-1.2 1-1.7 2-1.8 1.7-.1 3.5-.1 5.2-.2h217.4c1 0 2-.1 3 0 1.8.2 4.6-.6 4.3 2.6-.2 2.5-2.6 1.9-4.2 1.9-9.7.1-19.5 0-29.2 0h-82.5z"/>
  <path fill="#ADC1CA" d="M1402 679.3H1290.4c-1.7-.1-3.8 0-3.5-2.6.2-2 2.1-1.7 3.6-1.8 1.5-.1 3 0 4.5 0 71.9 0 143.8 0 215.7.1 2.7 0 7.6-1.5 7.7 1.8.1 4.8-5 2.5-7.7 2.5-36.3.1-72.5 0-108.7 0z"/>
  <path fill="#A7BDC7" d="M1402.8 535.4h-107.9c-2 0-4 0-6-.2-1.4-.1-2.3-.9-2.1-2.4.1-1.2 1-1.7 2.1-1.7 1.7-.1 3.5-.1 5.2-.1h217.3c1.2 0 2.5-.1 3.7 0 1.7.1 3.9-.2 3.6 2.5-.2 2-2 1.8-3.5 1.9-1.7.1-3.5 0-5.2 0h-107.2z"/>
  <path fill="#ADC1CA" d="M1402.8 649.7h-107.9c-2 0-4 0-6-.2-1-.1-2-.5-2.1-1.7-.2-1.5.7-2.3 2.1-2.4 1.7-.2 3.5-.2 5.2-.2h217.2c1 0 2-.1 3 0 1.8.2 4.6-.5 4.3 2.6-.2 2.4-2.7 1.8-4.3 1.8-11.7.1-23.5 0-35.2 0-25.4.1-50.9.1-76.3.1zM1403 703.3h112.3c1.5.1 3.3 0 3.4 2 .1 2-1.6 2.3-3.1 2.3-1.5.1-3 .1-4.5.1-72.2 0-144.3 0-216.5-.1-2.7 0-7.5 1.7-7.6-2.1-.1-4.1 4.7-2.2 7.3-2.2H1403zM1402.5 621.2h-112.3c-1.5-.1-3.3-.1-3.4-2.1-.1-2 1.6-2.2 3.1-2.3 1.5-.1 3-.1 4.5-.1 72.2 0 144.3 0 216.5.1 2.7 0 7.5-1.7 7.6 2.1.1 4-4.8 2.2-7.3 2.2-36.3.1-72.5.1-108.7.1z"/>
  <path fill="#C50122" d="M1244.1 474.1c10.1 11.5 7.4 26-6.1 33.1-2.9 1.5-5.7 3-5.8 7.1-.1 4-3.3 2.9-5.6 2.9-2.9.1-2.9-2-3-4.2-.2-6.6 3.7-9.8 9.2-12.2 3.5-1.6 8.3-2.3 8.6-7.3.2-4.2 2.4-9.7-2.6-12.3-5-2.5-10.7-1.9-16 0-2.8 1-2.5 4.1-2.4 6.5.1 3.2-.6 5.4-4.5 5.3-4.1-.1-3.9-3-3.9-5.8-.1-5.3 1.8-9.7 5.9-13.1 8.7-2.1 17.5-2.3 26.2 0z"/>
  <path fill="#E50000" d="M613 736.9c-.6-1.6-1.2-3.3-1.8-4.9.2-15 .3-30 .5-44.9 2.1-.1 3.9.4 5.7 1.4 14.8 8.1 29.6 16.3 44.6 24.1 11.7 6.1 22.5 13.7 35.1 18-.5 7.9-5.4 10.6-12.6 10.6-19.5 0-39-.1-58.4.1-5.1-.1-9.4-1.3-13.1-4.4z"/>
  <path fill="#D20000" d="M611.2 627c1.7-4.2 4.5-7.6 7.9-10.5 1.5 3.2 4.6 4.4 7.4 5.9 9.9 5.4 19.5 11.2 29.5 16.1 13.9 6.8 26.6 15.7 41 21.4v30c-18.4-7.2-34.6-18.4-52.2-27.2-11-5.5-20.8-13.6-33.3-16.3-.1-6.4-.2-12.9-.3-19.4z"/>
  <path fill="#C70000" d="M697 660c-14.4-5.7-27.2-14.6-41-21.4-10.1-4.9-19.7-10.7-29.5-16.1-2.9-1.6-5.9-2.7-7.4-5.9 5.5-6.6 11-13.1 16.4-19.7.1 2.2 1.2 3.6 3.1 4.6 17.6 9.5 35.1 19.1 52.8 28.5 1.7.9 3.8 1 5.7 1.4-.1 9.6-.1 19.1-.1 28.6z"/>
  <path fill="#D4B6A9" d="M697 660v-28.5c1-4.4-1-7.6-3.7-10.8-10.8-12.9-21.6-25.8-32.5-38.7 6.8 1.7 10.2 7.8 14.5 12.4 8.1 8.7 15.5 18.1 23 27.4 3.6 4.4 4.7 9.7 4.7 15.4-.1 27.7 0 55.4 0 83.1 0 2.7.2 5.5.5 8.2 1.1 9-5.2 16.9-14.4 17-21.2.2-42.4.1-63.7 0-6.1 0-10.4-2.7-12.6-8.6 3.8 3.2 8 4.4 13.1 4.3 19.5-.2 39-.1 58.4-.1 7.2 0 12-2.7 12.6-10.6V690c.1-10 .1-20 .1-30zM611.2 627c.1 6.5.3 13 .4 19.5V687c-.2 15-.3 30-.5 44.9-2-2.4-1.1-5.3-1.1-7.9-.1-22.4.2-44.8-.1-67.1-.1-9.3-2.9-18.7.2-28 .2-.6.7-1.2 1.1-1.9z"/>
  <path fill="#C6A69A" d="M655.3 587.2c3.9 1.4 5.6 4.2 3.7 8-1.3 2.6-3.9 4-6.8 2.4-4.2-2.2-4.4-5.5-1.9-9.2 1.8.3 4 1.9 5-1.2z"/>
  <path fill="#C50021" d="M1223.7 528.1c-.5-3.7 1.4-4.5 4.7-4.5 3.5 0 3.7 2.1 3.9 4.8.2 3.9-2 4.2-5 4.4-3.9.2-3.8-2-3.6-4.7z"/>
  <path fill="#DB0000" d="M611.6 687v-40.5c12.4 2.7 22.2 10.8 33.3 16.3 17.5 8.8 33.8 20 52.2 27.2v40.5c-12.6-4.3-23.4-11.9-35.1-18-15-7.8-29.7-16.1-44.6-24.1-1.9-1-3.7-1.5-5.8-1.4z"/>
  <path fill="#A2B9C3" d="M1402 478.5h-107.2c-2 0-4-.1-6-.2-1.1-.1-1.9-.6-2-1.8-.2-1.5.7-2.3 2.1-2.4 1.7-.1 3.5-.1 5.2-.1h217.4c1.5 0 3 0 4.5.1 1.3.1 2.6.3 2.8 1.9.2 2.1-1.3 2.5-2.8 2.5-2 .1-4 .1-6 .1-36.1-.1-72.1-.1-108-.1z"/>
  <path fill="#A7BDC7" d="M1402.7 502.6h107.9c2 0 4 0 6 .1 1.4.1 2.3.8 2.2 2.4-.1 1.2-.9 1.7-2 1.8-1.7.1-3.5.2-5.2.2h-217.3c-1 0-2 .1-3 0-1.8-.2-4.6.8-4.4-2.4.2-2.4 2.5-1.9 4.2-2 6.7-.1 13.5 0 20.2 0 30.4-.1 60.9-.1 91.4-.1z"/>
  <path fill="#FEFEFE" d="M1388.7 380.6h-23.8v-23.8h-18.5v23.8h-23.7v18.5h23.7v23.7h18.5v-23.7h23.8z"/>
  <path d="M1296.9 483.8c-1 0-1.9-.2-2.7-.6-.8-.4-1.4-1-1.8-1.7-.4-.7-.7-1.6-.7-2.5 0-.4 0-.8.1-1.2.1-.4.2-.7.3-1h1.9c-.1.2-.1.6-.2.9s-.1.7-.1 1.1c0 .6.1 1.1.3 1.7s.6.9 1.1 1.3c.5.3 1.1.5 1.8.5.8 0 1.4-.2 1.9-.5s.9-.8 1.1-1.4c.2-.6.4-1.2.4-1.9 0-.8-.1-1.4-.4-2-.3-.6-.7-1.1-1.2-1.4-.5-.4-1.2-.5-1.9-.5h-.9V473h1c.7 0 1.3-.1 1.7-.4.4-.3.8-.6 1-1 .2-.4.3-.8.3-1.2 0-.7-.2-1.3-.7-1.9-.5-.5-1.1-.8-1.9-.8v-1.6c.9 0 1.6.2 2.3.6.7.4 1.2.9 1.6 1.5.4.6.6 1.3.6 2 0 .9-.3 1.7-.9 2.4-.6.7-1.3 1.1-2.3 1.3v.1c.6.1 1.2.3 1.8.7.5.4 1 .9 1.3 1.6.3.7.5 1.5.5 2.5 0 1.1-.2 2-.7 2.8-.4.8-1.1 1.4-1.9 1.8s-1.7.4-2.7.4zM1310.4 483.8c-1.1 0-2.1-.2-2.9-.6-.8-.4-1.4-1-1.9-1.7-.4-.7-.7-1.6-.7-2.5 0-.4 0-.8.1-1.2.1-.4.2-.7.3-1h1.9c-.1.2-.1.6-.2.9s-.1.7-.1 1.1c0 .6.1 1.1.4 1.7.2.5.6.9 1.1 1.3.5.3 1.2.5 2 .5s1.4-.2 1.9-.5.9-.8 1.1-1.4c.2-.6.4-1.2.4-1.9 0-1-.3-1.9-.9-2.5-.6-.7-1.5-1-2.7-1h-.9v-1.6h1c1.1 0 1.8-.3 2.3-.9s.7-1.3.7-2.1c0-.7-.2-1.4-.7-1.9-.5-.5-1.2-.8-2.1-.8-.9 0-1.6.2-2.1.7-.5.5-.7 1.1-.7 1.9v.6c0 .2.1.4.1.7h-1.9c-.1-.2-.1-.5-.2-.7 0-.2-.1-.5-.1-.7 0-.8.2-1.5.6-2.1.4-.6 1-1.1 1.7-1.5.7-.4 1.6-.5 2.5-.5s1.8.2 2.5.6c.7.4 1.3.9 1.7 1.5.4.6.6 1.4.6 2.1 0 1.1-.3 1.9-.9 2.6-.6.7-1.3 1.1-2.3 1.3v.1c.6.1 1.2.3 1.8.7s1 .8 1.3 1.5c.3.6.5 1.4.5 2.3 0 1.1-.2 2-.7 2.8-.4.8-1.1 1.4-1.9 1.8-.6.2-1.5.4-2.6.4zM1323.2 483.8c-1 0-1.9-.2-2.7-.7-.8-.4-1.4-1.1-1.8-1.9-.4-.8-.7-1.7-.7-2.8 0-.4 0-.8.1-1.2.1-.4.2-.7.3-1h1.9c-.1.2-.1.6-.2.9-.1.4-.1.7-.1 1.1 0 1.1.3 2 .8 2.8.5.7 1.3 1.1 2.4 1.1 1.2 0 2-.4 2.5-1.1.5-.8.8-1.8.8-3.1v-6.8c0-1.1-.2-2-.7-2.6-.5-.6-1.2-.9-2.1-.9-.9 0-1.6.2-2.1.7-.5.5-.8 1.2-.8 2.2 0 .3 0 .7.1.9 0 .3.1.5.1.7h-1.9c-.1-.2-.1-.4-.2-.7-.1-.3-.1-.6-.1-1 0-1 .2-1.8.7-2.5.4-.7 1-1.2 1.8-1.5.7-.3 1.6-.5 2.5-.5 1.5 0 2.6.4 3.5 1.3.9.9 1.3 2.2 1.3 3.8v7c0 1.8-.5 3.2-1.4 4.3-1 1-2.3 1.5-4 1.5zM1336.5 478.4c-1 0-1.8-.2-2.6-.7-.8-.5-1.4-1.2-1.8-2.1-.5-.9-.7-2.1-.7-3.4 0-2 .5-3.5 1.4-4.6.9-1.1 2.2-1.6 3.7-1.6.8 0 1.6.2 2.4.6.7.4 1.3 1.1 1.6 1.9h.1c.5-1.7 1.8-2.5 3.8-2.5.9 0 1.7.3 2.4.8s1.1 1.2 1.5 2.1c.3.9.5 1.9.5 3 0 1.3-.1 2.4-.3 3.4s-.6 2-1 3h-2c.5-1 .8-2.1 1-3 .2-1 .3-2 .3-3.2 0-1.5-.2-2.6-.7-3.3s-1.1-1.1-1.8-1.1c-.8 0-1.4.3-1.8.8s-.7 1.4-.7 2.6v1.2c0 2-.5 3.5-1.4 4.6s-2.4 1.5-3.9 1.5zm0-1.7c1.1 0 1.8-.4 2.3-1.2.5-.8.7-2 .7-3.4s-.2-2.5-.7-3.4-1.3-1.2-2.3-1.2-1.8.4-2.3 1.2c-.5.8-.7 1.9-.7 3.4 0 1.4.3 2.6.8 3.4.4.8 1.2 1.2 2.2 1.2zM1352.6 478.1c-.5-1-.8-2.1-1-3-.2-1-.3-2-.3-3.2 0-1.8.4-3.3 1.3-4.4.9-1.1 2.2-1.7 3.9-1.7 1.7 0 3 .6 3.9 1.7s1.3 2.6 1.3 4.4c0 1.2-.1 2.2-.3 3.2-.2 1-.6 2-1 3h-2c.5-1 .8-2.1 1-3 .2-1 .3-2 .3-3.2 0-1.5-.3-2.6-.8-3.3s-1.3-1.1-2.4-1.1-1.8.4-2.4 1.1-.8 1.8-.8 3.3c0 1.2.1 2.3.3 3.2.2 1 .6 2 1 3h-2zM1369.9 478.4c-1.7 0-3-.5-4-1.5-.9-1-1.4-2.5-1.4-4.5v-11.3h2v11.5c0 1.3.3 2.3.8 3.1.5.8 1.4 1.1 2.6 1.1.8 0 1.4-.2 1.9-.5s.9-.8 1.1-1.4c.2-.6.4-1.2.4-1.9 0-.6-.1-1.1-.3-1.6-.2-.5-.5-.9-.8-1.3-.4-.5-.7-1.1-1-1.7s-.5-1.4-.5-2.3h2c0 .7.1 1.3.4 1.8l.9 1.5c.3.5.6 1 .9 1.6.2.6.4 1.3.4 2.1 0 1.1-.2 2-.7 2.8-.4.8-1.1 1.4-1.9 1.9s-1.8.6-2.8.6zM1388.9 478.4c-1.1 0-2-.2-2.8-.7-.8-.5-1.4-1.1-1.9-2-.5-.9-.7-2-.7-3.3 0-1.8.5-3.3 1.4-4.3.9-1 2.1-1.5 3.6-1.5.9 0 1.7.2 2.3.5.6.3 1.1.8 1.5 1.3h.1c0-.2-.1-.4-.1-.7v-3c0-.7-.2-1.3-.5-1.6s-.8-.6-1.3-.6-.9.2-1.2.4c-.3.3-.5.7-.5 1.3v.9h-1.9v-.9c0-.6-.2-1-.5-1.3-.3-.3-.7-.4-1.1-.4-.3 0-.6 0-.8.1-.3.1-.5.2-.8.2l-.5-1.5.9-.3c.3-.1.7-.1 1.2-.1s.9.1 1.4.3.8.7 1.1 1.3h.1c.3-.7.7-1.1 1.2-1.3.5-.2 1-.3 1.6-.3.6 0 1.2.1 1.8.4.5.3 1 .7 1.3 1.2.3.6.5 1.3.5 2.1v7.8c0 2-.5 3.5-1.4 4.5-.9 1-2.2 1.5-4 1.5zm0-1.7c1.2 0 2.1-.4 2.6-1.1s.8-1.7.8-2.9v-.4c0-.8-.1-1.6-.3-2.2-.2-.6-.6-1.1-1.1-1.5s-1.2-.5-2.1-.5c-.7 0-1.3.2-1.8.6-.5.4-.8.9-1.1 1.5-.2.6-.3 1.4-.3 2.2 0 1.3.3 2.4.8 3.2.6.7 1.4 1.1 2.5 1.1zM1401.8 483.8c-1 0-1.9-.2-2.7-.7-.8-.4-1.4-1.1-1.8-1.9-.4-.8-.7-1.7-.7-2.8 0-.4 0-.8.1-1.2.1-.4.2-.7.3-1h1.9c-.1.2-.1.6-.2.9-.1.4-.1.7-.1 1.1 0 1.1.3 2 .8 2.8.5.7 1.3 1.1 2.4 1.1 1.2 0 2-.4 2.5-1.1.5-.8.8-1.8.8-3.1v-6.8c0-1.1-.2-2-.7-2.6-.5-.6-1.2-.9-2.1-.9-.9 0-1.6.2-2.1.7-.5.5-.8 1.2-.8 2.2 0 .3 0 .7.1.9 0 .3.1.5.1.7h-1.9c-.1-.2-.1-.4-.2-.7-.1-.3-.1-.6-.1-1 0-1 .2-1.8.7-2.5.4-.7 1-1.2 1.8-1.5.7-.3 1.6-.5 2.5-.5 1.5 0 2.6.4 3.5 1.3.9.9 1.3 2.2 1.3 3.8v7c0 1.8-.5 3.2-1.4 4.3-1 1-2.3 1.5-4 1.5zM1421.1 483.8c-.3-.6-.8-1.2-1.4-1.6s-1.2-.8-1.8-1.1c-.7-.2-1.3-.4-1.9-.4-.6 0-1.2.1-1.7.2s-1.1.3-1.7.6l-.7-1.4c.3-.2.7-.3 1.2-.4s1-.2 1.7-.2v-.1c-1.5-.7-2.7-1.7-3.6-3-.8-1.2-1.3-2.8-1.3-4.6 0-1.1.2-2.1.5-3 .3-.9.8-1.6 1.5-2.1s1.5-.8 2.5-.8 1.8.2 2.4.6c.6.4 1.1 1.1 1.3 1.9h.1c.3-.9.8-1.5 1.6-1.9.7-.4 1.5-.6 2.4-.6 1.6 0 2.8.5 3.7 1.6.9 1.1 1.4 2.6 1.4 4.5 0 1.3-.2 2.4-.7 3.3-.5.9-1.1 1.6-1.8 2.1-.8.5-1.6.7-2.6.7-1.5 0-2.8-.5-3.7-1.6-.9-1.1-1.4-2.6-1.4-4.5v-1.1c0-1.2-.2-2-.7-2.6s-1.1-.8-1.8-.8c-.8 0-1.4.4-1.8 1.1-.4.7-.7 1.8-.7 3.1 0 1.4.2 2.6.7 3.5.5.9 1.1 1.6 1.8 2.2.7.6 1.5 1 2.4 1.4.9.4 1.7.7 2.4 1.1.7.4 1.3.8 1.9 1.2.6.5 1 1.1 1.4 1.8l-1.6.9zm1.1-7.3c1.1 0 1.8-.4 2.4-1.2.5-.8.8-1.9.8-3.3s-.2-2.5-.7-3.3c-.5-.8-1.3-1.2-2.3-1.2-1.1 0-1.8.4-2.3 1.2-.5.8-.8 1.9-.8 3.3s.2 2.5.7 3.3c.3.8 1.1 1.2 2.2 1.2zM1434.6 483.8c-1 0-1.9-.2-2.7-.7-.8-.4-1.4-1.1-1.8-1.9-.4-.8-.7-1.7-.7-2.8 0-.4 0-.8.1-1.2.1-.4.2-.7.3-1h1.9c-.1.2-.1.6-.2.9-.1.4-.1.7-.1 1.1 0 1.1.3 2 .8 2.8.5.7 1.3 1.1 2.4 1.1 1.2 0 2-.4 2.5-1.1.5-.8.8-1.8.8-3.1v-6.8c0-1.1-.2-2-.7-2.6-.5-.6-1.2-.9-2.1-.9-.9 0-1.6.2-2.1.7-.5.5-.8 1.2-.8 2.2 0 .3 0 .7.1.9 0 .3.1.5.1.7h-1.9c-.1-.2-.1-.4-.2-.7-.1-.3-.1-.6-.1-1 0-1 .2-1.8.7-2.5.4-.7 1-1.2 1.8-1.5.7-.3 1.6-.5 2.5-.5 1.5 0 2.6.4 3.5 1.3.9.9 1.3 2.2 1.3 3.8v7c0 1.8-.5 3.2-1.4 4.3-1 1-2.3 1.5-4 1.5zM1448.2 483.8c-1.1 0-2-.2-2.8-.7-.8-.5-1.5-1.2-2-2.1-.5-.9-.7-2-.7-3.2 0-1.9.5-3.3 1.4-4.3.9-1 2.2-1.6 3.8-1.8.9-.1 1.5-.4 1.9-.8s.6-.9.6-1.5-.2-1.1-.6-1.4-.9-.6-1.6-.6c-.7 0-1.2.2-1.6.5-.4.3-.5.8-.5 1.4v.4c0 .1 0 .2.1.4h-1.9c-.1-.4-.1-.7-.1-1.1 0-.9.4-1.7 1.1-2.3s1.7-.9 3-.9c.8 0 1.5.1 2.1.4s1.1.7 1.5 1.2c.4.5.5 1.1.5 1.8s-.2 1.3-.5 1.8-.9.9-1.6 1.1v.1c.8.2 1.5.6 2.1 1.2.5.5.9 1.2 1.2 1.9.3.7.4 1.5.4 2.4 0 1.9-.5 3.4-1.5 4.4-1.2 1.1-2.5 1.7-4.3 1.7zm.1-1.7c1.2 0 2.1-.4 2.7-1.2.6-.8.9-1.9.9-3.2s-.3-2.4-.9-3.2-1.5-1.2-2.7-1.2c-1.2 0-2.1.4-2.7 1.2s-.8 1.8-.8 3.2.3 2.4.8 3.2c.5.8 1.4 1.2 2.7 1.2zM1461.5 483.8c-1 0-1.9-.2-2.7-.7-.8-.4-1.4-1.1-1.8-1.9-.4-.8-.7-1.7-.7-2.8 0-.4 0-.8.1-1.2.1-.4.2-.7.3-1h1.9c-.1.2-.1.6-.2.9-.1.4-.1.7-.1 1.1 0 1.1.3 2 .8 2.8.5.7 1.3 1.1 2.4 1.1 1.2 0 2-.4 2.5-1.1.5-.8.8-1.8.8-3.1v-6.8c0-1.1-.2-2-.7-2.6-.5-.6-1.2-.9-2.1-.9-.9 0-1.6.2-2.1.7-.5.5-.8 1.2-.8 2.2 0 .3 0 .7.1.9 0 .3.1.5.1.7h-1.9c-.1-.2-.1-.4-.2-.7-.1-.3-.1-.6-.1-1 0-1 .2-1.8.7-2.5.4-.7 1-1.2 1.8-1.5.7-.3 1.6-.5 2.5-.5 1.5 0 2.6.4 3.5 1.3.9.9 1.3 2.2 1.3 3.8v7c0 1.8-.5 3.2-1.4 4.3-1.1 1-2.3 1.5-4 1.5zM1476.5 466c1.3.3 2.3.9 3.1 2 .8 1.1 1.2 2.4 1.2 4.2 0 2-.5 3.5-1.5 4.6-1 1.1-2.4 1.6-4.1 1.6-1.1 0-2-.2-2.8-.7-.8-.5-1.5-1.2-2-2.1-.5-.9-.7-2.1-.7-3.4 0-1.9.4-3.3 1.3-4.4.9-1.1 2.1-1.7 3.6-1.8.1-.1.1-.3.2-.5s.1-.4.1-.7c0-.3-.1-.5-.2-.7-.1-.2-.3-.4-.5-.5-.3-.2-.6-.5-.9-.9-.3-.4-.4-.9-.4-1.6h2c0 .3.1.6.2.9.2.2.4.5.6.7.3.3.6.5.8.9.3.3.4.7.4 1.2-.1.3-.2.8-.4 1.2zm-1.3 10.7c1.2 0 2.1-.4 2.7-1.2.6-.8.9-2 .9-3.4s-.3-2.5-.9-3.4-1.5-1.2-2.7-1.2c-1.2 0-2.1.4-2.7 1.2s-.8 1.9-.8 3.4c0 1.4.3 2.6.8 3.4.6.8 1.5 1.2 2.7 1.2zM1484.7 478.1c-.5-1-.8-2.1-1-3-.2-1-.3-2-.3-3.2 0-1.8.4-3.3 1.3-4.4.9-1.1 2.2-1.7 3.9-1.7 1.7 0 3 .6 3.9 1.7s1.3 2.6 1.3 4.4c0 1.2-.1 2.2-.3 3.2-.2 1-.6 2-1 3h-2c.5-1 .8-2.1 1-3 .2-1 .3-2 .3-3.2 0-1.5-.3-2.6-.8-3.3s-1.3-1.1-2.4-1.1-1.8.4-2.4 1.1-.8 1.8-.8 3.3c0 1.2.1 2.3.3 3.2.2 1 .6 2 1 3h-2z"/>
  <g fill="red">
    <path d="M1297.3 512.3c-1.1 0-2.1-.2-2.9-.7-.8-.4-1.4-1.1-1.9-1.9-.4-.8-.7-1.7-.7-2.8 0-.4 0-.8.1-1.2.1-.4.2-.7.3-1h1.9c-.1.2-.1.6-.2.9-.1.4-.1.7-.1 1.1 0 1.1.3 2 .8 2.8s1.4 1.1 2.6 1.1c1.2 0 2-.4 2.5-1.1.5-.8.8-1.8.8-3.1v-7.9c0-.8-.1-1.4-.4-1.8-.3-.4-.7-.6-1.4-.6-.6 0-1 .2-1.3.6s-.5 1-.5 1.8v2.9h-1.9v-2.9c0-1.6-.6-2.4-1.8-2.4h-1.7v-1.6h1.6c.7 0 1.3.2 1.8.5s.8.8 1 1.5h.1c.5-1.4 1.5-2.1 2.9-2.1 1.1 0 2 .4 2.6 1.1s.9 1.6.9 2.7v8.4c0 1.8-.5 3.2-1.4 4.3-.7.9-2 1.4-3.7 1.4zM1312.1 512.3c-1.6 0-2.8-.4-3.8-1.1-1-.7-1.7-1.8-2.1-3.2-.5-1.4-.7-3-.7-4.9 0-1.6.2-3.2.6-4.7.4-1.5.9-2.8 1.5-3.8h2c-.6 1.1-1.1 2.3-1.5 3.8-.4 1.5-.6 3-.6 4.6 0 1.6.1 2.9.4 4s.8 2 1.5 2.6c.7.6 1.6.9 2.7.9 1.2 0 2.2-.3 2.9-.9.7-.6 1-1.6 1-2.9 0-.6-.1-1.2-.4-1.7-.2-.5-.6-1-1.2-1.3-.5-.3-1.2-.5-2.1-.5h-1v-1.6h1.5c1 0 1.6-.2 2.1-.5.4-.4.6-.8.6-1.5 0-.5-.1-1-.3-1.3-.2-.3-.5-.6-.8-.8-.5-.3-.9-.7-1.2-1.1-.4-.4-.5-1-.5-1.8h2c0 .4.2.7.4 1 .3.3.6.6 1 .9.4.3.8.7 1.1 1.2.3.4.4 1 .4 1.8 0 .9-.3 1.6-.8 2s-1.3.8-2.1 1v.1c.6.1 1.1.3 1.6.7.5.4 1 .9 1.3 1.5.3.6.5 1.4.5 2.4s-.2 1.9-.7 2.7-1.1 1.4-2 1.8c-1 .4-2.1.6-3.3.6zM1325.9 506.9c-1.7 0-3-.5-4-1.6-.9-1-1.4-2.6-1.4-4.7v-7c0-1 .2-1.7.5-2.4.4-.6.8-1.1 1.5-1.3.6-.3 1.3-.4 2.1-.4h5.3v1.7h-5c-.7 0-1.3.2-1.7.5-.4.4-.6 1-.6 1.8v.8c0 .2 0 .5-.1.9 0 .4-.1.7-.1.9h.1c.4-.5.9-.9 1.5-1.3.6-.3 1.4-.5 2.3-.5 1.5 0 2.7.5 3.6 1.6.9 1.1 1.4 2.6 1.4 4.7s-.5 3.6-1.5 4.7-2.3 1.6-3.9 1.6zm0-1.7c1.1 0 2-.4 2.5-1.2.5-.8.8-1.9.8-3.4 0-1.4-.3-2.6-.8-3.4-.5-.8-1.3-1.3-2.4-1.3-.9 0-1.6.2-2.1.5-.5.4-.9.9-1.1 1.5-.2.7-.3 1.4-.3 2.3v.6c0 1.3.3 2.3.8 3.1.5.9 1.4 1.3 2.6 1.3zM1335.1 506.6c-.5-1-.8-2.1-1-3-.2-1-.3-2-.3-3.2 0-1.2.2-2.3.5-3.2s.9-1.6 1.5-2.1c.7-.5 1.5-.8 2.5-.8.8 0 1.5.2 2 .6s.9.9 1.1 1.6h.1c.2-.7.6-1.2 1.2-1.6s1.2-.6 2-.6c1 0 1.8.3 2.5.8s1.2 1.2 1.5 2.1c.3.9.5 2 .5 3.2 0 1.2-.1 2.2-.3 3.2-.2 1-.6 2-1 3h-2c.5-1 .8-2.1 1-3 .2-1 .3-2 .3-3.2 0-1.5-.2-2.6-.7-3.3s-1.1-1.1-2-1.1c-.7 0-1.2.3-1.6.8s-.6 1.2-.6 2.2v3.6h-1.9V499c0-.8-.2-1.5-.5-2.1-.3-.6-.9-.8-1.6-.8-.9 0-1.5.4-2 1.1-.5.7-.7 1.8-.7 3.3 0 1.2.1 2.3.3 3.2.2 1 .6 2 1 3h-1.8zM1358.7 494.5c1.3.3 2.3.9 3.1 2 .8 1.1 1.2 2.4 1.2 4.2 0 2-.5 3.5-1.5 4.6-1 1.1-2.4 1.6-4.1 1.6-1.1 0-2-.2-2.8-.7-.8-.5-1.5-1.2-2-2.1-.5-.9-.7-2.1-.7-3.4 0-1.9.4-3.3 1.3-4.4.9-1.1 2.1-1.7 3.6-1.8.1-.1.1-.3.2-.5s.1-.4.1-.7c0-.3-.1-.5-.2-.7-.1-.2-.3-.4-.5-.5-.3-.2-.6-.5-.9-.9-.3-.4-.4-.9-.4-1.6h2c0 .3.1.6.2.9.2.2.4.5.6.7.3.3.6.5.8.9.3.3.4.7.4 1.2-.1.3-.2.8-.4 1.2zm-1.3 10.7c1.2 0 2.1-.4 2.7-1.2.6-.8.9-2 .9-3.4s-.3-2.5-.9-3.4-1.5-1.2-2.7-1.2c-1.2 0-2.1.4-2.7 1.2s-.8 1.9-.8 3.4c0 1.4.3 2.6.8 3.4.6.8 1.5 1.2 2.7 1.2zM1366.9 506.6c-.5-1-.8-2.1-1-3-.2-1-.3-2-.3-3.2 0-1.8.4-3.3 1.3-4.4.9-1.1 2.2-1.7 3.9-1.7 1.7 0 3 .6 3.9 1.7s1.3 2.6 1.3 4.4c0 1.2-.1 2.2-.3 3.2-.2 1-.6 2-1 3h-2c.5-1 .8-2.1 1-3 .2-1 .3-2 .3-3.2 0-1.5-.3-2.6-.8-3.3s-1.3-1.1-2.4-1.1-1.8.4-2.4 1.1-.8 1.8-.8 3.3c0 1.2.1 2.3.3 3.2.2 1 .6 2 1 3h-2zM1383.3 506.9c-.9 0-1.8-.2-2.5-.5s-1.4-.9-1.8-1.5c-.4-.7-.7-1.5-.7-2.5 0-.3 0-.6.1-1 .1-.3.1-.6.2-.7h1.9c-.1.2-.1.5-.1.7s-.1.6-.1.9c0 1 .3 1.7.8 2.2s1.3.7 2.2.7c.9 0 1.6-.3 2.2-.8.5-.5.8-1.3.8-2.3 0-.8-.2-1.4-.5-1.9s-.7-.9-1.1-1.4l-1.1-1.1c-.4-.4-.7-.9-.9-1.4-.2-.5-.3-1.1-.3-1.8h2c0 .7.2 1.2.5 1.7.4.5.8 1 1.2 1.4.4.4.7.8 1.1 1.2.3.4.6.9.9 1.4.2.5.3 1.2.3 1.9 0 .9-.2 1.7-.7 2.5-.4.7-1 1.3-1.8 1.6-.8.5-1.7.7-2.6.7z"/>
  </g>
  <path fill="#303030" d="M0 931.4h1919.6V1080H0z"/>
</svg>
