<?xml version="1.0" encoding="utf-8"?>
<!-- Generator: Adobe Illustrator 23.0.1, SVG Export Plug-In . SVG Version: 6.00 Build 0)  -->
<svg version="1.2" baseProfile="tiny" id="svg-12" xmlns="http://www.w3.org/2000/svg" xmlns:xlink="http://www.w3.org/1999/xlink"
	 x="0px" y="0px" viewBox="0 0 1920 1080" xml:space="preserve">
<path id="back" fill="#484F59" d="M1598.6,359.3c-5.5-64.4-63.2-119.8-127.8-122.6c-17,0-34.1,0.2-51.1,0.1v-0.3h-152.8v0.2
	c-6.4,0-12.8-0.1-19.1-0.1c-70.8,3.5-129,64.9-129.1,136.4c-0.1,116.2,0,232.5-0.1,348.7c-0.1,10.5,1,20.9,3,31.2
	c12,61.5,70,109.5,132.6,109.5c70,0,140-0.1,210,0c7.7,0,15.4-0.8,23-2.4c67.4-14.2,112.5-69.8,112.6-138.7V387
	C1599.8,377.7,1599.4,368.5,1598.6,359.3z"/>
<rect id="paper" x="1165.1" y="282" fill="#FFFFFF" width="394.3" height="525.2"/>
<g id="lines">
	<path fill="#A2B9C3" d="M1402,564h-107.2c-2,0-4-0.1-6-0.2c-1.1-0.1-1.9-0.6-2-1.8c-0.2-1.5,0.7-2.3,2.1-2.4
		c1.7-0.1,3.5-0.1,5.2-0.1h217.4c1.5,0,3,0,4.5,0.1c1.3,0.1,2.6,0.3,2.8,1.9c0.2,2.1-1.3,2.5-2.8,2.5c-2,0.1-4,0.1-6,0.1
		C1473.9,564,1437.9,564,1402,564z"/>
	<path fill="#A7BDC7" d="M1402.7,588.1h107.9c2,0,4,0,6,0.1c1.4,0.1,2.3,0.8,2.2,2.4c-0.1,1.2-0.9,1.7-2,1.8
		c-1.7,0.1-3.5,0.2-5.2,0.2h-217.3c-1,0-2,0.1-3,0c-1.8-0.2-4.6,0.8-4.4-2.4c0.2-2.4,2.5-1.9,4.2-2c6.7-0.1,13.5,0,20.2,0
		C1341.7,588.1,1372.2,588.1,1402.7,588.1L1402.7,588.1z M1402.8,736.4h-107.9c-2,0-4,0-6-0.1c-1.4-0.1-2.3-0.8-2.2-2.4
		c0.1-1.2,0.9-1.7,2-1.8c1.7-0.1,3.5-0.2,5.2-0.2h217.3c1,0,2-0.1,3,0c1.8,0.2,4.6-0.8,4.4,2.4c-0.2,2.4-2.5,1.9-4.2,2
		c-6.7,0.1-13.5,0-20.2,0C1463.8,736.4,1433.3,736.4,1402.8,736.4L1402.8,736.4z"/>
	<path fill="#A2B9C3" d="M1402.8,765h-107.9c-2,0-4,0-6-0.1c-1.5-0.1-2.3-0.9-2.1-2.4c0.1-1.2,1-1.7,2-1.8c1.7-0.1,3.5-0.1,5.2-0.2
		h217.4c1,0,2-0.1,3,0c1.8,0.2,4.6-0.6,4.3,2.6c-0.2,2.5-2.6,1.9-4.2,1.9c-9.7,0.1-19.5,0-29.2,0H1402.8L1402.8,765z"/>
	<path fill="#ADC1CA" d="M1402,679.3h-111.6c-1.7-0.1-3.8,0-3.5-2.6c0.2-2,2.1-1.7,3.6-1.8s3,0,4.5,0c71.9,0,143.8,0,215.7,0.1
		c2.7,0,7.6-1.5,7.7,1.8c0.1,4.8-5,2.5-7.7,2.5C1474.4,679.4,1438.2,679.3,1402,679.3z"/>
	<path fill="#A7BDC7" d="M1402.8,535.4h-107.9c-2,0-4,0-6-0.2c-1.4-0.1-2.3-0.9-2.1-2.4c0.1-1.2,1-1.7,2.1-1.7
		c1.7-0.1,3.5-0.1,5.2-0.1h217.3c1.2,0,2.5-0.1,3.7,0c1.7,0.1,3.9-0.2,3.6,2.5c-0.2,2-2,1.8-3.5,1.9c-1.7,0.1-3.5,0-5.2,0H1402.8z"
		/>
	<path fill="#ADC1CA" d="M1402.8,649.7h-107.9c-2,0-4,0-6-0.2c-1-0.1-2-0.5-2.1-1.7c-0.2-1.5,0.7-2.3,2.1-2.4
		c1.7-0.2,3.5-0.2,5.2-0.2h217.2c1,0,2-0.1,3,0c1.8,0.2,4.6-0.5,4.3,2.6c-0.2,2.4-2.7,1.8-4.3,1.8c-11.7,0.1-23.5,0-35.2,0
		C1453.7,649.7,1428.2,649.7,1402.8,649.7L1402.8,649.7z M1403,703.3h112.3c1.5,0.1,3.3,0,3.4,2s-1.6,2.3-3.1,2.3
		c-1.5,0.1-3,0.1-4.5,0.1c-72.2,0-144.3,0-216.5-0.1c-2.7,0-7.5,1.7-7.6-2.1c-0.1-4.1,4.7-2.2,7.3-2.2H1403z M1402.5,621.2h-112.3
		c-1.5-0.1-3.3-0.1-3.4-2.1s1.6-2.2,3.1-2.3s3-0.1,4.5-0.1c72.2,0,144.3,0,216.5,0.1c2.7,0,7.5-1.7,7.6,2.1c0.1,4-4.8,2.2-7.3,2.2
		C1474.9,621.2,1438.7,621.2,1402.5,621.2L1402.5,621.2z"/>
	<path fill="#A2B9C3" d="M1402,478.5h-107.2c-2,0-4-0.1-6-0.2c-1.1-0.1-1.9-0.6-2-1.8c-0.2-1.5,0.7-2.3,2.1-2.4
		c1.7-0.1,3.5-0.1,5.2-0.1h217.4c1.5,0,3,0,4.5,0.1c1.3,0.1,2.6,0.3,2.8,1.9c0.2,2.1-1.3,2.5-2.8,2.5c-2,0.1-4,0.1-6,0.1
		C1473.9,478.5,1437.9,478.5,1402,478.5z"/>
	<path fill="#A7BDC7" d="M1402.7,502.6h107.9c2,0,4,0,6,0.1c1.4,0.1,2.3,0.8,2.2,2.4c-0.1,1.2-0.9,1.7-2,1.8
		c-1.7,0.1-3.5,0.2-5.2,0.2h-217.3c-1,0-2,0.1-3,0c-1.8-0.2-4.6,0.8-4.4-2.4c0.2-2.4,2.5-1.9,4.2-2c6.7-0.1,13.5,0,20.2,0
		C1341.7,502.6,1372.2,502.6,1402.7,502.6L1402.7,502.6z"/>
</g>
<path id="clip" fill="#389199" d="M1238.1,282.2c12.4-8.1,26.4-6,39.9-6.1c4.6,0,8.4-0.8,12.1-4.1c7.2-6.4,16-9.9,25.7-11.1
	c5-0.6,7.9-1.6,7.1-8.5c-1.8-15.3-1.1-15.4-17-15.4c-19.4,0-38.9-0.1-58.3-0.2c21.7-2.3,43.4-0.9,65.1-0.8c7.6,0,10.5-1.1,10.8-9.7
	c0.7-19.1,13.3-30.3,31.3-29.6c15.9,0.6,27.8,13.5,27.4,31.3c-0.1,7.2,2.5,7.9,8.5,7.9c25.2-0.2,50.5,0.1,75.7,0.2
	c1.4,0,2.9,0.5,4.3,0.7c-26.4,0.1-52.8,0.4-79.2,0c-7.1-0.1-9.6,1.6-9.2,9c0.6,12.7,0.1,12.9,12.1,14.9c10.8,1.8,20.6,5.6,28.7,13.2
	c2.8,2.6,5.9,2.1,9.1,2.1c12.9,0.1,26-1.5,37.7,6.2c8,6.4,13.9,14.1,16.2,24.4c1.5,6.5,0.4,8.7-7.1,8.7
	c-83.4-0.3-166.8-0.2-250.2-0.2c-1.2,0-2.5-0.1-3.7,0c-3.8,0.4-4.4-1.3-3.9-4.9C1222.7,298.3,1228.8,289.3,1238.1,282.2z"/>
<path id="text-01" d="M1296.9,483.8c-1,0-1.9-0.2-2.7-0.6c-0.8-0.4-1.4-1-1.8-1.7s-0.7-1.6-0.7-2.5c0-0.4,0-0.8,0.1-1.2
	c0.1-0.4,0.2-0.7,0.3-1h1.9c-0.1,0.2-0.1,0.6-0.2,0.9s-0.1,0.7-0.1,1.1c0,0.6,0.1,1.1,0.3,1.7s0.6,0.9,1.1,1.3
	c0.5,0.3,1.1,0.5,1.8,0.5c0.8,0,1.4-0.2,1.9-0.5s0.9-0.8,1.1-1.4s0.4-1.2,0.4-1.9c0-0.8-0.1-1.4-0.4-2s-0.7-1.1-1.2-1.4
	c-0.5-0.4-1.2-0.5-1.9-0.5h-0.9V473h1c0.7,0,1.3-0.1,1.7-0.4c0.4-0.3,0.8-0.6,1-1s0.3-0.8,0.3-1.2c0-0.7-0.2-1.3-0.7-1.9
	c-0.5-0.5-1.1-0.8-1.9-0.8v-1.6c0.9,0,1.6,0.2,2.3,0.6c0.7,0.4,1.2,0.9,1.6,1.5s0.6,1.3,0.6,2c0,0.9-0.3,1.7-0.9,2.4
	c-0.6,0.7-1.3,1.1-2.3,1.3v0.1c0.6,0.1,1.2,0.3,1.8,0.7c0.5,0.4,1,0.9,1.3,1.6s0.5,1.5,0.5,2.5c0,1.1-0.2,2-0.7,2.8
	c-0.4,0.8-1.1,1.4-1.9,1.8S1297.9,483.8,1296.9,483.8L1296.9,483.8z M1310.4,483.8c-1.1,0-2.1-0.2-2.9-0.6s-1.4-1-1.9-1.7
	c-0.4-0.7-0.7-1.6-0.7-2.5c0-0.4,0-0.8,0.1-1.2c0.1-0.4,0.2-0.7,0.3-1h1.9c-0.1,0.2-0.1,0.6-0.2,0.9s-0.1,0.7-0.1,1.1
	c0,0.6,0.1,1.1,0.4,1.7c0.2,0.5,0.6,0.9,1.1,1.3c0.5,0.3,1.2,0.5,2,0.5s1.4-0.2,1.9-0.5s0.9-0.8,1.1-1.4s0.4-1.2,0.4-1.9
	c0-1-0.3-1.9-0.9-2.5c-0.6-0.7-1.5-1-2.7-1h-0.9v-1.6h1c1.1,0,1.8-0.3,2.3-0.9s0.7-1.3,0.7-2.1c0-0.7-0.2-1.4-0.7-1.9
	s-1.2-0.8-2.1-0.8s-1.6,0.2-2.1,0.7s-0.7,1.1-0.7,1.9v0.6c0,0.2,0.1,0.4,0.1,0.7h-1.9c-0.1-0.2-0.1-0.5-0.2-0.7
	c0-0.2-0.1-0.5-0.1-0.7c0-0.8,0.2-1.5,0.6-2.1s1-1.1,1.7-1.5s1.6-0.5,2.5-0.5s1.8,0.2,2.5,0.6s1.3,0.9,1.7,1.5
	c0.4,0.6,0.6,1.4,0.6,2.1c0,1.1-0.3,1.9-0.9,2.6s-1.3,1.1-2.3,1.3v0.1c0.6,0.1,1.2,0.3,1.8,0.7s1,0.8,1.3,1.5
	c0.3,0.6,0.5,1.4,0.5,2.3c0,1.1-0.2,2-0.7,2.8c-0.4,0.8-1.1,1.4-1.9,1.8C1312.4,483.6,1311.5,483.8,1310.4,483.8L1310.4,483.8z
	 M1323.2,483.8c-1,0-1.9-0.2-2.7-0.7c-0.8-0.4-1.4-1.1-1.8-1.9s-0.7-1.7-0.7-2.8c0-0.4,0-0.8,0.1-1.2c0.1-0.4,0.2-0.7,0.3-1h1.9
	c-0.1,0.2-0.1,0.6-0.2,0.9c-0.1,0.4-0.1,0.7-0.1,1.1c0,1.1,0.3,2,0.8,2.8c0.5,0.7,1.3,1.1,2.4,1.1c1.2,0,2-0.4,2.5-1.1
	c0.5-0.8,0.8-1.8,0.8-3.1v-6.8c0-1.1-0.2-2-0.7-2.6s-1.2-0.9-2.1-0.9s-1.6,0.2-2.1,0.7s-0.8,1.2-0.8,2.2c0,0.3,0,0.7,0.1,0.9
	c0,0.3,0.1,0.5,0.1,0.7h-1.9c-0.1-0.2-0.1-0.4-0.2-0.7c-0.1-0.3-0.1-0.6-0.1-1c0-1,0.2-1.8,0.7-2.5c0.4-0.7,1-1.2,1.8-1.5
	c0.7-0.3,1.6-0.5,2.5-0.5c1.5,0,2.6,0.4,3.5,1.3s1.3,2.2,1.3,3.8v7c0,1.8-0.5,3.2-1.4,4.3C1326.2,483.3,1324.9,483.8,1323.2,483.8
	L1323.2,483.8z M1336.5,478.4c-1,0-1.8-0.2-2.6-0.7c-0.8-0.5-1.4-1.2-1.8-2.1c-0.5-0.9-0.7-2.1-0.7-3.4c0-2,0.5-3.5,1.4-4.6
	s2.2-1.6,3.7-1.6c0.8,0,1.6,0.2,2.4,0.6c0.7,0.4,1.3,1.1,1.6,1.9h0.1c0.5-1.7,1.8-2.5,3.8-2.5c0.9,0,1.7,0.3,2.4,0.8
	s1.1,1.2,1.5,2.1c0.3,0.9,0.5,1.9,0.5,3c0,1.3-0.1,2.4-0.3,3.4s-0.6,2-1,3h-2c0.5-1,0.8-2.1,1-3c0.2-1,0.3-2,0.3-3.2
	c0-1.5-0.2-2.6-0.7-3.3s-1.1-1.1-1.8-1.1c-0.8,0-1.4,0.3-1.8,0.8s-0.7,1.4-0.7,2.6v1.2c0,2-0.5,3.5-1.4,4.6S1338,478.4,1336.5,478.4
	L1336.5,478.4z M1336.5,476.7c1.1,0,1.8-0.4,2.3-1.2c0.5-0.8,0.7-2,0.7-3.4s-0.2-2.5-0.7-3.4s-1.3-1.2-2.3-1.2s-1.8,0.4-2.3,1.2
	c-0.5,0.8-0.7,1.9-0.7,3.4c0,1.4,0.3,2.6,0.8,3.4C1334.7,476.3,1335.5,476.7,1336.5,476.7z M1352.6,478.1c-0.5-1-0.8-2.1-1-3
	c-0.2-1-0.3-2-0.3-3.2c0-1.8,0.4-3.3,1.3-4.4s2.2-1.7,3.9-1.7c1.7,0,3,0.6,3.9,1.7s1.3,2.6,1.3,4.4c0,1.2-0.1,2.2-0.3,3.2
	c-0.2,1-0.6,2-1,3h-2c0.5-1,0.8-2.1,1-3c0.2-1,0.3-2,0.3-3.2c0-1.5-0.3-2.6-0.8-3.3s-1.3-1.1-2.4-1.1s-1.8,0.4-2.4,1.1
	s-0.8,1.8-0.8,3.3c0,1.2,0.1,2.3,0.3,3.2c0.2,1,0.6,2,1,3H1352.6z M1369.9,478.4c-1.7,0-3-0.5-4-1.5c-0.9-1-1.4-2.5-1.4-4.5v-11.3h2
	v11.5c0,1.3,0.3,2.3,0.8,3.1c0.5,0.8,1.4,1.1,2.6,1.1c0.8,0,1.4-0.2,1.9-0.5s0.9-0.8,1.1-1.4s0.4-1.2,0.4-1.9c0-0.6-0.1-1.1-0.3-1.6
	c-0.2-0.5-0.5-0.9-0.8-1.3c-0.4-0.5-0.7-1.1-1-1.7s-0.5-1.4-0.5-2.3h2c0,0.7,0.1,1.3,0.4,1.8l0.9,1.5c0.3,0.5,0.6,1,0.9,1.6
	c0.2,0.6,0.4,1.3,0.4,2.1c0,1.1-0.2,2-0.7,2.8c-0.4,0.8-1.1,1.4-1.9,1.9S1370.9,478.4,1369.9,478.4L1369.9,478.4z M1388.9,478.4
	c-1.1,0-2-0.2-2.8-0.7s-1.4-1.1-1.9-2s-0.7-2-0.7-3.3c0-1.8,0.5-3.3,1.4-4.3s2.1-1.5,3.6-1.5c0.9,0,1.7,0.2,2.3,0.5
	c0.6,0.3,1.1,0.8,1.5,1.3h0.1c0-0.2-0.1-0.4-0.1-0.7v-3c0-0.7-0.2-1.3-0.5-1.6s-0.8-0.6-1.3-0.6s-0.9,0.2-1.2,0.4
	c-0.3,0.3-0.5,0.7-0.5,1.3v0.9h-1.9v-0.9c0-0.6-0.2-1-0.5-1.3s-0.7-0.4-1.1-0.4c-0.3,0-0.6,0-0.8,0.1c-0.3,0.1-0.5,0.2-0.8,0.2
	l-0.5-1.5l0.9-0.3c0.3-0.1,0.7-0.1,1.2-0.1s0.9,0.1,1.4,0.3s0.8,0.7,1.1,1.3h0.1c0.3-0.7,0.7-1.1,1.2-1.3c0.5-0.2,1-0.3,1.6-0.3
	s1.2,0.1,1.8,0.4c0.5,0.3,1,0.7,1.3,1.2c0.3,0.6,0.5,1.3,0.5,2.1v7.8c0,2-0.5,3.5-1.4,4.5S1390.7,478.4,1388.9,478.4L1388.9,478.4z
	 M1388.9,476.7c1.2,0,2.1-0.4,2.6-1.1s0.8-1.7,0.8-2.9v-0.4c0-0.8-0.1-1.6-0.3-2.2c-0.2-0.6-0.6-1.1-1.1-1.5s-1.2-0.5-2.1-0.5
	c-0.7,0-1.3,0.2-1.8,0.6s-0.8,0.9-1.1,1.5c-0.2,0.6-0.3,1.4-0.3,2.2c0,1.3,0.3,2.4,0.8,3.2C1387,476.3,1387.8,476.7,1388.9,476.7
	L1388.9,476.7z M1401.8,483.8c-1,0-1.9-0.2-2.7-0.7c-0.8-0.4-1.4-1.1-1.8-1.9s-0.7-1.7-0.7-2.8c0-0.4,0-0.8,0.1-1.2
	c0.1-0.4,0.2-0.7,0.3-1h1.9c-0.1,0.2-0.1,0.6-0.2,0.9c-0.1,0.4-0.1,0.7-0.1,1.1c0,1.1,0.3,2,0.8,2.8c0.5,0.7,1.3,1.1,2.4,1.1
	c1.2,0,2-0.4,2.5-1.1c0.5-0.8,0.8-1.8,0.8-3.1v-6.8c0-1.1-0.2-2-0.7-2.6s-1.2-0.9-2.1-0.9s-1.6,0.2-2.1,0.7s-0.8,1.2-0.8,2.2
	c0,0.3,0,0.7,0.1,0.9c0,0.3,0.1,0.5,0.1,0.7h-1.9c-0.1-0.2-0.1-0.4-0.2-0.7c-0.1-0.3-0.1-0.6-0.1-1c0-1,0.2-1.8,0.7-2.5
	c0.4-0.7,1-1.2,1.8-1.5c0.7-0.3,1.6-0.5,2.5-0.5c1.5,0,2.6,0.4,3.5,1.3s1.3,2.2,1.3,3.8v7c0,1.8-0.5,3.2-1.4,4.3
	C1404.8,483.3,1403.5,483.8,1401.8,483.8L1401.8,483.8z M1421.1,483.8c-0.3-0.6-0.8-1.2-1.4-1.6s-1.2-0.8-1.8-1.1
	c-0.7-0.2-1.3-0.4-1.9-0.4s-1.2,0.1-1.7,0.2s-1.1,0.3-1.7,0.6l-0.7-1.4c0.3-0.2,0.7-0.3,1.2-0.4s1-0.2,1.7-0.2v-0.1
	c-1.5-0.7-2.7-1.7-3.6-3c-0.8-1.2-1.3-2.8-1.3-4.6c0-1.1,0.2-2.1,0.5-3s0.8-1.6,1.5-2.1s1.5-0.8,2.5-0.8s1.8,0.2,2.4,0.6
	s1.1,1.1,1.3,1.9h0.1c0.3-0.9,0.8-1.5,1.6-1.9c0.7-0.4,1.5-0.6,2.4-0.6c1.6,0,2.8,0.5,3.7,1.6c0.9,1.1,1.4,2.6,1.4,4.5
	c0,1.3-0.2,2.4-0.7,3.3s-1.1,1.6-1.8,2.1c-0.8,0.5-1.6,0.7-2.6,0.7c-1.5,0-2.8-0.5-3.7-1.6c-0.9-1.1-1.4-2.6-1.4-4.5v-1.1
	c0-1.2-0.2-2-0.7-2.6s-1.1-0.8-1.8-0.8c-0.8,0-1.4,0.4-1.8,1.1s-0.7,1.8-0.7,3.1c0,1.4,0.2,2.6,0.7,3.5s1.1,1.6,1.8,2.2
	c0.7,0.6,1.5,1,2.4,1.4s1.7,0.7,2.4,1.1c0.7,0.4,1.3,0.8,1.9,1.2c0.6,0.5,1,1.1,1.4,1.8L1421.1,483.8L1421.1,483.8z M1422.2,476.5
	c1.1,0,1.8-0.4,2.4-1.2c0.5-0.8,0.8-1.9,0.8-3.3s-0.2-2.5-0.7-3.3s-1.3-1.2-2.3-1.2c-1.1,0-1.8,0.4-2.3,1.2
	c-0.5,0.8-0.8,1.9-0.8,3.3s0.2,2.5,0.7,3.3C1420.3,476.1,1421.1,476.5,1422.2,476.5L1422.2,476.5z M1434.6,483.8
	c-1,0-1.9-0.2-2.7-0.7c-0.8-0.4-1.4-1.1-1.8-1.9s-0.7-1.7-0.7-2.8c0-0.4,0-0.8,0.1-1.2c0.1-0.4,0.2-0.7,0.3-1h1.9
	c-0.1,0.2-0.1,0.6-0.2,0.9c-0.1,0.4-0.1,0.7-0.1,1.1c0,1.1,0.3,2,0.8,2.8c0.5,0.7,1.3,1.1,2.4,1.1c1.2,0,2-0.4,2.5-1.1
	c0.5-0.8,0.8-1.8,0.8-3.1v-6.8c0-1.1-0.2-2-0.7-2.6s-1.2-0.9-2.1-0.9s-1.6,0.2-2.1,0.7s-0.8,1.2-0.8,2.2c0,0.3,0,0.7,0.1,0.9
	c0,0.3,0.1,0.5,0.1,0.7h-1.9c-0.1-0.2-0.1-0.4-0.2-0.7c-0.1-0.3-0.1-0.6-0.1-1c0-1,0.2-1.8,0.7-2.5c0.4-0.7,1-1.2,1.8-1.5
	c0.7-0.3,1.6-0.5,2.5-0.5c1.5,0,2.6,0.4,3.5,1.3s1.3,2.2,1.3,3.8v7c0,1.8-0.5,3.2-1.4,4.3C1437.6,483.3,1436.3,483.8,1434.6,483.8
	L1434.6,483.8z M1448.2,483.8c-1.1,0-2-0.2-2.8-0.7s-1.5-1.2-2-2.1s-0.7-2-0.7-3.2c0-1.9,0.5-3.3,1.4-4.3s2.2-1.6,3.8-1.8
	c0.9-0.1,1.5-0.4,1.9-0.8s0.6-0.9,0.6-1.5s-0.2-1.1-0.6-1.4s-0.9-0.6-1.6-0.6s-1.2,0.2-1.6,0.5s-0.5,0.8-0.5,1.4v0.4
	c0,0.1,0,0.2,0.1,0.4h-1.9c-0.1-0.4-0.1-0.7-0.1-1.1c0-0.9,0.4-1.7,1.1-2.3s1.7-0.9,3-0.9c0.8,0,1.5,0.1,2.1,0.4s1.1,0.7,1.5,1.2
	s0.5,1.1,0.5,1.8s-0.2,1.3-0.5,1.8s-0.9,0.9-1.6,1.1v0.1c0.8,0.2,1.5,0.6,2.1,1.2c0.5,0.5,0.9,1.2,1.2,1.9c0.3,0.7,0.4,1.5,0.4,2.4
	c0,1.9-0.5,3.4-1.5,4.4C1451.3,483.2,1450,483.8,1448.2,483.8z M1448.3,482.1c1.2,0,2.1-0.4,2.7-1.2c0.6-0.8,0.9-1.9,0.9-3.2
	s-0.3-2.4-0.9-3.2s-1.5-1.2-2.7-1.2s-2.1,0.4-2.7,1.2s-0.8,1.8-0.8,3.2s0.3,2.4,0.8,3.2C1446.1,481.7,1447,482.1,1448.3,482.1z
	 M1461.5,483.8c-1,0-1.9-0.2-2.7-0.7c-0.8-0.4-1.4-1.1-1.8-1.9s-0.7-1.7-0.7-2.8c0-0.4,0-0.8,0.1-1.2c0.1-0.4,0.2-0.7,0.3-1h1.9
	c-0.1,0.2-0.1,0.6-0.2,0.9c-0.1,0.4-0.1,0.7-0.1,1.1c0,1.1,0.3,2,0.8,2.8c0.5,0.7,1.3,1.1,2.4,1.1c1.2,0,2-0.4,2.5-1.1
	c0.5-0.8,0.8-1.8,0.8-3.1v-6.8c0-1.1-0.2-2-0.7-2.6s-1.2-0.9-2.1-0.9s-1.6,0.2-2.1,0.7s-0.8,1.2-0.8,2.2c0,0.3,0,0.7,0.1,0.9
	c0,0.3,0.1,0.5,0.1,0.7h-1.9c-0.1-0.2-0.1-0.4-0.2-0.7c-0.1-0.3-0.1-0.6-0.1-1c0-1,0.2-1.8,0.7-2.5c0.4-0.7,1-1.2,1.8-1.5
	c0.7-0.3,1.6-0.5,2.5-0.5c1.5,0,2.6,0.4,3.5,1.3s1.3,2.2,1.3,3.8v7c0,1.8-0.5,3.2-1.4,4.3C1464.4,483.3,1463.2,483.8,1461.5,483.8
	L1461.5,483.8z M1476.5,466c1.3,0.3,2.3,0.9,3.1,2c0.8,1.1,1.2,2.4,1.2,4.2c0,2-0.5,3.5-1.5,4.6s-2.4,1.6-4.1,1.6
	c-1.1,0-2-0.2-2.8-0.7s-1.5-1.2-2-2.1s-0.7-2.1-0.7-3.4c0-1.9,0.4-3.3,1.3-4.4s2.1-1.7,3.6-1.8c0.1-0.1,0.1-0.3,0.2-0.5
	s0.1-0.4,0.1-0.7c0-0.3-0.1-0.5-0.2-0.7s-0.3-0.4-0.5-0.5c-0.3-0.2-0.6-0.5-0.9-0.9s-0.4-0.9-0.4-1.6h2c0,0.3,0.1,0.6,0.2,0.9
	c0.2,0.2,0.4,0.5,0.6,0.7c0.3,0.3,0.6,0.5,0.8,0.9c0.3,0.3,0.4,0.7,0.4,1.2C1476.8,465.1,1476.7,465.6,1476.5,466L1476.5,466z
	 M1475.2,476.7c1.2,0,2.1-0.4,2.7-1.2c0.6-0.8,0.9-2,0.9-3.4s-0.3-2.5-0.9-3.4s-1.5-1.2-2.7-1.2s-2.1,0.4-2.7,1.2s-0.8,1.9-0.8,3.4
	c0,1.4,0.3,2.6,0.8,3.4C1473.1,476.3,1474,476.7,1475.2,476.7z M1484.7,478.1c-0.5-1-0.8-2.1-1-3c-0.2-1-0.3-2-0.3-3.2
	c0-1.8,0.4-3.3,1.3-4.4s2.2-1.7,3.9-1.7c1.7,0,3,0.6,3.9,1.7s1.3,2.6,1.3,4.4c0,1.2-0.1,2.2-0.3,3.2c-0.2,1-0.6,2-1,3h-2
	c0.5-1,0.8-2.1,1-3c0.2-1,0.3-2,0.3-3.2c0-1.5-0.3-2.6-0.8-3.3s-1.3-1.1-2.4-1.1s-1.8,0.4-2.4,1.1s-0.8,1.8-0.8,3.3
	c0,1.2,0.1,2.3,0.3,3.2c0.2,1,0.6,2,1,3H1484.7z"/>
<g id="text-02">
	<path fill="#FF0000" d="M1297.3,512.3c-1.1,0-2.1-0.2-2.9-0.7c-0.8-0.4-1.4-1.1-1.9-1.9c-0.4-0.8-0.7-1.7-0.7-2.8
		c0-0.4,0-0.8,0.1-1.2c0.1-0.4,0.2-0.7,0.3-1h1.9c-0.1,0.2-0.1,0.6-0.2,0.9c-0.1,0.4-0.1,0.7-0.1,1.1c0,1.1,0.3,2,0.8,2.8
		s1.4,1.1,2.6,1.1s2-0.4,2.5-1.1c0.5-0.8,0.8-1.8,0.8-3.1v-7.9c0-0.8-0.1-1.4-0.4-1.8s-0.7-0.6-1.4-0.6c-0.6,0-1,0.2-1.3,0.6
		s-0.5,1-0.5,1.8v2.9h-1.9v-2.9c0-1.6-0.6-2.4-1.8-2.4h-1.7v-1.6h1.6c0.7,0,1.3,0.2,1.8,0.5s0.8,0.8,1,1.5h0.1
		c0.5-1.4,1.5-2.1,2.9-2.1c1.1,0,2,0.4,2.6,1.1s0.9,1.6,0.9,2.7v8.4c0,1.8-0.5,3.2-1.4,4.3C1300.3,511.8,1299,512.3,1297.3,512.3
		L1297.3,512.3z M1312.1,512.3c-1.6,0-2.8-0.4-3.8-1.1s-1.7-1.8-2.1-3.2c-0.5-1.4-0.7-3-0.7-4.9c0-1.6,0.2-3.2,0.6-4.7
		s0.9-2.8,1.5-3.8h2c-0.6,1.1-1.1,2.3-1.5,3.8s-0.6,3-0.6,4.6s0.1,2.9,0.4,4s0.8,2,1.5,2.6s1.6,0.9,2.7,0.9c1.2,0,2.2-0.3,2.9-0.9
		c0.7-0.6,1-1.6,1-2.9c0-0.6-0.1-1.2-0.4-1.7c-0.2-0.5-0.6-1-1.2-1.3c-0.5-0.3-1.2-0.5-2.1-0.5h-1v-1.6h1.5c1,0,1.6-0.2,2.1-0.5
		c0.4-0.4,0.6-0.8,0.6-1.5c0-0.5-0.1-1-0.3-1.3c-0.2-0.3-0.5-0.6-0.8-0.8c-0.5-0.3-0.9-0.7-1.2-1.1c-0.4-0.4-0.5-1-0.5-1.8h2
		c0,0.4,0.2,0.7,0.4,1c0.3,0.3,0.6,0.6,1,0.9s0.8,0.7,1.1,1.2c0.3,0.4,0.4,1,0.4,1.8c0,0.9-0.3,1.6-0.8,2s-1.3,0.8-2.1,1v0.1
		c0.6,0.1,1.1,0.3,1.6,0.7c0.5,0.4,1,0.9,1.3,1.5s0.5,1.4,0.5,2.4s-0.2,1.9-0.7,2.7s-1.1,1.4-2,1.8
		C1314.4,512.1,1313.3,512.3,1312.1,512.3z M1325.9,506.9c-1.7,0-3-0.5-4-1.6c-0.9-1-1.4-2.6-1.4-4.7v-7c0-1,0.2-1.7,0.5-2.4
		c0.4-0.6,0.8-1.1,1.5-1.3c0.6-0.3,1.3-0.4,2.1-0.4h5.3v1.7h-5c-0.7,0-1.3,0.2-1.7,0.5c-0.4,0.4-0.6,1-0.6,1.8v0.8
		c0,0.2,0,0.5-0.1,0.9c0,0.4-0.1,0.7-0.1,0.9h0.1c0.4-0.5,0.9-0.9,1.5-1.3c0.6-0.3,1.4-0.5,2.3-0.5c1.5,0,2.7,0.5,3.6,1.6
		s1.4,2.6,1.4,4.7s-0.5,3.6-1.5,4.7S1327.5,506.9,1325.9,506.9L1325.9,506.9z M1325.9,505.2c1.1,0,2-0.4,2.5-1.2
		c0.5-0.8,0.8-1.9,0.8-3.4c0-1.4-0.3-2.6-0.8-3.4s-1.3-1.3-2.4-1.3c-0.9,0-1.6,0.2-2.1,0.5c-0.5,0.4-0.9,0.9-1.1,1.5
		c-0.2,0.7-0.3,1.4-0.3,2.3v0.6c0,1.3,0.3,2.3,0.8,3.1C1323.8,504.8,1324.7,505.2,1325.9,505.2z M1335.1,506.6c-0.5-1-0.8-2.1-1-3
		c-0.2-1-0.3-2-0.3-3.2s0.2-2.3,0.5-3.2s0.9-1.6,1.5-2.1c0.7-0.5,1.5-0.8,2.5-0.8c0.8,0,1.5,0.2,2,0.6s0.9,0.9,1.1,1.6h0.1
		c0.2-0.7,0.6-1.2,1.2-1.6s1.2-0.6,2-0.6c1,0,1.8,0.3,2.5,0.8s1.2,1.2,1.5,2.1s0.5,2,0.5,3.2s-0.1,2.2-0.3,3.2c-0.2,1-0.6,2-1,3h-2
		c0.5-1,0.8-2.1,1-3c0.2-1,0.3-2,0.3-3.2c0-1.5-0.2-2.6-0.7-3.3s-1.1-1.1-2-1.1c-0.7,0-1.2,0.3-1.6,0.8s-0.6,1.2-0.6,2.2v3.6h-1.9
		V499c0-0.8-0.2-1.5-0.5-2.1s-0.9-0.8-1.6-0.8c-0.9,0-1.5,0.4-2,1.1s-0.7,1.8-0.7,3.3c0,1.2,0.1,2.3,0.3,3.2c0.2,1,0.6,2,1,3h-1.8
		V506.6z M1358.7,494.5c1.3,0.3,2.3,0.9,3.1,2c0.8,1.1,1.2,2.4,1.2,4.2c0,2-0.5,3.5-1.5,4.6s-2.4,1.6-4.1,1.6c-1.1,0-2-0.2-2.8-0.7
		s-1.5-1.2-2-2.1s-0.7-2.1-0.7-3.4c0-1.9,0.4-3.3,1.3-4.4s2.1-1.7,3.6-1.8c0.1-0.1,0.1-0.3,0.2-0.5s0.1-0.4,0.1-0.7
		c0-0.3-0.1-0.5-0.2-0.7s-0.3-0.4-0.5-0.5c-0.3-0.2-0.6-0.5-0.9-0.9s-0.4-0.9-0.4-1.6h2c0,0.3,0.1,0.6,0.2,0.9
		c0.2,0.2,0.4,0.5,0.6,0.7c0.3,0.3,0.6,0.5,0.8,0.9c0.3,0.3,0.4,0.7,0.4,1.2C1359,493.6,1358.9,494.1,1358.7,494.5L1358.7,494.5z
		 M1357.4,505.2c1.2,0,2.1-0.4,2.7-1.2c0.6-0.8,0.9-2,0.9-3.4s-0.3-2.5-0.9-3.4s-1.5-1.2-2.7-1.2s-2.1,0.4-2.7,1.2s-0.8,1.9-0.8,3.4
		c0,1.4,0.3,2.6,0.8,3.4C1355.3,504.8,1356.2,505.2,1357.4,505.2z M1366.9,506.6c-0.5-1-0.8-2.1-1-3c-0.2-1-0.3-2-0.3-3.2
		c0-1.8,0.4-3.3,1.3-4.4s2.2-1.7,3.9-1.7c1.7,0,3,0.6,3.9,1.7s1.3,2.6,1.3,4.4c0,1.2-0.1,2.2-0.3,3.2c-0.2,1-0.6,2-1,3h-2
		c0.5-1,0.8-2.1,1-3c0.2-1,0.3-2,0.3-3.2c0-1.5-0.3-2.6-0.8-3.3s-1.3-1.1-2.4-1.1s-1.8,0.4-2.4,1.1s-0.8,1.8-0.8,3.3
		c0,1.2,0.1,2.3,0.3,3.2c0.2,1,0.6,2,1,3H1366.9z M1383.3,506.9c-0.9,0-1.8-0.2-2.5-0.5s-1.4-0.9-1.8-1.5c-0.4-0.7-0.7-1.5-0.7-2.5
		c0-0.3,0-0.6,0.1-1c0.1-0.3,0.1-0.6,0.2-0.7h1.9c-0.1,0.2-0.1,0.5-0.1,0.7s-0.1,0.6-0.1,0.9c0,1,0.3,1.7,0.8,2.2s1.3,0.7,2.2,0.7
		c0.9,0,1.6-0.3,2.2-0.8c0.5-0.5,0.8-1.3,0.8-2.3c0-0.8-0.2-1.4-0.5-1.9s-0.7-0.9-1.1-1.4l-1.1-1.1c-0.4-0.4-0.7-0.9-0.9-1.4
		c-0.2-0.5-0.3-1.1-0.3-1.8h2c0,0.7,0.2,1.2,0.5,1.7c0.4,0.5,0.8,1,1.2,1.4c0.4,0.4,0.7,0.8,1.1,1.2c0.3,0.4,0.6,0.9,0.9,1.4
		c0.2,0.5,0.3,1.2,0.3,1.9c0,0.9-0.2,1.7-0.7,2.5c-0.4,0.7-1,1.3-1.8,1.6C1385.1,506.7,1384.2,506.9,1383.3,506.9L1383.3,506.9z"/>
</g>
<path id="bullet-1" fill="#798390" d="M1227.9,703.3c8.2,0,16.5,0.1,24.7-0.1c3.6-0.1,5.5,0.6,5.4,4.8c-0.2,17.5-0.2,35,0,52.5
	c0,3.9-1.7,4.5-5,4.5c-17.2-0.1-34.5-0.2-51.7,0c-4,0-5.1-1.3-5.1-5.2c0.2-17,0.2-34,0-51c-0.1-4.9,2-5.8,6.2-5.7
	C1210.9,703.5,1219.4,703.3,1227.9,703.3z"/>
<path id="bullet-2" fill="#798490" d="M1227.3,649.7c-8.7,0-17.5-0.1-26.2,0.1c-3.5,0.1-4.8-1.1-4.8-4.7c0.1-17.5,0.1-34.9,0-52.4
	c0-3.8,1.8-4.5,5.1-4.5c17.2,0.1,34.4,0.1,51.6,0c3.9,0,5.2,1.2,5.1,5.1c-0.2,17.2-0.2,34.4,0,51.6c0,4.2-1.8,4.9-5.4,4.9
	C1244.2,649.6,1235.7,649.7,1227.3,649.7L1227.3,649.7z"/>
<path id="bullet-3" fill="#798490" d="M1227.2,535.1c-8.7,0-17.5-0.1-26.2,0.1c-3.5,0.1-4.8-1.1-4.8-4.7c0.1-17.5,0.1-34.9,0-52.4
	c0-3.8,1.8-4.5,5.1-4.5c17.2,0.1,34.4,0.1,51.6,0c3.9,0,5.2,1.2,5.1,5.1c-0.2,17.2-0.2,34.4,0,51.6c0,4.2-1.8,4.9-5.4,4.9
	C1244.1,535,1235.6,535.1,1227.2,535.1L1227.2,535.1z"/>
<g id="question-mark">
	<path fill="#C50122" d="M1244.1,474.1c10.1,11.5,7.4,26-6.1,33.1c-2.9,1.5-5.7,3-5.8,7.1c-0.1,4-3.3,2.9-5.6,2.9
		c-2.9,0.1-2.9-2-3-4.2c-0.2-6.6,3.7-9.8,9.2-12.2c3.5-1.6,8.3-2.3,8.6-7.3c0.2-4.2,2.4-9.7-2.6-12.3c-5-2.5-10.7-1.9-16,0
		c-2.8,1-2.5,4.1-2.4,6.5c0.1,3.2-0.6,5.4-4.5,5.3c-4.1-0.1-3.9-3-3.9-5.8c-0.1-5.3,1.8-9.7,5.9-13.1
		C1226.6,472,1235.4,471.8,1244.1,474.1L1244.1,474.1z"/>
	<path fill="#C50021" d="M1223.7,528.1c-0.5-3.7,1.4-4.5,4.7-4.5c3.5,0,3.7,2.1,3.9,4.8c0.2,3.9-2,4.2-5,4.4
		C1223.4,533,1223.5,530.8,1223.7,528.1z"/>
</g>
<g id="cross">
	<path fill="#F95A3A" d="M1355.3,444.2c-30.5,0-54-23.6-54.1-54.1c0-30.8,24-54.9,54.5-54.7c30.3,0.2,54.1,24.1,54.3,54.4
		C1410.2,420.3,1386.1,444.3,1355.3,444.2L1355.3,444.2z"/>
	<path fill="#FEFEFE" d="M1388.7,380.6h-23.8v-23.8h-18.5v23.8h-23.7v18.5h23.7v23.7h18.5v-23.7h23.8V380.6z"/>
</g>
<g id="dead">
	<path fill="#F2D1C2" d="M414.9,931.3c-11.9,1.7-23.9,2.4-35.8,0.1c-14.8-5.2-26.5-14.3-35-27.6c-6-9.3-10.2-19.3-14.9-29.3
		c-5.2-15.9-11.1-31.6-14.7-47.9c4.2-0.4,6.6-2.1,6.1-6.9c-0.4-3.7,0.2-7.5-0.4-11.2c-2.7-17.9-6.5-35.7-11.8-53
		c-7-22.9-14-45.8-25.5-66.9c-1.8-3.2-3.3-9-7.6-8.1c-5.1,1.1-2,6.8-2.7,10.4c-0.2,1.2-0.1,2.5-0.1,3.7c-3.3-6.1-2.8-13-3.6-19.5
		c-1.8-14-10.7-25.6-13.1-39.5c-1.5-8.9-3-17.6-2.8-26.6c0.1-9.5-1.4-18.7-4.7-27.7c-3.1-8.3-5.8-16.9-3.1-26.1
		c1.6-5.4,4.3-9.7,10.2-10.6c5.9-0.9,8.2,3.7,10.6,7.8c0.3,0.6,0.6,1.2,2,1.1c-2.7-9-5.4-17.9-8.1-26.9c-0.8-2.6-1.6-5.3,0.6-7.7
		c0.6,5.5,2,10.8,6.4,14.6c4.9,4.2,11.7,2.3,13-3.4c2.1-9.4-3.9-18.4-13.5-20.1c3.2-3.5,7.4-3.3,11.7-2.2
		c-1.4-9.5,1.3-15.8,8.1-19.4c5.6-2.9,10.9-3.6,15.1,3c1.8-2,1-4.1,1-5.8c0-9.6,4.6-14.8,14-15.8c6.2-0.6,11.8,4.3,13.9,12.1
		c1.2,4.4,1.1,9,0.5,13.4c-2.3,16.2,5.7,28.8,14.2,41.1c2.1,3,7.3,7.3,10.5,3.8c3.3-3.6,0.6-9.1-3.2-12.5
		c-12.9-11.6-16.5-26.6-16.9-43.1c-0.2-9.7,2.5-18.3,11.1-23c9.1-4.9,19.1-3.5,27.9,1.6c15.9,9.1,25.4,24.7,26.2,41.5
		c1.5,29.2,13.8,54.2,24.2,80.1c5.1,12.9,9,25.8,8.3,39.9c-2.6,9.6-4.7,19.3-7.9,28.7c-10.2,30-10.5,60.4-4.6,91.3
		c4.9,25.9,14.8,50,24.7,74.1c-0.7,2.5-0.3,4.9,0.6,7.3c5.6,15.8,8.9,32.1,8,48.9C452.5,901.3,446.1,922.2,414.9,931.3L414.9,931.3z
		 M339.9,853.7c-0.4,24.3,9.1,41.5,28.5,53.1c17.9,10.6,42.7,6.4,56.2-9.2c12.5-14.5,14.8-30.9,11.4-48.9
		c-4.3-22.7-25.9-42-48.2-43.3C363,804,338.2,826.6,339.9,853.7L339.9,853.7z M419.5,618.9c0.8-12.4-2.3-24.4-9.1-35.1
		c-4.4-7-9.8-13.5-19.7-12.3c-6.8,0.9-10.8,5.7-12.6,11.3c-7.4,22.8-4.3,44.3,10.8,63.3c7.3,9.2,18.5,8,25-1.8
		C418.9,636.7,419.8,628.2,419.5,618.9L419.5,618.9z M349,482.7c0,12.2,5.7,21.7,15.4,26c6.4,2.8,11.2,0.8,14.6-4.8
		c5.5-8.9,3-22.1-4.7-31.1c-5-5.9-11.1-8.2-17.8-5.9C349.6,469.4,349,476.2,349,482.7z M317.8,475.5c-5.4,0.1-6.1,0.5-7.7,2.8
		c-4.7,7,0.2,20.2,8.3,22.3c2.1,0.5,4,0.5,5.6-1c4.5-4.1,4.7-9,2.5-14.3C324.5,480.2,322.3,475.6,317.8,475.5L317.8,475.5z
		 M284.6,503.9c-0.7,4.3,1.2,7.9,3.4,11.2c2.3,3.4,6,4.6,9.8,3.6c3.7-1,6.1-4.4,5.8-7.8c-0.4-4.3-1-9-4.4-12.3
		c-2.6-2.6-5.4-6-9.5-4.3C285.8,495.9,283.7,499.4,284.6,503.9L284.6,503.9z"/>
	<path fill="#209F99" d="M445.3,818.7c-10-24.1-19.8-48.3-24.7-74.1c-5.9-30.9-5.7-61.2,4.6-91.3c3.2-9.4,5.3-19.1,7.9-28.7
		c39.5-17.9,79.7-19.9,120.6-5.1c2.3,0.8,4.5,2.1,6.7,3.1c-0.7,1.3-1.3,2.6-1.9,4c-1.2,2.6-1.8,5.5,1.1,7.2c3.2,1.8,5-0.8,6.5-3.1
		c1-1.4,1.7-3,3.4-3.7c0.5,0,1,0,1.4,0.1c4.6,17.5,9.3,35,13.9,52.5c2.9,21.2,1.8,42.2-1.9,63.2c-3.1,18-9.3,35-14.9,52.3
		c-0.6,1.5-1.2,2.9-1.8,4.4c-1.9,4-3.9,8.1-5.8,12.1c-10.6-7.3-19.8-16.7-32.9-19.8c-4.1-2.7-8.7-3-13.4-2.8
		c-9.9-2.5-19.2,0.8-28.5,3.4c-5.8,1.9-11.6,3.5-16.6,7.2C459.1,803.4,451.9,810.6,445.3,818.7L445.3,818.7z M861,931.4
		c-14,0-28.1,0.1-42.2,0.1c-11.1-8.5-23.2-15.5-35.3-22.4c-8.1-6.6-17.1-11.7-26.1-16.8c-8.1-6.3-17.1-11.3-25.8-16.6
		c-5.9-4.4-11.9-8.9-17.8-13.3c-5.3-6-11-11.5-19.7-11.8c-3.7-1.8-7.3-3.6-9.2-7.5c1.1-4.5,2.2-9,3.2-13.5v0.1
		c0.8-1.8,1.7-3.6,2.3-5.4c12.8-40.2,25.5-80.5,38.4-120.7c0.8-2.3,0.4-5.8,4.1-6.4c15.1,19.8,30.1,39.7,45.5,59.3
		c10.5,13.3,18.1,27.8,23.2,44c13.4,43.3,34,83.3,55.5,123C858.5,926,859.7,928.7,861,931.4L861,931.4z"/>
	<path fill="#209F99" d="M314.4,826.6c3.7,16.4,9.5,32,14.7,47.9c-6,3.5-11.7,7.7-16.3,12.9c-14.9,16.6-32.7,28.9-53.1,37.8
		c-2.7,1.2-5.7,2-7.1,5.1c-5,2.4-10.3,1.3-15.4,1.4c-12.7,0.1-25.4-0.1-38.2-0.2c2.9-9.6,4.5-19.4,4.6-29.5
		c0-15.3,5.8-28.7,14.6-40.9c5.6-7.7,11.4-15.2,16.7-23c11.1-16.2,17.5-34.2,17.8-53.9c0.1-4.7,4-5.6,5.1-9.1
		c4.9-15.1,13.3-28.4,22.3-41.3c2,1.5,2,3.9,2.8,5.9C293.4,768.6,303.9,797.6,314.4,826.6L314.4,826.6z"/>
	<path fill="#F2D1C2" d="M647.7,541.5c2.9,0.2,5.7-0.7,7.6-2.7c11.7-12.4,19.3-26.6,16.8-44.3c-1-6.8,0.6-13,3.5-18.7
		c3.6-7.1,10.8-5.2,16.8-4.3c5.4,0.8,8.5,4.8,9.2,10.4c0.4,3.5-0.5,6.8-2.2,12.2c5.5-6.3,9.8-9.9,16.6-6.2c8,4.3,10.4,8.6,9.4,19.7
		c11.1-1.2,16.4,2.6,18.2,13c-7.8-6.1-14.6-3.6-18.3,6.3c-1.9,5.1-1.2,9.4,2.6,13c4.1,3.8,7.8,1,11.4-1.3c-1,4.5-2,9.1-3.2,14.5
		c1.2-1.2,1.8-1.6,2.2-2.1c3.1-3.5,6.1-8.4,11.6-5.9c5.4,2.5,8.7,7.1,8.9,13.6c0.2,8.8-0.5,17.3-4.7,25.4c-2.3,4.4-3.1,9.4-3,14.5
		c0.7,22.8-3.7,44.4-13.6,65c-3.2,6.7-2.9,14.5-4.3,21.8c-0.3,1.7,0,3.5-1.5,4.8c-0.1-3.7,0.3-8.9-3.4-9.6c-3.1-0.6-5.8,4-7.6,7.4
		c-0.5,0.9-0.9,1.8-1.3,2.7c-2.5,5.4-5,10.9-7.6,16.3c-0.7,1.5-1,3.8-3.3,3.3c-2-0.4-2.3-2.4-2.3-4.2v-5.2v-66c0-2.6,1-5.6-1.5-7.8
		c-9.1-15.4-22-27.7-33.2-41.4c-4.1-5.1-9.7-7.5-16.1-8.1C653.3,565.4,651.5,553.2,647.7,541.5L647.7,541.5z M700,510.6
		c0.4,3.7,0.9,8.5,7.6,8.4c6.1-0.1,12-7.7,11.8-15.7c-0.1-5.4-2.9-9.2-8.4-9.5C705.6,493.5,699.9,502,700,510.6L700,510.6z
		 M676,490.3c-0.3,5.6,1,10.3,7.6,10.6c5,0.2,11.6-9,11.5-16.4c-0.1-4.8-2.3-8.8-8-8.9C681.5,475.5,676.1,482.9,676,490.3L676,490.3
		z M566.3,799.4c0.6-1.5,1.2-2.9,1.8-4.4c3,0.8,6.7,1.4,8.5-0.9c3.9-5.2,9.5-8.5,12.7-14.4c15.4-28,20.7-56.7,7.6-87.3
		c-2.6-6.2-5.3-11.1-11.9-12.9c-4.6-17.5-9.3-35-13.9-52.5c-2.9-23.6,8.1-43.6,16.5-64.4c3.6-8.9,9-17.3,9.4-27.3
		c0-0.6,1.5-1.1,2.3-1.6c0.5,0.8,1.1,1.6,1.6,2.3c-1.4-0.5-3.4-1.3-2.7,1.3s2,5.1,3.5,7.3c10.5,16,23.8,29.1,40,39.3
		c-0.9,3.8-4.1,6.1-6.2,9.2c-1.2,1.8-2.8,4.9-5.6,4.1c-2.6-0.8-1.3-3.9-1.9-6c-0.7-2.4-1.5-4.7-2.4-7.1c-2.2-6-5-11.5-12.2-12.7
		c-7.8-1.2-13.7,2.2-17.8,8.4c-12.4,18.7-16.2,38.8-8.1,60.2c2.8,7.4,8,12.5,16.7,12.4c4.6,1,2.9,4.6,2.9,7.3
		c0.1,22.6,0.1,45.3,0.1,67.9c0,3.7-0.3,7.5,3,10.3v1.5c1.5,5.2,4.6,8.3,10.2,9c23.1,3.2,46.3,1.2,69.4,1.1c6.7,0,6.5,1.7,5.1,6.3
		c-4.2,15-8.4,30.2-10.5,45.6c-1.3,9.4-6,19.9,3.8,28v-0.1c-9.2-1.6-12.8-8-10.4-20.4c3-15.2,5.3-30.6,10.1-45.4
		c1.6-5,0.7-6.5-4.7-6.4c-17.9,0.3-35.9,0-53.8,0.2c-6.2,0.1-12.1-0.9-17.1-4.4c-5.1-3.5-6.2-1.4-7.8,3.3
		c-5.2,15.1-11.5,29.4-24.2,40.1C575.6,800.5,571.7,802.2,566.3,799.4L566.3,799.4z"/>
	<path fill="#F2D1C2" d="M600.7,536.1c-0.5-0.8-1.1-1.6-1.6-2.3c0.2-15.5,1.8-30.8,8.2-45.2c7-15.7,17-27.9,35.4-29.4
		c19.1-1.6,24.9,9.9,25.2,23.4c0.3,13.9-2.2,27.9-11.5,39.4c-3.7,4.5-8.5,8.1-10.8,13.7c-5.7,0.6-2,3.8-1.4,5.7
		c4.3,12.6,6.8,25.5,7.5,38.8c-1.9,0.6-3.7,1.4-4.9,3.1C627,571.9,610.9,556.9,600.7,536.1L600.7,536.1z M622,492.4
		c0,13.4,8.1,20.5,18,15.9c9.5-4.4,17.1-20.2,14.5-30.5c-3-12.1-15.1-15.6-24.1-7C624.3,476.7,621.9,484.1,622,492.4z"/>
	<path fill="#EACBBD" d="M688.1,829.6c-9.9-8.1-5.2-18.6-3.8-28c2.2-15.5,6.3-30.6,10.5-45.6c1.3-4.7,1.5-6.4-5.1-6.3
		c-23.1,0.1-46.3,2.1-69.4-1.1c-5.6-0.8-8.7-3.8-10.2-9c5.6,5.3,11.9,9,19.8,9c18.2,0,36.5,0.5,54.7-0.3c5.8-0.2,12.9,1,17.5-4.2
		c5.6-6.2,7.3-14.5,4.7-21.7c-2-5.7-2.2-11-2.3-16.6c-0.1-26.2-0.1-52.5-0.1-78.7c2.5,2.2,1.4,5.2,1.5,7.8c0.1,22,0,44,0,66v5.2
		c0,1.8,0.3,3.8,2.3,4.2c2.3,0.5,2.6-1.9,3.3-3.3c2.6-5.4,5-10.8,7.6-16.3c0.4-0.9,0.9-1.8,1.3-2.7c1.8-3.4,4.4-7.9,7.6-7.4
		c3.7,0.7,3.3,5.9,3.4,9.6c-0.1,2.4-0.2,4.8,1.3,7c-3.7,0.6-3.3,4.1-4.1,6.4c-12.9,40.2-25.6,80.5-38.4,120.7
		C689.8,826,688.9,827.8,688.1,829.6L688.1,829.6z M314.4,826.6l-31.5-87c-0.7-2.1-0.8-4.4-2.8-5.9c-2.3-10.6-4.7-21.2-6.9-31.8
		c-0.5-2.4-0.6-4.9-0.8-7.3c0-1.2-0.1-2.5,0.1-3.7c0.7-3.6-2.4-9.3,2.7-10.4c4.3-0.9,5.8,4.9,7.6,8.1c11.5,21.1,18.5,44,25.5,66.9
		c5.3,17.3,9,35.1,11.8,53c0.6,3.7,0,7.5,0.4,11.2C321.1,824.5,318.7,826.2,314.4,826.6L314.4,826.6z"/>
	<path fill="#E8C9BC" d="M266.4,510c9.6,1.7,15.6,10.7,13.5,20.1c-1.3,5.7-8.2,7.6-13,3.4c-4.4-3.8-5.8-9.1-6.4-14.6
		C260.3,514.5,263.1,512.1,266.4,510L266.4,510z M739.2,538.5c-3.6,2.3-7.4,5-11.4,1.3c-3.8-3.6-4.5-7.9-2.6-13
		c3.7-9.9,10.5-12.4,18.3-6.3C743.9,526.9,743.4,533.2,739.2,538.5z"/>
	<path fill="#575151" d="M651.8,580.1c-0.7-13.3-3.2-26.2-7.5-38.7c-0.6-1.9-4.4-5.1,1.4-5.7c0.7,1.9,1.4,3.9,2.1,5.8
		c3.8,11.7,5.6,23.9,7.5,36c0,0.8,0,1.6,0.1,2.4C654.1,579.9,652.9,580,651.8,580.1z"/>
	<path fill="#4DA69F" d="M569.5,627c-1.7,0.7-2.4,2.3-3.4,3.7c-1.5,2.2-3.3,4.9-6.5,3.1c-3-1.7-2.4-4.5-1.1-7.2
		c0.6-1.3,1.3-2.6,1.9-4C563.9,623.2,566.8,624.8,569.5,627z"/>
	<path fill="#F2D1C2" d="M566.3,799.4c5.4,2.8,9.3,1.1,14-2.8c12.7-10.7,19-25.1,24.2-40.1c1.6-4.7,2.8-6.8,7.8-3.3
		s10.9,4.5,17.1,4.4c17.9-0.2,35.9,0.1,53.8-0.2c5.3-0.1,6.3,1.4,4.7,6.4c-4.8,14.8-7.2,30.2-10.1,45.4
		c-2.4,12.4,1.2,18.7,10.4,20.4c-1.1,4.5-2.2,9-3.2,13.5c-3.8,9.3-5.7,19.4-10.3,28.5c-4.1,14.2-12,26.5-19.6,39
		c-9.2,9-18.7,17.3-31.4,20.9h-36c-16-4.7-27.6-14.6-34.4-30c-4-15.5-5.6-31.1-3.1-47.1c1.7-11.5,2.7-23.3,8.4-33.7
		c1.7-3.1,2.3-5.9,2.1-9.1C562.4,807.5,564.4,803.5,566.3,799.4L566.3,799.4z M566.5,862.3v3.8c-0.1,33.6,33.9,58.1,67.5,41.4
		c23.4-11.6,35.6-42.4,27.4-68.4c-7.7-24.5-30.5-37.6-54.8-32.1C584.3,812,564.3,837.5,566.5,862.3L566.5,862.3z"/>
	<path fill="#A5A4A4" d="M560.5,811.5c0.1,3.2-0.4,6.1-2.1,9.1c-5.7,10.4-6.6,22.2-8.4,33.7c-2.4,15.9-0.8,31.6,3.1,47.1
		c-2.4,1.8-1.6,4.5-1.6,6.9c-0.1,7.7,0,15.4,0,23.1h-24V791.7C540.7,794.8,549.9,804.3,560.5,811.5z"/>
	<path fill="#7B7979" d="M252.6,930.2c1.4-3,4.4-3.9,7.1-5.1c20.4-8.8,38.2-21.2,53.1-37.8c4.7-5.2,10.3-9.3,16.3-12.9
		c4.6,9.9,8.9,20,14.9,29.3c8.5,13.3,20.2,22.4,35,27.6c-40.5,0.1-81.1,0.1-121.6,0.2C255.7,931.6,253.9,931.7,252.6,930.2
		L252.6,930.2z"/>
	<path fill="#A09E9E" d="M527.5,791.8v139.7h-21c0-44.8,0.1-89.6-0.1-134.5c0-6,1.4-9,7.8-8C518.8,788.8,523.4,789.1,527.5,791.8z"
		/>
	<path fill="#8F8E8E" d="M445.3,818.7c6.6-8,13.7-15.3,23.6-19.2c2,10.3,1.5,20.7,1.5,31.2v100.8c-18.5,0-37.1-0.1-55.6-0.1
		c31.2-9.1,37.5-30,39-56.4c1-16.8-2.4-33.1-8-48.9C445.1,823.5,444.7,821.2,445.3,818.7L445.3,818.7z"/>
	<path fill="#999798" d="M514.1,788.9c-6.3-0.9-7.8,2-7.8,8c0.2,44.8,0.1,89.6,0.1,134.5h-19.5V801.8c0-3.2,0.5-6.5-1.4-9.5
		C495,789.8,504.2,786.5,514.1,788.9L514.1,788.9z"/>
	<path fill="#959393" d="M485.6,792.3c1.9,2.9,1.4,6.3,1.4,9.5v129.6h-16.5V830.6c0-10.4,0.5-20.8-1.5-31.2
		C474,795.8,479.8,794.2,485.6,792.3z"/>
	<path fill="#D4D4D4" d="M694,850.5c8.7,0.4,14.4,5.8,19.7,11.8c-2.7,2.1-1.7,5-1.7,7.7c-0.1,20.5,0,40.9,0,61.4h-18V850.5z"/>
	<path fill="#D0CFCF" d="M694,850.5v80.9h-16.5c0-17.5,0.1-35.1-0.1-52.6c0-2.6,1.7-6.3-2.9-7.3c4.6-9.1,6.4-19.1,10.3-28.5
		C686.7,846.9,690.3,848.8,694,850.5L694,850.5z"/>
	<path fill="#DFDFDF" d="M731.6,875.7c8.7,5.3,17.7,10.3,25.8,16.6c-4,0.6-3.4,3.6-3.4,6.3v32.8h-24c0-7.2-0.2-14.4,0-21.6
		C730.5,898.4,728.5,886.9,731.6,875.7L731.6,875.7z"/>
	<path fill="#DAD9D9" d="M731.6,875.7c-3.1,11.2-1.1,22.7-1.5,34.1c-0.3,7.2,0,14.4,0,21.6h-18V870c0-2.6-1-5.6,1.7-7.7
		C719.7,866.8,725.6,871.3,731.6,875.7z"/>
	<path fill="#E7E7E7" d="M754,931.4v-32.8c0-2.7-0.6-5.7,3.4-6.3c9,5.1,18,10.2,26.1,16.8c-2.6,1.5-2.5,4-2.5,6.6v15.7H754z"/>
	<path fill="#CBCACA" d="M674.6,871.5c4.5,1,2.8,4.7,2.9,7.3c0.1,17.5,0.1,35.1,0.1,52.6h-19.5c-0.6-7,1.9-14.5-3-20.9
		C662.5,898,670.4,885.7,674.6,871.5L674.6,871.5z"/>
	<path fill="#EEEFEF" d="M781,931.4v-15.7c0-2.5-0.1-5,2.5-6.6c12.1,6.9,24.2,13.8,35.3,22.4C806.2,931.5,793.6,931.4,781,931.4
		L781,931.4z"/>
	<path fill="#ADACAC" d="M551.5,931.4c0-7.7-0.1-15.4,0-23.1c0-2.4-0.8-5.1,1.6-6.9c6.8,15.3,18.4,25.2,34.4,30H551.5z"/>
	<path fill="#C5C3C3" d="M655,910.5c4.9,6.4,2.4,13.9,3,20.9h-34.5C636.2,927.8,645.8,919.4,655,910.5z"/>
	<path fill="#E6C8BA" d="M339.9,853.7c-1.7-27.1,23.1-49.8,47.9-48.3c22.3,1.3,43.9,20.6,48.2,43.3c3.4,18,1.2,34.4-11.4,48.9
		c-13.4,15.6-38.3,19.8-56.2,9.2C349,895.2,339.5,878,339.9,853.7L339.9,853.7z M419.5,618.9c0.3,9.3-0.6,17.8-5.6,25.5
		c-6.5,9.8-17.7,11-25,1.8c-15-19-18.2-40.5-10.8-63.3c1.8-5.6,5.8-10.5,12.6-11.3c9.9-1.2,15.3,5.3,19.7,12.3
		C417.1,594.5,420.3,606.5,419.5,618.9L419.5,618.9z"/>
	<path fill="#E8C9BC" d="M349,482.7c0.1-6.4,0.6-13.2,7.5-15.6c6.8-2.3,12.8,0,17.8,5.9c7.7,9,10.2,22.2,4.7,31.1
		c-3.5,5.6-8.2,7.6-14.6,4.8C354.6,504.4,349,494.9,349,482.7L349,482.7z M317.8,475.5c4.4,0.1,6.7,4.7,8.7,9.8
		c2.2,5.4,1.9,10.2-2.5,14.3c-1.6,1.5-3.5,1.6-5.6,1c-8.1-2.2-13-15.4-8.3-22.3C311.7,475.9,312.4,475.6,317.8,475.5L317.8,475.5z
		 M284.6,503.9c-0.8-4.6,1.3-8.1,5.1-9.7c4.1-1.7,6.8,1.7,9.5,4.3c3.4,3.4,4,8.1,4.4,12.3c0.3,3.4-2,6.8-5.8,7.8
		c-3.9,1-7.6-0.2-9.8-3.6C285.8,511.8,283.8,508.2,284.6,503.9L284.6,503.9z"/>
	<path fill="#EACBBD" d="M584.8,679.6c6.7,1.8,9.3,6.7,11.9,12.9c13.1,30.6,7.9,59.3-7.6,87.3c-3.2,5.8-8.9,9.2-12.7,14.4
		c-1.7,2.3-5.5,1.7-8.5,0.9c5.6-17.2,11.8-34.3,14.9-52.3C586.6,721.7,587.7,700.7,584.8,679.6L584.8,679.6z"/>
	<path fill="#E6C8BA" d="M655.2,579.8c0-0.8,0-1.6-0.1-2.4c6.4,0.6,12,3,16.1,8.1c11.2,13.7,24.1,26.1,33.2,41.4
		c0,26.2-0.1,52.5,0.1,78.7c0,5.6,0.2,10.9,2.3,16.6c2.5,7.2,0.8,15.5-4.7,21.7c-4.6,5.2-11.7,4-17.5,4.2
		c-18.2,0.8-36.5,0.3-54.7,0.3c-7.9,0-14.3-3.7-19.8-9v-1.5c-1.8-7.3-1.5-14.7-1.5-22.1V657c0-5.2-0.1-5.2-4.5-4.6
		c-8.7,0.2-13.9-5-16.7-12.4c-8.1-21.4-4.3-41.5,8.1-60.2c4.1-6.2,10-9.6,17.8-8.4c7.2,1.1,10,6.7,12.2,12.7
		c0.9,2.3,1.7,4.7,2.4,7.1c0.6,2-0.7,5.2,1.9,6c2.8,0.8,4.4-2.2,5.6-4.1c2-3.1,5.3-5.3,6.2-9.2c1,0.6,2,1.3,3,1.9c-3,3.7-6,7.3-9,11
		c-5.5,6.6-11,13.1-16.4,19.7c-3.4,2.9-6.2,6.3-7.9,10.5c-0.4,0.6-0.9,1.2-1.1,1.9c-3.1,9.3-0.3,18.6-0.2,28
		c0.3,22.4,0.1,44.8,0.1,67.1c0,2.6-0.9,5.5,1.1,7.9c0.6,1.6,1.2,3.3,1.8,4.9c2.1,5.9,6.5,8.6,12.6,8.6c21.2,0.1,42.4,0.2,63.7,0
		c9.2-0.1,15.5-7.9,14.4-17c-0.3-2.7-0.5-5.4-0.5-8.2c0-27.7-0.1-55.4,0-83.1c0-5.7-1.1-11-4.7-15.4c-7.5-9.3-14.9-18.6-23-27.4
		c-4.3-4.6-7.6-10.6-14.5-12.4C659,581.3,657.1,580.6,655.2,579.8L655.2,579.8z"/>
	<path fill="#E8C9BC" d="M700,510.6c-0.1-8.6,5.6-17.1,11-16.8c5.6,0.3,8.3,4.1,8.4,9.5c0.2,8-5.7,15.6-11.8,15.7
		C700.9,519.1,700.4,514.3,700,510.6L700,510.6z M676,490.3c0.1-7.4,5.5-14.8,11.1-14.7c5.7,0.1,8,4.1,8,8.9
		c0.1,7.4-6.5,16.6-11.5,16.4C677,500.5,675.8,495.8,676,490.3L676,490.3z"/>
	<path fill="#504A4B" d="M644.5,585.9c-1-0.6-2-1.3-3-1.9c-16.1-10.2-29.5-23.3-40-39.3c-1.5-2.2-2.8-4.7-3.5-7.3s1.3-1.8,2.7-1.3
		c10.2,20.8,26.2,35.8,46.1,47.1c2.8,1.3,5.6,2.7,8.4,4c-1,3.1-3.2,1.6-5,1.2C648.3,587.6,646.4,586.8,644.5,585.9z"/>
	<path fill="#EACBBD" d="M604,652.5c4.4-0.6,4.5-0.6,4.5,4.6v58.8c0,7.4-0.3,14.8,1.5,22.1c-3.3-2.8-3-6.6-3-10.3
		c0-22.6,0.1-45.3-0.1-67.9C606.9,657.1,608.6,653.4,604,652.5L604,652.5z"/>
	<path fill="#BC0000" d="M655.3,587.2c-2.8-1.3-5.6-2.7-8.4-4c1.2-1.7,3-2.5,4.9-3.1c1.2-0.1,2.3-0.2,3.5-0.2
		c1.9,0.7,3.8,1.5,5.6,2.2c10.8,12.9,21.6,25.8,32.5,38.7c2.6,3.1,4.7,6.4,3.7,10.8c-1.9-0.5-4-0.5-5.7-1.4
		c-17.6-9.4-35.2-19-52.8-28.5c-1.9-1-3-2.4-3.1-4.6c3-3.7,6-7.3,9-11c1.9,0.8,3.8,1.6,5.8,2.5c-2.5,3.7-2.3,7,1.9,9.2
		c2.9,1.5,5.5,0.1,6.8-2.4C660.9,591.4,659.2,588.6,655.3,587.2z"/>
	<path fill="#E8C9BC" d="M622,492.4c-0.1-8.3,2.4-15.7,8.5-21.6c9-8.7,21.1-5.1,24.1,7c2.5,10.2-5,26.1-14.5,30.5
		C630,512.9,622,505.9,622,492.4z"/>
	<path fill="#E6C8BA" d="M566.5,862.3c-2.2-24.8,17.8-50.3,40.1-55.4c24.2-5.5,47.1,7.6,54.8,32.1c8.2,26.1-4,56.8-27.4,68.4
		c-33.6,16.7-67.6-7.8-67.5-41.4L566.5,862.3L566.5,862.3z"/>
	<path fill="#E50000" d="M613,736.9c-0.6-1.6-1.2-3.3-1.8-4.9c0.2-15,0.3-30,0.5-44.9c2.1-0.1,3.9,0.4,5.7,1.4
		c14.8,8.1,29.6,16.3,44.6,24.1c11.7,6.1,22.5,13.7,35.1,18c-0.5,7.9-5.4,10.6-12.6,10.6c-19.5,0-39-0.1-58.4,0.1
		C621,741.2,616.7,740,613,736.9L613,736.9z"/>
	<path fill="#D20000" d="M611.2,627c1.7-4.2,4.5-7.6,7.9-10.5c1.5,3.2,4.6,4.4,7.4,5.9c9.9,5.4,19.5,11.2,29.5,16.1
		c13.9,6.8,26.6,15.7,41,21.4v30c-18.4-7.2-34.6-18.4-52.2-27.2c-11-5.5-20.8-13.6-33.3-16.3C611.4,640,611.3,633.5,611.2,627
		L611.2,627z"/>
	<path fill="#C70000" d="M697,660c-14.4-5.7-27.2-14.6-41-21.4c-10.1-4.9-19.7-10.7-29.5-16.1c-2.9-1.6-5.9-2.7-7.4-5.9
		c5.5-6.6,11-13.1,16.4-19.7c0.1,2.2,1.2,3.6,3.1,4.6c17.6,9.5,35.1,19.1,52.8,28.5c1.7,0.9,3.8,1,5.7,1.4
		C697,641,697,650.5,697,660L697,660z"/>
	<path fill="#D4B6A9" d="M697,660v-28.5c1-4.4-1-7.6-3.7-10.8c-10.8-12.9-21.6-25.8-32.5-38.7c6.8,1.7,10.2,7.8,14.5,12.4
		c8.1,8.7,15.5,18.1,23,27.4c3.6,4.4,4.7,9.7,4.7,15.4c-0.1,27.7,0,55.4,0,83.1c0,2.7,0.2,5.5,0.5,8.2c1.1,9-5.2,16.9-14.4,17
		c-21.2,0.2-42.4,0.1-63.7,0c-6.1,0-10.4-2.7-12.6-8.6c3.8,3.2,8,4.4,13.1,4.3c19.5-0.2,39-0.1,58.4-0.1c7.2,0,12-2.7,12.6-10.6V690
		C697,680,697,670,697,660L697,660z M611.2,627c0.1,6.5,0.3,13,0.4,19.5V687c-0.2,15-0.3,30-0.5,44.9c-2-2.4-1.1-5.3-1.1-7.9
		c-0.1-22.4,0.2-44.8-0.1-67.1c-0.1-9.3-2.9-18.7,0.2-28C610.3,628.3,610.8,627.7,611.2,627L611.2,627z"/>
	<path fill="#C6A69A" d="M655.3,587.2c3.9,1.4,5.6,4.2,3.7,8c-1.3,2.6-3.9,4-6.8,2.4c-4.2-2.2-4.4-5.5-1.9-9.2
		C652.1,588.7,654.3,590.3,655.3,587.2z"/>
	<path fill="#DB0000" d="M611.6,687v-40.5c12.4,2.7,22.2,10.8,33.3,16.3c17.5,8.8,33.8,20,52.2,27.2v40.5
		c-12.6-4.3-23.4-11.9-35.1-18c-15-7.8-29.7-16.1-44.6-24.1C615.5,687.4,613.7,686.9,611.6,687L611.6,687z"/>
</g>
<path id="table" fill="#303030" d="M0,931.4h1920V1080H0V931.4z"/>
</svg>
