<svg version="1.1" id="Layer_1" xmlns="http://www.w3.org/2000/svg" xmlns:xlink="http://www.w3.org/1999/xlink" x="0" y="0" viewBox="0 0 1920 1080" xml:space="preserve"><style>.st1,.st2,.st3,.st5,.st7,.st8{fill-rule:evenodd;clip-rule:evenodd;fill:#dad8d6}.st2,.st3,.st5,.st7,.st8{fill:#e5e6e7}.st3,.st5,.st7,.st8{fill:#231f20}.st5,.st7,.st8{fill:#fff}.st7,.st8{fill:#222224}.st8{fill:#6d6e70}.st11{fill:none;stroke:#000001;stroke-width:2.5834;stroke-miterlimit:22.9256}.st13{fill-rule:evenodd;clip-rule:evenodd;fill:#1b1b1b}.st17{fill:#000001}.st19,.st21,.st27{fill-rule:evenodd;clip-rule:evenodd;fill:#bbbcbf}.st21,.st27{fill:#000001}.st27{fill:#929497}.st29{fill:none;stroke:#231f20;stroke-width:1.0333;stroke-miterlimit:22.9256}.st40{fill:#bbbcbf}.st42{fill:none;stroke:#231f20;stroke-width:2.5834;stroke-miterlimit:22.9256}.st46,.st47,.st49,.st51{fill-rule:evenodd;clip-rule:evenodd;fill:#676768}.st47,.st49,.st51{fill:#717273}.st49,.st51{fill:#010101}.st51{fill:#404041}.st52{fill:#231f20}.st53{fill:#fff}.st55{fill:none;stroke:#000001;stroke-width:2.0669;stroke-miterlimit:22.9256}.st60,.st61{fill-rule:evenodd;clip-rule:evenodd;fill:#bb2c2c}.st61{fill:#3e4142}</style><path d="M1616.1 79.8c-32.4-4.4-51-21.7-65.4-35.2-4.9-4.6-9.5-8.7-13.7-11.7-11.8-7.8-23.3-4.7-46.7 30.3-10.6 15.9-33.4 17-58.1 18.2-39.6 2-84.8 4.4-82.8 71.8.2 5.1 1.3 10.8 3.5 16.6 3.6 10.6 10.2 21.1 18.4 29.2 7.8 7.7 17.5 12.8 27.5 12.6 2.9 0 5.8-.5 8.9-1.6 84.2-29.7 93.7-47 104.1-66.2 7.7-14 15.7-28.8 49.8-48.9 6.6-3.8 12.8-3.6 19.7-3.5 8.7.5 19.7.7 34.8-11.6m17.5 1.1c-6 0-11.5-.2-16.8-.9l4.6 5.5c-17.5 14.6-30.1 14.2-40.8 13.9-5.8-.2-10.9-.4-15.7 2.6-32.3 19-39.7 32.8-46.8 45.9-11.1 20.4-21.3 39-108.3 69.6-3.8 1.3-7.5 2-11.3 2.2-12.4.4-23.7-5.7-33-14.8-9.1-8.7-16.2-20.6-20.2-32.1-2.4-6.6-3.6-12.9-3.8-19-2.2-74.9 47-77.5 90-79.8 22.8-1.1 43.7-2.2 52.1-14.8 27-40.5 41.6-43.2 57.4-32.4 4.7 3.1 9.5 7.5 14.6 12.4 15.9 14.8 37.2 34.6 77.7 34.1l.3 7.6z" fill="#dad8d6"/><path class="st1" d="M1506.2 301.9c72.5-80.4 91 18 167.5-51.9.2-.2 22.4-43.7-14.4-66.2-37.5-22.8 80-82.4 23.5-109.5-19.3-9.3-64.9 8.4-113.2-31.5-77.7-64.2-56.7 41.6-92.4 55.8-46.3 18.6-81.3-45.6-118.7 22.8-39 71.1 109 71.8 149.1 177.2l-1.4 3.3z"/><path class="st2" d="M1095.5 765.9c-159.7-3.6-222.9 68.5-161.1 78.4 17.5 2.7 283.6-17.7 220.9 21.7-94.4 59.2 3.6 56.7 73.1 36.3 121.6-35.7 329 32.4 402.5-30.6 56.7-48.5-174.6-67.3 10.9-59.6 43.4 1.8 80.2-20.8 6.7-66.3-74.4-46.1-41.7-30.1-173.9-48.9-6.2-.9-19.1-3.6-36.1-6.9-2.9-143.5-272.9-83.1-341.6-84.6-80-1.8 59.1-84-249.7-42.5-211.6 28.4-115.4 63.4-113.7 63.1 68.9-14 8.7 90.6 103 99 136.4 11.6 161.3-55.7 259 40.9"/><path class="st3" d="M887.9 203.6c9.3-5.3 11.3-15.9 14.4-25.5 2.2-7.1 3.6-28.8-2-34.5-5.8-5.8-15.3-11.5-25.2-13.3-11.7-2.2-24.6-.5-31.4 3.1-4 2.2-14.2 22.4-15.1 27.3-1.8 12.2 6.9 40.5 6.9 40.5.7-1.3 1.5-2 1.8-2.2 0 0 1.6 4.4 2.7 1.6.9-2.4 2.6 1.3 2.6 1.3.7-.4 5.7 3.3 8.6-.5 5.1-6.4 7.5-8.6 15.3-7.8 18.1 1.4 19 11.5 21.4 10"/><path class="st1" d="M242.3 540.1c91.1.4 120.5 191 122.9 64.5.9-50.1 67.3 19.7 58.3-97.9-6.6-87.5 190.8-18.2 88-289.6-41-108.3-185.6-158.6-156.8 35.4 5.3 35.7-.2 165.7-70.2 92.8-40.8-42.5-84.2 16.6-61.1 93.9 5.4 18.3 7.8 110.4 18.9 100.9m104.2 423.4C249.6 889.9 210.9 794 220 674.6c1.3-16 3.8-29.7 7.3-40.6 2.9-10.4 6.7-19.3 11.3-26.4 1.1-2.2 2-4.2 3.1-6 .5.2 1.1.4 1.6.5-1.5 2.7-2.9 5.8-4.2 9.1 3.1-3.5 6.6-5.8 10-6.7 1.8.7 3.8 1.6 5.7 2.4 7.1 3.3 13.1 7.5 18.6 12.2 8.4 12.6 16.2 33.2 22.8 63.3 4 18.4 29.2 174.3 73.3 112.3 16-22.6-11.5-192.5 59.4-120.1 27.2 27.7-17.3 157.5 56.1 133.2 55-18.4 25.2-152.6 83.5-28.8 40.1 84.9 56.7.4 47.8-65.1-6-43.6-14.4-86.8-17-129.1 1.8-2.4 3.8-4.9 6-7.8 26.4-36.1 20.4 19.1-6.6-6.7-.9-37.5 3.8-74.2 20.2-109.5 28.8-62 64 41.4 62.5 72.2-1.6 33.7-1.5 145.5 6.7 174.3 22.2 78.7 37.7-53.8 58.3-50.5 2.2-10.9 3.8-21.7 5.1-32.3 1.6 1.8 3.5 3.8 5.3 5.7-1.6 10-3.5 19.9-5.5 29.7 43.2 41.6 9.3 191.8 59.6 190.5 25-.5 23.3-181 36.1-55.8 12.2 118.8 87.1 205.2-118.5 238.6-58 9.5-150.9-3.3-200.7-35.7-45.6-29.5-81.8 4.6-167.7-32.3-8.5-4-6.1 4-13.6-1.7z"/><path d="M773.6 261.6c31.2 43.7 66.2 24.4 36.5 4.4-11.1-7.5-24.4-11.5-36.5-4.4" fill-rule="evenodd" clip-rule="evenodd" fill="#020002"/><path class="st5" d="M894.5 389.2c-2-10.4-9.5-111.7 7.5-106.1 3.3 1.1 9.8 1.6 10.6 2.7 2.6 3.8 8.6 8.6 7.8 11.1-9 29.6-5.1 54.4-25.9 92.3z"/><path d="M894.5 389.2c-2-10.4-9.5-111.7 7.5-106.1 3.3 1.1 9.8 1.6 10.6 2.7 2.6 3.8 8.6 8.6 7.8 11.1-9 29.6-5.1 54.4-25.9 92.3z" fill="none" stroke="#000001" stroke-width="1.679" stroke-miterlimit="22.926"/><path class="st7" d="M904.7 638.2c-4.4-.4-18.6-2.2-19.5 3.5 0 .4-.4.5-.5.9 1.3 4.4-2.4 14.6 2.4 24.1 3.8 1.5 39.9.7 49.9-7.1-3.2-11.1-32.3-7-32.3-21.4M825.6 635.4c-4.2-1.5-17.3-6.9-19.7-1.8-.2.2-.5.4-.9.7.2 4.7-6.2 13.5-4.2 23.9 3.5 2.4 38.3 11.1 49.9 6.2.4-11.3-29-15.1-25.1-29"/><path class="st8" d="M803.7 393.9c33.9-17.1 56.3-11.3 87.7-3.6 1.5.4 8.4 2.2 8.4 4-4 7.8 7.1 119 6.4 145.5-1.5 44.8-.4 58.9 5.5 103 .2 1.3-.4.4-.5-1.5-7.3 4.7-20.4 7.1-29.3 4.2-6.2-53.6-6-47.4-12.9-95.1-4.2-28.4-6.7-68.2-16.4-99.7-11.5 62.5-19.7 125.2-23.9 189.9 0 0-26.1-1.5-27.3-2.7-3.1-50.7 4-90.8 1.3-137.6-1.3-20.8-4-58.3-.4-103.2-.2-2.1-.4-2.6 1.4-3.2"/><path d="M1429.5 633.8c7.1-9.8 65.6-128.3 98.6-124.1 64.7 8.2 51.9 42.7 36.3 89.9-4.7 14.6-51 135.8-42.3 115.2 10.8-25-5.1 42.5-52.7 33.7-93.5-17.5-84.9-38.6-45.6-110.5.6-1.1 5.1-3.5 5.7-4.2" fill-rule="evenodd" clip-rule="evenodd" fill="#4e4d4d"/><path d="M1332.9 689l1.5 4.7c-4.7 83.5-34.3 95.1 67.4 102.6 15.9 1.1 78.7-5.5 90.8-15.1 10.4-8.4 124.9-95.7 127.2-100.1-7.7 3.5 4.2-5.5 9.1-13.7 16.6-27.2 32.4-38.1 6-67.8-4.4-4.9-32.1-20.2-46.5-15.1-33 11.8-57.2 31.2-80 51.9-3.3 3.1-6.4 6.4-8.2 3.5-33.4.4-45.2 18.6-84.9 10.9-31.2-6-63.8 9.8-81.8 34.5-.8 1.3-2.8 5.2-.6 3.7" fill-rule="evenodd" clip-rule="evenodd" fill="#646565"/><path class="st5" d="M1486.5 738.8c-8.7 22.4-14.6 44.1-5.5 51 2.9 2.2 12.9 8.7 28.1 12.8 4.9 1.3 13.7 19 13.7 19-21.3.5-9.1-5.1-51.6-6.7-8.6-.4-11.3-2.2-17.5-2.6-4.9-.4-12.9 1.6-25.3-3.5-6.2-2.6-14 7.5-19.3 1.1 3.6-11.7 14.4-14.2 26.6-20.1 12.8-6 3.5-95.3 11.1-114.3 3.6-8.7 12-5.7 23.1-6.7 3.6-.4 32.1-.2 37.2 4.9 2 2-18.4 59.8-20.6 65.1z"/><path class="st11" d="M1486.5 738.8c-8.7 22.4-14.6 44.1-5.5 51 2.9 2.2 12.9 8.7 28.1 12.8 4.9 1.3 13.7 19 13.7 19-21.3.5-9.1-5.1-51.6-6.7-8.6-.4-11.3-2.2-17.5-2.6-4.9-.4-12.9 1.6-25.3-3.5-6.2-2.6-14 7.5-19.3 1.1 3.6-11.7 14.4-14.2 26.6-20.1 12.8-6 3.5-95.3 11.1-114.3 3.6-8.7 12-5.7 23.1-6.7 3.6-.4 32.1-.2 37.2 4.9 2 2-18.4 59.8-20.6 65.1z"/><path class="st5" d="M1392.3 323.4c-6.9 24.6 1.1 36.1-17.5 54.7 0 0 14.9 12.9 16.8 14.9 23.7 25.7 11.1 29 45.4 51 12.2 7.8 2.9 6 4.7-12.8.5-4.9 6.7-13.9 8.9-24.8 1.1-5.5 13.1-35.7 8-37.5-9.7-3.8-39.6-27-46.8-35.9-3.5-4.2-14.2-7.8-19.5-9.6z"/><path class="st11" d="M1392.3 323.4c-6.9 24.6 1.1 36.1-17.5 54.7 0 0 14.9 12.9 16.8 14.9 23.7 25.7 11.1 29 45.4 51 12.2 7.8 2.9 6 4.7-12.8.5-4.9 6.7-13.9 8.9-24.8 1.1-5.5 13.1-35.7 8-37.5-9.7-3.8-39.6-27-46.8-35.9-3.5-4.2-14.2-7.8-19.5-9.6z"/><path class="st5" d="M1398.5 330.3c.5 16.4 6.4 25.5 19.7 34.5 10.4 6.9 33.4 24.1 45.6 24.2 25.3.4 14-.5 30.8-27.7 2.4-3.8 9.8-29 8-35.5-4.7-16 8-17.9 3.1-36.5-4.6-17 13.5-35-37.5-35.9-17-.4-62-3.3-70.2 18.6-4.9 13.1-.2 20.4-1.1 23.1-.2.4-.7.2.7.7-24.2-20.1-28.6 23-8.7 33.2 1.2.6 8.3 1.7 9.6 1.3"/><defs><path id="SVGID_1_" d="M1398.5 330.3c.5 16.4 6.4 25.5 19.7 34.5 10.4 6.9 33.4 24.1 45.6 24.2 25.3.4 14-.5 30.8-27.7 2.4-3.8 9.8-29 8-35.5-4.7-16 8-17.9 3.1-36.5-4.6-17 13.5-35-37.5-35.9-17-.4-62-3.3-70.2 18.6-4.9 13.1-.2 20.4-1.1 23.1-.2.4-.7.2.7.7-24.2-20.1-28.6 23-8.7 33.2 1.2.6 8.3 1.7 9.6 1.3"/></defs><clipPath id="SVGID_2_"><use xlink:href="#SVGID_1_" overflow="visible"/></clipPath><path d="M1398.5 330.3c.7-3.6 7.3-20.4 6.4-22.8 2.2-1.6 2.2 1.1 6.6 5.3 11.3 11.3.9 21.1 25 24.4 11.8 1.6 8 12.2 23.9 7.8 4.2-1.1 23.9 3.8 34.3 3.3 12.4-.5 3.3 16.6.4 24.2-9.1 23.9-23.7 22.4-46.5 17.1-9.3-2.2-34.6-17.9-41.7-25-8.4-8.2-10.2-19.5-8.2-30.4.1-3-1-1-.2-3.9" clip-path="url(#SVGID_2_)" fill-rule="evenodd" clip-rule="evenodd" fill="#d7d7d7"/><path class="st11" d="M1398.5 330.3c.5 16.4 6.4 25.5 19.7 34.5 10.4 6.9 33.4 24.1 45.6 24.2 25.3.4 14-.5 30.8-27.7 2.4-3.8 9.8-29 8-35.5-4.7-16 8-17.9 3.1-36.5-4.6-17 13.5-35-37.5-35.9-17-.4-62-3.3-70.2 18.6-4.9 13.1-.2 20.4-1.1 23.1-.2.4-.7.2.7.7-24.2-20.1-28.6 23-8.7 33.2 1.2.6 8.3 1.7 9.6 1.3z"/><path class="st13" d="M1378.6 291.3c-13.5-3.5-6.6-6.4-8.2-14.2-10.6-46.5 17.1-22.2 31.7-59.8 3.5-8.6 14.8-15.1 28.1-15.3 17.7-.2 38.3 7.5 46.7 8.6 36.1 4.6 20.1 11.7 33.5 22.4 13.1 10.4 7.7 29.3-4.9 34.5-14.9 6-51.2-14-62.5-9.1-28.6 12.2-15.3 20.4-24.4 29.2-11.7 11.3-10.9 29-16.4 14.8-6.3-6.7-5.9-15.1-23.6-11.1"/><defs><path id="SVGID_3_" d="M1378.6 291.3c-13.5-3.5-6.6-6.4-8.2-14.2-10.6-46.5 17.1-22.2 31.7-59.8 3.5-8.6 14.8-15.1 28.1-15.3 17.7-.2 38.3 7.5 46.7 8.6 36.1 4.6 20.1 11.7 33.5 22.4 13.1 10.4 7.7 29.3-4.9 34.5-14.9 6-51.2-14-62.5-9.1-28.6 12.2-15.3 20.4-24.4 29.2-11.7 11.3-10.9 29-16.4 14.8-6.3-6.7-5.9-15.1-23.6-11.1"/></defs><clipPath id="SVGID_4_"><use xlink:href="#SVGID_3_" overflow="visible"/></clipPath><path d="M1510 226.9c1.8 7.1 3.1 12.6 2 17.5-4 16.4-22.4 15.9-35.4 13.7-10.9-1.8-22.8-3.8-30.4 2.4 0 0-8.2 4.4-12.8 6.7-.9.5-1.8.9-2.4 1.1-.4.2-.5.2-.7.4-.2.2-.4.2-.4.2-.9.4-1.1 0-.2-.9l.2-.2.2.2.5-.5c.5-.2 1.3-.7 2.4-1.1 4.6-2.4 12.6-6.6 12.6-6.6 7.8-6.4 20.1-4.6 31.2-2.6 12.2 2 30.4 2.9 34.3-12.9 1.1-4.7-.2-10-1.8-17l.7-.4zm-61.9 39.2c20.8-8.6 28.6-6.7 36.1-4.9 13.3 3.3 31.9 2.2 32.8-14.6.2-4.2-.5-8.7-1.6-12-.7-2.2-1.6-4-2.6-4.7l.7-.7c.9.9 2 2.9 2.7 5.3 1.1 3.5 1.8 8 1.6 12.4-.9 17.5-20.1 19-34.1 15.5-7.3-1.8-14.9-3.6-35.4 4.9l-.2-1.2zm-81.9 31.7c11.3-16 10.4-22.8 9.7-28.1-1.5-10.6 5.5-16.4 14.9-18.8 6.6-1.6 13.7-3.3 22.2-21.9 9.1-19.7 25-16.8 43.2-13.3 13.7 2.6 29 5.5 43.6-1.1 1.3-.5 3.5-1.8 5.7-3.1s4.4-2.6 5.3-2.7l1.1-.4-.5 1.1c-.9 2.2-2 4.4-3.1 6.2.2.4.4.7.4 1.1.2 1.3-.5 3.1-2.2 5.1-1.5 2-3.8 4.2-6.7 6.4-7.7 5.7-19.9 10.6-35 8.9-29.3-3.1-37.4 8.4-45.2 19.9-4.4 6.4-8.7 12.8-16.8 16.8-13.3 6.6-15.1 11.8-17 17.7-2 6.4-4.2 13.3-21.3 22.6l-.5-.9c16.8-9.3 19-15.9 20.8-22.1 1.8-6 3.6-11.5 17.5-18.2 7.8-3.8 12-10 16.4-16.4 8-11.7 16.2-23.5 46.1-20.4 14.8 1.6 26.8-3.3 34.3-8.7 2.9-2 5.1-4.2 6.4-6 1.5-1.8 2-3.5 2-4.4v-.2c-1.3 2-2.7 3.8-4.4 5.3-3.3 3.1-7.5 5.5-13.3 7.5-11.1 4-20.8 2.7-29.9 1.5-13.9-1.8-26.2-3.6-39.9 13.9-9.3 11.8-16.2 15.5-22.4 19-6.6 3.5-12.2 6.6-19.3 18.2-.4.7-1.1 3.1-1.8 5.8-.9 3.5-1.6 7.3-2 9.1l-1.1-.2c.2-1.8 1.1-5.8 2-9.1.7-2.7 1.5-5.3 1.8-6 7.1-12 12.9-15.1 19.7-18.8 6.2-3.3 12.9-6.9 22.1-18.6 14-17.9 26.8-16.2 40.8-14.2 9.1 1.3 18.6 2.6 29.5-1.3 5.7-2 9.7-4.4 12.9-7.3 2.9-2.7 5.3-6.2 7.3-10.9-.9.5-2.4 1.3-3.8 2.2-2 1.3-4.4 2.6-5.7 3.1-14.9 6.7-30.3 3.8-44.1 1.3-17.9-3.5-33.4-6.4-42.1 12.8-8.7 19-16.2 20.8-23 22.4-9.1 2.2-15.5 7.5-14.2 17.7.7 5.5 1.6 12.4-9.8 28.8l-.6-1.3z" clip-path="url(#SVGID_4_)" fill="#404041"/><path d="M1403.4 306.4v.2c.2 0 0 0 0-.2m62.3-45c-.4.5-3.3 1.1-5.7 1.6-1.5.4-2.9.5-3.5.7-5.3 1.8-8.9 4.4-12.8 6.9-3.6 2.6-7.5 5.1-12.9 7.3-7.1 2.7-13.5 5.5-18.2 9.7-4.7 4-7.8 9.5-8.9 17.5l.5-.2-.2.9c-.4 1.5-.7 1.8-1.1 1.6-.4 0-.4-.5-.4-1.1l-.7.2.2-.9v-2c0-1.5.2-3.3.2-3.5 0-4.7 1.8-8.9 4.7-12.6 2.7-3.6 6.6-6.6 10.4-8.9 3.6-2.4 6.7-4 9.8-5.7 2.6-1.5 5.3-2.9 8-4.6 3.1-1.8 5.5-4 7.8-6 2.7-2.4 5.3-4.6 8.4-6l.4.9c-2.9 1.5-5.5 3.5-8.2 5.8-2.4 2-4.9 4.2-8 6.2-2.9 1.8-5.5 3.1-8.2 4.6-3.1 1.6-6.2 3.5-9.8 5.7-3.6 2.4-7.3 5.3-10 8.7-2.7 3.5-4.6 7.5-4.6 12v1.1c1.5-6.4 4.6-10.9 8.6-14.4 4.9-4.2 11.3-7.1 18.4-9.8 5.3-2 9.1-4.6 12.6-7.1 3.8-2.7 7.7-5.3 13.1-7.1.5-.2 2-.5 3.5-.7 2.4-.5 4.9-1.1 5.1-1.3l1.5.5z" fill="#404041"/><path d="M1487.6 303.7l-1.1.2c1.5-2.6 2.9-4.9 4.6-7.1 3.1-.2 18.2-.2 20.6 1.3-6.6 5.8-9.5 5.5-21 5.8-.5-.2-2-.4-3.1-.2m-6.9-8.8c-.9 2-2.9 5.7-4.9 6.9-.4-.5-.5-.5-1.3-.5-21.1-1.6-21.9-10.6-44.3-5.5 8.4-10.8 26.4-3.8 37.2-2.6 2.5.3 11.8.6 13.3 1.7z" fill-rule="evenodd" clip-rule="evenodd" fill="#373737"/><path class="st17" d="M1482.7 343.4l.2.2.4-.2c-.3-.2-.4 0-.6 0m.2 0l-.2-.2.2.2zm4-23c0 1.3.4 3.1.7 4.7.4 2.4.7 4.7.7 6.6 0 .5 0 1.5.2 2.6.2 2.4.4 5.5-.4 6.6-.5 1.1-1.6 1.8-2.6 2.6-.5.4-1.1.7-1.1.9-.5 1.1-1.3 1.1-2 .7-.4-.2-.4-.4-.5-.5l.9-.9-.2-.2c-.4 0-.7 0-.5-.2.4-.7 1.1-1.3 2-1.8 1.1-.4 2.4-.5 2.9-.9 1.8-3.8-5.7-26.8-1.5-37-.6 7.7 1.2 12.5 1.4 16.8z"/><path d="M1468.1 331.6c-6.7 6 1.1 8.4-.2 10.9-.7-.5-5.1-4.2-4.6-5.7.6-1.8 3.7-5.4 4.8-5.2" fill-rule="evenodd" clip-rule="evenodd" fill="#050103"/><path class="st5" d="M1483.6 359.6c-.9-1.3-1.6-2.9-2.7-4-1.1-1.3-1.5-1.3-3.3-.9-3.3.9-3.8-2.9-10.8 1.1-3.6 2.2-10.8 2-12 3.5-.2.2-.2-.2-.2.2 6-3.1 7.5.4 13.7-1.6 5.3-1.6 4 1.5 10.2-.4 1.8-.4 4.5 2.1 5.1 2.1"/><path class="st17" d="M1481.6 357.8c-.4-.5-.9-1.3-1.3-1.8-.5-.5-.7-.7-1.1-.9-.4 0-.7 0-1.5.2-1.3.4-2.2.2-3.3-.2-1.5-.5-3.1-1.1-7.3 1.3-1.1.5-2.4 1.1-3.8 1.5 1.3.2 2.7 0 4.7-.5 2.7-.9 3.8-.5 4.9-.2 1.1.4 2.2.7 5.3-.2 1.2-.3 2.5.3 3.4.8m2 .7c.2.2.4.5.5.7l.5.9h-1.1c-.4 0-.9-.4-1.5-.7-.9-.7-2.4-1.6-3.5-1.3-3.5 1.1-4.7.5-6 .2-.9-.4-2-.5-4.2.2-2.9.9-4.9.7-6.7.4-2-.2-3.8-.5-6.9 1.1l-.9.5v-1.3c0-2 2.4-1.6 5.5-2.2 2.4-.4 5.3-.9 7.1-2 4.7-2.7 6.7-2 8.4-1.5.7.2 1.5.5 2.6.2.9-.4 1.6-.4 2.2-.2.5.2 1.1.5 1.6 1.3.9 1.4 1.7 2.6 2.4 3.7zM1464.8 363.8s6.7.2 11.7 0c2.7-.2 4.9-.5 5.1-.5 2.9 3.8-17.3 3.3-16.8.5"/><path class="st19" d="M1384.6 313.2c-2.9-4.9-2.2-18.6 8-7.7.4.5 1.3.7 1.8.5-2.7-4.7-8.6-13.3-11.7-4-.6 1.9.3 11.2 1.9 11.2"/><path d="M1484.9 311.3c5.1-3.5 8.4-4.6 14-2 .4.2 1.1.5 1.3.9m-36.1-3.1c-4.7-6.9-26.2-2.4-28.4-1.1 5.5 9.3 16.2 10.6 24.8 5.3m24.6 3.9c6 2.2 8.7 3.6 14.8-.9.4-.2.2-.4.5-.4" fill="none" stroke="#000001" stroke-width="1.808" stroke-miterlimit="22.926"/><path class="st21" d="M1448.2 306.6c3.1 0 5.7 2.6 5.7 5.5 0 .7-.2 1.6-.5 2.4-3.5.2-7.8.5-10.8-1.3 0-.4-.2-.7-.2-1.1.2-3 2.7-5.5 5.8-5.5"/><defs><path id="SVGID_5_" d="M1448.2 306.6c3.1 0 5.7 2.6 5.7 5.5 0 .7-.2 1.6-.5 2.4-3.5.2-7.8.5-10.8-1.3 0-.4-.2-.7-.2-1.1.2-3 2.7-5.5 5.8-5.5"/></defs><clipPath id="SVGID_6_"><use xlink:href="#SVGID_5_" overflow="visible"/></clipPath><path d="M1444.6 311c.2-.4 2.4-3.6 3.3-2.9-1.9 2.7-3.9 3.8-3.3 2.9m.7 1.8l3.1-3.5h.5c.2.8-2.3 4-3.6 3.5z" clip-path="url(#SVGID_6_)" fill="#fff"/><path class="st21" d="M1491.3 310.8c2.6 0 4.6 2 4.6 4.4 0 .7-.2 1.3-.4 1.8-2.7.2-6.2.5-8.7-.9v-.9c-.1-2.4 2.1-4.4 4.5-4.4"/><defs><path id="SVGID_7_" d="M1491.3 310.8c2.6 0 4.6 2 4.6 4.4 0 .7-.2 1.3-.4 1.8-2.7.2-6.2.5-8.7-.9v-.9c-.1-2.4 2.1-4.4 4.5-4.4"/></defs><clipPath id="SVGID_8_"><use xlink:href="#SVGID_7_" overflow="visible"/></clipPath><path d="M1488.3 314.2c.2-.4 2-2.9 2.6-2.4-1.5 2.3-2.9 3.2-2.6 2.4m.8 1.5l2.6-2.7h.4c-.1.5-2.1 3.1-3 2.7z" clip-path="url(#SVGID_8_)" fill="#fff"/><path d="M1444.2 722c-23.9 14.9-105 10.9-109.5-13.5-6.2-33 3.3-51.9-10.8-109-27.2-109.9-99.9-121-34.3-201.4 19.1-23.5-13.9-27 36.6-32.6.9-.2 4.2-2.4 4.9-2.9 28.6 4.4 86.6 19.1 110.1 37 25.3 19.3 61.6-4.2 79.3 33.2 14.4 30.1 4.2 98.1 4.7 155.5.2 12-9.5 113.7-19.9 99.9-23.5 11.3-35-9.7-60.2-5.5-3.5 10.6-2.4 21.3-2.4 31.2 3 1.5-3.4 10.8 1.5 8.1" fill-rule="evenodd" clip-rule="evenodd" fill="#242424"/><defs><path id="SVGID_9_" d="M1444.2 722c-23.9 14.9-105 10.9-109.5-13.5-6.2-33 3.3-51.9-10.8-109-27.2-109.9-99.9-121-34.3-201.4 19.1-23.5-13.9-27 36.6-32.6.9-.2 4.2-2.4 4.9-2.9 28.6 4.4 86.6 19.1 110.1 37 25.3 19.3 61.6-4.2 79.3 33.2 14.4 30.1 4.2 98.1 4.7 155.5.2 12-9.5 113.7-19.9 99.9-23.5 11.3-35-9.7-60.2-5.5-3.5 10.6-2.4 21.3-2.4 31.2 3 1.5-3.4 10.8 1.5 8.1"/></defs><clipPath id="SVGID_10_"><use xlink:href="#SVGID_9_" overflow="visible"/></clipPath><path d="M1397.4 683.2l-.9 26.4h-1.1l.9-26.4h1.1zm-31-24.8c0 2-.2 3.6-.2 5.5-.4 8-.7 14.9 0 23.1h-1.1c-.7-8.2-.4-15.1 0-23.3 0-1.8.2-3.6.2-5.5l1.1.2zm-31.5-236.2l-12.6 38.8-.9-.4 12.6-38.8.9.4zm135.2 71.2l6.2 45.8-1.1.2-6.2-45.8 1.1-.2zm27.3 29.6c0 8.7-.2 16.6-.4 24.4-.4 6.7-.7 13.3-1.1 20.6l.9.4-1.1 3.5-1.3 4 .2-4.2c.5-8.7 1.1-16.4 1.5-24.2.4-7.8.5-15.5.4-24.4l.9-.1zm15 51.4l-4 37.5-1.1-.2 4-37.5 1.1.2zm-25.3 39.5l-4 35.5-1.1-.2 4-35.5 1.1.2zm20.7 33.4l-7.1 29.5-.9-.2 7.1-29.5.9.2zm-22-200.9l4.2 31.5-1.1.2-4.2-31.4 1.1-.3zm-82 39.7l-1.5 34.3h-1.1l1.5-34.3h1.1zm12.9 71.1c0 .5 0 2 .2 4.2.2 7.1.7 21.3-.9 29.7l-1.1-.4c1.6-8.4 1.1-22.2.9-29.3 0-2.2-.2-3.8-.2-4.4l1.1.2zm-51.8-21.8l-.2.2c.2 0 .2 0 .4.2l-.2-.4zm-.2-.6c.4-.2.5 0 .7.2.2.5-.2 7.5-.5 15.3-.4 5.8-.7 12-.9 17h-1.1c.2-4.9.5-11.3.9-17 .4-7.8.9-14.6.7-14.9 0-.2 0-.2.2-.2l.2-.2-.2-.2zm7.5-116.1c-1.6 3.3-6.2 13.7-8.9 22.4-1.6 5.5-2.7 10.2-2 12l-.9.4c-.9-2 .2-7.1 1.8-12.8 2.7-8.7 7.3-19.3 9.1-22.6l.9.6zm-19.1 59.2l-4 17.7-.7 16.4h-1.1l.7-16.4 4-17.9 1.1.2zm86-28.2c-.9 4.6-2.9 14.8-4 24.2-.7 6.2-1.1 12.2-.7 16.2l-1.1.2c-.4-4.2 0-10.2.7-16.4 1.1-9.7 2.9-19.7 4-24.2h1.1zM1385.9 590c.2 2.2.5 5.1.9 8.2.9 8.9 2.2 20.1 3.5 27.9h.4v2l-.2 4.9-.9-4.7c-1.5-7.8-2.7-20.2-3.8-29.9-.4-3.1-.7-5.8-.9-8.2l1-.2zm31.2 41.6l-.4 41.7h-1.1l.4-41.7h1.1zm48.1-55.2c-.4 2.4-.7 4.7-1.3 7.3-1.6 9.3-3.5 19.9-3.8 28.8h.4l-.4 2-1.1 6.6.2-6.6c.2-9.3 2.2-21 3.8-31 .4-2.6.9-5.1 1.3-7.3l.9.2zm-39.6 119.5l.7 16.4h-1.1l-.7-16.4h1.1z" clip-path="url(#SVGID_10_)" fill="#1b1919"/><path d="M1445.7 682.8c-12.6.7-16.4-1.6-16.8-6.7-.2-2.7.7-6.2 1.8-10.4 2-7.8 4.7-18.4 2.2-31.4-2.6-12.6-.2-16 2.6-20.1 2.6-3.8 5.7-8.2 5.5-21.9 0-2.9.5-38.1 2.6-37.7.5.2-.5 5.7-1.1 12.6-.7 10.2-.7 23.3-.5 25.2.2 14-2.9 18.6-5.7 22.6-2.7 3.8-4.7 7.1-2.4 19.3 2.6 12.9-.2 23.7-2.2 31.7-1.1 4.2-2 7.5-1.8 10 .2 4.4 3.8 6.6 15.7 5.8l.1 1z" fill="#58595b"/><path class="st27" d="M1289.8 784.7c-2.7-37.2 3.5-70 1.5-101.9-2-31.5-45-31.7-64-88.6-9.1-27.7-18.6-43.6-21-72.5-.4-5.3-7.7-23-11.5-26.2l-1.5-2.7c0-144.2 20.6-71.8 55-98.6 8.4.9 53.6 2.6 63.1-5.3 33.7 14.6 69.8 8.7 88.4 21.9 11.8 8.4 15.3 47 14.2 69.4-2.4 43-10 95.9-20.2 133.6-16.2 60.5-46.7 118.5-91.1 156.6-1.9 1.9-11.6 13.9-12.9 14.3"/><defs><path id="SVGID_11_" d="M1289.8 784.7c-2.7-37.2 3.5-70 1.5-101.9-2-31.5-45-31.7-64-88.6-9.1-27.7-18.6-43.6-21-72.5-.4-5.3-7.7-23-11.5-26.2l-1.5-2.7c0-144.2 20.6-71.8 55-98.6 8.4.9 53.6 2.6 63.1-5.3 33.7 14.6 69.8 8.7 88.4 21.9 11.8 8.4 15.3 47 14.2 69.4-2.4 43-10 95.9-20.2 133.6-16.2 60.5-46.7 118.5-91.1 156.6-1.9 1.9-11.6 13.9-12.9 14.3"/></defs><clipPath id="SVGID_12_"><use xlink:href="#SVGID_11_" overflow="visible"/></clipPath><path d="M1311.3 692.8c-.2.2-.5.2-.7-.2-.2-.2-.2-.5.2-.7.9-.7 2.7-2 5.1-3.5 7.5-4.9 19.7-13.3 22.2-17.1l.2-.2 1.1-.4c.2-.2.5 0 .7.2.2.2 0 .5-.2.7l-.9.4c-2.9 4.2-15.1 12.4-22.4 17.3-2.5 1.5-4.3 2.8-5.3 3.5m1.5 5.7c-.2.2-.5.2-.7-.2-.2-.2-.2-.5.2-.7.2-.2.7-.5 1.5-1.1 4.7-3.3 18.6-12.9 26.8-19.3.2-.2.5-.2.7 0 .2.2.2.5 0 .7-8.2 6.6-22.2 16.2-26.8 19.5-1.2.7-1.7 1.1-1.7 1.1zm-5.7 8.4c-.2.2-.5 0-.7-.2-.2-.2 0-.5.2-.7 18-10.2 19.1-11.3 28.1-18.8 1.8-1.5 3.8-3.3 6.4-5.3.2-.2.5-.2.7 0 .2.2.2.5 0 .7-2.6 2.2-4.6 3.8-6.4 5.3-8.9 7.7-10 8.6-28.3 19zm-1.2 8c-.2.2-.5.2-.7-.2-.2-.2-.2-.5.2-.7 1.1-.7 2.9-2 4.9-3.5 9.1-6.2 22.6-15.7 31.7-22.8.2-.2.5-.2.7 0 .2.2.2.5 0 .7-9.1 7.3-22.8 16.6-31.9 22.8-1.6 1.5-3.3 2.6-4.9 3.7zm8.9.4c-.2.2-.5.2-.7-.2-.2-.2-.2-.5.2-.7l7.1-4.7 21.1-18.4c.2-.2.5-.2.7 0 .2.2.2.5 0 .7l-21.1 18.4-7.3 4.9zm-8.9 10c-.2.2-.5 0-.7-.2-.2-.2 0-.5.2-.7 6.7-4.2 13.1-8.4 19.5-12.6s12.6-8.4 18.8-12.9c.2-.2.5-.2.7.2.2.2.2.5-.2.7-6.4 4.4-12.6 8.7-18.8 12.9-6.4 4.2-12.8 8.2-19.5 12.6zm37.9-22.6c0-.4.2-.5.5-.5.4 0 .5.2.5.5 0 1.1.2 2 .2 3.1l.2.2c.2.2.2.5 0 .7 0 1.5.2 3.1.2 4.6v.4c.2 3.5.2 6.7.2 9.5l.4-.4c.2-.2.5-.2.7 0 .2.2.2.5 0 .7.2.2.4.4.2.7-.4.7-.9 1.5-1.3 2-.2 2.7-.4 4.7-.9 5.3-.2.2-.5.2-.7 0s-.2-.5 0-.7c.2-.4.5-1.3.5-2.9-9.7 14-25.3 25-39.4 34.6-2.4 1.6-4.7 3.3-7.1 4.9-.2.2-.5.2-.7-.2-.2-.2-.2-.5.2-.7 2.2-1.6 4.7-3.3 7.1-5.1 14.4-10 30.8-21.3 40.1-35.9v-.2c-10.8 11.3-31 23.7-41.9 30.6-1.6 1.1-3.1 2-4.4 2.7-.2.2-.5 0-.7-.2-.2-.2 0-.5.2-.7 1.1-.7 2.6-1.6 4.4-2.7 11.3-6.9 32.1-19.9 42.5-31.4v-.7c0-2.2 0-4.7-.2-7.5-1.6 2.7-5.5 6.6-10 10.9-12.9 11.8-32.6 26.8-32.8 26.8-.2.2-.5.2-.7-.2-.2-.2-.2-.5.2-.7 0 0 19.7-14.9 32.6-26.8 6-5.5 10.6-10.4 10.8-12.4 0-1.5-.2-2.9-.2-4.2-4.2 3.1-9.1 6.7-13.9 10-8.7 6.2-17.1 11.8-19.5 13.5-.2.2-.5.2-.7-.2-.2-.2-.2-.5.2-.7 2.4-1.6 10.8-7.1 19.5-13.3 4.9-3.5 10-7.1 14.2-10.4-.3-.8-.5-1.9-.5-3zm-68.4-113.9c-.2-.2-.4-.4-.2-.7.2-.2.4-.4.7-.2 5.1 2.7 9.8 5.5 14.2 8.2 4.4 2.7 8.4 5.7 12 8.6l3.3 2.7c1.1.9 2.2 1.8 3.1 2.7 1.1 1.1 2.4 2.2 3.3 3.3 1.1 1.1 2.2 2.2 3.1 3.5 5.5 6.2 10 12.8 13.9 20.2 3.8 7.3 6.7 15.3 9.3 24.2 0 .4 0 .5-.4.5s-.5 0-.5-.4c-2.6-8.7-5.5-16.8-9.3-24.1-2.6-4.9-5.5-9.7-8.7-14l-10.4 6-13.1 18.4c-.2.2-.5.4-.7.2-.2-.2-.4-.5-.2-.7l13.1-18.4.2-.2 10.4-6c-1.3-1.6-2.6-3.1-3.8-4.7l-19 16.4c-.2.2-.5.2-.7 0-.2-.2-.2-.5 0-.7l19-16.4c-.9-1.1-1.8-2-2.7-2.9-.9-1.1-2-2-3.1-2.9l-15.1 12.8c-.2.2-.5.2-.7 0-.2-.2-.2-.5 0-.7l15.1-12.8c-.9-.7-1.8-1.6-2.7-2.4-.9-.9-2-1.6-2.9-2.6l-15.5 14.2c-.2.2-.5.2-.7 0-.2-.2-.2-.5 0-.7L1301 605c-3.5-2.7-7.3-5.5-11.5-8.2-4.2-2.6-9-5.3-14.1-8z" clip-path="url(#SVGID_12_)" fill="#bbbcbf"/><path class="st13" d="M1133.6 468.3c-62.2 10-32.8 15.1-41.6 56.1-5.5 25.9-32.4 20.1-16.6 56 2.7 6.4 18.6 23.5 24.1 25.3 29.2 10 64.2-15.3 68.7-44.1 11.3-71.6 44.1-49.6 49.2-65.3 3.8-11.8-39-43-52.3-43.2-14.3 0-25.1 14.1-31.5 15.2z"/><path class="st29" d="M1133.6 468.3c-62.2 10-32.8 15.1-41.6 56.1-5.5 25.9-32.4 20.1-16.6 56 2.7 6.4 18.6 23.5 24.1 25.3 29.2 10 64.2-15.3 68.7-44.1 11.3-71.6 44.1-49.6 49.2-65.3 3.8-11.8-39-43-52.3-43.2-14.3 0-25.1 14.1-31.5 15.2z"/><path class="st13" d="M1165 453.3c17.1 15.9 45 18.8 19.7 53.4-24.1 33 38.8 31.5-3.3 80-20.8 23.7 6.2 41.4-20.6 71.1-2 2.2-20.4 56.5-32.4 74.6-14.9 22.6 6.6 38.8-2.4 66.7-1.1 3.6-1.5 27.9-6.6 26.4-23.7-6.9 155.3-19 176.8-47.8 43.6-58 16.4-134 1.3-162.2-12.9-24.1-64.7-107.4-80.4-134.2-1.5-2.8-46.8-23.2-52.1-28z"/><path class="st29" d="M1165 453.3c17.1 15.9 45 18.8 19.7 53.4-24.1 33 38.8 31.5-3.3 80-20.8 23.7 6.2 41.4-20.6 71.1-2 2.2-20.4 56.5-32.4 74.6-14.9 22.6 6.6 38.8-2.4 66.7-1.1 3.6-1.5 27.9-6.6 26.4-23.7-6.9 155.3-19 176.8-47.8 43.6-58 16.4-134 1.3-162.2-12.9-24.1-64.7-107.4-80.4-134.2-1.5-2.8-46.8-23.2-52.1-28z"/><path d="M1185.9 763.2c30.3 23.3 22.2 11.7 35.5 20.4-3.3 6.9-27 5.7-34.8-17.1-1.4-4.2-2.3-4.6-.7-3.3m11.7-45.4l2.7 6.2c21.1 46.3 95.9 46.3 49.9 47.2-24.1.5-47.2-9.8-49.8-34.6-.8-7.7-2.8-8.2-2.8-18.8zm-45.2 86c20.6-35.2 29.2-94.8 33.4-135.3.2-1.6 2-9.5 2.7-10.4-18.6 37-47.6 91.9-37.7 134.3 1 4.3.7 7.4 1.6 11.4z" fill-rule="evenodd" clip-rule="evenodd" fill="#11110f"/><path class="st5" d="M1168.6 483.4c-2.9-6.6-42.3-24.2-55.2 7.5-19.3 47.4-20.6 261.9-47 295.8-3.3 4.2 28.8.2 34.3-8.4 12.8-20.2 41.7-162 53.2-198.3 8.6-27.5 8.9-53.2 18.6-78.2 1.1-2.7 3.8-17.7-3.5-17l-.4-1.4z"/><path class="st29" d="M1168.6 483.4c-2.9-6.6-42.3-24.2-55.2 7.5-19.3 47.4-20.6 261.9-47 295.8-3.3 4.2 28.8.2 34.3-8.4 12.8-20.2 41.7-162 53.2-198.3 8.6-27.5 8.9-53.2 18.6-78.2 1.1-2.7 3.8-17.7-3.5-17l-.4-1.4z"/><path d="M1071.3 780c14.2 7.3 42.5 4.7 54.9-6.9 1.1-1.1 2.2-.7 1.8-1.8 4.4 31-7.5 40.5-7.7 40.3-20.1 8.2-74.9 5.3-100.3-15.3 12.3-14 45.8-18.5 51.3-16.3" fill-rule="evenodd" clip-rule="evenodd" fill="#484645"/><path class="st5" d="M1191.6 484.1c-6.9-20.4-26.8-7.1-34.8 13.5-12.8 33-29.3 94.1-43.2 168.6-5.5 28.8-17.7 100.3-40.6 122.5-.2.2 43 9.5 57.2-22.1 13.3-29.9 70.4-171.7 69.6-203.8-.5-25.3 6.6-37.7 0-55.2-5.8-14.7-4.6-12.7-8.2-23.5z"/><path class="st29" d="M1191.6 484.1c-6.9-20.4-26.8-7.1-34.8 13.5-12.8 33-29.3 94.1-43.2 168.6-5.5 28.8-17.7 100.3-40.6 122.5-.2.2 43 9.5 57.2-22.1 13.3-29.9 70.4-171.7 69.6-203.8-.5-25.3 6.6-37.7 0-55.2-5.8-14.7-4.6-12.7-8.2-23.5z"/><path class="st21" d="M1247.7 333c-.4 0-52.3-6.4-48.7 5.8.4 17-.4 33.4-.4 50.3 25.3 3.5 27.9 2.9 49.4.4-1.1-18.8-1.5-28.4-.4-47.4.5-3.6.3-5.8.1-9.1"/><defs><path id="SVGID_13_" d="M1247.7 333c-.4 0-52.3-6.4-48.7 5.8.4 17-.4 33.4-.4 50.3 25.3 3.5 27.9 2.9 49.4.4-1.1-18.8-1.5-28.4-.4-47.4.5-3.6.3-5.8.1-9.1"/></defs><clipPath id="SVGID_14_"><use xlink:href="#SVGID_13_" overflow="visible"/></clipPath><path d="M1215.1 362v5.7c.2 9.1.4 21-2.6 28.6l-.9-.4c2.9-7.5 2.6-19.1 2.4-28.3v-5.7h1.1zm4.6.7c.4 4.4 1.1 18.6.7 27.2-.2 2-.4 3.8-.5 4.9-.4 1.5-.9 2.2-1.6 2-.2 0-.4-.2-.5-.4l.7-.7s.2 0 .2.2c.2 0 .2-.5.5-1.3.2-1.1.4-2.7.5-4.7.4-8.4-.4-22.6-.7-27l.7-.2zm5.1-2.2v7.1c0 9.7 0 25.9.7 27.9l-.9.4c-.7-2.2-.7-18.6-.7-28.3v-6.9l.9-.2zm10.9-6.3l-.7 48.8h-1.1l.7-48.9h1.1zm-30.6-21.4c0 .5 0 1.6.2 3.3.5 11.3 2.2 45 0 60 .2.4.4.5.5.9 3.3-12.9 3.1-25.3 2.7-38.1 0-4-.2-8.2-.2-12.4h1.1c0 4.2 0 8.4.2 12.4.2 13.3.5 26.1-3.1 39.6v.2c0 .2 0 .4.2.4 0 .4 0 .5-.2.7-.4.4-.7.4-.9-.4v-.7c-.2-.2-.2-.5-.5-.9-.2 1.5-.5 2.6-.9 3.5.2 0 .4.2.5.4l-.5.9c-.5-.4-.9-.5-1.1-.5l-10.2-4.9 10.4 3.8c3.6-10.2 1.6-51.8.9-64.3 0-1.6-.2-2.7-.2-3.5l1.1-.4z" clip-path="url(#SVGID_14_)" fill="#191a1b"/><path class="st5" d="M1206 253.4c-14.9 22.1-9.7 33.4-13.5 55.4-1.6 9.5 6.6 59.4 17.7 65.8 13.7 7.8 56.5-7.5 68.9-15.7 14.4-9.5 30.8-74 11.5-96.1-20.2-23-53.8-23.9-80.2-12-1.1.4-3.9 1.7-4.4 2.6z"/><path class="st11" d="M1206 253.4c-14.9 22.1-9.7 33.4-13.5 55.4-1.6 9.5 6.6 59.4 17.7 65.8 13.7 7.8 56.5-7.5 68.9-15.7 14.4-9.5 30.8-74 11.5-96.1-20.2-23-53.8-23.9-80.2-12-1.1.4-3.9 1.7-4.4 2.6z"/><path class="st21" d="M1232.6 342.7c-8.2-2.4-19.5-4.6-27.5-1.1-1.1.5 0 .4-1.8.5 6.3-13.1 19.8-4.5 29.3.6M1221.3 344.7c.4 1.3-14.2 1.5-14.9.4 3.6 2.6 10.6 2.9 14.6 0l.3-.4z"/><path class="st27" d="M1244.8 381.3c1.1 10.8 4.2 26.4 12.9 33.4 12.6 10 59.8-4 56.5-24.6-1.3-8.4-2.7-13.5-8.9-33.2-2-6.6-14.6-3.3-27.7 2.2-8.2 3.5-16.8 7.7-23 10.6-8.5 4.2-10.9 1.4-9.8 11.6"/><defs><path id="SVGID_15_" d="M1244.8 381.3c1.1 10.8 4.2 26.4 12.9 33.4 12.6 10 59.8-4 56.5-24.6-1.3-8.4-2.7-13.5-8.9-33.2-2-6.6-14.6-3.3-27.7 2.2-8.2 3.5-16.8 7.7-23 10.6-8.5 4.2-10.9 1.4-9.8 11.6"/></defs><clipPath id="SVGID_16_"><use xlink:href="#SVGID_15_" overflow="visible"/></clipPath><path d="M1290 354.5c1.3 2 8.2 17.9 13.3 31.4 3.5 8.9 6 17 5.8 19l-1.1-.2c.2-1.8-2.4-9.7-5.8-18.6-5.1-13.3-11.8-29.2-13.1-31l.9-.6zm-6 2c4.4 8.4 8.2 16.8 11.7 25.2 3.5 8.4 6.6 16.8 9.7 25.7l-.9.4c-3.1-8.9-6.2-17.3-9.7-25.7-3.5-8.4-7.3-16.6-11.5-25l.7-.6zm-4.6 2c4.6 8.2 8.7 16.4 12.6 25 3.8 8.4 7.3 17.1 10.4 25.9l-.9.4c-3.1-8.7-6.6-17.3-10.4-25.7-3.8-8.4-8-16.8-12.6-25l.9-.6zm-4.7 1.7c3.3 4.2 9.8 16.2 15.3 27.7 4.4 9.5 8 18.6 8.2 23h-1.1c-.4-4.4-3.8-13.3-8.2-22.6-5.3-11.5-11.8-23.5-15.1-27.5l.9-.6zm-2.7 1.3c3.5 5.8 8.9 16.6 13.5 27.2 4 9.1 7.3 18.2 8.6 23.9l-1.1.2c-1.3-5.7-4.6-14.6-8.6-23.7-4.6-10.6-9.8-21.3-13.5-27l1.1-.6zm-5.1 2.1c3.1 5.7 8.6 17.3 13.3 28.6 3.6 8.7 6.7 17.1 8 21.9l-1.1.2c-1.1-4.7-4.2-13.1-7.8-21.7-4.7-11.1-10.2-23-13.1-28.4l.7-.6zm-2.2 1.5c.5 10 7.1 23 12.6 33.7 3.5 6.7 6.4 12.6 7.3 16.6l-1.1.2c-.9-3.8-3.8-9.7-7.1-16.2-5.5-10.9-12-23.9-12.6-34.1l.9-.2zm-3.3 1.5c1.5 6.7 4.9 16.8 8.6 26.1 4.4 11.3 8.9 21.3 10.6 23.3l-.7.7c-1.6-2-6.4-12.2-10.8-23.5-3.6-9.3-7.1-19.3-8.6-26.2l.9-.4zm-2.9 1.8c1.1 5.8 4.7 18 8.9 29 3.3 8.4 6.7 16 9.7 19.3l-.7.7c-2.9-3.3-6.6-11.1-9.8-19.7-4.2-10.9-7.8-23.3-8.9-29.2l.8-.1zm-8.6 2.9c0 8 2.4 17.3 5.1 25.5 3.8 10.8 8.4 19.1 10.6 19.7l-.2 1.1c-2.4-.5-7.5-9.3-11.3-20.4-2.9-8.2-5.3-17.9-5.3-25.9h1.1zm5.3-1.6c.2 9.8 1.6 17.7 4.2 25s6.2 14.4 10.8 22.8c.7 1.1.7 1.8.5 2 0 .4 0 .4-.4.2s-.7-.7-1.3-1.6v-.4c-.4-.5-1.1-1.6-1.3-2.4-3.8-7.3-7.1-13.5-9.3-20.2-2.6-7.5-4-15.3-4.2-25.3h1zm40.1-16.3c.2.5.7 1.6 1.6 3.3 4.7 9.7 17.7 35.7 15.1 45l-.9-.2c2.4-8.9-10.4-34.8-15.1-44.3-.9-1.6-1.5-2.9-1.6-3.5l.9-.3z" clip-path="url(#SVGID_16_)" fill="#bbbcbf"/><path class="st5" d="M1128.5 651.6c-15.1-21-6.7-18.6-7.8-28.4-10 8.6-13.7 15.3-14 26.6-.4 12.2 11.1 24.4 20.2 31.4 3.5 2.6 10 7.7 13.9 3.3 11.3-12.8 9.3-14.2 2.2-27.5-4.4-8.4-8.2-11.8-13.3-19.1 0 0-2.9-5.3-2.9-5.5-6.1 8.1.8 14.7 1.7 19.2z"/><path class="st29" d="M1128.5 651.6c-15.1-21-6.7-18.6-7.8-28.4-10 8.6-13.7 15.3-14 26.6-.4 12.2 11.1 24.4 20.2 31.4 3.5 2.6 10 7.7 13.9 3.3 11.3-12.8 9.3-14.2 2.2-27.5-4.4-8.4-8.2-11.8-13.3-19.1 0 0-2.9-5.3-2.9-5.5-6.1 8.1.8 14.7 1.7 19.2z"/><path class="st8" d="M1351.4 305.1c-12.9-12.4-9.5-4.2-13.1-7.1 5.3-1.6 7.7 5.1 21-6.7-9.5-6.2-19-7.3-28.4-.2-3.1-.5-5.5.9-5.5 6 0 2.2.5 3.3.9 5.7 8.9 3.2 16 6.7 25.1 2.3"/><defs><path id="SVGID_17_" d="M1351.4 305.1c-12.9-12.4-9.5-4.2-13.1-7.1 5.3-1.6 7.7 5.1 21-6.7-9.5-6.2-19-7.3-28.4-.2-3.1-.5-5.5.9-5.5 6 0 2.2.5 3.3.9 5.7 8.9 3.2 16 6.7 25.1 2.3"/></defs><clipPath id="SVGID_18_"><use xlink:href="#SVGID_17_" overflow="visible"/></clipPath><path d="M1358.6 294.4c4.7-3.5 6.4-7.7 6.4-7.7s-4.6 1.3-8.7 5.8c2.2-7.5.2-13.3.2-13.3s-3.3 5.1-3.1 12.9c-4.2-8.7-10.9-12.4-10.9-12.4s1.5 7.5 8.6 14c-7.3-2.6-13.1-.9-13.1-.9s5.1 3.6 12.9 3.8c-5.8 2.6-8.6 6.9-8.6 6.9s5.1-.5 10.2-4.7c-1.1 2-1.3 3.5-1.3 3.5s2.6-1.6 3.8-5.3c.2.2.2.4.4.4.5.7 1.3 1.3 1.8 2 .4.5.7 1.3 1.1 2 .2.5.4 1.3.2 1.8s.5.9.7.4c.2-.7.2-1.5 0-2.2-.2-.7-.5-1.6-1.1-2.4-.7-1.1-1.8-2-2.7-3.1 4.2 0 6.7-2.2 6.7-2.2s-1.4.1-3.5.7" clip-path="url(#SVGID_18_)" fill="#404041"/><path class="st21" d="M1220 324.8c-5.8-7.3-9.5-1.5-2.6 1.6 1.2.4 3.5-.5 2.6-1.6"/><path class="st17" d="M1210.5 294c.2-.7.9-1.1 1.6-.9.7.2 1.1.9.9 1.6-.4 1.5-1.6 4.4-2.9 7.8-3.1 7.8-7.3 18.4-6.2 20.4.4.7 1.1 1.3 2 1.8 1.5.9 4.4 2.6 4.4 2.6s-4.7.4-5.8-.4c-1.3-.7-2.2-1.6-2.9-2.9-1.6-3.1 2.9-14.4 6.2-22.6 1.1-3.2 2.4-5.9 2.7-7.4m14.6 33.4c-.5.4-1.5.4-1.8-.2-.4-.5-.4-1.5.2-1.8 4.6-3.5.7-8.4.7-8.4 1.5-.4 6.9 5.8.9 10.4z"/><path class="st21" d="M1219.1 300.4v2.6c.5 8.9 7.7 15.9 15.9 15.3s14.4-8.2 13.9-17.1c0-.5 0-.9-.2-1.5 1.5 0 2.6-.2 3.1-.2 19.5-1.8 44.1 7.5 51.6 6.9 12.8-.7-29.7-11.1-55.6-10.8-2.4-6.2-8.2-10.2-14.8-9.8-5.8.4-10.8 4.4-12.8 9.8-2-1.5-9.1-1.6-10.8.4-2.6-5.7-8.2-9.5-14.4-9.1-8.2.5-14.4 8.2-13.9 17.1.5 8.9 7.7 15.9 15.9 15.3 2.2-.2 4.4-1.1 6.2-2.6 1.1-.9 1.8-4.9 3.3-8.7 1.5-3.8 3.5-7.3 3.3-8.4 3.3-2.5 7.1.1 9.3.8"/><path class="st21" d="M1194.5 287.1c-5.1-9.1 16.4-9.7 10.4-2.9-1.3 1.4-9.1 1.2-10.4 2.9m63.3-2.7c-14.8-14.9-49.2-3.6-22.1-1.6 12.8.9 11.8 1.5 22.6 3.5 2 .2-.5-1.8-.5-1.9z"/><path class="st21" d="M1345.1 376.8c-.9-17.9-12.9-88.8-25.3-102.8-28.4-32.4-54.9-51.8-99.9-34.8-14.9 5.7-14.6 13.1-20.8 17.9l1.1 1.3c-.5 1.3-10 21.3-8 20.6 2.7-.9 10.6-2.4 11.1.9 4.7-17 5.1-13.7 3.1-1.6-.2.9 6.4 1.6 6.9 1.6 7.5-19.1 1.3-11.7 21.7-13.9 5.5-.5-2 9.8 2.6 8.4 5.1-1.5 4.6 4.6 5.1-5.7.2.4 7.3 17.5 8.2 12.2 2.9-18.2 0 1.3 4.9-2.6 4.2 4.6-7.3 9.8 11.7 8.7 4.2-13.7 2.7-7.1 5.5 4.2 5.5 23.7-11.3 71.1-9.1 94.2.2 1.3.4 1.3-.7 1.3 7.8 4.2 62.9-8 67.4-6.9l.9-.4c2.7-21.3 1.1-9.7 4.9-.2.2.5.2.2.4.7 1.7-.8 5.9-1.5 8.3-3.1"/><defs><path id="SVGID_19_" d="M1345.1 376.8c-.9-17.9-12.9-88.8-25.3-102.8-28.4-32.4-54.9-51.8-99.9-34.8-14.9 5.7-14.6 13.1-20.8 17.9l1.1 1.3c-.5 1.3-10 21.3-8 20.6 2.7-.9 10.6-2.4 11.1.9 4.7-17 5.1-13.7 3.1-1.6-.2.9 6.4 1.6 6.9 1.6 7.5-19.1 1.3-11.7 21.7-13.9 5.5-.5-2 9.8 2.6 8.4 5.1-1.5 4.6 4.6 5.1-5.7.2.4 7.3 17.5 8.2 12.2 2.9-18.2 0 1.3 4.9-2.6 4.2 4.6-7.3 9.8 11.7 8.7 4.2-13.7 2.7-7.1 5.5 4.2 5.5 23.7-11.3 71.1-9.1 94.2.2 1.3.4 1.3-.7 1.3 7.8 4.2 62.9-8 67.4-6.9l.9-.4c2.7-21.3 1.1-9.7 4.9-.2.2.5.2.2.4.7 1.7-.8 5.9-1.5 8.3-3.1"/></defs><clipPath id="SVGID_20_"><use xlink:href="#SVGID_19_" overflow="visible"/></clipPath><path d="M1327.4 326.3c2 7.5 13.1 49 8.7 53.8l-.7-.7c3.5-3.5-6.7-47.5-8-53.1m-19.3-38.5c4.4 25 3.3 36.1 1.8 49.4-1.6 15.3-2.7 29 .5 44.1.5 2.4 1.1 4.6 1.8 6 .5 1.5 1.1 2.2 1.6 2.2l.2 1.1h-.4c-1.1 0-2-1.1-2.7-2.9-.7-1.6-1.3-3.8-1.8-6.2-3.5-15.3-2.2-29-.5-44.5 1.5-13.1 2.6-24.2-1.8-49.2h1.3zm-9-3.1v.4c0 5.8-3.3 61.2-4.9 66.7 0-21.5 3.6-43.7 3.8-66.7v-.4h1.1zm-6.4-7.5c3.5 29.2 1.6 39.4-.4 50.9-1.3 7.5-2.7 15.5-2.7 29.9 0 8.7.9 12.6 2 17.7.5 2.4 2 9.1 2.6 12.8v.2l-.2.2-.7 1.1-.9-.5.5-.9c-.5-3.3-2-10-2.6-12.4-1.1-5.1-2-9.1-2-17.9 0-14.4 1.5-22.4 2.7-30.1 2-11.3 3.6-21.5.4-50.5l1.3-.5zm-5.4-5.4c1.1 13.1 1.8 21.7 2 29.7 0 8-.7 15.7-2.2 26.8-1.3 8.9-1.6 18-1.6 27.2-.9-2.4.2-23.9.7-27.3 1.6-10.9 2.4-18.6 2.2-26.6 0-8-.7-16.6-2-29.7h.9zm3.6 119v1.1c-3.6-.2-5.7-25.3-6-30.4s4 29.1 6 29.3zM1276 263.2c.7 5.3 1.5 10.2 2 14.6 4.4 30.3 6.2 43.7-2 80.6-.7 2.9-1.5 17.1-1.5 17.1-1.1-1.8 0-14.9.5-17.3 8.2-36.6 6.2-50.1 2-80.2-.5-4.4-1.3-9.3-2-14.6l1-.2zm32.8 13.7c.4 2.4 1.8 13.3 3.3 21.9 4.4 25.5-1.5 63.4 5.3 82.6.5 1.3.9 2.6 1.3 3.8l-.9.4c-.4-1.3-.7-2.6-1.3-3.8-6.7-19.3-.9-57.4-5.3-82.8-1.5-8.4-3.1-19.5-3.3-21.9l.9-.2zm6.6 13.3c-.4 20.6 4.2 73.6 9.3 93.1l-.9.2c-5.1-19.7-9.7-72.7-9.3-93.5l.9.2zm11.3 12.4c6.2 25.7 13.5 48.9 14.4 76h-1.1c-.9-27-8.2-50.3-14.4-75.8l1.1-.2z" clip-path="url(#SVGID_20_)" fill="#191a1b"/><path class="st27" d="M1333.6 310.6c2.6-41.2 2-66-44.7-81.5-25.2-8.4-35-8.2-61.1-2-16 3.8-31 28.4-28.3 30.4 57.1-4.7 68.4 9.5 111.7 39 4 2.8 24.4 14.1 22.4 14.1"/><defs><path id="SVGID_21_" d="M1333.6 310.6c2.6-41.2 2-66-44.7-81.5-25.2-8.4-35-8.2-61.1-2-16 3.8-31 28.4-28.3 30.4 57.1-4.7 68.4 9.5 111.7 39 4 2.8 24.4 14.1 22.4 14.1"/></defs><clipPath id="SVGID_22_"><use xlink:href="#SVGID_21_" overflow="visible"/></clipPath><path d="M1231 251c6.6 2.7 11.8 1.8 11.8 1.8s-4.2-3.8-11.5-5.3c8.9-2.6 13.7-8 13.7-8s-7.3-.2-15.1 4.9c6.4-9.7 5.8-18.8 5.8-18.8s-6.7 6.2-9.1 17.5c-2-8.9-7.3-14-7.3-14s-.5 7.5 4.2 15.5c-6.4-4.4-12.4-4.6-12.4-4.6s3.6 4.9 11.3 7.5c-2.6.2-4.4.9-4.4.9s3.3 1.6 7.8.7c0 .2-.2.4-.2.7-.4 1.1-.5 2.2-.9 3.3-.4.9-.9 1.6-1.5 2.4-.5.5-1.1 1.3-1.8 1.5s-.5 1.1.2 1.1c.9-.2 1.6-.7 2.2-1.5.7-.7 1.3-1.6 1.6-2.6.7-1.5.9-3.1 1.5-4.7 2.6 4.2 6.4 5.7 6.4 5.7s-.5-2.2-2.3-4m52.6-20.1c-6.9 1.5-10.9 4.9-10.9 4.9s5.7.9 12.4-1.8c-6.2 7.1-6.9 14.2-6.9 14.2s6.2-4 9.8-12.4c0 11.5 5.5 19 5.5 19s2.4-8.9-2.2-19.5c6.6 6.4 13.9 7.7 13.9 7.7s-3.6-6.6-12-10.6c7.7.2 12.8-3.1 12.8-3.1s-5.8-2-13.5 0c2-1.6 3.1-3.1 3.1-3.1s-3.6.5-6.9 3.6c0-.2-.2-.4-.2-.7-.4-1.1-.7-2.2-.9-3.3-.2-.9-.2-1.8 0-2.7 0-.7.2-1.6.7-2.2.5-.5-.2-1.3-.7-.7-.7.7-.9 1.6-1.1 2.4-.2.9-.2 2 0 3.1.2 1.6.9 3.1 1.3 4.7-4.6-2.2-8.4-1.1-8.4-1.1s1.7 1.1 4.2 1.6zm-26.8 22.5c-9.1 1.8-14.6 6.6-14.6 6.6s7.5 1.3 16.6-2.6c-8.2 9.5-9.3 19.1-9.3 19.1s8.4-5.3 13.3-16.6c0 15.5 7.5 25.3 7.5 25.3s3.1-11.8-2.9-26.1c8.9 8.6 18.4 10.2 18.4 10.2s-4.7-8.7-16.2-14.2c10.2.2 17.1-4 17.1-4s-7.8-2.7-18 0c2.7-2 4-4.2 4-4.2s-4.7.7-9.1 4.9c0-.4-.2-.5-.2-.9-.4-1.5-1.1-2.7-1.3-4.4-.2-1.3-.2-2.6 0-3.6.2-.9.4-2.2 1.1-2.9.7-.5-.4-1.6-.9-1.1-.9.9-1.3 2-1.5 3.3-.2 1.3-.2 2.7 0 4 .2 2.2 1.3 4.2 1.8 6.4v-.2c-6-2.9-11.3-1.5-11.3-1.5s2.1 1.6 5.5 2.5zm71.9 17.6c-2.4-9.3-7.7-14.4-7.7-14.4s-.7 7.8 3.6 16.8c-10-7.8-20.1-8.2-20.1-8.2s5.8 8.2 17.9 12.4c-15.7.9-25.3 9.1-25.3 9.1s12.2 2.4 26.4-4.6c-8.2 9.7-9.3 19.5-9.3 19.5s8.6-5.5 13.5-17.3c.5 10.6 5.3 17.1 5.3 17.1s2.4-8.2-1.1-18.4c2.4 2.7 4.6 3.8 4.6 3.8s-.9-4.9-5.7-9.1c.4-.2.5-.2.9-.4 1.5-.5 2.7-1.3 4.4-1.6 1.3-.4 2.6-.4 3.8-.4.9 0 2.2.2 3.1.9.7.5 1.6-.4 1.1-1.1-.9-.9-2.2-1.1-3.5-1.3-1.5-.2-2.7 0-4.2.2-2.2.4-4.2 1.6-6.4 2.2h.2c2.6-6.4.7-11.7.7-11.7s-1.7 2.9-2.2 6.5z" clip-path="url(#SVGID_22_)" fill="#d0d2d3"/><defs><path id="SVGID_23_" d="M1333.6 310.6c2.6-41.2 2-66-44.7-81.5-25.2-8.4-35-8.2-61.1-2-16 3.8-31 28.4-28.3 30.4 57.1-4.7 68.4 9.5 111.7 39 4 2.8 24.4 14.1 22.4 14.1"/></defs><clipPath id="SVGID_24_"><use xlink:href="#SVGID_23_" overflow="visible"/></clipPath><path d="M1333.9 293.8c-19.9-5.3-20.1-13.1-35.4-23.9-7.8-5.5-14.6-9.7-23.1-14 9.8 3.8 15.7 7.3 24.1 12.9 15.1 10 16.2 18.2 34.8 23 .7.2 1.3.7 1.1 1.3-.2.6-.7.9-1.5.7" clip-path="url(#SVGID_24_)" fill-rule="evenodd" clip-rule="evenodd" fill="#6d6e70"/><defs><path id="SVGID_25_" d="M1333.6 310.6c2.6-41.2 2-66-44.7-81.5-25.2-8.4-35-8.2-61.1-2-16 3.8-31 28.4-28.3 30.4 57.1-4.7 68.4 9.5 111.7 39 4 2.8 24.4 14.1 22.4 14.1"/></defs><clipPath id="SVGID_26_"><use xlink:href="#SVGID_25_" overflow="visible"/></clipPath><path d="M1333.9 283.4c-24.1-7.7-19.7-11.7-34.5-26.1 17 12.2 9.3 16.6 35 24.1.7.2 1.1.7.9 1.3s-.6.9-1.4.7" clip-path="url(#SVGID_26_)" fill-rule="evenodd" clip-rule="evenodd" fill="#6d6e70"/><path class="st27" d="M1346.5 540.8l56.7-17.9c-6.9 41.2-16.8 73.1-31.2 98.8-35.4 63.4-84.9 86.6-154.6 84.2-35.9-1.3-72.4-7.7-86.4-17.7 2-7.3 9.5-25.9 11.7-35.5 41.9 19.5 129.6 30.1 165.5-18.8 15.7-20.9 29.2-41.5 38.3-93.1"/><defs><path id="SVGID_27_" d="M1346.5 540.8l56.7-17.9c-6.9 41.2-16.8 73.1-31.2 98.8-35.4 63.4-84.9 86.6-154.6 84.2-35.9-1.3-72.4-7.7-86.4-17.7 2-7.3 9.5-25.9 11.7-35.5 41.9 19.5 129.6 30.1 165.5-18.8 15.7-20.9 29.2-41.5 38.3-93.1"/></defs><clipPath id="SVGID_28_"><use xlink:href="#SVGID_27_" overflow="visible"/></clipPath><path d="M1186.5 665.9c0 5.3 0 9.1-.2 12.2l.2.7h-.2c-.2 1.8-.2 3.3-.5 4.7h.2l-.2 1.1h-.2c-.4 1.8-.7 3.5-1.3 5.5h.2l-.2 1.1h-.4c-.4.9-.5 1.8-.9 2.9h.2v1.1h-.4l-.4 1.1-.2 1.1h-.4c-.4 1.3-.9 2.7-1.3 4l-.2 1.6-1.1-.2.2-1.6c.5-1.6.9-2.7 1.3-3.8-1.5-.2-2.7-.4-4.2-.4-18.6-1.8-35.9-3.6-53.6-12.8l.5-.9c17.5 8.9 34.6 10.8 53.2 12.6 1.5.2 2.9.4 4.4.4l.4-1.1c-18.6-1.3-23.5-2.9-34.3-6.4-4.7-1.5-10.6-3.5-19.1-5.8l.4-.9c8.6 2.4 14.4 4.4 19.1 5.8 10.8 3.5 15.7 5.1 34.5 6.4.4-1.1.7-2 .9-2.9-6.6-1.1-16.6-3.3-26.4-5.7-12.4-2.9-24.2-5.7-27.5-5.3l-.2-1.1c3.3-.4 15.3 2.4 27.9 5.3 9.8 2.2 20.1 4.6 26.4 5.7.5-2 1.1-3.6 1.3-5.5-9.7-.9-17.7-1.8-25.5-2.9-8.4-1.3-16.6-2.9-26.8-5.5l.2-.9c10 2.6 18.4 4.2 26.8 5.5 8 1.3 16 2 25.7 2.9.2-1.5.4-2.9.5-4.6-9.8 1.3-18 1.1-25.9-.4-8.2-1.5-16-4.2-25.7-8 0 0-.4-.2-.7-.2-.7-.2-1.6-.4-1.8-.4l.2-1.1s1.1.2 1.8.5c.4.2.7.2.9.2 9.5 3.8 17.3 6.6 25.3 8 7.8 1.5 15.9 1.6 25.7.4 0-1.1 0-2.4.2-3.6-10.4 0-17.5-.4-25-2-7.7-1.5-15.7-4.2-27.7-8.9l.4-.9c12 4.7 19.9 7.3 27.5 8.9 7.5 1.5 14.6 1.8 24.8 1.8v-2.4c-8-.7-20.1-2.7-31.2-5.3-9.7-2.2-18.6-4.9-23.9-7.5l.5-.9c5.1 2.6 14 5.1 23.5 7.3 11.1 2.6 23 4.6 31 5.3v-.7c-12-.9-35.7-8.7-44.7-11.7-1.1-.4-2-.5-2.2-.7l.4-.9c.9.2 1.5.5 2.2.7 8.7 2.9 32.3 10.6 44.3 11.7v-2.4h1.1v-.2z" clip-path="url(#SVGID_28_)" fill="#bbbcbf"/><path class="st40" d="M1380.1 558.1c.2 1.3-25 57.8-28.4 63.3-11.3 18.6-25.3 35.2-45.9 50.3-10.9 8-25 12.9-39.9 15.5-19.5 3.5-40.3 3.3-57.1 1.8-.4 0-.5-.4-.5-.7 0 .7 52.5 0 57.4-2.4 14.6-2.6 28.6-7.3 39.4-15.3 20.4-14.9 34.3-31.5 45.6-49.9 3.1-5.5 29-62.7 29.4-62.6m-177.6 119.2c0-.4 38.3-1.8 43.4-2.4 12.4-1.6 24.4-4.9 40.1-11.1 14.2-5.8 27-16.8 37.9-29.3 11.1-12.8 20.4-27.2 28.3-39.9 9.5-15.7 19-28.8 1.1.7-7.8 12.9-17.3 27.3-28.4 40.1-11.1 12.8-24.1 23.9-38.5 29.7-15.7 6.4-27.7 9.7-40.3 11.3-4.6.4-43.6.9-43.6.9zM1392.6 453c2.4.2-12.2 71.1-15.3 70.4 1.5-6.3 15-70.4 15.3-70.4zm-30.8-16.4c0-.4.4-.5.7-.5.4 0 .5.4.5.7-.5 5.7-1.3 13.9-2.4 22.8-.4 3.8-4.6 45.4-4.6 45.4-2.4 0 2.7-41.9 3.3-45.6 1.3-9 2.2-17.2 2.5-22.8zm5.7-29.4c0-.4.4-.5.7-.5.4 0 .5.4.5.7-1.1 5.7-1.1 10.8.5 15.3 1.5 4.4 4.7 8.4 10 11.5 1.1.7 4 1.8 6.7 2.7 1.1.4 6.4 1.5 6.4 2.2 0 0-6-.7-6.7-.9-2.9-.9-5.8-2.2-7.1-2.9-5.5-3.3-8.9-7.5-10.6-12.2-1.5-4.6-1.5-10.1-.4-15.9zm-119.2 8.9c-.5 13.7 48.1 6.2 59.4-.7 4.4-2.7 16-12.6 14.6-14 1.8 1.5-11.5 13.7-14 15.1-19 11.9-67.9 8.9-60-.4zm1.2 30.1c1.6-.4 7.3 35.5 7.8 39.2.5 3.6 2.6 39.9 2.6 39.9-.2 0-3.3-35.9-3.8-39.7-.5-3.8-5.3-39.6-6.6-39.4zm28.3 2.8c2.4-.2 7.3 110.3 4.6 116.8-.4-.2-5-116.8-4.6-116.8zm-74.7-20.5c1.1.2-1.6 18.2-1.8 20.4-.5 6-.7 12.2-.7 17.9 0 .4-.4.7-.7.7-.4 0-.7-.4-.7-.7 0-5.8.4-11.8.7-18 .4-2 1.5-20.4 3.2-20.3zm111 90.3c.2 11.7-2.6 58.3-6.2 62.7-.4 0 5.3-62.7 6.2-62.7zm-63.5-109.9c.9 2.7-19.5 4.4-21.9 4.4-13.7.5-20.6.9-22.6 37 0 .7-.4 8.2-.5 12.2v2s-.2.2-.4.2c.2.2.4.4.4.5 0 .2-.2.5-.4.5-.5.2-.7 0-.9-.5v-.2-.5-2c.2-4 .5-11.5.5-12.2 2-37.4 9.5-37.7 23.9-38.3 2.6-.2 21-2.1 21.9-3.1zm42 64.7s5.1 99 .7 109.9c-.4-1.5 1.3-110.5-.7-109.9zm18-36.3c1.8-.2 3.6 31.9 4 35.7.2 3.6 1.8 34.6 0 34.6-1.1 0-1.1-30.6-1.3-34.5-.3-4.1-2.7-35.8-2.7-35.8zm-53.6-22.6c21.5 5.5 43.2-2.6 57.8-16.4-13.7 14.2-35.2 25.7-57.8 16.4zm-14-8.9s-17.5.7-19.7.4c-4.7-.7-8.6-1.1-12.4.2-2.6.9-4.4 3.1-5.5 5.7-1.3 2.7-2.9 11.8-2.9 11.8 1.6.5 1.1-11.1 1.6-12.4 1.3-2.9 3.5-5.3 6.2-6.4 4-1.5 8-.9 12.9-.2 3.4.5 19.8.7 19.8.9zm147.1 12.7c-.2-.2-.2-.7 0-.9s.7-.2.9 0c10.8 12.8 12.9 30.3 11.5 48.3-.7 7.8-13.5 54.3-13.3 52.1 0 0 11.3-44.7 12-52.3 1.5-17.5-.7-34.8-11.1-47.2zm-33 212.5c.2-.4.5-.4.9-.2s.4.5.2.9c-2 2.4-3.6 4.6-5.5 6.7-23.7 30.1-55.4 45.8-54.7 45.4 14.9-6.4 49-40.3 53.8-46.1 1.6-2.1 3.5-4.5 5.3-6.7z"/><path class="st40" d="M1379.3 613.7c-10.4 20.2-23.1 44.1-41.7 57.8 24.1-26.6 30.6-41.7 39.6-59.1 8.9-17.3 16-35.4 22.8-55 2.3 5.5-17.2 49.6-20.7 56.3m-38.1-24.8c-2.9 6-26.6 42.7-34.3 47 11.3-13.1 22.4-28.6 31.9-48.3 9.5-19.7 18-46.5 25-87.9 9.5 1.9-17.5 78.5-22.6 89.2z"/><path d="M1072 788.2c15.1 5.5 42.8-.7 53.4-13.9.9-1.1 2.2-.9 1.5-2.2 8.4 30.1-2.2 41.2-2.4 40.8-18.8 10.8-75.8 13.5-103.5-3.5 10.4-15 45.4-22.7 51-21.2" fill-rule="evenodd" clip-rule="evenodd" fill="#605d5b"/><path class="st5" d="M460.3 307.5c-13.5 86.6 3.5 143.3 3.5 222.7 0 5.8 29.3-26.4 27.7-88-.8-27.2 14.7-134.7-31.2-134.7z"/><path class="st11" d="M460.3 307.5c-13.5 86.6 3.5 143.3 3.5 222.7 0 5.8 29.3-26.4 27.7-88-.8-27.2 14.7-134.7-31.2-134.7z"/><path class="st5" d="M576.9 439.8l.4-42.7c-47.8 4-50.3-8.6-89.9 2.7l-4.7-.4c.2.9 4 33.4 6.9 39.2.2 21.1 68.2 31.9 87.3 1.2z"/><path class="st42" d="M576.9 439.8l.4-42.7c-47.8 4-50.3-8.6-89.9 2.7l-4.7-.4c.2.9 4 33.4 6.9 39.2.2 21.1 68.2 31.9 87.3 1.2z"/><path d="M510.4 82.8c19.3.7 27.3 7.5 39.4 22.1 4.4 5.5 12.4 18.8 13.3 25.9 3.1 26.4-6.6 49.4-14.6 74.4-4.9 15.1-29.9 32.1-46.3 35-17 3.1-27.5 5.1-43.6 10.2-12.8 4.2-8.2 6.9-10.6-17-2-20.4-6.9-32.4-9.3-52.9-1.8-15.9 19.7-76 31.7-86.2 22.9-19.7 37.5-7.2 40-11.5" fill-rule="evenodd" clip-rule="evenodd" fill="#010002"/><path class="st3" d="M452.1 875.8c-1.5-45.9-12-135.3-12.2-163.9-.4-85.9 5.1-192.5 25-245.7 3.3-8.9 15.7-37.9 20.2-47.2 40.5 7.5 68.9 9.5 91.3 0 55.2 41.2 49.6 207.1 18.6 285.8-8.2 20.8 24.4 51.2 7.8 102.1-6 18.6-13.3 49.6-15.3 72.2-1.1 13.3-36.5 36.8-39.9 8.9 0 0-3.8-100.4-8-173.5-2-34.6-4-46.3-12.8-93-7.8-42.3-14.4-78-6.7-37 13.7 73.8-32.8 89.3-15.3 159.5 9.3 37-4.9 91.1-15.7 133.1-2.6 11.7-35.7 35.4-37-1.3"/><defs><path id="SVGID_29_" d="M452.1 875.8c-1.5-45.9-12-135.3-12.2-163.9-.4-85.9 5.1-192.5 25-245.7 3.3-8.9 15.7-37.9 20.2-47.2 40.5 7.5 68.9 9.5 91.3 0 55.2 41.2 49.6 207.1 18.6 285.8-8.2 20.8 24.4 51.2 7.8 102.1-6 18.6-13.3 49.6-15.3 72.2-1.1 13.3-36.5 36.8-39.9 8.9 0 0-3.8-100.4-8-173.5-2-34.6-4-46.3-12.8-93-7.8-42.3-14.4-78-6.7-37 13.7 73.8-32.8 89.3-15.3 159.5 9.3 37-4.9 91.1-15.7 133.1-2.6 11.7-35.7 35.4-37-1.3"/></defs><clipPath id="SVGID_30_"><use xlink:href="#SVGID_29_" overflow="visible"/></clipPath><path d="M548 535.5c0-.5.4-1.1 1.1-1.1.5 0 1.1.4 1.1 1.1.5 14 .9 21.9.9 29.7.2 8 .2 15.7.2 29.2 0 .5-.5 1.1-1.1 1.1s-1.1-.5-1.1-1.1c0-13.9 0-21.7-.2-29.2 0-7.8-.4-15.6-.9-29.7m35.9 41.4c0-.5.7-1.1 1.3-.9.5 0 1.1.7.9 1.3-.4 2-1.3 6.7-2.6 12.4-3.1 14.9-8 37.9-6.9 41.7.4-.2.9 0 1.1.4.4.5.2 1.1-.2 1.5-.9.7-1.8.5-2.4-.2v-.2c-2.2-3.1 2.9-27.9 6.4-43.7 1.1-5.7 2-10.3 2.4-12.3zm0 106.3c0-.5.5-1.1 1.1-1.1.5 0 1.1.5 1.1 1.1V734c0 .5-.5 1.1-1.1 1.1-.5 0-1.1-.5-1.1-1.1v-50.8zm-15.2 98.2c0-.5.4-1.1 1.1-1.1.5 0 1.1.4 1.1 1.1l2.4 38.1c0 .5-.4 1.1-1.1 1.1-.5 0-1.1-.4-1.1-1.1l-2.4-38.1zm-100.2 10.4c0-.5.4-1.1.9-1.3.5 0 1.1.4 1.3.9l5.8 46.1c0 .5-.4 1.1-.9 1.3-.5 0-1.1-.4-1.3-.9l-5.8-46.1zm17.1-53.2c0-.5.5-1.1 1.1-1.1s1.1.5 1.1 1.1v9.3c0 10.9.2 23.5.9 33.9.2.2.2.4.2.5l.2 3.1c0 .5-.4 1.1-.9 1.1s-1.1-.4-1.1-.9c-1.1-11.1-1.1-25.5-1.3-37.7 0-3.3 0-6.4-.2-9.3zm-34.4-58.9c0-.5.5-1.1 1.1-1.1.5 0 1.1.5 1.1 1.1v45c0 .5-.5 1.1-1.1 1.1-.5 0-1.1-.5-1.1-1.1v-45zm34.6-61.2c0-.5.7-1.1 1.3-.9.5 0 1.1.7.9 1.3l-6.9 45c0 .5-.7 1.1-1.3.9-.5 0-1.1-.7-.9-1.3l6.9-45zM474.1 533c.2-.5.7-.9 1.3-.9.5.2.9.7.9 1.3l-9.3 55.4c-.2.5-.7.9-1.3.9-.5-.2-.9-.7-.9-1.3l9.3-55.4zm39.4-62.4c.2-.5.7-.9 1.3-.7.5.2.9.7.7 1.3-2.4 8.7-4.9 17.7-7.3 27-2.4 9.1-4.9 18-7.1 27-.2.5-.7.9-1.3.7-.5-.2-.9-.7-.7-1.3l.7-3.3c0-.2.2-.4.4-.5 2-7.8 4.2-15.7 6.2-23.3 2-8.6 4.6-17.7 7.1-26.9zm-21.1-40.2c.2-.5.9-.7 1.5-.5.5.2.7.9.5 1.5l-11.1 22.8-6.9 25.3c-.2.5-.7.9-1.3.7-.5-.2-.9-.7-.7-1.3l6.9-25.3v-.2l11.1-23zm88 79.6c0-.5.5-1.1 1.1-1.1.5 0 1.1.5 1.1 1.1l-2.4 40.5c0 .5-.5 1.1-1.1 1.1-.5 0-1.1-.5-1.1-1.1l2.4-40.5zm-27.7 168.6c0-.5.5-1.1 1.1-1.1s1.1.5 1.1 1.1c.2 19 .4 34.8 1.8 53.2.4.2.5.5.5 1.1l-.2 3.1c0 .5-.4.9-.9 1.1-.5 0-1.1-.4-1.1-.9-2.1-20.4-2.1-37.2-2.3-57.6zm0-220c-.2-.5 0-1.3.5-1.5.5-.2 1.3 0 1.5.5 15.3 29.9 29.3 33.4 54.7 39.6 2.7.7 5.5 1.3 8.7 2.2.5.2.9.7.7 1.3-.2.4-.4.7-.7.7l-3.6 1.3c-.5.2-1.3-.2-1.5-.7-.2-.5.2-1.3.7-1.5-1.6-.4-3.5-.9-5.1-1.3-25.8-6.1-40-9.6-55.9-40.6z" clip-path="url(#SVGID_30_)" fill="#080406"/><defs><path id="SVGID_31_" d="M452.1 875.8c-1.5-45.9-12-135.3-12.2-163.9-.4-85.9 5.1-192.5 25-245.7 3.3-8.9 15.7-37.9 20.2-47.2 40.5 7.5 68.9 9.5 91.3 0 55.2 41.2 49.6 207.1 18.6 285.8-8.2 20.8 24.4 51.2 7.8 102.1-6 18.6-13.3 49.6-15.3 72.2-1.1 13.3-36.5 36.8-39.9 8.9 0 0-3.8-100.4-8-173.5-2-34.6-4-46.3-12.8-93-7.8-42.3-14.4-78-6.7-37 13.7 73.8-32.8 89.3-15.3 159.5 9.3 37-4.9 91.1-15.7 133.1-2.6 11.7-35.7 35.4-37-1.3"/></defs><clipPath id="SVGID_32_"><use xlink:href="#SVGID_31_" overflow="visible"/></clipPath><path d="M528.6 688.6c-.4-11.5-2.6-34.3-4.9-59.6-.9-9.8-6.7-91.7-4.4-100.4-.7 19 3.5 62.3 6.9 100.1 2.4 25.3 4.6 48.3 4.9 59.8l-2.5.1z" clip-path="url(#SVGID_32_)" fill="#fff"/><path class="st42" d="M452.1 875.8c-1.5-45.9-12-135.3-12.2-163.9-.4-85.9 5.1-192.5 25-245.7 3.3-8.9 15.7-37.9 20.2-47.2 40.5 7.5 68.9 9.5 91.3 0 55.2 41.2 49.6 207.1 18.6 285.8-8.2 20.8 24.4 51.2 7.8 102.1-6 18.6-13.3 49.6-15.3 72.2-1.1 13.3-36.5 36.8-39.9 8.9 0 0-3.8-100.4-8-173.5-2-34.6-4-46.3-12.8-93-7.8-42.3-14.4-78-6.7-37 13.7 73.8-32.8 89.3-15.3 159.5 9.3 37-4.9 91.1-15.7 133.1-2.6 11.7-35.7 35.4-37-1.3z"/><path class="st46" d="M546 883.9c8.9 4 37 7.7 41.7-4.9.5 2.9 3.1 35 4.2 36.6-24.4 16-100.8 19-92.6 2.2 11.5-17.2 27.7-27.7 46.7-33.9M452.3 875.7c8.9 4 37 7.7 41.7-4.9.5 2.9 3.1 35 4.2 36.6-24.4 16-100.8 19-92.6 2.2 11.5-17.3 27.7-27.9 46.7-33.9"/><path class="st47" d="M469.9 362.7c30.3 13.7 91.9 27 109.2-10.6 1.6-3.6 15.9-26.1 18.2-29.9-3.8 56.5-4 52.9-12 102.4-40.5-10-128-9.8-111-11.1-.7-2.6-7.3-46.4-4.4-50.8"/><path class="st5" d="M497.1 209.1c3.3-.4 39.7-9.8 43-13.5.9 48.3 51-25.9 73.1 29.3 15.5 38.8-21.3 116.3-36.6 154.8-3.6 9.1-15.1 18.2-15.1 18.2-9.7 3.3-38.6 1.1-57.8-8.2-7.7-3.6-51.8-27.9-59.6-25.7-10.8-18.4.2-51.6 1.8-75.6 1.3-18.2 3.8-40.3 19.9-43.9 11.4-3 53.4-19 31.3-35.4z"/><path class="st11" d="M497.1 209.1c3.3-.4 39.7-9.8 43-13.5.9 48.3 51-25.9 73.1 29.3 15.5 38.8-21.3 116.3-36.6 154.8-3.6 9.1-15.1 18.2-15.1 18.2-9.7 3.3-38.6 1.1-57.8-8.2-7.7-3.6-51.8-27.9-59.6-25.7-10.8-18.4.2-51.6 1.8-75.6 1.3-18.2 3.8-40.3 19.9-43.9 11.4-3 53.4-19 31.3-35.4z"/><path class="st11" d="M547.8 93.1c65.8 70.7 10.8 133.8.2 122.1M533.4 83.5c40.1 23.3 55.4 45.6 47.2 96.2-1.8 10.9-16.4 40.5-27.7 45.9"/><path class="st5" d="M479.6 179.7c4.9 11.8 9.5 20.4 16 25.9 16 13.3 37.4 9.7 48.1-5.7 5.7-8 8-18.4 8.6-32.6 1.1-24.2-.2-49.6-20.6-57.2-14.6-5.5-41-4.6-49 10-6.9 13-14 33.7-3.1 59.6"/><defs><path id="SVGID_33_" d="M479.6 179.7c4.9 11.8 9.5 20.4 16 25.9 16 13.3 37.4 9.7 48.1-5.7 5.7-8 8-18.4 8.6-32.6 1.1-24.2-.2-49.6-20.6-57.2-14.6-5.5-41-4.6-49 10-6.9 13-14 33.7-3.1 59.6"/></defs><clipPath id="SVGID_34_"><use xlink:href="#SVGID_33_" overflow="visible"/></clipPath><path d="M562.2 168.4c-11.8.2-24.8 2.4-19.5 16.8 3.4 9.7 30 11.1 19.5-16.8M474.5 179c9.5-1.1 33.9-5.8 24.4 12-10.2 18.6-32.1-4.2-24.4-12z" clip-path="url(#SVGID_34_)" fill-rule="evenodd" clip-rule="evenodd" fill="#e8e6e5"/><path class="st42" d="M479.6 179.7c4.9 11.8 9.5 20.4 16 25.9 16 13.3 37.4 9.7 48.1-5.7 5.7-8 8-18.4 8.6-32.6 1.1-24.2-.2-49.6-20.6-57.2-14.6-5.5-41-4.6-49 10-6.9 13-14 33.7-3.1 59.6z"/><path class="st49" d="M522.8 142c-1.3 4.7.5 6.2.2 7.1 9.8-6 20.1-6 30.6-2 0 0 .5.2.7.2-6.7-6.7-16.6-8.6-25.7-7.1-1.1.2-5.1 1.2-5.8 1.8M504.6 144c1.3 4.7-.5 6.2-.2 7.1-9.8-6-20.1-6-30.6-2 0 0-.5.2-.7.2 6.7-6.7 16.6-8.6 25.7-7.1 1 .2 5 1.3 5.8 1.8"/><path d="M521.5 152.2c.2-.4.2.2 0 .5-4.6 7.3.7 16-.2 16.2-1.2.6-4.1-10.9.2-16.7" fill="#010101"/><path class="st49" d="M511.9 182.8c6.4-.4 2.9 2.9 11.1-1.8.5-.4.9-.2 1.6-.2-.5 0-.9.2-1.5.4-7.4 6.2-5 2.4-11.2 1.6"/><path class="st51" d="M508.2 193.4c4.9.7 3.8 4.4 10.9 4.7 7.3.4 7.8-4.9 10.2-6.2.2 0 1.3-.5 1.5-.5-1.5.7.2-.2.2-.2-1.8.9-4.2-1.6-6.4-2.2-3.8-1.1-3.5 1.5-5.7 1.6l-.2-.2c-5.4-3-5.2 2.6-10.5 3"/><path class="st3" d="M526.1 158c6.2-6.7 13.9-5.3 21.3-1.3 0 0 .7.4.5.4.2 0-.2-.2-.4-.2-6.9-3.5-14.9-4.6-20.2 2.2-.4.4-.9.5-1.3.2-.1-.4-.3-.9.1-1.3"/><path class="st3" d="M536.1 156c2 0 3.8 1.6 3.8 3.5 0 .5-.2 1.1-.4 1.6-2.2.7-4.4.9-6.6.2-.4-.5-.5-1.1-.5-1.8.1-1.8 1.7-3.5 3.7-3.5"/><path class="st52" d="M527.7 160.2c-.2 0-.2-.4-.2-.4 0-.2.4-.2.4-.2 2.2 1.3 5.8 1.8 9.1 1.5.9-.2 5.8-1.6 7.1-3.3-.4 2.2-6 3.8-7.1 4-3.1.2-6.9-.3-9.3-1.6m-1.1-5.3c4-4.9 14-5.3 17.1-1.8-3.3-1.8-7.7-1.8-8.7-1.8-1.1.2-5.3 1.1-8.4 3.6z"/><path class="st53" d="M533.7 160c.2-.9 2.4-1.8 3.3-2.2 0 .4-3.3 2.2-3.3 2.2m-.3-.9c-.4-.4 1.6-1.3 2-1.6 0 .2-2 1.8-2 1.6z"/><path class="st49" d="M522.8 142c-1.3 4.7.5 6.2.2 7.1 9.8-6 20.1-6 30.6-2 0 0 .5.2.7.2-6.7-6.7-16.6-8.6-25.7-7.1-1.1.2-5.1 1.2-5.8 1.8"/><path class="st3" d="M504.4 161.5c-7.3-5.7-14.6-2.9-21.3 2.2 0 0-.7.5-.5.5-.2 0 .2-.2.2-.2 6.2-4.6 14-6.9 20.2-1.3.4.4.9.4 1.3 0 .5-.3.5-.8.1-1.2"/><path class="st3" d="M494 161.3c-2 .4-3.5 2.2-3.1 4 .2.5.4 1.1.7 1.5 2.4.4 4.4.2 6.6-.9.2-.5.4-1.3.2-1.8-.4-1.9-2.2-3.1-4.4-2.8"/><path class="st52" d="M503.1 163.9c.2-.2.2-.4 0-.5-.2-.2-.4-.2-.5 0-2 1.6-5.5 2.7-8.7 2.9-1.1 0-6-.5-7.7-2 .7 2 6.6 2.7 7.7 2.7 3.6-.2 7-1.5 9.2-3.1m.2-5.5c-4.7-4.2-14.6-2.9-17.3 1.1 2.9-2.4 7.3-3.1 8.4-3.3 1.2 0 5.4.2 8.9 2.2z"/><path class="st53" d="M497.3 164.8c-.4-.7-2.7-1.5-3.5-1.6-.2.3 3.3 1.6 3.5 1.6m0-.9c.4-.4-1.8-1.1-2.4-1.3.2 0 2.4 1.3 2.4 1.3z"/><path class="st29" d="M520.6 107.7c-25 22.1-33.5 35.7-37.2 69.4-.7 6.6-7.5 56.7-5.3 63.8.5 2 4-4.2 5.7-6"/><path class="st21" d="M500.7 143.1c2.9-4 6.2-7.8 10-12.6 4.4-5.3 9.5-11.5 15.9-19.7-12.5 9.5-20.4 20.4-25.9 32.3m-6.9-4.9c1.5-3.6 3.3-7.8 6.4-13.1 6.2-10.8 13.1-15.9 19.7-17.1-12 10.8-20.1 19.5-25.7 29.5-.2.3-.2.5-.4.7zm-10.7 54.1c.2-3.6.4-7.1.5-10.2l.2-2c.2-1.5.4-2.6.4-3.3.2-1.1.2-2.4.4-3.5.4-2 .7-3.8 1.3-5.3 3.8-11.5 4.4-18 6.6-25.3.7-1.6 1.6-3.3 2.4-4.9 5.7-10.2 13.9-19.1 26.2-30.1 2.7-.4 5.3 0 7.7.7l-.5.4c-14.9 10.8-23.5 23.1-29.3 37-6.7 10-10.8 21-15.5 45-.2.4-.4 1-.4 1.5zm-.4 11.9c0-2.7.2-5.5.2-8.2.4-2 .7-3.6 1.1-4.9 4.4-21.7 8-32.6 13.7-41.7-3.8 10.2-6.4 21.1-9.1 32.6-1.1 4.6-2.2 9.3-3.5 14-.8 2.3-1.5 5.1-2.4 8.2zm49.6-120.7c-72.7-19.9-101 62.7-92.2 122.5-6.2 42.7-4.6 64.3-3.6 106.3.4 17 1.6 33.4-4.4 49.9-.4.9-.2.5.4.4 15.3-18.2 9.1-13.9 9.1 9.1 3.6-.5 20.1-4.2 20.2-4.2 1.6-6.2 1.8-17.9 8.7-17.9 0 21 2.4-4.7 4.6-10 3.3-7.8 4-22.4 3.5-38.3 2.6-28.6 4-65.1 4.4-94.8l.2-.9c1.1-3.6 2-6.9 2.7-9.7 1.3-4.7 2.4-9.5 3.5-14 2.9-12.8 5.8-24.6 10.4-35.7 3.3-4.9 7.1-9.5 11.8-15.3 4.7-5.7 10.4-12.4 17.1-21.5l.5-.7c12.8 4.2 22.6 21.7 21.1 38.5-1.1 12.6 8.4 34.3 0 55-6.4 15.7 31.4 14.8 25.3-54.1-1.5-17-17-73.1-41.2-64.7-.8.3-1.6.3-2.1.1z"/><path class="st47" d="M480.9 289.3c8 8 20.2 27.7 25.9 31 3.6-2.2 43.6-22.4 50.1-31 9.5-19.5 12.8-51 14.9-73.5.2-2 .4-3.8.5-5.5.5-6.4 2-9.5 3.3-10.8 1.1-.9 2.2-.9 3.1-.5.9.4 1.5 1.1 2 2 .7 1.3.9 2.9.2 3.6-.4.4-.9.4-1.5 0-.4-.4-.4-.9 0-1.5.2-.2 0-.7-.4-1.5-.4-.5-.7-1.1-1.1-1.3-.4-.2-.5-.2-.9.2-1.1.9-2.2 3.6-2.7 9.5-.2 2-.4 3.6-.5 5.5-2.2 22.4-5.5 53.8-14.9 73.6 2.4 4.2 7.8 13.5 8.4 14-3.8 14-17.3 58.1-22.6 67.4-24.6-12-43.4-16.6-57.4-19.5-17.9-3.6-21-7.5-21-7.5-.4-22.6 6-38.1 12.6-54 .4-5.5-.2-14.4-.5-20.8-.9-13.1-1.6-26.8 3.6-35.7 1.3-2.2 2.9-2.2 4.4-1.5 1.3.5 2.2 1.8 2.9 2.4.4.4.4 1.1-.2 1.5-.4.4-1.1.4-1.5-.2-.5-.5-1.3-1.5-2.2-2-.5-.4-1.3-.4-1.8.7-4.9 8.4-4.2 21.9-3.3 34.6.4 6.9.9 15.1.6 20.8"/><path d="M440.1 351.4c25.7-18 25.3-2.9 45-.2 25.5 3.5 59.6 19.9 59.6 19.9 4.9-10.9 25-63.4 30.8-108.8" fill="none" stroke="#000001" stroke-width="2.583" stroke-linecap="round" stroke-linejoin="round" stroke-miterlimit="22.926"/><path class="st5" d="M848.4 170.6c-7.1 14.9-2.9 34.8-1.6 49.2.4 3.8 4.9 3.3 17.9 5.7 9.1 1.6 6 0 9.5-12.2 4-14-.9-14.4-10.4-25.2-8.5-9.5-14.9-18.8-15.4-17.5z"/><path class="st55" d="M848.4 170.6c-7.1 14.9-2.9 34.8-1.6 49.2.4 3.8 4.9 3.3 17.9 5.7 9.1 1.6 6 0 9.5-12.2 4-14-.9-14.4-10.4-25.2-8.5-9.5-14.9-18.8-15.4-17.5z"/><path class="st51" d="M801 395.2c-8-36.1-4.2-78.9 5.1-112.6.4-1.6-.2-2 1.5 0-6.7-14-15.7-17.7-33.9-21 6-15.1 13.3-52.9 31.4-49.4 5.5 1.1 33.5 3.1 39 .5 9.5 13.3 22.1 10.2 31.4 10.2 10 6 51.6 11.8 48.1 26.6-1.3 5.3-3.5 48.5 2.6 50.7-6.9 1.6-19.7.9-26.1-1.5 0 45.8-6.2 64.2.5 99.7.4 1.6-.5 1.5.7 2.2-9.2 6.6-71.7-19.6-100.3-5.4"/><path class="st5" d="M784.4 263.9c-10.2 49.9-4.2 88.8 23.3 133.2 1.1 1.8 2 4 3.6 5.5l14.4-8.9c-20.8-32.8-28.4-78.4-20.2-115.9-4.4-6.2-13.5-11.3-21.1-13.9z"/><path d="M784.4 263.9c-10.2 49.9-4.2 88.8 23.3 133.2 1.1 1.8 2 4 3.6 5.5l14.4-8.9c-20.8-32.8-28.4-78.4-20.2-115.9-4.4-6.2-13.5-11.3-21.1-13.9z" fill="none" stroke="#000001" stroke-width="1.55" stroke-miterlimit="22.926"/><path class="st3" d="M827.6 389.7c-1.5 6.9-.2 7.8-9.5 12.4-7.7 3.8-14.8 12.8-14.8 20.8l1.8-1.3c-.5-.9.4-3.1.5-4 5.9-27.7 13.4-14.9 22-27.9"/><path d="M838 213.8c1.5 9.3 6.9 15.1 12.9 18.2 5.1 2.7 13.7 4.7 19.5 2.7 1.6-.4 2.7-.7 2.9-1.3-4.6 6.9-17 3.3-23.3-.2-6.6-3.5-12.2-9.5-13.7-19.3l1.7-.1z" fill="#6d6e70"/><path class="st5" d="M895.9 153.7c1.6 1.6 4.2 2.2 4.4 5.8.2 7.1-.4 14.6-3.5 19.9-1.6 2.9-2.7 14.8-6.6 20.1-4.6 6.2-2.9 14.2-14.4 12.2-10.6-1.6-10.6-4.6-19-10.9-.9-.7-5.8-5.8-6.4-7.1-2.9-7.3 2-14.2 2-14.2-8.4-9.7-1.1-14.9 1.5-10.8 1.1-.5-.5-5.5 5.8-13.7 5.7-7.3 10.2-9.5 22.4-5.7 7.1 2.4 10.7 1.3 13.8 4.4z"/><path class="st55" d="M895.9 153.7c1.6 1.6 4.2 2.2 4.4 5.8.2 7.1-.4 14.6-3.5 19.9-1.6 2.9-2.7 14.8-6.6 20.1-4.6 6.2-2.9 14.2-14.4 12.2-10.6-1.6-10.6-4.6-19-10.9-.9-.7-5.8-5.8-6.4-7.1-2.9-7.3 2-14.2 2-14.2-8.4-9.7-1.1-14.9 1.5-10.8 1.1-.5-.5-5.5 5.8-13.7 5.7-7.3 10.2-9.5 22.4-5.7 7.1 2.4 10.7 1.3 13.8 4.4z"/><path class="st3" d="M902.7 168.8c2.2 3.3 1.3-3.8 1.3-6.4 0-22.1-3.3-20.2-22.1-25.3-8.7-2.4-30.3 0-34.3 11.3-.9 2.7-3.3 14.9 1.1 16.6l.9 1.3c3.6 3.6.9 4.4 3.8 1.1 0 5.1 3.6-4.4 7.5-8.6 7.7-8.7 9.5-11.8 22.8-7.3 11.7 4 15.3 16.2 16.2 17 .4-11.8 1.6 7.7 2.6.9 0-.1.2-.4.2-.6"/><g><defs><path id="SVGID_35_" d="M902.7 168.8c2.2 3.3 1.3-3.8 1.3-6.4 0-22.1-3.3-20.2-22.1-25.3-8.7-2.4-30.3 0-34.3 11.3-.9 2.7-3.3 14.9 1.1 16.6l.9 1.3c3.6 3.6.9 4.4 3.8 1.1 0 5.1 3.6-4.4 7.5-8.6 7.7-8.7 9.5-11.8 22.8-7.3 11.7 4 15.3 16.2 16.2 17 .4-11.8 1.6 7.7 2.6.9 0-.1.2-.4.2-.6"/></defs><clipPath id="SVGID_36_"><use xlink:href="#SVGID_35_" overflow="visible"/></clipPath><path d="M901.8 159.5c-.4-1.6-1.1-3.3-2-4.9.7 1.6 1.4 3.3 2 4.9m-12.4-19.3c1.3 1.6 2.6 3.3 4 5.1 1.3 1.6 2.6 3.3 3.8 5.1-.9-1.6-2.2-3.5-3.3-5.3-1.1-1.6-2.4-3.1-3.8-4.4-.2-.2-.6-.3-.7-.5zm.1 69.1c.2-.7.4-1.5.5-2.4-.7 1.6-1.5 3.3-2.2 5.3.7-1.1 1.2-2 1.7-2.9zm1.3-4.1c-.2.9-.5 2-.7 2.9.4-.7.9-1.6 1.5-2.7 6.2-11.8 10.8-21.3 11.7-30.6.4-3.8.2-7.5-.7-11.5 0 2.9-.5 5.8-1.1 9.3-.2 1.1-.4 2.4-.5 3.6-1.6 10.9-4.7 17.3-8 24.2-.7 1.9-1.4 3.4-2.2 4.8zm-3.3-61.4c2.9 1.8 6 6.4 8 11.3 2.4 5.5 3.6 11.5 3.1 15.7-1.3 9.7-3.3 17.9-5.5 25.9-.5 2.4-1.3 4.6-1.8 6.9.5-1.1.9-2 1.5-2.9 3.3-7.1 6.4-13.3 8-24.2.2-1.3.4-2.6.5-3.6.7-4 1.3-7.5.9-10.9-.9-3.1-2.2-6.2-4-9.7-.2-.4-.5-.7-.9-1.1-1.6-1.8-2.9-3.8-4.2-5.7-1.8-2.4-3.5-4.6-5.3-6.6-4.7-3.5-10.8-5.5-16.8-5.8-6.9-.4-14 1.5-19.7 5.3-1.6 1.1-3.3 2.6-4.6 4-4.9 5.5-7.5 15.1-8.7 25.7-1.6 14.4-.7 30.6.7 39.9.2-1.8.2-4 .4-6.6.7-16.2 2.2-45.9 12-54 5.1-4.2 10.9-7.1 17-8.2 5.7-.9 11.5-.4 17.3 2.2.4.2.5.2.7.4.9.4 1.6.7 1.8 1.1.2.4 0 .6-.4.9zm-45 58c.2-1.5.5-2.9.7-4.2 2.2-12 4-21.9 5.3-34.3.2-2.9 1.1-5.7 2.6-8.2 2.6-4.6 6.6-8.4 11.3-10.9 4.7-2.6 10.2-3.8 15.7-3.5 3.1.4 6.2 1.1 9.1 2.7.4-.2.5-.2.5-.4s-.7-.5-1.6-.9c-.2-.2-.5-.2-.9-.4-5.8-2.6-11.7-3.1-17.1-2.2-6 1.1-11.7 4-16.8 8.2-9.7 8-11.1 37.5-11.8 53.8-.2 3.3-.4 6-.5 8l-.2 1.3-.2-1.3c-1.6-9.1-2.7-26.1-.9-41.4 1.3-10.8 4-20.4 8.9-25.9 1.5-1.6 2.9-2.9 4.7-4.2 5.7-4 12.9-5.7 19.9-5.3 5.5.4 10.9 1.8 15.5 4.7-3.6-3.5-8.4-5.7-16-5.7-32.4.2-37.9 19.3-37.7 41.6 0 6 .5 12.2.9 18.4.4 6 .9 11.8.9 17.3h-.4c0-5.5-.5-11.3-.9-17.3-.4-6.2-.9-12.4-.9-18.4-.2-22.4 5.3-41.6 38.1-41.9 8.7 0 13.5 2.7 17.5 6.9.7.5 1.5 1.1 2 1.6 1.5 1.3 2.7 2.9 4 4.6 1.6 2.4 3.1 4.7 4.4 7.1 2.6 3.5 3.6 6.6 4 9.8 1.3 4.6 1.6 8.7 1.1 13.1-.9 9.3-5.5 18.8-11.7 30.6-.7 1.5-1.5 2.6-2 3.6-.4 2-.9 4-1.3 6v.4c0 .2 0 .2-.2.4h-.5-.4v-.4H888.2v-.4c.4-1.6.7-3.3 1.1-4.9-.9 1.5-1.6 3.1-2.9 5.5l-.2.2-.2-.2-.7-.7-.7-.7.2-.2.7.7.5.5c.2-.5.5-1.1.7-1.5h-.2c-.2 0-.4-.2-.5-.4s-.4-.2-.5-.4l.2-.2c.2.2.4.4.5.4.2.2.4.4.5.4 0 0 .2 0 .2-.4 1.1-2.9 2.2-5.7 3.3-8 .7-2.9 1.5-5.8 2.2-8.6 2.2-8.2 4.2-16.2 5.5-25.9.5-4-.7-10-3.1-15.5-2.2-5.1-5.1-9.7-8.2-11.3-2.9-1.6-6-2.6-9.1-2.7-5.3-.5-10.8.7-15.5 3.3-4.7 2.6-8.7 6.2-11.1 10.8-1.5 2.6-2.4 5.3-2.6 8.2-1.1 12.4-2.9 22.4-5.3 34.5-.2 1.5-.5 2.7-.7 4.2h.2z" clip-path="url(#SVGID_36_)" fill="#3e3c3c"/></g><path d="M886.5 177.4c3.1-.4 8 .7 9.7 3.6m-9.7-1.6c2 3.5 7.8 3.5 8.2 3.1m-30.5-8.2c4 3.6 5.8 4 10.4 3.5 0 0 .2 0 .4-.2m-11.3-5.5c5.3-.5 8.2.2 12.2 2.9m-12.8-5.1c7.7-4.2 12.2.4 13.1 2.6m11.2 3c3.6-.9 7.5-.2 8.9 2.4" fill="none" stroke="#000001" stroke-width="1.55" stroke-linecap="round" stroke-linejoin="round" stroke-miterlimit="22.926"/><path class="st21" d="M899 176.4c-1.5-.7-8.4-4.4-11.1-3.5 6.6-3.8 7.1-2 12.2.5h.2c-.2.7-1.5 3-1.3 3m-19.3-6c.7-1.1.9-1.5 1.8-2.6-4.7-2.9-13.1-9.1-19.1-7.7 0 3.6 10.2 6.2 13.1 7.8.2.5 3.8 2.5 4.2 2.5z"/><path class="st17" d="M886.3 176.4c-.4 4 .7 8.6 1.3 11.3.2.9.4 1.6.4 2v.4c-.9 1.5-4.7 3.1-6.2 2 .9-.2 1.6-.4 2.6-.4 1.3-.2 1.8-.2 2.9-1.8 0-.4-.2-.9-.4-1.6-.6-2.2-3-12-.6-11.9"/><path class="st21" d="M880.3 190.8c-2-1.8-5.8-1.3-.5-.2-.1.1.5.2.5.2"/><path class="st17" d="M885 198.7zm0 0zm-15.1-1.7c5.5-1.6 9.5-.5 12.2.2 1.3.4 2.2.5 2.9.5h.4c.2 0 .2 0 .2.2l-.5.5c-.9 0-2-.2-3.3-.5-7.2-1.6-11.8-.1-11.9-.9z"/><path class="st17" d="M869.7 196.7c2.7-.9 5.3-.9 7.3-.9 2 .2 3.8.7 5.3 1.1 1.1.4 2 .5 2.7.5h.5l.4.2.2.2.2.2-.4.4-.4.5v.2h-.2l-.2.2-.1-.3c-.4 0-.9 0-1.5-.2-.5-.2-1.1-.2-1.8-.4-4.6-1.1-8-.9-10-.9-1.5 0-2.2.2-2.4-.5l-.2-.5.6.2z"/><path class="st21" d="M892.5 182.8c.4-.4.5-.9.5-1.3 0-1.3-.9-2.2-2.2-2.2-1.3 0-2.2.9-2.2 2.2v.2c.8.6 2.8.9 3.9 1.1M870.8 178.1c.5-.4.9-1.1.9-1.8 0-1.3-.9-2.2-2.2-2.2-1.1 0-2.2.9-2.2 2.2 0 .2 0 .5.2.7.9.9 2.4 1.1 3.3 1.1"/><path class="st60" d="M1510.8 145.3c-10.6-4.4-17.9-10.8-16.4-14.2 1.5-3.5 11.1-2.9 21.7 1.5s17.9 10.8 16.4 14.2c-1.5 3.6-11.2 2.9-21.7-1.5"/><path class="st61" d="M1510.6 146c-4-1.6-7.8-3.6-11.3-6.2-2.2-1.6-5.1-4.2-5.7-6.9-.4-1.5.2-2.9 1.5-3.6 1.3-.7 2.9-1.1 4.4-1.1 3.3-.2 6.7.5 10 1.5 4 1.1 8 2.7 11.8 4.6 2.7 1.5 5.3 3.1 7.7 4.9 1.6 1.3 3.3 2.9 4.2 4.9.5 1.5.5 2.9-.5 4-1.6 1.6-4.4 1.8-6.4 1.6-5.1-.2-9.8-1.6-14.6-3.5l-1.1-.2zm-1.3-2.2c4.2 1.8 8.7 3.5 13.3 4.2 1.8.4 3.6.4 5.3.4 1.3-.2 3.3-.4 3.8-1.6.5-1.3-.7-2.9-1.5-3.8-1.5-1.8-3.5-3.1-5.3-4.4-2.9-2-5.8-3.3-9.1-4.7-3.6-1.5-7.7-2.7-11.5-3.3-1.1-.2-1.8-.2-2.7-.4-1.1 0-2.4 0-3.5.2-.7.2-1.6.4-2.2.9-.7.5-.7 1.5-.5 2.2.7 1.8 2.7 3.8 4.4 4.9 2.2 1.8 4.7 3.1 7.1 4.6l2.4.8z"/><path class="st60" d="M1506.2 156.8c-10.6-4.4-17.9-10.8-16.4-14.2l4.7-11.5c-1.5 3.5 5.8 9.8 16.4 14.2 10.6 4.4 20.2 4.9 21.7 1.5l-4.7 11.5c-1.7 3.4-11.3 2.8-21.7-1.5"/><path class="st61" d="M1504.6 155.1c3.8 1.6 7.7 3.1 11.7 3.8 1.8.4 3.8.7 5.8.7 1.6 0 4.2-.2 4.9-1.8l3.5-8.6c-2.9.9-6.4.5-9.3 0-3.6-.7-7.3-1.8-10.8-3.3-4.4-1.8-8.9-4.2-12.6-7.3-1.5-1.3-2.9-2.7-4-4.6l-3.5 8.6c-.2.4-.2.4-.2.9.2 1.8 2.2 3.6 3.3 4.7 2.6 2.2 5.3 3.8 8.2 5.5l3 1.4zm1.2 2.4c-10.9-4.6-18.6-11.1-17-15.3l4.7-11.5 1.5.7c-.5 1.8 1.1 3.6 2.4 4.7 1.5 1.5 2.9 2.6 4.6 3.6 3.5 2.2 7.1 4 10.9 5.5 3.6 1.3 7.3 2.4 11.1 2.7 1.6.2 3.3.2 4.9 0 1.1-.2 2.2-.5 2.7-1.6l1.5.5-4.7 11.5c-1.6 4.3-11.6 3.7-22.6-.8z"/><path class="st61" d="M1520.2 148.2l-14.6-18.8h.2c1.5.2 2.7.5 4.2 1.1l14.2 18.4c-2-.2-.9-.2-3.1-.5l-.9-.2z"/><path class="st2" d="M1541.2 150.4c-4.4-10.6-5.1-20.2-1.6-21.7 3.5-1.5 9.8 5.8 14.2 16.4 4.4 10.6 5.1 20.2 1.6 21.7-3.5 1.4-9.8-5.8-14.2-16.4"/><path class="st61" d="M1540.5 150.7c-1.6-4-2.9-8-3.6-12.4-.4-2.6-.7-6.6.9-8.9.9-1.3 2.2-1.8 3.6-1.5 1.5.4 2.7 1.3 3.8 2.2 2.6 2.2 4.4 5.1 6.2 8 2.2 3.6 3.8 7.7 5.1 11.7.9 2.9 1.6 6 2 8.9.2 2.2.2 4.4-.5 6.4-.5 1.5-1.6 2.6-3.3 2.6-2.2 0-4.4-1.8-5.8-3.3-3.5-3.6-5.8-8.2-7.8-12.8l-.6-.9zm.7-2.5c1.6 4.4 3.6 8.6 6.6 12.2 1.1 1.5 2.2 2.9 3.6 4 .9.7 2.6 2 3.8 1.5 1.3-.5 1.6-2.6 1.6-3.8.2-2.4-.2-4.7-.5-6.9-.7-3.5-1.8-6.6-3.1-9.8-1.6-3.6-3.5-7.3-5.8-10.6-.7-.9-1.1-1.5-1.8-2.2-.7-.9-1.6-1.6-2.6-2.4-.5-.4-1.5-.9-2.2-.9-.9 0-1.6.4-2 1.3-.9 1.8-.7 4.6-.5 6.6.4 2.7 1.1 5.5 1.8 8.2l1.1 2.8z"/><path class="st2" d="M1529.7 155.1c-4.4-10.6-5.1-20.2-1.6-21.7l11.5-4.7c-3.5 1.5-2.7 11.1 1.6 21.7 4.4 10.6 10.8 17.9 14.2 16.4l-11.5 4.7c-3.4 1.5-9.8-5.8-14.2-16.4"/><path class="st61" d="M1529.7 152.9c1.5 3.8 3.3 7.5 5.5 10.9 1.1 1.6 2.2 3.1 3.6 4.6 1.1 1.1 2.9 2.9 4.7 2.2l8.6-3.6c-2.7-1.5-4.9-4.2-6.6-6.6-2.2-3.1-3.8-6.4-5.3-9.8-1.8-4.6-3.3-9.1-3.8-14-.2-2-.2-4 .5-6l-8.6 3.6c-.4.2-.4.2-.7.5-1.1 1.3-1.1 4-.9 5.7.2 3.3 1.1 6.6 2 9.7l1 2.8zm-.7 2.6c-4.6-10.9-5.3-21-1.1-22.8l11.5-4.7.5 1.5c-1.6.9-1.6 3.3-1.6 4.9 0 2 .4 3.8.7 5.8.9 4 2.2 8 3.8 11.7 1.6 3.5 3.5 6.7 5.8 9.8 1.1 1.3 2.2 2.6 3.5 3.5.9.5 2 1.1 3.1.9l.5 1.5-11.5 4.7c-3.9 1.6-10.7-5.9-15.2-16.8z"/><path class="st61" d="M1545.8 159.1l3.1-23.5c.7 1.1 1.5 2.4 2.2 3.6l-2.9 23.1c-1.3-1.6-.5-.7-1.8-2.6l-.6-.6z"/><path class="st2" d="M1418.2 284.9c8.6-6.2-1.3-14.9-6-21.1-4.6-6-9.7-12.8 2.2-17.5-7.1 2.7-1.3 9.5 3.6 15.9 3.1 4.2 6.7 9.1 6.2 14-.4.4-.9.9-1.5 1.3.5-.4.9-.7 1.5-1.1-.4 2.9-2.2 5.6-6 8.5"/><path class="st2" d="M1424.2 276.3c4.2-5.1-2.7-11.5-6.2-16-3.6-4.9-7.8-10.4 1.8-14-5.7 2.2-1.1 7.7 2.9 12.9 3.7 4.9 8.4 11.1 1.5 17.1"/><path class="st8" d="M1422.7 277.4c.5-.4 1.1-.9 1.5-1.3v.2c-.4.4-.9.8-1.5 1.1M1396.8 294l-.9.2-4.9-7.7 1.5-.1z"/><path class="st8" d="M1372.2 290.7c-.2 0-.4.2-.5.2-4.9 1.8-6.7 0-6.7 0l.9 6.9c2.2-1.6 4.2-2.2 6.4-2h.5l4.2-.4c2-3.5 5.7-5.8 9.7-5.8 3.5 0 6.7 1.8 8.7 4.6l21.9-1.5-1.6-11.5-43.5 9.5z"/><path class="st60" d="M1420.5 286.5c.4 2.9-.9 5.7-3.1 6l-1.5-10.8c2.1-.3 4.1 1.7 4.6 4.8"/><path class="st19" d="M838.7 278.7l11.5 19.9-14.6 8.4c-5.5 3.1-12.4 1.3-15.5-4.2l-.2-.2c-3.1-5.5-1.3-12.4 4.2-15.5l14.6-8.4z"/><path class="st60" d="M868.4 280.7l-11.5 19.9 14.6 8.4c5.5 3.1 12.4 1.3 15.5-4.2l.2-.2c3.1-5.5 1.3-12.4-4.2-15.5l-14.6-8.4z"/><path transform="rotate(-56.88 1574.552 194.594)" class="st60" d="M1550.8 173.3h47.6v42.5h-47.6z"/><path transform="rotate(-56.88 1576.775 197.917)" class="st5" d="M1567.3 183.7h19v28.4h-19z"/><path transform="rotate(-56.88 1578.864 194.854)" class="st60" d="M1576.1 180.6h5.5V209h-5.5z"/><path transform="rotate(-56.88 1590.649 169.563)" class="st5" d="M1584.6 146.2h12v46.7h-12z"/><path class="st5" d="M1184.3 779.4c-2.2 0-4 1.6-4.2 3.8 0 2.2 1.6 4 3.8 4.2 2.2 0 4-1.6 4.2-3.8.2-2.4-1.4-4.2-3.8-4.2m-29.9 11.7c3.3.2 6.2-2.4 6.2-5.8.2-3.3-2.4-6.2-5.8-6.2-3.3-.2-6.2 2.4-6.2 5.8 0 3.3 2.5 6.2 5.8 6.2zm52.5 7.8c-2.4-.2-4.4 1.8-4.4 4-.2 2.4 1.6 4.4 4 4.4s4.4-1.6 4.4-4c.2-2.4-1.6-4.2-4-4.4zm-72.7 13.5c2.2 0 4-1.6 4-3.8 0-2.2-1.6-4-3.8-4s-4 1.6-4 3.8c-.2 2.2 1.6 4 3.8 4zm12.4 55.4h-1.5c.5-.4.9-.5 1.5-1.1-.2.4 0 .8 0 1.1zm-20.1-12.7c-2.6-.2-4.6 1.8-4.7 4.4s1.8 4.6 4.4 4.7c2.6.2 4.6-1.8 4.7-4.4 0-2.5-2-4.7-4.4-4.7zm37.7 11.3v-.4c3.8 0 7.3-2.4 8.6-5.8 1.3.5 2.7 1.1 4.4 1.1 6.2.2 11.3-4.6 11.7-10.8.2-2.7-.7-5.3-2.4-7.3 1.5.7 2.9 1.3 4.7 1.5 1.8 0 3.3-.4 4.7-1.1 1.3 2.9 4.2 5.1 7.7 5.3 4.9.2 9.1-3.6 9.3-8.6.2-4.9-3.6-9.1-8.6-9.3-.9 0-1.8.2-2.7.4-.7-2.7-2.6-5.1-5.1-6.6 3.1-2.2 5.3-5.8 5.5-9.8.4-7.1-5.3-12.9-12.2-13.3h-1.3c0-.5.2-.9.2-1.5.2-5.8-4.4-10.8-10.2-10.9-1.8 0-3.6.4-5.1 1.1-1.3-.9-2.7-1.5-4.6-1.5-4.7-.2-8.7 3.5-8.9 8.2v.2c-1.6-1.1-3.6-1.8-5.7-2-6-.2-11.1 4.4-11.3 10.4 0 2.4.5 4.6 1.8 6.4-.7.7-1.5 1.6-1.8 2.7l-.7-.2c-3.8-.2-6.9 2.7-7.1 6.6 0 2 .7 4 2.2 5.3l-.4.2c-3.1 2-5.1 5.3-5.3 8.7-.5-.2-.9-.2-1.5-.2-4.6-.2-8.2 3.3-8.4 7.8-.2 4.6 3.3 8.4 7.8 8.4 3.5.2 6.6-2 7.8-5.1 2 1.1 4.2 1.6 6.4 1.5-.9 2.4-.9 5.1.5 7.3 1.5 2.2 3.6 3.5 6 3.8-.9.5-1.6 1.3-2.2 2.2-.5-2.7-2.7-4.7-5.7-4.9-3.3-.2-6.2 2.4-6.2 5.8 0 1.5.5 2.9 1.5 4h26.4v.4z"/><path class="st7" d="M1257.9 869.7l-2.4.7-3.6 1.1-5.1 1.5-1.3.4c-.7 2.4-2.7 4.4-5.5 5.1-2.6.7-5.3.2-7.3-1.5l-77.7 22.4c-2.4.7-4.9-.7-5.7-3.1v-.2c-.7-2.4.7-4.9 3.1-5.7l8.6-2.6h.4c-11.5-1.3-21.9-10-25.7-22.8l54.5-15.7c3.6 12.8-.5 25.7-9.5 33h.4l48.1-13.9 1.3-.4c.7-2.4 2.7-4.4 5.5-5.1 2.6-.7 5.3-.2 7.3 1.5l6.4-1.8 3.6-1.1 2.4-.7 3.6-1.1 4.7-1.5c1.5-.4 3.1.4 3.5 2l.9 3.3c.4 1.5-.4 3.1-2 3.5l-4.7 1.5-3.8 1.2z"/><path class="st19" d="M846.5 274.3c1.3 0 2.2.9 2.2 2.2s-.9 2.2-2.2 2.2c-1.3 0-2.2-.9-2.2-2.2-.1-1.3 1-2.2 2.2-2.2m7.5 16.1c1.3 0 2.2.9 2.2 2.2s-.9 2.2-2.2 2.2c-1.3 0-2.2-.9-2.2-2.2 0-1.3.9-2.2 2.2-2.2zm16.6-31c2.4 0 4.4 2 4.4 4.4 0 2.4-2 4.4-4.4 4.4-2.4 0-4.4-2-4.4-4.4-.2-2.4 1.8-4.4 4.4-4.4zm-18.4-1.7c2.4 0 4.4 2 4.4 4.4 0 2.4-2 4.4-4.4 4.4-2.4 0-4.4-2-4.4-4.4-.2-2.4 1.8-4.4 4.4-4.4zm-9.1-8.7c1.3 0 2.2.9 2.2 2.2s-.9 2.2-2.2 2.2c-1.3 0-2.2-.9-2.2-2.2 0-1.3.9-2.2 2.2-2.2zm12.9-.6c1.3 0 2.2.9 2.2 2.2s-.9 2.2-2.2 2.2c-1.3 0-2.2-.9-2.2-2.2 0-1.2.9-2.2 2.2-2.2zm10.2 3.1c1.3 0 2.2.9 2.2 2.2 0 1.3-.9 2.2-2.2 2.2-1.3 0-2.2-.9-2.2-2.2 0-1.2 1.1-2.2 2.2-2.2zm13.1-6.5c1.3 0 2.2.9 2.2 2.2 0 1.3-.9 2.2-2.2 2.2-1.3 0-2.2-.9-2.2-2.2-.1-1.1 1-2.2 2.2-2.2zm26.8-28.3c2.4 0 4.4 2 4.4 4.4 0 2.4-2 4.4-4.4 4.4-2.4 0-4.4-2-4.4-4.4-.1-2.4 1.9-4.4 4.4-4.4zm-59.9 70.6c1.3 0 2.2.9 2.2 2.2s-.9 2.2-2.2 2.2c-1.3 0-2.2-.9-2.2-2.2s1.1-2.2 2.2-2.2zm9.3-11.1c2.4 0 4.4 2 4.4 4.4 0 2.4-2 4.4-4.4 4.4-2.4 0-4.4-2-4.4-4.4s2-4.4 4.4-4.4z"/><path class="st60" d="M914.5 198.7c1.3 0 2.2.9 2.2 2.2 0 1.3-.9 2.2-2.2 2.2-1.3 0-2.2-.9-2.2-2.2 0-1.1.9-2.2 2.2-2.2m-25.3 22.2c1.3 0 2.2.9 2.2 2.2s-.9 2.2-2.2 2.2c-1.3 0-2.2-.9-2.2-2.2 0-1.1.9-2.2 2.2-2.2zm4.2 17.9c1.6 0 2.9 1.3 2.9 2.9 0 1.6-1.3 2.9-2.9 2.9s-2.9-1.3-2.9-2.9c0-1.6 1.2-2.9 2.9-2.9zM860.6 265c1.3 0 2.2.9 2.2 2.2s-.9 2.2-2.2 2.2c-1.3 0-2.2-.9-2.2-2.2-.2-1.3.9-2.2 2.2-2.2z"/></svg>