<?xml version="1.0" encoding="utf-8"?>
<!-- Generator: Adobe Illustrator 23.0.1, SVG Export Plug-In . SVG Version: 6.00 Build 0)  -->
<svg version="1.2" baseProfile="tiny" id="svg-4" xmlns="http://www.w3.org/2000/svg"
     xmlns:xlink="http://www.w3.org/1999/xlink"
     x="0px" y="0px" viewBox="0 0 1920 1080" xml:space="preserve">
<path id="spot-3" fill-rule="evenodd" fill="#E5E6E7" d="M1095.5,765.9c-159.7-3.6-222.9,68.5-161.1,78.4
	c17.5,2.7,283.6-17.7,220.9,21.7c-94.4,59.2,3.6,56.7,73.1,36.3c121.6-35.7,329,32.4,402.5-30.6c56.7-48.5-174.6-67.3,10.9-59.6
	c43.4,1.8,80.2-20.8,6.7-66.3c-74.4-46.1-41.7-30.1-173.9-48.9c-6.2-0.9-19.1-3.6-36.1-6.9c-2.9-143.5-272.9-83.1-341.6-84.6
	c-80-1.8,59.1-84-249.7-42.5c-211.6,28.4-115.4,63.4-113.7,63.1c68.9-14,8.7,90.6,103,99C972.9,736.6,997.8,669.3,1095.5,765.9"/>
    <path id="spot-2" fill-rule="evenodd" fill="#DAD8D6" d="M242.3,540.1c91.1,0.4,120.5,191,122.9,64.5c0.9-50.1,67.3,19.7,58.3-97.9
	c-6.6-87.5,190.8-18.2,88-289.6c-41-108.3-185.6-158.6-156.8,35.4c5.3,35.7-0.2,165.7-70.2,92.8c-40.8-42.5-84.2,16.6-61.1,93.9
	C228.8,457.5,231.2,549.6,242.3,540.1"/>
    <path id="spot-1" fill-rule="evenodd" fill="#DAD8D6" d="M346.5,963.5C244.4,883.9,210.9,794,220,674.6c1.3-16,5.3-43.8,18.6-67
	c5.2-7.7,12.7-2.8,16.2-0.7c31.6,19,34.8,45.4,41.4,75.5c4,18.4,29.2,174.3,73.3,112.3c16-22.6-11.5-192.5,59.4-120.1
	c27.2,27.7-17.3,157.5,56.1,133.2c55-18.4,25.2-152.6,83.5-28.8c40.1,84.9,56.7,0.4,47.8-65.1c-6-43.6-13.8-217.8,2.6-253.1
	c28.8-62,64,41.4,62.5,72.2c-1.6,33.7-1.5,145.5,6.7,174.3c22.2,78.7,37.7-53.8,58.3-50.5c2.5,1.1,3.4,1.6,4.9,3.1
	c43.2,41.6,9.3,191.8,59.6,190.5c25-0.5,23.3-181,36.1-55.8c12.2,118.8,87.1,205.2-118.5,238.6c-58,9.5-150.9-3.3-200.7-35.7
	C482.2,968,392.9,997.5,346.5,963.5L346.5,963.5z"/>
    <path id="spot-line" fill="#DAD8D6" d="M1614.8,66.4c-13.9-6.5-43.3-12.4-59.2-27.2c-5.1-4.9-9.9-9.3-14.6-12.4
	c-15.8-10.8-30.4-8.1-57.4,32.4c-8.4,12.6-29.3,13.7-52.1,14.8c-43,2.3-92.2,4.9-90,79.8c0.2,6.1,1.4,12.4,3.8,19
	c4,11.5,11.1,23.4,20.2,32.1c9.3,9.1,20.6,15.2,33,14.8c3.8-0.2,7.5-0.9,11.3-2.2c87-30.6,97.2-49.2,108.3-69.6
	c7.1-13.1,14.5-26.9,46.8-45.9c4.8-3,9.9-2.8,15.7-2.6c10.7,0.3,23.3,0.7,40.8-13.9C1621.4,85.5,1628.6,72.8,1614.8,66.4z
	 M1581.3,91.4c-6.9-0.1-13.1-0.3-19.7,3.5c-34.1,20.1-42.1,34.9-49.8,48.9c-10.4,19.2-19.9,36.5-104.1,66.2c-3.1,1.1-6,1.6-8.9,1.6
	c-10,0.2-19.7-4.9-27.5-12.6c-8.2-8.1-14.8-18.6-18.4-29.2c-2.2-5.8-3.3-11.5-3.5-16.6c-2-67.4,43.2-69.8,82.8-71.8
	c24.7-1.2,47.5-2.3,58.1-18.2c23.4-35,34.9-38.1,46.7-30.3c4.2,3,8.8,7.1,13.7,11.7c14.4,13.5,63.4,24.9,64.7,33.7
	C1616.7,87.1,1590,91.9,1581.3,91.4z"/>
    <path id="svg-4-pills-spot" fill-rule="evenodd" fill="#DAD8D6"/>
    <path id="svg-4-pills-spot-start" fill="none" d="M1673.7,250c11.1-12.4,22.4-43.7-14.4-66.2
	c-37.5-22.8,80-82.4,23.5-109.5c-19.3-9.3-64.9,8.4-113.2-31.5c-77.7-64.2-56.7,41.6-92.4,55.8c-46.3,18.6-81.3-45.6-118.7,22.8
	c-39,71.1,124.7,163.4,148.3,172.1S1597.2,319.9,1673.7,250z"/>
    <path id="svg-4-pills-spot-end" fill="none" d="M1501.4,62.3c9.5,5-93-32.4-92.7,8.3
	c0.4,40.6,34.8,34.9,12.7,66.6c-22.1,31.7-70.1,107.8-20.7,110.2c49.3,2.4,51.9-44,89.9-8.5c38,35.5,49.1,42.6,87,24.3
	c37.9-18.3,145.4-64.1,111.3-141.1c-34.1-77-105.9-73-139.2-59C1516.4,77.1,1491.9,57.3,1501.4,62.3z"/>
    <g id="svg-4-girl-02">
	<path fill-rule="evenodd" fill="#929497" d="M1289.8,784.7c-2.7-37.2,3.5-70,1.5-101.9c-2-31.5-45-31.7-64-88.6
		c-9.1-27.7-18.6-43.6-21-72.5c-0.4-5.3-7.7-23-11.5-26.2l-1.5-2.7c0-144.2,20.6-71.8,55-98.6c8.4,0.9,53.6,2.6,63.1-5.3
		c33.7,14.6,69.8,8.7,88.4,21.9c11.8,8.4,15.3,47,14.2,69.4c-2.4,43-10,95.9-20.2,133.6c-16.2,60.5-46.7,118.5-91.1,156.6
		C1300.8,772.3,1291.1,784.3,1289.8,784.7"/>
        <g>
		<path fill="none" stroke="#838383" stroke-width="2" stroke-linecap="round" stroke-linejoin="round"
              stroke-miterlimit="10" d="
			M1345,703.5c0.4,6.2,0.9,12.3,1.3,17.6c-10.3,21.3-29.7,32-47.3,44.9"/>
            <path fill="none" stroke="#838383" stroke-width="2" stroke-linecap="round" stroke-linejoin="round"
                  stroke-miterlimit="10" d="
			M1345,715.5c-11.2,10.7-22.6,21.2-35.1,30.4c-2.2,1.6-2.3,4.7-4.9,5.6"/>
            <path fill="none" stroke="#838383" stroke-width="2" stroke-linecap="round" stroke-linejoin="round"
                  stroke-miterlimit="10" d="
			M1277,588.5c3.7,4.6,9.4,6.3,14.1,9.3c23.9,15.1,39.9,35.7,46.9,63.2c0.1,0.4,0.6,0.7,1,1"/>
            <path fill="none" stroke="#838383" stroke-width="2" stroke-linecap="round" stroke-linejoin="round"
                  stroke-miterlimit="10" d="
			M1345,700c-11.3,8.9-23.6,16.2-35.5,24c-0.9,0.6-1.7,1.3-2.5,2"/>
            <path fill="none" stroke="#838383" stroke-width="2" stroke-linecap="round" stroke-linejoin="round"
                  stroke-miterlimit="10" d="
			M1342,682.5c-9.7,10.7-21.4,18.6-34.5,24.5"/>
            <path fill="none" stroke="#838383" stroke-width="2" stroke-linecap="round" stroke-linejoin="round"
                  stroke-miterlimit="10" d="
			M1345,707.5c-11,7.8-22,15.7-33,23.5"/>
            <path fill="none" stroke="#838383" stroke-width="2" stroke-linecap="round" stroke-linejoin="round"
                  stroke-miterlimit="10" d="
			M1338.5,731.5c-1.5-0.3-2.4,0.6-3.5,1.5c-7.2,5.9-14.9,11.2-22.9,16.1c-1.7,1-3.2,1.5-5,1.4"/>
            <path fill="none" stroke="#838383" stroke-width="2" stroke-linecap="round" stroke-linejoin="round"
                  stroke-miterlimit="10" d="
			M1337.5,695.5c-3-0.7-4.9,1.6-7,3c-8,5.5-15.6,11.6-24,16.5"/>
            <path fill="none" stroke="#838383" stroke-width="2" stroke-linecap="round" stroke-linejoin="round"
                  stroke-miterlimit="10" d="
			M1341.5,672c-4.7,1.9-7.3,6.5-11.5,9.1c-6.2,3.9-11.7,9-18.5,11.9"/>
            <path fill="none" stroke="#838383" stroke-width="2" stroke-linecap="round" stroke-linejoin="round"
                  stroke-miterlimit="10" d="
			M1342.5,679c-6.1,2.3-10.3,7.5-15.9,10.6c-4.5,2.5-8.4,6.2-12.6,9.4"/>
            <path fill="none" stroke="#838383" stroke-width="2" stroke-linecap="round" stroke-linejoin="round"
                  stroke-miterlimit="10" d="
			M1319,624c-9.1,4.7-14.9,12.4-20.1,21c-0.8,1.2-2.3,2-3.4,3"/>
            <path fill="none" stroke="#838383" stroke-width="2" stroke-linecap="round" stroke-linejoin="round"
                  stroke-miterlimit="10" d="
			M1344.5,693c-4.3-0.2-5.7,3.1-8.2,5.8c-5.1,5.5-10.9,10.6-17.3,14.7c-1.3,0.8-2.4,1.6-3,3"/>
            <path fill="none" stroke="#838383" stroke-width="2" stroke-linecap="round" stroke-linejoin="round"
                  stroke-miterlimit="10" d="
			M1315,619c-6.1,5.4-13,9.9-18,16.5"/>
            <path fill="none" stroke="#838383" stroke-width="2" stroke-linecap="round" stroke-linejoin="round"
                  stroke-miterlimit="10" d="
			M1301.5,607c-4.8,4.6-9,9.8-15,13"/>
            <path fill="none" stroke="#838383" stroke-width="2" stroke-linecap="round" stroke-linejoin="round"
                  stroke-miterlimit="10" d="
			M1308,612.5c-4.4,4.7-10.2,7.8-14,13"/>
            <path fill="none" stroke="#838383" stroke-width="2" stroke-linecap="round" stroke-linejoin="round"
                  stroke-miterlimit="10" d="
			M1303.5,751.5c1.2-0.2,2.1,0.6,1.4,1.4c-1.6,2-3.6,3.8-6.4,4.1"/>
	</g>
        <path fill-rule="evenodd" fill="#1B1B1B" d="M1133.6,468.3c-62.2,10-32.8,15.1-41.6,56.1c-5.5,25.9-32.4,20.1-16.6,56
		c2.7,6.4,18.6,23.5,24.1,25.3c29.2,10,64.2-15.3,68.7-44.1c11.3-71.6,44.1-49.6,49.2-65.3c3.8-11.8-39-43-52.3-43.2
		C1150.8,453.1,1140,467.2,1133.6,468.3L1133.6,468.3z"/>
        <path fill="none" stroke="#231F20" stroke-width="1.033" stroke-miterlimit="22.926" d="M1133.6,468.3
		c-62.2,10-32.8,15.1-41.6,56.1c-5.5,25.9-32.4,20.1-16.6,56c2.7,6.4,18.6,23.5,24.1,25.3c29.2,10,64.2-15.3,68.7-44.1
		c11.3-71.6,44.1-49.6,49.2-65.3c3.8-11.8-39-43-52.3-43.2C1150.8,453.1,1140,467.2,1133.6,468.3L1133.6,468.3z"/>
        <path fill-rule="evenodd" fill="#1B1B1B" d="M1165,453.3c17.1,15.9,45,18.8,19.7,53.4c-24.1,33,38.8,31.5-3.3,80
		c-20.8,23.7,6.2,41.4-20.6,71.1c-2,2.2-20.4,56.5-32.4,74.6c-14.9,22.6,6.6,38.8-2.4,66.7c-1.1,3.6-1.5,27.9-6.6,26.4
		c-23.7-6.9,155.3-19,176.8-47.8c43.6-58,16.4-134,1.3-162.2c-12.9-24.1-64.7-107.4-80.4-134.2
		C1215.6,478.5,1170.3,458.1,1165,453.3L1165,453.3z"/>
        <path fill="none" stroke="#231F20" stroke-width="1.033" stroke-miterlimit="22.926" d="M1165,453.3c17.1,15.9,45,18.8,19.7,53.4
		c-24.1,33,38.8,31.5-3.3,80c-20.8,23.7,6.2,41.4-20.6,71.1c-2,2.2-20.4,56.5-32.4,74.6c-14.9,22.6,6.6,38.8-2.4,66.7
		c-1.1,3.6-1.5,27.9-6.6,26.4c-23.7-6.9,155.3-19,176.8-47.8c43.6-58,16.4-134,1.3-162.2c-12.9-24.1-64.7-107.4-80.4-134.2
		C1215.6,478.5,1170.3,458.1,1165,453.3L1165,453.3z"/>
        <path fill-rule="evenodd" fill="#11110F" d="M1185.9,763.2c30.3,23.3,22.2,11.7,35.5,20.4c-3.3,6.9-27,5.7-34.8-17.1
		C1185.2,762.3,1184.3,761.9,1185.9,763.2 M1197.6,717.8l2.7,6.2c21.1,46.3,95.9,46.3,49.9,47.2c-24.1,0.5-47.2-9.8-49.8-34.6
		C1199.6,728.9,1197.6,728.4,1197.6,717.8L1197.6,717.8z M1152.4,803.8c20.6-35.2,29.2-94.8,33.4-135.3c0.2-1.6,2-9.5,2.7-10.4
		c-18.6,37-47.6,91.9-37.7,134.3C1151.8,796.7,1151.5,799.8,1152.4,803.8z"/>
        <path fill-rule="evenodd" fill="#FFFFFF" d="M1168.6,483.4c-2.9-6.6-42.3-24.2-55.2,7.5c-19.3,47.4-20.6,261.9-47,295.8
		c-3.3,4.2,28.8,0.2,34.3-8.4c12.8-20.2,41.7-162,53.2-198.3c8.6-27.5,8.9-53.2,18.6-78.2c1.1-2.7,3.8-17.7-3.5-17L1168.6,483.4
		L1168.6,483.4z"/>
        <path fill="none" stroke="#231F20" stroke-width="1.033" stroke-miterlimit="22.926" d="M1168.6,483.4c-2.9-6.6-42.3-24.2-55.2,7.5
		c-19.3,47.4-20.6,261.9-47,295.8c-3.3,4.2,28.8,0.2,34.3-8.4c12.8-20.2,41.7-162,53.2-198.3c8.6-27.5,8.9-53.2,18.6-78.2
		c1.1-2.7,3.8-17.7-3.5-17L1168.6,483.4L1168.6,483.4z"/>
        <path fill-rule="evenodd" fill="#484645" d="M1071.3,780c14.2,7.3,42.5,4.7,54.9-6.9c1.1-1.1,2.2-0.7,1.8-1.8
		c4.4,31-7.5,40.5-7.7,40.3c-20.1,8.2-74.9,5.3-100.3-15.3C1032.3,782.3,1065.8,777.8,1071.3,780"/>
        <path fill-rule="evenodd" fill="#FFFFFF" d="M1191.6,484.1c-6.9-20.4-26.8-7.1-34.8,13.5c-12.8,33-29.3,94.1-43.2,168.6
		c-5.5,28.8-17.7,100.3-40.6,122.5c-0.2,0.2,43,9.5,57.2-22.1c13.3-29.9,70.4-171.7,69.6-203.8c-0.5-25.3,6.6-37.7,0-55.2
		C1194,492.9,1195.2,494.9,1191.6,484.1L1191.6,484.1z"/>
        <path fill="none" stroke="#231F20" stroke-width="1.033" stroke-miterlimit="22.926" d="M1191.6,484.1
		c-6.9-20.4-26.8-7.1-34.8,13.5c-12.8,33-29.3,94.1-43.2,168.6c-5.5,28.8-17.7,100.3-40.6,122.5c-0.2,0.2,43,9.5,57.2-22.1
		c13.3-29.9,70.4-171.7,69.6-203.8c-0.5-25.3,6.6-37.7,0-55.2C1194,492.9,1195.2,494.9,1191.6,484.1L1191.6,484.1z"/>
        <path fill-rule="evenodd" fill="#000001" d="M1247.7,333c-0.4,0-52.3-6.4-48.7,5.8c0.4,17-0.4,33.4-0.4,50.3
		c25.3,3.5,27.9,2.9,49.4,0.4c-1.1-18.8-1.5-28.4-0.4-47.4C1248.1,338.5,1247.9,336.3,1247.7,333"/>
        <g>
		<path fill="#323232" d="M1210.2,391.7c-1.8-0.3-2.9-0.5-4.7-0.8c0-19,0-38.3,0-57.6c0.4,0,0.8,0,1.2,0c0.5,16.9,1,33.7,1.6,50.6
			c0.2,0,0.5,0,0.7,0c0-12.2,0-24.4,0-36.6c0.4,0,0.8,0,1.2,0C1210.2,362.1,1210.2,376.8,1210.2,391.7z"/>
            <ellipse fill="#323232" cx="1236" cy="373.7" rx="0.7" ry="26"/>
            <path fill="#323232" d="M1214,391.8c0.5-9.8,1-19.7,1.5-29.5c0.1,0,0.2,0,0.4,0c0,9.8,0,19.7,0,29.5
			C1215.2,391.8,1214.6,391.8,1214,391.8z"/>
            <path fill="#323232" d="M1225,392.7c0-10.4,0-20.9,0-31.3c0.3,0,0.6,0,0.9-0.1c0,10.5,0,20.9,0,31.4
			C1225.6,392.7,1225.3,392.7,1225,392.7z"/>
            <path fill="#323232" d="M1221.2,364.3c0,9.5,0,18.9,0,28.4c-0.2,0-0.4,0-0.6,0c0-9.4,0-18.8,0-28.2
			C1220.8,364.5,1221,364.4,1221.2,364.3z"/>
	</g>
        <path fill-rule="evenodd" fill="#FFFFFF" d="M1206,253.4c-14.9,22.1-9.7,33.4-13.5,55.4c-1.6,9.5,6.6,59.4,17.7,65.8
		c13.7,7.8,56.5-7.5,68.9-15.7c14.4-9.5,30.8-74,11.5-96.1c-20.2-23-53.8-23.9-80.2-12C1209.3,251.2,1206.5,252.5,1206,253.4
		L1206,253.4z"/>
        <path fill="none" stroke="#000001" stroke-width="2.583" stroke-miterlimit="22.926" d="M1206,253.4c-14.9,22.1-9.7,33.4-13.5,55.4
		c-1.6,9.5,6.6,59.4,17.7,65.8c13.7,7.8,56.5-7.5,68.9-15.7c14.4-9.5,30.8-74,11.5-96.1c-20.2-23-53.8-23.9-80.2-12
		C1209.3,251.2,1206.5,252.5,1206,253.4L1206,253.4z"/>
        <path fill-rule="evenodd" fill="#000001" d="M1232.6,342.7c-8.2-2.4-19.5-4.6-27.5-1.1c-1.1,0.5,0,0.4-1.8,0.5
		C1209.6,329,1223.1,337.6,1232.6,342.7 M1221.3,344.7c0.4,1.3-14.2,1.5-14.9,0.4c3.6,2.6,10.6,2.9,14.6,0L1221.3,344.7z"/>
        <path fill-rule="evenodd" fill="#929497" d="M1244.8,381.3c1.1,10.8,4.2,26.4,12.9,33.4c12.6,10,59.8-4,56.5-24.6
		c-1.3-8.4-2.7-13.5-8.9-33.2c-2-6.6-14.6-3.3-27.7,2.2c-8.2,3.5-16.8,7.7-23,10.6C1246.1,373.9,1243.7,371.1,1244.8,381.3"/>
        <g>
		<path fill="none" stroke="#B6B6B6" stroke-width="2" stroke-linecap="round" stroke-linejoin="round"
              stroke-miterlimit="10" d="
			M1299.5,411c-2.7-4.3-3.4-9.4-5.5-14c-4.8-10.6-9.6-21.2-16-31c-1.2-1.9-1.6-4.9-5.1-3c8,16.1,16.6,32,21.1,49.5
			c0.1,0.4,1,0.7,1.5,1"/>
            <path fill="none" stroke="#B6B6B6" stroke-width="2" stroke-linecap="round" stroke-linejoin="round"
                  stroke-miterlimit="10" d="
			M1285,357.5c1.3,5.2,4.4,9.6,6.6,14.5c5.3,11.8,9.6,24,14.4,36"/>
            <path fill="none" stroke="#B6B6B6" stroke-width="2" stroke-linecap="round" stroke-linejoin="round"
                  stroke-miterlimit="10" d="
			M1268,364.5c1.8,4.3,3.4,8.8,5.5,13c6.2,12.1,10.7,24.9,15.5,37.5"/>
            <path fill="none" stroke="#B6B6B6" stroke-width="2" stroke-linecap="round" stroke-linejoin="round"
                  stroke-miterlimit="10" d="
			M1280,360c9.3,15.9,16.2,32.9,23,50"/>
            <path fill="none" stroke="#B6B6B6" stroke-width="2" stroke-linecap="round" stroke-linejoin="round"
                  stroke-miterlimit="10" d="
			M1291,355.5c4.8,12,9.8,24,14.5,36c1.6,4.2,2.7,8.6,4,13"/>
            <path fill="none" stroke="#B6B6B6" stroke-width="2" stroke-linecap="round" stroke-linejoin="round"
                  stroke-miterlimit="10" d="
			M1256,370.5c-0.7,17.5,5.8,32.9,14.5,47.5c0.2,0.3,0.6,0.3,1,0.5"/>
            <path fill="none" stroke="#B6B6B6" stroke-width="2" stroke-linecap="round" stroke-linejoin="round"
                  stroke-miterlimit="10" d="
			M1296,354.5c5,12.2,11.9,23.5,15.1,36.5c0.9,3.9,2.6,7.5,1.4,11.5"/>
            <path fill="none" stroke="#B6B6B6" stroke-width="2" stroke-linecap="round" stroke-linejoin="round"
                  stroke-miterlimit="10" d="
			M1259,370c2.4,8.6,4.8,17.2,8,25.5c2.9,7.6,5.2,15.5,10.5,22"/>
            <path fill="none" stroke="#B6B6B6" stroke-width="2" stroke-linecap="round" stroke-linejoin="round"
                  stroke-miterlimit="10" d="
			M1250,372.5c1.6,15.1,5.6,29.4,13.5,42.5c0.7,1.1,1.6,2,2.5,3"/>
            <path fill="none" stroke="#B6B6B6" stroke-width="2" stroke-linecap="round" stroke-linejoin="round"
                  stroke-miterlimit="10" d="
			M1266.5,373.5c3.1,11.3,8.8,21.6,14,32c1.8,3.6,3.7,7,4.5,11"/>
            <path fill="none" stroke="#B6B6B6" stroke-width="2" stroke-linecap="round" stroke-linejoin="round"
                  stroke-miterlimit="10" d="
			M1265,366.5c-0.1,2.7,2.9,5.7-0.9,8.2c-0.5,0.3,0.4,2.9,0.9,4.3c4.9,12.8,9,26,16,38"/>
            <path fill="none" stroke="#B6B6B6" stroke-width="2" stroke-linecap="round" stroke-linejoin="round"
                  stroke-miterlimit="10" d="
			M1262,367.5c-0.1,2.4,0.9,4.5,2,6.5"/>
	</g>
        <path fill-rule="evenodd" fill="#FFFFFF" d="M1128.5,651.6c-15.1-21-6.7-18.6-7.8-28.4c-10,8.6-13.7,15.3-14,26.6
		c-0.4,12.2,11.1,24.4,20.2,31.4c3.5,2.6,10,7.7,13.9,3.3c11.3-12.8,9.3-14.2,2.2-27.5c-4.4-8.4-8.2-11.8-13.3-19.1
		c0,0-2.9-5.3-2.9-5.5C1120.7,640.5,1127.6,647.1,1128.5,651.6L1128.5,651.6z"/>
        <path fill="none" stroke="#231F20" stroke-width="1.033" stroke-miterlimit="22.926" d="M1128.5,651.6c-15.1-21-6.7-18.6-7.8-28.4
		c-10,8.6-13.7,15.3-14,26.6c-0.4,12.2,11.1,24.4,20.2,31.4c3.5,2.6,10,7.7,13.9,3.3c11.3-12.8,9.3-14.2,2.2-27.5
		c-4.4-8.4-8.2-11.8-13.3-19.1c0,0-2.9-5.3-2.9-5.5C1120.7,640.5,1127.6,647.1,1128.5,651.6L1128.5,651.6z"/>
        <path fill-rule="evenodd" fill="#6D6E70" d="M1351.4,305.1c-12.9-12.4-9.5-4.2-13.1-7.1c5.3-1.6,7.7,5.1,21-6.7
		c-9.5-6.2-19-7.3-28.4-0.2c-3.1-0.5-5.5,0.9-5.5,6c0,2.2,0.5,3.3,0.9,5.7C1335.2,306,1342.3,309.5,1351.4,305.1"/>
        <g>
		<path fill="#D1D1D1" d="M1338.9,293.3c3.6,0,6.5,0,10,0c-1-2.1-1.8-3.8-2.8-5.9c5.3-0.7,9.3,2,13.4,3.9c0.4,0.2,0.9,1,0.9,1.5
			c-0.2,1.8-11,8.1-11.7,6.8C1346.4,296,1341.8,297.1,1338.9,293.3z"/>
	</g>
        <path fill-rule="evenodd" fill="#000001"
              d="M1220,324.8c-5.8-7.3-9.5-1.5-2.6,1.6C1218.6,326.8,1220.9,325.9,1220,324.8"/>
        <path fill="#000001" d="M1210.5,294c0.2-0.7,0.9-1.1,1.6-0.9s1.1,0.9,0.9,1.6c-0.4,1.5-1.6,4.4-2.9,7.8c-3.1,7.8-7.3,18.4-6.2,20.4
		c0.4,0.7,1.1,1.3,2,1.8c1.5,0.9,4.4,2.6,4.4,2.6s-4.7,0.4-5.8-0.4c-1.3-0.7-2.2-1.6-2.9-2.9c-1.6-3.1,2.9-14.4,6.2-22.6
		C1208.9,298.2,1210.2,295.5,1210.5,294 M1225.1,327.4c-0.5,0.4-1.5,0.4-1.8-0.2c-0.4-0.5-0.4-1.5,0.2-1.8c4.6-3.5,0.7-8.4,0.7-8.4
		C1225.7,316.6,1231.1,322.8,1225.1,327.4L1225.1,327.4z"/>
        <path fill-rule="evenodd" fill="#000001" d="M1219.1,300.4v2.6c0.5,8.9,7.7,15.9,15.9,15.3s14.4-8.2,13.9-17.1c0-0.5,0-0.9-0.2-1.5
		c1.5,0,2.6-0.2,3.1-0.2c19.5-1.8,44.1,7.5,51.6,6.9c12.8-0.7-29.7-11.1-55.6-10.8c-2.4-6.2-8.2-10.2-14.8-9.8
		c-5.8,0.4-10.8,4.4-12.8,9.8c-2-1.5-9.1-1.6-10.8,0.4c-2.6-5.7-8.2-9.5-14.4-9.1c-8.2,0.5-14.4,8.2-13.9,17.1s7.7,15.9,15.9,15.3
		c2.2-0.2,4.4-1.1,6.2-2.6c1.1-0.9,1.8-4.9,3.3-8.7c1.5-3.8,3.5-7.3,3.3-8.4C1213.1,297.1,1216.9,299.7,1219.1,300.4"/>
        <path fill-rule="evenodd" fill="#000001" d="M1194.5,287.1c-5.1-9.1,16.4-9.7,10.4-2.9C1203.6,285.6,1195.8,285.4,1194.5,287.1
		 M1257.8,284.4c-14.8-14.9-49.2-3.6-22.1-1.6c12.8,0.9,11.8,1.5,22.6,3.5C1260.3,286.5,1257.8,284.5,1257.8,284.4z"/>
        <path fill-rule="evenodd" fill="#000001" d="M1345.1,376.8c-0.9-17.9-12.9-88.8-25.3-102.8c-28.4-32.4-54.9-51.8-99.9-34.8
		c-14.9,5.7-14.6,13.1-20.8,17.9l1.1,1.3c-0.5,1.3-10,21.3-8,20.6c2.7-0.9,10.6-2.4,11.1,0.9c4.7-17,5.1-13.7,3.1-1.6
		c-0.2,0.9,6.4,1.6,6.9,1.6c7.5-19.1,1.3-11.7,21.7-13.9c5.5-0.5-2,9.8,2.6,8.4c5.1-1.5,4.6,4.6,5.1-5.7c0.2,0.4,7.3,17.5,8.2,12.2
		c2.9-18.2,0,1.3,4.9-2.6c4.2,4.6-7.3,9.8,11.7,8.7c4.2-13.7,2.7-7.1,5.5,4.2c5.5,23.7-11.3,71.1-9.1,94.2c0.2,1.3,0.4,1.3-0.7,1.3
		c7.8,4.2,62.9-8,67.4-6.9l0.9-0.4c2.7-21.3,1.1-9.7,4.9-0.2c0.2,0.5,0.2,0.2,0.4,0.7C1338.5,379.1,1342.7,378.4,1345.1,376.8"/>
        <g>
		<path fill="#171717" d="M1315.8,312.3c-0.3,23.5-2.4,47.1,3,70.6c-3.2-2.1-4.6-8.2-4.8-18.1c-0.1-6.6-0.9-13.2-0.9-19.8
			c0.1-6.6,0.8-13.2,1.3-19.7c-0.5-0.1-1.1-0.1-1.6-0.2c-0.6,6.3-1.3,12.5-1.8,18.8c-0.5,6.8-1,13.5-0.9,20.3c0.1,6.5,1,13,1.5,19.5
			c-0.5,0.1-1,0.3-1.5,0.4c-0.7-3.6-1.5-7.2-2-10.9c-2-13.9,1.1-27.5,1.7-41.2c0.6-13.5-1.3-27-1.9-40.5c-0.1-2,1-4.1,1.1-6.2
			c0.1-2.5-0.2-5-0.4-7.5c0.5-0.1,1-0.2,1.5-0.2c1.5,9.2,2.9,18.3,4.4,27.5c0.2,0,0.5,0,0.7,0c0-4.6,0-9.1,0-13.7c0.1,0,0.3,0,0.4,0
			c2.9,30.1,5.8,60.2,8.6,89.9c-1.3-0.4-3.6-11.1-4.3-21.3c-0.5-7.8-2.1-15.6-2.8-23.4C1316.4,328.4,1316.2,320.3,1315.8,312.3z"/>
            <path fill="#171717" d="M1293.9,388c-0.9-2.5-1.5-4-1.9-5.6c-4.4-16.1-3.6-32.2-1.2-48.5c1.6-10.4,2.6-20.9,3-31.4
			c0.3-6.2-1.2-12.4-1.7-18.6c-0.2-1.9,0-3.8,1.2-5.9c0.6,1.2,1.5,2.4,1.6,3.6c1.1,16.8,1.8,33.4-1.6,50.2
			c-3.4,17-3.7,34.3,1.3,51.3c0.2,0.8,0.3,1.6,0.3,2.4C1294.9,386,1294.6,386.4,1293.9,388z"/>
            <path fill="#171717" d="M1276,264.3c10.3,37.2,7.8,74.3-0.8,109.3c-0.9-4,0.1-14.4,2.3-24.7c3.2-15.3,4.9-30.8,2.6-46.5
			c-1.6-10.7-2.8-21.4-4-32.2C1275.8,268.2,1276,266.3,1276,264.3z"/>
            <path fill="#171717" d="M1340.2,380.7c-0.1-27.4-8.6-52.1-13.3-77.5c8.1,24.6,14,49.6,15.9,75.5
			C1342.8,379.1,1341.6,379.6,1340.2,380.7z"/>
            <path fill="#171717" d="M1285,355.3c1.3-14.2,3.2-28.4,3.8-42.7c0.4-10.8-0.8-21.7-1.3-32.6c-0.1-2.6-0.3-5.1,0-7.7
			c7.1,27.9,0.2,55.7-0.9,83.5C1286,355.6,1285.5,355.4,1285,355.3z"/>
            <path fill="#171717" d="M1301,285.4c-1.5,22.2-3.1,44.4-4.6,66.6c-0.6,0-1.2-0.1-1.8-0.1c1.4-22.2,2.8-44.5,4.2-66.7
			C1299.5,285.2,1300.2,285.3,1301,285.4z"/>
            <path fill="#171717" d="M1328.6,328.1c4.7,16.9,10.1,34,9.1,52.2C1334.7,362.9,1331.7,345.5,1328.6,328.1z"/>
            <path fill="#171717" d="M1289,387c-3.3-8-2.3-16.9-4-25.2c0.4-0.1,0.9-0.2,1.3-0.2c1.4,8.4,2.8,16.8,4.2,25.1
			C1290,386.8,1289.5,386.9,1289,387z"/>
	</g>
        <path fill-rule="evenodd" fill="#929497" d="M1333.6,310.6c2.6-41.2,2-66-44.7-81.5c-25.2-8.4-35-8.2-61.1-2
		c-16,3.8-31,28.4-28.3,30.4c57.1-4.7,68.4,9.5,111.7,39C1315.2,299.3,1335.6,310.6,1333.6,310.6"/>
        <path fill="#D1D1D1" d="M1274,236.3c6.3-5.8,12.9-8.9,20.9-5.1c4.7,2.2,7.2,6.7,10.3,10.6c1.8,2.3-0.8,2.4-2.2,1.9
		c-2.8-1-5.4-2.3-8.3-3.6c-0.3,4.2,1.9,7.8,0.9,11.6c-0.3,1.2-0.3,3-1.9,3.1c-1.3,0.1-1.7-1.5-2.1-2.5c-1.5-3.7-2.8-7.5-3-12.1
		c-2.1,2.3-3.7,4.3-5.6,6.1c-3,2.9-2.6,4.4,1.6,4.8c0.8,0.1,1.6,0.1,2.3,1.3c-2.3,2.4-5.4,3-8.4,3.6c-0.9,0.2-2.2,0-2.6,1.1
		c-0.5,1.5,1,1.8,1.8,2.6c2.1,2.1,4.3,4.1,6.4,6.3c1,1.1,2.6,2.4,1.8,3.8c-1,1.6-2.7,0.3-4-0.3c-2.4-1-4.8-2.2-7.2-3.5
		c-2.4-1.4-4.2-2.1-3.5,2c0.5,2.9-1.2,2.2-2.6,1.5c-3.7-1.9-8.8-2.9-10.9-5.4c-3.1-3.8-6.2-2.3-9.3-2.8c-1.2-0.2-3.1,0.2-3.3-1.5
		c-0.2-1.2,1.4-1.7,2.3-2.4c2.2-1.6,6.7-0.8,6-5.8c-0.1-0.5,3.4-0.5,5.2-0.2c2.3,0.3,3.1-0.5,2.6-2.8s-0.6-4.6,0.5-6.8
		c0.4-0.7,0.8-1.6,1.8-1.4c1.1,0.2,1,1.2,0.8,2c-0.2,1-0.5,1.9-0.6,2.9c-0.3,4.6,1,5.5,5.4,3.9c1.5-0.6,3.1-2.4,4.7,0.8
		c1.1,2.1,3.5,0.4,4.7-1.3c0.5-0.8,0.5-1.9,0.8-2.9C1282,237.8,1282,237.8,1274,236.3z"/>
        <path fill="#D1D1D1" d="M1333.9,302.2c-3.5-3.5-4.1-8-5.6-12.7c-3.4,3.2-4.9,7.3-8.1,9.9c-1,0.8-1.8,2.3-3.4,1.5
		c-1.7-0.9-1.4-2.5-0.8-3.9c1.1-2.6,2.3-5.2,3.5-7.7c1.1-2.3,0.5-3-2.1-2.5c-4.2,0.9-8.5,1.6-12.8,2.2c-1.8,0.2-4.2,0.6-5-1.2
		c-1-2.3,1.8-2.8,3.1-3.7c4.6-3.1,10.1-4,15.9-5.8c-3.7-2.9-6.9-5.4-10.1-7.9c-1.1-0.9-2.9-2-1.9-3.6c0.8-1.3,2.8-0.6,4.2-0.2
		c2.8,1,5.7,2,8.4,3.1c2.7,1.1,3.8,0.7,3.1-2.5c-0.5-2.1-0.6-4.3-0.9-6.4c-0.1-1-0.5-2.2,0.5-2.7c1.4-0.7,2.1,0.6,2.7,1.6
		c1.1,1.7,2,3.4,3.1,5.1c0.8,1.2,0.8,4.1,3.5,1.7c0.7-0.7,1.3,0.6,1.5,1.4c1.7,11.1,3.7,22.1,1.8,33.4
		C1334.6,301.4,1334.4,301.5,1333.9,302.2z"/>
        <path fill="#D1D1D1" d="M1242.6,253.6c-4.5-1.5-8.9,4.2-13.4-0.3c-0.7-0.7-1.6,0.8-2.1,1.6c-0.9,1.3-1.3,3.2-3.6,2.6
		c-0.7-1.6,1-2.3,1.4-3.5c0.3-1,0.7-2.5-0.5-2.5c-4.9-0.2-6.1-5.2-9.7-7c-0.9-0.5-2.4-1.2-1.6-2.6c0.7-1.1,2.2-1,3.2-0.6
		c6.4,2.6,4.9-1.2,4-4.7c-0.2-1-0.3-2-0.3-3c0-0.8,0-1.8,1-2.1s1.5,0.5,1.9,1.2c1.5,2.3,2.9,4.7,4.6,7.5c2.7-4.7,3.8-10,8.7-13.1
		c1.9,5.6-1.4,10-2.4,15.3c3-0.7,5.8-1.5,8.6-2.1c0.9-0.2,2.1-0.2,2.5,1c0.2,0.9-0.4,1.6-1.1,2.1c-2.5,1.6-5,3.2-7.6,4.9
		C1238.2,250.4,1241.5,250.3,1242.6,253.6z"/>
        <g>
		<path fill="none" stroke="#9D9D9D" stroke-width="2" stroke-linecap="round" stroke-linejoin="round"
              stroke-miterlimit="10" d="
			M1276.5,256.5c10,5.5,20.2,10.6,29,18c3.2,2.7,6.5,5.5,9.5,8.5c5.5,5.5,12.2,8.6,19.5,10.5"/>
	</g>
        <g>
		<path fill="none" stroke="#9D9D9D" stroke-width="2" stroke-linecap="round" stroke-linejoin="round"
              stroke-miterlimit="10" d="
			M1300.5,258.5c4,3.2,7.5,6.8,10.6,10.9c5.8,7.9,14.7,10.9,23.4,14.1"/>
	</g>
        <path fill-rule="evenodd" fill="#929497" d="M1346.5,540.8l56.7-17.9c-6.9,41.2-16.8,73.1-31.2,98.8
		c-35.4,63.4-84.9,86.6-154.6,84.2c-35.9-1.3-72.4-7.7-86.4-17.7c2-7.3,9.5-25.9,11.7-35.5c41.9,19.5,129.6,30.1,165.5-18.8
		C1323.9,613,1337.4,592.4,1346.5,540.8"/>
        <path fill="#BBBCBF" d="M1380.1,558.1c0.2,1.3-25,57.8-28.4,63.3c-11.3,18.6-25.3,35.2-45.9,50.3c-10.9,8-25,12.9-39.9,15.5
		c-19.5,3.5-40.3,3.3-57.1,1.8c-0.4,0-0.5-0.4-0.5-0.7c0,0.7,52.5,0,57.4-2.4c14.6-2.6,28.6-7.3,39.4-15.3
		c20.4-14.9,34.3-31.5,45.6-49.9C1353.8,615.2,1379.7,558,1380.1,558.1 M1202.5,677.3c0-0.4,38.3-1.8,43.4-2.4
		c12.4-1.6,24.4-4.9,40.1-11.1c14.2-5.8,27-16.8,37.9-29.3c11.1-12.8,20.4-27.2,28.3-39.9c9.5-15.7,19-28.8,1.1,0.7
		c-7.8,12.9-17.3,27.3-28.4,40.1s-24.1,23.9-38.5,29.7c-15.7,6.4-27.7,9.7-40.3,11.3C1241.5,676.8,1202.5,677.3,1202.5,677.3z
		 M1392.6,453c2.4,0.2-12.2,71.1-15.3,70.4C1378.8,517.1,1392.3,453,1392.6,453L1392.6,453z M1361.8,436.6c0-0.4,0.4-0.5,0.7-0.5
		c0.4,0,0.5,0.4,0.5,0.7c-0.5,5.7-1.3,13.9-2.4,22.8c-0.4,3.8-4.6,45.4-4.6,45.4c-2.4,0,2.7-41.9,3.3-45.6
		C1360.6,450.4,1361.5,442.2,1361.8,436.6z M1367.5,407.2c0-0.4,0.4-0.5,0.7-0.5c0.4,0,0.5,0.4,0.5,0.7c-1.1,5.7-1.1,10.8,0.5,15.3
		c1.5,4.4,4.7,8.4,10,11.5c1.1,0.7,4,1.8,6.7,2.7c1.1,0.4,6.4,1.5,6.4,2.2c0,0-6-0.7-6.7-0.9c-2.9-0.9-5.8-2.2-7.1-2.9
		c-5.5-3.3-8.9-7.5-10.6-12.2C1366.4,418.5,1366.4,413,1367.5,407.2L1367.5,407.2z M1248.3,416.1c-0.5,13.7,48.1,6.2,59.4-0.7
		c4.4-2.7,16-12.6,14.6-14c1.8,1.5-11.5,13.7-14,15.1C1289.3,428.4,1240.4,425.4,1248.3,416.1z M1249.5,446.2
		c1.6-0.4,7.3,35.5,7.8,39.2c0.5,3.6,2.6,39.9,2.6,39.9c-0.2,0-3.3-35.9-3.8-39.7C1255.6,481.8,1250.8,446,1249.5,446.2
		L1249.5,446.2z M1277.8,449c2.4-0.2,7.3,110.3,4.6,116.8C1282,565.6,1277.4,449,1277.8,449z M1203.1,428.5
		c1.1,0.2-1.6,18.2-1.8,20.4c-0.5,6-0.7,12.2-0.7,17.9c0,0.4-0.4,0.7-0.7,0.7c-0.4,0-0.7-0.4-0.7-0.7c0-5.8,0.4-11.8,0.7-18
		C1200.3,446.8,1201.4,428.4,1203.1,428.5z M1314.1,518.8c0.2,11.7-2.6,58.3-6.2,62.7C1307.5,581.5,1313.2,518.8,1314.1,518.8z
		 M1250.6,408.9c0.9,2.7-19.5,4.4-21.9,4.4c-13.7,0.5-20.6,0.9-22.6,37c0,0.7-0.4,8.2-0.5,12.2v2c0,0-0.2,0.2-0.4,0.2
		c0.2,0.2,0.4,0.4,0.4,0.5c0,0.2-0.2,0.5-0.4,0.5c-0.5,0.2-0.7,0-0.9-0.5V465v-0.5v-2c0.2-4,0.5-11.5,0.5-12.2
		c2-37.4,9.5-37.7,23.9-38.3C1231.3,411.8,1249.7,409.9,1250.6,408.9z M1292.6,473.6c0,0,5.1,99,0.7,109.9
		C1292.9,582,1294.6,473,1292.6,473.6L1292.6,473.6z M1310.6,437.3c1.8-0.2,3.6,31.9,4,35.7c0.2,3.6,1.8,34.6,0,34.6
		c-1.1,0-1.1-30.6-1.3-34.5C1313,469,1310.6,437.3,1310.6,437.3L1310.6,437.3z M1257,414.7c21.5,5.5,43.2-2.6,57.8-16.4
		C1301.1,412.5,1279.6,424,1257,414.7z M1243,405.8c0,0-17.5,0.7-19.7,0.4c-4.7-0.7-8.6-1.1-12.4,0.2c-2.6,0.9-4.4,3.1-5.5,5.7
		c-1.3,2.7-2.9,11.8-2.9,11.8c1.6,0.5,1.1-11.1,1.6-12.4c1.3-2.9,3.5-5.3,6.2-6.4c4-1.5,8-0.9,12.9-0.2
		C1226.6,405.4,1243,405.6,1243,405.8z M1390.1,418.5c-0.2-0.2-0.2-0.7,0-0.9s0.7-0.2,0.9,0c10.8,12.8,12.9,30.3,11.5,48.3
		c-0.7,7.8-13.5,54.3-13.3,52.1c0,0,11.3-44.7,12-52.3C1402.7,448.2,1400.5,430.9,1390.1,418.5z M1357.1,631
		c0.2-0.4,0.5-0.4,0.9-0.2s0.4,0.5,0.2,0.9c-2,2.4-3.6,4.6-5.5,6.7c-23.7,30.1-55.4,45.8-54.7,45.4c14.9-6.4,49-40.3,53.8-46.1
		C1353.4,635.6,1355.3,633.2,1357.1,631L1357.1,631z"/>
        <path fill="#BBBCBF" d="M1379.3,613.7c-10.4,20.2-23.1,44.1-41.7,57.8c24.1-26.6,30.6-41.7,39.6-59.1c8.9-17.3,16-35.4,22.8-55
		C1402.3,562.9,1382.8,607,1379.3,613.7 M1341.2,588.9c-2.9,6-26.6,42.7-34.3,47c11.3-13.1,22.4-28.6,31.9-48.3s18-46.5,25-87.9
		C1373.3,501.6,1346.3,578.2,1341.2,588.9z"/>
        <path fill-rule="evenodd" fill="#605D5B" d="M1072,788.2c15.1,5.5,42.8-0.7,53.4-13.9c0.9-1.1,2.2-0.9,1.5-2.2
		c8.4,30.1-2.2,41.2-2.4,40.8c-18.8,10.8-75.8,13.5-103.5-3.5C1031.4,794.4,1066.4,786.7,1072,788.2"/>
</g>
    <g id="svg-4-drugs">
	<g id="svg-4-pill-red">
		<path fill-rule="evenodd" fill="#BB2C2C" d="M1510.8,145.3c-10.6-4.4-17.9-10.8-16.4-14.2c1.5-3.5,11.1-2.9,21.7,1.5
			s17.9,10.8,16.4,14.2C1531,150.4,1521.3,149.7,1510.8,145.3"/>
        <path fill-rule="evenodd" fill="#3E4142" d="M1510.6,146c-4-1.6-7.8-3.6-11.3-6.2c-2.2-1.6-5.1-4.2-5.7-6.9
			c-0.4-1.5,0.2-2.9,1.5-3.6c1.3-0.7,2.9-1.1,4.4-1.1c3.3-0.2,6.7,0.5,10,1.5c4,1.1,8,2.7,11.8,4.6c2.7,1.5,5.3,3.1,7.7,4.9
			c1.6,1.3,3.3,2.9,4.2,4.9c0.5,1.5,0.5,2.9-0.5,4c-1.6,1.6-4.4,1.8-6.4,1.6c-5.1-0.2-9.8-1.6-14.6-3.5L1510.6,146z M1509.3,143.8
			c4.2,1.8,8.7,3.5,13.3,4.2c1.8,0.4,3.6,0.4,5.3,0.4c1.3-0.2,3.3-0.4,3.8-1.6c0.5-1.3-0.7-2.9-1.5-3.8c-1.5-1.8-3.5-3.1-5.3-4.4
			c-2.9-2-5.8-3.3-9.1-4.7c-3.6-1.5-7.7-2.7-11.5-3.3c-1.1-0.2-1.8-0.2-2.7-0.4c-1.1,0-2.4,0-3.5,0.2c-0.7,0.2-1.6,0.4-2.2,0.9
			c-0.7,0.5-0.7,1.5-0.5,2.2c0.7,1.8,2.7,3.8,4.4,4.9c2.2,1.8,4.7,3.1,7.1,4.6L1509.3,143.8L1509.3,143.8z"/>
        <path fill-rule="evenodd" fill="#BB2C2C" d="M1506.2,156.8c-10.6-4.4-17.9-10.8-16.4-14.2l4.7-11.5c-1.5,3.5,5.8,9.8,16.4,14.2
			s20.2,4.9,21.7,1.5l-4.7,11.5C1526.2,161.7,1516.6,161.1,1506.2,156.8"/>
        <path fill-rule="evenodd" fill="#3E4142" d="M1504.6,155.1c3.8,1.6,7.7,3.1,11.7,3.8c1.8,0.4,3.8,0.7,5.8,0.7
			c1.6,0,4.2-0.2,4.9-1.8l3.5-8.6c-2.9,0.9-6.4,0.5-9.3,0c-3.6-0.7-7.3-1.8-10.8-3.3c-4.4-1.8-8.9-4.2-12.6-7.3
			c-1.5-1.3-2.9-2.7-4-4.6l-3.5,8.6c-0.2,0.4-0.2,0.4-0.2,0.9c0.2,1.8,2.2,3.6,3.3,4.7c2.6,2.2,5.3,3.8,8.2,5.5L1504.6,155.1
			L1504.6,155.1z M1505.8,157.5c-10.9-4.6-18.6-11.1-17-15.3l4.7-11.5l1.5,0.7c-0.5,1.8,1.1,3.6,2.4,4.7c1.5,1.5,2.9,2.6,4.6,3.6
			c3.5,2.2,7.1,4,10.9,5.5c3.6,1.3,7.3,2.4,11.1,2.7c1.6,0.2,3.3,0.2,4.9,0c1.1-0.2,2.2-0.5,2.7-1.6l1.5,0.5l-4.7,11.5
			C1526.8,162.6,1516.8,162,1505.8,157.5L1505.8,157.5z"/>
        <path fill-rule="evenodd" fill="#3E4142" d="M1520.2,148.2l-14.6-18.8h0.2c1.5,0.2,2.7,0.5,4.2,1.1l14.2,18.4
			c-2-0.2-0.9-0.2-3.1-0.5L1520.2,148.2L1520.2,148.2z"/>
	</g>
        <g id="svg-4-pill-white">
		<path fill-rule="evenodd" fill="#E5E6E7" d="M1541.2,150.4c-4.4-10.6-5.1-20.2-1.6-21.7s9.8,5.8,14.2,16.4
			c4.4,10.6,5.1,20.2,1.6,21.7C1551.9,168.2,1545.6,161,1541.2,150.4"/>
            <path fill-rule="evenodd" fill="#3E4142" d="M1540.5,150.7c-1.6-4-2.9-8-3.6-12.4c-0.4-2.6-0.7-6.6,0.9-8.9
			c0.9-1.3,2.2-1.8,3.6-1.5c1.5,0.4,2.7,1.3,3.8,2.2c2.6,2.2,4.4,5.1,6.2,8c2.2,3.6,3.8,7.7,5.1,11.7c0.9,2.9,1.6,6,2,8.9
			c0.2,2.2,0.2,4.4-0.5,6.4c-0.5,1.5-1.6,2.6-3.3,2.6c-2.2,0-4.4-1.8-5.8-3.3c-3.5-3.6-5.8-8.2-7.8-12.8L1540.5,150.7L1540.5,150.7z
			 M1541.2,148.2c1.6,4.4,3.6,8.6,6.6,12.2c1.1,1.5,2.2,2.9,3.6,4c0.9,0.7,2.6,2,3.8,1.5c1.3-0.5,1.6-2.6,1.6-3.8
			c0.2-2.4-0.2-4.7-0.5-6.9c-0.7-3.5-1.8-6.6-3.1-9.8c-1.6-3.6-3.5-7.3-5.8-10.6c-0.7-0.9-1.1-1.5-1.8-2.2c-0.7-0.9-1.6-1.6-2.6-2.4
			c-0.5-0.4-1.5-0.9-2.2-0.9c-0.9,0-1.6,0.4-2,1.3c-0.9,1.8-0.7,4.6-0.5,6.6c0.4,2.7,1.1,5.5,1.8,8.2L1541.2,148.2L1541.2,148.2z"/>
            <path fill-rule="evenodd" fill="#E5E6E7" d="M1529.7,155.1c-4.4-10.6-5.1-20.2-1.6-21.7l11.5-4.7c-3.5,1.5-2.7,11.1,1.6,21.7
			c4.4,10.6,10.8,17.9,14.2,16.4l-11.5,4.7C1540.5,173,1534.1,165.7,1529.7,155.1"/>
            <path fill-rule="evenodd" fill="#3E4142" d="M1529.7,152.9c1.5,3.8,3.3,7.5,5.5,10.9c1.1,1.6,2.2,3.1,3.6,4.6
			c1.1,1.1,2.9,2.9,4.7,2.2l8.6-3.6c-2.7-1.5-4.9-4.2-6.6-6.6c-2.2-3.1-3.8-6.4-5.3-9.8c-1.8-4.6-3.3-9.1-3.8-14c-0.2-2-0.2-4,0.5-6
			l-8.6,3.6c-0.4,0.2-0.4,0.2-0.7,0.5c-1.1,1.3-1.1,4-0.9,5.7c0.2,3.3,1.1,6.6,2,9.7L1529.7,152.9L1529.7,152.9z M1529,155.5
			c-4.6-10.9-5.3-21-1.1-22.8l11.5-4.7l0.5,1.5c-1.6,0.9-1.6,3.3-1.6,4.9c0,2,0.4,3.8,0.7,5.8c0.9,4,2.2,8,3.8,11.7
			c1.6,3.5,3.5,6.7,5.8,9.8c1.1,1.3,2.2,2.6,3.5,3.5c0.9,0.5,2,1.1,3.1,0.9l0.5,1.5l-11.5,4.7C1540.3,173.9,1533.5,166.4,1529,155.5
			L1529,155.5z"/>
            <path fill-rule="evenodd" fill="#3E4142" d="M1545.8,159.1l3.1-23.5c0.7,1.1,1.5,2.4,2.2,3.6l-2.9,23.1c-1.3-1.6-0.5-0.7-1.8-2.6
			L1545.8,159.1L1545.8,159.1z"/>
	</g>
        <g id="svg-4-bottle">
		
			<rect x="1550.7" y="173.4" transform="matrix(0.5464 -0.8375 0.8375 0.5464 551.1069 1406.9659)"
                  fill-rule="evenodd" fill="#BB2C2C" width="47.6" height="42.5"/>
            <path fill-rule="evenodd" fill="#FFFFFF" d="M1559.7,198.1l10.4-15.9l23.8,15.5l-10.4,15.9L1559.7,198.1z"/>
            <path fill-rule="evenodd" fill="#BB2C2C" d="M1565.4,189.4l3-4.6l23.8,15.5l-3,4.6L1565.4,189.4z"/>

            <rect x="1584.7" y="146.2" transform="matrix(0.5465 -0.8375 0.8375 0.5465 579.3622 1409.0381)"
                  fill-rule="evenodd" fill="#FFFFFF" width="12" height="46.7"/>
	</g>
</g>
    <g id="svg-4-smoke">
	<path class="bubble" fill-rule="evenodd" fill="#FFFFFF" d="M1184.3,779.4c-2.2,0-4,1.6-4.2,3.8c0,2.2,1.6,4,3.8,4.2c2.2,0,4-1.6,4.2-3.8
		C1188.3,781.2,1186.7,779.4,1184.3,779.4"/>
        <path class="bubble" fill-rule="evenodd" fill="#FFFFFF" d="M1154.4,791.1c3.3,0.2,6.2-2.4,6.2-5.8c0.2-3.3-2.4-6.2-5.8-6.2
		c-3.3-0.2-6.2,2.4-6.2,5.8C1148.6,788.2,1151.1,791.1,1154.4,791.1z"/>
        <path class="bubble" fill-rule="evenodd" fill="#FFFFFF" d="M1206.9,798.9c-2.4-0.2-4.4,1.8-4.4,4c-0.2,2.4,1.6,4.4,4,4.4s4.4-1.6,4.4-4
		C1211.1,800.9,1209.3,799.1,1206.9,798.9z"/>
        <path class="bubble" fill-rule="evenodd" fill="#FFFFFF" d="M1134.2,812.4c2.2,0,4-1.6,4-3.8s-1.6-4-3.8-4s-4,1.6-4,3.8
		C1130.2,810.6,1132,812.4,1134.2,812.4z"/>
        <path fill-rule="evenodd" fill="#FFFFFF" d="M1164.2,866.4V866c3.8,0,7.3-2.4,8.6-5.8c1.3,0.5,2.7,1.1,4.4,1.1
		c6.2,0.2,11.3-4.6,11.7-10.8c0.2-2.7-0.7-5.3-2.4-7.3c1.5,0.7,2.9,1.3,4.7,1.5c1.8,0,3.3-0.4,4.7-1.1c1.3,2.9,4.2,5.1,7.7,5.3
		c4.9,0.2,9.1-3.6,9.3-8.6c0.2-4.9-3.6-9.1-8.6-9.3c-0.9,0-1.8,0.2-2.7,0.4c-0.7-2.7-2.6-5.1-5.1-6.6c3.1-2.2,5.3-5.8,5.5-9.8
		c0.4-7.1-5.3-12.9-12.2-13.3h-1.3c0-0.5,0.2-0.9,0.2-1.5c0.2-5.8-4.4-10.8-10.2-10.9c-1.8,0-3.6,0.4-5.1,1.1
		c-1.3-0.9-2.7-1.5-4.6-1.5c-4.7-0.2-8.7,3.5-8.9,8.2v0.2c-1.6-1.1-3.6-1.8-5.7-2c-6-0.2-11.1,4.4-11.3,10.4c0,2.4,0.5,4.6,1.8,6.4
		c-0.7,0.7-1.5,1.6-1.8,2.7l-0.7-0.2c-3.8-0.2-6.9,2.7-7.1,6.6c0,2,0.7,4,2.2,5.3l-0.4,0.2c-3.1,2-5.1,5.3-5.3,8.7
		c-0.5-0.2-0.9-0.2-1.5-0.2c-4.6-0.2-8.2,3.3-8.4,7.8c-0.2,4.6,3.3,8.4,7.8,8.4c3.5,0.2,6.6-2,7.8-5.1c2,1.1,4.2,1.6,6.4,1.5
		c-0.9,2.4-0.9,5.1,0.5,7.3c1.5,2.2,3.6,3.5,6,3.8c-0.9,0.5-1.6,1.3-2.2,2.2c-0.5-2.7-2.7-4.7-5.7-4.9c-3.3-0.2-6.2,2.4-6.2,5.8
		c0,1.5,0.5,2.9,1.5,4h26.4v0.4L1164.2,866.4L1164.2,866.4z"/>
</g>
    <path id="svg-4-pipe" fill-rule="evenodd" fill="#222224" d="M1257.9,869.7l-2.4,0.7l-3.6,1.1l-5.1,1.5l-1.3,0.4
	c-0.7,2.4-2.7,4.4-5.5,5.1c-2.6,0.7-5.3,0.2-7.3-1.5l-77.7,22.4c-2.4,0.7-4.9-0.7-5.7-3.1v-0.2c-0.7-2.4,0.7-4.9,3.1-5.7l8.6-2.6
	h0.4c-11.5-1.3-21.9-10-25.7-22.8l54.5-15.7c3.6,12.8-0.5,25.7-9.5,33h0.4l48.1-13.9l1.3-0.4c0.7-2.4,2.7-4.4,5.5-5.1
	c2.6-0.7,5.3-0.2,7.3,1.5l6.4-1.8l3.6-1.1l2.4-0.7l3.6-1.1l4.7-1.5c1.5-0.4,3.1,0.4,3.5,2l0.9,3.3c0.4,1.5-0.4,3.1-2,3.5l-4.7,1.5
	L1257.9,869.7L1257.9,869.7z"/>
    <g id="svg-4-boy-01">
	<path fill-rule="evenodd" fill="#231F20" d="M887.9,203.6c9.3-5.3,11.3-15.9,14.4-25.5c2.2-7.1,3.6-28.8-2-34.5
		c-5.8-5.8-15.3-11.5-25.2-13.3c-11.7-2.2-24.6-0.5-31.4,3.1c-4,2.2-14.2,22.4-15.1,27.3c-1.8,12.2,6.9,40.5,6.9,40.5
		c0.7-1.3,1.5-2,1.8-2.2c0,0,1.6,4.4,2.7,1.6c0.9-2.4,2.6,1.3,2.6,1.3c0.7-0.4,5.7,3.3,8.6-0.5c5.1-6.4,7.5-8.6,15.3-7.8
		C884.6,195,885.5,205.1,887.9,203.6"/>
        <path fill-rule="evenodd" fill="#020002"
              d="M773.6,261.6c31.2,43.7,66.2,24.4,36.5,4.4C799,258.5,785.7,254.5,773.6,261.6"/>
        <path fill-rule="evenodd" fill="#FFFFFF" d="M894.5,389.2c-2-10.4-9.5-111.7,7.5-106.1c3.3,1.1,9.8,1.6,10.6,2.7
		c2.6,3.8,8.6,8.6,7.8,11.1C911.4,326.5,915.3,351.3,894.5,389.2L894.5,389.2z"/>
        <path fill="none" stroke="#000001" stroke-width="1.679" stroke-miterlimit="22.926" d="M894.5,389.2c-2-10.4-9.5-111.7,7.5-106.1
		c3.3,1.1,9.8,1.6,10.6,2.7c2.6,3.8,8.6,8.6,7.8,11.1C911.4,326.5,915.3,351.3,894.5,389.2L894.5,389.2z"/>
        <path fill-rule="evenodd" fill="#222224" d="M904.7,638.2c-4.4-0.4-18.6-2.2-19.5,3.5c0,0.4-0.4,0.5-0.5,0.9
		c1.3,4.4-2.4,14.6,2.4,24.1c3.8,1.5,39.9,0.7,49.9-7.1C933.8,648.5,904.7,652.6,904.7,638.2 M825.6,635.4
		c-4.2-1.5-17.3-6.9-19.7-1.8c-0.2,0.2-0.5,0.4-0.9,0.7c0.2,4.7-6.2,13.5-4.2,23.9c3.5,2.4,38.3,11.1,49.9,6.2
		C851.1,653.1,821.7,649.3,825.6,635.4"/>
        <path fill-rule="evenodd" fill="#6D6E70" d="M803.7,393.9c33.9-17.1,56.3-11.3,87.7-3.6c1.5,0.4,8.4,2.2,8.4,4
		c-4,7.8,7.1,119,6.4,145.5c-1.5,44.8-0.4,58.9,5.5,103c0.2,1.3-0.4,0.4-0.5-1.5c-7.3,4.7-20.4,7.1-29.3,4.2
		c-6.2-53.6-6-47.4-12.9-95.1c-4.2-28.4-6.7-68.2-16.4-99.7c-11.5,62.5-19.7,125.2-23.9,189.9c0,0-26.1-1.5-27.3-2.7
		c-3.1-50.7,4-90.8,1.3-137.6c-1.3-20.8-4-58.3-0.4-103.2C802.1,395,801.9,394.5,803.7,393.9"/>
        <path fill-rule="evenodd" fill="#FFFFFF" d="M848.4,170.6c-7.1,14.9-2.9,34.8-1.6,49.2c0.4,3.8,4.9,3.3,17.9,5.7
		c9.1,1.6,6,0,9.5-12.2c4-14-0.9-14.4-10.4-25.2C855.3,178.6,848.9,169.3,848.4,170.6z"/>
        <path fill="none" stroke="#000001" stroke-width="2.067" stroke-miterlimit="22.926" d="M848.4,170.6c-7.1,14.9-2.9,34.8-1.6,49.2
		c0.4,3.8,4.9,3.3,17.9,5.7c9.1,1.6,6,0,9.5-12.2c4-14-0.9-14.4-10.4-25.2C855.3,178.6,848.9,169.3,848.4,170.6z"/>
        <path fill-rule="evenodd" fill="#404041" d="M801,395.2c-8-36.1-4.2-78.9,5.1-112.6c0.4-1.6-0.2-2,1.5,0c-6.7-14-15.7-17.7-33.9-21
		c6-15.1,13.3-52.9,31.4-49.4c5.5,1.1,33.5,3.1,39,0.5c9.5,13.3,22.1,10.2,31.4,10.2c10,6,51.6,11.8,48.1,26.6
		c-1.3,5.3-3.5,48.5,2.6,50.7c-6.9,1.6-19.7,0.9-26.1-1.5c0,45.8-6.2,64.2,0.5,99.7c0.4,1.6-0.5,1.5,0.7,2.2
		C892.1,407.2,829.6,381,801,395.2"/>
        <path fill-rule="evenodd" fill="#FFFFFF" d="M784.4,263.9c-10.2,49.9-4.2,88.8,23.3,133.2c1.1,1.8,2,4,3.6,5.5l14.4-8.9
		c-20.8-32.8-28.4-78.4-20.2-115.9C801.1,271.6,792,266.5,784.4,263.9z"/>
        <path fill="none" stroke="#000001" stroke-width="1.55" stroke-miterlimit="22.926" d="M784.4,263.9
		c-10.2,49.9-4.2,88.8,23.3,133.2c1.1,1.8,2,4,3.6,5.5l14.4-8.9c-20.8-32.8-28.4-78.4-20.2-115.9C801.1,271.6,792,266.5,784.4,263.9
		z"/>
        <path fill-rule="evenodd" fill="#231F20" d="M827.6,389.7c-1.5,6.9-0.2,7.8-9.5,12.4c-7.7,3.8-14.8,12.8-14.8,20.8l1.8-1.3
		c-0.5-0.9,0.4-3.1,0.5-4C811.5,389.9,819,402.7,827.6,389.7"/>
        <path fill="#6D6E70" d="M838,213.8c1.5,9.3,6.9,15.1,12.9,18.2c5.1,2.7,13.7,4.7,19.5,2.7c1.6-0.4,2.7-0.7,2.9-1.3
		c-4.6,6.9-17,3.3-23.3-0.2c-6.6-3.5-12.2-9.5-13.7-19.3L838,213.8L838,213.8z"/>
        <path fill-rule="evenodd" fill="#FFFFFF" d="M895.9,153.7c1.6,1.6,4.2,2.2,4.4,5.8c0.2,7.1-0.4,14.6-3.5,19.9
		c-1.6,2.9-2.7,14.8-6.6,20.1c-4.6,6.2-2.9,14.2-14.4,12.2c-10.6-1.6-10.6-4.6-19-10.9c-0.9-0.7-5.8-5.8-6.4-7.1
		c-2.9-7.3,2-14.2,2-14.2c-8.4-9.7-1.1-14.9,1.5-10.8c1.1-0.5-0.5-5.5,5.8-13.7c5.7-7.3,10.2-9.5,22.4-5.7
		C889.2,151.7,892.8,150.6,895.9,153.7z"/>
        <path fill="none" stroke="#000001" stroke-width="2.067" stroke-miterlimit="22.926" d="M895.9,153.7c1.6,1.6,4.2,2.2,4.4,5.8
		c0.2,7.1-0.4,14.6-3.5,19.9c-1.6,2.9-2.7,14.8-6.6,20.1c-4.6,6.2-2.9,14.2-14.4,12.2c-10.6-1.6-10.6-4.6-19-10.9
		c-0.9-0.7-5.8-5.8-6.4-7.1c-2.9-7.3,2-14.2,2-14.2c-8.4-9.7-1.1-14.9,1.5-10.8c1.1-0.5-0.5-5.5,5.8-13.7c5.7-7.3,10.2-9.5,22.4-5.7
		C889.2,151.7,892.8,150.6,895.9,153.7z"/>
        <path fill-rule="evenodd" fill="#231F20" d="M902.7,168.8c2.2,3.3,1.3-3.8,1.3-6.4c0-22.1-3.3-20.2-22.1-25.3
		c-8.7-2.4-30.3,0-34.3,11.3c-0.9,2.7-3.3,14.9,1.1,16.6l0.9,1.3c3.6,3.6,0.9,4.4,3.8,1.1c0,5.1,3.6-4.4,7.5-8.6
		c7.7-8.7,9.5-11.8,22.8-7.3c11.7,4,15.3,16.2,16.2,17c0.4-11.8,1.6,7.7,2.6,0.9C902.5,169.3,902.7,169,902.7,168.8"/>

        <path fill="none" stroke="#000001" stroke-width="1.55" stroke-linecap="round" stroke-linejoin="round"
              stroke-miterlimit="22.926" d="
		M886.5,177.4c3.1-0.4,8,0.7,9.7,3.6 M886.5,179.4c2,3.5,7.8,3.5,8.2,3.1 M864.2,174.3c4,3.6,5.8,4,10.4,3.5c0,0,0.2,0,0.4-0.2
		 M863.7,172.1c5.3-0.5,8.2,0.2,12.2,2.9 M863.1,169.9c7.7-4.2,12.2,0.4,13.1,2.6 M887.4,175.5c3.6-0.9,7.5-0.2,8.9,2.4"/>
        <path fill-rule="evenodd" fill="#000001" d="M899,176.4c-1.5-0.7-8.4-4.4-11.1-3.5c6.6-3.8,7.1-2,12.2,0.5h0.2
		C900.1,174.1,898.8,176.4,899,176.4 M879.7,170.4c0.7-1.1,0.9-1.5,1.8-2.6c-4.7-2.9-13.1-9.1-19.1-7.7c0,3.6,10.2,6.2,13.1,7.8
		C875.7,168.4,879.3,170.4,879.7,170.4z"/>
        <path fill="#000001" d="M886.3,176.4c-0.4,4,0.7,8.6,1.3,11.3c0.2,0.9,0.4,1.6,0.4,2v0.4c-0.9,1.5-4.7,3.1-6.2,2
		c0.9-0.2,1.6-0.4,2.6-0.4c1.3-0.2,1.8-0.2,2.9-1.8c0-0.4-0.2-0.9-0.4-1.6C886.3,186.1,883.9,176.3,886.3,176.4"/>
        <path fill-rule="evenodd" fill="#000001"
              d="M880.3,190.8c-2-1.8-5.8-1.3-0.5-0.2C879.7,190.7,880.3,190.8,880.3,190.8"/>
        <path fill="#000001" d="M869.9,197c5.5-1.6,9.5-0.5,12.2,0.2c1.3,0.4,2.2,0.5,2.9,0.5h0.4c0.2,0,0.2,0,0.2,0.2l-0.5,0.5
		c-0.9,0-2-0.2-3.3-0.5C874.6,196.3,870,197.8,869.9,197L869.9,197z"/>
        <path fill="#000001" d="M869.7,196.7c2.7-0.9,5.3-0.9,7.3-0.9c2,0.2,3.8,0.7,5.3,1.1c1.1,0.4,2,0.5,2.7,0.5h0.5l0.4,0.2l0.2,0.2
		l0.2,0.2l-0.4,0.4l-0.4,0.5v0.2h-0.2l-0.2,0.2L885,199c-0.4,0-0.9,0-1.5-0.2c-0.5-0.2-1.1-0.2-1.8-0.4c-4.6-1.1-8-0.9-10-0.9
		c-1.5,0-2.2,0.2-2.4-0.5l-0.2-0.5L869.7,196.7L869.7,196.7z"/>
        <path fill-rule="evenodd" fill="#000001" d="M892.5,182.8c0.4-0.4,0.5-0.9,0.5-1.3c0-1.3-0.9-2.2-2.2-2.2s-2.2,0.9-2.2,2.2v0.2
		C889.4,182.3,891.4,182.6,892.5,182.8 M870.8,178.1c0.5-0.4,0.9-1.1,0.9-1.8c0-1.3-0.9-2.2-2.2-2.2c-1.1,0-2.2,0.9-2.2,2.2
		c0,0.2,0,0.5,0.2,0.7C868.4,177.9,869.9,178.1,870.8,178.1"/>
        <path fill-rule="evenodd" fill="#BBBCBF" d="M838.7,278.7l11.5,19.9l-14.6,8.4c-5.5,3.1-12.4,1.3-15.5-4.2l-0.2-0.2
		c-3.1-5.5-1.3-12.4,4.2-15.5L838.7,278.7L838.7,278.7z"/>
        <path fill-rule="evenodd" fill="#BB2C2C" d="M868.4,280.7l-11.5,19.9l14.6,8.4c5.5,3.1,12.4,1.3,15.5-4.2l0.2-0.2
		c3.1-5.5,1.3-12.4-4.2-15.5L868.4,280.7L868.4,280.7z"/>
        <path fill-rule="evenodd" fill="#BBBCBF" d="M846.5,274.3c1.3,0,2.2,0.9,2.2,2.2s-0.9,2.2-2.2,2.2s-2.2-0.9-2.2-2.2
		C844.2,275.2,845.3,274.3,846.5,274.3 M854,290.4c1.3,0,2.2,0.9,2.2,2.2s-0.9,2.2-2.2,2.2s-2.2-0.9-2.2-2.2S852.7,290.4,854,290.4z
		 M870.6,259.4c2.4,0,4.4,2,4.4,4.4s-2,4.4-4.4,4.4s-4.4-2-4.4-4.4C866,261.4,868,259.4,870.6,259.4z M852.2,257.7
		c2.4,0,4.4,2,4.4,4.4s-2,4.4-4.4,4.4s-4.4-2-4.4-4.4C847.6,259.7,849.6,257.7,852.2,257.7z M843.1,249c1.3,0,2.2,0.9,2.2,2.2
		s-0.9,2.2-2.2,2.2s-2.2-0.9-2.2-2.2S841.8,249,843.1,249z M856,248.4c1.3,0,2.2,0.9,2.2,2.2s-0.9,2.2-2.2,2.2s-2.2-0.9-2.2-2.2
		C853.8,249.4,854.7,248.4,856,248.4z M866.2,251.5c1.3,0,2.2,0.9,2.2,2.2s-0.9,2.2-2.2,2.2s-2.2-0.9-2.2-2.2
		C864,252.5,865.1,251.5,866.2,251.5z M879.3,245c1.3,0,2.2,0.9,2.2,2.2s-0.9,2.2-2.2,2.2s-2.2-0.9-2.2-2.2
		C877,246.1,878.1,245,879.3,245z M906.1,216.7c2.4,0,4.4,2,4.4,4.4s-2,4.4-4.4,4.4s-4.4-2-4.4-4.4
		C901.6,218.7,903.6,216.7,906.1,216.7z M846.2,287.3c1.3,0,2.2,0.9,2.2,2.2s-0.9,2.2-2.2,2.2s-2.2-0.9-2.2-2.2
		S845.1,287.3,846.2,287.3z M855.5,276.2c2.4,0,4.4,2,4.4,4.4s-2,4.4-4.4,4.4s-4.4-2-4.4-4.4S853.1,276.2,855.5,276.2z"/>
        <path fill-rule="evenodd" fill="#BB2C2C" d="M914.5,198.7c1.3,0,2.2,0.9,2.2,2.2s-0.9,2.2-2.2,2.2s-2.2-0.9-2.2-2.2
		C912.3,199.8,913.2,198.7,914.5,198.7 M889.2,220.9c1.3,0,2.2,0.9,2.2,2.2s-0.9,2.2-2.2,2.2s-2.2-0.9-2.2-2.2
		C887,222,887.9,220.9,889.2,220.9z M893.4,238.8c1.6,0,2.9,1.3,2.9,2.9c0,1.6-1.3,2.9-2.9,2.9s-2.9-1.3-2.9-2.9
		S891.7,238.8,893.4,238.8z M860.6,265c1.3,0,2.2,0.9,2.2,2.2s-0.9,2.2-2.2,2.2s-2.2-0.9-2.2-2.2C858.2,265.9,859.3,265,860.6,265z"
        />
        <path fill="none" stroke="#575757" stroke-miterlimit="10" d="M845.9,154.1c7.3-11.2,19.1-17.3,29.9-15.3
		c9.3,1.8,15.1,9.1,16.5,10.8c5.3,6.6,6.5,13.6,6.8,16.7"/>
        <path fill="none" stroke="#575757" stroke-miterlimit="10"
              d="M848.7,165.2c1.7-11.5,8.6-20.8,18.1-23.8c5.7-1.8,10.9-0.8,13.9,0"
        />
        <path fill="none" stroke="#575757" stroke-miterlimit="10"
              d="M886.4,137.2c3,2.3,8.1,6.9,12,14.4c3.5,6.8,4.4,13,4.7,16.7"/>
</g>
    <g id="svg-4-girl-01">
	<path fill-rule="evenodd" fill="#FFFFFF" d="M460.3,307.5c-13.5,86.6,3.5,143.3,3.5,222.7c0,5.8,29.3-26.4,27.7-88
		C490.7,415,506.2,307.5,460.3,307.5z"/>
        <path fill="none" stroke="#000001" stroke-width="2.583" stroke-miterlimit="22.926" d="M460.3,307.5
		c-13.5,86.6,3.5,143.3,3.5,222.7c0,5.8,29.3-26.4,27.7-88C490.7,415,506.2,307.5,460.3,307.5z"/>
        <path fill-rule="evenodd" fill="#FFFFFF" d="M576.9,439.8l0.4-42.7c-47.8,4-50.3-8.6-89.9,2.7l-4.7-0.4c0.2,0.9,4,33.4,6.9,39.2
		C489.8,459.7,557.8,470.5,576.9,439.8L576.9,439.8z"/>
        <path fill="none" stroke="#231F20" stroke-width="2.583" stroke-miterlimit="22.926" d="M576.9,439.8l0.4-42.7
		c-47.8,4-50.3-8.6-89.9,2.7l-4.7-0.4c0.2,0.9,4,33.4,6.9,39.2C489.8,459.7,557.8,470.5,576.9,439.8L576.9,439.8z"/>
        <path fill-rule="evenodd" fill="#010002" d="M510.4,82.8c19.3,0.7,27.3,7.5,39.4,22.1c4.4,5.5,12.4,18.8,13.3,25.9
		c3.1,26.4-6.6,49.4-14.6,74.4c-4.9,15.1-29.9,32.1-46.3,35c-17,3.1-27.5,5.1-43.6,10.2c-12.8,4.2-8.2,6.9-10.6-17
		c-2-20.4-6.9-32.4-9.3-52.9c-1.8-15.9,19.7-76,31.7-86.2C493.3,74.6,507.9,87.1,510.4,82.8"/>
        <path fill-rule="evenodd" fill="#231F20" d="M452.1,875.8c-1.5-45.9-12-135.3-12.2-163.9c-0.4-85.9,5.1-192.5,25-245.7
		c3.3-8.9,15.7-37.9,20.2-47.2c40.5,7.5,68.9,9.5,91.3,0c55.2,41.2,49.6,207.1,18.6,285.8c-8.2,20.8,24.4,51.2,7.8,102.1
		c-6,18.6-13.3,49.6-15.3,72.2c-1.1,13.3-36.5,36.8-39.9,8.9c0,0-3.8-100.4-8-173.5c-2-34.6-4-46.3-12.8-93
		c-7.8-42.3-14.4-78-6.7-37c13.7,73.8-32.8,89.3-15.3,159.5c9.3,37-4.9,91.1-15.7,133.1C486.5,888.8,453.4,912.5,452.1,875.8"/>
        <g>
		<path fill="none" stroke="#000000" stroke-width="2" stroke-linecap="round" stroke-linejoin="round"
              stroke-miterlimit="10" d="
			M554.5,459.5c4.8,7.9,9.3,16,16,22.5c9.1,8.8,20.5,12.6,32.5,15.5c3.5,0.9,7,2,10.5,3"/>
            <path fill="none" stroke="#000000" stroke-width="2" stroke-linecap="round" stroke-linejoin="round"
                  stroke-miterlimit="10" d="
			M550,535.5c0.2,0.5,0.5,1,0.5,1.5c0.4,19,0.7,38,1,57c0,0.8-0.3,1.7-0.5,2.5"/>
            <path fill="none" stroke="#000000" stroke-width="2" stroke-linecap="round" stroke-linejoin="round"
                  stroke-miterlimit="10" d="
			M555,678.5c-1.4,8.2,0.8,16.3,0,24.5c0,0.5,0.5,1,0.4,1.5c-0.5,11.4,1,22.7,1.5,34"/>
            <path fill="none" stroke="#000000" stroke-width="2" stroke-linecap="round" stroke-linejoin="round"
                  stroke-miterlimit="10" d="
			M587.5,578.5c-0.6,0.4-1.7-0.9-2.1,1c-2.5,13-5.7,25.9-7.7,39.1c-0.7,4.8-3.3,10-0.3,15"/>
            <path fill="none" stroke="#000000" stroke-width="2" stroke-linecap="round" stroke-linejoin="round"
                  stroke-miterlimit="10" d="
			M515.5,470.5c-2.8,11-5.7,22-8.5,33c-1.9,7.3-3.7,14.7-5.5,22"/>
            <path fill="none" stroke="#000000" stroke-width="2" stroke-linecap="round" stroke-linejoin="round"
                  stroke-miterlimit="10" d="
			M476.5,534.5c-1.7,8.8-3.4,17.6-5,26.5c-1.6,9.3-3,18.7-4.5,28"/>
            <path fill="none" stroke="#000000" stroke-width="2" stroke-linecap="round" stroke-linejoin="round"
                  stroke-miterlimit="10" d="
			M586,683.5c0,17.7,0,35.3,0,53"/>
            <path fill="none" stroke="#000000" stroke-width="2" stroke-linecap="round" stroke-linejoin="round"
                  stroke-miterlimit="10" d="
			M494.5,430.5c-0.8,5-3.7,9.2-6.1,13.4c-5.7,10-7.6,21.3-10.9,32.1c-0.6,1.8-1,3.7-1.5,5.5"/>
            <path fill="none" stroke="#000000" stroke-width="2" stroke-linecap="round" stroke-linejoin="round"
                  stroke-miterlimit="10" d="
			M488,738.5c-1.1,7.6-0.9,15.4-0.3,23c0.5,6.5,0.6,13,0.8,19.5c0.1,2.2,0.3,4.3,0.5,6.5"/>
            <path fill="none" stroke="#000000" stroke-width="2" stroke-linecap="round" stroke-linejoin="round"
                  stroke-miterlimit="10" d="
			M471,791.5c-1.1,3.6,0.3,7.1,0.7,10.5c1.3,10.3,2.8,20.7,3.8,31c0.2,1.8,0.6,3.7,1,5.5"/>
            <path fill="none" stroke="#000000" stroke-width="2" stroke-linecap="round" stroke-linejoin="round"
                  stroke-miterlimit="10" d="
			M453,679.5c1.1,3.1,0.4,6.3,0.5,9.5c0.1,12.2,0,24.3,0,36.5"/>
            <path fill="none" stroke="#000000" stroke-width="2" stroke-linecap="round" stroke-linejoin="round"
                  stroke-miterlimit="10" d="
			M488,618.5c-2.3,15.2-4.7,30.3-7,45.5"/>
            <path fill="none" stroke="#000000" stroke-width="2" stroke-linecap="round" stroke-linejoin="round"
                  stroke-miterlimit="10" d="
			M582.5,509.5c-0.8,14.3-1.7,28.7-2.5,43"/>
            <path fill="none" stroke="#000000" stroke-width="2" stroke-linecap="round" stroke-linejoin="round"
                  stroke-miterlimit="10" d="
			M571,781.5c0.2,5.3-0.3,10.8,0.6,16c1.3,7.2-0.1,14.5,1.8,21.5c0.2,0.7-0.3,1.7-0.5,2.5"/>
	</g>
        <path fill="none" stroke="#231F20" stroke-width="2.583" stroke-miterlimit="22.926" d="M452.1,875.8
		c-1.5-45.9-12-135.3-12.2-163.9c-0.4-85.9,5.1-192.5,25-245.7c3.3-8.9,15.7-37.9,20.2-47.2c40.5,7.5,68.9,9.5,91.3,0
		c55.2,41.2,49.6,207.1,18.6,285.8c-8.2,20.8,24.4,51.2,7.8,102.1c-6,18.6-13.3,49.6-15.3,72.2c-1.1,13.3-36.5,36.8-39.9,8.9
		c0,0-3.8-100.4-8-173.5c-2-34.6-4-46.3-12.8-93c-7.8-42.3-14.4-78-6.7-37c13.7,73.8-32.8,89.3-15.3,159.5
		c9.3,37-4.9,91.1-15.7,133.1C486.5,888.8,453.4,912.5,452.1,875.8L452.1,875.8z"/>
        <path fill-rule="evenodd" fill="#676768" d="M546,883.9c8.9,4,37,7.7,41.7-4.9c0.5,2.9,3.1,35,4.2,36.6c-24.4,16-100.8,19-92.6,2.2
		C510.8,900.6,527,890.1,546,883.9 M452.3,875.7c8.9,4,37,7.7,41.7-4.9c0.5,2.9,3.1,35,4.2,36.6c-24.4,16-100.8,19-92.6,2.2
		C417.1,892.3,433.3,881.7,452.3,875.7"/>
        <path fill-rule="evenodd" fill="#717273" d="M469.9,362.7c30.3,13.7,91.9,27,109.2-10.6c1.6-3.6,15.9-26.1,18.2-29.9
		c-3.8,56.5-4,52.9-12,102.4c-40.5-10-128-9.8-111-11.1C473.6,410.9,467,367.1,469.9,362.7"/>
        <path fill-rule="evenodd" fill="#FFFFFF" d="M497.1,209.1c3.3-0.4,39.7-9.8,43-13.5c0.9,48.3,51-25.9,73.1,29.3
		c15.5,38.8-21.3,116.3-36.6,154.8c-3.6,9.1-15.1,18.2-15.1,18.2c-9.7,3.3-38.6,1.1-57.8-8.2c-7.7-3.6-51.8-27.9-59.6-25.7
		c-10.8-18.4,0.2-51.6,1.8-75.6c1.3-18.2,3.8-40.3,19.9-43.9C477.2,241.5,519.2,225.5,497.1,209.1L497.1,209.1z"/>
        <path fill="none" stroke="#000001" stroke-width="2.583" stroke-miterlimit="22.926" d="M497.1,209.1c3.3-0.4,39.7-9.8,43-13.5
		c0.9,48.3,51-25.9,73.1,29.3c15.5,38.8-21.3,116.3-36.6,154.8c-3.6,9.1-15.1,18.2-15.1,18.2c-9.7,3.3-38.6,1.1-57.8-8.2
		c-7.7-3.6-51.8-27.9-59.6-25.7c-10.8-18.4,0.2-51.6,1.8-75.6c1.3-18.2,3.8-40.3,19.9-43.9C477.2,241.5,519.2,225.5,497.1,209.1
		L497.1,209.1z"/>
        <path fill="none" stroke="#000001" stroke-width="2.583" stroke-miterlimit="22.926" d="M547.8,93.1
		c65.8,70.7,10.8,133.8,0.2,122.1 M533.4,83.5c40.1,23.3,55.4,45.6,47.2,96.2c-1.8,10.9-16.4,40.5-27.7,45.9"/>
        <path fill-rule="evenodd" fill="#FFFFFF" d="M479.6,179.7c4.9,11.8,9.5,20.4,16,25.9c16,13.3,37.4,9.7,48.1-5.7
		c5.7-8,8-18.4,8.6-32.6c1.1-24.2-0.2-49.6-20.6-57.2c-14.6-5.5-41-4.6-49,10C475.8,133.1,468.7,153.8,479.6,179.7"/>
        <path fill="none" stroke="#231F20" stroke-width="2.583" stroke-miterlimit="22.926" d="M479.6,179.7c4.9,11.8,9.5,20.4,16,25.9
		c16,13.3,37.4,9.7,48.1-5.7c5.7-8,8-18.4,8.6-32.6c1.1-24.2-0.2-49.6-20.6-57.2c-14.6-5.5-41-4.6-49,10
		C475.8,133.1,468.7,153.8,479.6,179.7L479.6,179.7z"/>
        <path fill-rule="evenodd" fill="#010101" d="M522.8,142c-1.3,4.7,0.5,6.2,0.2,7.1c9.8-6,20.1-6,30.6-2c0,0,0.5,0.2,0.7,0.2
		c-6.7-6.7-16.6-8.6-25.7-7.1C527.5,140.4,523.5,141.4,522.8,142 M504.6,144c1.3,4.7-0.5,6.2-0.2,7.1c-9.8-6-20.1-6-30.6-2
		c0,0-0.5,0.2-0.7,0.2c6.7-6.7,16.6-8.6,25.7-7.1C499.8,142.4,503.8,143.5,504.6,144"/>
        <path fill="#010101"
              d="M521.5,152.2c0.2-0.4,0.2,0.2,0,0.5c-4.6,7.3,0.7,16-0.2,16.2C520.1,169.5,517.2,158,521.5,152.2"/>
        <path fill-rule="evenodd" fill="#010101" d="M511.9,182.8c6.4-0.4,2.9,2.9,11.1-1.8c0.5-0.4,0.9-0.2,1.6-0.2
		c-0.5,0-0.9,0.2-1.5,0.4C515.7,187.4,518.1,183.6,511.9,182.8"/>
        <path fill-rule="evenodd" fill="#404041" d="M508.2,193.4c4.9,0.7,3.8,4.4,10.9,4.7c7.3,0.4,7.8-4.9,10.2-6.2
		c0.2,0,1.3-0.5,1.5-0.5c-1.5,0.7,0.2-0.2,0.2-0.2c-1.8,0.9-4.2-1.6-6.4-2.2c-3.8-1.1-3.5,1.5-5.7,1.6l-0.2-0.2
		C513.3,187.4,513.5,193,508.2,193.4"/>
        <path fill-rule="evenodd" fill="#231F20" d="M526.1,158c6.2-6.7,13.9-5.3,21.3-1.3c0,0,0.7,0.4,0.5,0.4c0.2,0-0.2-0.2-0.4-0.2
		c-6.9-3.5-14.9-4.6-20.2,2.2c-0.4,0.4-0.9,0.5-1.3,0.2C525.9,158.9,525.7,158.4,526.1,158"/>
        <path fill-rule="evenodd" fill="#231F20" d="M536.1,156c2,0,3.8,1.6,3.8,3.5c0,0.5-0.2,1.1-0.4,1.6c-2.2,0.7-4.4,0.9-6.6,0.2
		c-0.4-0.5-0.5-1.1-0.5-1.8C532.5,157.7,534.1,156,536.1,156"/>
        <path fill="#231F20" d="M527.7,160.2c-0.2,0-0.2-0.4-0.2-0.4c0-0.2,0.4-0.2,0.4-0.2c2.2,1.3,5.8,1.8,9.1,1.5
		c0.9-0.2,5.8-1.6,7.1-3.3c-0.4,2.2-6,3.8-7.1,4C533.9,162,530.1,161.5,527.7,160.2 M526.6,154.9c4-4.9,14-5.3,17.1-1.8
		c-3.3-1.8-7.7-1.8-8.7-1.8C533.9,151.5,529.7,152.4,526.6,154.9L526.6,154.9z"/>
        <path fill="#FFFFFF" d="M533.7,160c0.2-0.9,2.4-1.8,3.3-2.2C537,158.2,533.7,160,533.7,160 M533.4,159.1c-0.4-0.4,1.6-1.3,2-1.6
		C535.4,157.7,533.4,159.3,533.4,159.1z"/>
        <path fill-rule="evenodd" fill="#010101" d="M522.8,142c-1.3,4.7,0.5,6.2,0.2,7.1c9.8-6,20.1-6,30.6-2c0,0,0.5,0.2,0.7,0.2
		c-6.7-6.7-16.6-8.6-25.7-7.1C527.5,140.4,523.5,141.4,522.8,142"/>
        <path fill-rule="evenodd" fill="#231F20" d="M504.4,161.5c-7.3-5.7-14.6-2.9-21.3,2.2c0,0-0.7,0.5-0.5,0.5c-0.2,0,0.2-0.2,0.2-0.2
		c6.2-4.6,14-6.9,20.2-1.3c0.4,0.4,0.9,0.4,1.3,0C504.8,162.4,504.8,161.9,504.4,161.5"/>
        <path fill-rule="evenodd" fill="#231F20" d="M494,161.3c-2,0.4-3.5,2.2-3.1,4c0.2,0.5,0.4,1.1,0.7,1.5c2.4,0.4,4.4,0.2,6.6-0.9
		c0.2-0.5,0.4-1.3,0.2-1.8C498,162.2,496.2,161,494,161.3"/>
        <path fill="#231F20" d="M503.1,163.9c0.2-0.2,0.2-0.4,0-0.5c-0.2-0.2-0.4-0.2-0.5,0c-2,1.6-5.5,2.7-8.7,2.9c-1.1,0-6-0.5-7.7-2
		c0.7,2,6.6,2.7,7.7,2.7C497.5,166.8,500.9,165.5,503.1,163.9 M503.3,158.4c-4.7-4.2-14.6-2.9-17.3,1.1c2.9-2.4,7.3-3.1,8.4-3.3
		C495.6,156.2,499.8,156.4,503.3,158.4z"/>
        <path fill="#FFFFFF" d="M497.3,164.8c-0.4-0.7-2.7-1.5-3.5-1.6C493.6,163.5,497.1,164.8,497.3,164.8 M497.3,163.9
		c0.4-0.4-1.8-1.1-2.4-1.3C495.1,162.6,497.3,163.9,497.3,163.9z"/>
        <path fill="none" stroke="#231F20" stroke-width="1.033" stroke-miterlimit="22.926" d="M520.6,107.7c-25,22.1-33.5,35.7-37.2,69.4
		c-0.7,6.6-7.5,56.7-5.3,63.8c0.5,2,4-4.2,5.7-6"/>
        <path fill-rule="evenodd" fill="#000001" d="M500.7,143.1c2.9-4,6.2-7.8,10-12.6c4.4-5.3,9.5-11.5,15.9-19.7
		C514.1,120.3,506.2,131.2,500.7,143.1 M493.8,138.2c1.5-3.6,3.3-7.8,6.4-13.1c6.2-10.8,13.1-15.9,19.7-17.1
		c-12,10.8-20.1,19.5-25.7,29.5C494,137.8,494,138,493.8,138.2L493.8,138.2z M483.1,192.3c0.2-3.6,0.4-7.1,0.5-10.2l0.2-2
		c0.2-1.5,0.4-2.6,0.4-3.3c0.2-1.1,0.2-2.4,0.4-3.5c0.4-2,0.7-3.8,1.3-5.3c3.8-11.5,4.4-18,6.6-25.3c0.7-1.6,1.6-3.3,2.4-4.9
		c5.7-10.2,13.9-19.1,26.2-30.1c2.7-0.4,5.3,0,7.7,0.7l-0.5,0.4c-14.9,10.8-23.5,23.1-29.3,37c-6.7,10-10.8,21-15.5,45
		C483.3,191.2,483.1,191.8,483.1,192.3L483.1,192.3z M482.7,204.2c0-2.7,0.2-5.5,0.2-8.2c0.4-2,0.7-3.6,1.1-4.9
		c4.4-21.7,8-32.6,13.7-41.7c-3.8,10.2-6.4,21.1-9.1,32.6c-1.1,4.6-2.2,9.3-3.5,14C484.3,198.3,483.6,201.1,482.7,204.2L482.7,204.2
		z M532.3,83.5c-72.7-19.9-101,62.7-92.2,122.5c-6.2,42.7-4.6,64.3-3.6,106.3c0.4,17,1.6,33.4-4.4,49.9c-0.4,0.9-0.2,0.5,0.4,0.4
		c15.3-18.2,9.1-13.9,9.1,9.1c3.6-0.5,20.1-4.2,20.2-4.2c1.6-6.2,1.8-17.9,8.7-17.9c0,21,2.4-4.7,4.6-10c3.3-7.8,4-22.4,3.5-38.3
		c2.6-28.6,4-65.1,4.4-94.8l0.2-0.9c1.1-3.6,2-6.9,2.7-9.7c1.3-4.7,2.4-9.5,3.5-14c2.9-12.8,5.8-24.6,10.4-35.7
		c3.3-4.9,7.1-9.5,11.8-15.3c4.7-5.7,10.4-12.4,17.1-21.5l0.5-0.7c12.8,4.2,22.6,21.7,21.1,38.5c-1.1,12.6,8.4,34.3,0,55
		c-6.4,15.7,31.4,14.8,25.3-54.1c-1.5-17-17-73.1-41.2-64.7C533.6,83.7,532.8,83.7,532.3,83.5L532.3,83.5z"/>
        <path fill-rule="evenodd" fill="#717273" d="M480.9,289.3c8,8,20.2,27.7,25.9,31c3.6-2.2,43.6-22.4,50.1-31
		c9.5-19.5,12.8-51,14.9-73.5c0.2-2,0.4-3.8,0.5-5.5c0.5-6.4,2-9.5,3.3-10.8c1.1-0.9,2.2-0.9,3.1-0.5c0.9,0.4,1.5,1.1,2,2
		c0.7,1.3,0.9,2.9,0.2,3.6c-0.4,0.4-0.9,0.4-1.5,0c-0.4-0.4-0.4-0.9,0-1.5c0.2-0.2,0-0.7-0.4-1.5c-0.4-0.5-0.7-1.1-1.1-1.3
		c-0.4-0.2-0.5-0.2-0.9,0.2c-1.1,0.9-2.2,3.6-2.7,9.5c-0.2,2-0.4,3.6-0.5,5.5c-2.2,22.4-5.5,53.8-14.9,73.6c2.4,4.2,7.8,13.5,8.4,14
		c-3.8,14-17.3,58.1-22.6,67.4c-24.6-12-43.4-16.6-57.4-19.5c-17.9-3.6-21-7.5-21-7.5c-0.4-22.6,6-38.1,12.6-54
		c0.4-5.5-0.2-14.4-0.5-20.8c-0.9-13.1-1.6-26.8,3.6-35.7c1.3-2.2,2.9-2.2,4.4-1.5c1.3,0.5,2.2,1.8,2.9,2.4c0.4,0.4,0.4,1.1-0.2,1.5
		c-0.4,0.4-1.1,0.4-1.5-0.2c-0.5-0.5-1.3-1.5-2.2-2c-0.5-0.4-1.3-0.4-1.8,0.7c-4.9,8.4-4.2,21.9-3.3,34.6
		C480.7,275.4,481.2,283.6,480.9,289.3"/>

        <path fill="none" stroke="#000001" stroke-width="2.583" stroke-linecap="round" stroke-linejoin="round"
              stroke-miterlimit="22.926" d="
		M440.1,351.4c25.7-18,25.3-2.9,45-0.2c25.5,3.5,59.6,19.9,59.6,19.9c4.9-10.9,25-63.4,30.8-108.8"/>
        <path fill="#FFF8F8"
              d="M549.2,168.7c-2.2-1.1-9.1,3.8-9.4,10.8c-0.3,5,2.9,10.3,5.2,10.1C549.1,189.3,552.7,170.4,549.2,168.7z"/>
        <path fill="#FFF8F8" d="M492.2,197.2c4.3,0.4,10.8-6.7,9.2-13.2c-1.3-5.2-7.2-7.1-7.8-7.3c-0.9-0.3-5.6-1.7-8,0.5
		C481.3,181.2,486.2,196.6,492.2,197.2z"/>
</g>
    <g id="svg-4-boy-02">
	<path fill-rule="evenodd" fill="#4E4D4D" d="M1429.5,633.8c7.1-9.8,65.6-128.3,98.6-124.1c64.7,8.2,51.9,42.7,36.3,89.9
		c-4.7,14.6-51,135.8-42.3,115.2c10.8-25-5.1,42.5-52.7,33.7c-93.5-17.5-84.9-38.6-45.6-110.5
		C1424.4,636.9,1428.9,634.5,1429.5,633.8"/>
        <path fill-rule="evenodd" fill="#646565" d="M1332.9,689l1.5,4.7c-4.7,83.5-34.3,95.1,67.4,102.6c15.9,1.1,78.7-5.5,90.8-15.1
		c10.4-8.4,124.9-95.7,127.2-100.1c-7.7,3.5,4.2-5.5,9.1-13.7c16.6-27.2,32.4-38.1,6-67.8c-4.4-4.9-32.1-20.2-46.5-15.1
		c-33,11.8-57.2,31.2-80,51.9c-3.3,3.1-6.4,6.4-8.2,3.5c-33.4,0.4-45.2,18.6-84.9,10.9c-31.2-6-63.8,9.8-81.8,34.5
		C1332.7,686.6,1330.7,690.5,1332.9,689"/>
        <path fill-rule="evenodd" fill="#FFFFFF" d="M1486.5,738.8c-8.7,22.4-14.6,44.1-5.5,51c2.9,2.2,12.9,8.7,28.1,12.8
		c4.9,1.3,13.7,19,13.7,19c-21.3,0.5-9.1-5.1-51.6-6.7c-8.6-0.4-11.3-2.2-17.5-2.6c-4.9-0.4-12.9,1.6-25.3-3.5
		c-6.2-2.6-14,7.5-19.3,1.1c3.6-11.7,14.4-14.2,26.6-20.1c12.8-6,3.5-95.3,11.1-114.3c3.6-8.7,12-5.7,23.1-6.7
		c3.6-0.4,32.1-0.2,37.2,4.9C1509.1,675.7,1488.7,733.5,1486.5,738.8L1486.5,738.8z"/>
        <path fill="none" stroke="#000001" stroke-width="2.583" stroke-miterlimit="22.926" d="M1486.5,738.8c-8.7,22.4-14.6,44.1-5.5,51
		c2.9,2.2,12.9,8.7,28.1,12.8c4.9,1.3,13.7,19,13.7,19c-21.3,0.5-9.1-5.1-51.6-6.7c-8.6-0.4-11.3-2.2-17.5-2.6
		c-4.9-0.4-12.9,1.6-25.3-3.5c-6.2-2.6-14,7.5-19.3,1.1c3.6-11.7,14.4-14.2,26.6-20.1c12.8-6,3.5-95.3,11.1-114.3
		c3.6-8.7,12-5.7,23.1-6.7c3.6-0.4,32.1-0.2,37.2,4.9C1509.1,675.7,1488.7,733.5,1486.5,738.8L1486.5,738.8z"/>
        <path fill-rule="evenodd" fill="#FFFFFF" d="M1392.3,323.4c-6.9,24.6,1.1,36.1-17.5,54.7c0,0,14.9,12.9,16.8,14.9
		c23.7,25.7,11.1,29,45.4,51c12.2,7.8,2.9,6,4.7-12.8c0.5-4.9,6.7-13.9,8.9-24.8c1.1-5.5,13.1-35.7,8-37.5
		c-9.7-3.8-39.6-27-46.8-35.9C1408.3,328.8,1397.6,325.2,1392.3,323.4L1392.3,323.4z"/>
        <path fill="none" stroke="#000001" stroke-width="2.583" stroke-miterlimit="22.926" d="M1392.3,323.4
		c-6.9,24.6,1.1,36.1-17.5,54.7c0,0,14.9,12.9,16.8,14.9c23.7,25.7,11.1,29,45.4,51c12.2,7.8,2.9,6,4.7-12.8
		c0.5-4.9,6.7-13.9,8.9-24.8c1.1-5.5,13.1-35.7,8-37.5c-9.7-3.8-39.6-27-46.8-35.9C1408.3,328.8,1397.6,325.2,1392.3,323.4
		L1392.3,323.4z"/>
        <path fill-rule="evenodd" fill="#FFFFFF" d="M1398.5,330.3c0.5,16.4,6.4,25.5,19.7,34.5c10.4,6.9,33.4,24.1,45.6,24.2
		c25.3,0.4,14-0.5,30.8-27.7c2.4-3.8,9.8-29,8-35.5c-4.7-16,8-17.9,3.1-36.5c-4.6-17,13.5-35-37.5-35.9c-17-0.4-62-3.3-70.2,18.6
		c-4.9,13.1-0.2,20.4-1.1,23.1c-0.2,0.4-0.7,0.2,0.7,0.7c-24.2-20.1-28.6,23-8.7,33.2C1390.1,329.6,1397.2,330.7,1398.5,330.3"/>
        <path fill="#DBDADA" d="M1470.5,390.9c-13-0.2-23.1-5.7-32.8-12c-8.2-5.3-16-11.3-24.2-16.7c-10.3-6.8-18.1-26-12.2-38.6
		c1.8-3.9,2.6-8.2,3.7-12.4c0.9-3.5,2.8-4,4.7-1.2c3.6,5.3,7.4,10.6,10,16.4c2.4,5.4,5.7,8.8,11.4,10c6.7,1.3,13.3,2.8,18.3,8.1
		c1.4,1.4,4.5,2.4,6.4,1.9c11.3-2.5,22.1,1.6,33.1,2.2c1.7,0.1,3.3,0.4,4.9,0.5c6.4,0.2,7.1,1,4.8,7.1c-1.6,4.3-4,8.4-6.1,12.5
		c-1.9,3.9-4.1,7.7-5.5,11.7c-2.1,5.8-5,10-11.9,9.9C1473.2,390.4,1471.4,390.8,1470.5,390.9z"/>
        <path fill="none" stroke="#000001" stroke-width="2.583" stroke-miterlimit="22.926" d="M1398.5,330.3c0.5,16.4,6.4,25.5,19.7,34.5
		c10.4,6.9,33.4,24.1,45.6,24.2c25.3,0.4,14-0.5,30.8-27.7c2.4-3.8,9.8-29,8-35.5c-4.7-16,8-17.9,3.1-36.5
		c-4.6-17,13.5-35-37.5-35.9c-17-0.4-62-3.3-70.2,18.6c-4.9,13.1-0.2,20.4-1.1,23.1c-0.2,0.4-0.7,0.2,0.7,0.7
		c-24.2-20.1-28.6,23-8.7,33.2C1390.1,329.6,1397.2,330.7,1398.5,330.3L1398.5,330.3z"/>
        <path fill-rule="evenodd" fill="#1B1B1B" d="M1378.6,291.3c-13.5-3.5-6.6-6.4-8.2-14.2c-10.6-46.5,17.1-22.2,31.7-59.8
		c3.5-8.6,14.8-15.1,28.1-15.3c17.7-0.2,38.3,7.5,46.7,8.6c36.1,4.6,20.1,11.7,33.5,22.4c13.1,10.4,7.7,29.3-4.9,34.5
		c-14.9,6-51.2-14-62.5-9.1c-28.6,12.2-15.3,20.4-24.4,29.2c-11.7,11.3-10.9,29-16.4,14.8C1395.9,295.7,1396.3,287.3,1378.6,291.3"
        />
        <g>
		<path fill="none" stroke="#505050" stroke-width="2" stroke-linecap="round" stroke-linejoin="round"
              stroke-miterlimit="10" d="
			M1500.5,217.5c-3.5-0.9-6.3,1.5-9.5,2.1c-10.7,2-21.1,0.2-31.5-1.6c-6.6-1.2-13.3-2.6-20-3c-11.3-0.6-19.5,4.2-24.5,14.5
			c-3,6.1-5.8,12.2-10.9,17.1c-3.3,3.1-7.1,4.8-11.5,6.1c-6.3,1.7-12.3,3.9-14.7,11.3c-0.9,2.6-1.1,5.2-0.7,7.5
			c0.7,4.1-0.4,8-0.1,12c0.2,2.9-1.5,4.5-3.5,6"/>
            <path fill="none" stroke="#505050" stroke-width="2" stroke-linecap="round" stroke-linejoin="round"
                  stroke-miterlimit="10" d="
			M1497.5,229c-2.4-1.1-4.4,0.3-6.5,1c-8.2,3-16.3,3.4-25,2.2c-8.9-1.2-18-2.7-27-0.2c-6.4,1.8-11.4,5.5-15.5,10.5
			c-8.4,10.5-18.3,19-30.5,25.1c-4.9,2.4-8.4,6.9-11.6,11.4c-1,1.4-2.3,2.7-3.5,4"/>
            <path fill="none" stroke="#505050" stroke-width="2" stroke-linecap="round" stroke-linejoin="round"
                  stroke-miterlimit="10" d="
			M1503.5,221.5c-0.5,6-5.5,9.1-9.6,11.2c-9.7,5-20.2,5.8-31.4,4.6c-15.4-1.7-29.6,1.8-39.1,16.1c-3.6,5.5-7.5,10.9-12.3,15.7
			c-3.7,3.7-8.4,5.7-12.7,8.2c-5.3,3.1-9.2,7-11.3,12.7c-0.4,1-0.8,1.2-1.6,1.5"/>
            <path fill="none" stroke="#505050" stroke-width="2" stroke-linecap="round" stroke-linejoin="round"
                  stroke-miterlimit="10" d="
			M1517.5,240.5c0.5,3.8,2,7.6,0.5,11.5c-2.5,6.2-6.9,10.3-13.5,11.5c-6.9,1.2-13.7,1-20.5-1c-0.4-0.1-0.7-1-1-1.5"/>
            <path fill="none" stroke="#505050" stroke-width="2" stroke-linecap="round" stroke-linejoin="round"
                  stroke-miterlimit="10" d="
			M1511.5,233.5c4.8,11.7-2.1,24.2-15.5,25.7c-9.7,1.1-19.4,0.9-29,2.8c-0.8,0.1-1.7-0.3-2.5-0.5"/>
            <path fill="none" stroke="#505050" stroke-width="2" stroke-linecap="round" stroke-linejoin="round"
                  stroke-miterlimit="10" d="
			M1477.5,259c-8.6-2.6-17.3-2.7-26-0.9c-0.6,0.1-1.3,0.3-2,0.4"/>
	</g>
        <path fill="#404041" d="M1403.4,306.4v0.2C1403.6,306.6,1403.4,306.6,1403.4,306.4 M1465.7,261.4c-0.4,0.5-3.3,1.1-5.7,1.6
		c-1.5,0.4-2.9,0.5-3.5,0.7c-5.3,1.8-8.9,4.4-12.8,6.9c-3.6,2.6-7.5,5.1-12.9,7.3c-7.1,2.7-13.5,5.5-18.2,9.7
		c-4.7,4-7.8,9.5-8.9,17.5l0.5-0.2l-0.2,0.9c-0.4,1.5-0.7,1.8-1.1,1.6c-0.4,0-0.4-0.5-0.4-1.1l-0.7,0.2l0.2-0.9v-2
		c0-1.5,0.2-3.3,0.2-3.5c0-4.7,1.8-8.9,4.7-12.6c2.7-3.6,6.6-6.6,10.4-8.9c3.6-2.4,6.7-4,9.8-5.7c2.6-1.5,5.3-2.9,8-4.6
		c3.1-1.8,5.5-4,7.8-6c2.7-2.4,5.3-4.6,8.4-6l0.4,0.9c-2.9,1.5-5.5,3.5-8.2,5.8c-2.4,2-4.9,4.2-8,6.2c-2.9,1.8-5.5,3.1-8.2,4.6
		c-3.1,1.6-6.2,3.5-9.8,5.7c-3.6,2.4-7.3,5.3-10,8.7c-2.7,3.5-4.6,7.5-4.6,12v1.1c1.5-6.4,4.6-10.9,8.6-14.4
		c4.9-4.2,11.3-7.1,18.4-9.8c5.3-2,9.1-4.6,12.6-7.1c3.8-2.7,7.7-5.3,13.1-7.1c0.5-0.2,2-0.5,3.5-0.7c2.4-0.5,4.9-1.1,5.1-1.3
		L1465.7,261.4L1465.7,261.4z"/>
        <path fill-rule="evenodd" fill="#373737" d="M1487.6,303.7l-1.1,0.2c1.5-2.6,2.9-4.9,4.6-7.1c3.1-0.2,18.2-0.2,20.6,1.3
		c-6.6,5.8-9.5,5.5-21,5.8C1490.2,303.7,1488.7,303.5,1487.6,303.7 M1480.7,294.9c-0.9,2-2.9,5.7-4.9,6.9c-0.4-0.5-0.5-0.5-1.3-0.5
		c-21.1-1.6-21.9-10.6-44.3-5.5c8.4-10.8,26.4-3.8,37.2-2.6C1469.9,293.5,1479.2,293.8,1480.7,294.9L1480.7,294.9z"/>
        <path fill="#000001" d="M1482.7,343.4l0.2,0.2l0.4-0.2C1483,343.2,1482.9,343.4,1482.7,343.4 M1482.9,343.4l-0.2-0.2L1482.9,343.4z
		 M1486.9,320.4c0,1.3,0.4,3.1,0.7,4.7c0.4,2.4,0.7,4.7,0.7,6.6c0,0.5,0,1.5,0.2,2.6c0.2,2.4,0.4,5.5-0.4,6.6
		c-0.5,1.1-1.6,1.8-2.6,2.6c-0.5,0.4-1.1,0.7-1.1,0.9c-0.5,1.1-1.3,1.1-2,0.7c-0.4-0.2-0.4-0.4-0.5-0.5l0.9-0.9l-0.2-0.2
		c-0.4,0-0.7,0-0.5-0.2c0.4-0.7,1.1-1.3,2-1.8c1.1-0.4,2.4-0.5,2.9-0.9c1.8-3.8-5.7-26.8-1.5-37
		C1484.9,311.3,1486.7,316.1,1486.9,320.4L1486.9,320.4z"/>
        <path fill-rule="evenodd" fill="#050103" d="M1468.1,331.6c-6.7,6,1.1,8.4-0.2,10.9c-0.7-0.5-5.1-4.2-4.6-5.7
		C1463.9,335,1467,331.4,1468.1,331.6"/>
        <path fill-rule="evenodd" fill="#FFFFFF" d="M1483.6,359.6c-0.9-1.3-1.6-2.9-2.7-4c-1.1-1.3-1.5-1.3-3.3-0.9
		c-3.3,0.9-3.8-2.9-10.8,1.1c-3.6,2.2-10.8,2-12,3.5c-0.2,0.2-0.2-0.2-0.2,0.2c6-3.1,7.5,0.4,13.7-1.6c5.3-1.6,4,1.5,10.2-0.4
		C1480.3,357.1,1483,359.6,1483.6,359.6"/>
        <path fill="#000001" d="M1481.6,357.8c-0.4-0.5-0.9-1.3-1.3-1.8c-0.5-0.5-0.7-0.7-1.1-0.9c-0.4,0-0.7,0-1.5,0.2
		c-1.3,0.4-2.2,0.2-3.3-0.2c-1.5-0.5-3.1-1.1-7.3,1.3c-1.1,0.5-2.4,1.1-3.8,1.5c1.3,0.2,2.7,0,4.7-0.5c2.7-0.9,3.8-0.5,4.9-0.2
		c1.1,0.4,2.2,0.7,5.3-0.2C1479.4,356.7,1480.7,357.3,1481.6,357.8 M1483.6,358.5c0.2,0.2,0.4,0.5,0.5,0.7l0.5,0.9h-1.1
		c-0.4,0-0.9-0.4-1.5-0.7c-0.9-0.7-2.4-1.6-3.5-1.3c-3.5,1.1-4.7,0.5-6,0.2c-0.9-0.4-2-0.5-4.2,0.2c-2.9,0.9-4.9,0.7-6.7,0.4
		c-2-0.2-3.8-0.5-6.9,1.1l-0.9,0.5v-1.3c0-2,2.4-1.6,5.5-2.2c2.4-0.4,5.3-0.9,7.1-2c4.7-2.7,6.7-2,8.4-1.5c0.7,0.2,1.5,0.5,2.6,0.2
		c0.9-0.4,1.6-0.4,2.2-0.2c0.5,0.2,1.1,0.5,1.6,1.3C1482.1,356.2,1482.9,357.4,1483.6,358.5L1483.6,358.5z M1464.8,363.8
		c0,0,6.7,0.2,11.7,0c2.7-0.2,4.9-0.5,5.1-0.5C1484.5,367.1,1464.3,366.6,1464.8,363.8"/>
        <path fill-rule="evenodd" fill="#BBBCBF" d="M1384.6,313.2c-2.9-4.9-2.2-18.6,8-7.7c0.4,0.5,1.3,0.7,1.8,0.5
		c-2.7-4.7-8.6-13.3-11.7-4C1382.1,303.9,1383,313.2,1384.6,313.2"/>
        <path fill="none" stroke="#000001" stroke-width="1.808" stroke-miterlimit="22.926" d="M1484.9,311.3c5.1-3.5,8.4-4.6,14-2
		c0.4,0.2,1.1,0.5,1.3,0.9 M1464.1,307.1c-4.7-6.9-26.2-2.4-28.4-1.1c5.5,9.3,16.2,10.6,24.8,5.3 M1485.1,315.2
		c6,2.2,8.7,3.6,14.8-0.9c0.4-0.2,0.2-0.4,0.5-0.4"/>
        <path fill-rule="evenodd" fill="#000001" d="M1448.2,306.6c3.1,0,5.7,2.6,5.7,5.5c0,0.7-0.2,1.6-0.5,2.4c-3.5,0.2-7.8,0.5-10.8-1.3
		c0-0.4-0.2-0.7-0.2-1.1C1442.6,309.1,1445.1,306.6,1448.2,306.6"/>
        <path fill-rule="evenodd" fill="#000001" d="M1491.3,310.8c2.6,0,4.6,2,4.6,4.4c0,0.7-0.2,1.3-0.4,1.8c-2.7,0.2-6.2,0.5-8.7-0.9
		v-0.9C1486.7,312.8,1488.9,310.8,1491.3,310.8"/>
        <path fill-rule="evenodd" fill="#242424" d="M1444.2,722c-23.9,14.9-105,10.9-109.5-13.5c-6.2-33,3.3-51.9-10.8-109
		c-27.2-109.9-99.9-121-34.3-201.4c19.1-23.5-13.9-27,36.6-32.6c0.9-0.2,4.2-2.4,4.9-2.9c28.6,4.4,86.6,19.1,110.1,37
		c25.3,19.3,61.6-4.2,79.3,33.2c14.4,30.1,4.2,98.1,4.7,155.5c0.2,12-9.5,113.7-19.9,99.9c-23.5,11.3-35-9.7-60.2-5.5
		c-3.5,10.6-2.4,21.3-2.4,31.2C1445.7,715.4,1439.3,724.7,1444.2,722"/>
        <g>
		<path fill="none" stroke="#000000" stroke-width="2" stroke-linecap="round" stroke-linejoin="round"
              stroke-miterlimit="10" d="
			M1498,524.5c0.7,13.2-0.9,26.3-1.1,39.5c0,4.2-0.9,8.3-1.4,12.5"/>
            <path fill="none" stroke="#000000" stroke-width="2" stroke-linecap="round" stroke-linejoin="round"
                  stroke-miterlimit="10" d="
			M1471,494.5c-0.4,6.8,1.6,13.3,2.1,20c0.5,7.2,1.9,14.3,2.9,21.5c0.2,1.5,0.7,3,1,4.5"/>
            <path fill="none" stroke="#000000" stroke-width="2" stroke-linecap="round" stroke-linejoin="round"
                  stroke-miterlimit="10" d="
			M1466,578c-2.2,6.7-2.9,13.7-3.9,20.5c-1.1,7.9-1.1,16-1.6,24"/>
            <path fill="none" stroke="#000000" stroke-width="2" stroke-linecap="round" stroke-linejoin="round"
                  stroke-miterlimit="10" d="
			M1386,592c2.3,3.7,1.2,8.1,1.7,12c1.2,9.8,2.9,19.6,3.8,29.5"/>
            <path fill="none" stroke="#000000" stroke-width="2" stroke-linecap="round" stroke-linejoin="round"
                  stroke-miterlimit="10" d="
			M1440.5,451c-2.6,1.5-2,4.4-2.3,6.5c-1.8,11.2-4,22.5-3.2,34"/>
            <path fill="none" stroke="#000000" stroke-width="2" stroke-linecap="round" stroke-linejoin="round"
                  stroke-miterlimit="10" d="
			M1417.5,633.5c-0.2,13.7-0.3,27.3-0.5,41"/>
            <path fill="none" stroke="#000000" stroke-width="2" stroke-linecap="round" stroke-linejoin="round"
                  stroke-miterlimit="10" d="
			M1335,422.5c-1.8,9.7-5.6,18.7-8.5,28c-1.1,3.7-2.3,7.3-3.5,11"/>
            <path fill="none" stroke="#000000" stroke-width="2" stroke-linecap="round" stroke-linejoin="round"
                  stroke-miterlimit="10" d="
			M1513,575.5c-1.3,12.3-2.7,24.7-4,37"/>
            <path fill="none" stroke="#000000" stroke-width="2" stroke-linecap="round" stroke-linejoin="round"
                  stroke-miterlimit="10" d="
			M1488.5,615c-0.5,0.3-1.4,0.7-1.4,1c-0.1,11.6-3.1,22.9-3.1,34.5"/>
            <path fill="none" stroke="#000000" stroke-width="2" stroke-linecap="round" stroke-linejoin="round"
                  stroke-miterlimit="10" d="
			M1373.5,420c-3.8,2.9-4.3,7.6-5.9,11.5c-2.9,7.4-6.3,14.7-5.6,23"/>
            <path fill="none" stroke="#000000" stroke-width="2" stroke-linecap="round" stroke-linejoin="round"
                  stroke-miterlimit="10" d="
			M1354.5,479c-2.2,0.5-1.1,2.3-1.5,3.5c-3.1,9.8-4.5,19.8-4,30"/>
            <path fill="none" stroke="#000000" stroke-width="2" stroke-linecap="round" stroke-linejoin="round"
                  stroke-miterlimit="10" d="
			M1404,487.5c-0.3,11.3-0.7,22.7-1,34"/>
            <path fill="none" stroke="#000000" stroke-width="2" stroke-linecap="round" stroke-linejoin="round"
                  stroke-miterlimit="10" d="
			M1417,558.5c0.8,11,1.1,22-0.5,33"/>
            <path fill="none" stroke="#000000" stroke-width="2" stroke-linecap="round" stroke-linejoin="round"
                  stroke-miterlimit="10" d="
			M1486,447.5c1,6.7,2.2,13.3,2.9,20c0.4,4,1.7,7.9,1.1,12"/>
            <path fill="none" stroke="#000000" stroke-width="2" stroke-linecap="round" stroke-linejoin="round"
                  stroke-miterlimit="10" d="
			M1366,535.5c-0.5,10.7-1,21.3-1.5,32"/>
            <path fill="none" stroke="#000000" stroke-width="2" stroke-linecap="round" stroke-linejoin="round"
                  stroke-miterlimit="10" d="
			M1508,648.5c-2.1,9.6-3.8,19.2-7,28.5"/>
            <path fill="none" stroke="#000000" stroke-width="2" stroke-linecap="round" stroke-linejoin="round"
                  stroke-miterlimit="10" d="
			M1367,659.5c0.1,7.4-1.6,14.6-1,22c0.1,2.1,0.2,4.1,1,6"/>
            <path fill="none" stroke="#000000" stroke-width="2" stroke-linecap="round" stroke-linejoin="round"
                  stroke-miterlimit="10" d="
			M1398,684.5c0.1,8.7-1.7,17.3-1,26"/>
            <path fill="none" stroke="#000000" stroke-width="2" stroke-linecap="round" stroke-linejoin="round"
                  stroke-miterlimit="10" d="
			M1426,696.5c-0.6,5.7,1,11.3,1,17"/>
	</g>
        <path fill="#58595B" d="M1445.7,682.8c-12.6,0.7-16.4-1.6-16.8-6.7c-0.2-2.7,0.7-6.2,1.8-10.4c2-7.8,4.7-18.4,2.2-31.4
		c-2.6-12.6-0.2-16,2.6-20.1c2.6-3.8,5.7-8.2,5.5-21.9c0-2.9,0.5-38.1,2.6-37.7c0.5,0.2-0.5,5.7-1.1,12.6
		c-0.7,10.2-0.7,23.3-0.5,25.2c0.2,14-2.9,18.6-5.7,22.6c-2.7,3.8-4.7,7.1-2.4,19.3c2.6,12.9-0.2,23.7-2.2,31.7
		c-1.1,4.2-2,7.5-1.8,10c0.2,4.4,3.8,6.6,15.7,5.8L1445.7,682.8L1445.7,682.8z"/>
        <path fill-rule="evenodd" fill="#E5E6E7" d="M1418.2,284.9c8.6-6.2-1.3-14.9-6-21.1c-4.6-6-9.7-12.8,2.2-17.5
		c-7.1,2.7-1.3,9.5,3.6,15.9c3.1,4.2,6.7,9.1,6.2,14c-0.4,0.4-0.9,0.9-1.5,1.3c0.5-0.4,0.9-0.7,1.5-1.1
		C1423.8,279.3,1422,282,1418.2,284.9"/>
        <path fill-rule="evenodd" fill="#E5E6E7" d="M1424.2,276.3c4.2-5.1-2.7-11.5-6.2-16c-3.6-4.9-7.8-10.4,1.8-14
		c-5.7,2.2-1.1,7.7,2.9,12.9C1426.4,264.1,1431.1,270.3,1424.2,276.3"/>
        <path fill-rule="evenodd" fill="#6D6E70" d="M1422.7,277.4c0.5-0.4,1.1-0.9,1.5-1.3v0.2C1423.8,276.7,1423.3,277.1,1422.7,277.4
		 M1396.8,294l-0.9,0.2l-4.9-7.7l1.5-0.1L1396.8,294z"/>
        <path fill-rule="evenodd" fill="#6D6E70" d="M1372.2,290.7c-0.2,0-0.4,0.2-0.5,0.2c-4.9,1.8-6.7,0-6.7,0l0.9,6.9
		c2.2-1.6,4.2-2.2,6.4-2h0.5l4.2-0.4c2-3.5,5.7-5.8,9.7-5.8c3.5,0,6.7,1.8,8.7,4.6l21.9-1.5l-1.6-11.5L1372.2,290.7L1372.2,290.7z"
        />
        <path fill-rule="evenodd" fill="#BB2C2C"
              d="M1420.5,286.5c0.4,2.9-0.9,5.7-3.1,6l-1.5-10.8C1418,281.4,1420,283.4,1420.5,286.5"/>
        <ellipse fill="#FFFFFF" cx="1447.5" cy="312.3" rx="2.2" ry="1.9"/>
        <ellipse fill="#FFFFFF" cx="1491.3" cy="315.4" rx="1.5" ry="1.6"/>
</g>
</svg>
