<?xml version="1.0" encoding="utf-8"?>
<!-- Generator: Adobe Illustrator 23.0.1, SVG Export Plug-In . SVG Version: 6.00 Build 0)  -->
<svg version="1.2" baseProfile="tiny" id="svg-6" xmlns="http://www.w3.org/2000/svg" xmlns:xlink="http://www.w3.org/1999/xlink"
	 x="0px" y="0px" viewBox="0 0 1920 1080" xml:space="preserve">
<g id="svg-6-all">
	<g id="svg-6-gray-pattern">
	<path fill="#979EAD" d="M1354.2,0.9c6.4,10.7,15.3,19.5,23.2,29.1c13.2,16.2,26.6,32.3,40.2,48.4c2,2.5,1.8,3.9,0,6.2
		c-31.6,38.9-63.2,77.8-94.6,116.7c-1.6,2-2.9,3.4-5.4,1.4c-2.9-2.5-0.4-3.9,0.9-5.5c21.8-26.8,43.5-53.5,65.3-80.3
		c8.4-10.4,16.8-20.9,25.3-31.1c2.5-3,2.7-5,0-8.4c-20.5-24.4-40.7-49.1-60.9-73.5c-0.7-0.9-1.2-1.8-1.8-2.7
		C1348.9,0.9,1351.5,0.9,1354.2,0.9L1354.2,0.9z"/>
		<path fill="#979EAD" d="M1301.8,186.9c4.5-9.1,11.8-16.1,18-23.7c21.1-26.2,42.1-52.1,63.4-78c2.5-3,2.3-5,0-7.9
		c-21.4-25.5-42.5-51-63.7-76.6h8c20.3,24.6,40.5,49.3,61,73.5c4.5,5.2,4.6,8.2,0,13.7c-26.2,31.8-52.1,63.9-78,95.8
		c-1.8,2.1-2.9,6.1-7.1,3.9C1302.5,187.8,1302.2,187.5,1301.8,186.9L1301.8,186.9z"/>
		<path fill="#979EAD" d="M1296.6,0.9c20.5,24.8,41,49.8,61.9,74.4c3.6,4.3,4.1,7,0.2,11.8c-21.6,26.1-42.8,52.3-63.9,78.9
		c-3,3.7-5.2,4.3-8.9,2.3c15.2-18.9,30.3-37.8,45.5-56.8c6.8-8.6,13.6-17.1,20.7-25.3c3-3.6,3.2-5.5,0-9.3
		c-20.5-24.1-40.5-48.5-60.7-72.8c-0.7-0.7-0.9-2-1.4-2.9C1292.2,0.9,1294.3,0.9,1296.6,0.9L1296.6,0.9z"/>
		<path fill="#979EAD" d="M1271.1,0.9c15,18.2,29.8,36.6,44.8,54.8c6.1,7.3,12,15,18.4,22.1c2.5,2.9,2.3,4.6,0,7.3
		c-18,22.1-35.9,44.3-53.9,66.4c-1.2,1.4-2.1,4.5-5.2,2c-2.7-2.3-0.7-3.9,0.7-5.5c14.3-17.7,28.4-35.3,42.8-53
		c11.1-13.6,11.1-13.4-0.4-27.1c-18.6-22.1-36.9-44.6-55.3-66.9C1265.8,0.9,1268.5,0.9,1271.1,0.9z"/>
		<path fill="#979EAD" d="M1260.4,137.4c0-5.5,4.8-8.4,7.7-12c10.4-13.2,20.9-26.1,31.6-38.7c3.2-3.9,3.2-6.4-0.2-10.5
		c-19.8-23.2-39.1-46.8-58.5-70.3c-1.2-1.6-2.1-3.4-3.2-5h8c5.5,10,13.9,17.8,20.9,26.6c13.6,16.8,27.5,33.2,41.4,49.8
		c2,2.3,3.6,4.1,0.9,7.3c-13.9,16.8-27.7,33.7-41.2,50.7C1265.2,138.1,1263.3,138.5,1260.4,137.4L1260.4,137.4z"/>
		<path fill="#979EAD" d="M1281.8,174.8c-16.4-20.5-33-41-49.4-61.6c2.3-0.7,4.5-1.6,6.8-2.3c2,1.6,3.7,3.6,5.7,5.2
		c0.5,0.7,1.1,1.2,0.7,2.3c3.6,7.5,9.6,12.8,14.8,18.9c8.4,10.4,17,20.5,25.3,30.9c5.2,6.4,9.8,13.2,16.1,18.7
		c0.4,0.4,0.9,0.7,1.2,1.1c4.1,8,10.7,14.1,16.2,20.9c32.5,39.3,65,78.5,97.6,117.8c2.5,3,1.8,4.6-0.4,7.1
		c-8.6,10.2-17,20.7-25.3,31.1c-2,2.3-4.3,4.6-3.9,8.2c-1.2-3.6-2.5-7.3-3.7-10.9c7.5-8.7,14.6-17.8,22.1-26.8
		c3.4-4.1,3-7.1-0.4-11.1c-33.6-40-66.9-80.5-100.3-120.6c-4.3-5.2-8.2-10.4-12.1-15.9C1289.2,183.7,1286.8,178.2,1281.8,174.8
		L1281.8,174.8z"/>
		<path fill="#979EAD" d="M1217.6,15.5c2.3-4.3,0.7-9.1,1.6-13.6c1.2,9.1,8.2,14.3,13.4,20.9c12.7,16.1,26.6,31.1,38.7,47.5
		c-2.9,0.4-5.5-0.5-8.2-1.4c-7.7-4.3-11.4-12.3-17.1-18.4s-5.5-6.2-11.6-0.5c-1.8,1.6-3.4,3.6-6.1,3.9c-2.7-0.4-5-1.4-5.7-4.5
		c1.4-4.3,5.2-6.6,8.2-9.5c4.5-4.3,0.5-6.6-1.6-9.5c-2.7-3.7-4.8-1.2-7,0.7c-2.1,1.8-3.6,4.8-7,4.5c-0.4-2.3-0.7-4.6-1.2-7
		c0.7-1.4,1.2-3,2.5-3.9C1219.9,22.1,1219.9,18.9,1217.6,15.5L1217.6,15.5z"/>
		<path fill="#979EAD" d="M1348.5,276.9c7,4.8,11.2,12.3,16.6,18.6c8.7,9.8,16.6,20.2,25.2,30.2c3,3.6,2.7,6.1-0.2,9.1
		c-2,2.1-3.6,4.6-5.5,6.6c-3.6,3.2-4.6,7.1-3.7,11.8c-4.1-10.4-8-20.5-12.1-30.9c4.1-0.4,4.6,3.4,6.2,5.7c1.4,2.1,1.6,5,3,7.3
		c6.1-3.6,6.2-4.5,2.1-9.8c-7.5-9.6-16.1-18.2-22.3-28.7C1354.9,290.1,1351.7,283.5,1348.5,276.9L1348.5,276.9z"/>
		<path fill="#979EAC" d="M1818.2,611.4c-4.3,2-8.9,2.9-13.6,3.9c28.7-34.8,57.6-69.8,86.4-104.6c5.7-6.8,11.1-13.9,17.1-20.5
		c3.6-3.7,3.2-6.1-0.4-9.6c-28.9-28.6-57.5-57.3-86-86.2c-5.5-5.5-10.7-11.4-16.2-16.8c-2.7-2.7-2.5-4.5-0.2-7.3
		c33.2-39.8,66.4-79.8,99.6-119.7c1.1-1.4,2.1-3,3.4-4.1c3.7-3.2,2.5-5.4-0.5-8.4c-33.7-33.7-67.3-67.6-101-101.5
		c-3.4-3.4-4.3-5.2-0.7-9.5c35-41.9,69.6-84.1,104.4-126.2h8c0.7,2.3-1.1,3.7-2.3,5.2c-33,39.6-65.7,79.2-98.7,118.9
		c-5.2,6.2-5.2,6.4,0.4,12l92.3,92.3c2.9,2.9,5.7,4.8,9.8,4.6v8c-2.7,7.7-8.6,12.8-13.6,18.7c-29.4,35.2-58.5,70.7-88,106
		c-5.9,7.1-5.9,7.1,0.7,13.9c17.5,17.5,35.3,34.6,52.5,52.6c12.7,13.4,25.7,26.6,38.5,39.8c2.9,2.9,5.7,4.8,9.8,4.6v8
		c-3.2,8-9.5,13.9-14.8,20.3c-27.7,33.2-55,66.6-82.8,99.8C1820.5,607.3,1818.5,608.8,1818.2,611.4L1818.2,611.4z"/>
		<path fill="#979EAD" d="M1919.7,36.9c-9.5,8.6-16.6,19.1-24.8,28.7c-17,20-33.4,40.5-50.3,60.5c-3.2,3.7-3.6,5.9,0.2,9.6
		c24.8,25.2,49.6,50.5,75,75.1v8c-14.6-14.5-29.1-28.7-43.7-43.2c-13.4-13.4-26.6-26.8-40-40.2c-2.1-2.1-3.9-3.6-1.1-7
		c27.5-32.8,54.8-66,82.1-99c0.7-0.9,1.6-1.4,2.5-2C1919.7,30.7,1919.7,33.9,1919.7,36.9L1919.7,36.9z M1919.7,279.4
		c-10.9,10.5-19.6,23-29.4,34.4c-15.3,18-30.2,36.4-45.3,54.4c-3.6,4.1-4.5,6.8,0.2,11.2c23.2,22.8,46,46,69.1,69.1
		c1.8,1.8,3.6,3.2,5.4,4.8v8c-8.6-6.8-15.7-15-23.4-22.7c-20-20-39.8-40.2-60-60c-3.2-3-3.6-4.8-0.5-8.6
		c27.3-32.7,54.3-65.3,81.4-98.2c0.7-0.9,1.6-1.4,2.5-2.1L1919.7,279.4L1919.7,279.4z"/>
		<path fill="#979EAD" d="M1919.7,310.1c-17,20.3-33.9,40.7-50.9,60.9c-1.4,1.6-2.5,2.9-0.4,5c17.1,16.8,33.4,34.6,51.4,50.5v9.5
		c-19.5-19.6-38.9-39.3-58.4-58.7c-3-3-1.2-5,0.7-7.3c19.3-23,38.5-46.2,57.6-69.2L1919.7,310.1L1919.7,310.1z M1919.7,67.8
		c-17.1,20.5-34.3,41-51.6,61.4c-1.4,1.8-1.6,2.9,0,4.5c17.3,16.8,33.6,34.4,51.4,50.7v8c-6.1-3.9-10.4-9.6-15.3-14.5
		c-14.3-14.1-28.4-28.4-42.3-42.5c-1.4-1.6-4.3-2.7-1.6-5.9c19.8-23.6,39.6-47.3,59.4-71V67.8L1919.7,67.8z M1919.7,523.1
		c-10.7,10.5-19.5,23-29.3,34.3c-10.5,12.3-20.7,24.8-30.9,37.5c-1.1,1.4-5,3.4,0.2,4.6c-4.6,2.1-9.8,2.9-14.8,3.9
		c22.5-27.3,45.2-54.8,67.8-81.9c2.3-2.7,3.7-6.1,7.1-7.9C1919.7,516.8,1919.7,519.9,1919.7,523.1L1919.7,523.1z"/>
		<path fill="#979EAD" d="M1919.7,342.2c-9.5,8.9-17,19.8-25.5,29.6c-1.8,2-0.9,3.6,0.7,5.2c8.2,8,16.6,16.1,24.8,24.1v8
		c-11.8-10.2-22.1-21.8-33.2-32.7c-1.2-1.2-1.6-2.5-0.4-4.1c11.4-13,21.4-27.3,33.6-39.6V342.2z M1919.7,99.9
		c-10,8.6-16.8,20-25.7,29.4c-2,2.1-0.4,3.6,1.1,5c8.2,8.2,16.4,16.2,24.6,24.3v8c-10.9-10.7-22-21.6-32.8-32.3
		c-1.2-1.2-2.5-2.5-0.9-4.5c11.2-13,21.2-27.3,33.7-39.4L1919.7,99.9L1919.7,99.9z"/>
		<path fill="#989FAD" d="M1919.7,553.8c-9.1,10.7-18.2,21.6-27.3,32.3c-1.1,1.2-3.6,3.2,0.5,3.9c-4.3,2-9.1,2.5-13.6,3.6
		c8.6-12.3,18.9-23.4,28.4-35c3.9-4.8,8-9.5,12-14.1V553.8z"/>
		<path fill="#9EA4B2" d="M1919.7,136c-5.5-3.2-4.3-6.2,0-9.5V136z"/>
		<path fill="#9BA1B0" d="M1919.7,378.4c-6.6-3.2-3.2-6.2,0-9.5V378.4z"/>
</g>
	<path id="svg-6-green" fill="#74BBBB" d="M1435.2,675.3L1435.2,675.3c0-2.5,0-5-2.5-6.4c-5.8,0.2-7.9-1.9-7.9-7
	c0.7-12.3,1.8-24.6,1.2-36.9c0.2-2.1-1.3-4.3,0.2-6c-1.3-15-3-30-5.6-44.7c-7.2-39.3-15-78.3-22-117.6c-1.1-5.7-3-11.2-1.6-17.1
	c0.3-2.7-0.4-5.4-1.1-7.9c-7.3-28-15.5-55.7-25.5-82.8c-3.8-10-6.5-20.4-12.7-29.3c-2.9-1.2-4.9-3.6-6.1-6.6
	c-3-7.7-7.5-14.3-13.2-20c-2-2-3.6-4.1-4.1-6.8c-1.6-8.5-4.3-16.7-5.9-25.3c-1.4-4.4-3.9-8.4-6.4-12.3c-16.6-27.1-35.3-52.8-54.6-78
	c-3.9-5.2-7.3-11.1-12.8-15.2c-8.6-3.7-14.5-10-18.6-18.2c-2.2-4.3-103.3-135.5-107.9-137.1C1127.5-0.1,1000,0,1000,0H0v442.5
	c-0.3,0.3-0.5,0.5-0.5,0.5s0.2,0,0.5-0.1V1080h609.5l0.1,0.1h266.5v-0.1H1000v-0.1h88c0.8-3-1.6-4.5-4.2-5.8
	c-8.2-9.6-16.1-19.6-22.5-30.7c-18.4-31.7-24.3-65.7-16.4-101.7c7.8-35.3,29.6-60.6,58.5-80.8c26.6-18.4,56-31.3,84.6-45.9
	c1.6-0.9,3.4-1.2,5.2-1.4c6.2-2.1,11.6-5.7,17.3-8.7c43.7-23.2,88.3-44.3,133.3-64.8c13.4-6,27.2-11,40.2-18
	c0.4-3.2,3.4-2.1,5.2-3.2c0.5-0.2,1.1-0.3,1.6-0.7c5-2.4,9.6-5.2,14.8-7c8.9-3.7,17.5-8.3,26.2-12.8c2.8-1.5,5.9-3.3,6.4-7
	C1436.8,686,1435.6,680.8,1435.2,675.3z"/>
	<path id="svg-6-rose" fill="#F5D3F8" d="M337.8,1080.1c-0.5-4.1,2.3-6.8,5-8.7c4.1-3.2,7.1-7.3,9.8-11.6c21.1-33,46.2-62.6,70.5-93.2
	c22.5-28,43-57.3,59.3-89.4c3-5.9,7.7-9.6,13.9-11.6c2.3,0.7,14.7-0.1,15.9,1.7c12,4.2,22.7,16.5,31.1,55.1c0.4,1.8,7.2,56.1,7,57.9
	c-0.5,31.4,3.7,61.6,21.4,88.5c2.3,3.6,6.1,6.6,5.7,11.6L337.8,1080.1z"/>
	<g id="svg-6-black-lines">
	<path fill="#0A0A0A" d="M1247.2,1080.1c-8-5.6-17.7-9-26.6-13.2c-25.3-12.1-51.3-23.8-70.7-42.7c-17.7-17.3-36.3-34.4-41.4-58.2
		c-2.5-12.5-1.7-25.4-5.3-37.9c-1.9-6.5-2.4-13.4-3.5-20.2c-0.6-3.2-0.2-5.8,4.4-6.3c5.3-0.5,5.1,2.9,5.4,5.6
		c0.6,3.7,1.3,7.4,2.4,13c9.3-22.4,23.2-40.9,39-58.2c-0.5-1.2-1.3-0.2-1.7-0.2c-12.4,9-24,19.1-33.9,30.1c-2.7,3-5.7,5.3-9.7,2.7
		c-4.4-2.9-0.5-5.4,1.7-7.8c27.2-29.6,62.4-51.2,100.6-69.8c1.1-0.5,2.4-1.1,3.4-1.6c53.6-24.7,108.9-46.5,164.4-68
		c20.5-7.9,41.1-15.1,61.8-22.9c1.7-1.6,4.4-1.8,6.5-2.7c6.5-2.1,12.3-5.6,19.4-6.5c43-14.1,85.8-28.2,129.4-41.3
		c61.8-18.5,124.3-35.5,186.9-51.5c1.4-0.4,3-0.9,4.4-1.4c4.6-2.9,10.3-3.9,15.8-5.3c10.3-2.9,20.9-5.3,31.5-8.1
		c5.9-1.1,11.8-2.3,17.5-3.7c7.8-2.1,15.6-3.9,23.2-5.8c5.4-1.2,10.8-2.5,16.2-3.6c7.8-2,15.6-3.9,23.4-5.8c2.7-0.4,5.7-1.6,8.4,0.4
		v7.9c-27.4,6.5-55.1,13-82.5,19.8c-144.7,34.9-287.5,75.3-425.7,125.6c-66.1,24.1-130.8,50.4-194.2,79.1c-15.6,7-29.8,15.5-41.4,27
		c-12.9,12.8-25.5,25.8-36.8,39.7c-27.7,35.1-26.8,70.3-2.4,106.1c7.6,11.1,18.8,18.7,31,25.9c20.1,11.9,42,20.9,64,30.1
		c23.1,9.7,46,19.4,69.1,29h-23.9c-19.6-5.8-37.1-15-55.3-22.9c-2.5-1.1-4.6-2.7-7.3-3.6c2.4,0.9,4.4,2.3,6.5,3.4
		c13.5,6.3,27.4,12.1,40.9,18.5c2.4,1.1,5.9,1.4,5.4,4.7C1260.9,1080.1,1253.9,1080.1,1247.2,1080.1z"/>
		<path fill="#0A0A0A" d="M876.3,1080.1c-28.6-36.2-57.8-71.9-91.2-104c-41.4-39.8-87.1-72.8-142.4-90.8c-12.5-4.1-25.3-7.1-38.2-9.6
		c-3-0.5-7.7,0.2-6.6-5.2c1.1-4.8,5.2-3.4,8.2-2.9c22.5,3.9,44.3,10.4,65.1,19.5c45,19.5,83.5,48.4,118.7,82.1
		c34.4,33.2,64.8,70,94.1,107.6c0.7,1.1,2,1.8,1.4,3.4C882.5,1080.1,879.3,1080.1,876.3,1080.1z"/>
		<path fill="#0A0A0A" d="M542.6,927.8c12.1,29.6,17.3,61,23.2,92.3c4.3,22.7,15.2,42.1,29.1,60h-10.7c-3.6-1.6-5.7-4.6-7.9-7.9
		c-12.8-19.6-19.8-41.2-23.2-64.2c-1.4-9.5-4.5-18.6-3.9-28.2c-7.9-39.8-25.3-75.3-48.7-108.1c-1.4-2-3-3.7-4.5-5.7
		c-0.4-2.9,0.9-4.6,3.6-5.2c2.5-0.5,4.1,0.7,5.4,2.7c1.1,1.4,2.1,2.7,3.2,4.1c7.3,6.1,11.4,14.6,16.2,22.5
		C531.7,901.7,538.7,914,542.6,927.8L542.6,927.8z"/>
		<path fill="#0A0A0A" d="M1103.9,1080.1c-4.6-7.1-11.4-12.1-16.8-18.6c-18.6-22-32.8-46.2-35.9-75.3c-4.5-41.8,8.6-77.6,38-107.6
		c2.3-2.3,4.8-3.9,7.5-1.2s0.9,5-1.4,7.3c-25.3,25.9-38,56.8-36.4,92.8c1.4,32.5,16.6,59.1,38.2,82.3c6.4,7,13.6,13.6,20.3,20.2
		C1112.8,1080.1,1108.4,1080.1,1103.9,1080.1L1103.9,1080.1z"/>
		<path fill="#0B0B0B" d="M532.1,1080.1c-12.3-28.7-27.1-56.2-40.5-84.6c-2.7-5.7-2.3-9.3,3.4-12.8c6.4,13.4,12.8,26.8,19.3,40.2
		c8,16.8,16.1,33.6,23.9,50.5c1.1,2.1,2.7,4.3,2,6.8C537.4,1080.1,534.8,1080.1,532.1,1080.1L532.1,1080.1z"/>
		<path fill="#989EAC" d="M1913,584.3c1.8-3,3.6-6.1,6.8-7.9v6.8C1917.4,583.6,1915.3,583.9,1913,584.3L1913,584.3z"/>
		<path fill="#0A0A0A" d="M1224.2,116.2c2.3-2.3,5.2-2.9,8.2-2.9c4.1,1.4,6.1,5.2,8.4,8.2c13.9,17.5,28.4,34.6,41.9,52.5
		c3.9,4.5,7,9.5,10.9,13.7c21.2,27.8,39.8,57.5,56,88.5c3.4,6.6,6.4,13.4,9.5,20.2c3.6,8.4,7.7,16.8,11.1,25.3
		c4.1,10.2,7.9,20.3,11.6,30.7c1.2,3,2.3,6.1,3.4,9.3c2,3.6,1.2,7.7,2.1,11.4c15.7,49.8,27.1,100.5,35.5,152
		c6.8,41,12.1,82.5,16.8,123.9c1.4,12.1,6.7,58.4,8.1,70.6c0.5,4.3-0.7,6.6-5.4,5.9c-4.3-3.4-2.7-8.6-3.9-12.8
		c-0.9-3.2-3.6-40.6-5.2-43.6c-1.8-1.1-2-2.9-2.1-4.6c-1.2-12-3.4-23.9-3.4-35.9c0-3.4-2-6.4-1.4-9.8c-1.2-15.5-3.2-30.9-5.9-46
		c-6.8-42.1-14.1-84.2-23.4-125.8c-0.5-2.5-1.2-5.2-0.5-7.9c-9.8-40.7-22-80.8-38.7-119.2c-2.9-1.6-3.4-4.5-4.5-7.1
		c-6.8-15.9-15.3-30.9-23-46.2c-0.9-1.8-2.1-3.4-2-5.5c-21.4-36.9-46.6-71.2-73.3-104.4c-11.4-10.2-19.3-23.2-29.3-34.4
		C1224.7,120.1,1223.5,118.3,1224.2,116.2L1224.2,116.2z M721,330.1c3,3.7,4.8,8.6,9.6,10.9c-0.9,11.1,3.6,20.9,7.1,30.9
		c0.9,2.5,2.1,4.8,3,7.5s0.4,4.8-2.3,6.2c-3.2,1.6-4.5-0.7-5.5-3c-4.1-9.5-7.9-18.9-9.5-29.1c-0.9-6.2-3.6-8.4-9.5-6.8
		c-18.9,2.7-34.1,14.5-50.7,22.3c-30.5,11.2-57.6,28.6-84.2,46.6c-5,7.1-12.5,11.4-19.5,16.4c-13.9,12.5-25.5,27.1-36.2,42.5
		c-7.1,10.2-13.6,20.7-20.3,31.2c-0.7,6.6-4.8,11.6-8.9,16.4c-2.1,2.5-5.2,3.7-7.5-0.4c-0.9-2.5-0.5-4.6,0.9-7
		c18.6-31.2,38.2-61.7,64.4-87.4c21.4-21.1,47.1-35.7,73-50.1c3.4-1.8,6.8-3.6,10-5.4c2.5-1.4,7.1-1.8,2.9-6.8c-1.8-2,0.4-4.1,2.7-5
		c21.2-8,40.7-21.1,63.7-24.6C709.9,334.5,715.3,331.1,721,330.1L721,330.1z M658.7,728.1c23,6.1,45.9,12,68.2,19.6
		c21.6,7.3,42.3,16.1,59.1,32.5c5.2,5,12.3,8,18.4,12c5.7,3.6,10.7,7.9,14.3,13.7c1.6,2.5,2.1,5-0.7,7c-3,2-4.8,0.2-6.4-2.3
		c-3.9-6.4-10-10.7-16.6-14.1c-9.5-5-18.4-10.9-26.2-18.2c-13.9-12.8-31.9-17.1-49.1-23.2c-19.3-6.8-39.1-12.1-58.7-17.5
		c-1.2-0.4-2.5-0.7-3.9-1.1c-3-0.7-4.1-2.7-3.2-5.5C654.4,728.1,656.6,727.7,658.7,728.1L658.7,728.1z"/>
		<path fill="#0B0A0A" d="M830.9,657.1c25.2,16.1,49.8,32.8,72.5,52.3c11.2,9.6,22.3,19.6,33,30.2c2.1,2.1,4.3,4.5,1.4,7.3
		c-2.9,2.7-5.2,0.9-7.5-1.4c-33.4-32.8-69.8-61.4-110.5-84.6c-0.5-0.4-0.9-0.9-1.4-1.4c0-2.1-1.2-1.8-2.5-1.1
		c-3-1.8-2.9-4.1-0.9-6.6s4.5-1.8,6.4-0.4c2.3,1.8,4.6,3.2,7.3,4.3C829.9,655.5,830.6,656,830.9,657.1z"/>
		<path fill="#0A0A0A" d="M886.6,635.7c0.9,0.5,2.1,0.9,3.2,1.8c29.6,24.1,58.9,48.5,80,81c4.8,7.5,9.3,15.2,12.8,23.4
		c1.2,2.7,1.2,5.4-1.8,7c-3.4,1.8-4.8-0.7-5.9-3.4c-14.5-31.8-37.8-56.4-63.7-79.1c-8.7-7.7-17.7-15-26.6-22.3
		c-1.8-1.4-3.7-2.7-2.7-5.5C882.7,636.8,884.3,636.1,886.6,635.7z"/>
		<path fill="#0A0B0B" d="M968.1,889c-2-0.2-3.4-0.9-4.3-2.7c-1.2-2.3,0.4-3.7,2-5c8.7-7.3,17.5-14.6,26.1-22
		c14.1-11.8,28.4-23.7,42.5-35.5c1.2-1.1,2.3-2.1,3.7-2.9c2.1-1.2,4.3-0.9,5.9,1.1c1.4,2,1.1,3.7-0.7,5.4c-0.9,0.9-2,1.8-3,2.7
		c-22.3,18.6-44.4,37.1-66.7,55.7C972,887.1,970.4,888.9,968.1,889L968.1,889z"/>
		<path fill="#0B0B0B" d="M1024.8,868.7c-1.1-3.2-0.9-5.7,3-6.2c3.4-0.4,4.6,1.8,5.4,4.6c1.1,4.6-0.2,8.9-2.5,12.7
		c-8.6,13.6-18,26.4-27.8,39.3c-2,2.7-4.5,4.1-7.3,1.8c-3-2.3-1.1-4.6,0.5-7c7.7-10.4,15.5-20.7,23.2-31.1
		C1022.2,878.7,1025.4,874.2,1024.8,868.7z"/>
		<path fill="#0B0C0C" d="M882.9,876.5c19.5,1.6,35.3,10.2,47.7,25.5c1.8,2.1,2.5,4.5,0,6.4c-3,2.5-5.2,0.7-7.3-1.8
		c-9.5-11.4-21.2-18.6-35.9-21.1c-2.3-0.4-4.8-0.4-7.3-0.2c-3.4,0.2-6.1-0.7-6.4-4.3c-0.4-3.7,3-3.7,5.5-4.3
		C880.4,876.9,881.4,876.7,882.9,876.5L882.9,876.5z"/>
</g>
	<g id="svg-6-girl">
	<path fill="#FBF2E8" d="M322,1080.1H6c-2-2.9,0.2-5,1.4-7.3c13.9-22.8,30.2-44.1,48.5-63.4c2.5-2.7,4.1-5.5,4.6-9.3
		c1.8-11.4,3-22.8,3.4-34.4c0-0.5,0-0.9,0.2-1.2c12.7-22.7,17-48.2,24.4-72.5c2.3-7.1,5.4-12.5,13.9-12.5c2.5,0,5.5-0.5,6.1-3.9
		c1.4-3.6,4.5-6.1,7.1-8.7c19.6-19.6,39.8-38.7,56.2-61.4c3.7-5.2,6.6-10.5,8-16.6c4.1-17.5,12.5-33.2,20.3-49.3
		c1.6-3.4,3.7-6.6,4.1-10.5c1.1-3.7,4.3-6.2,7-8.6c8.7-7.7,15-16.2,10.9-28.7c5.9-12.5,6.1-12.5-7.3-15c-12-2.1-23.4-6.4-35.3-9.1
		c-2.9-0.5-5.2-2.7-7.7-3.9c-1.2-0.7-2.9-2-4.1,0c-1.1,1.6,0.4,2.9,1.4,4.1c1.1,1.1,2.3,2,3.7,2.9c9.1,6.1,18,12.1,28.4,16.1
		c3.6,1.2,6.8,3.2,9.8,5.5c7.1,5.4,8.2,12.8,2.5,19.6c-2.1,2.5-4.3,5.2-7,7.1c-10,7.3-15.9,17.8-22.3,28
		c-3.9,6.4-8.2,12.7-10.9,19.8c-0.9,2.5-2.5,4.6-4.8,6.2c-5.5,4.1-8.7,10-12.5,15.3c-15.3,20.9-30.9,41.8-46,62.6
		c-1.4,2-3.2,3.7-3.4,6.4c-0.7,2.5-2.5,3.7-4.6,4.8c-5.9,3.9-10.9,8.9-17.3,12.1c-12.5,6.1-25.3,7-38.7,5c-0.2,0-0.5-0.5-0.7,0
		c0.7,0.4,0.7,0.9,0.5,1.6c-2,2.3-4.8,2-7.5,2.1c-6.2,0.2-12.5,0-18.7,0c-2.1,0-4.6-0.5-6.1,1.8c-4.1,2.7-8.2,5.4-13.4,5.5v-32.1
		c4.5-8.7,9.5-17,17.5-23c3,2.3,4.8,0.2,7-1.6c7.5-6.6,12.5-15,16.6-23.9c5.7-12.1,11.2-24.3,17.1-36.2c0.9-2,1.8-4.1,3.9-5.4
		c2-0.9,3.2-2.3,4.3-4.1c19.8-28.9,38.4-58.9,55.7-89.4c2.5-4.3,0.5-8.2,0.5-12.3c4.1-9.6,11.6-16.8,18-24.8
		c24.8-30.5,53.7-56.6,87.8-76.4c29.3-17,60.7-28,94.4-31.4c4.5-0.4,8.7-1.8,13.2-0.7c11.6,1.4,23.4,1.6,35,4.3c8,2,16.2,3.6,23.7,7
		c24.1,10.5,49.6,17.1,72.8,29.6c14.8,8,28.9,16.6,41.2,28.2c2.5,2.3,5.2,4.3,8.4,5.5c11.2,4.3,22.5,8.7,32.1,16.1
		c0.9,0.7,2.1,0.7,3.2,1.1c8.7,7.9,13.2,18.4,17.3,28.9c6.8,18,6.6,36.8,2.7,55.3c-5.2,23.9-15.5,45.3-29.8,65.1
		c-3.2,2.9-5.7,6.2-8,9.8c-10.9,16.2-21.4,32.8-33.4,48.4c-4.8,6.2-9.1,12.8-19.5,14.3c6.2,2.3,4.5,5,2.7,7.7
		c-5,7.5-10.4,14.5-15.7,21.8c-20.2,27.7-40.5,55.3-60.7,83.2c-1.6,2.1-3.2,4.1-2.3,7.3c0.9,3.4-1.8,5.7-3.6,8.2
		c-16.4,22.5-33.2,44.6-50,66.9c-9.5,12.5-18.7,25-26.8,38.4C324.9,1077.2,323.5,1078.7,322,1080.1L322,1080.1z M815.9,0.9h52.3
		c1.8,1.4,2.5,3.6,3.4,5.5c8.6,20.7,19.6,40.2,34.1,57.5c2.7,3,5.9,5.4,8.6,8.2c3.6,5.5,8.7,9.5,14.1,12.8
		c15,16.2,15.3,36.2,14.5,56.6c-0.2,4.6-0.7,9.3-1.6,13.9c-3.4,18.7-14.1,31.4-31.4,38.7c-4.6,2-8.4,3.9-8.4,9.8
		c0,3.4-2.5,5.5-5,7.5c-5.2,3.9-11.4,6.1-17,9.3c-10.4,6.4-22.1,7.9-33.7,9.5c-13,1.8-26.2,1.8-39.1,3.9
		c-45.2,7.1-76.7,39.8-82.8,85.3c-0.5,3.6-0.9,7.1-2.3,10.4c-4.3,4.3-10.4,5.5-15.7,6.6c-18.2,3.6-34.6,11.4-51,19.3
		c-3.2,1.6-6.6,2.9-9.8,4.3c-3,1.2-5.5,2.7-4.6,7c0.9,4.1-2.7,5.2-5.4,6.6c-13.7,7.9-27.7,15.3-41.2,23.6
		c-31.1,18.6-55.3,43.9-76,73c-9.5,13.2-17.8,27.3-26.4,41c-2.1,3.4-2.9,7.5-5,10.7c-2-1.4-3.4-3-6.1-0.4c-2,2-5.2,2-8,2.5
		c-22.3-5-44.6-10.5-67.1-15.2c-39.8-8-77.6-21.6-115.5-36c-11.1-4.3-22.1-8.2-33.9-10.4c-2.1-0.4-4.5-0.5-6.2-2.1
		c-3.9-3.9-9.3-4.6-14.3-6.4c-14.5-5.2-29.3-9.3-42.5-17.7c-0.7-0.5,0.2,0.2-0.5-0.4c-8.4-7.3-17-13.7-29.1-9.1
		c-2,0.7-4.6,0-6.4-1.2c-6.6-5.4-13.2-3.2-20-0.7c-3,0.4-5.7-0.7-8.2-2.1c-13.7-8.2-29.3-13.7-44.3-17.3
		c-15.2-3.7-28.4-10.7-42.1-17c-4.8-2.1-9.6-4.6-13.2-8.9c-1.4-5.5-6.1-8-10.4-10.9c-4.5-3.9-8.6-8.2-12.8-12.3
		c-2.7-2.5-4.5-5.2-5.7-8.6v-91c4.6-6.4,16.6-8.6,24.4-3c7.3,5.2,15.3,7.7,23.9,9.3c8.6,1.6,16.1,5.9,23.7,10.2
		c3.7,1.8,5.9,4.8,7.7,8.4c1.1,5.7,4.6,9.3,10.4,10.9c5.4,1.4,9.3,6.1,15.2,5.5c6.4,9.1,15.7,13.7,26.2,16.2c1.1,0.2,2,0.9,2.7,2
		c0.5,0.5-1.2,1.2,0,2c7.3,3.6,14.6,7,22.5,9.8c4.8,1.8,8.7,2.1,12.1-2.1c10.9,1.6,21.1,5.7,31.8,7.5c10.5,1.6,21.2,2.9,31.9,2.5
		c3.9,0,7.5-1.1,10.2-4.1c7.3-0.4,14.6-0.2,22-0.4c8.9-0.2,14.5,4.8,17,14.8c0.5,2.3,1.1,4.5,3.7,5c2.3,0.5,3.2-0.7,3.6-2.9
		c9.5-8.2,20.2-14.6,31.1-20.9c0.4,0,0.9-0.2,1.2,0c3.4,2.5,3.7,0,3.9-2.5c3.2-2.9,6.8-2.5,10.5-1.8c4.3,0.9,8.4,0.7,12.3-1.4
		c3.2-1.8,5.2-4.1,0.9-6.8c-4.8-2.9-3.9-5.7-0.5-8.9c3.2-2.9,5.4-6.4,7.9-9.8c3.7-4.3,7.3-8.9,12.5-11.8c13,2.3,24.8,8.4,36.8,13.4
		c4.8,2,10.4,3,14.1,7.3c1.2,2.3,3.7,3.2,5.9,4.3c34.1,18,68.5,34.6,105.8,44.8c2,0.5,3.7,1.1,5.9,0.7c8.2,1.4,15.3,5.9,23.4,8
		c6.6,2,13.4,3.7,20.2,4.3c2.9,0.2,6.8,1.4,8.2-2.3c1.2-3.4-1.6-6.2-4.3-7.5c-10.9-5.7-19.5-14.8-30.7-20.2
		c-6.4-3-12.7-6.4-19.3-9.1s-12.7-6.4-18.4-10.9c-12.8-11.8-25.5-23.7-38.5-35.2c-11.8-10.4-22.5-21.6-34.3-31.8
		c-2.7-2.3-5.5-4.5-6.4-8.2c-1.4-7.1-5.7-12.8-8.7-19.3c-1.2-2.5-3.4-3.2-6.1-3.2c-2.5,0-4.8,0.2-7.1-1.1
		c-4.5-5.9-10-11.1-14.1-17.3c-1.2-2-2.9-3.9-2.9-6.6c-1.6-10.7-5.2-21.2-5.7-32.1c-0.7-13.2,2-25.3,12-34.6c2.3-2.3,5-4.6,8.7-4.3
		c7.5,2.9,15,3.9,22.8,1.6c4.5-1.4,5.9,1.1,5.5,5.4c-0.5,10,5,16.2,14.6,17c3.6,0.4,6.8-0.5,8.9-3.4s0.2-5.5-1.2-8
		c-3.4-5.5-5.9-11.4-9.6-16.8c-7.1-10.2-17.8-10.9-26.2-1.6c-3.7,4.1-8,7-14.1,5.9c-3.9-0.7-4.6-4.5-6.2-7.3
		c2.9-8.2,7.3-15.7,11.8-23.2c8.4-2.7,14.1-9.1,19.8-15.2c10.1-11.3,19.1-23.8,26.4-37.6c1.1-2,2.1-3.9,2-6.2
		c7.5-12,15.3-23.7,26.1-33.2h288c-0.2,10,3.7,12.5,13.7,9.3C803.3,7.8,809,2.8,815.9,0.9L815.9,0.9z"/>
		<path fill="#2D1C08" d="M721,330.1c2-14.1,3.6-28.2,10-41.4c17.3-35.9,46.2-54.6,85.7-57.6c16.6-1.2,33.4-2.1,49.6-6.4
		c4.6-1.2,8.7-2.9,12.7-5.4c11.1-2.5,20.2-8.9,29.6-14.5c3-2.1,6.8-3.7,8-7.9c24.3-16.8,37.5-52.6,27.1-81.4
		c-2.9-7.7-5.7-15.5-7.5-23.4c-1.2-5.5-6.1-5.2-9.6-6.8c-5.9-2.3-9.5-7.1-13-12c-7.3-17.1-20.7-31.1-27.3-48.7
		c-0.2-2.7-0.7-5.4-1.8-7.9c-1.2-4.3-3-8.2-6.8-11.1c-1.2-1.4-2.7-2.9-1.6-5h333.5c3.2,6.6,2.9,14.3,5.2,21.1
		c0.5,2.1,0.5,4.3,0.7,6.2c0.4,2.3,0.9,4.6,1.1,7c0,3.2,1.6,6.2,1.8,9.5c-0.5,3.7,0.9,7.3,0.9,10.9c0,1.8,0.5,3.2,2.1,4.3
		c2.5,1.1,3.4,4.8,6.8,4.5c3.2,0.4,6.2,0.2,9.5-0.2c8.6,0.7,17,2,25.3,3.2c2.9,0.5,5.5,1.2,8.4,1.8c7.3,4.3,9.1,11.4,5.2,19.8
		c-2.5,5.4-6.8,9.1-11.1,12.8c-5,2.9-10,5.4-15.3,7.1c-3.4,1.1-6.8,2.1-10.2,3.4c-2.5,0.7-4.8,1.6-7.3,2.3c-2.7,0.5-5.4,1.4-8,2.3
		c-2,0.5-4.3,0.5-6.2,1.6c-2.5,1.2-5,2.7-7.3,4.3c-5.2,2.1-9.8,5.9-16.1,4.5c-2.7,0.5-5.4,1.2-8,1.8c-3.9,3.9-8.7,3.6-13.7,3
		c-2.1-0.2-4.3,0-6.2,1.2c-4.6,3.4-10.5,2.7-15.7,4.1c-2.5,0.5-5,0.9-7.3,1.4c-6.4,0.4-12.3,3.7-18.9,2.5c-2.1,0.5-4.3,0.9-6.2,1.4
		c-5.5,3.6-12.3,3-18.4,5c-11.4,2-22.1,6.1-33,9.5c-13.6,4.5-27.5,8-40,15.7c-0.2,0-0.5-0.2-0.7-0.2c-10.9,6.4-23,10.2-34.4,15
		c-9.5,3.9-12,12.5-15.7,20.5c-7.1,12.5-14.1,25.3-25.5,34.6c-1.2,1.2-2.5,2.3-3.7,3.6c-2,2.7-4.1,5.4-7.3,6.6
		c-20.2,14.1-43.5,15.7-66.9,17.5c-13.6,1.1-26.9,2.7-39.6,8.4c-5.4,2.3-10.4,5.2-14.5,9.3c-4.8,4.8-9.5,5.2-14.6,0.9
		c-4.1-2.5-8-0.5-12,0.4c-2.3,0.5-4.5,1.8-7,1.8c-3.7-0.7-7.3-2-10.5-3.6c-5.4-2.3-5.5,2.7-7.3,5.2c-3.7,5.4-7.1,10.9-8,17.5
		c-0.7,2.1-2.1,3.9-3.6,5.5c-0.4,2.7-0.9,5.2-1.2,7.9c-1.6,14.8-9.8,20.3-24.3,16.2C724,340.2,722.1,335.6,721,330.1L721,330.1z"/>
		<path fill="#FEFEFE" d="M18,835c-5.7,7.7-11.6,15.2-17.3,22.8v-57.6c2.7-0.7,3.9,1.6,5.5,2.9c5.2,3.7,10.7,4.5,16.4,1.6
		c5.9-3,8-8.6,6.6-14.8c-2.9-13.4-5.5-26.6-5.2-40.3c0-3.7-2.7-6.4-5-9.1c-3.6-4.1-3.2-5,2-6.6c3.6-1.1,7.3-2.1,10.7-3.6
		c3.2-1.2,5.9-0.7,8.9,0.9c12.1,6.6,23.9-0.4,24.1-14.1c0.2-12.7,3.4-16.6,16.2-18.9c12.1-2.3,15.5-6.2,15.5-18.6
		c-0.2-17.1-4.8-33.4-8-50s-7.9-32.8-11.2-49.4c0-0.7,0.2-1.4,0.4-2c11.4-6.4,23.2-12.1,35.2-17.5c1.1-0.5,2.1-0.5,3.2,0.2
		c6.4,12,10.9,24.8,15,37.7c1.1,3.4,1.6,7,2.7,10.4c2,6.1,7.9,8.9,13.9,7.3c5-1.4,6.8-5,5.7-11.8c-1.6-11.4-5.9-22-9.8-32.5
		c-2-5.2-3.7-10.5-4.8-15.9c-1.1-5,0.2-8.9,5.2-11.1c16.1-7,30.2-17,43.4-28.4c4.1-3.4,8.7-6.1,13.7-8.2c8-3.7,10.4-2.7,12.8,6.1
		c1.8,6.1,3.2,12.1,4.1,18.2c1.2,9.8,5.9,16.6,16.1,18.7c1.1,0.2,2.1,0.9,2.7,1.8c-0.4,3-2.9,3.7-5,4.8
		c-25.3,14.1-47.7,31.9-67.8,52.6c-5.9,6.1-11.6,12.3-18.2,17.8c-10.5,5.4-18.7,12.5-20.3,25c-0.4,2.3-1.8,4.1-3,5.9
		C91.3,703.9,66,751.4,44.8,801.4c-4.1,9.8-9.1,19.3-16.4,27.3C25.5,831.6,22.8,835.1,18,835L18,835z"/>
		<path fill="#CBCBCB" d="M78.1,579.1c6.6,23,11.8,46.4,16.1,70c2,10.9,4.5,21.8,4.1,32.8c-0.4,10.5-5.4,16.4-16.1,17.7
		c-3.2,0.4-6.1,1.2-8.9,2.5c-5.9,2.5-8.6,6.1-7.1,13c1.6,7.5-2.1,15.3-8.7,18.6c-6.2,3-12.8,4.1-18.6-1.4c-2.3-2.1-4.1-1.6-6.6-0.5
		c-4.6,2.1-9.5,3.9-16.8,4.6c11.4,5.7,10.4,14.8,10.4,23.9c0,8.7,2.1,17.1,4.3,25.5c2.7,10.4,0.2,17.3-7.5,21.1
		c-7,3.4-14.8,1.2-21.1-6.2c-0.4-0.4-0.7-0.5-1.1-0.7v-61.6c2.3-2.3,2-4.5,0-6.8v-22.8c1.6-3.6,4.5-5.2,8.2-6.1
		c4.8-0.9,9.5-2.5,13.6-5.2c3.4-2.3,4.6-5,3.4-9.1c-4.3-13.2-9.1-26.1-15.3-38.4c-2.3-4.5-7.5-5.5-9.8-9.6v-24.1
		c2.1-5,7-5.4,11.4-6.2c0.7-0.2,1.2-0.4,2-0.4c16.6,1.2,23.9,13.4,30.2,26.1c4.8,9.8,8.9,20,12.1,30.3c1.2,3.9,2.9,5,6.8,3.2
		c3.2-1.4,6.4-3.4,10.2-1.2c2.3,2.5,2.3,5.7,3.2,8.6c1.1,3.7,3,6.6,7.1,7c4.3,0.5,7.9-1.2,10.4-4.8s0.7-6.4-2.3-8.6
		c-3-2.1-6.6-2.1-10.2-2c-3,0.2-6.2,0.7-8.9-1.4c-1.2-1.2-2-3-2.1-4.8c-3.9-23.9-10.2-47.3-15.2-71c0-0.7,0-1.4,0.4-2.1
		C62.1,584.7,69,579.3,78.1,579.1L78.1,579.1z"/>
		<path fill="#F5D3F8" d="M0.7,889.9c3.7-2.9,7.9-4.6,12.5-5.5c7.7-3.4,15.7-1.4,23.6-1.4c2.3,0.5,4.8,1.2,6.8,2.7
		c3.9,2.9,7.9,3.2,12.7,2.7c12.8-1.4,20.9,5.5,26.9,15.9c-0.4,10.9-3.9,20.9-7.5,30.9c-5.9,16.6-14.3,32.1-23.2,47.3
		c-10.4,17.8-20.7,35.9-31.2,53.7c-1.4,2.5-2.7,5.2-5.9,6.1c-5.5,0.4-10.7-0.5-14.6-5.2C0.7,988.2,0.7,939,0.7,889.9z"/>
		<path fill="#CBCBCB" d="M115.6,560.6c-12.5,5.5-24.1,13-37.1,17.5c-4.6-2.5-3.9-7.7-5.2-11.6c-2.7-9.6-2.7-9.6-11.2-5.4
		c-1.4,0.7-2.7,1.6-4.1,2.1c-5.2,2-6.1,5.4-4.8,10.5c1.2,5.2,4.8,10.2,2.7,16.1l-0.4,0.5c-0.9,2.3-3,3.2-5,4.1
		c-9.8,5-19.8,9.8-29.6,14.8c-2.7,1.4-5.5,0.9-8.2,2.1h0.2c-5,1.4-9.5,1.4-12.1-3.9v-18.7c6.4-5.7,14.6-8.6,22.1-12
		c6.4-3,12.8-6.2,19.3-9.3c3.6-1.8,4.6-4.3,3.6-8.2c-5.5-19-10.5-38.1-16.6-57c-1.2-3.9-3.2-5.5-7.3-4.6c-3,0.7-6.2,0.5-9.3,0.5
		c-5.4-0.2-9.6-2-11.8-7.1v-22.8c5-5.9,11.6-6.4,18.6-5.9c5.4,5.9,5.5,13.9,8,21.1c3.2,8.9,3,9.1,12.3,7c4.1-0.9,8.2-2.5,12.5-2.5
		c0.7,0,1.2,0.4,1.8,0.9c6.8,16.1,10.5,33,15.5,49.6c4.8,16.1,2.7,14.3,17,7.3c8.7-4.3,17.3-8.9,26.6-12c0.7,0.4,1.2,0.7,1.4,1.4
		c0.4,8.4,3.4,16.6,2.3,25C116.2,560,115.8,560.4,115.6,560.6L115.6,560.6z"/>
		<path fill="#010101" d="M514.8,831.6c-4.5,2-8.6,5-13.4,6.1c-3.4-0.4-2-2.3-1.1-3.7c1.2-1.8,3.4-2.5,5-3.9
		c12.3-7.1,24.4-14.3,35.5-23.6c10.9-9.3,20.5-19.8,29.1-31.1c6.2-9.8,13-19.5,17-30.5c7.3-18,12-36.6,11.6-56.2
		c-0.4-17.3-4.1-33.9-10.4-49.8c-3.4-9.1-7.1-18.2-11.6-26.8c-10.2-20.9-23-39.6-40.5-54.8c-13-11.2-28.6-17.8-44.6-23.4
		c-17-6.1-34.6-9.8-52.3-13c-8.7-1.8-17.3-3.6-26.1-5.2c-30.2-6.6-60.1-13.9-89.2-24.3c-6.6-2.9-13.4-5-20-7.7
		c-13-5.2-26.1-10.4-39.6-13.9c-18.6-5.7-37.8-7.9-56.4-12.7c-20.9-5.5-41.2-12.7-60.7-21.8c-8.7-3.6-17.3-7.1-26.1-10.5
		c-3.4-1.8-7.1-3.2-10.9-4.5c-6.6-2-13.6-3.6-20-6.1c-20.9-7-40.9-16.1-59.8-27.5c-7.3-4.8-13.9-10.9-22.1-14.5
		c-2.5-1.4-5.4-2-7.3-4.1v-5.4c5.5-2,9.5,2,13.7,4.1c5,4.5,11.8,6.4,15.7,12.1c14.5,10,29.8,19.8,46.8,23
		c16.4,3.2,30,12.8,46.2,15.3c5,0.7,8.2,6.8,14.1,7.1c3.2-0.4,6.1,1.1,8.9,2.3c18.6,7.5,36.8,15.9,56.2,21.2
		c12.1,3.2,24.4,5.2,36.6,7.9c3.7,0.7,7.3,1.6,10.7,3.4c41,9.1,78.5,29.1,119.4,39.3c34.8,8.6,69.6,16.4,104.4,24.6
		c15.9,1.4,30.9,5.9,44.3,15c31.6,14.6,49.3,41.9,64.1,71.6c3.7,7.3,7.1,14.8,10.7,22.1c2.3,3,3.7,6.6,4.8,10.4
		c16.1,37.1,12,73.5-4.3,109.6c-4.6,8.4-8.7,17-14.1,25c-11.2,15.7-23.7,30.2-40.2,40.7c-0.7,0.5-1.4,0.9-2.3,0.9
		C529,822.5,521.9,826.9,514.8,831.6L514.8,831.6z"/>
		<path fill="#FEFEFE" d="M0.7,491c6.2,6.2,13.7,6.4,21.6,4.5c5-1.2,6.8,0.2,8.4,5.2c6.1,20,11.8,40,17.1,60.1
		c0.7,2.5,1.6,4.8-1.4,6.2c-15.2,7.5-30.2,15.2-45.7,21.6C0.7,588.6,0.7,491,0.7,491z"/>
		<path fill="#0A0A0A" d="M408.9,220.3c-4.6-3.7-8-8.7-11.8-13.2c-3.2-1.1-4.5-3.4-4.3-6.8c2.3-6.2,1.6-12-1.1-18
		c-5.4-12.5-8.6-25.5-7.1-39.4c-0.9-3.7,0.9-6.8,2.9-9.6c3.7-8.6,9.5-16.1,14.5-23.9c2.7-7.3,7-13.7,11.1-20.2
		c4.1-11.4,13.7-18.2,21.4-26.6c8.7-9.5,17.5-18.9,25-29.4c7.1-11.4,15-22.5,24.4-32.1h10.7c-8.4,11.2-16.8,22.3-25.2,33.6
		c-4.3,10-12.1,17.3-18.9,25.3c-3.7,4.5-7.7,8.6-10.7,13.6c-0.5,0.9-1.1,2.1-2,2.7c-8,3.4-12,10.7-16.8,17.3
		c-3.4,8-7.3,15.5-12.1,22.7c-0.4,3.9-3.2,6.8-5.2,9.8c-11.6,17.1-13.7,35.5-7.9,55.1c1.4,4.6,3.4,9.1,4.3,13.9
		c2.9,6.1,7.1,11.2,11.8,16.1c1.8,2,3.9,3.7,3.9,6.8c7.7,7.9,16.6,14.8,23,24.1c17.7,18.6,36.9,35.2,55.7,52.5
		c7.7,7.1,15.3,14.1,23,21.2c-2.3,4.5-4.8,0.9-6.4-0.4c-6.8-5-13.2-10.4-19.8-15.7c-13.9-12.5-27.8-24.8-41-38
		c-9.6-9.5-19.6-18.7-29.4-28c-0.7-0.7-1.2-1.4-1.8-2.1C416.4,226.9,411.8,224.4,408.9,220.3L408.9,220.3z"/>
		<path fill="#FEFEFE" d="M101,253.3c2.7,4.1,5.9,7.3,10,10c15.2,12.1,25.2,28,33,45.5c0.9,2.1,1.8,4.8-1.4,6.2
		c-16.1-2.5-30.3-7.7-37.1-24.3c-1.6-3.9-4.3-7.3-5.5-11.4c-0.2-4.1,2.3-7.7,2.1-11.8c-0.4-6.1-2.1-11.1-8-13.4
		c-5.9-2.3-11.2-1.4-15.9,3.2c-2,1.8-3.4,4.3-6.2,4.5c-6.8-1.1-13-3.6-18.7-7.3c-1.1-2,0.2-3.4,1.2-4.8c7.9-11.1,6.8-17.8-3.7-26.6
		c-0.4-0.5-0.7-0.9-1.1-1.6c-0.7-6.8-4.3-11.6-10.5-14.5c-0.5-0.4-1.1-0.5-1.6-0.9c-8.7-6.6-16.4-5.7-23.7,2.9
		c-0.7,0.7-1.4,1.4-2.1,2c-6.8,5.7-9.1,12.3-6.4,18.4c2.7,6.1,9.1,9.3,17.7,8.6c2.9-0.2,5.9-0.5,7.9,2.3c1.4,2.1,1.6,4.6-0.7,6.4
		c-10,0.2-19.5-2-28.9-4.8V195c5.7-1.6,11.4,0.2,17,0.2c18.4-0.4,31.9,9.3,44.4,21.1c12.1,11.4,25.2,21.8,36.6,33.9
		C99.6,251.2,100.5,251.9,101,253.3L101,253.3z"/>
		<path fill="#010101" d="M101,279.4c0.5,0.9,1.2,1.8,1.6,2.9c6.6,19.1,20.9,28.6,40,32.3c2.3-0.4,4.3,0.9,5.9,2.1
		c13,2.1,25.2,7.1,38,10.2c10.4,2.5,20.9,4.5,31.4,5.7c7.1,0.9,13.7,0.2,20.5-3.2c23.9-11.8,47.1-25,70.1-38.7
		c12.1-7.3,24.3-14.8,37.3-20.5c0.7-0.7,1.8-0.5,2.5-0.9c-0.9,0.2-1.8,0.2-2.5,1.1c-1.8-0.4-4.5,1.2-4.8-1.8
		c-0.4-2.1,2.1-2.7,3.7-3.2c10.5-3.7,20-9.6,28.7-16.6c10.7-8.4,22.8-14.1,34.3-21.2c1.8-1.6,3.7-3.6,6.1-1.1
		c2.3,2.3,0.7,4.5-1.4,5.9c-2.5,1.4-0.2,4.6-2.1,6.4c-5.5,3.2-11.8,4.6-17.5,7.3c-3.2,1.2-5.9,3-8.6,5c-1.8,1.2-3.2,2.9-4.6,4.5
		c-11.6,11.4-25.2,19.3-40.3,25.5c-16.4,6.8-30.7,18-46.4,26.6c-13.6,7.5-27.1,15.2-41.2,22.3c-2.3,1.2-4.8,2.5-7.5,2.1
		c-3.4,8.4-10.9,5.5-16.8,5.5c-20.3-0.2-40-5.4-59.4-10.7c-1.2,0.9-2.5,0.9-3.7,0.4c-9.8-3.4-20.5-4.5-29.4-10.2
		c-3.7-1.2-7.5-2.7-11.2-3.7c-8.2-2.3-14.3-7.5-18.4-14.8c-4.8-4.3-5.5-11.1-10.4-15.3c-6.1-7.5-14.1-11.8-23-14.8
		c-20.7-8.9-41.8-16.8-64.4-19.5c-2.5-0.4-4.8-0.9-6.8-2.7v-4.1c10-0.4,19.6,2.7,29.4,4.3c8.6-0.2,16.1,2.3,22.8,7.5
		c6.1,2.3,12.3,4.8,18.4,7.1c10.2,1.4,18.6,6.8,26.6,12.8C99.9,275.1,99.9,277.4,101,279.4L101,279.4z"/>
		<path fill="#0A0A0A" d="M506.7,831c-0.7,3-7.9,0.9-5.4,6.6c-2.1,1.4-4.3,2.9-5.9,5.2C446,915.6,394,986.6,342.3,1057.6
		c-5.2,7.1-10.7,13.9-13.7,22.5h-6.8c4.1-10,10.9-18.2,17.1-26.8c20.7-28.4,41.9-56.6,62.8-84.8c1.4-2,5.5-3.9,1.6-7.9
		c-1.4-1.4,1.6-3.7,2.9-5.5c25.3-34.8,50.7-69.4,76-104.2c1.4-2,2.9-3.9,4.5-6.2c-1.1,0-1.8-0.2-2.3,0c-1.8,0.5-3.6,1.4-4.3-1.1
		c-0.5-2.1,1.2-2.9,2.7-3c8.7-1.1,12.8-7.7,17.7-13.9c12.8-16.6,23.7-34.4,35.7-51.6c1.4-2.1,2.1-5,5.5-5.4c2.1,0.7,2.9,2.3,3.2,4.5
		c-4.8,10.7-12.3,19.5-19.1,28.7c-6.4,8.7-12.5,17.8-19.1,26.4C506.2,829.8,506.2,830.3,506.7,831L506.7,831z"/>
		<path fill="#FEFEFE" d="M0.7,1037.3c4.8,1.8,9.6,4.1,15,4.1c1.4,4.3-2.1,6.8-3.7,10.2c-1.1,2.7-3.2,4.6-4.5,8.9
		c6.6-7.9,9.3-16.8,15.5-23c4.5-1.8,8-4.8,10.4-9.1c7-13.2,13.2-26.8,19.5-40.3c0.7-1.4,0.9-3,1.1-4.5c3.2-6.1,4.5-13.4,11.1-17.1
		c2.3,6.8-0.7,13.4-0.5,20.2c0.2,5.4-1.8,10.9-2.1,16.4c-0.2,3-2,4.8-3.7,6.8c-19.5,19.5-36,41.8-50.7,65.3c-0.9,1.4-1.2,3.2-2,5
		c-4.6,1.1-5.7-0.7-5.5-5.4C0.9,1062.3,0.7,1049.8,0.7,1037.3z M0.7,640.9c7.1,2.3,10.9,7.5,13.9,14.1c5.5,11.4,9.5,23.4,13.6,35.5
		c1.2,3.6,0,5.9-2.9,7.9c-4.6,3.4-9.8,5.5-15.2,6.4c-3.7,0.5-6.6,2.3-9.5,4.5C0.7,686.4,0.7,663.5,0.7,640.9z"/>
		<path fill="#FEFEFE" d="M0.7,367.7c3-0.4,5.5,1.1,8,2.7c-3,29.6,3.7,57.8,10.9,86.2c0.4,1.8,0.9,3.4,0.5,5.2
		c-0.2,0.4-0.4,0.7-0.7,0.9c-6.4,1.2-12.8,2.1-18.7,5.4C0.7,468.1,0.7,367.7,0.7,367.7z"/>
		<path fill="#0B0B0B" d="M887,23.4c6.1,9.5,9.3,20.9,17,29.3c5.5,6.1,7.9,13.2,9.6,20.7c-5.4-3.4-9.6-8-13.2-13
		C887.2,41.8,875.1,22.9,868.1,1h8c0.7,1.2,1.6,2.7,2.3,3.9c3.2,3.6,4.5,8.2,6.4,12.7C885.7,19.4,887.1,21,887,23.4z"/>
		<path fill="#FDFDFD" d="M0.7,245.8C26.2,248.1,50.1,256,73,267c1.6,2.3,2,4.5,0,6.8c-0.5,0.9-1.4,1.4-2.1,0.9
		c-9.3-7.9-20.5-10.2-31.9-12.3c-4.3-0.9-7.9-2.9-11.2-5.4c-8.9-6.4-18.2-6.6-26.9-0.7C0.7,253,0.7,249.4,0.7,245.8L0.7,245.8z"/>
		<path fill="#0D0D0D" d="M101,253.3c-15-13.2-30.2-26.1-44.6-39.8c-12.3-11.6-26.2-17.7-43.2-17.1c-4.1,0.2-8.4-0.9-12.5-1.4v-4.1
		c10,1.1,20,2,29.8,3.2c7.7,0.9,14.5,3.9,20.3,9.1c9.1,7.9,18.2,15.7,27.3,23.6c3.7,0.5,5.4,3.4,6.8,6.4
		C90.8,239.4,97.8,244.9,101,253.3z"/>
		<path fill="#F9E8D6" d="M815.9,0.9c-7.9,5.7-15.7,11.8-26.1,12c-10.2,0.4-12-2.9-7.5-12C782.3,0.9,815.9,0.9,815.9,0.9z"/>
		<path fill="#0C0C0C" d="M1219,0.9c0.2,0.4,0.2,0.9,0.2,1.2c0,4.5,2,8.7,0.4,13.2c-1.4,2.9-2.5,6.1-6.2,7
		c-2.9-6.8-3.9-14.1-3.9-21.4C1209.5,0.9,1219,0.9,1219,0.9z"/>
		<path fill="#FDFDFD" d="M13.9,367.7c-4.3-2.1-8.6-4.3-13.2-5.4v-14.8c6.2,6.8,12.5,13.4,18.7,20.2C17.5,369,15.7,368.4,13.9,367.7
		L13.9,367.7z"/>
		<path fill="#DFE7E7" d="M483.9,0.9c-8.2,10.7-16.2,21.4-24.4,32.1c-2.3-2.7,0.7-4.1,1.8-5.5c6.6-8.9,13.2-17.8,20-26.6
		C481.3,0.9,483.9,0.9,483.9,0.9z"/>
		<path fill="#FEFEFE" d="M0.7,607.3c3.6,2.9,7.3,4.6,12.1,3.9c-3.9,2-8.7,2.1-12.1,5.4L0.7,607.3L0.7,607.3z"/>
		<path fill="#D8ECEC" d="M0.7,178.9c2.7,1.6,5.2,3.2,7.9,4.8c-2.9,1.4-5.4-0.5-7.9-0.7C0.7,183,0.7,178.9,0.7,178.9z"/>
		<path fill="#F6F6F6" d="M0.7,732c1.6,1.1,3,2.1,4.6,3.4c-0.9,2.1-3,2.3-4.6,3.4C0.7,738.8,0.7,732,0.7,732z"/>
		<path fill="#FDFDFD" d="M591.1,752c4.6-12.7,9.6-25.2,12-38.7c4.1-23,2-45.7-5.5-67.8c-0.5-1.4-0.9-3-1.2-4.5
		c-0.7-1.4,0.2-1.6,1.2-1.4c9.8,22.1,17.5,44.8,17.7,69.4c0.2,28.4-11.4,51.8-30.2,72.1c-13.6,14.5-29.4,25.9-45.9,36.6
		c-0.9,0.5-1.8,1.4-2.9,0.4c16.1-11.8,29.3-26.2,41-42.1c1.2-0.5,2.3-1.1,3.6-1.6c8.2-2.7,11.8-7.9,10.9-16.4
		C591.6,755.9,591.1,753.9,591.1,752L591.1,752z"/>
		<path fill="#FCFCFC" d="M486.6,521.7c3.6,2.3,6.1,1.2,8-2.3c2.7-4.6,5.5-9.1,8.2-13.7c2.1,12,7.1,22.5,14.5,32.1
		c-14.3-6.2-29.1-10.9-44.3-15c2.5-0.9,5.4-1.4,7.7-3C484.1,517.6,485.1,519.5,486.6,521.7L486.6,521.7z"/>
		<path fill="#0B0B0B" d="M975.4,208.7c4.1-15.2,15.2-25.3,30.2-27.1c6.4-0.7,10-6.4,15.9-7.9c2-0.5,3.7-2.7,6.1-0.5
		c-13.7,9.5-27.5,18.7-41.4,28.2C983.8,205.7,980.4,208.5,975.4,208.7L975.4,208.7z"/>
		<path fill="#0C0C0C" d="M785.1,290.8c-5.9,2.9-12,5.7-15.9,11.2c-1.8,2.7-3.6,5.5-2.9,9.1c-1.6,2.3-3.7,3.4-6.6,2.9
		c-2.1,0.2-2.1-0.9-1.6-2.5c-0.2-7.5,3.6-13.4,8.2-18.7c2.1-2.7,3.6-6.2,8-5.7C777.9,288.5,781.5,289.7,785.1,290.8z"/>
		<path fill="#F6F8F7" d="M975.4,208.7c3.6-2.3,7.1-4.8,10.7-7.1c1.4,1.1,0.5,2-0.2,2.9c-10.1,13.1-20.1,26.5-32.1,38.3
		c-0.7,0.7-1.4,2-2.7,0.7C961.1,233.2,967.4,220.3,975.4,208.7L975.4,208.7z"/>
		<path fill="#CCDBD9" d="M1100.3,148c5.9-2.7,12-4.1,18.4-5c1.2,2.3-0.4,2.5-2,2.9C1111.4,147,1106,148.4,1100.3,148z"/>
		<path fill="#CBD8D8" d="M597.5,639.6c-0.4,0.5-0.9,0.9-1.2,1.4c-2-2.9-2.9-6.2-3.9-9.6C596.3,632.7,595.9,636.9,597.5,639.6
		L597.5,639.6z"/>
		<path fill="#C7D4D1" d="M940,253.7c2.5-2.1,4.8-4.5,7.3-6.6C946.8,251.4,943.9,253.1,940,253.7z"/>
		<path fill="#D1D3CF" d="M758.1,311.7c0,1.1,0.5,2,1.6,2.5c-0.7,1.8-2,2.7-3.9,2.7C755.6,314.7,756.2,312.9,758.1,311.7L758.1,311.7
		z"/>
		<path fill="#010101" d="M543.9,773.4c-0.7-1.2-1.6-2.5-2.3-3.7c15-23.4,28-47.5,31.4-75.7c3.4-27.1-2.9-51.6-20.9-72.6
		c-7.9-5.4-13.6-13.2-21.1-19.3c-18.4-14.8-38.7-27-59.4-38.4c-13.9-7.9-28.2-15.3-43.2-20.9c-5.5-2-11.2-3.9-17-5.4
		c-17.1-4.5-34.6-5.4-52.1-6.4c-7.5-0.5-15-0.4-22.7-1.1c-35.3,1.6-68.4,11.1-99.2,27.8C190.7,582.9,154.1,619,124,662
		c0.4,2.1-1.1,3.7-2.1,5.4c-19.8,28.9-36.8,59.3-52.3,90.7c-1.6,3.4-2.7,7.1-6.2,9.3c-7,14.3-13.9,28.6-20.7,43
		C37.9,820.6,32.3,830,23.1,837c-2.9,2.1-5.5,3.4-5-2.1c14.1-9.1,20.3-23.7,26.6-38.2c18-41.2,38.7-81.2,63-119
		c5.4-8.2,10.9-16.2,16.2-24.3c5-10.2,12.3-18.7,20.9-26.1c20.9-23,43.2-44.3,69.4-61c7.1-4.5,14.5-8.7,21.8-13
		c2.7-4.8,8.2-5.4,12.3-8c19.8-9.1,40.2-16.1,61.7-18.9c5.9-1.2,12-0.9,17.7-2.3c26.8-3.4,53.5-2,80,3.6c9.8,2.9,20,5.2,29.4,9.5
		c17.1,7.1,33.7,15,49.4,24.8c5.4,3.9,11.6,6.6,16.8,10.5c15.9,10.5,31.4,21.6,45.2,35c4.3,4.3,7.9,9.1,11.6,13.7
		c5.7,7.3,10,15.3,13.4,24.1c8.9,22,8.4,44.3,2.1,66.7c-5.5,20.2-15,38.5-26.2,56C548.1,770.5,546.9,773,543.9,773.4L543.9,773.4z"
		/>
		<path fill="#0A0A0A" d="M23.4,1038.5c-4.3,7-8.4,13.9-12.7,20.9c-0.9,1.6-1.6,4.3-4.3,3c-2.9-1.4-0.5-3.4,0.4-5
		c2.9-5.5,5.9-10.9,8.9-16.2c18.4-30.7,37.3-61.2,53-93.5c6.6-13.6,10.4-28.2,13.4-43c-1.6-5.2,0.9-9.6,2.3-14.1
		c1.2-3.9,0-5.4-3.9-5.4c-10.4,0.2-20.9-0.7-31.2,0.7c-3.9,0.5-7.5-0.4-11.1-1.2c-8.4,0-16.8-0.2-25.2-0.2c-1.2-4.3,1.6-3.9,4.3-4.1
		c9.6-0.2,19.3-0.7,28.9-0.9c11.8-1.4,23.7-0.9,35.5-1.8c5.2-0.4,8.7-1.6,11.4-6.2c2.3-4.1,5.2-7.9,9.1-10.4c1.2-1.4,2.5-3,3.7-4.5
		c6.2-10.2,15-18.6,22.1-28c12.7-16.8,25.9-33.4,36.2-51.8c0.9-1.4,1.4-3.2,3.2-4.1c5.9-7.7,8.6-17.3,13.9-25.3
		c7.7-11.6,15-23.2,25.9-31.9c2.1-1.8,4.3-3.9,5.9-6.2c3.9-5.7,3-10.9-2.5-15.2c-3.9-3-8.4-5.2-12.8-7
		c-11.1-4.5-20.7-11.2-30.3-17.8c-3-2-4.8-4.6-2.3-7.7c2.5-3.4,5.2-0.5,7.5,0.9c2.1,1.4,4.5,2.9,6.8,4.3c4.8,1.1,8.7,3.9,12.8,6.4
		c7,4.3,14.6,7.3,22,10.7c3.6,1.8,8,3.2,8.4,8.4c4.5,8.2,2.5,15.5-3.2,22.1c-4.6,5.4-9.8,10.4-14.6,15.3
		c-3.7,8.7-10.4,15.5-14.8,23.7c-9.3,17-18,34.3-27.7,51c-8.7,15.3-20.7,28.9-33.7,40.3c-10.7,9.3-19.6,19.5-28.6,30.3
		c3.4,1.4,6.8-2.3,9.5,0.9c1.6,3.9-1.1,5-3.9,5c-12.2-0.3-15.2,8.1-17.7,17.5c-5,18.6-8.4,37.8-17.1,55.3c-2.1,4.3-4.3,8.7-6.4,13
		l-9.6,17.1C46,1002.5,35.8,1021.2,23.4,1038.5L23.4,1038.5z"/>
		<path fill="#F9E8D6" d="M196.2,971.3c3.9-5.7,7.5-11.8,11.8-17.3c33.7-45.2,65.3-91.7,94.2-140.4c19.6-33,40.5-65.3,60.9-97.8
		c0.2-0.2,0.4-0.4,0.4-0.5c6.2-9.5,6.2-9.5-0.9-18.6c-0.9-1.2-2-2.3-2-4.1c9.6-1.4,18.7,9.5,15.3,18.7
		c-6.4,17.7-14.5,34.4-24.3,50.3c-31.2,51-66.9,98.9-102.6,146.6c-15.2,20.2-31.4,39.6-47.1,59.4c-1.2,1.6-2.5,3.2-3.7,4.8
		C197.3,972.2,196.7,971.7,196.2,971.3L196.2,971.3z M231,644.4c9.8,2,20.9-2.9,30.2,5.2c3.7-9.5,7.5-18.6,11.1-27.8
		c3.9-10.2,9.8-19.5,15.5-28.7c3-4.8,11.8-7.1,17.5-5.2c6.6,2.1,11.1,7.5,11.2,14.3c0.2,13-4.3,25.3-7,37.8
		c-1.4,6.8-3.9,13.2-5.7,19.8c-0.9,3.6-3.2,4.6-6.4,3.6c-21.6-7-43.5-12.5-65.5-18C231.7,645.2,231.4,644.8,231,644.4L231,644.4z"/>
		<path fill="#FEFEFE" d="M429.3,541.5c25.2,8.7,47.5,22.8,70.1,36.2c17.5,10.4,34.1,22,47.7,37.1c1.8,2,3.2,4.1,4.8,6.2
		c-1.1,0.9-2,0.5-3-0.2c-8.7-7.5-19.3-12-30-15.3c-8.6-2.7-13.6-9.8-20.2-15c-24.1-18.2-51-30.2-79.4-39.4
		c-10.2-3.2-19.5-8.7-29.6-11.8c-15.7-4.8-31.6-8.2-48.2-8.4c-1.8,0-3.6,0.4-5-1.1c24.6-1.1,49.3-1.1,73.3,5c1.1,0.2,2,0.9,3,1.2
		C417.7,540.2,423.6,540.6,429.3,541.5L429.3,541.5z M110.3,875.5c-4.1,0.7-8.2,1.4-13,2.1c7-12.3,15.5-22.7,25.7-31.1
		c18.2-15.2,32.8-32.8,44.3-53.5c11.2-20.7,20.7-42.5,35.5-61c0.9-1.1,1.8-2,2.7-2.9c2.5,2.3-0.2,4.1-1.1,5.9
		c-9.5,19.3-19.3,38.5-24.4,59.8c-2.1,8.7-9.3,15-14.6,22c-15,19.1-33,35.5-50,52.8C113.5,871.4,111.2,873,110.3,875.5z"/>
		<path fill="#FEFDFD" d="M63.3,767.7c17.3-36.8,36.6-72.5,60.7-105.3c3.4,5.5,1.4,10-1.6,15.2c-17,30-35.2,59.1-54.6,87.4
		C66.7,766.4,66.4,769.3,63.3,767.7L63.3,767.7z"/>
		<path fill="#FCFCFB" d="M168.1,772.3c-6.4,14.3-15.2,27.1-24.8,39.1c-12,15.3-22.5,31.8-36.9,45c-2-1.4-0.5-2.5,0.4-3.7
		c19.5-26.2,38.9-52.5,58.2-78.7C165.8,772.9,166,770.4,168.1,772.3L168.1,772.3z"/>
		<path fill="#FDFDFD" d="M223.3,691.6c-3.6-4.5-8.7-6.8-13.7-8.9c-10.4-4.5-20.3-9.8-29.4-16.6c4.8-1.1,8.7,2,13,3
		c10.7,2.5,21.1,6.4,32.3,6.6c1.6,0,4.3-0.5,3.4,2.5C227.4,682.8,227.8,688.2,223.3,691.6z"/>
		<path fill="#FEFDFD" d="M174.5,1000.1c-10.4,25.5-29.6,43.2-51.6,58.5C140.1,1039.2,157.4,1019.6,174.5,1000.1z"/>
		<path fill="#F9E8D7" d="M184.9,632.1c-11.1,10.7-22.3,4.1-26.9-2.3c-0.9-1.2-2.1-2.9-1.1-4.1c0.7-0.7,2.5-1.1,3.7-0.7
		C168.6,626.4,177.2,627.1,184.9,632.1z"/>
		<path fill="#FCFBFB" d="M102.6,860.8c-3.4,5.2-7,10.2-10,15.5c-1.8,3-4.5,2.7-7,2.7c-13,0.2-26.2,0.2-39.3,0.2
		c-0.9-0.2-1.8-0.4-2.7-0.4v-1.1c4.8,0,9.6-0.2,14.5,0c15.7,0.5,28.9-5.2,40.5-15.5C99.6,861.4,100.3,858.5,102.6,860.8z"/>
		<path fill="#FEFEFD" d="M357.9,692.1c-11.4-3-24.6-0.7-26.1-16.8C342.7,676,351.8,681.6,357.9,692.1z"/>
		<path fill="#828181" d="M410.2,237.8c0-1.2,0.7-2.9-0.5-3.6c-4.3-2.3,0.2-2,0.7-2.9c2,1.4,3.6-1.4,5.5-0.7c1.8,0.9,3.6,2,5.4,3
		c13,12.5,26.2,24.8,39.3,37.3c8.6,8.2,16.2,17.1,25.9,24.3c1.6,1.2,2.9,3.6,5.5,2.9c6.1,4.8,12,9.8,18,14.5
		c2.1,1.6,3.9,4.8,7.3,2.9c7.7,6.8,17,10.4,26.1,14.5c11.1,5,22.1,10.5,31.2,18.9c2,1.8,4.6,2.7,7,3.7c3.4,1.6,6.6,3.7,8.7,7.1
		c1.2,2.1,2.5,4.3,1.2,6.8c-1.4,2.9-3.9,2.5-6.4,2.5c-11.6,0-22.3-3.6-33-7.5c-5-1.8-10-3.7-15-5.7c-18.7-4.8-36.6-12.5-54.4-19.8
		c-21.1-8.6-41.2-18.7-61.6-28.7c-0.5-0.4-1.1-0.9-1.4-1.4c-16.4-8.6-33.6-15.2-51-20.9c-1.4,0.9-3,0.7-4.5,0.2
		c-3.2-1.1-6.4-2.1-7.3-5.9c-0.9-3.7,1.6-7.3,4.5-8c8.6-2.1,12.3-8.9,16.8-15.2c1.8-2,4.3-3.6,5.4-6.1c2.3-2.5,5.2-4.1,8.4-5
		c4.5-0.4,8.6-2.7,13-2c3.6,0.5,6.4,1.4,6.2,6.1c-0.2,4.3-2.5,5.2-6.1,5.4s-7.1,0-10.7,3.2c7.3,4.1,15.3,5,22,9.3
		c0.7,0.4,0-1.4,0-0.5c0,0.4-0.2,0.2-0.7,0c-4.3-1.6-3.9-5.4-4.1-8.9C411.1,250.8,410.9,244.2,410.2,237.8L410.2,237.8z"/>
		<path fill="#0A0A0A" d="M878.8,81.2c-6.1-9.5-15.3-15.3-24.1-21.8c-11.4-8.4-22-17.3-27.8-30.5c-3.6-3.4-3.9-7.5-2.9-12
		c2.9-8.4,6.2-10,14.5-6.8c4.6,1.8,9.1,4.1,12.5,7.7c19.5,20.5,38.7,41.4,51.4,67.1c9.3,18.7,14.3,38.4,11.8,59.4
		c-0.4,2.9-0.4,6.1-4.3,6.4c-3.6,0.2-4.1-2.9-5-5.4c-2-5-3.9-9.8-5.7-14.8c-5.2-6.1-6.4-14.1-8.9-21.2
		C886.8,99.7,882.3,90.6,878.8,81.2z"/>
		<path fill="#F9F8F5" d="M379.5,255.3c-1.2,2.1-3.2,3.9-3.7,6.2c-1.4,5.5-3.6,9.1-10.4,8.9c-2.9,0-6.6,3.6-7.1,7.5
		c-0.5,4.6,3.9,4.5,6.8,5.7c1.2,0.5,2.5,0.9,3.7,1.4c-3.6,3.9-7.1,7.9-10.7,11.8c-4.6-4.3-8.9-3.7-13.4,0.4c-2,1.8-3.9,3.4-7,3.4
		c-2.7,0.2-12.3,8.4-12.8,10.9c-0.2,0.9-0.2,2,0.7,2.3c7.3,3.4,2.3,7.3,0.4,11.1c0.7,5.9-2.1,4.5-5.4,2.7c-1.2,0.2-2.7,0.5-3.9-0.2
		c-11.8-6.2-18.9,3.6-28.7,7c2.5,2.1,3.4,0.5,4.6,0s2.3-1.2,3.6-1.6c1.4-0.5,3.2-1.2,4.3,0.4c1.4,2,0,3.4-1.2,4.6
		c-3.4,3-7.9,5.2-9.5,10c0.4,1.6,3.2,2.7,1.8,4.5c-1.6,1.8-4.3,0.9-6.4,0.7c-2.3-0.2-4.1-1.2-4.6-3.9c-3.4-15-5.5-16.2-20.5-16.1
		c-5.2,0-10.7,1.4-15.7-1.1c30-15,59.1-31.8,87.6-49.4c0.9-0.5,2-1.2,3-1.6c16.8-5.9,32.1-14.3,44.6-27.1
		C380,254,380,254.6,379.5,255.3L379.5,255.3z"/>
		<path fill="#6D0613" d="M483.9,98.1c1.2-1.1,2.5-2.3,3.7-3.4c3.9-0.2,7-4.8,11.4-1.8c3.7,5.7,8,10.2,14.1,13.7
		c6.6,3.9,10.4,10.9,14.6,17.1c9.1,13.6,17,27.7,22.1,43.4c0.5,2,1.6,3.6,2.1,5.5c1.2,6.6,3.4,13.2,3.6,20.2c0,0.7,0,1.2-0.2,2
		c-2.7,2.7-2.9,6.2-3.7,9.8c-0.7,1.2-1.8,2-3.2,2c-1.8-0.2-3-1.2-3.4-3c1.2-2,0.7-3.7-0.2-5.7c0.9-5.5-4.1-7-6.8-10.2
		c-1.1-1.1-2.1-2.3-2.9-3.6c-0.9-2.3-2-4.6-4.1-5.9c-10.7-6.4-18.2-16.2-26.4-25.3c-0.5-0.7-1.1-1.4-1.6-2.1c-0.7-2.3-0.9-5-3.7-6.2
		c-3-2.3-4.6-5.9-6.1-9.3c-0.7-2.1-1.4-4.1-2.5-5.9c-1.2-2.5-2.1-5.2-2.9-8c-0.4-1.6-0.7-3-1.2-4.5c-2.3-5.2-0.7-11.1-3.4-16.1
		C483.2,99.7,483.4,98.9,483.9,98.1L483.9,98.1z"/>
		<path fill="#0A0A0A" d="M751.9,93.1c-1.1-14.5,2.3-16.8,16.2-12.1c5.4,1.8,10,4.8,14.3,8.4c9.1,7.5,19.1,13.7,29.3,19.6
		c3.6,2.1,6.1,6.2,8.7,9.6c4.8,5.9,9.3,12,13.9,17.8c0.9,1.2,1.6,2.7,2.9,3.7c2.5,1.8,6.2,2.1,6.1,6.8c-0.4,5.2-1.6,10-5.4,13.9
		c-7.9,8.6-23.6,11.2-35.3,5.9l-5.4-2.7c-3.9-1.8-7.3-4.1-7-9.3c3.6-7,6.2-6.6,13.4,1.4c0.7-2,1.2-3.7,3.7-3.9
		c2.7-0.2,5.2,1.1,5.9,3.6c1.6,5,5,4.3,8.6,3c4.5-1.4,8.9-3.2,10-8.6c0.4-1.8-0.9-2.9-2-3.9c-3.9-3.4-6.8-7.7-9.8-11.8
		c-3-5.4-7.3-9.8-11.6-14.3c-2.1-2.3-5-5.9-8.7-2l-2,2c-3.2,2.9-5.5,5.9-3,10.4c2.9,5.4,9.8,9.1,15.3,8.7c2.3-0.2,5.2-2.9,6.8,1.2
		c-2.1,6.6-5,8.6-12.5,8.7c-4.8-1.4-9.6-3.2-13.2-7c-7.5-9.1-8.4-18.7-2.1-28.7c1.1-1.8,2.5-3.7,0-5c-6.8-3.6-11.4-9.8-17.5-14.3
		c-2-1.4-4.1-2.7-6.4-3.4c-2.1-0.7-3.4,0-3.7,2.3C758.1,98,756.3,98,751.9,93.1L751.9,93.1z"/>
		<path fill="#F9E8D6" d="M414.3,122.6c5.9-0.7,10.7-2.7,14.5-8c5.5-8.2,19.8-7.5,25.9,1.2c5.2,7.5,9.3,15.5,13.4,23.7
		c2.3,4.6-3.4,10-10.5,9.8c-11.6-0.2-18.9-8.6-17.1-20.2c0.5-3.9-0.9-3.4-3.6-2.7c-7.9,1.8-15.7,3.7-22.7-2.5
		c-0.5-0.4-0.5-0.5-0.5-0.9C413.9,122.8,414.1,122.6,414.3,122.6L414.3,122.6z"/>
		<path fill="#FEFEFE" d="M249.6,458.8c-28.6-4.1-56.6-10.4-83.2-22.1c-9.6-4.3-19.8-7.5-29.1-12.7c5.7-3.2,11.1-7,18-1.4
		c5.5,4.3,12.5,3.7,19.1,0.9c2.3-1.1,4.1-2.1,6.4,0.4c11.4,13,27.3,18.6,43,24.3c7.7,2.7,15.5,5.4,23.2,8.2
		C248,456.7,250.3,456.3,249.6,458.8L249.6,458.8z"/>
		<path fill="#0B0B0A" d="M909.8,205.3c-8.2,7-18.2,10.7-27.8,14.8c-1.1,0.5-2.1,0.2-3-0.7c5.4-3.7,11.8-5.2,17-9.1
		c2.9-2.3,5.4-4.5,4.5-8.7c-0.5-3.4,0.9-5.7,4.6-7c23.7-8.6,35.3-25.5,35.9-50.7c0.4-11.4,0.5-22.7-1.6-33.9
		c-1.8-9.6-6.4-17.3-12.8-24.4c7.3-1.6,10.5,1.2,12,8.7c1.8,8.9,6.1,17.1,8.2,26.1c6.1,25.3-0.9,47.5-17,67.5
		c-3.7,4.6-7.7,8.9-13.4,11.2C915.2,201.9,910.9,201.9,909.8,205.3L909.8,205.3z"/>
		<path fill="#0B0B0B" d="M219.9,397.2c2.1,1.6,4.8,2.1,7.3,2.7c2.9,0.7,5,2.1,3.9,5.5c-0.9,3.4-3.2,3.6-6.2,2.7
		c-10-2.5-18.6-7.7-27.5-12.7c-9.5-4.1-17.1-10.4-23.9-17.8c-7.5-6.4-14.8-12.7-22.3-19.1c-2.3-2-4.6-4.1-2-7.1s5.2-1.4,7.5,0.7
		c3.6,3,6.6,6.6,10.7,8.9c7.5,2.9,12.7,8.7,18.9,13.4c9.5,7.1,18.7,14.3,29.4,19.3C217.4,394.7,219.2,395.4,219.9,397.2L219.9,397.2
		z M837.5,106.4c-7-10.9-13-22.3-22-31.8c-9.8-10.2-21.2-16.8-36-15.3c-2.9,0.2-5-0.4-5.2-3.6c-0.4-3.6,2.1-4.8,5-5
		c11.8-1.1,22.5,2.1,31.9,9.1c3.9,2.9,7.5,6.2,11.2,9.5c2.3,0.2,3.6,1.8,4.8,3.4c6.2,7.9,11.6,16.2,16.6,25c1.4,2.7,2.5,5.5,0.2,8
		C842.4,107.6,840,108.3,837.5,106.4z"/>
		<path fill="#FEFEFE" d="M219.9,397.2c-7.7-2.1-14.1-6.4-20.3-10.9c-10.9-8-22-15.9-31.9-25.2c3.7-7.5,8.6-3.6,13.2-1.2
		c15.5,8.2,30,18.2,43.7,28.9c2,1.4,4.3,3.2,3.4,6.1C226.6,399,222.6,396.3,219.9,397.2L219.9,397.2z"/>
		<path fill="#F4E9DC" d="M326,324.9c-0.4-3,1.6-5.4,2.5-8.4c-2.1-0.7-5,0.7-6.1-2.7c-0.9-3.4,1.2-4.1,3.2-5.7c2-1.8,3.6-3.9,5-6.2
		c1.6-2.7,3.2-4.5,6.8-3c3.7,1.4,5.2-2.7,7.5-4.3c6.6-4.6,9.8-4.3,13.2,2.1c-3,5.2-7.1,9.5-11.4,13.7c0.7,0.7,1.2,1.1,1.8,1.4
		c2.5,1.6,6.6,2.9,5.9,6.1c-0.7,2.9-3.9,5-7.5,6.1c-3.4,1.1-6.8,1.4-9.8,0.5C333.1,323.3,329.5,323.8,326,324.9z"/>
		<path fill="#F9C9CC" d="M791.7,155c0,4.3,3.7,6.1,5.9,9.1c-17.7-2.9-32.8-10-40.3-27.1c-3.9-9.1-5.5-18.9-2.7-28.9
		c4.3,0.7,3.2,4.8,5,7.3c0.9,2.3,2,4.5,3.2,6.6c3,5.4,6.8,10,10.5,14.6c3.4,4.6,7.7,8.4,12.3,12C787.9,150.2,790.8,151.8,791.7,155z
		"/>
		<path fill="#FDFCFC" d="M420.9,93.1c2.3-7.9,6.2-14.3,14.3-17.1c3.9-1.4,2.9-5.2,5-7.3c10.7-10.7,19.4-22.8,29.2-34.4
		c2.9,4.3-1.6,6.6-3,9.3c-10.9,19.5-23.9,37.1-42.5,50.1C422.7,94.4,421.4,96.4,420.9,93.1z"/>
		<path fill="#FCFCFC" d="M419.8,306c16.4,7.5,32.7,14.8,49.1,22.3c22.5,10.2,45.7,18.6,68.4,27.7c-7.5,1.1-14.1-2.9-20.7-4.8
		c-33.7-10.2-64.8-26.8-96.2-42.7C419.3,307.8,418.6,307,419.8,306L419.8,306z"/>
		<path fill="#F9E8D7" d="M706.5,168.4c8.9-14.1,20.7-22.8,36-26.4c1.4-0.4,3.2-1.1,4.3,0.4c0.9,1.1-0.4,2-1.1,2.9
		C735.6,157.3,722.6,164.3,706.5,168.4z"/>
		<path fill="#F1E8DE" d="M289.7,347.6c-2.1-3-0.2-4.8,2.1-6.4c2.9-2.1,6.2-3.7,8.9-8c-4.8,0.9-7.9,3-11.1,4.6
		c-1.1,0.5-2.1,2.1-3.4,0.7c-1.1-1.2-0.7-3,0.4-4.3c2-2.5,4.8-3.9,7.5-5.4c4.1-2,8.9-2.9,12.7-5.7c1.6-1.2,3.2-0.9,5,0
		c2.9,1.4,5.9,2.9,8.7,4.3C311,335.1,300.6,341.8,289.7,347.6L289.7,347.6z"/>
		<path fill="#FCFBFB" d="M414.3,122.6v1.2c-11.4,4.3-16.4,13.6-18.7,24.8c-3,14.1,1.4,27.7,4.3,41c0.4,1.6,1.6,3.2,0.2,5
		c-14.8-25.3-11.4-55.3,8.7-78.9C412,116.9,411.8,121,414.3,122.6z"/>
		<path fill="#FDFCFC" d="M563.1,232.4c-5.2-8.9-10.4-17.8-15.5-26.8c1.4,0.2,2.9,0.5,3.6-1.1c2.5-2.7,1.4-6.8,3.6-9.6
		c0.2-0.4,0.2-0.9,0-1.2c-0.7-5.9-0.9-11.8-1.6-17.5c-0.4-2.3,0-4.8,2-6.6c2.9,10.7,3.2,21.6,5.2,32.5c1.2,7.7,2.3,15.2,3.6,22.8
		C564.2,227.5,564.9,229.9,563.1,232.4L563.1,232.4z"/>
		<path fill="#0F0F0F" d="M660.7,90.5c-0.9,6.4-2.3,13.7-10,17.3c-3.4,1.6-6.8,2-10.4,0.4c-1.8-0.7-3-1.8-2.9-3.9
		c0.2-2.3,2-4.3,3.7-3.9c9.3,1.6,10-5,11.1-11.2c0.4-2.7,1.1-4.8,4.1-5.4C659.6,83.3,660.9,85.1,660.7,90.5L660.7,90.5z"/>
		<path fill="#FDFCF9" d="M619.3,207.6c4.1-23.9,16.4-30.9,38.5-30.9c-7.9,4.1-15.2,7.1-21.2,12.3C630.3,194.1,625.2,200,619.3,207.6
		L619.3,207.6z"/>
		<path fill="#0D0D0D" d="M597,42.3c0,0.7-0.4,2.5-3,2.9c-2.5,0.4-4.6-0.7-5.2-3c-1.8-7.5-3.4-15.2-4.8-22.8c-0.5-2.5,0.4-4.5,3-5
		c2.7-0.5,4.5,0.7,5.2,3.2C594.3,25,596.1,32.8,597,42.3z"/>
		<path fill="#FCFCFB" d="M837.5,106.4c6.6-0.5,8-2.7,4.8-8.2c-5.7-10.2-12.5-19.8-20-28.9c1.2-2.1,2.5-1.1,3.7,0
		c11.6,11.1,21.2,23.6,26.6,39.4c-4.8-0.7-9.1-1.4-13.4,0C837.7,109.2,835,109.6,837.5,106.4L837.5,106.4z"/>
		<path fill="#FDFDFC" d="M96,281.7c4.6,4.5,6.8,10.5,9.1,16.4c-0.4,2.9-2,1.4-3.2,0.9c-5.2-2.3-10.4-5-15.7-7.1
		c-4.6-2-6.4-5.4-6.4-10C85.1,280.3,90.5,281.5,96,281.7L96,281.7z"/>
		<path fill="#0E0E0E" d="M612.3,61c6.8,1.6,12.7,4.8,17.5,10c2,2.3,2.7,4.8,0.5,7.1c-2.5,2.7-4.6,1.1-6.6-1.1
		c-3.7-4.1-8.2-6.6-13.6-8c-2.7-0.7-4.6-2-3.6-5C607.3,61.4,609.3,60.3,612.3,61L612.3,61z"/>
		<path fill="#FAFAFA" d="M878.8,81.2c6.4,8.2,9.5,17.8,12.8,27.5c2.7,7.3,5,14.6,7.5,22c-5-0.9-8.6-4.6-9.1-8.6
		c-2-13.2-6.1-25.7-11.6-37.8C877.9,83,877.7,82.1,878.8,81.2L878.8,81.2z M438.6,241.7c-8.2-7.5-16.8-14.6-23-24.1
		c9.8-2.1,15.9,2.1,18.6,11.6C435.4,233.5,439.8,236.7,438.6,241.7z"/>
		<path fill="#F9E8D7" d="M583.8,275.3c-8.4,0-13.9-5-15-12.7c-0.4-2.3,0-3.6,2.7-2.7c7.3,2.3,13.2,7,19.5,11.2
		c2.3,1.6,0.2,2.5-1.1,3.2C587.7,275.6,585.4,275.1,583.8,275.3L583.8,275.3z"/>
		<path fill="#0E0E0E" d="M483.9,98.1v2.5c0.2,1.6,0.4,3.2-0.4,4.6c-5.5,10.7-5.2,21.8-3.2,33.2c0,2.3,0.2,4.8,0.5,7.1
		c0.2,1.6,0.4,3.6-2.1,3.7c-9.1-16.1-8.2-36,2.3-48.7C481.8,99.6,482.5,98.3,483.9,98.1L483.9,98.1z"/>
		<path fill="#191717" d="M525.3,99c2,4.6,3.9,9.3,5.7,13.9c-0.5,3.6-2.5,1.6-4.3,1.2c-0.9-0.5-1.6-1.1-2.3-1.8
		c-4.5-7.9-9.1-15.9-18.9-18c-2-0.9-4.3,0.2-6.1-1.2c-1.6-1.4-2.5-3-0.7-5c1.4-0.2,2.7-0.2,4.1-0.4C510.5,85.3,520.3,90.3,525.3,99
		L525.3,99z"/>
		<path fill="#CACACA" d="M96,281.7c-5.4,2.9-10.9,1.8-16.4,0.2c-2.1-2.7-4.5-5.4-6.6-8v-6.8C81.9,269.9,90.1,273.9,96,281.7
		L96,281.7z"/>
		<path fill="#FBFBFB" d="M173.4,377.9c8,5.9,15.9,12,23.9,17.8c-2.3,4.8-7.7,1.2-10.7,4.1c-0.5,0.5-0.9,0.7-1.2,0
		c-0.4-4.1-3.2-6.6-5.9-9.3C175.9,387,173.1,383.1,173.4,377.9z"/>
		<path fill="#221D1D" d="M554.9,169.6c-0.2,8-0.2,16.1-0.4,24.1c-1.4-7.1-2.7-14.3-4.1-21.6c-2.9-10.9-1.4-22-1.4-32.8
		c0-3.9,0.7-4.1,4.1-3.2C553.9,147.3,554.4,158.4,554.9,169.6L554.9,169.6z"/>
		<path fill="#0F0F0F" d="M739.2,41.2c-3.4-0.9-5.7-2.5-3.9-6.1c2.3-4.6,4.8-9.1,7.5-13.4c1.1-2,3-2.5,5.2-1.4
		c1.6,0.9,3.2,2.3,2.3,4.3c-2.1,5.5-5.2,10.7-8.7,15.5C741,40.7,739.9,40.9,739.2,41.2L739.2,41.2z"/>
		<path fill="#F9F9F8" d="M134.5,316.7c11.1,3.2,22.1,6.4,33.4,9.6c1.1,4.1-1.4,5.5-4.6,4.6c-10.4-3.2-20.7-6.4-29.6-12.7
		C131.5,316.7,134,317,134.5,316.7L134.5,316.7z"/>
		<path fill="#282222" d="M513.2,178.4c0.5,2.1,0.9,4.1,1.4,6.2c-12-7-22.8-15.3-30.7-26.9c2.3-1.6,2.3-1.6,3.9-0.4
		c2.3,1.8,4.3,4.5,7.1,5.5C501,168,507.8,172.3,513.2,178.4L513.2,178.4z"/>
		<path fill="#FDFCFC" d="M525.3,99c-6.2-6.4-13.6-10.7-22.7-11.4c0-1.6-0.2-3,0.2-4.6c0.4-2,0.9-4.3,2.9-5c2.1-0.7,2.7,1.8,3.7,2.9
		c3.9,4.1,10,5.5,12.8,10.9C523.5,94.2,525.5,96.2,525.3,99z"/>
		<path fill="#F7F7F6" d="M824,16.8c0.9,3.9,1.8,8,2.9,12c-5.2-0.9-8.9-4.3-12.5-7.9c-1.4-1.4-3-2.9-1.6-5.2c1.2-2.1,3.2-1.8,5.2-1.1
		C819.7,15.7,821.8,16.2,824,16.8L824,16.8z"/>
		<path fill="#5C4B4B" d="M553.1,136c-4.3-1.1-2.1,2.5-2.1,3.6c-0.4,10.7-0.4,21.6-0.4,32.3c-1.4-0.9-2-2.3-2.3-3.9
		c-0.9-9.1-0.5-18.4-0.7-27.5c0-4.3-2.9-7.3-5.4-10.4c-1.1-2-2.3-4.1-0.7-6.4C549.4,124.2,551.5,129.7,553.1,136L553.1,136z"/>
		<path fill="#F9E7D4" d="M185.2,399.8h1.2c0.2,6.6,1.1,13.4-5.4,18.2c-0.9,0.5-1.6,1.8-2.9,1.2c-1.2-0.5-0.9-1.8-1.1-2.9
		C175.8,408.8,181.5,404.7,185.2,399.8L185.2,399.8z"/>
		<path fill="#735154" d="M751.9,93.1c2.7,0,6.8,7,8-1.4c2.9,0.7,2.5,3,2.9,5.2c0,1.1,0,2-0.2,3c-1.6,3.7-3.6,7.1-8.4,6.8
		C752.8,102.2,752.2,97.6,751.9,93.1z"/>
		<path fill="#856B6D" d="M541.5,123.8c0.5,1.8,0.9,3.4,1.4,5.2c-8.2,1.2-13.6-2.3-15.5-10.7c2.7-3.4,5,0.4,7.5,0.4
		C536.9,120.3,539.2,122.1,541.5,123.8z"/>
		<path fill="#423838" d="M494.6,164.3c-4.8-0.2-5.7-6.8-10.7-6.6c-2.5-2.3-4.1-5.2-5.2-8.2c2.3-3.6-1.6-7.3,0-10.9
		c0.5,0,1.1,0,1.2,0.4c3.9,8.4,8.4,16.6,14.8,23.6C495.1,162.8,494.8,163.6,494.6,164.3L494.6,164.3z"/>
		<path fill="#CBCBCB" d="M13.9,367.7h5.4c5.4,1.8,10,4.5,10.7,10.9C24.1,375.6,19.1,371.5,13.9,367.7z"/>
		<path fill="#9A6B6F" d="M754.2,106.7c2.5-2.1,6.2-3.2,7.1-7c3.4,1.1,2.9,3.9,3.2,6.6c-2,3.2-3.6,6.8-6.1,9.8
		c-1.2-2.7-2.7-5.4-3.9-8C754.4,107.4,754.4,107.1,754.2,106.7z"/>
		<path fill="#191515" d="M498.5,88c-0.2,1.8,0.2,3.4,1.2,4.6c-0.2,0.7-0.7,1.1-1.4,0.9c-3-0.7-5.7,0-8,1.8c-1.2,0.9-2.3,1.4-2.7-0.7
		C490.9,91.5,495,90.1,498.5,88z"/>
		<path fill="#594A4B" d="M534.8,118.7c-2.9,2.5-4.5-1.1-6.6-1.4c-1.8-0.9-2.7-2.1-1.4-3.9c1.4-0.4,2.9,1.8,4.3-0.2
		C532.3,114.9,533.5,116.7,534.8,118.7z"/>
		<path fill="#FC9F98" d="M553.7,253.7c0.7,0,1.2,0,2,0.2c1.4,0,3,0,3.7,1.8c0.4,0.9,0.4,1.8-0.5,2.1c-1.8,0.9-2.5-1.2-4.1-1.4
		C554.4,255.5,554,254.6,553.7,253.7L553.7,253.7z"/>
		<path fill="#FD7272" d="M565.5,251.2c-1.1,0.4-2.3,1.1-3.2-0.2c-0.7-1.1,0.5-1.8,0.9-2.7C563.8,249.4,564.7,250.3,565.5,251.2z"/>
		<path fill="#0F0F0F" d="M148.5,316.5c-2-0.7-4.3-0.7-5.9-2.1c3-2.3,0-4.5-0.7-6.2c-6.1-14.3-15-26.8-25.3-38.4
		c-2-2.1-3.7-4.5-5.7-6.6c6.1,1.2,9.3,6.6,14.3,9.3c1.6,1.6,4.5,2.3,4.1,5.5c4.3,6.6,8.7,13.4,13,20c2.5,1.4,3,3.9,3.2,6.4
		C147.2,308.5,148.1,312.4,148.5,316.5L148.5,316.5z"/>
		<path fill="#DFE3E3" d="M415.9,231.4c-1.8-0.2-3.6,2.3-5.4,0c1.4-1.1,4.5-1.4,3.4-3.7c-1.4-3.6-4.1,0.2-6.1-0.2c2-2.1-1.2-5,1.1-7
		c4.6,2.5,8.6,5.5,10.5,10.7C418.4,232.3,417.2,231.9,415.9,231.4z"/>
		<path fill="#E1E9E9" d="M413,89c-2.1,7.5-6.6,13.9-11.1,20.2C402.5,100.8,407,94.6,413,89z"/>
		<path fill="#EDF2F2" d="M392.9,200.3c1.4,2.3,2.9,4.5,4.3,6.8C391.3,207.8,390.4,206.4,392.9,200.3z"/>
		<path fill="#E7EDED" d="M387.5,133.1c-0.9,3.2-2,6.4-2.9,9.6C382.2,138.5,383.1,135.3,387.5,133.1z"/>
		<path fill="#DEE6E6" d="M145.4,304.5c-1.1-2.1-2.1-4.3-3.2-6.4C149.2,297.2,146.1,301.5,145.4,304.5z"/>
		<path fill="#EFF5F5" d="M84.9,233.2c-2.3-2.1-4.5-4.3-6.8-6.4C82.3,226.6,83.1,227.5,84.9,233.2z"/>
		<path fill="#D6E4E4" d="M129.2,278.1c-1.4-1.8-2.7-3.7-4.1-5.5C127.8,273.5,131.2,273.9,129.2,278.1z"/>
		<path fill="#0C0C0C" d="M1217.6,45c1.8,1.4,3.6,2.7,5.4,4.1c1.6,1.2,3.4,2.7,5,3.9c2.5,4.3,7,7,8.6,11.8c-3,2.7-6.1,1.8-9.3,0.2
		c-2.5-0.9-3.7-3.4-5.9-4.8c-1.4-0.9-2.5-2.1-3.7-3.4C1219,53,1214.4,48.9,1217.6,45z"/>
		<path fill="#F5F6F6" d="M1217.6,15.5c4.6,2.3,5.9,5,1.2,8.6c-1.8,1.4-3.2,3-4.8,4.5c-0.2-2.1-0.4-4.3-0.5-6.4
		C1214.9,20,1216.2,17.8,1217.6,15.5L1217.6,15.5z"/>
		<path fill="#FEFEFE" d="M1249.5,107.6c1.4,4.8-4.5,5.9-4.8,9.6c-3-1.2-4.8-3.4-5.7-6.4C1242.6,109.7,1246.1,108.7,1249.5,107.6z"/>
		<path fill="#0D0C09" d="M1135.7,47.1c0.4,3-1.4,3.4-3.4,3.2c-1.6,0-4.1,0.5-3.9-2.1c0.2-2.5,1.1-6.1,3.6-6.2
		C1134.6,41.7,1134.2,45.7,1135.7,47.1L1135.7,47.1z"/>
		<path fill="#E0DEDC" d="M928.4,234.9c-5.2,4.1-10.2,8.6-17.1,9.8c-1.4,0.5-1.8-0.2-1.4-1.4c5.7-3.2,11.6-6.4,17.3-9.6
		C928.4,233.2,928.6,233.9,928.4,234.9z"/>
		<path fill="#959AA6" d="M1244.4,83.7c0.7,0,1.4-0.2,2,0c2.9,0.9,7.9-1.6,8.4,2.1c0.4,3.2-4.5,3.9-7.5,5
		C1246.3,88.3,1243.6,86.7,1244.4,83.7z"/>
		<path fill="#D8D6D3" d="M884.3,18c-2-4.5-4.8-8.4-5.9-13.4c5.2,2.3,5.7,7.3,7.1,12C886.3,18,885.5,18.4,884.3,18L884.3,18z"/>
		<path fill="#C2BCBB" d="M1244.4,83.7c0.9,2.3,4.6,3.6,2.7,7.1c-1.6,0.7-3,1.6-6.1,3C1244,89.9,1241.5,86.2,1244.4,83.7z"/>
		<path fill="#C0BEBA" d="M928.4,234.9c-0.4-0.4-0.9-0.7-1.2-1.1c4.3-3.2,8.7-6.4,13-9.6c0.7-0.2,1.1,0.2,0.7,0.9
		C936.9,228.7,932.8,232.1,928.4,234.9L928.4,234.9z"/>
		<path fill="#D9D0C5" d="M909.8,205.3c-1.6-5.9,4.5-4.3,6.6-6.6C916.6,203.4,912.5,203.5,909.8,205.3z"/>
		<path fill="#FAF9F9" d="M1139.6,69.8c-0.4,2-1.8,2.1-3,2c-1.8,0-3.4-0.7-3-2.7c0.4-1.8,2.1-1.1,3.4-1.1
		C1138.2,67.8,1139.6,68,1139.6,69.8z"/>
		<path fill="#CCCAC6" d="M940.2,224.1c3-3,5.9-6.2,8.9-9.3c-0.5,5.4-4.6,7.5-8,10.2C940.7,224.6,940.3,224.4,940.2,224.1z"/>
		<path fill="#CBC9C6" d="M774.4,287.2c-2.7,2-5.4,3.7-8,5.7c0.5-2.9,2.3-4.6,4.3-6.6C772.2,284.6,773.6,284.9,774.4,287.2z"/>
		<path fill="#DFDCD9" d="M1057,143.6c-2.3,0.7-4.5,2.1-7,1.8C1052.3,140.5,1052.3,140.5,1057,143.6z"/>
		<path fill="#E0DEDA" d="M1082,129c1.1-2.7,2-4.1,4.5-3.2c0.5,0.2,1.4,1.6,1.2,2C1086.1,129.9,1084.1,128.1,1082,129z"/>
		<path fill="#A19D94" d="M1108.4,31.9c1.4,2.7,2.5,5.2,2,8.6C1108,37.8,1106.9,35.3,1108.4,31.9z"/>
		<path fill="#A4A3A2" d="M1221.5,59.8c1.8,1.8,3.7,3.6,5.5,5.4c-4.1,1.6-4.3-3.2-7-4.1C1220.1,59.8,1220.3,59.2,1221.5,59.8z"/>
		<path fill="#A39C93" d="M909.8,243.3l1.4,1.4c-2.1,1.6-4.8,1.8-7.9,2.5C905.2,244.6,907.7,244.2,909.8,243.3z"/>
		<path fill="#8E857A" d="M884.3,18l1.4-1.4c1.1,2.1,3.2,4.1,1.2,6.8C886.1,21.6,885.2,19.8,884.3,18L884.3,18z"/>
		<path fill="#A9A59E" d="M1196.7,84.8c0.9,0.7,2.1,1.2,2.3,2c0.5,1.2-0.9,0.9-1.6,1.1c-1.4,0.4-1.8-0.9-2.1-1.8
		C1195.3,85.8,1196.2,85.3,1196.7,84.8L1196.7,84.8z"/>
		<path fill="#64676D" d="M1221.5,59.8l-1.2,1.2c-1.6-0.7-3-1.8-2.7-3.9C1219.6,56.9,1220.6,58.2,1221.5,59.8L1221.5,59.8z"/>
		<path fill="#7D7566" d="M917.3,13.9c-0.2-0.2-0.7-0.5-0.9-1.1c-0.2-0.9,0.4-1.6,1.2-1.8s1.1,0.4,1.1,1.1
		C918.9,13,918.7,13.7,917.3,13.9L917.3,13.9z"/>
		<path fill="#CBCBCB" d="M248.3,547c-4.1,2.1-8.2,4.3-12.1,6.2c-12.7-2.1-19.5-9.1-20.3-22.3c-0.4-5.9-2.3-11.8-3.9-17.5
		c-2-7.3-2.9-7.5-9.5-4.5c-10.9,5-19.6,12.8-28.7,20.3c-8,6.8-17.7,11.2-27.1,15.5c-6.1,2.7-7.5,5.9-5.9,12.3
		c3.2,12.3,9.3,23.6,12.1,35.9c0.9,3.7,1.6,7.3,2.3,11.1c1.4,6.8-1.1,12-6.2,13.6c-6.8,2-15.5-1.2-16.6-7.5
		c-3.2-17.5-11.6-33-16.6-49.8l0.4-0.4c3.6-5,9.6-6.4,14.6-8.9c5.2-2.5,6.8-6.1,6.1-11.2c-0.4-2.5-0.9-4.8-1.1-7.3
		c-0.7-7.5-0.5-7.1-7.7-4.1c-4.6,2-8.7,6.6-14.6,5.2l-0.4-0.4c-2.3-1.6-2.7-3.9-2.9-6.4c-0.9-16.6-7.9-31.2-13.4-46.4
		c-1.6-4.3-4.1-4.3-7.9-2.9c-9.5,3.7-18.9,7.7-28.9,10.2c-2.3,0.5-4.6,2-7,0.4l-0.4-0.4c-1.6-0.7-2.5-2-2.9-3.4
		c-2.5-8.9-7-17.3-6.8-26.9c0.7-1.2,2-2,3.2-2.7c10.5-4.5,21.4-7.3,31.9-11.8c4.6-2,6.8-4.6,6.4-9.6c-0.2-3.9-0.4-8,0.2-12
		c0.5-3.7,1.1-7.7,5.5-9.3c6.8,2.1,13.4,4.3,20.2,6.2c2.3,3,2.3,6.2,0.9,9.6c-3.4,6.6-10,8.4-16.1,11.1c-4.8,2.1-6.1,4.8-5,9.8
		c1.2,5.4,2.9,10.7,4.8,15.9c0.5,1.6,1.1,4.1,3,3.9c5.4-0.4,10.2-2.9,14.6-5.7c3.6-2.1,1.2-5.5,0.7-8.6c-1.8-8.2-4.5-16.2-3.6-24.8
		c2.9-3.9,6.6-6.1,11.2-7.3c8.6,3.6,17,7.1,25.5,10.5c1.8,11.2-3.7,18.2-13.2,23c-16.6,8.4-13.4,7-7.7,22c4.5,12,9.5,23.6,11.6,36.2
		c0.7,4.3,2.7,4.5,6.1,2.9c9.3-4.3,17.3-10,24.4-17.3c6.6-6.8,14.3-12,23.4-15.2c2.5-0.9,5-1.8,7.9-1.1c4.5,3,5.5,8.4,8,12.7
		c4.1,7.7,4.3,8,12.7,5c4.8-1.8,9.6-3.4,13.9-5.9c2-1.1,3.9-2.1,6.2-1.2c5,5.4,5.4,12.3,7.3,18.9c2,6.6,2.5,13.4,3.9,20.2
		C252.1,538.3,251.5,542.9,248.3,547L248.3,547z"/>
		<path fill="#A3A3A3" d="M55.7,589.7c-1.6-6.2-3.2-12.5-5-18.6c-0.5-1.8-0.9-3.4-0.4-5.2c0.5-1.2,18.6-10.5,20-10.4
		c2.3,0.4,2.3,2.3,2.9,4.1c1.8,6.1,3.6,12.3,5.4,18.4c0,0.4-0.2,0.7-0.4,1.1C70.7,582.7,63.2,586.1,55.7,589.7L55.7,589.7z"/>
		<path fill="#F6EEE4" d="M144.9,627.3c-7,8.7-13.9,17.3-20.9,26.1C123.8,642.8,132.4,632.1,144.9,627.3z"/>
		<path fill="#202020" d="M41.2,793.7c-3.6-0.2-5.2-1.8-4.5-4.3c0.7-3.2,1.2-7.3,6.1-7.5c2.7,0,4.3,1.6,3.7,4.3
		C45.7,789.8,45,793.4,41.2,793.7z"/>
		<path fill="#FEFEFE" d="M12.6,611.4c14.3-7.1,28.6-14.1,42.8-21.2c6.2,21.1,10.5,42.5,14.8,63.9c0.9,4.5,1.8,9.1,2.9,13.6
		c0.4,0.5,0.2,0.9-0.4,1.1c-4.3-0.2-7.7,2-11.4,3.6c-3.2,1.2-4.8,1.2-5.7-2.3c-3.2-10.9-7.7-21.2-12.3-31.6
		C37.1,625,29.6,612.7,12.6,611.4z"/>
		<path fill="#A2A2A2" d="M30.3,699.9c-0.7-4.5,0.9-6.2,2.7-7.5c6.2-5,12.5-9.8,18.9-14.6c3.4-2.5,5.9-2.5,7.1,2.3
		c1.8,7.7,3.9,15.5,5.7,23.2c0.5,2.1,0.7,4.3-1.4,6.1c-7.3,6.6-14.6,12.8-23,18c-2.1,1.4-4.1,2-4.8-1.6
		C33.4,716.6,32.8,707,30.3,699.9z"/>
		<path fill="#A3A3A3" d="M72.6,668.7c0.2-0.4,0.2-0.7,0.4-1.1c4.6,0.5,9.1-1.2,13.7-0.4c5.7,0.9,9.6,3.4,10,9.5
		c0.2,4.1-5.7,8.9-11.4,9.5c-5.7,0.5-9.3-2.3-10.9-7.7C73.7,675.3,73.3,671.9,72.6,668.7z"/>
		<path fill="#FAFAFA" d="M38.2,884.6h50c-1.8,5.9-3.9,13-6.1,20c-2.5-2.9-4.8-5.7-7.5-8.2c-4.5-4.3-9.8-7.9-16.1-6.2
		C50.3,892.3,44.2,888.7,38.2,884.6z"/>
		<path fill="#FEFEFE" d="M53,488.3c13-3.6,25.7-8,38.2-13.4c3.6-1.4,4.8-0.9,6.2,2.7c7.3,18,14.3,36.2,15.5,55.9
		c-12.1,7.3-25.5,12.5-38,19.3c-2.3,1.2-3.4,0-3.9-2C64.9,530,58.9,509.2,53,488.3z"/>
		<path fill="#A2A2A2" d="M43.2,457.6c3,10.2,6.2,20.3,9.3,30.5c-6.1,2.9-12.7,3.4-19.1,5.4c-3.7,1.1-5.5-0.9-6.6-4.6
		c-2.3-8.7-5-17.3-7.5-26.1C26.7,458.5,34.4,455.8,43.2,457.6L43.2,457.6z"/>
		<path fill="#A3A3A3" d="M113.3,534c6.4-3,12.8-6.1,19.1-9.3c3.2-1.6,5-1.6,4.8,2.7c-0.2,3.9,0.4,7.9,1.2,11.8
		c1.2,6.4,0,11.4-7.3,13.9c-5.2,1.6-10,4.6-15,7.1C114.6,551.5,112.2,542.9,113.3,534z"/>
		<path fill="#FEFEFE" d="M248.3,547c2.5-18.4-2.7-35.5-9.5-52.1c-0.4-0.4-0.4-0.7-0.4-1.2c0-0.4,0-0.7,0.2-0.7
		c1.8-3.2,4.6-5.4,7.1-8c4.1-4.8,4.8-10.5,1.8-14.6c-3.4-4.6-8.9-5.5-14.8-2.1c-3,1.8-5,1.8-7.7-0.9c-7.3-7.3-13-8.7-19.3-5
		c-7.1,4.1-8.9,9.5-6.4,19.6c0.2,0.4,0.2,0.9,0.2,1.2c-0.2,0.4-0.2,0.5-0.4,0.9c-17.1,3-27.8,15.7-40.2,26.1
		c-5.4,4.5-11.8,7.1-17.8,10.2c-2.7,1.4-4.5,0.9-4.8-2.1c-2.1-17.7-9.8-33.6-16.2-49.8c-1.4-3.9-1.4-6.1,2.5-8
		c4.5-2.1,8.6-4.6,12.8-7.1c7-3.9,11.2-9.5,9.6-17.8c-0.4-1.6,0.7-1.8,1.8-2.1c22.7,9.3,45.3,18.2,69.2,23.4c13.7,3,27.5,5.7,41,8.6
		c2.5,0.5,5,1.6,7.5,2.5c8.9,6.6,18.2,13,29.4,15.3c1.8,0.4,3.9,1.1,4.5,3.4c-1.1,4.6-5.4,8.6-4.1,13.9c2.3,10.2,5.4,20,16.8,23.6
		c0.9,0.4,1.6,0.5,2.3,1.2c0.4,0.4,0.5,0.7,0.4,1.2c-0.9,1.8-2.9,0.5-4.1,1.4C288.5,531.7,268.1,538.4,248.3,547L248.3,547z
		 M543.9,773.4c18.2-26.8,32.5-55,34.6-88c0.9-13.9-2-27.3-6.2-40.5c5.9-2.3,11.8-4.5,17.1-7.9c15.2,36.8,15,73.2-1.4,109.6
		c-2,1.8-3.7,0.4-5.5-0.2c-7.3-1.6-12.1,0-15.7,5.4c-3.2,4.8-2.7,13.2,0.7,18.2c1.2,1.8,4.1,2.9,3.4,5.9
		c-15.5,22.3-35.9,39.3-59.6,52.3c-1.6,0.9-3,1.8-4.6,2.7c-2,0.2-3.2,0.2-1.4-2.1c3.9-5.5,7.9-11.2,11.8-16.8
		C526.2,799.3,535.8,787,543.9,773.4L543.9,773.4z M486.2,563.4c-16.1-8.7-32.3-17.3-49.1-24.4c-0.7-6.8,0.2-13.6,2.7-20
		c27.8,4.8,55.3,11.4,80.5,25.2c27.7,15.2,44.4,39.6,57.6,67.1c-7.1,2.1-12.7,7-18.7,10.7c-15.3-20-35.7-34.3-56.4-48.2
		c0.2-3.6,3.4-3.6,5.5-4.8c6.6-3.6,9.6-10,8.2-16.6c-1.8-7.1-8.2-12-15.3-11.2c-7.1,0.9-12.7,7.7-12.7,15
		C488.5,558.6,491,562.2,486.2,563.4z M90.1,412.2c-5.5,6.4-4.1,14.3-3.7,21.6c0.4,5.9-1.6,8.6-7.1,10.7c-10.9,4.1-22,8-33.2,11.6
		c-4.5,1.6-5.4-1.4-6.4-4.6c-2.9-8.9-4.6-18-6.6-27.1c-2.3-10.9-3.7-21.8-4.6-32.8c-0.2-2.5-0.5-5,1.6-6.8
		C49.4,395.6,69.2,405,90.1,412.2L90.1,412.2z"/>
		<path fill="#CBCBCB" d="M30.1,384.7c1.1,23.2,5.5,45.9,11.8,68.2c0.7,2.5,2,3.2,4.1,3.2c-0.9,0.4-1.8,0.9-2.9,1.2
		c-8,1.8-15.9,3.6-23.9,5.2c-7.3-26.2-13.6-52.6-13.6-80.3c0-4.3,0.5-8.4,2.9-12.1C16.6,373.8,23.4,379.3,30.1,384.7L30.1,384.7z"/>
		<path fill="#FEFEFE" d="M408.9,529.7c-17.7-3-35.5-5.2-53.5-5c-9.3,0.2-18.6,0.7-27.8,1.2c-2.3,0.9-4.6,0.7-6.8,0
		c-0.2-1.4,0.2-2.3,0.9-2.9c8.4-7.7,7.5-16.1,2.7-25.3c-1.2-2.3-5.5-5.2-0.7-8.4c29.3,9.8,59.4,17.1,89.4,24.3
		C412.9,519.2,411.1,524.5,408.9,529.7z"/>
		<path fill="#CBCBCB" d="M323.6,489.4c-1.8,3.7,1.4,6.1,2.7,8.7c5.9,12.3,5.2,17.5-4.5,27.1c2,0.2,3.9,0.4,5.7,0.5
		c-5.7,1.8-11.8,1.4-17.7,2.3c0.9-0.5,1.8-1.2,2.5-1.8c-16.8-3.2-25.2-25.9-14.6-39.4c1.1-3.2,3.9-4.1,6.6-5
		C310.8,484.4,317.2,486.9,323.6,489.4L323.6,489.4z M559,622c4.8-6.2,10.4-10.9,18.7-10.7c4.8,8,8.4,16.8,11.4,25.5
		c-3.9,6.2-10.2,8-17.1,7.9C568.1,636.9,564.2,629.1,559,622L559,622z"/>
		<path fill="#CACACA" d="M408.9,529.7c-0.7-5.9,1.1-11.1,4.1-16.1c9.1,1.2,18,2.9,26.8,5.4c0.9,7-0.2,13.6-2.7,20
		C427.7,535.8,418.4,532.7,408.9,529.7L408.9,529.7z"/>
		<path fill="#CBCBCB" d="M570.8,776.1c-4.6-4.1-8.4-8.6-8.2-15.7c0.4-12.8,10.2-19.6,22.1-15c1.1,0.4,2.1,0.7,3,1.1
		C583.4,757,578,767,570.8,776.1L570.8,776.1z"/>
		<path fill="#F8F0E6" d="M304.5,481.9c-1.6,2.5-4.5,3.2-6.6,5c-6.4-3.6-14.1-3.9-20.3-8c-4.8-3.2-10.2-5.5-13-10.9
		C278.3,471,291.3,476.7,304.5,481.9z"/>
		<path fill="#CACACA" d="M591.1,752c4.5,5.4,3.4,11.4,0.5,16.8s-7.9,8.4-14.5,7.1C582,767.9,586.4,760,591.1,752L591.1,752z"/>
		<path fill="#F6F6F6" d="M121,422.6c-2.9,3.4-6.8,5-10.7,6.6v-10.7C114.4,418.9,117.6,421,121,422.6z"/>
		<path fill="#EEEEED" d="M491.9,298.1c-5.4,1.4-8.2-2.7-11.2-5.5c-17-16.1-32.8-33-50.1-48.7c-3.6-3.2-8.7-4.8-9.8-10.2
		c-0.2-0.5-0.2-0.9,0.4-1.1c9.3,6.2,16.2,15,24.4,22.5C461.1,269.2,476.4,283.7,491.9,298.1L491.9,298.1z"/>
		<path fill="#131313" d="M421.1,232.4c-0.2,0.4-0.2,0.7-0.4,1.1c-2.3,0.9-3.7-0.2-4.6-2.1c1.1-0.2,2.3-0.4,3.4-0.4
		C419.8,231.6,420.4,231.9,421.1,232.4z"/>
		<path fill="#CBCBCB" d="M52.8,253.7c-7.7-2.5-15.3-5-22.8-7.5c0.7-7-2.7-7.9-8.6-6.4c-7.5,1.8-16.2-3.4-18.9-10.4
		c-2.9-7.5,0.9-15.9,8.6-19.8c2.3,2,1.2,4.5,1.2,7c0.4,8.6,3.9,12.7,12.1,14.3c1.8,0.4,3.6,0.4,5,1.4c6.1,4.5,12,3.6,16.2-2.7
		c1.8-2.3,1.8-5.5,3.9-7.7C63.5,229.1,64.4,239.9,52.8,253.7L52.8,253.7z"/>
		<path fill="#A2A2A2" d="M50.1,221.7c0.4,10.2-8.4,15.7-17.3,16.1c-0.9,0-2.5-0.2-2.5-0.4c-0.4-7.5-7-4.3-10.5-6.1
		c-6.4-3-9.8-8.9-9.1-16.6c0.2-1.8,0.4-3.6,0.5-5.2c0.5-0.4,0.9-0.9,1.4-1.2c8-4.8,16.6-6.1,25.5-2.7c0.4,0.2,0.7,0.2,1.1,0.4
		c2,2,4.1,3.7,4.1,6.6C43.3,217.5,45.8,220.1,50.1,221.7L50.1,221.7z"/>
		<path fill="#CBCBCB" d="M101,279.4c-7.9-9.5-19.1-13.6-29.6-18.6c2-0.2,2.9-1.8,4.1-3c5.7-6.6,13.9-8.4,20.9-4.6
		c6.2,3.4,9.3,12.8,6.8,20.7C102.4,275.6,101.7,277.4,101,279.4z M38.2,205.5c-8.7-0.4-17.1,0.9-25.5,2.7
		C18.5,198.4,30.1,197.1,38.2,205.5z"/>
		<path fill="#CCCCCC" d="M50.1,221.7c-5.2,0.5-9.3-0.2-8-7.1c0.5-3.2-2.1-5.7-2.9-8.7C46.4,208.7,50.8,213.5,50.1,221.7z"/>
		<path fill="#FAFAFA" d="M410.2,237.8c1.4,4.1,2,8,2.1,12.5c0.2,5.4-2.5,14.1,6.1,18c-9.5-3.4-18.7-6.8-28.9-10.4
		c5-4.6,10-5.4,15.3-5.4c2.5,0,5.7,0.7,5.7-3.6c0-3.9-2.7-4.3-5.9-4.8c-4.3-0.5-8.6,1.8-12.8,0.5
		C397.7,241.7,403.9,239.6,410.2,237.8L410.2,237.8z"/>
		<path fill="#BFBEBE" d="M379.5,255.3c0-0.5,0-1.2-0.2-1.8c0.7-1.8,2.5-2.7,4.1-3.6C384.5,253.3,380.9,253.5,379.5,255.3
		L379.5,255.3z"/>
		<path fill="#3A5E5E" d="M345.9,270.1c1.4-2.5,3.7-2.3,6.1-2.5C350.4,269.4,348.4,270.5,345.9,270.1
		C345.9,269.9,345.9,270.1,345.9,270.1z"/>
		<path fill="#F2D1F5" d="M23.4,1038.5c10-18.7,20.9-37.1,31.9-55.1c-0.5,7.5-5.4,13.4-8,20.2c-3.6,8.7-8.2,17.1-12.7,25.7
		C32.3,1033.9,28.9,1037.4,23.4,1038.5z"/>
		<path fill="#CBCBCB" d="M486.2,563.4c2.1-1.2,1.2-2.9,0.9-4.6c-1.6-9.3,3.4-17.1,12-19.3c8-2,16.1,2.9,18.6,11.1
		c2.7,8.9-1.2,17.3-10,20.5c-1.8,0.7-3.9,0.9-5.2,2.7C497.3,570.2,491.7,566.8,486.2,563.4z"/>
		<path fill="#C6C6C6" d="M429.3,541.5c-6.1,0.4-12.5,1.6-16.4-5.2C418.8,537,424.1,539,429.3,541.5z"/>
		<path fill="#F0F0F0" d="M455.5,311c8.6,3.2,17.3,6.2,25.9,9.5c1.4,0.5,2.3,1.1,1.6,2.9c-0.9,2-2.1,1.1-3.2,0.5
		c-8.2-3.6-16.4-7.3-24.8-11.1C455.2,312,455.3,311.5,455.5,311z"/>
		<path fill="#F5F5F5" d="M452.3,300.8c-3.9-1.1-7.7-2.9-11.2-5.2c-1.4-0.9-0.4-2,0-2.9c0.5-1.2,1.4-2,2.5-1.2
		c3.4,1.6,6.8,3.4,10,5.2c1.1,0.5,1.1,1.8,0.9,2.9C454.3,300.6,453.4,300.8,452.3,300.8L452.3,300.8z"/>
		<path fill="#E5E5E5" d="M412.2,281.7c-8.7-0.4-13.2-4.6-17.8-8.4c0.2-0.5,0.5-1.1,0.7-1.4C400.4,274.9,405.6,278,412.2,281.7
		L412.2,281.7z"/>
		<path fill="#E8E8E8" d="M445.2,271c-5.5-3.9-10.2-9.1-14.8-14.5l1.2-1.2C436.2,260.6,440.9,266,445.2,271L445.2,271z"/>
		<path fill="#F0F0F0" d="M480,310.6c6.6-4.5,9.5,0.5,13.7,4.5C488.4,314.5,484.4,312.6,480,310.6z"/>
		<path fill="#B9B8B8" d="M448.4,272.1c2,2.3,4.1,4.5,6.4,7.1C451.6,277.4,449.1,275.6,448.4,272.1z"/>
		<path fill="#FAFAFA" d="M457.5,282.2c1.6,0.5,2.9,1.4,3.2,3.2c0,0.4-1.6,1.6-1.6,1.4c-1.1-0.9-2.3-2-3-3
		C455.7,283.1,456.2,282.2,457.5,282.2z"/>
		<path fill="#B7B6B6" d="M575.3,359c-3.6,0.7-5,0.5-7.1-2C570.8,357.7,572.4,358.3,575.3,359z"/>
		<path fill="#F0D4D7" d="M494.6,164.3c-7.3-7.3-13-15.5-15.9-25.7c-3-13.2-1.8-25.9,5.4-37.7c4.6,4.6,2.3,11.1,4.3,16.4
		c-1.6,1.8-0.4,3,1.1,4.1c0.9,2.7,1.8,5.4,2.9,7.9c1.8,3-1.8,4.1-2.9,6.4c2.1,0,3.4-1.8,5.2-0.9c1.8,3,3.7,6.2,5.5,9.3
		c0,3,0.9,5.5,4.1,6.6c0.4,0.5,0.7,1.1,1.2,1.4c1.6,2.3,4.3,4.1,3.6,7.5c-0.2,0.9-0.2,2.1,0.9,2.1c7.1,0.7,9.6,7.1,14.3,11.1
		c4.3,3.6,9.5,6.1,12.1,11.2l2.7,2.7c0,1.6,0,3-1.4,4.1c-5.4-5.7-10.4-12-17-16.6c-1.8-1.2-3.6-4.3-6.1-3c-2.5,1.2-1.2,4.6-1.4,7
		C506.2,174.6,500.7,169.1,494.6,164.3L494.6,164.3z"/>
		<path fill="#F0D5D8" d="M526.7,113.1c-0.2,1.6,0.5,2.9,1.4,3.9c1.4,8.2,7.7,10.5,14.8,11.8c5.2,3.4,7.1,8,6.6,14.1
		c-0.7,8.4,2,16.8-1.2,25.2c-7-21.1-18-39.8-32.1-56.8c-1.6-2-3.7-3.9-6.2-5c-6.1-2.3-8.9-7.3-11.4-12.8c0.5-0.4,0.9-0.5,1.4-0.9
		c2-0.7,3.7-1.6,5.5,0.4c7.7,5.2,13.2,12.7,20,18.9C525.8,112.4,526.4,112.8,526.7,113.1z"/>
		<path fill="#44050F" d="M503.7,117.4c0.7,0.4,1.8,0.9,2.5,1.6c11.1,12.3,21.2,25.3,28.7,40.3c0.9,1.8,2.1,3.9,0.2,5.5
		c-2.1,1.6-4.1,0.4-5.9-1.4c-0.5-0.5-1.1-0.9-1.4-1.4c-5.9-10.9-15.7-18.9-22-29.3c-2.1-3.6-1.2-9.6-4.5-13.7
		C501.2,118.3,502.5,117.6,503.7,117.4L503.7,117.4z"/>
		<path fill="#E1A6AC" d="M536.2,184.3c-7.9-4.8-13.7-11.6-20.2-18c-1.2-1.2-2.5-3.7-4.1-2.9c-8.2,3.9-4.5-1.8-4.5-5.2
		c0-2-1.4-3.9-2.1-6.1c2.9,1.2,4.8,3.9,6.6,6.2c5.2,6.6,10.5,12.8,18,17.1C533.2,177.3,536.4,179.8,536.2,184.3z"/>
		<path fill="#F7F0F0" d="M537.4,191c0.2-1.4-0.4-3.2,1.4-4.1c3.4,3.2,10,4.6,7.3,11.6c-2.5,0.4-3.7-1.2-5-2.9
		C539.4,194.6,538.3,192.8,537.4,191z"/>
		<path fill="#DFA3A9" d="M494.4,134.7c-0.5,0.4-1.1,0.7-1.6,1.1c-2,1.1-4.3,4.1-6.1,1.8c-2-2.7,1.8-3.7,3.4-5.2
		c1.1-0.9,1.8-1.8,2-3.2C493.5,130.8,494.2,132.6,494.4,134.7L494.4,134.7z"/>
		<path fill="#E2A3A9" d="M504.1,150.7c-7.5,0.2-7.5,0.2-4.1-6.6C505.7,143.6,503.2,148.2,504.1,150.7z"/>
		<path fill="#221D1D" d="M554.6,195c-0.7,3.4,3.9,8.7-3.6,9.6C550.8,200.9,549.8,196.8,554.6,195z"/>
		<path fill="#250F0F" d="M541.2,195.7c1.6,0.9,3.2,2,4.8,2.9c1.2,0.7,3,1.2,2.9,2.9c-0.2,2.1-2.1,1.2-3.6,1.4
		C543.7,200.9,541.7,198.7,541.2,195.7L541.2,195.7z"/>
		<path fill="#E2A5AC" d="M489.3,121.3c-1.8-0.4-4.6,1.1-5-2c-0.4-2.7,2.3-2,3.9-2.1C489.6,118.3,489.4,119.7,489.3,121.3z"/>
		<path fill="#FDFDFD" d="M761.3,97.1c-0.5-1.8,0.2-3.9-1.4-5.5c-0.2-2.5,0-4.5,3.6-3.4c5.4,1.6,9.8,4.3,13.6,8.2
		c5,5,10.4,9.6,17.5,13.2c-5,4.3-7.7,9.3-8,15.5c-0.4,6.1,2.1,11.2,5.5,16.1c0.5,1.2-0.2,1.8-1.2,2.3c-1.8,0.4-3.4-0.4-4.8-1.2
		c-10-8.6-17.8-18.9-22.3-31.6c0-0.9,0.2-1.8,0.5-2.5C767.8,100.8,767.8,100.8,761.3,97.1L761.3,97.1z"/>
		<path fill="#333030" d="M798.5,117.1c4.5-4.1,7.1-3.6,12.3,2.5c3.6,4.3,7,8.9,10.5,13.4c-1.4,2.7-1.4,6.2-5.2,7.1
		c-5-0.2-10,2.1-15-1.2c-3.6-2.3-6.6-5.4-8.6-8.7c-2.9-5.2,0.9-8.6,4.6-11.6c0.7,0.5,1.6,1.4,2.1,0.7
		C799.9,118.7,799,117.8,798.5,117.1L798.5,117.1z"/>
		<path fill="#FDFDFD" d="M816.1,140.4c2.3-2,2.1-5.7,5.2-7.1c4.3,4.5,6.1,10.9,12.5,13.6c2,0.9,0.9,2.7,0.4,4.1
		c-2.1,6.6-13,12.1-19.8,10.5c-1.8-0.4-2-1.2-1.8-2.7c0.4-3.4-1.4-5-4.6-5.4c-1.4-1.1-4.1,0.2-5.2-2.1c-0.2-1.2-2.1-3.4,1.2-3.2
		C809.9,148.2,813.8,145.7,816.1,140.4L816.1,140.4z"/>
		<path fill="#704E51" d="M803.8,151.1c1.4,0.7,2.7,1.6,4.1,2.3c-3.9,0-2,3-2.3,4.5c-5.4,2.1-6.6-13.9-13.9-2.9
		c-6.8-5.7-14.6-10.2-19.6-17.7c2.7-1.8,4.5,0.5,6.4,1.6c4.8,2.3,9.3,5.7,15,5.7C797.2,146.4,801,148,803.8,151.1L803.8,151.1z"/>
		<path fill="#F0DFE1" d="M803.8,151.1c-4.1-0.7-7-3.7-10.7-5.4c-1.8,0-2.9-0.9-2.9-2.9l1.8-1.8c3.6,2.9,7.7,5.2,12.1,7
		C802.6,148.9,803.8,150,803.8,151.1L803.8,151.1z"/>
		<path fill="#E5E4E4" d="M798.5,117.1c3.4,0,3.2,2.7,3.6,5c-1.6-1.4-4.8-0.2-5-3.6C797.6,118.1,798.1,117.6,798.5,117.1z"/>
		<path fill="#402F31" d="M790.2,142.9c0.9,0.9,2,1.8,2.9,2.9c-6.8,0.9-11.4-3.9-17.1-6.2c-1.4-0.5-2.7-1.4-3.9-2
		c-4.3-4.5-7.9-9.3-10.4-14.6c0.5-0.4,1.1-0.5,1.8-0.5c6.8,5.9,12.3,13,20.3,17.3c1.1,0.5,2.1,1.6,3.4,1.8
		C788.1,141.8,789.2,142.3,790.2,142.9z"/>
		<path fill="#3B2C2D" d="M762.8,122.4c-0.4,0-0.7,0-1.1,0.2c-1.1-2.1-2.1-4.5-3.2-6.6c0-3.9,1.6-7.1,5.2-9.3
		c1.1,0.5,1.1,1.4,0.9,2.3C760.8,113.1,763.7,118,762.8,122.4L762.8,122.4z"/>
		<path fill="#F9F6F6" d="M525.3,111.9c-2.1,1.1-3-0.5-4.1-1.8c-4.8-5.4-9.6-10.9-15.5-15c-0.9-0.5-1.1-1.4-0.2-2.1
		C516.4,94.8,521.7,102.4,525.3,111.9z"/>
		<path fill="#FADDDF" d="M763.7,109.2c0-0.9-0.2-1.6-0.2-2.5c-0.7-2.3-0.5-5-2.1-7.1c0-0.9,0-1.6,0.2-2.5c2.5,0.4,5.7-0.9,7.1,2.1
		c1.6,3.2,0.2,5.9-2.1,8.4c-0.7,0.7-0.9,2-1.2,3C763.8,111,763.5,110.5,763.7,109.2z"/>
		<path fill="#A2A2A2" d="M110.3,429.4c1.6,9.8,2.5,19.8,5.9,29.3c0,0.2,0.2,0.4,0.2,0.5c0.9,4.1-7,9.6-17.3,12.5
		c-4.5,1.2-4.8-2.1-5.5-4.8c-2-6.6-3.9-13.2-5.7-19.8c-1.1-4.3-0.2-7,4.6-8.6C98.8,436.4,104.7,433.1,110.3,429.4z"/>
		<path fill="#A3A3A3" d="M239,493.6c0,0.4-0.2,0.9-0.2,1.2c-7.7,3.7-15.5,7.5-23.9,10c-3.7,1.1-6.1,1.1-7.7-3.2
		c-2.3-6.1-5.5-11.6-8.4-17.5c1.8-2.1,4.5-2.7,7-3.4c6.6-1.8,13-4.3,18.4-8.9c3.2-2.9,6.2-2.3,7.9,1.6
		C234.9,480.1,240.1,485.8,239,493.6L239,493.6z"/>
		<path fill="#CBCBCB" d="M239,493.6c-2.1-6.8-5.4-13.2-8.4-19.5c-1.4-2.9-2.7-3.7-5.4-1.1c-7.3,7.1-17,9.1-26.6,11.2
		c-5-9.8-3.2-17.8,5.2-23.2c7.3-4.6,15.3-2.7,22,5.5c1.8,2.1,2.9,2.3,5.4,0.5c6.2-4.5,12.8-3.4,17.7,2.3c3.6,4.3,2.9,11.2-1.8,16.4
		C244.8,488.6,241.9,491.1,239,493.6L239,493.6z"/>
		<path fill="#838383" d="M41,221.9c-1.8,4.8-3.7,7.9-7.7,8.9c-0.4,0-1.4-0.9-1.2-1.1C33.4,226,36,223.9,41,221.9L41,221.9z"/>
		<path fill="#0D0D0D" d="M763.7,109.2c0.5,0.4,0.9,0.9,1.4,1.2c4.8,12.1,12.8,21.8,22,30.7c-11.2-2.3-17.7-10.7-24.4-18.7
		C761.3,118,757.6,113.3,763.7,109.2z"/>
</g>
	<path id="svg-6-blood-spot" fill="#FD0000" d="M785.2,548.4c1.6-0.2,2.1,3,4.3,1.4c1.2-2.3,2.9-3.9,5-5.2c2.9-2.1,4.5-5,5.2-9.3
	c2.5,2.9,0,5.5,2,7.5c2.5-2,3.2-4.6,3.4-7.7c0-1.2,0.9-2.7,2.5-2c0.5,0.2,0.4,2,0.4,3c0.7,0.7,1.1,1.6,0.9,2.7
	c-0.4,2.7-2.5,4.3-3.9,6.2c-1.8,2.1-0.4,3.7,1.2,5.2c4.6,2,6.4-2.9,9.8-3.7c0.9-0.2,1.8,0,2.7,0.7c2.7-0.9,5.4-1.8,7.9-2.5
	c2.5,1.1,5.2-4.1,7.5,0.4c0.2,4.1-3.6,5.2-5.7,7.3c-1.8,1.8-3.6,3.7-5.2,5.7c-0.5,0.5-1.4,0.9-2.1,1.2c-0.2,0.2-1.2-0.4-0.7,0.5
	c0,0.2,0.7,0,1.2,0c0.5,0.2,1.1,0.4,1.4,0.7c5.4,1.2,7.5-3,10.5-5.9c9.5-0.7,17.8-4.1,25.7-8.9c2.3-1.4,4.3-3.2,7-3.4
	c0.7,0,1.2,0.4,1.8,0.9c-4.8,6.6-12.7,9.5-18.6,15c-0.9,0.7-0.9,2-1.4,3v0.9c0.2,1.4-2.5,1.8-1.4,3.2c0.9,1.2,2.5,1.4,4.1,0.4
	c6.1-4.3,13.2-6.2,19.6-9.6c3.2-1.6,5.7-1.6,8.6-0.4c0.7,0.9,3.4-0.4,2.7,2.3c-9.8,7-18.7,15.7-31.8,16.2c-2.5,0.2-3.4,2.7-5.2,3.7
	c-1.1-0.4-2.1,0-3-0.9c-6.8,1.1-13.7-0.7-20.2,2.5c-2.9,2.7,1.6,1.6,1.4,2.9c-0.9,1.4,4.8,2.9,0,4.3c-0.5,0.2-1.2,0-1.8,0.2
	c-0.5,0.4-1.6-0.4-1.8,0.7c0.7,0,1.2,0.2,1.8,0.4c3.6,1.2,6.2,3.4,5.2,7.5c-0.7,2.7,0.4,4.5,2.1,5.5c2.5,1.4,3,4.6,2.3,5.7
	c-2.9,4.1,1.2,5,3.2,7.7c-2.7,0.9-4.8,1.6-7,2.3c-5.2-1.6-4.6,4.8-8,5.5c-1.4,1.2-1.8,3.4-3.9,4.1c-0.7,1.4-1.4,2.9-2.9,3.9
	c-1.8,2.5,0,5.7-2.5,8.2c-2.3,2.5-4.1,5.9-2.7,9.5c1.6,3.7,5.2-0.9,7.5,1.1c-2.3,4.3-7,2.7-10.2,4.1c-0.9,0.4-1.2,1.4-2.1,2
	c-2.1,0.9-3.7-0.2-5-1.8c-5,0.4-9.1,5.2-8,9.3c0.2,3.4-1.8,3.4-4.1,2.1c-1.8-0.9-3-2.5-4.8-3.4c-1.8-2-2.9-2.9-4.5,0.7
	c-2.7,6.1-5,6.4-9.5,3c-3.4-0.7-4.5-5.9-8.7-4.8c-3.7,0.9-7.7,1.4-10.4,4.8c-3.2,2.1-4.3,0.4-4.6-2.5c-0.4-2.1,0.7-5-2.3-6.1
	c-0.9,0.4-1.1,1.1-1.2,1.8c-0.9,1.1,0.2,2.5-0.5,3.7c-1.1,1.2-2.3,1.8-3.9,1.6c-1.2-0.2-2.3-0.7-3.2-1.6c-0.9-1.2-2.9-0.9-3.4-2.5
	c-4.1-1.4-5.7,0.4-5.7,4.5c-2,6.4-3.4,6.8-7.7,2.3c0.5-2.5-0.5-3.2-2.9-2.7c-1.6-1.8,0-3.2,0.4-4.6c0-0.4,0.2-0.9,0.5-1.2
	c-0.4,0.2-0.5,0.7-0.5,1.1c-0.5,1.6-1.4,2.9-2.9,3.7c-2.5-0.7-2.7,2.7-5.4,2.5c2.3-3.2-1.6-4.8-1.4-7.7c-3.7,1.2-3,3.7-2.7,6.1
	c0.4,2.1,0.7,4.1-2.7,3.4c-2,0.7-4.1-0.2-6.1,0.9c-2.3,1.2-3.4,3.7-5,5.5c-0.4,0.4-0.9,0.7-1.2,1.1c-2.7-0.4-5.4-0.7-8-1.2
	c-0.7-1.6,0.7-2,1.4-2.9c1.8-4.1,5.9-7,6.4-11.6c-0.4-0.9-0.5-1.8-0.5-2.7c0.4-1.6,1.4-3.4-1.2-3.9c-0.7-0.5-1.4-1.1-0.7-2.1
	c0-0.4,0.2-0.7,0.4-1.1c0.9-2.3,0.4-3.9-2.5-3.9c-2,0-3.4-0.4-3-2.9h-0.2c0.7-0.7,1.4-1.6,1.2-2.7c1.1-1.1,2.1-2,3.6-3.4
	c-2-0.5-3.9-0.7-5-1.6c-2.1-2,0.7-1.4,1.4-2c1.8-1.1,1.4-2.1,0-3.2c-0.4-0.2-0.7-0.4-1.1-0.5c3-3,3.4-8,8.4-10
	c2.3-0.9-1.1-1.6-1.6-2.7c-1.1-0.7,0.5-3-1.8-3c-0.5-1.2-0.2-2.3,0.2-3.4c1.1-4.5-1.2-7.1-4.6-9.5c-1.8-1.2-3.9-2.1-3.9-4.8
	c1.8-3.6,7-0.7,8.6-4.6c-0.9-0.9-2.5,0-3.4-1.1c-0.7-1.1-1.4-2.1-0.7-3.4c2.1-2.1,5.4-2.7,7.3-5c2.1-1.4,4.8-2.1,5-5.4
	c-0.5,2.3-2,3.6-3.9,4.5c-2.7-0.2-5.2,0.5-7.9,0.7c-2.7-2.1-0.7-3.7,0.2-5.2c-0.4,0.4,0.7-0.5,0.4-0.2c-2.7,2.5-5.5,6.2-5.9-1.4
	c0.2-2.5,1.1-4.5,3.4-5.5c0.2-2.1,1.1-3.7,2.1-5.7c2.7-4.5,3.4-9.5,3.2-14.6v0.2c1.1,0.4,1.2-0.5,1.4-1.1c0.9-1.2,2.1-0.9,3.4-0.7
	c1.8,3.4,1.2,7.3,2,10.9c0.2,0.5-1.1,0.2-0.7,0.9c0.2-0.4,0.4-0.7,0.7-0.9c0.5-1.1,1.4-1.6,2.7-1.4c2.1,0.7,3.6,2.7,5.9,3.7
	c-2-1.8-2.9-4.1-4.8-5.4c-2.1-2-3.6-4.5-5-7c-0.5-2.3-3.2-0.2-3.9-2c0-0.7,0.2-1.4,0.2-2.1c3.2-5.5,4.1-5.7,7.9-1.4
	c3,3.4,6.8,2.9,10.7-1.8c1.2-1.2,2.1-2.5,2.9-4.3c0.5-1.4,1.1-2.7,2.1-3.7c0.9-0.7,1.8-1.2,1.6-2.5c-0.5-2-0.4-3.9,0.9-5.5
	c1.8-1.4,3.7-2.5,5.9-3.4c0.5-0.2,1.1,0,1.6,0.2c3.7,2,5.2-1.8,7.5-3.2c0.2-0.2,0.5-0.4,0.7-0.4c0.4,0.2,0.5,0.2,0.9,0.4
	c0.7,1.8,0.9,3.4-0.4,5c-1.6,1.6-3.7,3-1.6,5.7c2,1.4,3.2,0.5,4.5-1.1c1.4-2.3,3-4.5,4.6-6.4c3-3.7,6.6-5.7,11.4-3.4
	c1.2-1.4,3.9-2,2.7-4.8c2.1-5.4,8.7-4.3,11.8-8.2c0.7-0.9,2-1.6,2-2.7c0.5-6.4,3.6-2.9,6.4-1.6c-1.6,1.4-3,2.9-4.5,4.1
	c-0.5,1.6-0.9,3.2-2.7,3.9c-4.3,4.3-8.2,8.7-9.1,15.5c6.1-1.2,7.1-7.7,12-9.5c1.2,0.5,2.5,1.2,3.7,1.8c2.9,2,2.3,4.5,1.6,7.1
	c0.7,6.4-4.5,7.3-8.7,8.9c-0.5,0-0.7,0.2-0.4,0.5c0-0.5,0.2-0.7,0.7-0.9c1.4-0.5,2.7-0.2,3.7,0.5c4.6,3.2,5,3.2,9.3,2
	c0.9,0,1.8,0.2,2.5,0c5-1.8,4.6,0.5,3,3.9c-0.9,1.2-2,2.1-3.2,3.2c-0.5,0.5-1.8,1.1-1.6,1.8c0.4,0.9,2,0.4,2.9,1.1
	c2,1.4,2.3,3.2,1.2,5.4c0,0.5-0.5,1.2,0.2,1.6c0.4,0.2,0.7-0.4,0.5-0.9c0.2-0.5,0.5-0.9,1.1-1.1C782,548.1,783.5,547.5,785.2,548.4
	L785.2,548.4z"/>
	<g id="svg-6-blood-points">
	<path fill="#FD0000" d="M813.3,533.8c1.1-6.6,11.8-17.3,18-18.6c3.7-0.9,3.7,1.8,5,3.7c-0.4,1.6-1.4,2.7-2.5,3.7
		c-3.7,3.2-7.7,5.9-11.4,8.9c-2.3,2.1-5,3.6-8.2,2.7C813.8,534.2,813.6,534,813.3,533.8L813.3,533.8z"/>
		<path fill="#FD0000" d="M797.2,513.6c3.6-2,7.3-3.9,11.4-6.1c-1.8,7-5.9,11.4-11.2,14.8c-2.5,1.6-5.9,4.5-8.2,1.4
		c-2.7-3.4,1.1-5.7,3.7-7.5C793.8,514.2,795.8,514.3,797.2,513.6L797.2,513.6z"/>
		<path fill="#FD0000" d="M873.4,522.9l-17.1,9.6c-1.4,0.4-3,1.1-2.9-1.6c5.5-2.9,8.4-9.1,14.8-10.9c0.9-0.2,1.4-1.1,0.9-2
		c-1.6-3.6-1.6-3.6,3.9-5.5c1.6,2.3-5.2,3.4-0.9,6.1c1.4,0.2,2.7,0.4,3.4,1.8C874.8,521.3,874.1,522.2,873.4,522.9L873.4,522.9z"/>
		<path fill="#FD0000" d="M838.8,520.2c2.9-0.7,5.7-2.3,9.5-0.4c-6.8,2.7-10.2,10.9-18.7,8.6c-0.9-3.2,2.5-3.7,3.7-5.7
		C834.9,521.7,836.5,520.2,838.8,520.2L838.8,520.2z"/>
		<path fill="#FD0000" d="M846.8,536.5c-4.5,2.5-9.5,4.5-13.4,7.9c-2.1-0.5-4.3,2.9-6.6,0.2c4.3-4.1,11.6-3.7,14.6-10
		c0.5-1.1,4.3-0.5,6.6-0.9c1.1-0.5,2.7-0.7,2.7,0.5C850.7,536.8,848.1,535.6,846.8,536.5L846.8,536.5z"/>
		<path fill="#FD0000" d="M795.8,687.6c0.5-1.8,1.1-3.6,1.6-5.4c1.8-1.2,3.9-2.7,5.7-0.5c1.4,1.8,0.7,3.7-0.7,5.4
		C800.4,689.8,798.1,690,795.8,687.6z"/>
		<path fill="#FD0000" d="M736.9,509.7c-2,1.8-5.4,2.1-4.5,6.4c0.4,1.4-1.6,3.9-3.7,4.8c-1.2-0.7-1.6-2-2.1-3h-0.4
		c-0.7-1.4,0.4-2.1,1.4-2.7c2.7-1.2,3.4-4.1,4.8-6.2C735.5,505.1,735.6,509.3,736.9,509.7z"/>
		<path fill="#FD0000" d="M674.2,574c-0.9-1.6-2-1.8-3,0H668c1.1-2.5,1.8-5.2,3.9-7c1.1-0.9,2-1.1,2.3,0.5c0.4,1.4,1.4,1.4,2.5,1.2
		C675.8,570.4,675.1,572.2,674.2,574z"/>
		<path fill="#FD0000" d="M802.6,654.3c0.5-0.5,1.1-0.9,1.6-1.4c0.9,2.7,2.3,5.2,2.3,8.2c0,2-0.9,2.1-2.3,2.3
		c0.9-3.6-5.2-1.6-4.1-5.4C800.4,656.6,801.5,655.5,802.6,654.3L802.6,654.3z"/>
		<path fill="#FD0000" d="M875.4,520.6c-1.4,0-2.7-0.4-3.4-1.8c2.5-2.9,5.5-4.1,9.3-3.9c0.9-0.5,1.6-0.4,2.1,0.4
		C880.9,517.2,878.6,519.5,875.4,520.6L875.4,520.6z"/>
		<path fill="#FD0000" d="M668.4,593.9c-0.9,0.7-1.2,1.6-0.9,2.7c-4.8-2.7-3-5.2,0.2-7.7c0.2-0.9,0.5-1.1,1.1-0.2
		C670.1,590.4,670.3,592.3,668.4,593.9L668.4,593.9z"/>
		<path fill="#FD0000" d="M815.9,658.4c0.5-1.2-0.4-3.4,1.6-3.9c0.7-0.2,1.8,0.9,2.5,1.6c1.8,2-0.4,2.5-1.6,3.2
		C817.5,659.4,816.5,659.6,815.9,658.4L815.9,658.4z"/>
		<path fill="#FD0000" d="M674.1,545.9c-2.5-3-2.3-3.4,2.7-8.7C677.1,540.4,676,543.4,674.1,545.9z"/>
		<path fill="#FD0000" d="M871.6,600.2c-3.7,1.2-5.5,1.8-7-0.2c-0.2-0.2,0.4-1.2,0.7-1.6C867.7,597.2,868.6,599.6,871.6,600.2z"/>
		<path fill="#FD0000" d="M669.8,540.6c-0.5,1.8,0.5,3.7-0.9,5.4c-3,0.4-1.8-1.8-1.8-3.2C666.9,540.6,668,540,669.8,540.6z"/>
		<path fill="#FD0000" d="M808.1,539.3v-3.2c2.1,0,2.7-3.4,5.4-2.3l-0.2-0.2C813.6,537.5,811.5,539,808.1,539.3z"/>
		<path fill="#FD0000" d="M812,630.2c-0.4-2.1,0.7-3.6,2.9-3.9C816.8,629.6,815.8,630.9,812,630.2z"/>
		<path fill="#FD0000" d="M830.9,657.1c-0.7-0.4-1.4-0.9-2.1-1.2c0.4-1.2,1.1-2.5,2.7-2c0.7,0.4,1.2,1.6,1.8,2.5
		C832.4,656.4,831.6,656.8,830.9,657.1z"/>
		<path fill="#FD0000" d="M775.8,527c-0.2-0.5-0.2-1.1-0.4-1.6c0.9-1.2,1.8-2.1,4.3-2.3C778.8,525.4,777.8,526.5,775.8,527L775.8,527
		z"/>
		<path fill="#FD0000" d="M878.8,532c-0.5,0.2-1.1,0.4-1.6,0.7c-0.7-0.2-2.1-0.2-1.8-1.4c0.4-1.2,1.8-2,3-2.3
		C878.8,530,878.8,531.1,878.8,532L878.8,532z"/>
		<path fill="#FD0000" d="M703.7,536.5c-0.5,0.7-1.1,1.6-1.6,2.3h-0.4l-0.4,0.2c-1.4,0.2-0.2-2.9-2.1-1.6c-0.7-0.4-1.4-0.7-2.1-1.2
		c2.7-2.5,2.9-7,6.4-8.9C704.6,530.2,705.3,533.4,703.7,536.5L703.7,536.5z"/>
</g>
</g>
<path id="svg-6-blood-01" fill="none" d="M545.5,203c11.7,15.1,27.7,45.2,18.1,60.8c-7.9-0.7-11.1-6.8-9.8-10.3
	c-11.1-3.9-53-76.6-39.1-83.2C520.5,167.4,545.8,193,545.5,203z"/>

<path id="svg-6-blood-01-1" fill="none" d="M582.8,387.4c11.7,15.1,11.6,53.1,2.1,68.7c-7.9-0.7-15.3,15.6-11.9,14.1
	c-30.9,13.2,2.1-111.9-0.7-140.3C571.7,323.4,594.7,371.4,582.8,387.4z"/>
	<path id="svg-6-blood-anim" fill="#FD0000"/>
</svg>
