<svg baseProfile="tiny" xmlns="http://www.w3.org/2000/svg" viewBox="0 0 1920 1080">
  <defs/>
  <path fill="#FEFEFE" d="M826.1 1081.3H693.8c-.1-4.9-4.1-7.4-6.8-10.7 3.5-6.8 5.7-13.9 2.8-21.2.5-1.7 1.3-2.6 2.7-3.1s2.2-1.5 2.6-2.8c4-11.8 8.9-23.3 12.5-35.3 3.7-12.2 4.8-24.6 3.4-37.1-1.6-14.2-4.1-28.2-3.8-42.5.1-5.8 2.3-11.4 1.4-17.3V910c3.3-.2 4.7-2.9 6.7-5.3v-5.6c-.3-2.3-1-4.5-3.3-5.6 7.6-3.9 17.2-3.3 23.4-9.6 1.4-6.3-.3-11.8-1.8-17.1-2.9-10-4.3-20.1-2.2-30.5 1.7-8.5 3.6-17.1 1.9-25.6-1.6-8.1 1-14.4 5.7-20.8 14.5 24.8 23.1 51.1 24.8 79.5.6 10.6 1.6 11.6 11.2 14.6 2.7.9 5.3-.5 7.9.2 1.1 5.5 2.8 10.6 8 13.6.1 1.2.4 2.2 1.2 3.1 7.9 8.7 11.6 19 11 30.7-.4 8.8.6 17.4 3.9 25.6 4.3 10.8 8.4 21.7 12.4 32.6 2.5 6.9 5.3 13.8 5.4 21.3 1.6 9.3 4 18.5 5.7 27.8 1.2 6.5 1 13.7 5.1 19.5 0 1.2-.1 2.5-.1 3.7-3.4-.1-4 3.7-6.8 4.5.7 5.5-2.3 9.8-2.6 14.7z"/>
  <path fill="#111112" d="M826.1 1081.3c.2-4.9 3.2-9.3 2.6-14.7 2.8-.8 3.3-4.6 6.8-4.5 1.3 1 2 2.9 4.1 2.8 3.8 1.8 7.7 3.6 11.7 5.5 4.6-3.2 10.6-1 15.2-4.1 1.7-.1 2.9-1.2 4.2-2 1.1-.2 2.1-.4 3.2-.5 1.9 5.9 2.3 11.6 2.1 17.5h-49.9zM687 1070.6c2.7 3.3 6.7 5.8 6.8 10.7H656c2.4-2.5 1-5-.2-7.3-1.6-3-1.7-5.9-.3-9 1-1.9 3-1.7 4.3-2.6 2.1 1.1 3.8 2.1 5.6 3 7.2 1.8 14.4 3.5 21.6 5.2z"/>
  <path fill="#292C44" d="M606.1 568.4c3.3-7.1 3.6-14.4 1.6-22-1.1-4.3.2-8.4 2-12.4 1.6-3.6 2.5-7.4 1.6-11.1-1.7-6.3-.3-12.4.2-18.6.1-.7-.1-1.5.3-2 5.2-8.9 3.7-18.6 3.8-27.1 3.9-10.5 9.9-18.4 17-25.5 4.1-4.2 8.4-8 14.3-9.5 8.1.5 13.3-4.1 17.7-10.4 3.6-.1 6-3.7 9.4-4.2 6.6-.9 12.3-4 17.7-7.3 5.6-3.4 11.4-6.1 17.7-7.7 3.9-1 7.8-1.9 11.6-2.8 1.8.4 3.5 1.2 5.2 1.2 6.8.3 13.1 2 19.3 4.8 4.7 2.1 9.8 4.1 15.5 2.4 3.3 2.7 7.4 3.7 11.4 5 6.6 2.2 12.7 5.5 18.2 9.8 5.8 4.5 11.6 9.1 17.4 13.6 10 7.7 19 16.2 24.9 27.7 1.7 3.3 4.5 6.1 6.5 9.3 1.1 1.7 2.5 1.7 4 1.7 4.1 6.2 5.4 13.1 5.5 20.3-3.9 3-1.5 8-3.2 11.7-5.6-1-10.4-5.7-16.3-2 5.9 1.2 11.8 2.1 16.4 7 .7 1.5.8 3.5.1 5.4-4.4.2-8-3.6-12.8-1.2 4.3 1.4 8.5 2.9 13.4 4.6-1.3 21.5 3.8 42.7 5.6 65.1-12.4 1.7-24.5 1.7-35.2 7.2-5-10.1-9.2-19.4-5.6-30.1 3.6-2.7 7.6-4.6 11.7-6.5 3.9-1.8 8.9-1.1 12.4-4.6-1.4-1.2-2.4-.8-3.6-.6-7.2 1.5-13.9 4.3-20.4 7.5.3-2.3-1.1-4.9 1.2-6.8 9.6-1.6 18.9-4.8 28.8-4.3.8 0 1.5-.8 1.2-2-10.3-1.4-20.2 1.1-30.1 3.9-1.2-.6-2.2-1.4-2.3-3 1.2-3.4 1.5-7.5 6.5-8 2.2 2.9 10.6 4.5 15.5 2.8-4.9-3.5-10.3-2.7-15.6-2.8-.2-2 1.7-3.4 1.2-5.7-.4-1-1.2-2-2.5-2.4-.5-3.4.8-5.9 3.3-8.2 2-1.8 4.3-3.5 4.9-6.5-5.9 2.8-10.7 6.7-12.4 13.1 1.4 1.8 2.8 1.5 4.1 1.6-1 5.1-5.2 8-8 11.9-.4 6.1 2.3 11.8 1.3 17.8 0 .9-.1 1.8-.1 2.7-2.4 3.4-.7 7.8-2.5 10.6.8 5 2.2 9.2 4.3 13.2 2 3.9 1.3 7.7-1.1 11.3-1.7 2.6-3.7 5-5 7.8-1.2 2.4-2.9 5.5 1.5 7 2.9 3 7.3 4.2 9.5 7.9 2.3 4.6-2.3 7.5-2.5 11.5 1.1 5.8 6.4 9.1 8.4 14.3-.3 1.8.9 3 1.6 4.4-1.9 8.7-2 17.4-.6 26.4 1.2 7.6.1 15.6 0 23.4-1.8 1-1.1 2.7-1.1 4.2l.1-.1c-3.1-.4-3.4 2.6-4.6 4.1-2.8 3.5-6.2 6.4-10.5 6.4-4.9 0-9.2 1.7-13.6 3.1-4.7 1.5-9.4 2.7-14.1 3.8-10 2.3-20.2 3.1-30.3 4.4-13.3 1.6-25.5-.3-37.1-7.2-7.8-4.6-15.3-9.9-24.8-11.1-3.9-.5-8-1.8-9.6-5.9-3.6-.8-6.9-1.6-10.1-2.3-4.6-6.4-14.1-6.7-18.2-15 .2-4.2 2.7-9 1.3-13.8-1.1-3.8-1.1-7.5-1.1-11.3 4.1 2.2 6.4 6 8 10.2 4.1.9 8.1 1.4 11.7 4-2.2.7-4 1.4-5.6 1.9-3-.8-5.6-2.4-8.2-.5.1 1.7 1.1 1.6 1.9 1.8 6.9 1.7 13.7 3.4 20.1 7 4.8 2.7 10.2 4.7 17.8 4.3-7.1-6.3-15.4-6.7-22-10.3.3-1.2 2-1.5 1.6-2.9-4.4-5.1-4.4-5.1-15-7.1-.6-3.2-2.7-6.1-4.7-8.8-1.7-1.7-4.3-1.7-5.6-3.8 1.6-4.9 5.9-8.4 6.8-13.3-.3-3.2-2.1-5.2-3.4-7.5.3-1.5.2-3.3.9-4.6 3-5.7 2.4-11.3 1.5-17.5-1-6.4-1.7-13.4 2.5-19.5 1.6-2.3 1.8-5.2 2.2-7.7.8-5.7 1-11.5-.9-17.2-2 4-1.1 8.2-1.4 12.2-.4 4.4-1 8.8-3.9 13-4.7-1.3-9.5-2.1-14.4-1.4l.2.4-.3.3c-.7-2.3-2.2-3.5-4.7-3.4-2 .1-2.5 1.3-2.3 3-2.3.9-4.6.7-6.9 0-1.1-2.8-3.2-1.8-5.1-1.2-4.5 1.4-9 1.1-13.6.1-.4-3.9 3.4-5.6 3.5-9.1-.5-.9-1.2-2-2-3.3 2.8-3.6 1.1-7.8 1.7-11.8l.5.2-.5-.2c1.8.1 3.3-.5 4.5-2.9-4.1.5-5.6-1.9-7.1-4.3zm197 132.2c-1.3.4-2.6.7-4.1 1.1-7-5.4-14.6-1.2-22.9-.1 3.5-9.9 10.9-15.2 18.7-20.3-11 1.2-17.1 9.1-23.6 15.7-1 4.1.8 6.1 3.7 7.5 7.1.7 13.9-4.6 21.8-1.4-3.8 4.5-8.6 5.9-13.3 6.8-9.2 1.7-18.5 2.6-27.9 3-5.8.3-11.6.7-17.3 1.6-5.8.9-11.4.9-17.2 0-3.7-.6-7.5-2.3-11.6-1.4.4 1.6 1.4 2 2.5 2.3 6.9 1.7 13.8 1.8 21 1.6 14.3-.4 28.5-1.9 42.7-3.1 7.3-.6 14.8-2.1 21-6.3 3.9-2.7 10.2-3.2 10.6-9.8.4-4.7 5.7-6.9 6.4-12.8-4 3.2-7.1 5.6-10.5 8.3v7.3zM750 660.7c.8-2-.9-2.9-2-3.7-5.7-4-11.8-7.2-18.5-9.1-5.7-1.6-11.5-1.3-17.3-1.3-10.2 0-20.5-.3-31.9 2 6.7-5.3 14.8-3.6 20-8.7-15.3 1.5-36.7 10.2-39.5 15.7 4.3 0 7.2-3.3 11.3-3.7 15.2-1.4 30.3-3.6 45.7-2.7 11.1.6 20.9 3.8 29.5 10.8.6.7 1.3 1.7 2.7.7zm52.7-4.2c-8.7-2.6-15.2-6.3-21.9-9.6-2.6-1.3-5.1-2.5-8.1-3.1-6.8-1.3-13.6-2.5-20.5-2.5-9.2-.1-18.3.5-27.5-1.2-3.8-.7-7.4-2.6-12-2.1 1.6 2.6 3.8 2.8 5.9 3.4 11.2 3.5 22.6 2.3 34 2.6 12.9.4 25.2 2.6 36.2 10.1 3.4 2.3 7.5 4.4 13.9 2.4zm-66.4-21.8c19.8-1.3 40 1.4 60.7-3.9-6.9-4.5-13.4-2.5-19.1-2.9-2.7.8-3.6 3.4-5.1 3.7-12.8 1-24.9-1.4-36.5 3.1zm79.8 64.8c-8 4.6-13.4 13.2-23.5 12-5 9.7-15.1 6.3-22.7 9 .9 1.9 2.1 1.6 3.1 1.7 5.9.3 11.5-1.1 17-3 8.2-2.9 15.2-8.1 22.9-12 2.6-1.3 4.6-3.4 3.2-7.7zm-33.6-37.7c-3.5-2.7-6.9-1.5-10.1-.2-6.5 2.8-12.8 3.8-19.3.3-.1 0-.5.6-.8.9 3.5 3.9 3.7 3.7 8.3 4.2 7.9.9 14.1-5.4 21.9-5.2zm-104.2-213c-6.5 3.5-8.8 9.9-11.1 16.3-1.8 4.9-1.7 4.9.1 8.8 2.3-9.3 6.1-17.4 11-25.1zM823 534.3c5.5 1.3 10.6 3.5 15.8 5.2-4.3-5-9.5-6.9-15.8-5.2zm-141.8-88.7c.9-.5 2.1-.3 1.3-2.1-.9.2-1.5.5-1.3 2.1z"/>
  <path fill="#575105" d="M673.7 357.6c-.4-2.6-.9-5.2-1.3-7.6-.9-1.5-3.1.9-3.3-3.2 1.4-7-.6-15.6.1-24.4.6-7.8 3.1-13.7 10.4-17.4 4.9-2.5 9.5-5.3 13.7-9.2 3.6-3.4 9.3-5 14.5-6.4 13.2-3.5 24.5.9 35.2 8 2.5 1.7 4.4 4.6 8.1 3.6 5.7 5.5 9.7 11.9 13.2 19.2-2.1 5 1.6 9.5 1.8 14.6-4.6 4.9-5 11.7-4.4 17.5.8 7.9-1.5 14.4-4.6 21.1-.3.6-.6 1.2-1.1 2.3-4.7 2-8.2 6-11.2 10.4-.7.2-1.5.5-2.2.7-2.9 2.1-6.8 1.8-9.9 4.2-1.2-1.3-3-.7-4.7-1.8-1.5-3.1-4.4-4.9-7.9-6.2-8.8-3.3-17.2-7.5-24.9-13 0-1.2-1-1.9-1.6-2.7.1-3.3.3-6.7.4-10 .3-8.3-3-12.1-11.8-13.6-.1.6-.3 1.3-.3 1.9-.2 5.4 4.7 8.8 5.6 13.7-2.8-.4-5.5-.4-7.9 2.1-1.6-2.6-4.4-1.9-5.9-3.8z"/>
  <path fill="#FBF8E2" d="M687 1070.6l-21.6-5.1c0-.6.1-1.1.1-1.7 2.1-1.4 1.2-3.7 1.3-5.6.6-12.9-3.9-25-6-37.4-1.7-9.9-4.3-19.8-3.1-29.7 1-8.1.9-16 1-24.1.2-13.2 0-26.5.1-39.7 0-2.4.4-4.8.8-7.3 1.1-7.1 3.7-13.7 4.7-20.8 9.3.3 18.6.1 27.8-1.7 6.7-1.3 13.4-2.8 20.1-4.2 2.3 1.2 3 3.3 3.3 5.6-4.2 2.4-5.6 6.6-6.7 10.9v1.3c-2.9 1.7 0 5.2-2.3 7.2-1.8-6.2.9-12.3.1-18.6-2 3.9-3.2 8-3.2 12.4.1 8.7.1 17.4 1 26.1 1 9.7 2.3 19.5 3.4 29.2 1.5 13.1 1.4 26-2.2 38.4-2.9 10.2-5.7 20.6-11.8 29.6 0-1.6-.2-3.2.1-4.7 2.2-10.3 3.4-20.8 2.5-31.2-1.2-12.3-1.2-24.6-1.2-36.9 0-1.1.3-2.3 0-3.4-2-6.9.6-15-4.7-20.2-2.4-7.4 3.6-12.5 3.4-18.5-2-2.7-4-4.8-6.3-6.4-1.9-.3-3.7-.5-5.8.4-3.9 4-8 8.3-9.1 14.5 2.9 2.4 5-.1 8.3-1.4-1.9 6.2-3.1 11.6-4.8 16.8-1.7 5.3 0 11.1-2.5 17.6-2.8-6.3.3-11.9-3.3-17.9-.9 6.7-1.3 11.9 0 17.1 1.5 6.5 3.9 12.7 3.5 19.7-.2 3.7.3 7.9 2.1 11 2.6 4.6 2.1 9.1 1.1 13.6-.8 3.4-1 6.6.7 9.7 2 3.6 1.9 7.5.9 11.1-1 3.8-.9 7.5-.6 11.2 1.7 1.7 2.9 3.6 5.5 4.6h9.1v4.1c-1.3.5-2.2 1.4-2.7 3.1 2.7 7.5.6 14.5-3 21.3zm-15.9-129.4c1-.7 1.7-1.6 0-1.9v1.9z"/>
  <path fill="#111112" d="M742.5 386.8c.7-.2 1.5-.5 2.2-.7-.2 2.1-.4 4.1-.7 6.2-.9 2.7-2.1 5.3-1 8.2 1.7.5 3.3 1.4 4.9.3.3-3.1-3.1-4.8-2.8-7.8 9.7 1.6 16.2 6.9 18.8 16.6.7 2.5 2.2 4.3 3.6 6.1 3.5.6 6.8 1 10.1 1.8 3.7.9 7.4 2.3 9.8 5.4 7 8.9 16.3 15.3 25.1 22.2 8.6 6.7 16.1 14.1 21.3 23.8 2.7 5.1 6.3 9.7 9.6 14.5-1.6 0-2.9 0-4-1.7-2-3.2-4.8-6-6.5-9.3-5.9-11.5-14.9-20-24.9-27.7-5.8-4.5-11.6-9.1-17.4-13.6-5.5-4.2-11.6-7.6-18.2-9.8-4-1.3-8.1-2.3-11.4-5-5.7 1.7-10.8-.3-15.5-2.4-6.2-2.8-12.5-4.5-19.3-4.8-1.7-.1-3.5-.8-5.2-1.2-3.9.9-7.8 1.8-11.6 2.8-6.3 1.6-12.1 4.3-17.7 7.7-5.5 3.3-11.1 6.4-17.7 7.3-3.4.5-5.8 4.1-9.4 4.2-4.5 6.3-9.7 10.9-17.7 10.4 3.2-3.6 8.2-4.4 11.5-7.7-1-7.1-1.2-14.1-.9-21.4 5.5-6.2 11.9-10.9 20.1-12.9 1.1.7 2 1.1 2.2 2.9.5 4.2 2.6 7.3 7.1 8.2 1.4-.6 2.5-1.3 2.9-2.6 13.6-4.8 27.4-8 42-6.8 3 .2 6.2.9 9.4-.5-.4-4.6 2.6-8.4 1.3-12.7z"/>
  <path fill="#FBF8E2" d="M623.6 601.1c2.3.7 4.6.8 6.9 0 2.3.1 4.7.3 7 .4l.3-.3-.2-.4c3.1 2.9 8.3 1.1 11.7 5.2-1.5 19.5 1.6 39.8-4 59.5-.1.4-.1.9-.2 1.3-1.5 5.7-.1 11.3 0 16.9.1 2.3 1.3 4.8-1.1 6.8-.7-1.7-1.2-3.7-2.9-4.8-.2-4.8-2.6-9-4.6-13.1-9.6-20.1-19.2-40.3-26.6-61.3-.6-1.8-1.1-4.1-3.9-3.9.9-1.4 1.8-2.8 2.7-4.3 4.9-1.9 10.2.1 14.9-2z"/>
  <path fill="#2F2F2F" d="M712.2 893.5c-6.7 1.4-13.4 2.9-20.1 4.2-9.2 1.8-18.5 2-27.8 1.7-.5-.2-.9-.3-1.4-.5v-2.2c27.8-.1 61.3-7.1 70-14.8 1.2-3.5.1-7-.7-10.4-2.9-12-5.9-24-3.2-36.5 1.5-7.1 1.6-14.2.6-21.4-1-7.4.3-14.6 4.6-21 2-3 3.6-6.3 3.9-9.9 1-15.5 7-29 15.6-41.6.9-1.3 1.1-2.4-.4-3.3.7-.7 1.6-.7 2.6-.6-.1 3.1 5.7-.6 4.8 2.4-14.5 13.4-19 29.5-20.2 46.9 14.8 25.9 25 52.8 25.7 82.8.2 8.5 3 10.7 11.6 11.8 1.1.1 2.2.2 3.4.2 21.1.3 40.6-6.2 59.7-14.2 2.3-1 4.3-2.5 5.9-5.7-4.2-23.7-7.3-48.3-10.8-72.9h2c4.2 23.3 7.9 46.6 10.9 70.1.8 5.9-2 9.2-6.7 11.7-1.4.5-3.1.4-4.3 1.5-1.1.2-2.3.3-3.3.7-15.7 6.3-31.9 10.5-48.8 11.7-.9 0-1.8 0-2.6.1-2.6-.7-5.2.7-7.9-.2-9.6-3-10.6-4.1-11.2-14.6-1.7-28.5-10.3-54.8-24.8-79.5-4.6 6.4-7.3 12.8-5.7 20.8 1.7 8.5-.2 17.2-1.9 25.6-2.1 10.4-.7 20.5 2.2 30.5 1.5 5.4 3.2 10.8 1.8 17.1-6.4 6.1-15.9 5.6-23.5 9.5z"/>
  <path fill="#242425" d="M755.8 737.1c-.9-.1-1.8-.1-2.6.6-17.9 2.1-34.9.2-50-10.9-3.9-2.9-8.5-5-13.5-6-3.5 1.5-6.9 3.5-10.8 2.9-8.2-1.2-16.6-.7-25-3.1.1-4.1-2.7-4-6.1-4.1 0 2.4-.1 4.4 0 6.4s.1 4.1.7 6c5.7 17.9.9 35.8.3 53.7-1 .2-1.7.3-2.3.4h-2.3c-.3-2.4-.6-4.9-.9-7.4.6-1.2 1.7-1 2.8-1 3.2-15.1 3.8-30.2 0-45.3-2.4-9.2-.4-17.7 5.3-25.5-3-3.9-8.4-6.4-7.7-12.5l.4-.2v-.5c2.4-1.9 1.1-4.5 1.1-6.8-.1-5.6-1.5-11.3 0-16.9.9.5 1.9 1 2.8 1.5 0 3.8 0 7.5 1.1 11.3 1.4 4.8-1.1 9.6-1.3 13.8 4.1 8.3 13.6 8.6 18.2 15 3.3.8 6.5 1.5 10.1 2.3 1.7 4.1 5.8 5.4 9.6 5.9 9.5 1.2 17 6.4 24.8 11.1 11.6 6.9 23.8 8.8 37.1 7.2 10.2-1.2 20.3-2 30.3-4.4 4.8-1.1 9.5-2.3 14.1-3.8 4.4-1.4 8.7-3.1 13.6-3.1 4.3 0 7.7-3 10.5-6.4 1.3-1.6 1.5-4.6 4.6-4.1-.2 1.8-.1 3.6 1.2 5.1 1.8 1.1 4-.7 5.5.6-1.8 7.9-2.5 15.7 1.8 22.8 2.6 4.2 4 8.5 3.5 13.3-.5 5 .8 9.8 1.5 14.6.4 3.2 2.2 5.8 4.4 8.1 1.8 1.9 3.4 4 5.1 5.8-1.3 3.1-6.7.3-6.1 5.1h-2c.1-2.5-2.5-2-3.3-2.9 1.8-7.9-3.5-13.7-4.8-20.4.2-1.6 2.1-.5 2.6-1.8.3-8.2.2-16.4-4.7-23.8-1.5-2.3-1.7-5.1-1.6-7.8 0-2.7.3-5.4-.8-7.9-1.6-.6-3 1.7-4.9-.3-1.3-1.3-3.7-.8-5.7-.2-8.9 2.6-18.1 4.4-26.3 9.3-1.1.7-2.7 1.2-3.9.9-4.7-1.1-8.8.9-13.2 1.6-4.3.5-8.6 1.9-13.2 1.8zm-104.1-23.8c10 3.3 19.6 9.2 31.1 5.8-9.8-5.7-20.5-5.5-31.1-5.8zM805.6 621c-4.3-1.5-2.6-4.6-1.5-7 1.3-2.8 3.3-5.2 5-7.8 2.4-3.6 3.2-7.4 1.1-11.3-2-4-3.5-8.1-4.3-13.2 1.8-2.9.1-7.2 2.5-10.6h2.8c-3.7 10.7.6 20 5.6 30.1 10.7-5.5 22.8-5.4 35.2-7.2-1.8-22.4-6.9-43.6-5.6-65.1-4.9-1.7-9.1-3.1-13.4-4.6 4.8-2.3 8.4 1.4 12.8 1.2.8-1.9.7-3.8-.1-5.4-4.7-4.8-10.6-5.8-16.4-7 5.9-3.6 10.6 1.1 16.3 2 1.7-3.7-.7-8.6 3.2-11.7.9 9.6-.2 19.2-.1 28.8.3 20.2 3.8 40 5.9 60 .2 2.1 1.6 4.5-1.6 5.7-1.8-.7-3.6-.7-5.4 0h-4.1c-10.6-.3-19.8 4.3-29.4 8.8-1.4 2.4-3.3 4.9-5.6 7-1.8 2.1-3.3 4.3-2.9 7.3z"/>
  <path fill="#E8E5D3" d="M837.7 871.7c1.2-1.2 2.9-1 4.3-1.5-.6 11.5 4.3 21.1 9.5 30.9 6.2 11.6 10.8 23.9 12.5 37.1 1.3 10.4 3.6 20.9 2.3 31.2-1.1 9.3-1.6 18.7-2 28-1.1 21.8-2.3 43.9 6.2 64.9.2.6.2 1.3.3 2-1.3.8-2.5 1.9-4.2 2-.1-2.9.5-5.8-.4-8.6-4.3-13.4-5.7-27.2-5-41.2v-2.6-4.1-2.7c-.9-7.7 2.1-15.2 1.3-22.9-.8-5.1 1.9-9.8 1.3-14.8V968v-2.6c.9-7.8-.5-15.5-1.6-23.1-.9-6.4-1.4-13.1-5.2-18.8v-1.3c0-1.1-.1-2.2-1.3-2.8l-2.7-8.1c-.4-.5-.9-.9-1.3-1.4v-1.3c0-1.1-.1-2.2-1.3-2.7-.2-2.1-.9-4-2.7-5.4v-1.3c-3.5-3.4-3.3-8.7-6.7-12.2-.5-4.2-1.9-8.4-1.5-12.8.1-1.2-.8-1.9-1.8-2.5z"/>
  <path fill="#242425" d="M662.8 896.6v2.2c-.4.1-.9.2-1.3.3-4-1-8.6-.5-11.7-4.2-1.4-3.8-.9-7.6.2-11.2 1-3.2 2.2-6.3 3.1-9.6 1.5-5.9 1.2-11.6-3.2-16.4-5.2-5.7-7.5-12.5-7.7-20.2-.1-5.6-1.5-11.1-3.4-16.4-.7-1.8-1.9-3.6-1.2-5.8h2.4c4.2-1.5 7.7-4.2 11.3-6.8 6-4.4 6.8-10.7 2.5-17.9-1.8 1.9-3.8 2.7-5.7.1v-2c2.6-.4 5-1.9 7.7-1.4 5.7 6.6 4.5 18.3-2.2 23-4.2 2.9-8.3 5.9-12.8 9.1 3.4 5.1 3.7 10.8 3.9 16.4.3 8 2.8 14.9 7.8 21 4.4 5.3 4.8 11.4 3.3 17.8-.8 3-2 5.9-2.9 8.9-1 3.2-1.9 6.5-.1 9.7 2.8 2.7 6.5 2.7 10 3.4z"/>
  <path fill="#E8E5D3" d="M661.4 899.2c.4-.1.9-.2 1.3-.3.5.2.9.3 1.4.5-.9 7.1-3.6 13.7-4.7 20.8-.4 2.4-.7 4.8-.8 7.3 0 13.2.1 26.5-.1 39.7-.1 8 0 16-1 24.1-1.2 9.9 1.4 19.8 3.1 29.7 2.2 12.4 6.6 24.5 6 37.4-.1 1.9.8 4.1-1.3 5.6.3-7.7-1.9-15-3.9-22.2-3.1-11.2-4.8-22.5-5.7-34.1-.4-5.5-1.8-11-1.2-16.6 2.5-21 .5-42 1.4-63 .3-7.3 1.8-14.5 4-21.5 1-2.6 1.9-4.9 1.5-7.4z"/>
  <path fill="#FBF8E4" d="M851.8 607.5c3.8.1 7.2-2.7 12.6-.3 1.9 2.2 4.9 5.5 8.8 9.9.3 1.2 1 4 1.6 6.5-.3 2.4-1.3 4.1-2.4 5.7-2.7 2-5.5 3.1-9.1 2.1-3.6-3.6-7.4-7.3-11.4-11.3v-11.3c-.1-.4-.1-.8-.1-1.3z"/>
  <path fill="#575105" d="M689.7 406.6c-.5 1.4-1.6 2.1-2.9 2.6-4.5-.9-6.6-4-7.1-8.2-.2-1.7-1.1-2.2-2.2-2.9 0-1.4-2.9-2.7-.1-4.2.9-.2 1.6 1.7 2.7.4-.1-1.7-1.7-1.9-2.6-2.8 0-.5-.1-1-.1-1.5.3-.2.5-.4.8-.6l-.9-.3c-.2-.9-.4-1.9-.6-2.8 1.3-.9 2.5-1.7 3.8-2.6 1.2-.9 2.5-1.8 4.3-3.1-.2 3.4 3.6 1.9 4.6 4.9.2 1.7.5 4 .8 6.4 3.2-.6 5.4-3.3 9.1-2.8-1.4 4.6-4.6 7.5-6.9 11-1.4 1.9-3.1 3.8-2.7 6.5z"/>
  <path fill="#D3D1C2" d="M606.1 607.5c2.8-.2 3.2 2.2 3.9 3.9 7.5 21 17.1 41.2 26.6 61.3 2 4.2 4.4 8.3 4.6 13.1-3.5-1.5-4.3-5.3-5.6-8.1-7.1-15.2-14.8-30.1-20.6-45.9-2.4-6.7-6.4-12.8-8.1-19.8-.4-1.5-.9-2.9-.8-4.5z"/>
  <path fill="#BEBBAB" d="M843.7 598.1h4.1c-2.3 7.2-4.6 14.3-7 21.5-4.4 6.3-6.6 13.6-9.3 20.7-1.9 5-3.7 10.1-5.4 15.1-.6 1.8-1.4 3.3-3.5 3.7-.7-1.4-1.9-2.7-1.6-4.4 4-1.1 4.1-4.8 5.1-7.7 3.6-10.8 7.5-21.4 12.9-31.5 2.8-5.5 4.6-11.2 4.7-17.4z"/>
  <path fill="#A1A09C" d="M680.5 383.7c-1.3.9-2.5 1.7-3.8 2.6-1.7-9.5-3.6-18.9-3-28.6 1.5 1.8 4.3 1.2 5.8 3.6 2.4-2.4 5.1-2.5 7.9-2.1 1.6 1.2 1.1 2.6.4 4-1.1 2.5-1.2 4.9-.3 7.2 1.6 1.1 2.8.6 4 .1-1.7 3.4-4.2 2.1-6.4 1.5-1.5-3 .5-6.2-1.7-8.7-3.2-.6-4.1 2.1-5.8 3.8.4 5.6-.6 11.5 2.9 16.6z"/>
  <path fill="#2F2F2F" d="M623.6 601.1c-4.7 2-10.1 0-14.8 2.1h-6.3c-1.5-4.5 1.8-7.7 2.6-11.9-4.6-2.3 2.6-6.6-1.6-9.1 1.4-2.7 2.6-4.8 4.7-6.3-.5 4 1.2 8.2-1.7 11.8.8 1.3 1.4 2.4 2 3.3-.1 3.5-4 5.2-3.5 9.1 4.6 1 9 1.3 13.6-.1 1.8-.6 3.9-1.6 5 1.1z"/>
  <path fill="#FBF8E2" d="M840.8 619.5c2.3-7.2 4.6-14.3 7-21.5 1.8-.7 3.6-.7 5.4 0-.1 3.2.6 6.5-1.4 9.4v1.3c-2.4.8-2.7 3.2-3.9 5-1.7 2.8-3.2 5.8-7.1 5.8z"/>
  <path fill="#2F2F2F" d="M648 788.8v2c-.6.2-1.7.4-1.7.7-1.5 8.1-6 15.5-6.3 23.9h-2.4c-.9-3.7.4-7.1 1.8-10.4 3.1-7 5-14.3 5-22.1h2.3c.4 2-1.5 4.5 1.3 5.9zM606.1 568.4c1.5 2.4 3 4.8 6.6 4.7-1.3 2.3-2.7 3-4.5 2.9.2-.6.4-1.3.7-2-1.4-2.1-4.3-.7-5.9-2.3.1-2 2.4-2 3.1-3.3z"/>
  <path fill="#D3D1C2" d="M644.1 690.6v.5l-.4.2c-3.6-.5-2.3-3.4-2.5-5.4 1.8 1 2.2 2.9 2.9 4.7z"/>
  <path fill="#242425" d="M820.8 713c0-1.5-.6-3.2 1.1-4.2.5.6 1.1 1.2 1.6 1.8-.4 1.4-1.7 1.7-2.7 2.4z"/>
  <path fill="#A1A09C" d="M677.6 391.5c.9.9 2.5 1.1 2.6 2.8-1.1 1.2-1.8-.6-2.7-.4 0-.8 0-1.6.1-2.4zM677.3 389.1l.9.3c-.3.2-.5.4-.8.6-.3-.3-.3-.6-.1-.9z"/>
  <path fill="#E8E5D3" d="M839.7 1065c-2.1.1-2.8-1.8-4.1-2.8 0-1.2.1-2.5.1-3.7 1.4-.8 1.2-2.2 1.3-3.6.8-14.7-4.3-28.1-9.1-41.5-.5-1.4-1.5-2.2-3-2.2-.1-7.5-2.9-14.4-5.4-21.3-4-10.9-8.1-21.8-12.4-32.6-3.3-8.3-4.4-16.8-3.9-25.6.6-11.8-3.1-22-11-30.7-.8-.9-1.2-1.9-1.2-3.1l.1-.1c3.2.1 4.7 2.5 6.2 4.6 8.4 11.3 10.7 23.8 7.2 37.6 5.1 22.1 15.5 42.5 22.9 63.9 6.9 19.8 13.8 39.5 12.3 61.1z"/>
  <path fill="#F6F3E0" d="M693.8 1035.4c6-9 8.8-19.5 11.8-29.6 3.6-12.5 3.7-25.3 2.2-38.4-1.1-9.7-2.4-19.4-3.4-29.2-.9-8.7-1-17.4-1-26.1 0-4.3 1.2-8.4 3.2-12.4.8 6.3-1.8 12.4-.1 18.6 2.2-2-.6-5.5 2.3-7.2.9 5.9-1.3 11.5-1.4 17.3-.3 14.3 2.2 28.4 3.8 42.5 1.4 12.4.3 24.9-3.4 37.1-3.6 12-8.6 23.4-12.5 35.3-.5 1.4-1.3 2.3-2.6 2.8v-4.1c-.7-2.3 1.1-4.2 1.1-6.6z"/>
  <path fill="#FBF8E4" d="M824.9 1011.1c1.5.1 2.5.8 3 2.2 4.8 13.5 9.9 26.8 9.1 41.5-.1 1.3.1 2.7-1.3 3.6-4.1-5.8-4-13-5.1-19.5-1.7-9.3-4.2-18.5-5.7-27.8z"/>
  <path fill="#E8E5D3" d="M783 884.2c.9 0 1.8 0 2.6-.1-.5 2.7 1.3 4.5 2.5 6.5 1.3 2.2 3.7 4 3 7.1l-.1.1c-5.2-3-6.9-8.2-8-13.6z"/>
  <path fill="#F6F3E0" d="M708.7 910c1.1-4.3 2.5-8.5 6.7-10.9v5.6c-2 2.4-3.4 5.1-6.7 5.3z"/>
  <path fill="#FBF8E2" d="M791.1 897.7c.7-3.1-1.7-4.9-3-7.1-1.2-2.1-3-3.8-2.5-6.5 16.9-1.2 33.1-5.3 48.8-11.7 1-.4 2.2-.5 3.3-.7 1 .5 1.9 1.3 1.8 2.5-.4 4.4 1 8.5 1.5 12.8h-8.2c-2.4 1.6-4 3.1-5.1 5.2-.2 2.2-.5 4.4.5 7.1 7.7 6.3 12.2 14.8 13.2 25 .9 8.8 1.5 17.7 2.3 26.6.3 3.1.2 6.2.6 9.3 1.3 9.2 3.3 18.4 3.5 27.7.1 5-2.1 9.6-1.6 14.4-1.7 1.9-3.2 3.5-5 5.5-.9 8.8-5.3 18.4 3.1 26.2 3.2.1 5.6.4 8.2-.2 3.1-2.2 4.6-5.2 4.8-9.1.2-3.1-.3-6.9 4-8.2-.6 14 .7 27.8 5 41.2.9 2.8.3 5.7.4 8.6-4.7 3.1-10.6 1-15.2 4.1-4.1-1.9-7.9-3.7-11.7-5.5 1.6-21.5-5.4-41.2-12.2-61.1-7.4-21.4-17.8-41.8-22.9-63.9 3.5-13.8 1.2-26.3-7.2-37.6-1.8-2.1-3.3-4.5-6.4-4.6zM843.7 598.1c-.1 6.1-1.8 11.9-4.7 17.2-5.4 10.1-9.3 20.7-12.9 31.5-1 2.9-1.1 6.7-5.1 7.7-2-5.2-7.4-8.5-8.4-14.3.2-3.9 4.8-6.9 2.5-11.5-2.2-3.6-6.6-4.9-9.5-7.9-.4-3 1.1-5.1 3.1-7.1 2.3-2.2 4.1-4.6 5.6-7 9.5-4.3 18.7-8.9 29.4-8.6z"/>
  <path fill="#090C3B" d="M807.2 697.9c-.4 6.6-6.7 7.2-10.6 9.8-6.1 4.2-13.7 5.7-21 6.3-14.2 1.2-28.4 2.6-42.7 3.1-7.1.2-14.1.1-21-1.6-1.1-.3-2.1-.7-2.5-2.3 4-.9 7.9.8 11.6 1.4 5.8.9 11.4.9 17.2 0 5.7-.9 11.5-1.3 17.3-1.6 9.4-.4 18.7-1.3 27.9-3 4.7-.9 9.5-2.2 13.3-6.8-7.9-3.2-14.7 2.1-21.8 1.4-2.9-1.4-4.7-3.4-3.7-7.5 6.5-6.6 12.6-14.5 23.6-15.7-7.8 5.1-15.2 10.4-18.7 20.3 8.3-1.1 15.9-5.3 22.9.1 1.6-.4 2.9-.8 4.1-1.1 1.4-1 2.7-1.9 4.1-2.8z"/>
  <path fill="#14161D" d="M645.3 665.6c5.7-19.7 2.6-40 4-59.5-3.4-4.1-8.5-2.2-11.7-5.2 4.9-.6 9.7.2 14.4 1.4 3-4.2 3.6-8.6 3.9-13 .3-4.1-.6-8.3 1.4-12.2 1.8 5.7 1.7 11.5.9 17.2-.4 2.5-.6 5.4-2.2 7.7-4.2 6-3.4 13.1-2.5 19.5.9 6.2 1.5 11.8-1.5 17.5-.7 1.3-.6 3-.9 4.6 1.3 2.3 3.1 4.3 3.4 7.5-.9 4.9-5.2 8.4-6.8 13.3-.6.3-1.5.7-2.4 1.2z"/>
  <path fill="#090C3B" d="M750 660.7c-1.3 1-2.1-.1-2.9-.7-8.6-7-18.4-10.2-29.5-10.8-15.4-.9-30.5 1.3-45.7 2.7-4.1.4-7 3.7-11.3 3.7 2.8-5.5 24.2-14.2 39.5-15.7-5.1 5.1-13.3 3.4-20 8.7 11.4-2.3 21.7-2 31.9-2 5.8 0 11.6-.3 17.3 1.3 6.8 1.9 12.9 5 18.5 9.1 1.3.9 2.9 1.7 2.2 3.7zM645.3 665.6c.9-.4 1.7-.9 2.6-1.3 1.3 2 3.9 2.1 5.6 3.8 2 2.7 4.1 5.6 4.7 8.8 10.6 2 10.6 2 15 7.1.4 1.4-1.2 1.7-1.6 2.9 6.6 3.6 14.9 4 22 10.3-7.5.4-12.9-1.6-17.8-4.3-6.3-3.6-13.2-5.3-20.1-7-.8-.2-1.8-.1-1.9-1.8 2.6-2 5.2-.4 8.2.5 1.6-.5 3.4-1.2 5.6-1.9-3.6-2.6-7.6-3.1-11.7-4-1.6-4.3-3.9-8-8-10.2-.9-.5-1.9-1-2.8-1.5.1-.6.2-1 .2-1.4zM802.7 656.5c-6.3 2-10.5-.1-13.9-2.4-11-7.5-23.4-9.7-36.2-10.1-11.4-.3-22.8.9-34-2.6-2.1-.7-4.3-.8-5.9-3.4 4.6-.5 8.3 1.4 12 2.1 9.1 1.7 18.3 1.1 27.5 1.2 7 .1 13.7 1.2 20.5 2.5 3 .6 5.5 1.9 8.1 3.1 6.6 3.3 13.1 7 21.9 9.6zM736.3 634.7c11.6-4.5 23.7-2.1 36.5-3.2 1.4-.3 2.4-2.8 5.1-3.7 5.7.4 12.3-1.5 19.1 2.9-20.7 5.4-40.9 2.6-60.7 4zM816.1 699.5c1.5 4.3-.5 6.4-3.2 7.8-7.7 3.9-14.7 9.1-22.9 12-5.4 1.9-11.1 3.2-17 3-1 0-2.3.2-3.1-1.7 7.7-2.7 17.8.7 22.7-9 10.1 1.1 15.4-7.4 23.5-12.1z"/>
  <path fill="#101115" d="M815.4 538.6c1.3.4 2.1 1.4 2.5 2.4.5 2.2-1.4 3.7-1.2 5.7-4.9.5-5.2 4.6-6.5 8 .1 1.6 1.1 2.4 2.3 3v2.5c-2.3 1.9-.9 4.5-1.2 6.8-.5 1.2-1.6 1.4-2.8 1.4 1-6-1.7-11.8-1.3-17.8 2.9-3.9 7.2-6.9 8.2-12z"/>
  <path fill="#090C3B" d="M782.5 661.8c-7.8-.3-14 6-21.9 5.2-4.5-.5-4.8-.3-8.3-4.2.3-.3.7-.9.8-.9 6.5 3.5 12.8 2.5 19.3-.3 3.1-1.3 6.6-2.5 10.1.2zM812.6 560.1v-2.5c9.8-2.8 19.7-5.3 30.1-3.9.3 1.2-.4 2.1-1.2 2-10-.4-19.4 2.8-28.9 4.4zM808.6 568.4c1.2 0 2.2-.2 2.8-1.4 6.5-3.3 13.3-6 20.4-7.5 1.1-.2 2.1-.6 3.6.6-3.5 3.5-8.5 2.7-12.4 4.6-4 1.9-8.1 3.7-11.7 6.5h-2.8c.1-1 .1-1.9.1-2.8zM678.3 448.8c-4.9 7.7-8.7 15.8-11 25.1-1.8-3.9-1.9-4-.1-8.8 2.3-6.4 4.6-12.7 11.1-16.3z"/>
  <path fill="#101115" d="M807.2 697.9c-1.4.9-2.7 1.8-4.1 2.7v-7.2c3.4-2.7 6.5-5.1 10.5-8.3-.7 5.9-6 8.1-6.4 12.8z"/>
  <path fill="#111112" d="M815.3 538.7c-1.3-.1-2.7.2-4.1-1.6 1.7-6.4 6.5-10.3 12.4-13.1-.6 3-2.9 4.7-4.9 6.5-2.5 2.2-3.9 4.7-3.4 8.2z"/>
  <path fill="#090C3B" d="M823 534.3c6.3-1.7 11.6.2 15.8 5.2-5.3-1.7-10.4-3.9-15.8-5.2zM816.7 546.7c5.3 0 10.7-.7 15.6 2.8-5.1 1.7-13.4.1-15.6-2.8z"/>
  <path fill="#14161D" d="M637.5 601.6c-2.3-.1-4.7-.3-7-.4-.1-1.7.4-2.9 2.3-3 2.5-.2 4 1.1 4.7 3.4z"/>
  <path fill="#090C3B" d="M681.2 445.6c-.2-1.6.4-1.9 1.3-2.1.8 1.7-.4 1.5-1.3 2.1z"/>
  <path fill="#F6F3E0" d="M680.5 383.7c-3.5-5.1-2.4-11-2.9-16.6 1.7-1.7 2.6-4.4 5.8-3.8 2.2 2.5.2 5.7 1.7 8.7 2.1.6 4.6 1.9 6.4-1.5l.3-.5c1.1 0 2.3-.1 3.4-.1 7.7 5.5 16 9.7 24.9 13 3.5 1.3 6.4 3.1 7.9 6.2 1.7 1.1 3.5.5 4.7 1.8 3-2.4 6.9-2.1 9.9-4.2 1.2 4.4-1.7 8.2-1.4 12.4-3.3 1.5-6.5.8-9.4.5-14.6-1.2-28.4 2-42 6.8-.4-2.7 1.2-4.5 2.6-6.6 2.3-3.5 5.5-6.4 6.9-11-3.6-.4-5.9 2.2-9.1 2.8-.3-2.3-.6-4.7-.8-6.4-1-3-4.8-1.4-4.6-4.9-1.9 1.6-3.1 2.5-4.3 3.4z"/>
  <path fill="#E8E5D3" d="M691.8 369.9l-.3.5c-1.2.6-2.4 1-4-.1-.9-2.3-.8-4.8.3-7.2.7-1.5 1.2-2.8-.4-4-.9-5-5.8-8.3-5.6-13.7 0-.6.2-1.3.3-1.9 8.9 1.5 12.2 5.3 11.8 13.6-.1 3.3-.2 6.7-.4 10-1 .6-1.1 1.9-1.7 2.8z"/>
  <path fill="#A1A09C" d="M691.8 369.9c.6-.9.6-2.2 1.8-2.8.6.8 1.6 1.5 1.6 2.7-1.1.1-2.3.1-3.4.1z"/>
  <path fill="#FBF4CD" d="M693.8 1035.4c0 2.3-1.9 4.3-1.4 6.7h-9.1c-2.5-1-3.8-2.9-5.5-4.6-.3-3.7-.4-7.4.6-11.2 1-3.6 1.1-7.5-.9-11.1-1.8-3.1-1.5-6.3-.7-9.7 1-4.5 1.5-8.9-1.1-13.6-1.8-3.1-2.3-7.3-2.1-11 .4-6.9-2-13.2-3.5-19.7-1.2-5.2-.9-10.4 0-17.1 3.7 6 .5 11.6 3.3 17.9 2.4-6.5.8-12.3 2.5-17.6 1.6-5.2 2.8-10.6 4.8-16.8-3.3 1.3-5.4 3.8-8.3 1.4 1.1-6.2 5.3-10.5 9.1-14.5 2.1-.9 3.9-.7 5.8-.4 2.4 1.6 4.4 3.7 6.3 6.4.1 6-5.9 11.1-3.4 18.5 5.4 5.2 2.8 13.3 4.7 20.2.3 1 0 2.2 0 3.4.1 12.3 0 24.6 1.2 36.9 1 10.4-.2 20.9-2.5 31.2 0 1.5.3 3.2.2 4.7z"/>
  <path fill="#FBF4CD" d="M671.1 941.2v-1.9c1.8.4 1 1.3 0 1.9z"/>
  <path fill="#FEFEFE" d="M745.2 392.9c-.2 3 3.1 4.7 2.8 7.8-1.7 1.1-3.2.1-4.9-.3-1-2.9.1-5.5 1-8.2.4.1.8.4 1.1.7z"/>
  <path fill="#FDFDFD" d="M648 788.8c-2.8-1.4-.8-3.9-1.4-5.8.7-.1 1.3-.2 2.3-.4.6-17.9 5.4-35.8-.3-53.7-.6-1.9-.6-4-.7-6-.1-2 0-4 0-6.4 3.4 0 6.2 0 6.1 4.1 8.4 2.4 16.8 1.9 25 3.1 4 .6 7.4-1.3 10.8-2.9 5 1.1 9.5 3.2 13.5 6 15.1 11.1 32.1 12.9 50 10.9 1.5.9 1.3 2 .4 3.3-8.7 12.5-14.7 26.1-15.6 41.6-.2 3.6-1.8 7-3.9 9.9-4.4 6.4-5.7 13.6-4.6 21 1 7.2.9 14.3-.6 21.4-2.7 12.5.3 24.5 3.2 36.5.8 3.5 1.9 6.9.7 10.4-8.7 7.6-42.3 14.7-70 14.8-3.5-.6-7.2-.7-10.1-3.3-1.8-3.2-.9-6.5.1-9.7.9-3 2.1-5.9 2.9-8.9 1.6-6.4 1.2-12.5-3.3-17.8-5.1-6.1-7.6-13-7.8-21-.2-5.5-.5-11.2-3.9-16.4 4.5-3.2 8.6-6.2 12.8-9.1 6.7-4.7 7.9-16.5 2.2-23-2.8-.6-5.2 1-7.8 1.4z"/>
  <path fill="#FDFDFD" d="M755.8 737.1c4.5.2 8.9-1.3 13.3-1.9 4.4-.6 8.6-2.7 13.2-1.6 1.2.3 2.8-.2 3.9-.9 8.2-4.8 17.4-6.6 26.3-9.3 2.1-.6 4.5-1.1 5.7.2 1.9 2 3.3-.4 4.9.3 1.1 2.6.9 5.3.8 7.9 0 2.7.1 5.6 1.6 7.8 4.9 7.4 4.9 15.6 4.7 23.8-.5 1.3-2.4.2-2.6 1.8 1.3 6.7 6.6 12.5 4.8 20.4.8.8 3.4.4 3.3 2.9 3.4 24.6 6.5 49.2 10.8 72.9-1.6 3.2-3.6 4.7-5.9 5.7-19.1 8-38.6 14.5-59.7 14.2-1.1 0-2.2 0-3.4-.2-8.6-1.1-11.4-3.3-11.6-11.8-.7-30-10.8-56.9-25.7-82.8 1.3-17.3 5.8-33.5 20.2-46.9 1.1-3.2-4.7.6-4.6-2.5z"/>
  <path fill="#E8E5D3" d="M651.7 713.3c10.6.3 21.3.1 31.1 5.8-11.5 3.4-21.1-2.5-31.1-5.8z"/>
  <path fill="#FBF5D1" d="M861.2 1016.5c-4.2 1.3-3.8 5-4 8.2-.2 3.9-1.7 6.9-4.8 9.1-2.5.6-5 .3-8.2.2-8.4-7.8-4-17.4-3.1-26.2 1.8-2 3.3-3.6 5-5.5-.6-4.8 1.7-9.4 1.6-14.4-.2-9.4-2.2-18.5-3.5-27.7-.4-3.1-.4-6.2-.6-9.3-.7-8.9-1.4-17.7-2.3-26.6-1-10.3-5.5-18.7-13.2-25-1-2.6-.7-4.8-.5-7.1 1.1-2 2.7-3.5 5.1-5.2h8.2c3.4 3.4 3.2 8.8 6.7 12.2-.3.2-.5.5-.8.7.3.2.6.4.9.7 1.8 1.3 2.5 3.2 2.7 5.4-.8.4-1.2 1-.8 2.2.6.1 1.4.3 2.2.5v1.3c.2.7.6 1.2 1.3 1.4l2.7 8.1c-.8.4-1.2 1-.8 2.2.6.1 1.4.3 2.2.5v1.3c1 10.3 3.4 20.5 3.1 31.1-.1 2.4 1.1 5.1 1 7.8-.1 1.9.7 2.9 2.7 3v2.6c-.3.2-.6.5-.8.7.3.2.6.5.8.7.6 5-2.2 9.8-1.3 14.8-.7.5-1.9 1-2 1.6-.8 7.1-2 14.3.6 21.3v2.7c-1.8 1.4-1.8 2.7 0 4.1-.1.9-.1 1.7-.1 2.6z"/>
  <path fill="#FBF8E4" d="M863.9 965.3c-1.9-.1-2.7-1.2-2.7-3 .1-2.7-1.1-5.4-1-7.8.4-10.5-2.1-20.7-3.1-31.1 3.8 5.7 4.3 12.5 5.2 18.8 1.1 7.6 2.5 15.3 1.6 23.1z"/>
  <path fill="#FBF8E2" d="M861.2 1007.1c-2.6-7-1.4-14.2-.6-21.3.1-.6 1.3-1.1 2-1.6.7 7.7-2.2 15.2-1.4 22.9z"/>
  <path fill="#FBF8E4" d="M851.8 908.5c-.8-.2-1.5-.3-2.2-.5-.4-1.2 0-1.8.8-2.2 1.3.6 1.4 1.6 1.4 2.7zM857.2 922.1c-.8-.2-1.5-.4-2.2-.5-.4-1.2 0-1.8.8-2.2 1.3.5 1.4 1.5 1.4 2.7z"/>
  <path fill="#FBF8E2" d="M861.2 1013.9c-1.8-1.4-1.8-2.7 0-4.1v4.1z"/>
  <path fill="#FBF8E4" d="M853.1 911.3c-.7-.2-1.2-.7-1.3-1.4.4.4.9.9 1.3 1.4zM863.9 969.3c-.3-.2-.6-.5-.8-.7.3-.2.6-.5.8-.7v1.4zM847.7 900.5c-.3-.2-.6-.4-.9-.7.3-.2.5-.5.8-.7.1.5.1.9.1 1.4z"/>
  <path fill="#FDFDFD" d="M639.9 815.4c.3-8.4 4.8-15.8 6.3-23.9.1-.3 1.1-.5 1.7-.7 1.9 2.6 3.9 1.8 5.7-.1 4.3 7.2 3.5 13.5-2.5 17.9-3.5 2.5-7 5.2-11.2 6.8z"/>
  <g>
    <path fill="#36406B" d="M1044.8 859.9l-.3-9.3c.2-1 .4-1.9.6-2.9 1.7-4.9 1.8-9.8-.1-14.7-.4-2.7 2.9-5.7-.5-8.2 0-1.4.1-2.7.1-4.1 2-4.9 2.5-12.2 1.2-16.2 0-.9.1-1.8.1-2.7 2.2-1.1 1.2-3.1 1.3-4.7.6-7.9 1.1-15.8 1.6-23.6 2.3-.9.4-4 2.7-5.1 8.7 3.4 17.7 5.5 27.2 5.1 6.4-.3 8.7-2.8 8.4-9.4-7.8 0-15.6-.1-23.4 0-5 .1-9.7-1.1-14.2-3.1.2-9.3 4.1-17.7 5.7-26.7 1.2-2.3 2.4-4.5 2.9-7.1 1.5-2.6 3-5.1 4.5-7.7 6.6-1.8 13.4-1.7 20-1.1 14.1 1.2 28.2.6 42.3 1.5 7.3.5 14.7.4 21.5 1.4 2.1 2.6-.6 5 .5 7.5 3.5-.8 2.3-6.1 5.9-6.3 2.6.8 0 4.3 3.3 4.7 1-1.6 2-3.2 3-4.9 11.9-.4 23.4 1.9 35.1 1.4 9.4-.3 18.7 1.9 28.1 1.1 2.3-.2 3.7 1.4 5.7 2.4 1.4-1.8 3.3-2.9 6-2.1 1.5.4.5 3.1 3 3.3 1.3-.5.5-3 3-3.6 3.9 0 8.6-.4 13.3.1 6.1.7 10.2-3.8 15.4-5.3.3-.1.2-1.3.4-1.9 3.5 1 2.5 5.3 5.1 6.9 2.6 4 1.3 8.1.1 12.3 3.1 3.4 2.7 8.5 6.9 11.1v11.7c-1.7 3.5 3.1 7.1.2 10.7-21.1-3.6-40.2 2.9-59.2 9.9 20.7 6.8 40.2 3.1 58.7-6.7 1.6.9 2.2 2.8 4.1 2.6 0 1.8.1 3.6.1 5.4-2 2.7-2 5.4 0 8.1-1.8 8.2-1.7 16.5-1.2 24.7.6 12 2.2 24 2.4 36 .2 12.5.5 25-.8 37.6-1.2 11.1-.3 22.4-.3 33.6 0 2-.8 4.6-.3 5.9 3.2 7.6 1.1 15.3 1.4 22.9-2.4 9.6-3.3 19.3-2.2 29 1 8.8 1.2 17.5.5 26.2-.4 5.1 1.1 10.3-.9 15.3 4.2 6.6 3.6 13.3.6 19.1-.5 3.2 2.7 3 2.9 6-2.2 6.7.7 13.9 2.4 21.3 1.1 4.5 2.9 9 2.2 13.8h-93.2c-.8-14.5-1.2-29.1-4.8-43.3-1.1-4.4-2.1-8.7-2.2-13.3 0-11-.1-21.9-1.9-32.8-2.4-14.7-7.7-28.5-11.9-42.7-2.4-8.1-8.8-14.5-9.7-23.2-.3-2.9-1.6-5.7-2.7-9.3-.8 2.8-1.5 4.7-1.9 6.7-7.8 31.7-12.8 63.8-15.2 96.4-.4 5.4.5 11.4-3.5 15.5-.6 2 1.8 3 .5 4.8-2.5 3.6-2.1 7.7-1.5 11.7.4 2.6-.5 4.7-1.2 7.1-2.2 7.8-7 14.5-8.9 22.4h-82.3c0-5.7 1.1-11.2 4.1-16.7v-26.8c-.2-.3-.2-.7-.1-1.1-.9-3.1-.9-6.1 0-9.2 0-.5.1-1 .1-1.5-.5-3.2-.7-6.4.1-9.6 3-2.6-.5-4.9-.4-7.4.3-11-.6-21.9-.8-32.8-.2-15.9-1.8-31.8-2-47.7-.1-6.8-1-13.8-1-20.7 0-1.4-.1-2.7-1.6-3.4 0-5.1.1-10.2.1-15.3 0-.9-.3-1.7-1.1-2.1-.1-.8-.2-1.5-.2-2.3-.4-3.3 1.4-6.9-1.2-9.9-.8-4 1.6-8.4-1.4-12.2-.3-.7.1-2-1.2-2.5z"/>
    <path fill="#FDFDFD" d="M1133.9 1081.3c1.9-7.9 6.7-14.6 8.9-22.4.7-2.4 1.6-4.5 1.2-7.1-.7-4-1-8.1 1.5-11.7 1.2-1.8-1.1-2.8-.5-4.8 3.9-4.1 3.1-10.1 3.5-15.5 2.4-32.6 7.4-64.7 15.2-96.4.5-2 1.1-3.9 1.9-6.7 1.1 3.6 2.4 6.4 2.7 9.3.9 8.8 7.3 15.1 9.7 23.2 4.2 14.2 9.5 28 11.9 42.7 1.8 10.9 1.9 21.9 1.9 32.8 0 4.5 1.1 8.9 2.2 13.3 3.6 14.2 4 28.8 4.8 43.3h-64.9z"/>
    <path fill="#36406A" d="M1356.4 491.3c4.4 5.1 7.2 11.4 11 16.9 4.2 6.2 9.2 11.5 15.4 15.8 11 7.8 22.3 15.1 32.1 24.4 6.7 6.4 13.1 13 14.4 24.2-.1 2.7-2.7 5.1-5.3 7.6-.9.2-1.7.3-2.6.5-3-1-5 .7-7.2 2.4-8.8 7.3-18.3 13.5-27.7 19.9-8.7 5.9-17.7 10.2-28.6 9.2-8.8-2.6-18.5-2.6-26.2-8.4 8.4-4.7 17.4-7.8 27-9.2.5-1.5.8-2.7-.2-4.2-4.7-1.7-9.7-2.4-15.8-1.7-2.8 4.8-10.1.5-14.9 6.5h13.7c-4.1 4.1-9.2 4-12.3 7.4l-5.1-4.5c-.2-.8-.7-1.3-1.5-1.4l.1.1c-.6-6.7-3.5-12.7-5.9-18.9-1.9-4.9-5.2-9.3-4.8-15 2.8-.2 5-2 7.4-3.1 5.7-2.6 11-6 17.2-7.3 3.9-.8 8-.1 11.3-1.8 4.8 1.2 7.5 5.4 12 6.3.2-5.4-.6-7.5-4.4-7.6-4.2-.1-7-2.6-10-4.2-6.7-.1-13.3-1.2-18.4 3.3-5.2 4.6-11.6 6.4-17.8 8.9-2 .9-1.7 3.6-3.7 4.6-1.3-.7-3.1-.4-4.1-1.7-1.7-10 1-19.7 1.4-29.5.2-3.7.1-8 1.8-11.8 3.1-7.1 6-14.3 8.7-21.6 3.2-8.4 8.1-16 11-24.4 1-3 1.7-5.8-.5-9.1-6.2 5.3-10.3 12.2-11.3 18.9-1.1 8.1-4.4 14.9-6.9 22.9-2.5-16.8.8-31.8 7.7-46.2.9-1.8 1.7-3.5.2-5.8-4.6 5.3-5.4 12.2-9.3 17.6 1.4-5.3-.1-11 3.4-15.4-2.3-2.1-3.7-.3-5.3.1-.1-.9-.1-1.8-1.8-2.8-3.6 4.4-7.9 8.5-10.5 15.7 6.2-3.8 7.4-10.1 12.3-12.9-1.4 7.9-1.8 15.8-.3 23.9 1 5.3 1.4 11.3-.5 16.6-2.5 7.1-1.9 14.5-3.2 21.7-1.5 9-2.3 18-3.6 27.1-.9 6.6-2.2 13.1-3.2 19.7-.1.8-.1 1.8.7 2.4 1.6 1.2 1.8-2.1 4-.6.7 2 .6 5.1 2.7 6.5-5.7 22.5-8.8 44.9-10.2 67.6-.1 2.2-.1 4.5-.2 6.7-3.8.2-1.6 4.2-3.3 5.9-2.3-6.3 3.8-12.6-1.3-18.6-1.6 3.7.6 7.7-1.5 11.3-3.4.1-4.4-1.7-4.4-4.6v-26.3c0-1.7.8-3 1.6-4.3 1-.9 2.8.9 3.5-1.2-1.1-2.6-2-5.7-6.1-6.2-.2 6.5-2.1 12.5-2.2 18.7-4.6-11.6.5-24.4-5.4-36.8-2.6 8.6 1.9 17-3.6 24.1.9 4.5 1.9 9 2.7 13.7 1.9 12.1 6.3 23.6 7.1 36 .1 2.3.1 5.4 2.4 7.4-.3 9.1-6.1 16-8.6 24-1.9-.1-3.2 1-4.1-.5 0-2 3.7-1.4 2.4-4.4-3.3-1.6-4.3 2.2-6.5 3-.7-.5-1.4-1.1-2.4-2-4.7 4.1-10.6 3-16 2.4-4.1-.4-8-.3-11.7.8-3.8 1.2-6.9.4-9.2-1.5-7.8 1.4-14.9-.1-21.9-.1-15.9 0-31.6-2.8-47.4-3.2.1-1.2.4-2 1.7-2.6 6.7-3.1 12.7-7.3 18.7-11.6.9-.6 2.9-.8 1.3-3.4-7.5 3.6-13.6 9.6-21.4 12.7-1.2-5.5.9-11.1-2.1-16.2-.7 6.2-2.8 12-3.6 17.5.3 2.1 2.2 2.2 2.6 3.6h-18.8v-17.7c-4-3.4-3.6-9.1-7.4-13-2.2.1-5.1-1.8-6.2 2 1.4 2.7 4.7.9 6.4 4.2 1.1 4.1 3.7 9 3.8 15-4.7-1.3-7.6-4.9-11.4-6.5-4.5-1.8-4-8-9.1-9.5-.5 2.8-1.3 5.3.9 7.3 2.5 2.2-1.3 4.7.5 6.7 1.7 1.2 1.9-1.8 3.7-1 3.2 2.9 4.4 7.4 6.5 11.3-18.7.8-37-1.7-54.6-6.4-9-4.5-12-13.6-16.3-21.4-4.5-8.2-6.4-17.9-7.1-27.2-1-12.3-3.4-24.3-4.7-36.5-.6-5.5.3-11.7-3.7-16.6-.1-1.2.2-2.6-1.3-3.6-1.3-.2-2.8-.4-4.2-.6-.3-1.2 1.2-2.5-.3-4.2-11.4 2.2-23.2 1.9-35 1.6-11.6-.3-22.6-4.2-34-6.1 9.4 6 20.7 5.9 30.8 9.1-1 3.3-4.5 4-4.3 7.7 4.6-1.3 6.2-5.3 9-7.7 9.5-.9 18.9 1 28.2-1.3.9-.2 1.5.8 1.8 1.7-11.7 10.5-22.7 21.6-31.3 35-3.2 5-7.1 9.8-12.2 13.1-8.4.2-9.3-.2-11.9-7.1-.9-2.2-2.1-3.3-4.2-3.7-1-2-3-2.7-4.9-3.2v.4-.4c-.3-.7-.9-1.1-1.6-1.1-12-9.5-25.1-17.1-37.9-25.3-4.4-4.6-11.5-4.5-16-8.9-1.3-1.9 2.1-3.8-.2-5.8-1.8.5-2.9 2.8-5.1 2.5-.3-4 2.5-6.4 4.9-8.9 2.6-2.6 4.9-5.6 8.3-7.5 1.7 5.2-5.8 6.6-5 13 5.4-6.3 10.3-11.4 14.4-17 1.9-2.6 5.7-4.1 5.5-8.1 1.9-2.3 4.2-4.1 6.9-5.2 2.6 0 3.8-2.1 5.4-3.6 2.4-2 4.4-4.3 7-6.2 13.3-9.8 26.4-19.7 35.9-33.6 4.8-7.1 10.4-14.2 18-18.7 7.1-4.3 11.7-9.6 10.5-18 2.5-2.7 4.7-5 6.8-7.3l.4-.3c1.7-.2 2.9-1 3.6-2.6.1-.4.4-.6.9-.5 3.2 0 5.6-1.4 6.8-4.5.1.1.2.2.3.4-.1-.1-.2-.2-.3-.4 2.5 1.1 4.2-.8 6.2-1.6 17.6-7.9 35.1-16.1 53.4-22.4 5.1-1.8 10.6-2.6 15.4-5.5 6.8.3 9.7-5.8 14.6-9.3 30.8 1 61.7-.9 92.7-1.2 1.8 0 3.6.1 5.4 0 1.5-.1 3.2.6 4.1-1.2.7-2.1-1.8-3.8-.7-5.9 3.2 1.4 4.7 4.3 6.3 7.1-1.4.2-3.3-.7-3.7 2.1 5.8 5 12.3 8.4 20.3 8.6.7-.1 1.5-.1 2.2-.2 4.8 1.9 9.7 3.7 14.5 5.8 2.8 1.2 5.6 1.4 8.5 1.2 4.8-.3 8.9 1.6 12.1 4.8 6.7 6.8 14.8 11.2 23.2 15.6 8.3 4.4 16.2 9.6 21.5 17.6 4.7 7.1 10.1 13.6 16.2 19.5 2.4 2.3 5.1 4.3 6.8 7.4.5 3.3-1.4 4.8-4 6.1-5.4 2.8-10.7 6-12.5 12.3-1.3 4.4-2.2 8.8-3.3 13.2 3.6-2 4.2-5.4 5-8.7 1-4 2.3-7.8 5.8-10.3 4.6-3.2 9.4-6 14-8.9.9.5 1.5 1.2 1.7 2.2.3 2.3 1.2 3.3 2.6 4zm-325.1 27c-1.9.2-2.6 1.3-2.6 3.1.1 2.9-.3 5.8.1 8.7 1.5 9.5 1.6 18.9-.1 28.4-.2 1.3-.9 3.1 1 4.1 1.7-.1 1.7-2 2.9-2.5.8 1.5 1 3.4 3.8 4 3.4-9.9 2.6-20.3 3.5-31.3 3 2.9 2.6 5.9 5.1 8.7 4.2-15.5 8.2-30.3 12.2-45.2 1.4.5 1.9 2.1 3.6.8.1-10.7 2.2-21.3 5.5-31.8s8.9-19.9 13-30c-8.3 4.2-11.6 11.9-13.9 19.7-4.6 15.8-8.2 31.9-12.5 47.8-2.3 8.5-3.6 17.4-7.7 25.4 1.5-7.9-.4-16.2 2.8-22.5-3.3-18.9-1.3-37-2.8-54.9-3.4 18-4.1 36.2-4.7 55.4-7.6-17.3-14.8-33.6-21.9-49.5-2.3-.2-3.9-.6-6.3.8 3.5 3.2-.2 5.5-1.5 8.2 1.5 2.1 2.9 3.8 4.2 5.6 6 7.8 7.6 17.6 11.1 26.4 2.8 6.5 4.7 13.4 5.2 20.6zm123.8 140c7-10.1 9.7-37.4 4.8-46.1-1-3.4.9-6.9-3-9.4v27.8h-1.3v-8.8c-4.1-2-3.6-6.6-5.9-9.8-4.4 18-8.2 35.8-7.5 54.3 2.7.4 4.4-.7 6.1-1.4 1.3-2.2-.1-4.7 1.3-6.7 1.6-.9 3.2 1.2 5.5.1zm18.2-195c-1.5.7-1.7 1.7-1.3 2.5 4.5 9.1 1.6 17.8-1.3 26.6-4 12-10.4 22.8-15.8 34.1-.6 1.2-.7 3.2-3.3 3.1.6-6.4 5-12.1 4.1-18.8-2.7 5.5-5.2 11-6.5 16.8-3.9 17.8-5.7 36-8.4 54-1.7 11.3-3.5 22.4-8.2 32.9-1.6 3.6-3 7.2-3.6 11.2 2.6.5 3.1-1 3.7-2.5 4.2-10.6 8.7-21.1 12.6-31.8 2.1-5.6 3.4-11.5 3.6-17.6.3-7.4.6-14.7 1-22.1.7-11 5-20.2 10.3-29.4 8-14.1 13.7-29.1 16.8-45 .9-4.9-.5-9.8-3.7-14zm-52.3 72.4c-2.1 1.6-1.8 2.7-1.5 3.8 2 10.1 2 20.1-.2 30.2-2 9.1-6.2 17.2-10.2 25.4-2.5 5.2-4.8 10.5-6.5 16.1-5.7 18.6-11.9 37-22.2 53.7-2 3.3-5.5 6.3-5.3 10.8 1.5.3 2.3-.3 2.8-1 11-17.5 19.8-35.9 25.2-56 1.8-6.7 3.9-13.4 6.8-19.6 6.4-13.5 13.8-26.6 13.7-42.3-.1-6.8-.1-13.7-2.6-21.1zm172-5.7c.9-8.4 3.6-16 2.8-23.8-.7-7.8 4.2-15.7-.6-24.1-1.2 4 .2 7.5-1.8 10.6-6 8.9-11.6 18.1-18.1 26.6-2.6 3.5-4.2 6.9-4.9 11.2 6.7-8.1 12.5-16.9 20.2-25.8.6 17.8-5.1 33.3-7.7 49.4 3.6-5.3 5.1-11.4 6.1-17.5.4-3.1 1.9-4.8 4-6.6zm-241.8 123.2c6.5-28.7 12.4-57.5 15-86.7 1.1-12.4 1.6-25.2-1.1-39.2-1.8 3.7-1.3 5.9-1.2 8 .6 20.8-.2 41.5-4.2 62-3.5 17.6-6.1 35.4-10.4 52.9-.3 1-.7 2.2 1.9 3zM1264.7 533c.5-2.5-2.9-3.1-2.6-5.9.6-5.1-.6-10.2-1.1-15.3-.9-10.5-2.4-20.7-5.3-30.8-.5-1.8.4-4.3-3-5.2 3 21.6 10.1 42.7 5 65.1-3.1-7.8-2.2-15.9-5.6-23-.4 14 3.2 27.3 7.9 40.5.3-7.6-1-15.2 1.4-22.6.5-1.6 3-.8 3.3-2.8zm-106.8-37c0-2.2-1.6-3.8-2.6-5.7-4-7-6.2-14.3-2.3-22.1 2.7-5.6 7.4-9.5 12.1-13.3 2.5-2 5.9-3.5 5.5-7.8-5.7 5.1-12.5 8.7-17 14.9-2.2 3-4.5 5.9-4.9 10.1-.7 8.2 1.8 15.5 5.7 22.4.6 1.1 1.3 2.5 3.5 1.5zm97.4-38.1c2.8 6.3 5.6 11.8 7.5 17.6 1.9 5.7 2.7 11.7 4.2 17.5 1.5 5.9-.6 12.2 1.6 18.9 3.8-9.7 1.4-23.9-7.8-48.1-.9-2.4-1.1-5.4-5.5-5.9zm-167.7 125c11.6-4.4 25.1-43.5 18.2-52.5.6 20-6.5 36.6-18.2 52.5zm-105.4-1.5c-8.8 4.9-17 10.7-25.5 16.2 10-3 18.5-8.5 25.5-16.2zm291.1-88.4c5.1-4.1 11.2-13.1 12-17.4-5.4 4.8-9.4 10.6-12 17.4zm-101.2-48.2c7.4-5.1 9.5-12.5 5.5-19 .4 6.9-1.5 13.2-5.5 19zm117.5 25c-1.9.8-3.3 1.4-2.4 3.9.9-.3 1.5-.5 2-.8.8-.6 1.2-1.3.4-3.1zM1079.3 592c-.6.5-.6.9 0 1.4.6-.5.6-1 0-1.4zM1227.1 321.5c-.1 3.9-.8 7.7-2.6 11.2-4.9 8.8-12.7 14.1-21.5 18.5-3.3 1.7-6.5.8-9.7 1.6-12.1 3.3-24.5 2.7-36.8 1.9-7-.5-14.2-1.1-21-3.7-2.7-1.1-5.1-3-8.2-2.8l-.3.2c-.5-2.1-2.3-3-3.7-4.4l-4.5-7.2v-9.3c-1.3-1.4-2.4-2.4-3.4-3.7-3.2-4.3-7.4-8.3-7.3-14 .1-9.6-4-17.2-10.9-24 3-1.4 4.2-4.3 6.7-5.5 7.3-3.7 10.5-10.3 12.2-17.7 1.7-7.5 4.8-13.2 12.8-15.5 4-1.1 7.6-3.7 11.5-5.5 5.9-2.7 11.4-6.3 17.6-8.3l.2.2c-4 7.6-10 13-18.1 16-5 1.8-10.2 3.5-15.2 5.2-1.1.4-2.9.1-2.6 2.3 1.1 1.1 2.6 1 3.8.6 6.4-2.1 12.8-4 19-6.5 4.4-1.8 8.3-4.7 10.9-8.7 4.5-6.9 11.1-10.8 17.9-14.3 4.2 1.6 7.7 3.3 10.3 6.1-.1 2-3.8 1.5-2.5 4.2 2.8 1.5 5.2-1.4 9.1-.5 5.7 2.6 13.3 3.1 20.8 5.9-5 1.3-9.8-.4-14.4 1.4 1.2 2.9 3.2 3 5.2 3 4.9 0 9.9.1 14.8.1 3 0 5.8.5 7.9 2.9-1.8 1.9-4.3 0-5.8 1.9 1.9 3.3 5.5.9 9.1 3.1-1.4 10.6 8.6 18.8 8 30.1 2.1 1.7 4.6 2.7 5.3 6.2-3.1 8.7-14.2 12.7-15.7 24 .6 1 1.4 2.9 1.1 5zm-76-59.8c-10.3 1.5-20.6 2.5-30.1 7.1 10.3-.9 20.6-2.6 30.1-7.1zm3.7-9c-5.9 1.9-12.5 2.3-17.3 7.2 5.1.3 9.2-2.7 13.9-4 1.2-.4 3.1-.2 3.4-3.2zm-8.7 61.3c4.2-7.8 5.7-12.2 5.5-15.5-5.6 5.1-7.5 10.5-5.5 15.5z"/>
    <path fill="#101116" d="M1285.1 781.7c0-1.8-.1-3.6-.1-5.4 0-3.1.4-6.3-.1-9.4-.4-2.6 0-6-3.7-7v-11.7c-4.1-2.6-3.8-7.7-6.9-11.1 1.1-4.2 2.5-8.3-.1-12.3.7-3-1.2-6.7 1-8.3 3.5-1.8 3.6 1.6 6 1.3.6-.3 1.5-.8 2.5-1.2 1.4 0 2.8 0 4.2-.1 2.4 1 2.5 4.3 5.2 5 1.8-.1 2.4-3.7 5-1.7 0 1.8-2.6 2.5-1.8 5.4 3.3 5.1 3.5 12.1 5.8 18.5 4.1-1.5 4.3-6.6 8.9-8.4-1.2 6-5.1 9-8.4 12.8.2 1.7.4 3.4.5 5.2-.1 1.4-.1 2.7-.2 4.1-3.3 4.7-1.3 10-1.1 14.9.7 14.3 2.4 28.6 3.4 42.8 3.2 44.3 6.2 88.6 9.3 132.9.7 10.5.7 21.1.6 31.6 0 2.7-.3 5.4-1.7 7.8-2.1 3.8-4.3 7.4-9.4 7.6-5.5.2-9.4-2.2-12.2-6.8-2.8-4.4-2.9-9.4-3.7-14.2-1.2-7.7-1.9-15.6-1.8-23.5-.3-7.6 1.8-15.4-1.4-22.9-.5-1.3.3-3.9.3-5.9 0-11.2-.8-22.5.3-33.6 1.3-12.6 1-25.1.8-37.6-.2-12-1.8-24-2.4-36-.4-8.3-.6-16.6 1.2-24.7 2.1-2.8 2.1-5.4 0-8.1z"/>
    <path fill="#14161D" d="M1227.1 321.5c.3-2.1-.5-4-.8-4.9 1.5-11.2 12.6-15.3 15.7-24-.7-3.5-3.2-4.4-5.3-6.2.7-11.3-9.4-19.4-8-30.1-3.6-2.1-7.2.3-9.1-3.1 1.5-1.9 4 0 5.8-1.9-2.1-2.4-4.9-2.9-7.9-2.9-4.9 0-9.9-.1-14.8-.1-2 0-4-.1-5.2-3 4.6-1.8 9.4-.1 14.4-1.4-7.6-2.8-15.2-3.3-20.8-5.9-3.9-.8-6.3 2-9.1.5-1.3-2.7 2.4-2.1 2.5-4.2-2.6-2.8-6.2-4.6-10.3-6.1-6.7 3.6-13.4 7.5-17.9 14.3-2.6 4-6.5 7-10.9 8.7-6.2 2.5-12.7 4.5-19 6.5-1.2.4-2.7.5-3.8-.6-.4-2.1 1.4-1.9 2.6-2.3 5.1-1.7 10.2-3.4 15.2-5.2 8.1-3 14.1-8.4 18.1-16 .7-.2 1.7.2 1.8-1-1-.6-1.6 0-2 .8-6.2 2-11.7 5.6-17.6 8.3-3.9 1.8-7.5 4.4-11.5 5.5-8.1 2.3-11.1 8-12.8 15.5-1.7 7.4-4.9 14-12.2 17.7-2.5 1.3-3.7 4.1-6.7 5.5 7 6.8 11 14.3 10.9 24-.1 5.7 4.1 9.7 7.3 14 .9 1.2 2.1 2.3 3.4 3.7v9.3l-2.4-2.1c-.4-1.7-1-3.2-2.4-4.3-1-5.6-5.4-9.1-8.5-13.1-.2-.7-.4-1.2-.3-1.6 2-10.7-1-19.5-9.7-26.2-2.1-1.6-2.9-4-1.9-6.5 1.4-2.8 4.2-3.6 6.7-4.4 6.6-2.3 10.9-6.9 11.8-13.5 1.7-12.5 8.9-18.8 20.3-23 10.4-3.8 20-9.9 30.3-14.4 7.1-3.1 12.8-3.3 20.2.6 9.1 4.9 18.5 10.1 29 12.2 8.5 1.7 15.3 7.1 23.1 12.1-3.2 2.6-2.7 5.3-1.9 8.3 1.7 6.3 3.9 12.4 7.8 17.7 2.2 3 3.3 6.5 4.3 9.8 1.1 3.7.5 7.5-2.2 10.7-1.6 1.9-3 3.9-4.8 5.6-5.3 4.7-9.9 9.6-11.4 16.7z"/>
    <path fill="#2F2F2F" d="M1127.4 348.2c3.1-.3 5.5 1.7 8.2 2.8 6.8 2.7 14 3.3 21 3.7 12.2.8 24.7 1.5 36.8-1.9 3.2-.9 6.4 0 9.7-1.6 8.8-4.4 16.6-9.7 21.5-18.5 1.2.3 2.5.6 3.5.9 1.3 2.3.4 4.5.6 6.6-3.2 5.9-4.5 12.4-5.2 18.9-.4 3.4-1.7 6.4-3.1 9.4-1.2.3-2 2-3.9 1 1.2-3.8 1.4-8 3.2-11.8.6-.6 1.7-1.4 1.6-1.9-.7-4.5 1.4-8.4 2-12.6.5-.3 1.2-.6.3-1.3-.3.3-.5.6-.8.9-5.7 3-11.5 6-12 13.6-3.3.6-6.5 2.3-9.8 1.3-10.1-3-19.4.3-27.1 2.5-9.9.2-18-3.7-26.7-.8-4.2-4.4-7.9-.7-11.9.9-.9-.6-1-2-2.3-2.2-.8 1.1-1.1 3-3.2 2.7-1.1-2.3.5-4.1 1.4-5.8-1.3-2.6-2.6-4.7-3.8-6.8z"/>
    <path fill="#FBF8E2" d="M1058 727.2c-.5 2.6-1.7 4.8-2.9 7.1-5.5 2-5.1 7.3-6.2 11.6-1.1 4.4-1.3 9.1-1.9 13.5-2.7 1.2-5.2.5-7.6.7h.1c-.7-1.9-.3-5.4-4.1-2.7-5.1-.8-7.9-6.2-12.8-6.6-1.8.3-1.9 1.4-2 2.5-.9 0-1.8-.1-2.7-.1-.4-1.9-.7-3.9-1.1-5.8.6-3.5 2.3-6.2 5.5-8 1.7.3.5 3.2 2.8 3.2 6.1-.2 8.7-4.2 10.3-9.4 2 0 3.9.2 5.9.7 2.9.8 6.1 1.8 8.9-.7 1.4-1.8 2.8-3.7 4.2-5.5 1.2-.3 2.4-.4 3.6-.5z"/>
    <path fill="#DDDCD9" d="M981.5 740.1c-1.4-.2-2.5-.8-3.6-1.8-14-13-26.2-27.5-36.1-44-11.5-19.1-19.2-39.9-27.8-60.3-3.8-9.1-8.6-17.8-13-26.6-2.2-4.4-4-9-5.4-13.7-2.1-7.4 0-13.8 5.6-17.6l.5.2c.2 1.8-.8 2.9-1.8 4.2-2.4 3-2.8 6.7-2 10.2.8 3.7 1.7 7.3 3.5 10.7 4.3 8.1 8.7 16.2 12.2 24.7 8.9 21.7 17.6 43.5 28.9 64 5.7 10.3 11.8 20.5 21.3 28.1.5.5 1 .9 1.4 1.4.2.7.7 1.2 1.4 1.4.2.7.7 1.2 1.4 1.4 0 1.1.2 2.2 1.4 2.7 2.1 3.2 4.9 5.9 8 8.1.9 2.4 4.4 3.5 4.1 6.9z"/>
    <path fill="#101115" d="M1219.4 392.5c-1.1 2.1 1.3 3.8.7 5.9-.9 1.8-2.7 1.1-4.1 1.2-1.8.1-3.6 0-5.4 0-31 .2-61.9 2.2-92.7 1.2-5 3.5-7.8 9.6-14.6 9.3-.2-.5-.5-.9-1.1-.9-.6-2.5 1.6-1.4 2.4-1.8 4-2 8.1-3.9 9.7-8.7 1.6-.2 2.8-.7 2.3-2.7 2.7-1.5 3.5-4.8 6.3-6.2 2.2 3.6-2.6 5.2-2.7 8.1 20.2 1.4 40.2-1.1 60.1-.9 9.9.1 19.8 0 29.7-.1 1.7 0 3.6.7 5-1.2.2-4.4-4.4-5.9-5.7-9.4l2.1-.3c2.4.3 3.5 3.1 6 3.3.4.7.8 1.4 1.2 2.2-1 1.3-.5 1.4.8 1z"/>
    <path fill="#36406A" d="M1347.3 482c-1.6-3-4.4-5.1-6.8-7.4-6.2-5.9-11.5-12.3-16.2-19.5-5.3-8-13.2-13.2-21.5-17.6s-16.5-8.8-23.2-15.6c-3.2-3.2-7.3-5.1-12.1-4.8-2.9.2-5.7-.1-8.5-1.2-4.8-2-9.7-3.9-14.5-5.8 3-2 5.6-.1 8.1 1 4.5 2.2 9.1 3.3 14.2 3.4 5.3.1 10.2 1.8 14.1 5.4 3.4 3.1 7.3 5 11.4 6.9 8.7 4.1 17.1 8.7 24.5 15 2.9 2.5 6 5 7.7 8.3 6.1 11.5 15.6 20 24 29.5.6.7.9 1.5 1.4 2.2-.8.1-1.7.2-2.6.2zM1016.6 447.2c-2.1 2.3-4.3 4.6-6.8 7.3 1.2 8.4-3.3 13.7-10.5 18-7.6 4.5-13.2 11.6-18 18.7-9.5 14-22.6 23.9-35.9 33.6-2.6 1.9-4.6 4.2-7 6.2-1.7 1.4-2.8 3.6-5.4 3.6 3.6-7.9 9.9-13.1 17.1-17.4 9.9-6.1 17.9-14.1 25.1-23.2 8.7-11.1 18.1-21.8 29-30.7 1-7.8 5.1-13.1 12.4-16.1z"/>
    <path fill="#DDDCD9" d="M1421.5 580.7c.9-.2 1.7-.3 2.6-.5 3.3 8.4 1.7 16.8-.8 24.8-7.6 24.6-17.8 48.1-32.6 69.3-6.9 9.9-14.9 18.9-23.5 27.3-1 1-2 1.7-3.5 1.8l-.3-.2c.1-3.1 2.7-4.5 4.5-6.4 7.8-8 14.9-16.5 21.6-25.4 9.5-12.8 16-27.3 22.1-41.9 2-4.7 5.3-9.1 5.4-14.7-1.3.2-2.4.5-3.5.7.5-3.6 4.6-4.4 6-7.6 3.8-8.9 4.5-17.8 2-27.2zM1021.9 758.7c4.8 3.7 8.9 8.1 12.4 13.1 2.7 3.8 2.9 7.7 1.9 12.7-6.4-2.7-10.8-7.1-15.3-11.3-8.2-7.6-15.1-16.5-25.4-21.9-4.8-2.5-10-5.3-13.1-10.3 2.4-.3 4 .9 5.9 2.2 4.7 3.2 9.2 6.7 14.6 8.6 4.6 4.7 9.9 8.5 14.9 12.2 3.9-.3 4.1-2.7 4.1-5.3z"/>
    <path fill="#2C3455" d="M1050 904.4c1.5.7 1.5 2 1.6 3.4.1 6.9 1 13.9 1 20.7.2 15.9 1.7 31.8 2 47.7.2 10.9 1.1 21.9.8 32.8-.1 2.5 3.4 4.8.4 7.4-1-1.5-1.6-3-1.6-5 .1-16.3-2.6-32.5-3.1-48.8-.2-7.4-1-14.8-1-22.1 0-12.1-1.7-24.1-1.2-36.1.4.1.8.1 1.1 0z"/>
    <path fill="#F6F3E0" d="M1220.3 368.5c1.4-3 2.7-6 3.1-9.4.8-6.6 2-13 5.2-18.9 4.1.5 5.1 3.9 6.5 6.9-1.4 7.1-4.8 13.4-7 20.2-1 3.1-3.6 5.7-7.7 5.4 0-1.4 0-2.8-.1-4.2z"/>
    <path fill="#36406A" d="M1102 409.2c.7-.1.9.3 1.1.9-4.8 2.8-10.3 3.7-15.4 5.5-18.3 6.3-35.8 14.5-53.4 22.4-2 .9-3.7 2.7-6.2 1.6 13-9 27.5-14.8 42.3-19.8 4-1.4 8.1-2.5 11.7-4.9 6.1-4 13.4-3.7 19.9-5.7z"/>
    <path fill="#D3D1C2" d="M1039.4 760c2.4-.1 4.9.5 7.6-.7.6-4.4.8-9 1.9-13.5 1.1-4.3.7-9.6 6.2-11.6-1.5 9-5.4 17.5-5.7 26.7-2.1 4.1-.4 8.4-.6 12.5-.5 7.9-1 15.8-1.6 23.6-.1 1.6.8 3.6-1.3 4.7-1.9-1.3-1.2-3.3-1-5 .9-9.8 1.5-19.6 1.6-30.2-2-1.6-5.5-3.1-7.1-6.5z"/>
    <path fill="#A1A09C" d="M1116.4 396c.5 2-.7 2.5-2.3 2.7.4-1.4 0-2.7-.8-3.8-5.2-7.3-6.4-15.7-5.9-24.3.5-9.8 1-19.7 3.5-29.2 1-3.7 2.1-7.3 3.2-10.9 1.3 1.1 2 2.6 2.4 4.3-1.2.5-1.3 1.6-1.7 2.7-2.3 7.7-3.5 15.6-3.8 23.6-.4 11.9-1.6 24 5.4 34.9z"/>
    <path fill="#BEBBAB" d="M1220.3 368.5c.1 1.4.1 2.8.2 4.2-.6 5.6-1.5 11.2-3.3 16.6-2.5-.2-3.6-3-6-3.3-.1-.4-.3-.8-.4-1.1 1.1-.6 1.4-1.6 1.4-2.8-.3-8.2 1.6-16.2 2.8-24.3 1-.4 1-1.9 2.3-2 .5 1 .9 2.1 2.3 1.9-1.8 3.8-2 8-3.2 11.8 1.9 1 2.7-.8 3.9-1z"/>
    <path fill="#283050" d="M1347.3 482c.9 0 1.8 0 2.7-.1 1.5.8 2 2.3 2.3 3.8-4.7 3-9.5 5.8-14 8.9-3.5 2.4-4.8 6.3-5.8 10.3-.8 3.3-1.4 6.7-5 8.7 1.1-4.4 2-8.9 3.3-13.2 1.9-6.4 7.1-9.5 12.5-12.3 2.6-1.4 4.5-2.9 4-6.1z"/>
    <path fill="#E8E5D3" d="M1349.9 726.3c-.3 3.6-3 5.2-5.6 6.8-3.8 2.3-7.9 3.9-12.1 5.3-4.4 1.5-8.8 3-11.1 7.7-1.2 2.3-3.3 3.5-6.1 3.3l-.1-.1c3.2-3.9 5.7-8.5 9.1-11 8.8-3.4 18-3.9 23.3-11.9.9-.1 1.7-.1 2.6-.1z"/>
    <path fill="#FDFDFD" d="M1003 751.9c-5.4-2-9.9-5.5-14.6-8.6-1.9-1.3-3.6-2.5-5.9-2.2l-1-1c.4-3.4-3.2-4.4-4.2-7 2.7-.4 4.4 1 6.3 2.7 2.5 2.4 5.1 4.8 8.7 5.4 2.1 2.2 4.7 3.9 7.5 5.1 2.6 1.1 3.4 3 3.2 5.6z"/>
    <path fill="#36406A" d="M926 539.9c.2 4-3.6 5.5-5.5 8.1-4.2 5.6-9 10.7-14.4 17-.8-6.5 6.8-7.8 5-13 4.4-4.8 9.6-8.6 14.9-12.1zM901.7 576.4l-.5-.2c-1.7-2.4-4.1-4.4-3.3-7.8 2.2.2 3.3-2 5.1-2.5 2.4 2-1 3.9.2 5.8 4.5 4.4 11.6 4.3 16 8.9-6-.5-11.3-4.1-17.5-4.2zM1242.3 410.3c-7.9-.2-14.5-3.6-20.3-8.6.4-2.7 2.3-1.8 3.7-2.1 2.5 4.5 6.8 6.5 11.4 8.2 1.8.6 4 .5 5.2 2.5z"/>
    <path fill="#D3D1C2" d="M1050 904.4c-.4.1-.7.1-1.1.1-1.8-4.5-2.7-16.6-1.6-20.2.5.1.9.3 1.4.4.1.8.2 1.5.2 2.3-.1.9.1 1.7 1.1 2.1.1 5.1.1 10.2 0 15.3zM1045.8 804.6c1.3 3.9.7 11.3-1.2 16.2-2.1-5.1-.9-10.2-.5-15.4.1-.3 1.1-.5 1.7-.8z"/>
    <path fill="#DDDCD9" d="M1349.9 726.3h-2.6c.4-6.4 4-10.6 9.3-13.5l.1.1c-2.2 4.4-4.5 8.9-6.8 13.4z"/>
    <path fill="#D3D1C2" d="M1044.5 824.9c3.4 2.5.1 5.5.5 8.2-.5.9-.3 2.1-1.4 2.6-2.1-5.3-1.9-7.7.9-10.8z"/>
    <path fill="#E8E5D3" d="M1302.9 757.4c.1-1.4.1-2.7.2-4.1 4.5.4 7.5-3.8 11.7-4l.1.1c-2.5 4.9-8.1 5.2-12 8z"/>
    <path fill="#2C3455" d="M1043.6 835.7c1.1-.6.9-1.8 1.4-2.6 1.9 4.9 1.8 9.8.1 14.7l-1.4-1.4c0-3.6 0-7.2-.1-10.7z"/>
    <path fill="#DDDCD9" d="M1363.6 703.5c-.1 4.7-3.8 6.8-6.9 9.3l-.1-.1c-.3-5 3.7-6.9 6.7-9.5l.3.3z"/>
    <path fill="#D3D1C2" d="M1044.8 859.9c1.3.5.9 1.8 1.3 2.7-.2 1.8-.3 3.7-.5 5.5-3.5-2.3-2.4-5.2-.8-8.2z"/>
    <path fill="#DDDCD9" d="M1017.9 753.1c.9 0 1.8.1 2.7.1.5 1.8.9 3.6 1.4 5.4l-.1.1c-4.7-1.6-5.3-2.4-4-5.6z"/>
    <path fill="#2C3455" d="M1045.7 868.1c.2-1.8.3-3.7.5-5.5 3 3.8.5 8.2 1.4 12.2l-.1.1c-.4-.1-.8-.2-1.2-.1-.3-2.2-.4-4.4-.6-6.7z"/>
    <path fill="#36406A" d="M1028.2 439.5c-1.2 3.1-3.6 4.5-6.8 4.5 1.6-2.5 4.1-3.6 6.8-4.5z"/>
    <path fill="#2C3455" d="M1048.8 884.7c-.5-.1-.9-.3-1.4-.4-.1-1.8-.2-3.5-.3-5.3.1-1.4.3-2.7.4-4.1l.1-.1c2.6 3 .8 6.6 1.2 9.9z"/>
    <path fill="#D3D1C2" d="M1035.4 757.4c3.8-2.7 3.4.9 4.1 2.7-2 0-3.4-1-4.1-2.7zM1043.7 846.4l1.4 1.4c-.2 1-.4 1.9-.6 2.9-2.8-1-3.1-2.4-.8-4.3zM1047.4 874.9c-.1 1.4-.3 2.7-.4 4.1-2.7-.9-2.9-2.3-.8-4.2.4-.1.8 0 1.2.1z"/>
    <path fill="#36406A" d="M1020.5 444.4c-.7 1.5-1.9 2.3-3.6 2.6.6-1.8 1.9-2.3 3.6-2.6zM1356.4 491.3c-1.4-.7-2.3-1.7-2.4-3.4 1.9.4 2.1 2 2.4 3.4zM1219.3 392.5c-1.2.5-1.7.3-.9-1 .3.3.6.6.9 1z"/>
    <path fill="#2C3455" d="M1055.7 1026.1c0 .5-.1 1-.1 1.5-.1-.3-.2-.7-.3-1 0-.2.2-.3.4-.5zM1055.6 1036.8c-.1.4-.1.7.1 1.1-.1-.2-.3-.5-.4-.7 0-.2.2-.3.3-.4z"/>
    <path fill="#101115" d="M1152.9 685.7c15.8.4 31.5 3.2 47.4 3.2 7 0 14.1 1.5 21.9.1 2.3 1.9 5.4 2.7 9.2 1.5 3.7-1.1 7.6-1.3 11.7-.8 5.4.6 11.3 1.7 16-2.4 1.1.9 1.7 1.4 2.4 2 2.3-.8 3.3-4.6 6.5-3 1.3 3-2.5 2.3-2.4 4.4.9 1.4 2.2.4 4.1.5 2.4-8 8.2-15 8.6-24 1.9-1.2 3.8-2.3 5.6-3.5 4.8-3.1 7.1-10.3 5-15.5.1-2.2.1-4.5.2-6.7 3.4 1.1 2.2 4.4 3.1 6.7 2.8 9.2 2.3 18.8 3.9 30.6 1.6 3.7 1.6 3.7 0 10.6-.5 2-.7 4-1 6-2 1.5-4.3 2.8-4.8 5.5-1.3.8-2.6 1.7-3.9 2.5-.8.2-1.7.5-2.5.7-2.3-.1-4.5-.2-6.8-.4-1.5-3.5-5.2-2.2-7.1-2.9-1.6-1.6-.1-3.2-1.3-4.2h.6s-.2.1-.5.2c-1.9 2-.5 4.6-1.3 6.8-1.8 1.6-3.5 3.2-6.3 5.7 5.5 1 3.5 7.2 7.9 8.9-.1.7-.1 1.8-.4 1.9-5.2 1.5-9.3 5.9-15.4 5.3-4.7-.5-9.4-.1-13.3-.1-2.6.7-1.8 3.1-3 3.6-2.5-.2-1.5-3-3-3.3-2.7-.9-4.6.2-6 2.1-2-1.1-3.4-2.6-5.7-2.4-9.4.8-18.8-1.5-28.1-1.1-11.7.4-23.2-1.8-35.1-1.4-1 1.7-2.1 3.4-3 4.9-3.2-.4-.7-3.9-3.3-4.7-3.6.1-2.4 5.5-5.9 6.3-1.1-2.5 1.6-4.9-.5-7.5-6.8-1-14.2-.9-21.5-1.4-14.1-.9-28.2-.4-42.3-1.5-6.7-.6-13.4-.7-20 1.1-.8-1.2-2.2-1.4-3.5-1.8-1.6.7-1.8 3.1-4 3.2-.7-.8-1.4-1.5-1.8-2-8 .8-15-.5-20.7-6.2.2-2.4.5-4.9.7-7.3.3-3.8 1.7-8.1.4-11.3-2.4-5.6-1.7-10.9-1.4-16.4.4-9 5.1-14.9 14.1-17.2-1.5-5-3.2-9.9-4.3-14.9-4.9-22.1-7.1-44.6-10.2-67-.1-.9.2-1.8 1-2.3 4 4.9 3.1 11.1 3.7 16.6 1.3 12.2 3.8 24.2 4.7 36.5.7 9.3 2.7 19 7.1 27.2 4.2 7.8 7.2 16.8 16.3 21.4 17.6 4.8 35.9 7.3 54.6 6.4 3.9 2.4 8.1.8 12.2 1.1h18.8c.7-.3 1.7-.3 2.6-.3z"/>
    <path fill="#F6F3E0" d="M1286.3 703.1c1.3-.8 2.6-1.7 3.9-2.5 2.1.6 3.7-1.4 5.7-1.2-.6 3-1.7 5.8-1.6 8.4-1.7 3-4.2 3.8-6.5 5.1-1.6.9-4 1.1-4.1 3.7-1 .5-1.9 1-2.5 1.2-2.4.3-2.5-3.1-6-1.3-2.2 1.6-.3 5.3-1 8.3-2.7-1.6-1.6-5.9-5.1-6.9-4.4-1.7-2.4-7.9-7.9-8.9 2.8-2.5 4.5-4.1 6.3-5.7 3.2-.9 6.3 3.5 9.6.1 2.3.1 4.5.2 6.8.4 1.1 1.2 2 1 2.4-.7z"/>
    <path fill="#283050" d="M1281.2 759.9c3.7 1 3.3 4.4 3.7 7 .4 3.1.1 6.3.1 9.4-1.9.2-2.5-1.7-4.1-2.6-18.5 9.8-38 13.5-58.7 6.7 19-7 38.1-13.5 59.2-9.9 2.9-3.5-1.8-7.1-.2-10.6zm-5.3 13.1c-14.7-1.3-28.9.8-42.5 6.8 15.1 3.7 28.9-.6 42.5-6.8z"/>
    <path fill="#2C3455" d="M1048.9 773.5c.2-4.2-1.5-8.5.6-12.5 4.5 2.1 9.2 3.2 14.2 3.1 7.8-.1 15.6 0 23.4 0 .3 6.6-2 9.1-8.4 9.4-9.5.4-18.5-1.6-27.2-5.1-2.3 1.1-.3 4.3-2.6 5.1z"/>
    <path fill="#DDDCD9" d="M1032.6 712.8c5.7 5.7 12.6 6.9 20.7 6.2.4.4 1.1 1.2 1.8 2 2.1-.1 2.4-2.5 4-3.2 1.3.4 2.6.5 3.5 1.8-1.5 2.6-3 5.1-4.5 7.7l-3.6.3c0-1.8 0-3.6-2.3-5-.6-.1-1.8-.4-2.8-.3-7.2 1-13.2-1.6-18.6-5.9-7.1-5.6-14.7-10.1-23.8-12.7-2.3.6-5 1.9-8.2-.2-1-3.7-5.2-6.3-5-11 4 3.1 7.6 6.7 12.7 8.2 7.6 2.3 15.1 5 21.4 10.2 1.1 1.1 2.7 2 4.7 1.9z"/>
    <path fill="#283050" d="M1285.1 781.7c2.1 2.7 2.1 5.4 0 8.1-2-2.8-2-5.4 0-8.1z"/>
    <path fill="#2C3455" d="M1050.1 889.1c-1-.4-1.2-1.2-1.1-2.1.9.4 1.1 1.2 1.1 2.1z"/>
    <path fill="#FBF8E2" d="M1363.4 703.3c-3 2.6-7 4.5-6.7 9.5-5.4 3-8.9 7.2-9.3 13.5-5.4 8-14.6 8.5-23.3 11.9-3.5 2.5-5.9 7.1-9.1 11-4.3.3-7.2 4.5-11.7 4-.2-1.8-.4-3.5-.5-5.2 3.3-3.8 7.3-6.8 8.4-12.8-4.5 1.8-4.8 6.9-8.9 8.4-2.3-6.4-2.4-13.4-5.8-18.5-.8-2.9 1.8-3.6 1.8-5.4-2.5-2.1-3.2 1.5-5 1.7-2.7-.7-2.8-4.1-5.2-5 2.8-1.7 5.5-3.3 8.1-4.8 1.9 1.3.5 3.4 2.1 4.4 2.5-1.3 3.9-3.4 5.2-5.8 2.5-5 6.2-8.6 11.9-9.9 3-.7 5.9-1.8 8.8-3 2.1-.9 4.9-1.7 3.9-5.4-2.8-1.5-6-.3-9-.7.7-1.5 3.2-1.8 2.7-4.1 3.4.5 5.2-1.6 6.9-4.2 5.8-8.6 9.5-18.1 13.1-27.7 5-13.3 10.9-26.2 15.1-39.8.4-1.1.9-2.2 1.3-3.3 10.8 1 19.9-3.4 28.6-9.2 9.4-6.4 18.9-12.6 27.7-19.9 2.1-1.8 4.2-3.4 7.2-2.4 2.5 9.3 1.8 18.3-2.1 27.3-1.4 3.2-5.5 4-6 7.6-.7.2-1.6-.3-1.9 1.1 1 .1 1.6-.2 1.9-1 1.1-.2 2.2-.4 3.5-.7-.1 5.5-3.4 10-5.4 14.7-6.1 14.6-12.6 29.1-22.1 41.9-6.6 8.9-13.8 17.5-21.6 25.4-1.9 1.9-4.5 3.3-4.6 6.4z"/>
    <path fill="#FBF8E4" d="M993.5 692.5c-.2 4.7 4 7.3 5 11 3.2 2.1 6 .8 8.2.2 9.1 2.7 16.8 7.2 23.8 12.7 5.4 4.3 11.5 6.9 18.6 5.9 1.1-.1 2.2.2 2.8.3 2.3 1.3 2.3 3.2 2.3 5-1.4 1.8-2.8 3.7-4.2 5.5-9-3.2-17.9-4.6-26.8.5-3.7 2.1-8 2.6-12.3 2.1.1-2.9-2.3-4.2-4-5.9-3.4-3.5-7.9-5.9-11.1-9.7-3.3-4-7.3-6.6-12.6-6.1-6.6-5.6-11.5-12.5-16.1-19.1-9.7-13.9-17.8-28.9-24.1-44.8-2.2-5.4-4.8-10.6-7.2-15.9-.8-1.7-1.8-3.3-4.4-1.3 1.3 4.7 1.4 9.7 2.9 14.6 4.5 14.1 12 27 17.7 40.5.6 1.4 1 3.4 2.6 3.8 4.1.9 4.8 4.4 6.3 7.2 2 3.8 3.9 7.6 5.7 11.5 1.5 3.3 3.5 5.7 7.7 6.3 1.7-.6 3.7-2 6.4-.7 2.1 6.7 4.6 13.6 8.7 19.8 1.1 1.6 3 2.9 2.7 5.2-3.6-.6-6.2-3-8.7-5.4-1.8-1.7-3.6-3.1-6.3-2.7-3.1-2.2-5.9-4.9-8-8.1 0-1.1-.1-2.2-1.4-2.7-.2-.7-.6-1.2-1.4-1.4-.2-.7-.6-1.2-1.4-1.4-.2-.7-.7-1.2-1.4-1.4-9.5-7.5-15.6-17.8-21.3-28.1-11.3-20.5-20-42.3-28.9-64-3.5-8.5-7.9-16.5-12.2-24.7-1.8-3.4-2.7-7.1-3.5-10.7-.8-3.5-.4-7.2 2-10.2 1-1.2 2-2.4 1.8-4.2 6.2.2 11.5 3.8 17.6 4.2 12.8 8.2 26 15.8 37.9 25.3.2.9.6 1.4 1.6 1.1v.4-.4c1.2 3.3 2.1 6.7 3.6 9.8 7.1 14 11.7 28.8 15.1 44.1 1 4.5 1.9 9.4 5 13 3.1 3.5 4.5 7.6 5.6 11.9h-8.1c-3.5-3.9-5.8-8.7-9.3-12.3-3.9-4.1-6.1-8.6-7.8-13.7-1.5-4.5-2.4-9.3-5.4-13.3 1 8.5 3.1 16.6 5.7 24.6 2.8 8.9 6.9 16.8 15.3 21.3 4.3.5 8 .4 11-2.6 1.8 1 2.1 3.5 4.3 3zM954 635.4c-.3-12.6-12.4-21.9-28.9-26.1 3.2 6.3 4.5 13.1 9.1 18.8 4.5-2.2 8.8-2.4 12.6 1.2 1.7 2.4 2.4 6.3 7.2 6.1z"/>
    <path fill="#FDFDFD" d="M1032.6 712.8c-1.9.2-3.6-.8-4.9-1.9-6.3-5.1-13.8-7.9-21.4-10.2-5.1-1.5-8.7-5.1-12.7-8.2-1.2-3.8-2.2-7.7-3.8-11.3-6-14.4-10.7-29.2-15.7-44-1.4-4.2-3-8.3-4.4-12.4-1.8-5-6.6-8.7-5.8-14.6 2.1.4 3.4 1.5 4.2 3.7 2.6 6.9 3.5 7.3 11.9 7.1 5-3.3 8.9-8.1 12.2-13.1 8.6-13.4 19.6-24.5 31.3-35 1.3-.2 2.6-.5 3.8-.7 1.5.2 2.9.4 4.2.6 1.4 1 1.2 2.3 1.3 3.6-.8.6-1.1 1.4-1 2.3 3.1 22.4 5.3 44.9 10.2 67 1.1 5 2.8 9.8 4.3 14.9-9 2.3-13.7 8.1-14.1 17.2-.2 5.5-1 10.8 1.4 16.4 1.3 3.1-.1 7.5-.4 11.3-.1 2.4-.4 4.8-.6 7.3zM1358 612.3c-.4 1.1-.9 2.2-1.3 3.3-3.6.2-3.8 3.5-4.7 5.8-3.6 8.6-6.8 17.4-10.1 26.2-5.2 14-9.9 28.3-20.2 39.6-.9.2-1.7.4-2.6.6l-24 7.2c.3-2 .6-4 1-6 1.6-6.8 1.6-6.8 0-10.6-1.6-11.8-1.1-21.3-3.9-30.6 1.4-2.1 1.8-4.6 2.2-7 3-18.3 5-36.8 7-55.2.8-7.1.5-14.5 4.4-20.9 4.2 1.6 4.9 5.4 6 8.7 2.7 8.3 5.4 16.5 11 23.4l-.1-.1c.1.9.6 1.4 1.5 1.4l5.1 4.5c.4 1.3 1.4 1.4 2.5 1.2 7.8 5.9 17.4 5.9 26.2 8.5z"/>
    <path fill="#272E4C" d="M1031.3 518.3c-.5-7.2-2.5-14.1-5.1-20.7-3.5-8.9-5.1-18.6-11.1-26.4-1.4-1.8-2.7-3.5-4.2-5.6 1.3-2.7 5-5 1.5-8.2 2.4-1.4 3.9-1 6.3-.8 7 15.9 14.2 32.2 21.9 49.5.6-19.2 1.3-37.4 4.7-55.4 1.5 17.9-.5 36 2.8 54.9-3.2 6.4-1.4 14.7-2.8 22.5 4.1-8.1 5.4-16.9 7.7-25.4 4.3-15.9 7.9-32 12.5-47.8 2.3-7.8 5.6-15.6 13.9-19.7-4.1 10.1-9.7 19.5-13 30s-5.4 21.1-5.5 31.8c-1.7 1.4-2.2-.3-3.6-.8-4 14.9-8 29.7-12.2 45.2-2.5-2.8-2.1-5.8-5.1-8.7-1 11-.1 21.4-3.5 31.3-2.8-.6-3-2.6-3.8-4l.3-29.5c2.3-.3 2 2.6 3.4 3v-25.2c-1.8-.4-3-1.6-4.8-.8.7 2.1 1.6 4.2 2.1 6.3s1.4 4.4-1 6c-.5-.5-.9-1-1.4-1.5z"/>
    <path fill="#2C3455" d="M1322.8 596.8c-5.7-6.8-8.4-15.1-11-23.4-1.1-3.4-1.8-7.1-6-8.7-3.9 6.4-3.6 13.9-4.4 20.9-2 18.5-4 36.9-7 55.2-.4 2.4-.9 4.8-2.2 7-.8-2.3.4-5.5-3.1-6.7 1.4-22.7 4.5-45.1 10.2-67.6-2.1-1.4-2-4.6-2.7-6.5-2.2-1.5-2.4 1.8-4 .6-.8-.6-.9-1.5-.7-2.4 1-6.6 2.3-13.1 3.2-19.7 1.3-9 2.1-18.1 3.6-27.1 1.2-7.2.6-14.6 3.2-21.7 1.9-5.4 1.5-11.3.5-16.6-1.5-8.1-1.1-15.9.3-23.9 1.6-.5 3-2.2 5.3-.1-3.5 4.4-2 10.1-3.4 15.4 3.8-5.3 4.7-12.3 9.3-17.6 1.5 2.3.7 4-.2 5.8-7 14.4-10.3 29.4-7.7 46.2 2.5-8 5.8-14.8 6.9-22.9.9-6.7 5.1-13.6 11.3-18.9 2.1 3.3 1.5 6.1.5 9.1-2.9 8.5-7.8 16.1-11 24.4-2.7 7.3-5.7 14.5-8.7 21.6-1.6 3.8-1.6 8.1-1.8 11.8-.4 9.8-3.2 19.5-1.4 29.5 1 1.3 2.8 1 4.1 1.7 2-1 1.6-3.7 3.7-4.6-.4 2.4 3.2 2.9 2.7 5.4-.3 5.6 3 10.1 4.8 15 2.2 6.1 5.1 12.1 5.7 18.8z"/>
    <path fill="#283050" d="M1155.1 658.3c-2.3 1.1-3.9-.9-5.6-.2-1.4 2.1-.1 4.6-1.3 6.7-1.7.7-3.3 1.8-6.1 1.4-.7-18.5 3.1-36.4 7.5-54.3 2.4 3.3 1.9 7.8 5.9 9.8v8.8h1.3v-27.8c4 2.5 2 6 3 9.4 5 8.8 2.4 36.1-4.7 46.2zM1173.3 463.3c3.2 4.2 4.6 9.1 3.6 14.1-3.2 15.9-8.8 30.9-16.8 45-5.3 9.2-9.6 18.3-10.3 29.4-.4 7.4-.7 14.7-1 22.1-.2 6.1-1.6 12-3.6 17.6-3.9 10.7-8.4 21.2-12.6 31.8-.6 1.5-1.1 3-3.7 2.5.5-4 2-7.6 3.6-11.2 4.7-10.5 6.6-21.6 8.2-32.9 2.7-18 4.4-36.2 8.4-54 1.3-5.8 3.8-11.3 6.5-16.8.9 6.6-3.4 12.3-4.1 18.8 2.6 0 2.7-1.9 3.3-3.1 5.5-11.3 11.9-22.1 15.8-34.1 2.9-8.8 5.9-17.4 1.3-26.6-.3-.9-.1-1.8 1.4-2.6z"/>
    <path fill="#292C44" d="M1289 647.9c2.2 5.1-.2 12.4-5 15.5-1.9 1.2-3.7 2.4-5.6 3.5-2.3-1.9-2.3-5.1-2.4-7.4-.8-12.3-5.1-23.9-7.1-36-.7-4.6-1.8-9.2-2.7-13.7 5.5-7.1 1-15.6 3.6-24.1 5.8 12.4.7 25.2 5.4 36.8 0-6.2 2-12.2 2.2-18.7 4.2.6 5 3.6 6.1 6.2-.8 2.2-2.5.4-3.5 1.2-.8 1.3-1.6 2.7-1.6 4.3v26.3c0 2.9 1.1 4.7 4.4 4.6 2.2-3.5 0-7.5 1.5-11.3 5.1 6-1 12.3 1.3 18.6 1.8-1.6-.4-5.6 3.4-5.8z"/>
    <path fill="#283050" d="M1121 535.7c2.5 7.3 2.5 14.2 2.5 21.2.1 15.7-7.4 28.7-13.7 42.3-2.9 6.2-5 12.9-6.8 19.6-5.3 20.1-14.2 38.5-25.2 56-.5.8-1.2 1.3-2.8 1-.2-4.5 3.3-7.6 5.3-10.8 10.3-16.7 16.5-35.2 22.2-53.7 1.7-5.6 3.9-10.9 6.5-16.1 4-8.2 8.3-16.3 10.2-25.4 2.2-10.1 2.2-20.2.2-30.2-.1-1.2-.5-2.3 1.6-3.9z"/>
    <path fill="#272E4C" d="M1293 530c-2.1 1.8-3.5 3.5-4.1 6.5-1 6-2.5 12.1-6.1 17.5 2.6-16 8.3-31.6 7.7-49.4-7.6 8.9-13.4 17.7-20.2 25.8.7-4.3 2.3-7.7 4.9-11.2 6.5-8.5 12.1-17.7 18.1-26.6 2.1-3 .7-6.6 1.8-10.6 4.8 8.4-.1 16.4.6 24.1.8 7.9-1.8 15.5-2.7 23.9z"/>
    <path fill="#283050" d="M1131.3 685.7c-4.1-.3-8.3 1.3-12.2-1.1-2.1-3.9-3.3-8.3-6.5-11.3-1.8-.8-2 2.2-3.7 1-1.8-2 2-4.5-.5-6.7-2.2-1.9-1.4-4.4-.9-7.3 5.1 1.5 4.6 7.7 9.1 9.5 3.8 1.5 6.7 5.1 11.4 6.5-.1-6-2.7-10.9-3.8-15-1.7-3.4-5-1.5-6.4-4.2 1.1-3.8 4-1.9 6.2-2 3.8 3.9 3.4 9.6 7.4 13-.1 5.9-.1 11.7-.1 17.6zM1051.2 653.2c-2.6-.8-2.2-2-2-3.1 4.2-17.5 6.9-35.2 10.4-52.9 4-20.5 4.8-41.2 4.2-62-.1-2.1-.6-4.3 1.2-8 2.7 14 2.2 26.8 1.1 39.2-2.5 29.4-8.4 58.1-14.9 86.8zM1264.7 533c-.3 2-2.8 1.2-3.4 2.8-2.4 7.4-1.1 15-1.4 22.6-4.7-13.2-8.3-26.4-7.9-40.5 3.3 7.1 2.5 15.3 5.6 23 5.1-22.4-2-43.5-5-65.1 3.5.9 2.5 3.4 3 5.2 2.9 10.1 4.4 20.4 5.3 30.8.4 5.1 1.6 10.2 1.1 15.3-.2 2.8 3.1 3.4 2.7 5.9z"/>
    <path fill="#272E4C" d="M1312.2 563c.5-2.5-3.1-2.9-2.7-5.4 6.2-2.4 12.6-4.2 17.8-8.9 5.1-4.5 11.8-3.4 18.4-3.3 3 1.6 5.8 4 10 4.2 3.7.1 4.6 2.2 4.4 7.6-4.5-.9-7.2-5.2-12-6.3-3.3 1.7-7.4 1-11.3 1.8-6.3 1.2-11.6 4.6-17.2 7.3-2.5 1-4.6 2.8-7.4 3z"/>
    <path fill="#DDDCD9" d="M963.8 610.2c-.9 5.9 4 9.7 5.8 14.6 1.5 4.1 3 8.2 4.4 12.4 5 14.7 9.7 29.6 15.7 44 1.5 3.7 2.5 7.5 3.8 11.3-2.3.4-2.6-2-4-2.7-.2-1.4.4-3.1-1.4-4-1.1-4.3-2.4-8.4-5.6-11.9-3.1-3.6-4-8.5-5-13-3.3-15.3-8-30.1-15.1-44.1-1.6-3.1-2.4-6.5-3.6-9.8 2.1.6 4 1.2 5 3.2z"/>
    <path fill="#283050" d="M1027.3 572.3c-1.3.2-2.6.5-3.8.7-.3-.9-.9-1.9-1.8-1.7-9.3 2.3-18.7.4-28.2 1.3-2.8 2.4-4.4 6.5-9 7.7-.2-3.7 3.3-4.5 4.3-7.7-10.1-3.2-21.4-3.1-30.8-9.1 11.4 1.9 22.4 5.7 34 6.1 11.8.3 23.6.7 35-1.6 1.5 1.8 0 3 .3 4.3z"/>
    <path fill="#272E4C" d="M1331.8 603.9c-1.1.2-2.1.1-2.5-1.2 3.1-3.4 8.2-3.3 12.3-7.4h-13.7c4.8-6 12.1-1.6 14.9-6.5 6.1-.7 11.1 0 15.8 1.7 1 1.5.8 2.7.2 4.2-9.6 1.4-18.6 4.4-27 9.2z"/>
    <path fill="#283050" d="M1157.9 496c-2.2 1-2.9-.4-3.5-1.5-4-6.9-6.4-14.2-5.7-22.4.4-4.2 2.7-7.1 4.9-10.1 4.5-6.2 11.4-9.8 17-14.9.4 4.3-3 5.8-5.5 7.8-4.7 3.8-9.4 7.7-12.1 13.3-3.8 7.8-1.7 15.1 2.3 22.1 1 1.9 2.6 3.4 2.6 5.7zM1255.3 457.9c4.4.6 4.6 3.5 5.5 5.8 9.2 24.3 11.6 38.4 7.8 48.1-2.2-6.6-.1-12.9-1.6-18.9-1.5-5.8-2.3-11.8-4.2-17.5-1.9-5.7-4.7-11.2-7.5-17.5zM1152.9 685.7h-2.8c-.4-1.3-2.3-1.4-2.6-3.6.7-5.5 2.9-11.3 3.6-17.5 3 5.1 1 10.7 2.1 16.2 7.8-3.1 13.9-9.1 21.4-12.7 1.5 2.5-.4 2.7-1.3 3.4-6 4.3-12 8.4-18.7 11.6-1.3.6-1.6 1.4-1.7 2.6z"/>
    <path fill="#101115" d="M1032.9 530.4l-.3 29.5c-1.2.5-1.2 2.4-2.9 2.5-1.8-.9-1.2-2.7-1-4.1 1.7-9.5 1.6-18.9.1-28.4-.4-2.8 0-5.8-.1-8.7 0-1.9.7-3 2.6-3.1.4.5.8 1 1.3 1.5.1 3.7.2 7.3.3 10.8z"/>
    <path fill="#283050" d="M1087.6 582.9c11.7-15.9 18.8-32.5 18.2-52.5 6.9 9-6.6 48.1-18.2 52.5zM982.2 581.4c-7 7.7-15.4 13.2-25.5 16.2 8.4-5.5 16.7-11.3 25.5-16.2zM1273.3 493c2.6-6.7 6.6-12.6 12-17.4-.8 4.3-6.9 13.3-12 17.4zM1172.1 444.8c3.9-5.8 5.8-12 5.5-19 4 6.5 1.9 13.9-5.5 19zM1302.7 456.3c-4.9 2.8-6.1 9.1-12.3 12.9 2.6-7.2 6.8-11.3 10.5-15.7 1.6 1 1.7 1.9 1.8 2.8zM1289.6 469.8c.7 1.7.4 2.5-.4 3-.5.3-1.1.5-2 .8-.8-2.4.6-3 2.4-3.8zM1079.3 592c.6.4.6.9 0 1.4-.7-.5-.7-1 0-1.4z"/>
    <path fill="#DDDCD9" d="M958.8 607c-1 .3-1.5-.2-1.6-1.1.8 0 1.3.4 1.6 1.1z"/>
    <path fill="#2C3455" d="M1324.3 598.2c-.9-.1-1.4-.6-1.5-1.4.8.1 1.2.6 1.5 1.4z"/>
    <path fill="#F6F3E0" d="M1215 357.7c-1.2 8.1-3 16.1-2.8 24.3 0 1.2-.3 2.2-1.4 2.8-6.9-3.8-13.7-7.6-21.7-8.2s-16.1-.8-24.1.5c-10.6.7-20.9 2.9-31.2 5.1-3.1.6-6.6 1.5-8.2 5.1l-.1-.1c-1.7.1-2.5 1.1-2.7 2.7l-.2-.1c-2.7 1.4-3.6 4.7-6.3 6.2-7-10.8-5.9-23-5.4-35 .3-8 1.5-15.9 3.8-23.6.3-1.1.5-2.2 1.7-2.7l2.4 2.1 4.5 7.2c-.8 4.1 1.2 8.9-2 11.9-2.8.8-2.9-2.1-5-1.5-.3 2.8-.9 5.7 2.4 7.3 4.6-1.7 4.3-1.8 6-5.3 1.3-2.6-.2-5.8 2.3-8l.3-.2c1.3 2.1 2.5 4.2 3.9 6.5-1 1.7-2.5 3.5-1.4 5.8-1.2 3.1-5.6 3-6.6 7.1-.1 2.5-.5 5.6.4 8.6 2.6 2.6 6 4.3 9.1 2.7 4.9-2.4 10-4.7 13.8-8.9.8-.9.9-2 1-3.1 3.4-.3 6.7.4 10 1 14.7 2.8 29.1-.8 43.9-1-.7-3-2.6-2.2-4-2.3-13-.4-26-.8-39-1.1-7.6-.2-15.2-.9-22.8.2-.1-1.2-.2-2.5-.3-3.7 3.9-1.6 7.7-5.3 11.9-.9 8.8-2.9 16.8 1 26.7.8 7.7-2.2 17-5.5 27.1-2.5 3.3 1 6.6-.7 9.8-1.3 1.7-.3 2.9.7 4.2 1.6z"/>
    <path fill="#101115" d="M1151.1 261.7c-9.5 4.5-19.7 6.1-30.1 7.1 9.4-4.6 19.8-5.5 30.1-7.1z"/>
    <path fill="#A1A09C" d="M1127.1 348.4c-2.4 2.2-1 5.4-2.3 8-1.7 3.5-1.4 3.6-6 5.3-3.3-1.6-2.7-4.5-2.4-7.3 2-.6 2.2 2.3 5 1.5 3.1-3 1.2-7.8 2-11.9 1.4 1.4 3.2 2.3 3.7 4.4z"/>
    <path fill="#101115" d="M1154.8 252.7c-.2 3.1-2.2 2.8-3.5 3.2-4.6 1.3-8.7 4.3-13.9 4 4.8-5 11.4-5.4 17.4-7.2zM1146.1 314c-2-5-.1-10.4 5.5-15.5.2 3.4-1.3 7.7-5.5 15.5z"/>
    <path fill="#E8E5D3" d="M1318.8 691.2c3 .4 6.2-.7 9 .7 1.1 3.7-1.7 4.5-3.9 5.4-2.8 1.2-5.8 2.3-8.8 3-5.7 1.3-9.3 4.9-11.9 9.9-1.2 2.4-2.7 4.6-5.2 5.8-1.7-1-.2-3.1-2.1-4.4-2.5 1.5-5.3 3.2-8.1 4.8-1.4 0-2.8 0-4.2.1.1-2.6 2.5-2.8 4.1-3.7 2.3-1.3 4.8-2.2 6.5-5.1-.2-2.6 1-5.4 1.6-8.4.7-.2 1.2-.6 1.3-1.3 1.1 0 2.2-.1 2.7-1.4 6.1-3.3 12.6-4.1 19-5.4z"/>
    <path fill="#36406A" d="M1158.2 233.5c.5-.8 1-1.3 2-.8-.1 1.2-1.1.8-1.8 1l-.2-.2z"/>
    <path fill="#FBF4CD" d="M1135.3 360c.1 1.2.2 2.5.3 3.7-.3 1.9.9 2 2.3 2.1 3.2.2 6.5-.7 9.6 1-.1 1.1-.2 2.2-1 3.1-3.8 4.2-8.9 6.5-13.8 8.9-3.1 1.6-6.5-.1-9.1-2.7-.9-3-.5-6.2-.4-8.6 1-4.1 5.4-4 6.6-7.1 2.1.3 2.3-1.6 3.2-2.7 1.3.3 1.4 1.8 2.3 2.3z"/>
    <path fill="#625E45" d="M1215 357.7c-1.2-.9-2.4-1.9-4.1-1.5.5-7.6 6.2-10.6 12-13.6l.5.5c-.6 4.2-2.7 8.2-2 12.6.1.5-1.1 1.3-1.6 1.9-1.4.1-1.8-1-2.3-1.9-1.5.1-1.5 1.6-2.5 2z"/>
    <path fill="#625E45" d="M1222.8 342.6c.3-.3.5-.6.8-.9.9.7.2 1-.3 1.3-.2 0-.4-.2-.5-.4z"/>
    <path fill="#FBF5D1" d="M992.2 741.1c.3-2.3-1.6-3.6-2.7-5.2-4-6.2-6.6-13.1-8.7-19.8-2.8-1.3-4.8.1-6.4.7-4.2-.6-6.2-3-7.7-6.3-1.8-3.9-3.7-7.7-5.7-11.5-1.5-2.8-2.2-6.4-6.3-7.2-1.6-.3-2-2.4-2.6-3.8-5.7-13.6-13.2-26.4-17.7-40.5-1.6-4.9-1.6-9.9-2.9-14.6 2.6-2 3.6-.4 4.4 1.3 2.4 5.3 5.1 10.5 7.2 15.9 6.4 15.8 14.4 30.8 24.1 44.8 4.7 6.7 9.5 13.6 16.1 19.1 5.2-.5 9.3 2 12.6 6.1 3.1 3.9 7.7 6.2 11.1 9.7 1.7 1.7 4.1 3 4 5.9-1.8 0-3.6.1-5.4-.1-1.7-.2-3.4-2.1-5.4.6 9.2 3.8 17.8 2.8 26.2-.8 2.9-1.3 5.6-2.9 8.9-2.3-1.6 5.2-4.3 9.2-10.3 9.4-2.2 0-1.1-2.9-2.8-3.2-3.2 1.8-4.9 4.5-5.5 8 .4 1.9.7 3.9 1.1 5.8-1.3 3.2-.7 4 4 5.6.1 2.6-.2 5-4 5.4-5-3.7-10.3-7.4-14.9-12.2.2-2.7-.6-4.6-3.3-5.7-2.7-1.2-5.3-2.8-7.4-5.1z"/>
    <path fill="#D3D1C2" d="M1035.4 733c-3.3-.5-6 1.1-8.9 2.3-8.4 3.6-17 4.6-26.2.8 2-2.8 3.7-.8 5.4-.6 1.8.2 3.6.1 5.4.1 4.3.5 8.6 0 12.3-2.1 8.9-5.1 17.8-3.7 26.8-.5-2.8 2.5-5.9 1.5-8.9.7-2-.4-3.9-.7-5.9-.7z"/>
    <path fill="#FDFDFD" d="M967.8 722.3c1.3.5 1.4 1.6 1.4 2.7-1.2-.6-1.3-1.6-1.4-2.7zM966.5 720.9c.7.2 1.2.6 1.4 1.4-.7-.2-1.2-.7-1.4-1.4z"/>
    <path fill="#FDFDFD" d="M965.2 719.6c.7.2 1.2.6 1.4 1.4-.8-.3-1.3-.7-1.4-1.4zM963.7 718.2c.8.2 1.2.6 1.4 1.4-.4-.5-.9-.9-1.4-1.4z"/>
    <path fill="#36406A" d="M1209.1 386.2c1.3 3.5 5.9 5 5.7 9.4-1.4 1.8-3.4 1.1-5 1.2-9.9.1-19.8.2-29.7.1-20-.2-39.9 2.3-60.1.9.1-2.9 4.9-4.5 2.7-8.1l.2.1c2.4.6 3.3-.3 2.7-2.7l.1.1c.9 0 1.9.4 2.6.1 13.3-6.3 27.9-5.9 42-8.2 4.2.1 8.1-1.6 12.5-1 9.2 1.5 18.1 3.5 26.3 8.1z"/>
    <path fill="#242425" d="M1209.1 386.2c-8.2-4.6-17.2-6.7-26.4-8-4.3-.6-8.3 1.1-12.5 1-1.1-2.2-4-.2-5.3-2.1 8-1.3 16-1.2 24.1-.5 8 .6 14.9 4.5 21.7 8.2.1.4.2.8.4 1.1-.6.1-1.3.2-2 .3z"/>
    <path fill="#DDDCD9" d="M1318.8 691.2c-6.4 1.3-13 2.1-18.8 5.4-1.1 0-2.2.1-2.7 1.4-.7.2-1.2.6-1.3 1.3-2-.2-3.6 1.8-5.7 1.2.5-2.8 2.8-4.1 4.8-5.5l24-7.2c.8-.3 1.7-.4 2.6-.6.4 2.2-2.1 2.5-2.9 4z"/>
    <path fill="#D3D1C2" d="M1277 703.4c-3.2 3.4-6.4-1-9.6-.1.8-2.2-.6-4.9 1.3-6.8l-.1-.1c1.1 1-.3 2.5 1.3 4.2 1.9.6 5.7-.7 7.1 2.8zM1286.3 703.1c-.4 1.7-1.3 1.9-2.5.7.8-.3 1.7-.5 2.5-.7zM1268.8 696.4c.3-.1.5-.2.5-.2h-.6l.1.2z"/>
    <path fill="#36406A" d="M1275.9 773c-13.6 6.2-27.4 10.5-42.5 6.8 13.6-6 27.8-8.2 42.5-6.8z"/>
    <path fill="#DDDCD9" d="M1321.6 687.1c10.4-11.4 15-25.6 20.2-39.6 3.3-8.8 6.6-17.5 10.1-26.2.9-2.2 1.1-5.6 4.7-5.8-4.3 13.6-10.1 26.5-15.1 39.8-3.6 9.5-7.3 19.1-13.1 27.7-1.7 2.5-3.4 4.6-6.8 4.1zM1413.4 615.6c-.3.9-.9 1.2-1.9 1 .3-1.3 1.2-.9 1.9-1z"/>
    <path fill="#FEFEFE" d="M954 635.4c-4.8.2-5.5-3.6-7.1-6.2-3.9-3.6-8.1-3.3-12.6-1.2-4.6-5.7-5.9-12.5-9.1-18.8 16.4 4.3 28.5 13.5 28.8 26.2z"/>
    <path fill="#FBF5D1" d="M988.1 685.8c1.8.9 1.2 2.6 1.4 4-3 3-6.8 3.1-11 2.6-8.4-4.4-12.5-12.3-15.3-21.3-2.5-8-4.7-16.1-5.7-24.6 3 3.9 3.9 8.7 5.4 13.3 1.7 5.1 3.9 9.7 7.8 13.7 3.5 3.6 5.8 8.4 9.3 12.3h8.1z"/>
    <path fill="#36406A" d="M1032.9 530.4c-.1-3.6-.2-7.1-.4-10.7 2.4-1.7 1.5-4 1-6-.5-2.1-1.3-4.2-2.1-6.3 1.8-.8 3 .4 4.8.8v25.2c-1.3-.4-.9-3.3-3.3-3z"/>
    <path fill="#625E45" d="M1147.5 366.9c-3-1.7-6.4-.8-9.6-1-1.5-.1-2.6-.3-2.3-2.1 7.6-1.1 15.2-.3 22.8-.2 13 .3 26 .7 39 1.1 1.4 0 3.3-.7 4 2.3-14.8.1-29.2 3.7-43.9 1-3.3-.7-6.6-1.4-10-1.1z"/>
    <path fill="#101115" d="M1165 377.1c1.3 1.9 4.1-.1 5.3 2.1-14.1 2.3-28.7 1.8-42 8.2-.7.3-1.7 0-2.6-.1 1.5-3.6 5.1-4.4 8.2-5.1 10.2-2.2 20.6-4.4 31.1-5.1zM1125.6 387.2c.6 2.4-.3 3.3-2.7 2.7.2-1.6 1-2.6 2.7-2.7z"/>
    <path fill="#F6F3E0" d="M1297.3 697.9c.5-1.2 1.6-1.3 2.7-1.4-.5 1.4-1.6 1.5-2.7 1.4zM1295.9 699.3c.2-.7.6-1.2 1.3-1.3-.1.7-.5 1.1-1.3 1.3z"/>
  </g>
</svg>
