<?xml version="1.0" encoding="utf-8"?>
<!-- Generator: Adobe Illustrator 23.0.1, SVG Export Plug-In . SVG Version: 6.00 Build 0)  -->
<svg version="1.2" baseProfile="tiny" id="svg-7" xmlns="http://www.w3.org/2000/svg" xmlns:xlink="http://www.w3.org/1999/xlink"
	 x="0px" y="0px" viewBox="0 0 1920 1080" xml:space="preserve">
<g id="svg-7-boy">
	<g>
		<path fill="#292C44" d="M821,654.8c-2-5.2-7.3-8.5-8.4-14.3c0.2-4,4.8-6.9,2.5-11.5c-2.2-3.7-4.1-6.5-9.5-7.9
			c-4.4-1.5-2.7-4.6-1.5-7c1.3-2.8,3.3-5.2,5-7.8c0.8-1.2,1.5-2.5,1.8-3.8c2.1-0.2,3.9-0.7,5.8-1.5c0.1,0.1,0.1,0.3,0.2,0.4
			c10.7-5.5,22.8-5.5,35.2-7.2c-1.8-22.4-6.9-43.6-5.6-65.1c-0.1,0-0.2-0.1-0.4-0.1c0.3-1.1,0.2-2.3-0.2-3.5
			c0.6-1.8,0.5-3.7-0.2-5.2c0,0,0,0,0,0c0.1-1.3,0.2-2.5,0.3-3.8c0.1-0.6,0-1.1-0.2-1.7c1.3-3.6-0.7-8.3,3-11.2
			c-0.1-7.2-1.4-14.1-5.5-20.3c-1.5,0-2.9,0-4-1.7c-2-3.2-4.8-6-6.5-9.3c-5.9-11.5-14.9-20-24.9-27.7c-5.8-4.5-11.6-9.1-17.4-13.6
			c-5.5-4.3-11.6-7.6-18.2-9.8c-4-1.3-8.1-2.3-11.4-5c-5.7,1.7-10.8-0.3-15.5-2.4c-6.2-2.8-12.5-4.5-19.3-4.8
			c-1.7,0-3.4-0.8-5.2-1.2c-3.8,0.9-7.7,1.8-11.6,2.8c-6.3,1.6-12.1,4.3-17.7,7.7c-5.4,3.3-11.1,6.4-17.7,7.3
			c-3.4,0.5-5.8,4.1-9.4,4.2c-4.4,6.3-9.6,10.9-17.7,10.4c-5.9,1.5-10.2,5.3-14.3,9.5c-7.1,7.1-13.1,15-17,25.5
			c-0.1,8.5,1.4,18.2-3.8,27.1c-0.4,0.5-0.2,1.3-0.3,2c-0.5,6.2-1.9,12.3-0.2,18.6c0.9,3.7,0,7.5-1.6,11.1c-1.8,4-3.1,8.1-2,12.4
			c2,7.6,1.7,14.9-1.6,22c0.2,0.4,0.5,0.8,0.7,1.1c-0.8,2.2-0.7,5.1,1.4,6.4c-0.5,3.9,0.5,8-2.2,11.5c0.8,1.3,1.5,2.4,2,3.3
			c-0.1,3.5-3.9,6.2-3.5,10.1c4.5,1,9.8,1.3,14.2,0c1.7,0.1,2.4-0.9,4.1-0.8c0.2,0.2,0.3,1.5,0.5,1.9c2.3,0.7,5.6,0.9,7.9,0
			c0-0.3,0-1.5,0-1.8c2.2,0,3.3,0,5.5-0.1c0.2,0.4,0.4,1.8,0.5,2.2l1.3-0.3l-0.2-0.4c4-0.6,8-0.1,11.9,0.8c1.4,1.2,2.2,1.1,4,2
			c-2.5,5.4-1.9,11.3-1,16.8c0.9,6.2,1.5,11.8-1.5,17.5c-0.7,1.3-0.6,3.1-0.9,4.6c1.3,2.3,3.1,4.3,3.4,7.5
			c-0.9,4.9-5.2,8.4-6.8,13.3c0.2,0.3,0.3,0.5,0.5,0.7c-0.5,1-0.6,2.2-0.4,3.3c0,0.1-0.1,0.2-0.1,0.2c0,3.8,0,7.5,1.1,11.3
			c1.4,4.8-1.1,9.6-1.3,13.8c4.1,8.3,13.6,9.6,18.2,16c3.2,0.7,6.5,1.5,10.1,2.3c1.6,4.1,6.7,5.4,10.6,5.9c9.5,1.2,17,6.5,24.8,11.1
			c11.6,6.9,23.8,8.8,37.1,7.2c10.1-1.3,20.3-2.1,30.3-4.4c4.7-1.1,9.4-2.3,14.1-3.8c4.4-1.4,8.7-4.1,13.6-4.1
			c4.3,0,7.7-2.9,10.5-6.4c1.2-1.5,1.5-4.4,4.5-4.1c0-1.5-0.7-3.1,1.1-4.1c0.1-7.8,1.2-15.8,0-23.4c-1.4-9-1.3-17.7,0.6-26.4
			C821.9,657.8,820.7,656.6,821,654.8z"/>
		<path fill="#292C44" d="M821,713.1c0,0-0.1,0-0.1,0C820.9,713.1,820.9,713.2,821,713.1L821,713.1z"/>
	</g>
	<path fill="#FBF8E2" d="M791.1,897.7c0.7-3.1-1.7-4.9-3-7.1c-1.2-2.1-3-3.8-2.5-6.5c16.9-1.2,33.1-5.3,48.8-11.7
		c1-0.4,2.2-0.5,3.3-0.7c1,0.5,1.9,1.3,1.8,2.5c-0.4,4.4,1,8.5,1.5,12.8h-8.2c-2.4,1.6-4,3.1-5.1,5.2c-0.2,2.2-0.5,4.4,0.5,7.1
		c7.7,6.3,12.2,14.8,13.2,25c0.9,8.8,1.5,17.7,2.3,26.6c0.3,3.1,0.2,6.2,0.6,9.3c1.3,9.2,3.3,18.4,3.5,27.7c0.1,5-2.1,9.6-1.6,14.4
		c-1.7,1.9-3.2,3.5-5,5.5c-0.9,8.8-5.3,18.4,3.1,26.2c3.2,0.1,5.6,0.4,8.2-0.2c3.1-2.2,4.6-5.2,4.8-9.1c0.2-3.1-0.3-6.9,4-8.2
		c-0.6,14,0.7,27.8,5,41.2c0.9,2.8,0.3,6.7,0.4,9.6c-4.7,3.1-10.6,1-15.2,4.1c-4.1-1.9-7.9-3.7-11.7-5.5
		c-0.8-20.3-6.4-42.2-13.2-62.1c-7.4-21.4-17.8-41.8-22.9-63.9c3.5-13.8,1.2-26.3-7.2-37.6C794.7,900.2,794.2,897.8,791.1,897.7
		L791.1,897.7z M843.9,597.8c-0.1,6.1-1,12.2-3.9,17.5c-5.4,10.1-9.3,20.7-12.9,31.5c-1,2.9-2.1,7.7-6.1,8.7
		c-2-5.2-8.4-9.5-9.4-15.3c0.2-3.9,4.8-6.9,2.5-11.5c-2.2-3.6-6.1-4.7-9-7.7c-0.4-3,1.4-5.3,3.4-7.3c2.3-2.2,3.3-4.6,4.8-7
		c9.5-4.3,19.1-9.2,29.8-8.9H843.9z"/>
	<path fill="#111112" d="M826.1,1080c0.2-4.9,3.2-9.3,2.6-14.7c2.8-0.8,3.3-4.6,6.8-4.5c1.3,1,2,2.9,4.1,2.8
		c3.8,1.8,7.7,3.6,11.7,5.5c4.6-3.2,10.6-1,15.2-4.1c1.7-0.1,2.9-1.2,4.2-2c1.1-0.2,2.1-0.4,3.2-0.5c1.9,5.9,2.3,11.6,2.1,17.5
		L826.1,1080L826.1,1080z M687,1069.3c2.7,3.3,6.7,5.8,6.8,10.7H656c2.4-2.5,1-5-0.2-7.3c-1.6-3-1.7-5.9-0.3-9c1-1.9,3-1.7,4.3-2.6
		c2.1,1.1,3.8,2.1,5.6,3C672.6,1065.9,679.8,1067.6,687,1069.3L687,1069.3z"/>
	<path fill="#575105" d="M673.7,357.6c-0.4-2.6-0.9-5.2-1.3-7.6c-0.9-1.5-3.1,0.9-3.3-3.2c1.4-7-0.6-15.6,0.1-24.4
		c0.6-7.8,3.1-13.7,10.4-17.4c4.9-2.5,9.5-5.3,13.7-9.2c3.6-3.4,9.3-5,14.5-6.4c13.2-3.5,24.5,0.9,35.2,8c2.5,1.7,4.4,4.6,8.1,3.6
		c5.7,5.5,9.7,11.9,13.2,19.2c-2.1,5,1.6,9.5,1.8,14.6c-4.6,4.9-5,11.7-4.4,17.5c0.8,7.9-1.5,14.4-4.6,21.1
		c-0.3,0.6-0.6,1.2-1.1,2.3c-4.7,2-8.2,6-11.2,10.4c-0.7,0.2-1.5,0.5-2.2,0.7c-2.9,2.1-6.8,1.8-9.9,4.2c-1.2-1.3-3-0.7-4.7-1.8
		c-1.5-3.1-4.4-4.9-7.9-6.2c-8.8-3.3-17.2-7.5-24.9-13c0-1.2-1-1.9-1.6-2.7c0.1-3.3,0.3-6.7,0.4-10c0.3-8.3-3-12.1-11.8-13.6
		c-0.1,0.6-0.3,1.3-0.3,1.9c-0.2,5.4,4.7,8.8,5.6,13.7c-2.8-0.4-5.5-0.4-7.9,2.1C678,358.8,675.2,359.5,673.7,357.6L673.7,357.6z"/>
	<path fill="#FBF8E2" d="M687,1070.6l-21.6-5.1c0-0.6,0.1-1.1,0.1-1.7c2.1-1.4,1.2-3.7,1.3-5.6c0.6-12.9-3.9-25-6-37.4
		c-1.7-9.9-4.3-19.8-3.1-29.7c1-8.1,0.9-16,1-24.1c0.2-13.2,0-26.5,0.1-39.7c0-2.4,0.4-4.8,0.8-7.3c1.1-7.1,3.7-13.7,4.7-20.8
		c9.3,0.3,18.6,0.1,27.8-1.7c6.7-1.3,13.4-2.8,20.1-4.2c2.3,1.2,3,3.3,3.3,5.6c-4.2,2.4-5.6,6.6-6.7,10.9v1.3
		c-2.9,1.7,0,5.2-2.3,7.2c-1.8-6.2,0.9-12.3,0.1-18.6c-2,3.9-3.2,8-3.2,12.4c0.1,8.7,0.1,17.4,1,26.1c1,9.7,2.3,19.5,3.4,29.2
		c1.5,13.1,1.4,26-2.2,38.4c-2.9,10.2-5.7,20.6-11.8,29.6c0-1.6-0.2-3.2,0.1-4.7c2.2-10.3,3.4-20.8,2.5-31.2
		c-1.2-12.3-1.2-24.6-1.2-36.9c0-1.1,0.3-2.3,0-3.4c-2-6.9,0.6-15-4.7-20.2c-2.4-7.4,3.6-12.5,3.4-18.5c-2-2.7-4-4.8-6.3-6.4
		c-1.9-0.3-3.7-0.5-5.8,0.4c-3.9,4-8,8.3-9.1,14.5c2.9,2.4,5-0.1,8.3-1.4c-1.9,6.2-3.1,11.6-4.8,16.8c-1.7,5.3,0,11.1-2.5,17.6
		c-2.8-6.3,0.3-11.9-3.3-17.9c-0.9,6.7-1.3,11.9,0,17.1c1.5,6.5,3.9,12.7,3.5,19.7c-0.2,3.7,0.3,7.9,2.1,11
		c2.6,4.6,2.1,9.1,1.1,13.6c-0.8,3.4-1,6.6,0.7,9.7c2,3.6,1.9,7.5,0.9,11.1c-1,3.8-0.9,7.5-0.6,11.2c1.7,1.7,2.9,3.6,5.5,4.6h9.1
		v4.1c-1.3,0.5-2.2,1.4-2.7,3.1C692.7,1056.8,690.6,1063.8,687,1070.6L687,1070.6z M671.1,941.2c1-0.7,1.7-1.6,0-1.9V941.2z"/>
	<path fill="#111112" d="M742.5,386.8c0.7-0.2,1.5-0.5,2.2-0.7c-0.2,2.1-0.4,4.1-0.7,6.2c-0.9,2.7-2.1,5.3-1,8.2
		c1.7,0.5,3.3,1.4,4.9,0.3c0.3-3.1-3.1-4.8-2.8-7.8c9.7,1.6,16.2,6.9,18.8,16.6c0.7,2.5,2.2,4.3,3.6,6.1c3.5,0.6,6.8,1,10.1,1.8
		c3.7,0.9,7.4,2.3,9.8,5.4c7,8.9,16.3,15.3,25.1,22.2c8.6,6.7,16.1,14.1,21.3,23.8c2.7,5.1,6.3,9.7,9.6,14.5c-1.6,0-2.9,0-4-1.7
		c-2-3.2-4.8-6-6.5-9.3c-5.9-11.5-14.9-20-24.9-27.7c-5.8-4.5-11.6-9.1-17.4-13.6c-5.5-4.2-11.6-7.6-18.2-9.8c-4-1.3-8.1-2.3-11.4-5
		c-5.7,1.7-10.8-0.3-15.5-2.4c-6.2-2.8-12.5-4.5-19.3-4.8c-1.7-0.1-3.5-0.8-5.2-1.2c-3.9,0.9-7.8,1.8-11.6,2.8
		c-6.3,1.6-12.1,4.3-17.7,7.7c-5.5,3.3-11.1,6.4-17.7,7.3c-3.4,0.5-5.8,4.1-9.4,4.2c-4.5,6.3-9.7,10.9-17.7,10.4
		c3.2-3.6,8.2-4.4,11.5-7.7c-1-7.1-1.2-14.1-0.9-21.4c5.5-6.2,11.9-10.9,20.1-12.9c1.1,0.7,2,1.1,2.2,2.9c0.5,4.2,2.6,7.3,7.1,8.2
		c1.4-0.6,2.5-1.3,2.9-2.6c13.6-4.8,27.4-8,42-6.8c3,0.2,6.2,0.9,9.4-0.5C740.8,394.9,743.8,391.1,742.5,386.8L742.5,386.8z"/>
	<path fill="#FBF8E2" d="M623.6,601.1c2.3,0.7,4.6,0.8,6.9,0c2.3,0.1,4.7,0.3,7,0.4l0.3-0.3l-0.2-0.4c3.1,2.9,8.3,1.1,11.7,5.2
		c-1.5,19.5,1.6,39.8-4,59.5c-0.1,0.4-0.1,0.9-0.2,1.3c-1.5,5.7-0.1,11.3,0,16.9c0.1,2.3,1.3,4.8-1.1,6.8c-0.7-1.7-1.2-3.7-2.9-4.8
		c-0.2-4.8-2.6-9-4.6-13.1c-9.6-20.1-19.2-40.3-26.6-61.3c-0.6-1.8-1.1-4.1-3.9-3.9c0.9-1.4,1.8-2.8,2.7-4.3
		C613.6,601.2,618.9,603.2,623.6,601.1L623.6,601.1z"/>
	<path fill="#2F2F2F" d="M711.8,893.5c-6.7,1.4-13.4,2.9-20.1,4.2c-9.2,1.8-18.5,2-27.8,1.7c-0.5-0.2-0.9-0.3-1.4-0.5v-3.2
		c27.8-0.1,61.3-6.1,70-13.8c1.2-3.5,0.1-7-0.7-10.4c-2.9-12-5.9-24-3.2-36.5c1.5-7.1,1.6-14.2,0.6-21.4c-1-7.4,0.3-14.6,4.6-21
		c2-3,3.6-6.3,3.9-9.9c1-15.5,7-29,15.6-41.6c0.9-1.3,1.1-2.4-0.4-3.3c0.7-0.7,2.6-1.7,3.6-1.6c-0.1,3.1,5.7-0.6,4.8,2.4
		c-14.5,13.4-19,30.5-20.2,47.9c14.8,25.9,25,52.8,25.7,82.8c0.2,8.5,2,10.7,10.6,11.8c1.1,0.1,2.2,0.2,3.4,0.2
		c21.1,0.3,40.6-6.2,59.7-14.2c2.3-1,4.3-2.5,5.9-5.7c-4.2-23.7-7.3-48.3-10.8-72.9h2c4.2,23.3,7.9,46.6,10.9,70.1
		c0.8,5.9-2,9.2-6.7,11.7c-1.4,0.5-3.1,0.4-4.3,1.5c-1.1,0.2-2.3,0.3-3.3,0.7c-15.7,6.3-31.9,10.5-48.8,11.7c-0.9,0-1.8,0-2.6,0.1
		c-2.6-0.7-5.2,0.7-7.9-0.2c-9.6-3-10.6-4.1-11.2-14.6c-1.7-28.5-10.3-54.8-24.8-79.5c-4.6,6.4-7.3,12.8-5.7,20.8
		c1.7,8.5-0.2,17.2-1.9,25.6c-2.1,10.4-0.7,20.5,2.2,30.5c1.5,5.4,3.2,10.8,1.8,17.1C728.9,890.1,719.4,889.6,711.8,893.5
		L711.8,893.5z"/>
	<path fill="#242425" d="M755.8,737.1c-0.9-0.1-1.8-0.1-2.6,0.6c-17.9,2.1-34.9,0.2-50-10.9c-3.9-2.9-8.5-5-13.5-6
		c-3.5,1.5-6.9,3.5-10.8,2.9c-8.2-1.2-16.6-0.7-25-3.1c0.1-4.1-1.7-4-5.1-4.1c0,2.4-0.1,4.4,0,6.4s0.1,4.1,0.7,6
		c5.7,17.9,0.9,35.8,0.3,53.7c-1,0.2-2.7,0.3-3.3,0.4h-2.3c-0.3-2.4-0.6-4.9-0.9-7.4c0.6-1.2,1.7-1,2.8-1c3.2-15.1,3.8-30.2,0-45.3
		c-2.4-9.2-0.4-17.7,5.3-25.5c-3-3.9-8.4-6.4-7.7-12.5l0.4-0.2v-0.5c2.4-1.9,1.1-4.5,1.1-6.8c-0.1-5.6-1.5-11.3,0-16.9
		c0.9,0.5,1.9,1,2.8,1.5c0,3.8,0,7.5,1.1,11.3c1.4,4.8-1.1,9.6-1.3,13.8c4.1,8.3,13.6,8.6,18.2,15c3.3,0.8,6.5,1.5,10.1,2.3
		c1.7,4.1,5.8,5.4,9.6,5.9c9.5,1.2,17,6.4,24.8,11.1c11.6,6.9,23.8,8.8,37.1,7.2c10.2-1.2,20.3-2,30.3-4.4c4.8-1.1,9.5-2.3,14.1-3.8
		c4.4-1.4,7.9-3.4,12.8-3.4c4.3,0,8.5-2.7,11.3-6.1c1.3-1.6,1.7-4.7,4.8-4.2c-0.2,1.8-0.3,3.7,1,5.2c1.8,1.1,4-0.7,5.5,0.6
		c-1.8,7.9-2.5,15.7,1.8,22.8c2.6,4.2,4,8.5,3.5,13.3c-0.5,5,0.8,9.8,1.5,14.6c0.4,3.2,2.2,5.8,4.4,8.1c1.8,1.9,3.4,4,5.1,5.8
		c-1.3,3.1-6.7,0.3-6.1,5.1h-2c0.1-2.5-2.5-2-3.3-2.9c1.8-7.9-3.5-13.7-4.8-20.4c0.2-1.6,2.1-1.5,2.6-2.8c0.3-8.2,0.2-15.4-4.7-22.8
		c-1.5-2.3-1.7-5.1-1.6-7.8c0-2.7,0.3-5.4-0.8-7.9c-1.6-0.6-3,1.7-4.9-0.3c-1.3-1.3-3.7-0.8-5.7-0.2c-8.9,2.6-18.1,4.4-26.3,9.3
		c-1.1,0.7-2.7,1.2-3.9,0.9c-4.7-1.1-8.8,0.9-13.2,1.6C764.7,735.8,760.4,737.2,755.8,737.1L755.8,737.1z M651.7,713.3
		c10,3.3,19.6,9.2,31.1,5.8C673,713.4,662.3,713.6,651.7,713.3z M805.6,621c-6.2-1.5-2.6-4.6-1.5-7c1.3-2.8,3.3-5.2,5-7.8
		c2.4-3.6,3.2-7.4,1.1-11.3c-2-4-3.5-8.1-4.3-13.2c1.8-2.9,0.1-7.2,2.5-10.6h2.8c-3.7,10.7,0.6,20,5.6,30.1
		c10.7-5.5,22.8-5.4,35.2-7.2c-1.8-22.4-6.9-43.6-5.6-65.1c-4.9-1.7-9.1-3.1-13.4-4.6c4.8-2.3,8.4,1.4,12.8,1.2
		c0.8-1.9,0.7-3.8-0.1-5.4c-4.7-4.8-10.6-5.8-16.4-7c5.9-3.6,10.6,1.1,16.3,2c1.7-3.7-0.7-8.6,3.2-11.7c0.9,9.6-0.2,19.2-0.1,28.8
		c0.3,20.2,3.8,40,5.9,60c0.2,2.1,1.6,4.5-1.6,5.7c-1.8-0.7-3.6-0.7-5.4,0h-4.1c-10.6-0.3-19.8,4.3-29.4,8.8c-1.4,2.4-3.3,4.9-5.6,7
		C806.7,615.8,805.2,618,805.6,621z"/>
	<path fill="#E8E5D3" d="M837.7,871.7c1.2-1.2,2.9-1,4.3-1.5c-0.6,11.5,4.3,21.1,9.5,30.9c6.2,11.6,10.8,23.9,12.5,37.1
		c1.3,10.4,3.6,20.9,2.3,31.2c-1.1,9.3-1.6,18.7-2,28c-1.1,21.8-2.3,43.9,6.2,64.9c0.2,0.6,0.2,1.3,0.3,2c-1.3,0.8-2.5,1.9-4.2,2
		c-0.1-2.9,0.5-5.8-0.4-8.6c-4.3-13.4-5.7-27.2-5-41.2v-2.6v-4.1v-2.7c-0.9-7.7,2.1-15.2,1.3-22.9c-0.8-5.1,1.9-9.8,1.3-14.8V968
		v-2.6c0.9-7.8-0.5-15.5-1.6-23.1c-0.9-6.4-1.4-13.1-5.2-18.8v-1.3c0-1.1-0.1-2.2-1.3-2.8l-2.7-8.1c-0.4-0.5-0.9-0.9-1.3-1.4v-1.3
		c0-1.1-0.1-2.2-1.3-2.7c-0.2-2.1-0.9-4-2.7-5.4v-1.3c-3.5-3.4-4.3-8.3-6.7-12.2c-0.5-4.2-1.9-8.4-1.5-12.8
		C839.6,873,838.7,872.3,837.7,871.7L837.7,871.7z"/>
	<path fill="#242425" d="M662.8,896.6v2.2c-0.4,0.1-0.9,0.2-1.3,0.3c-4-1-8.6-0.5-11.7-4.2c-1.4-3.8-0.9-7.6,0.2-11.2
		c1-3.2,2.2-6.3,3.1-9.6c1.5-5.9,1.2-11.6-3.2-16.4c-5.2-5.7-7.5-12.5-7.7-20.2c-0.1-5.6-1.5-11.1-3.4-16.4
		c-0.7-1.8-1.9-3.6-1.2-5.8h2.4c4.2-1.5,7.4-4.3,11-6.9c6-4.4,6.9-10.2,2.6-17.4c-1.8,1.9-4.5,2.3-6.4-0.3v-2c2.6-0.4,6-1.9,8.7-1.4
		c5.7,6.6,4.6,18.5-2.1,23.2c-4.2,2.9-8.2,5.8-12.7,9c3.4,5.1,3.4,10.7,3.6,16.3c0.3,8,2.8,14.9,7.8,21c5.1,6,4.9,11.4,3.4,17.8
		c-0.8,3-1.8,5.4-3,8.9c-1,3.2-1.9,6.5-0.1,9.7C655.6,895.9,659.3,895.9,662.8,896.6L662.8,896.6z"/>
	<path fill="#E8E5D3" d="M661.4,899.2c0.4-0.1,0.9-0.2,1.3-0.3c0.5,0.2,1.4,0.1,1.9,0.3c-0.9,7.1-3.7,13.7-4.8,20.8
		c-0.4,2.4-0.6,5.1-0.7,7.6c0,13.2,0,26.6-0.2,39.8c-0.1,8,0.1,16.4-0.9,24.5c-1.2,9.9,1.4,19,3.1,28.9c2.2,12.4,6.5,24.6,5.9,37.5
		c-0.1,1.9,0.3,4.1-1.8,5.6c0.3-7.7-1.9-15-3.9-22.2c-3.1-11.2-4.8-22.5-5.7-34.1c-0.4-5.5-1.8-11-1.2-16.6c2.5-21,0.5-42,1.4-63
		c0.3-7.3,1.8-14.5,4-21.5C660.9,904,661.8,901.7,661.4,899.2L661.4,899.2z"/>
	<path fill="#575105" d="M699.3,389.1c-3.7-0.5-5.9,2.2-9.1,2.8c-0.3-2.4-0.6-4.7-0.8-6.4c-1-3-4.8-1.5-4.6-4.9
		c-1.8,1.3-3.1,2.2-4.3,3.1c-1.3,0.9-2.5,1.7-3.8,2.6c0.2,0.9,0.4,1.9,0.6,2.8l0.9,0.3c-0.3,0.2-0.5,0.4-0.8,0.6
		c0,0.5,0.1,1,0.1,1.5c0.9,0.9,2.5,1.1,2.6,2.8c-1.1,1.3-1.3-0.7-2.7-0.4c-2.8,1.5,0.2,3,0.2,4.4c1.1,0.7,1.9,1,2.1,2.7
		c0.1,0.6,0.2,1.1,0.3,1.7c0.1,1.1,1.3,3.3,1.4,3.4c1,1.5,3.4,3.4,5.3,3.6c0.7,0.1,3.6-1.9,3.2-3.2c0-0.1-0.1-0.2-0.1-0.2
		c-0.2-2.5,1.4-4.4,2.7-6.2C694.7,396.6,697.9,393.7,699.3,389.1z"/>
	<path fill="#D3D1C2" d="M606,607.4c2.8-0.2,3.3,2.3,4,4c7.5,21,17.1,41.2,26.6,61.3c2,4.2,4.4,8.3,4.6,13.1
		c-3.5-1.5-4.3-5.3-5.6-8.1c-7.1-15.2-14.8-30.1-20.6-45.9c-2.4-6.7-6.4-12.8-8.1-19.8C606.5,610.5,606,609.1,606,607.4L606,607.4z"
		/>
	<path fill="#BEBBAB" d="M843.7,597.8h4.1c-2.3,7.2-4.6,14.6-7,21.8c-4.4,6.3-6.6,13.6-9.3,20.7c-1.9,5-3.7,10.1-5.4,15.1
		c-0.6,1.8-1.4,3.3-3.5,3.7c-0.7-1.4-1.9-1.9-1.6-3.6c4-1.1,4.1-5.6,5.1-8.5c3.6-10.8,7.5-21.4,12.9-31.5c2.8-5.5,4.6-11.2,4.7-17.4
		V597.8z"/>
	<path fill="#A1A09C" d="M680.5,383.7c-1.3,0.9-2.5,1.7-3.8,2.6c-1.7-9.5-3.6-18.9-3-28.6c1.5,1.8,4.3,1.2,5.8,3.6
		c2.4-2.4,5.1-2.5,7.9-2.1c1.6,1.2,1.1,2.6,0.4,4c-1.1,2.5-1.2,4.9-0.3,7.2c1.6,1.1,2.8,0.6,4,0.1c-1.7,3.4-4.2,2.1-6.4,1.5
		c-1.5-3,0.5-6.2-1.7-8.7c-3.2-0.6-4.1,2.1-5.8,3.8C678,372.7,677,378.6,680.5,383.7L680.5,383.7z"/>
	<path fill="#2F2F2F" d="M623.6,601.1c-4.7,2-10.1,0-14.8,2.1h-6.3c-1.5-4.5,1.8-7.7,2.6-11.9c-4.6-2.3,2.6-6.6-1.6-9.1
		c1.4-2.7,2.6-4.8,4.7-6.3c-0.5,4,1.2,8.2-1.7,11.8c0.8,1.3,1.4,2.4,2,3.3c-0.1,3.5-4,5.2-3.5,9.1c4.6,1,9,1.3,13.6-0.1
		C620.4,599.4,622.5,598.4,623.6,601.1L623.6,601.1z"/>
	<path fill="#FBF8E2" d="M840.8,619.5c2.3-7.2,4.4-14.4,6.8-21.6c1.8-0.7,3.8-0.6,5.6,0.1c-0.1,3.2,0.6,6.5-1.4,9.4v1.3
		c-2.4,0.8-2.7,3.2-3.9,5C846.2,616.5,844.7,619.5,840.8,619.5z"/>
	<path fill="#2F2F2F" d="M648,788.8v2c-0.6,0.2-1.7,0.4-1.7,0.7c-1.5,8.1-6,15.5-6.3,23.9h-2.4c-0.9-3.7,0.4-7.1,1.8-10.4
		c3.1-7,5-14.3,5-22.1h2.3C647.1,784.9,645.2,787.4,648,788.8L648,788.8z M606.1,568.4c1.5,2.4,3,4.8,6.6,4.7
		c-1.3,2.3-2.7,3-4.5,2.9c0.2-0.6,0.4-1.3,0.7-2c-1.4-2.1-4.3-0.7-5.9-2.3C603.1,569.7,605.4,569.7,606.1,568.4L606.1,568.4z"/>
	<path fill="#D3D1C2" d="M644.1,690.6v0.5l-0.4,0.2c-3.6-0.5-2.3-3.4-2.5-5.4C643,686.9,643.4,688.8,644.1,690.6z"/>
	<path fill="#242425" d="M820.8,713c0-1.5-0.6-3.2,1.1-4.2c0.5,0.6,1.1,1.2,1.6,1.8C823.1,712,821.8,712.3,820.8,713L820.8,713z"/>
	<path fill="#A1A09C" d="M680.2,394.3c-1.2,1.5-1.8-0.6-2.7-0.4c0-0.8-0.1-1.6,0-2.4C677.5,391.5,680.1,392.6,680.2,394.3z
		 M677.3,389.1l0.9,0.3c-0.3,0.2-0.5,0.4-0.8,0.6C677.1,389.7,677.1,389.4,677.3,389.1L677.3,389.1z"/>
	<path fill="#E8E5D3" d="M839.7,1065c-2.1,0.1-2.8-1.8-4.1-2.8c0-1.2,0.1-2.5,0.1-3.7c1.4-0.8,1.2-2.2,1.3-3.6
		c0.8-14.7-4.3-28.1-9.1-41.5c-0.5-1.4-1.5-2.2-3-2.2c-0.1-7.5-2.9-14.4-5.4-21.3c-4-10.9-8.1-21.8-12.4-32.6
		c-3.3-8.3-4.4-16.8-3.9-25.6c0.6-11.8-3.1-22-11-30.7c-0.8-0.9-1.2-1.9-1.2-3.1l0.1-1.1c3.2,0.1,4.7,3.5,6.2,5.6
		c8.4,11.3,10.7,23.8,7.2,37.6c5.1,22.1,15.5,42.5,22.9,63.9C834.3,1023.7,841.3,1040.1,839.7,1065L839.7,1065z"/>
	<path fill="#F6F3E0" d="M693.8,1035.4c6-9,8.8-19.5,11.8-29.6c3.6-12.5,3.7-25.3,2.2-38.4c-1.1-9.7-2.4-19.4-3.4-29.2
		c-0.9-8.7-1-17.4-1-26.1c0-4.3-0.3-7,3.2-12.4c0.8,6.3-1.8,12.4-0.1,18.6c2.2-2-0.6-5.5,2.3-7.2c0.9,5.9-1.3,11.5-1.4,17.3
		c-0.3,14.3,2.2,28.4,3.8,42.5c1.4,12.4,0.3,24.9-3.4,37.1c-3.6,12-8.6,23.4-12.5,35.3c-0.5,1.4-1.3,2.3-2.6,2.8v-4.1
		C692,1039.7,693.8,1037.8,693.8,1035.4L693.8,1035.4z"/>
	<path fill="#FBF8E4" d="M824.9,1011.1c1.5,0.1,2.5,0.8,3,2.2c4.8,13.5,9.9,26.8,9.1,41.5c-0.1,1.3,0.1,3.7-1.3,4.6
		c-4.1-5.8-4-14-5.1-20.5C828.9,1029.6,826.4,1020.4,824.9,1011.1L824.9,1011.1z"/>
	<path fill="#E8E5D3" d="M783,884.2c0.9,0,1.8,0,2.6-0.1c-0.5,2.7,1.3,4.5,2.5,6.5c1.3,2.2,3.7,4,3,7.1l-0.1,0.1
		C785.8,894.8,784.1,889.6,783,884.2z"/>
	<path fill="#F6F3E0" d="M708.7,909c1.1-4.3,2.5-8.5,6.7-10.9v5.6C713.4,906.1,712,908.8,708.7,909L708.7,909z"/>
	<path fill="#090C3B" d="M807.2,697.9c-0.4,6.6-6.7,7.2-10.6,9.8c-6.1,4.2-13.7,5.7-21,6.3c-14.2,1.2-28.4,2.6-42.7,3.1
		c-7.1,0.2-14.1,0.1-21-1.6c-1.1-0.3-2.1-0.7-2.5-2.3c4-0.9,7.9,0.8,11.6,1.4c5.8,0.9,11.4,0.9,17.2,0c5.7-0.9,11.5-1.3,17.3-1.6
		c9.4-0.4,18.7-1.3,27.9-3c4.7-0.9,9.5-2.2,13.3-6.8c-7.9-3.2-14.7,2.1-21.8,1.4c-2.9-1.4-4.7-3.4-3.7-7.5
		c6.5-6.6,12.6-14.5,23.6-15.7c-7.8,5.1-15.2,10.4-18.7,20.3c8.3-1.1,15.9-5.3,22.9,0.1c1.6-0.4,2.9-0.8,4.1-1.1
		C804.5,699.7,805.8,698.8,807.2,697.9L807.2,697.9z"/>
	<path fill="#14161D" d="M645.3,665.6c5.7-19.7,2.6-40,4-59.5c-3.4-4.1-8.5-2.2-11.7-5.2c4.9-0.6,9.7,0.2,14.4,1.4
		c3-4.2,3.6-8.6,3.9-13c0.3-4.1-0.6-8.3,1.4-12.2c1.8,5.7,1.7,11.5,0.9,17.2c-0.4,2.5-0.6,5.4-2.2,7.7c-4.2,6-3.4,13.1-2.5,19.5
		c0.9,6.2,1.5,11.8-1.5,17.5c-0.7,1.3-0.6,3-0.9,4.6c1.3,2.3,3.1,4.3,3.4,7.5c-0.9,4.9-5.2,8.4-6.8,13.3
		C647.1,664.7,646.2,665.1,645.3,665.6L645.3,665.6z"/>
	<path fill="#090C3B" d="M750,660.7c-1.3,1-2.1-0.1-2.9-0.7c-8.6-7-18.4-10.2-29.5-10.8c-15.4-0.9-30.5,1.3-45.7,2.7
		c-4.1,0.4-7,3.7-11.3,3.7c2.8-5.5,24.2-14.2,39.5-15.7c-5.1,5.1-13.3,3.4-20,8.7c11.4-2.3,21.7-2,31.9-2c5.8,0,11.6-0.3,17.3,1.3
		c6.8,1.9,12.9,5,18.5,9.1C749.1,657.9,750.7,658.7,750,660.7z M645.3,665.6c0.9-0.4,1.7-0.9,2.6-1.3c1.3,2,3.9,2.1,5.6,3.8
		c2,2.7,4.1,5.6,4.7,8.8c10.6,2,10.6,2,15,7.1c0.4,1.4-1.2,1.7-1.6,2.9c6.6,3.6,14.9,4,22,10.3c-7.5,0.4-12.9-1.6-17.8-4.3
		c-6.3-3.6-13.2-5.3-20.1-7c-0.8-0.2-1.8-0.1-1.9-1.8c2.6-2,5.2-0.4,8.2,0.5c1.6-0.5,3.4-1.2,5.6-1.9c-3.6-2.6-7.6-3.1-11.7-4
		c-1.6-4.3-3.9-8-8-10.2c-0.9-0.5-1.9-1-2.8-1.5C645.2,666.4,645.3,666,645.3,665.6L645.3,665.6z M802.7,656.5
		c-6.3,2-10.5-0.1-13.9-2.4c-11-7.5-23.4-9.7-36.2-10.1c-11.4-0.3-22.8,0.9-34-2.6c-2.1-0.7-4.3-0.8-5.9-3.4c4.6-0.5,8.3,1.4,12,2.1
		c9.1,1.7,18.3,1.1,27.5,1.2c7,0.1,13.7,1.2,20.5,2.5c3,0.6,5.5,1.9,8.1,3.1C787.4,650.2,793.9,653.9,802.7,656.5L802.7,656.5z
		 M736.3,634.7c11.6-4.5,23.7-2.1,36.5-3.2c1.4-0.3,2.4-2.8,5.1-3.7c5.7,0.4,12.3-1.5,19.1,2.9C776.3,636.1,756.1,633.3,736.3,634.7
		L736.3,634.7z M816.1,699.5c1.5,4.3-0.5,6.4-3.2,7.8c-7.7,3.9-14.7,9.1-22.9,12c-5.4,1.9-11.1,3.2-17,3c-1,0-2.3,0.2-3.1-1.7
		c7.7-2.7,17.8,0.7,22.7-9C802.7,712.7,808,704.2,816.1,699.5z"/>
	<path fill="#101115" d="M815.4,538.6c1.3,0.4,2.1,1.4,2.5,2.4c0.5,2.2-1.4,3.7-1.2,5.7c-4.9,0.5-5.2,4.6-6.5,8
		c0.1,1.6,1.1,2.4,2.3,3v2.5c-2.3,1.9-0.9,4.5-1.2,6.8c-0.5,1.2-1.6,1.4-2.8,1.4c1-6-1.7-11.8-1.3-17.8
		C810.1,546.7,814.4,543.7,815.4,538.6L815.4,538.6z"/>
	<path fill="#090C3B" d="M782.5,661.8c-7.8-0.3-14,6-21.9,5.2c-4.5-0.5-4.8-0.3-8.3-4.2c0.3-0.3,0.7-0.9,0.8-0.9
		c6.5,3.5,12.8,2.5,19.3-0.3C775.5,660.3,779,659.1,782.5,661.8L782.5,661.8z M812.6,560.1v-2.5c9.8-2.8,19.7-5.3,30.1-3.9
		c0.3,1.2-0.4,2.1-1.2,2C831.5,555.3,822.1,558.5,812.6,560.1L812.6,560.1z M808.6,568.4c1.2,0,2.2-0.2,2.8-1.4
		c6.5-3.3,13.3-6,20.4-7.5c1.1-0.2,2.1-0.6,3.6,0.6c-3.5,3.5-8.5,2.7-12.4,4.6c-4,1.9-8.1,3.7-11.7,6.5h-2.8
		C808.6,570.2,808.6,569.3,808.6,568.4L808.6,568.4z M678.3,448.8c-4.9,7.7-8.7,15.8-11,25.1c-1.8-3.9-1.9-4-0.1-8.8
		C669.5,458.7,671.8,452.4,678.3,448.8L678.3,448.8z"/>
	<path fill="#101115" d="M807.2,697.9c-1.4,0.9-2.7,1.8-4.1,2.7v-7.2c3.4-2.7,6.5-5.1,10.5-8.3C812.9,691,807.6,693.2,807.2,697.9z"
		/>
	<path fill="#111112" d="M815.3,538.7c-1.3-0.1-2.7,0.2-4.1-1.6c1.7-6.4,6.5-10.3,12.4-13.1c-0.6,3-2.9,4.7-4.9,6.5
		C816.2,532.7,814.8,535.2,815.3,538.7L815.3,538.7z"/>
	<path fill="#090C3B" d="M823,534.3c6.3-1.7,11.6,0.2,15.8,5.2C833.5,537.8,828.4,535.6,823,534.3z M816.7,546.7
		c5.3,0,10.7-0.7,15.6,2.8C827.2,551.2,818.9,549.6,816.7,546.7z"/>
	<path fill="#14161D" d="M637.5,601.6c-2.3-0.1-4.7-0.3-7-0.4c-0.1-1.7,0.4-2.9,2.3-3C635.3,598,636.8,599.3,637.5,601.6z"/>
	<path fill="#090C3B" d="M681.2,445.6c-0.2-1.6,0.4-1.9,1.3-2.1C683.3,445.2,682.1,445,681.2,445.6z"/>
	<path fill="#F6F3E0" d="M680.5,383.7c-3.5-5.1-2.4-11-2.9-16.6c1.7-1.7,2.6-4.4,5.8-3.8c2.2,2.5,0.2,5.7,1.7,8.7
		c2.1,0.6,4.6,1.9,6.4-1.5l0.3-0.5c1.2-0.9,1.7-1.5,3.4-0.1c7.7,5.5,16,9.7,24.9,13c3.5,1.3,6.4,3.1,7.9,6.2
		c1.7,1.1,3.5,0.5,4.7,1.8c3-2.4,6.9-2.1,9.9-4.2c1.2,4.4-1.7,9.2-1.4,13.4c-3.3,1.5-6.5,0.8-9.4,0.5c-14.6-1.2-28.4,2-42,6.8
		c-0.8-4,1.2-5.5,2.6-7.6c2.3-3.5,4.5-5.4,5.9-10c-3.6-0.4-4.9,2.2-8.1,2.8c-0.3-2.3-0.6-5.7-0.8-7.4c-1.1-2.1-4.8-1.1-4.6-4.6
		C682.9,382.2,681.7,382.8,680.5,383.7L680.5,383.7z"/>
	<path fill="#E8E5D3" d="M691.8,369.9l-0.3,1.5c-1.2,0.6-2.4,1-4-0.1c-0.9-2.3-0.8-5.8,0.3-8.2c0.7-1.5,0.2-2.8-1.4-4
		c-0.9-5-4.8-8.3-4.6-13.7c0-0.6,0.2-1.3,0.3-1.9c8.9,1.5,12.2,5.3,11.8,13.6c-0.1,3.3,0.8,6.7,0.6,10
		C693.5,367.7,692.4,369,691.8,369.9L691.8,369.9z"/>
	<path fill="#A1A09C" d="M691.8,369.9c0.6-0.9,0.6-2.2,1.8-2.8c0.6,0.8,1.6,1.5,1.6,2.7C694.1,369.9,692.9,369.9,691.8,369.9
		L691.8,369.9z"/>
	<path fill="#FBF4CD" d="M693.8,1035.4c0,2.3-1.2,4.3-0.7,6.7h-9.8c-2.5-1-3.8-2.9-5.5-4.6c-0.3-3.7-0.4-7.4,0.6-11.2
		c1-3.6,1.1-7.5-0.9-11.1c-1.8-3.1-1.5-6.3-0.7-9.7c1-4.5,1.5-8.9-1.1-13.6c-1.8-3.1-2.3-7.3-2.1-11c0.4-6.9-2-13.2-3.5-19.7
		c-1.2-5.2-0.8-11.3,0.1-18c4.8,7.7,1.7,12.1,3.5,18c2.4-6.5,0.5-11.6,2.2-16.9c1.6-5.2,2.4-10.1,4.4-16.3c-3.3,1.3-5,3.3-7.9,0.9
		c1.1-6.2,5.3-10.5,9.1-14.5c2.1-0.9,4-1,5.9-0.7c2.4,1.6,5,3.8,6.9,6.5c0.1,6-6,10.8-3.5,18.2c5.4,5.2,2.5,13.7,4.4,20.6
		c0.3,1,0,2.2,0,3.4c0.1,12.3,0,24.6,1.2,36.9c1,10.4-0.2,20.9-2.5,31.2C693.9,1032.2,693.9,1033.9,693.8,1035.4L693.8,1035.4z"/>
	<path fill="#FBF4CD" d="M671.1,941.2v-1.9C672.9,939.7,672.1,940.6,671.1,941.2z"/>
	<path fill="#FEFEFE" d="M745.2,392.9c-0.2,3,3.1,4.7,2.8,7.8c-1.7,1.1-3.2,0.1-4.9-0.3c-1-2.9,0.1-5.5,1-8.2
		C744.5,392.3,744.9,392.6,745.2,392.9L745.2,392.9z"/>
	<path fill="#FDFDFD" d="M648,788.8c-2.8-1.4-0.8-3.9-1.4-5.8c0.7-0.1,1.3-0.2,2.3-0.4c0.6-17.9,5.4-35.8-0.3-53.7
		c-0.6-1.9-0.6-4-0.7-6c-0.1-2,0-4,0-6.4c3.4,0,6.2,0,6.1,4.1c8.4,2.4,16.8,1.9,25,3.1c4,0.6,7.4-1.3,10.8-2.9c5,1.1,9.5,3.2,13.5,6
		c15.1,11.1,32.1,12.9,50,10.9c1.5,0.9,1.3,2,0.4,3.3c-8.7,12.5-14.7,26.1-15.6,41.6c-0.2,3.6-1.8,7-3.9,9.9
		c-4.4,6.4-5.7,13.6-4.6,21c1,7.2,0.9,14.3-0.6,21.4c-2.7,12.5,0.3,24.5,3.2,36.5c0.8,3.5,1.9,6.9,0.7,10.4
		c-8.7,7.6-42.3,14.7-70,14.8c-3.5-0.6-7.2-0.7-10.1-3.3c-1.8-3.2-0.9-6.5,0.1-9.7c0.9-3,2.1-5.9,2.9-8.9c1.6-6.4,1.2-12.5-3.3-17.8
		c-5.1-6.1-7.6-13-7.8-21c-0.2-5.5-0.5-11.2-3.9-16.4c4.5-3.2,8.6-6.2,12.8-9.1c6.7-4.7,7.9-16.5,2.2-23
		C653,786.8,650.6,788.4,648,788.8L648,788.8z"/>
	<path fill="#FDFDFD" d="M755.6,737.1c4.5,0.2,8.9-1.3,13.3-1.9c4.4-0.6,8.6-2.7,13.2-1.6c1.2,0.3,2.8-0.2,3.9-0.9
		c8.2-4.8,17.4-6.6,26.3-9.3c2.1-0.6,4.5-1.1,5.7,0.2c1.9,2,3.3-0.4,4.9,0.3c1.1,2.6,0.9,5.3,0.8,7.9c0,2.7,0.1,5.6,1.6,7.8
		c4.9,7.4,4.9,15.6,4.7,23.8c-0.5,1.3-2.4,0.2-2.6,1.8c1.3,6.7,6.6,12.5,4.8,20.4c0.8,0.8,3.4,0.4,3.3,2.9
		c3.4,24.6,6.5,49.2,10.8,72.9c-1.6,3.2-3.6,4.7-5.9,5.7c-19.1,8-38.6,14.5-59.7,14.2c-1.1,0-2.2,0-3.4-0.2
		c-8.6-1.1-11.4-3.3-11.6-11.8c-0.7-30-10.8-56.9-25.7-82.8c1.3-17.3,5.8-33.5,20.2-46.9C761.3,736.4,755.5,740.2,755.6,737.1
		L755.6,737.1z"/>
	<path fill="#E8E5D3" d="M651.7,713.3c10.6,0.3,21.3,0.1,31.1,5.8C671.3,722.5,661.7,716.6,651.7,713.3z"/>
	<path fill="#FBF5D1" d="M861.2,1017.5c-4.2,1.3-2.8,5-3,8.2c-0.2,3.9-2.7,6.9-5.8,9.1c-2.5,0.6-5-0.7-8.2-0.8
		c-8.4-7.8-4-17.4-3.1-26.2c1.8-2,3.3-3.6,5-5.5c-0.6-4.8,1.7-9.4,1.6-14.4c-0.2-9.4-2.2-18.5-3.5-27.7c-0.4-3.1-0.4-6.2-0.6-9.3
		c-0.7-8.9-1.4-17.7-2.3-26.6c-1-10.3-5.5-18.7-13.2-25c-1-2.6-0.7-4.8-0.5-7.1c1.1-2,2.7-3.5,5.1-5.2h8.7c3.4,3.4,9.2,14.9,9,19
		c-0.8,0.4-1.2,1-0.8,2.2c0.6,0.1,1.4,0.3,2.2,0.5v1.3c0.2,0.7,0.7,0.6,1.3,1.4l2.7,8.1c-0.8,0.4-0.2,0,0.2,1.2
		c0.6,0.1,1.4,0.3,2.2,0.5l-1,2.3c1,10.3,3.4,20.5,3.1,31.1c-0.1,2.4,1.1,5.1,1,7.8c-0.1,1.9,0.7,2.9,2.7,3v2.6
		c-0.3,0.2-0.6,0.5-0.8,0.7c0.3,0.2,0.6,0.5,0.8,0.7c0.6,5-2.2,9.8-1.3,14.8c-0.7,0.5-1.9,1-2,1.6c-0.8,7.1-2,14.3,0.6,21.3v2.7
		c-1.8,1.4-1.8,2.7,0,4.1c-0.1,0.9-0.1,1.7-0.1,2.6V1017.5z"/>
	<path fill="#FBF8E4" d="M863.9,966.3c-1.9-0.1-2.7-1.2-2.7-3c0.1-2.7-1.1-6.4-1-8.8c0.4-10.5-2.1-20.7-3.1-31.1
		c3.8,5.7,4.3,12.5,5.2,18.8C863.4,949.8,864.8,958.5,863.9,966.3z"/>
	<path fill="#FBF8E2" d="M861.2,1007.1c-2.6-7-1.4-14.2-0.6-21.3c0.1-0.6,1.3-1.1,2-1.6C863.3,991.9,860.4,999.4,861.2,1007.1
		L861.2,1007.1z"/>
	<path fill="#FBF8E4" d="M851.7,908.9c-0.8-0.2-1.4-0.5-2.1-0.7c-0.4-1.2,0-2,0.8-2.4C851.7,906.4,851.7,907.8,851.7,908.9z
		 M857.2,922.1c-0.8-0.2-1.5-0.4-2.2-0.5c-0.4-1.2,0-1.8,0.8-2.2C857.1,919.9,857.2,920.9,857.2,922.1z"/>
	<path fill="#FBF8E2" d="M861.2,1013.9c-1.8-1.4-1.8-2.7,0-4.1V1013.9z"/>
	<path fill="#FBF8E4" d="M853.1,911.3c-0.7-0.2-1.2-0.7-1.3-1.4C852.2,910.3,852.7,910.8,853.1,911.3z M863.9,969.3
		c-0.3-0.2-0.6-0.5-0.8-0.7c0.3-0.2,0.6-0.5,0.8-0.7V969.3z"/>
	<path fill="#FDFDFD" d="M639.9,815.4c0.3-8.4,4.8-15.8,6.3-23.9c0.1-0.3,1.1-0.5,1.7-0.7c1.9,2.6,3.9,1.8,5.7-0.1
		c4.3,7.2,3.5,13.5-2.5,17.9C647.6,811.1,644.1,813.8,639.9,815.4z"/>
</g>
<g id="svg-7-officer">
	<path fill="#FBF8E2" d="M1423.1,593C1423.1,593,1423.1,592.9,1423.1,593c0.4-2.8,0.6-5.6,0.5-8.4c0-1.8-0.8-3.1-1.9-3.9v-0.1
		c-0.1,0-0.2,0-0.2-0.1c-2.7-1.7-7.1-0.6-7.7,3.1c-8.6,7-17.8,13.1-27,19.3c-8.7,5.8-17.8,10.2-28.6,9.2c-0.4,1.1-0.9,2.2-1.3,3.3
		c-0.1,0.2-0.2,0.5-0.2,0.7c-1.8,0.6-3.2,2.1-3.3,4.5c-0.2,5.3-4.1,9.9-6.1,14.6c-2.4,5.5-3.9,11.3-5.8,17c-1.9,5.5-3.9,11-6,16.5
		c-0.7,1.8-1.4,3.7-2.1,5.6c-0.8,0.4-1.5,1-2,1.9c-2.1,3.2-4.1,6.4-6.2,9.6c-0.1,0.1-0.1,0.2-0.1,0.2c-0.7,0.5-1.6,0.9-2.5,1.2
		c-0.2,0-0.4,0-0.6-0.1c0,0.1,0,0.2,0,0.3c-0.7,0.3-1.5,0.6-2.1,1c-0.7,0.5-1.3,1-1.6,1.6c-4.4,1.1-9.3,2-13.3,4.1
		c-1.2,0.6-2.2,1.5-3.4,2.1c-2.6,1.2-5.9,1.6-8.6,2.3c-3.2,0.8-4,3.7-3.3,6.2c-1.1,0.7-2.1,1.3-3.2,1.8c-3.3,1.6-2.9,6.5-0.4,8.5
		c-0.3,2.3,0.6,4.8,3.3,5.8c1.1,0.4,2.2,1,3.3,1.3c0.2,0.1,0.4,0.1,0.6,0.2c-0.3,2-0.3,4.1-0.2,6.1c0.3,4.5,1.3,9.1,3.5,13
		c0.3,0.5,0.6,1,0.9,1.4c-0.1,0.4-0.1,0.8-0.1,1.2c0.1,2.7,0.2,5.3,0.5,7.9c0.7,5.6,7.7,6.7,9.8,1.3c0.1-0.3,0.2-0.6,0.4-0.9
		c2.4-1.1,4.6-2.9,7.3-3.1c2-2.4,3.6-5.1,5.4-7.3c0.5-0.2,1-0.5,1.4-0.9c3.7-3.2,9.6-3.3,14.1-5s8.3-4.2,11.9-7.3
		c1.7-1.5,1.8-3.4,1.2-5.1c2.4-3.7,4.9-7.3,7.6-10.7c0,0,0.1,0,0.1-0.1c0,0,0,0,0-0.1c6.9-8.9,14.4-17.2,22.1-25.7
		c12.5-13.8,21.1-28.6,28.8-45.5c0.6-1.3,0.7-2.5,0.4-3.6c0.1-0.1,0.1-0.3,0.2-0.4c2.9-5.7,6.5-11,8.1-17.5c2-8.1,7.2-15.3,7.9-23.7
		C1424.3,594.9,1423.9,593.8,1423.1,593z"/>
	<path fill="#FBF8E4" d="M1051.5,720.8c-2-0.8-3.7-0.3-5.8-0.2c-2.9,0.3-4.3-0.3-7-1.5c-3.9-1.7-7.8-3.4-11.5-5.4
		c-0.3-1.1-1-2.2-2.4-2.9c-3.3-1.9-6.7-3.6-10.1-5.2c-0.2-0.1-0.5-0.2-0.7-0.3c-0.6-0.6-1.3-1.1-2.3-1.4c-0.6-0.2-1.1-0.3-1.7-0.5
		c-2.5-2.2-5.1-2.7-9.1-1.8c-0.5,0.1-0.9,0.3-1.3,0.5c-0.2-0.5-0.5-1-0.9-1.4c-0.5-0.5-0.9-1-1.4-1.5c-0.4-0.5-0.4-0.5-0.2-0.2
		c-0.2-0.3-0.4-0.6-0.6-0.8c-0.4-0.6-0.7-1.2-1-1.8c-0.1-0.2-0.8-1.8-0.6-1.1c-0.2-0.4-0.4-0.8-0.6-1.1c-0.3-1.4-1.2-2.7-2.6-3.3
		c0.3-2.4-0.9-5.2-3.7-5.9c0.2-1.1,0.3-2.3,0.3-3.5c-0.1-2.2-1.4-3.9-3.1-4.5c-1-3.1-2.3-6.2-4.3-8c-0.4-0.4-0.9-0.7-1.3-1
		c-0.3-8.1-1.4-16-5.1-23.4c-0.4-0.7-0.9-1.3-1.4-1.7c-1-4.5-2.4-8.9-4.1-13.3c-2.5-6.3-6.3-12.2-7.7-18.9c-0.3-1.7-1.3-2.7-2.4-3.2
		c-0.1-0.2-0.2-0.5-0.2-0.7c-1,0.3-1.4-0.2-1.6-1.1c-11.9-9.5-25.1-17.1-37.9-25.3c-6.1-0.4-11.4-4-17.6-4.2c0.2,1.8-0.8,3-1.8,4.2
		c-2.4,3-2.8,6.7-2,10.2c0.8,3.6,1.7,7.3,3.5,10.7c4.3,8.2,8.7,16.2,12.2,24.7c8.9,21.7,17.6,43.5,28.9,64c4.7,8.5,9.7,17.1,16.7,24
		c0.2,0.3,0.4,0.6,0.6,0.8c1.7,2.1,3.4,3.9,4.7,6.3c1,1.9,1.9,3.6,3.6,4.9c0.5,0.4,1.1,0.7,1.6,0.9c1.5,3.5,3.7,6,7.1,8
		c3.3,2,8.4,2.9,10.8,6.1c3.3,4.4,10.5,1.9,9.1-3.9c-0.5-2.1-1.8-4.4-3.2-6.7c0.9,0.2,1.9,0.3,2.8,0.3c0.3,0.6,0.5,1.1,0.8,1.7
		c2.1,4.5,4.8,9.9,10.7,9.4c0.1,0,0.2,0,0.3-0.1c1.2,1.6,3,2.5,5,2.8c-0.1,0.8-0.2,1.7-0.3,2.6c-0.1,4.7,7.3,7.2,9.3,2.5
		c0.4-0.9,0.8-2.7,1.4-3.4c0.8-1-0.3-0.8,1.6-0.1c2.1,0.7,5.4-0.2,7.3-1.1c2.4-1.2,3.1-3.5,5.1-4.9c0.5-0.3,1.1-0.6,1.7-0.9
		c0.8-0.2,1.7-0.5,2.7-0.8c2.1-0.5,4.4-0.8,6-1.3c1.5-0.4,2.5-1.4,3-2.6c3.1-1.9,5.4-4.3,5.4-7.4
		C1056.3,724.3,1054.2,721.8,1051.5,720.8z"/>
	<path fill="#36406B" d="M1414.9,548.4c-9.8-9.3-21.1-16.6-32.1-24.4c-6.2-4.3-11.2-9.6-15.4-15.8c-3.8-5.5-6.6-11.8-11-16.9
		c-1.4-0.7-2.3-1.7-2.6-4c-0.2-0.9-0.7-1.5-1.4-2c0.4-2.4-1.4-5.2-4.1-5.9c-8.4-9.4-17.8-17.9-23.8-29.3c-1.7-3.3-4.8-5.8-7.7-8.3
		c-7.4-6.3-15.8-10.9-24.5-15c-4.1-1.9-8-3.8-11.4-6.9c-3.9-3.6-8.8-5.3-14.1-5.4c-5.1-0.1-9.7-1.2-14.2-3.4c-2.4-1-4.8-2.8-7.6-1.3
		c-0.2-0.1-0.5-0.2-0.7-0.3c-0.7,0.1-1.5,0.1-2.2,0.2c-6.3-0.2-11.6-2.3-16.5-5.6c0.1-0.8,0.2-1.7,0.1-2.5c0-0.7-0.1-1.3-0.4-1.9
		c-0.1-0.2-0.2-0.4-0.3-0.6c0.2,0,0.3,0,0.5,0c-1.6-2.8-3.1-5.7-6.3-7.1c0,0.1-0.1,0.2-0.1,0.2c-1.2-0.9-2.9-1.6-4.5-2.3
		c3.9-5,2.3-11.4,3.1-17.8c0.5-3.5,2.6-6.5,3.9-9.7c1.4-3.3,1.7-6.4,1.1-9.9c-0.1-0.6-0.3-1-0.5-1.5c0.5-1.3,1.1-2.7,1.4-4.1
		c1-3.6,1.4-7.4,1.4-11.2c0-1.1-0.3-2-0.8-2.7c0.1-0.1,0.1-0.2,0.2-0.3c1.8-3.5,2.5-7.3,2.6-11.2c0.2-1.3,0-2.5-0.4-3.4
		c0.8-2.4,1.6-5.7,3.2-7.6c0.8-1,1.9-1.4,2.7-2.4c0.7-1,1-2.1,1.6-3.1c2.6-3.9,9.7-7.3,8.9-13c-0.3-2.4-2-3.9-3.5-5.6
		c-2.3-2.7-1.8-5.6-2.7-9c-1-3.2-2.8-6.1-3.9-9.2c-1.2-3.5-1.9-7.2-2.6-10.8c-0.4-2.1-1.7-3.2-3.3-3.5c-0.4-1.1-1.1-2-2.1-2.5
		l0.1-0.1c-1.4-1.6-3.1-2.3-5-2.7c-0.7-0.7-1.7-1.2-2.7-1.4c-0.2-0.4-0.4-0.7-0.7-1l-0.5-0.5c-0.9-0.9-2.1-1.4-3.4-1.4
		c-0.7-0.6-1.7-0.9-2.9-1c-7-2.3-13.9-2.9-19.1-5.3c-1.1-0.3-2.1-0.2-3,0c-0.3-1.9-1.6-3.6-3.9-4c-2.6-2.6-5.9-4.3-10-5.8
		c-1,0.5-1.9,1-2.8,1.5c-0.5-0.4-1-0.6-1.7-0.8c-2.5-0.5-4.7-0.2-7,0.9c-0.7,0.3-1.4,0.8-2.1,1.2c-0.2,0.1-1.7,0.9-1.1,0.8
		c-2,0.3-3.7,1.2-4.5,2.9c-4.9,2-9.4,4.8-14.2,7c-3.9,1.8-7.5,4.4-11.5,5.5c-8,2.3-11.1,8-12.8,15.5c-1.7,7.4-4.9,14-12.2,17.7
		c-2.5,1.2-3.7,4.1-6.7,5.5c6.9,6.8,11,14.4,10.9,24c-0.1,5.7,4.1,9.7,7.3,14c0.6,0.7,1.2,1.4,1.8,2.1c-0.2,0.2-0.4,0.4-0.5,0.6
		c-3.9,4.3-3.1,8.6,0.1,12.3c-1.2,6.5,0.8,13.3,2,19.9c0.6,3.4,1.2,6.7,1.7,10.1c-0.1,1.2-0.2,2.4-0.3,3.5c0,0.1,0,0.2,0,0.3
		c-1.8,0.6-3.3,2.1-3.4,4.5c-0.5,7.3-1.1,14.5-1.7,21.8c-0.1,0.8,0.1,1.6,0.5,2.3c-0.3,0.5-0.5,1-0.5,1.4c-3.5,3.4-6.4,7.2-11.9,7
		c-0.1,0-0.1,0.1-0.2,0.1c-0.2-0.3-0.4-0.5-0.9-0.4c-6.5,2-13.8,1.7-19.9,5.7c-3.6,2.4-7.7,3.5-11.7,4.9
		c-14.6,4.9-28.9,10.6-41.7,19.4c-0.2-0.1-0.4-0.1-0.6-0.2c-1.2,3.1-3.6,4.5-6.8,4.5c-0.5-0.1-0.8,0.1-0.9,0.5
		c-0.7,1.6-1.9,2.4-3.6,2.6l-0.4,0.3c-0.2,0.2-0.4,0.4-0.6,0.7c-6.8,3.1-10.6,8.2-11.6,15.7c-10.9,8.9-20.3,19.6-29,30.7
		c-7.2,9.1-15.2,17.1-25.1,23.2c-7.1,4.2-13.3,9.4-16.9,17.1c-0.1,0-0.2,0-0.4,0c-2.7,1.1-5,2.9-6.9,5.2c0.2,4-3.6,5.5-5.5,8.1
		c-1.1,1.5-2.3,3.1-3.6,4.6c-1.7-1.1-4.1-1.3-5.7-0.2c0-0.1,0-0.2-0.1-0.4c-3.4,1.9-5.7,4.9-8.3,7.5c-2.4,2.5-5.2,4.9-4.9,8.9
		c0.1,0,0.2,0,0.3,0c-1.7,2.6,0.5,6.3,3.2,7.1c5.4,1.5,10.7,3.2,15.9,5.3c1,0.4,1.9,0.5,2.7,0.3c12,7.7,24.2,14.8,35.5,23.6
		c1.9,2.7,4.4,4.6,7.5,5.7c0.6,0.2,1.3,0.3,1.9,0.2c1.3,0.6,2.2,1.6,2.9,3.3c2.6,6.9,3.5,7.3,11.9,7.1c5.1-3.3,9-8.1,12.2-13.1
		c8.2-12.7,18.5-23.4,29.5-33.4c1.2-0.2,2.4-0.5,3.7-1.1c0.8-0.3,1.4-1,1.8-1.7c0,0.1,0,0.3,0,0.4c1.4,0.2,2.9,0.4,4.2,0.6
		c1.1,0.7,1.2,1.7,1.3,2.7c-0.9,2.4,0.1,5.6,2.7,6.6c0.9,3.6,0.6,7.4,1,11c1.3,12.2,3.7,24.2,4.7,36.5c0.4,5.3,1.2,10.8,2.7,16
		c0,0.5,0,1.1,0.2,1.7c2.7,10.4,7.6,19.7,14.3,28.1c0.4,0.4,0.7,0.8,1.1,1c0.6,16.1-4,32-0.8,48c0.1,0.7,0.4,1.3,0.7,1.8
		c-0.3,0.5-0.6,1-0.9,1.5c-0.5,2.6-1.7,4.8-2.9,7.1c-1.6,9-5.5,17.4-5.7,26.7h0.1c0,0.2,0,0.4,0,0.6c0,3.7,0,7.5,0.1,11.2
		c-0.2,0.3-0.4,0.5-0.8,0.6c-0.5,7.8-1,15.7-1.6,23.6c-0.1,1.6,0.9,3.6-1.3,4.7c0,0.9-0.1,1.8-0.1,2.7c1.3,4,0.8,11.3-1.2,16.2
		c0,1.4-0.1,2.7-0.1,4.1c3.4,2.5,0.1,5.5,0.5,8.2c1.9,4.9,1.8,9.8,0.1,14.7c-0.2,1-0.4,1.9-0.6,2.9l0.3,9.3c1.3,0.5,0.9,1.8,1.2,2.5
		c3,3.8,0.6,8.2,1.4,12.2c2.6,3,0.8,6.6,1.2,9.9c0,0.8,0.1,1.5,0.2,2.3c0.8,0.4,1.1,1.2,1.1,2.1c0,5.1-0.1,10.2-0.1,15.3
		c1.5,0.7,1.6,2,1.6,3.4c0,6.9,0.9,13.9,1,20.7c0.2,15.9,1.8,31.8,2,47.7c0.2,10.9,1.1,21.8,0.8,32.8c-0.1,2.5,3.4,4.8,0.4,7.4
		c-0.8,3.2-0.6,6.4-0.1,9.6c0,0.5-0.1,1-0.1,1.5c-0.9,3.1-0.9,6.1,0,9.2c-0.1,0.4-0.1,0.8,0.1,1.1v26.8c-3,5.5-4.1,11-4.1,16.7h82.3
		c1.9-7.9,6.7-14.6,8.9-22.4c0.7-2.4,1.6-4.5,1.2-7.1c-0.6-4-1-8.1,1.5-11.7c1.3-1.8-1.1-2.8-0.5-4.8c4-4.1,3.1-10.1,3.5-15.5
		c2.4-32.6,7.4-64.7,15.2-96.4c0.4-2,1.1-3.9,1.9-6.7c1.1,3.6,2.4,6.4,2.7,9.3c0.9,8.7,7.3,15.1,9.7,23.2c4.2,14.2,9.5,28,11.9,42.7
		c1.8,10.9,1.9,21.8,1.9,32.8c0.1,4.6,1.1,8.9,2.2,13.3c3.6,14.2,4,28.8,4.8,43.3h93.2c0.7-4.8-1.1-9.3-2.2-13.8
		c-1.7-7.4-4.6-14.6-2.4-21.3c-0.2-3-3.4-2.8-2.9-6c3-5.8,3.6-12.5-0.6-19.1c2-5,0.5-10.2,0.9-15.3c0.7-8.7,0.5-17.4-0.5-26.2
		c-1.1-9.7-0.2-19.4,2.2-29c-0.3-7.6,1.8-15.3-1.4-22.9c-0.5-1.3,0.3-3.9,0.3-5.9c0-11.2-0.9-22.5,0.3-33.6
		c1.3-12.6,1-25.1,0.8-37.6c-0.2-12-1.8-24-2.4-36c-0.5-8.2-0.6-16.5,1.2-24.7c-2-2.7-2-5.4,0-8.1c0-1.8-0.1-3.6-0.1-5.4
		c-1.6,0.2-2.3-1.2-3.5-2.1c0.7-1.4,0.7-2.8,0.2-4.1c2.2-3.4-2.1-6.9-0.5-10.2V748c-4.2-2.6-3.8-7.7-6.9-11.1
		c1.2-4.2,2.5-8.3-0.1-12.3c-2.6-1.6-1.6-5.9-5.1-6.9c-0.2,0.6-0.1,1.8-0.4,1.9c-0.1,0-0.1,0-0.2,0.1c0.1-1.7,0-3.5-0.1-5.1
		c-0.4-4.1-1.8-9-2.2-13.8c1.8-3.1,3-6.5,3.8-10c1.7-1.9,3.3-3.9,4.7-6l0,0l0,0c1.2-1.8,2.2-3.6,3.2-5.5c2.3-4.6,3.7-9,7.1-12.9
		c2.9-3.5,3.6-7.2,4.5-11.6c1.1-4.8,4-8.6,2.2-13.7c-0.2-0.5-0.4-1-0.7-1.3l0,0c0.2-6.1,0.1-12.3,0.6-18.4c0.4-5.6,3.2-9.8,4.2-15.1
		c0.9-4.9,0.4-9.8,1.7-14.7c1.4-5.4,3.2-10.4,3.4-16c0.1-1.5-0.4-2.6-1.1-3.4l5.5-9.4c0.1,0,0.2,0.1,0.3,0.1
		c1.9,0.6,4.2-0.3,5.4-1.9c0,0.1,0,0.2,0.1,0.3c0.1,0.9,0.5,1.6,1,2.2c-0.2,5.5,3,9.8,4.8,14.6c2.4,6.2,5.3,12.2,5.9,18.8
		c0.2,0,0.4,0.1,0.6,0.2c-0.1-0.1-0.3-0.1-0.5-0.1c0.1,0.8,0.6,1.2,1.4,1.4l5,4.4c0.1-0.1,0.2-0.2,0.4-0.4c0.6,0.7,1.4,1.2,2.4,1.4
		c-0.1,0-0.2,0.1-0.2,0.1c7.7,5.8,17.4,5.8,26.2,8.4c10.9,1,19.9-3.3,28.6-9.2c9.4-6.4,18.9-12.6,27.7-19.9c2.2-1.7,4.2-3.4,7.2-2.4
		c0.9-0.2,1.7-0.3,2.6-0.5c2.6-2.5,5.2-4.9,5.3-7.6C1428,561.4,1421.6,554.8,1414.9,548.4z M1079.3,718.2c0-0.4-0.1-0.8-0.1-1.2
		c0.1,0,0.2,0,0.3,0c0.3,0.5,0.7,0.9,1.2,1.3l0,0C1080.3,718.2,1079.8,718.2,1079.3,718.2z M1270,769.4c0.3,0,0.7,0,1,0
		c-0.5,0.3-1,0.6-1.2,1.4C1270,770.3,1270,769.8,1270,769.4z"/>
	<path fill="#F6F3E0" d="M1210.8,356.1c-3.2,0.6-6.5,2.3-9.8,1.3c-10.1-3-19.4,0.3-27.1,2.5c-9.9,0.2-17.9-3.7-26.7-0.8
		c-2.8-2.9-5.4-2.3-8-1c-0.4-0.4-0.9-0.7-1.4-0.9c-2.3-1.1-5-0.9-7.6-0.8c0.3-0.6,0.7-1.1,1-1.7c-1.4-2.3-2.6-4.4-3.9-6.5l-0.3,0.2
		c-2.5,2.2-1,5.4-2.3,8c-1.7,3.5-1.4,3.6-6,5.3c-3.3-1.6-2.7-4.5-2.4-7.3c2.1-0.6,2.2,2.3,5,1.5c3.2-3,1.2-7.8,2-11.9l-4.5-7.2
		l-2.4-2.1c-1.2,0.5-1.4,1.6-1.7,2.7c-2.3,7.7-3.5,15.6-3.8,23.6c-0.5,12-1.6,24.2,5.4,35c2.7-1.5,3.6-4.8,6.3-6.2l0.2,0.1
		c0.2-1.6,1-2.6,2.7-2.7l0.1,0.1c1.6-3.6,5.1-4.5,8.2-5.1c10.3-2.2,20.6-4.4,31.2-5.1c8-1.3,16.1-1.1,24.1-0.5s14.8,4.4,21.7,8.2
		c1.1-0.6,1.4-1.6,1.4-2.8c-0.2-8.2,1.6-16.2,2.8-24.3C1213.7,356.8,1212.5,355.8,1210.8,356.1z M1133.3,366.2c-0.3,0,0.2,0.5,0.7,1
		c-1,0.3-2.1,0.6-3.2,0.9c0-0.6,0-1.1,0-1.5c0-0.1,0-0.3,0-0.4C1131.7,366.1,1132.6,366.1,1133.3,366.2z M1157.5,367.9
		c-2.5-0.5-5.1-1-7.7-1.1v-0.1c-0.8-2.2-2.2-2.9-3.9-3.6c4.2,0,8.4,0.3,12.5,0.4c13,0.3,26,0.7,39,1.1c1.4,0.1,3.3-0.7,4,2.3
		C1186.6,367.1,1172.2,370.7,1157.5,367.9z"/>
	<path fill="#101116" d="M1285.1,781.7c0-1.8-0.1-3.6-0.1-5.4c0-3.1,0.4-6.3-0.1-9.4c-0.4-2.6,0-6-3.7-7v-11.7
		c-4.1-2.6-3.8-7.7-6.9-11.1c1.1-4.2,2.5-8.3-0.1-12.3c0.7-3-1.2-6.7,1-8.3c3.5-1.8,3.6,1.6,6,1.3c0.6-0.3,1.5-0.8,2.5-1.2
		c1.4,0,2.8,0,4.2-0.1c2.4,1,2.5,4.3,5.2,5c1.8-0.1,2.4-3.7,5-1.7c0,1.8-2.6,2.5-1.8,5.4c3.3,5.1,3.5,12.1,5.8,18.5
		c4.1-1.5,4.3-6.6,8.9-8.4c-1.2,6-5.1,9-8.4,12.8c0.2,1.7,0.4,3.4,0.5,5.2c-0.1,1.4-0.1,2.7-0.2,4.1c-3.3,4.7-1.3,10-1.1,14.9
		c0.7,14.3,2.4,28.6,3.4,42.8c3.2,44.3,6.2,88.6,9.3,132.9c0.7,10.5,0.7,21.1,0.6,31.6c0,2.7-0.3,5.4-1.7,7.8
		c-2.1,3.8-4.3,7.4-9.4,7.6c-5.5,0.2-9.4-2.2-12.2-6.8c-2.8-4.4-2.9-9.4-3.7-14.2c-1.2-7.7-1.9-15.6-1.8-23.5
		c-0.3-7.6,1.8-15.4-1.4-22.9c-0.5-1.3,0.3-3.9,0.3-5.9c0-11.2-0.8-22.5,0.3-33.6c1.3-12.6,1-25.1,0.8-37.6c-0.2-12-1.8-24-2.4-36
		c-0.4-8.3-0.6-16.6,1.2-24.7C1287.2,787,1287.2,784.4,1285.1,781.7L1285.1,781.7z"/>
	<path fill="#14161D" d="M1227.1,321.5c0.3-2.1-0.5-4-0.8-4.9c1.5-11.2,12.6-15.3,15.7-24c-0.7-3.5-3.2-4.4-5.3-6.2
		c0.7-11.3-9.4-19.4-8-30.1c-3.6-2.1-7.2,0.3-9.1-3.1c1.5-1.9,4,0,5.8-1.9c-2.1-2.4-4.9-2.9-7.9-2.9c-4.9,0-9.9-0.1-14.8-0.1
		c-2,0-4-0.1-5.2-3c4.6-1.8,9.4-0.1,14.4-1.4c-7.6-2.8-15.2-3.3-20.8-5.9c-3.9-0.8-6.3,2-9.1,0.5c-1.3-2.7,2.4-2.1,2.5-4.2
		c-2.6-2.8-6.2-4.6-10.3-6.1c-6.7,3.6-13.4,7.5-17.9,14.3c-2.6,4-6.5,7-10.9,8.7c-6.2,2.5-12.7,4.5-19,6.5c-1.2,0.4-2.7,0.5-3.8-0.6
		c-0.4-2.1,1.4-1.9,2.6-2.3c5.1-1.7,10.2-3.4,15.2-5.2c8.1-3,14.1-8.4,18.1-16c0.7-0.2,1.7,0.2,1.8-1c-1-0.6-1.6,0-2,0.8
		c-6.2,2-11.7,5.6-17.6,8.3c-3.9,1.8-7.5,4.4-11.5,5.5c-8.1,2.3-11.1,8-12.8,15.5c-1.7,7.4-4.9,14-12.2,17.7
		c-2.5,1.3-3.7,4.1-6.7,5.5c7,6.8,11,14.3,10.9,24c-0.1,5.7,4.1,9.7,7.3,14c0.9,1.2,2.1,2.3,3.4,3.7v9.3l-2.4-2.1
		c-0.4-1.7-1-3.2-2.4-4.3c-1-5.6-5.4-9.1-8.5-13.1c-0.2-0.7-0.4-1.2-0.3-1.6c2-10.7-1-19.5-9.7-26.2c-2.1-1.6-2.9-4-1.9-6.5
		c1.4-2.8,4.2-3.6,6.7-4.4c6.6-2.3,10.9-6.9,11.8-13.5c1.7-12.5,8.9-18.8,20.3-23c10.4-3.8,20-9.9,30.3-14.4
		c7.1-3.1,12.8-3.3,20.2,0.6c9.1,4.9,18.5,10.1,29,12.2c8.5,1.7,15.3,7.1,23.1,12.1c-3.2,2.6-2.7,5.3-1.9,8.3
		c1.7,6.3,3.9,12.4,7.8,17.7c2.2,3,3.3,6.5,4.3,9.8c1.1,3.7,0.5,7.5-2.2,10.7c-1.6,1.9-3,3.9-4.8,5.6
		C1233.2,309.5,1228.6,314.4,1227.1,321.5L1227.1,321.5z"/>
	<path fill="#2F2F2F" d="M1127.4,348.2c3.1-0.3,5.5,1.7,8.2,2.8c6.8,2.7,14,3.3,21,3.7c12.2,0.8,24.7,1.5,36.8-1.9
		c3.2-0.9,6.4,0,9.7-1.6c8.8-4.4,16.6-9.7,21.5-18.5c1.2,0.3,2.5,0.6,3.5,0.9c1.3,2.3,0.4,4.5,0.6,6.6c-3.2,5.9-4.5,12.4-5.2,18.9
		c-0.4,3.4-1.7,6.4-3.1,9.4c-1.2,0.3-2,2-3.9,1c1.2-3.8,1.4-8,3.2-11.8c0.6-0.6,1.7-1.4,1.6-1.9c-0.7-4.5,1.4-8.4,2-12.6
		c0.5-0.3,1.2-0.6,0.3-1.3c-0.3,0.3-0.5,0.6-0.8,0.9c-5.7,3-11.5,6-12,13.6c-3.3,0.6-6.5,2.3-9.8,1.3c-10.1-3-19.4,0.3-27.1,2.5
		c-9.9,0.2-18-3.7-26.7-0.8c-4.2-4.4-7.9-0.7-11.9,0.9c-0.9-0.6-1-2-2.3-2.2c-0.8,1.1-1.1,3-3.2,2.7c-1.1-2.3,0.5-4.1,1.4-5.8
		C1129.9,352.4,1128.6,350.3,1127.4,348.2L1127.4,348.2z"/>
	<path fill="#FBF8E2" d="M1058,727.2c-0.5,2.6-1.7,4.8-2.9,7.1c-5.5,2-5.1,7.3-6.2,11.6c-1.1,4.4-1.3,9.1-1.9,13.5
		c-2.7,1.2-5.2,0.5-7.6,0.7h0.1c-0.7-1.9-0.3-5.4-4.1-2.7c-5.1-0.8-7.9-6.2-12.8-6.6c-1.8,0.3-1.9,1.4-2,2.5c-0.9,0-1.8-0.1-2.7-0.1
		c-0.4-1.9-0.7-3.9-1.1-5.8c0.6-3.5,2.3-6.2,5.5-8c1.7,0.3,0.5,3.2,2.8,3.2c6.1-0.2,8.7-4.2,10.3-9.4c2,0,3.9,0.2,5.9,0.7
		c2.9,0.8,6.1,1.8,8.9-0.7c1.4-1.8,2.8-3.7,4.2-5.5C1055.6,727.4,1056.8,727.3,1058,727.2L1058,727.2z"/>
	<path fill="#DDDCD9" d="M981.5,740.1c-1.4-0.2-2.5-0.8-3.6-1.8c-14-13-26.2-27.5-36.1-44c-11.5-19.1-19.2-39.9-27.8-60.3
		c-3.8-9.1-8.6-17.8-13-26.6c-2.2-4.4-4-9-5.4-13.7c-2.1-7.4,0-13.8,5.6-17.6l0.5,0.2c0.2,1.8-0.8,2.9-1.8,4.2
		c-2.4,3-2.8,6.7-2,10.2c0.8,3.7,1.7,7.3,3.5,10.7c4.3,8.1,8.7,16.2,12.2,24.7c8.9,21.7,17.6,43.5,28.9,64
		c5.7,10.3,11.8,20.5,21.3,28.1c0.5,0.5,1,0.9,1.4,1.4c0.2,0.7,0.7,1.2,1.4,1.4c0.2,0.7,0.7,1.2,1.4,1.4c0,1.1,0.2,2.2,1.4,2.7
		c2.1,3.2,4.9,5.9,8,8.1C978.3,735.6,981.8,736.7,981.5,740.1L981.5,740.1z"/>
	<path fill="#101115" d="M1219.4,392.5c-1.1,2.1,1.3,3.8,0.7,5.9c-0.9,1.8-2.7,1.1-4.1,1.2c-1.8,0.1-3.6,0-5.4,0
		c-31,0.2-61.9,2.2-92.7,1.2c-5,3.5-7.8,9.6-14.6,9.3c-0.2-0.5-0.5-0.9-1.1-0.9c-0.6-2.5,1.6-1.4,2.4-1.8c4-2,8.1-3.9,9.7-8.7
		c1.6-0.2,2.8-0.7,2.3-2.7c2.7-1.5,3.5-4.8,6.3-6.2c2.2,3.6-2.6,5.2-2.7,8.1c20.2,1.4,40.2-1.1,60.1-0.9c9.9,0.1,19.8,0,29.7-0.1
		c1.7,0,3.6,0.7,5-1.2c0.2-4.4-4.4-5.9-5.7-9.4l2.1-0.3c2.4,0.3,3.5,3.1,6,3.3c0.4,0.7,0.8,1.4,1.2,2.2
		C1217.6,392.8,1218.1,392.9,1219.4,392.5L1219.4,392.5z"/>
	<path fill="#DDDCD9" d="M1421.5,580.7c0.9-0.2,1.7-0.3,2.6-0.5c3.3,8.4,1.7,16.8-0.8,24.8c-7.6,24.6-17.8,48.1-32.6,69.3
		c-6.9,9.9-14.9,18.9-23.5,27.3c-1,1-2,1.7-3.5,1.8l-0.3-0.2c0.1-3.1,2.7-4.5,4.5-6.4c7.8-8,14.9-16.5,21.6-25.4
		c9.5-12.8,16-27.3,22.1-41.9c2-4.7,5.3-9.1,5.4-14.7c-1.3,0.2-2.4,0.5-3.5,0.7c0.5-3.6,4.6-4.4,6-7.6
		C1423.3,599,1424,590.1,1421.5,580.7L1421.5,580.7z M1021.9,758.7c4.8,3.7,8.9,8.1,12.4,13.1c2.7,3.8,2.9,7.7,1.9,12.7
		c-6.4-2.7-10.8-7.1-15.3-11.3c-8.2-7.6-15.1-16.5-25.4-21.9c-4.8-2.5-10-5.3-13.1-10.3c2.4-0.3,4,0.9,5.9,2.2
		c4.7,3.2,9.2,6.7,14.6,8.6c4.6,4.7,9.9,8.5,14.9,12.2C1021.7,763.7,1021.9,761.3,1021.9,758.7L1021.9,758.7z"/>
	<path fill="#2C3455" d="M1050,904.4c1.5,0.7,1.5,2,1.6,3.4c0.1,6.9,1,13.9,1,20.7c0.2,15.9,1.7,31.8,2,47.7
		c0.2,10.9,1.1,21.9,0.8,32.8c-0.1,2.5,3.4,4.8,0.4,7.4c-1-1.5-1.6-3-1.6-5c0.1-16.3-2.6-32.5-3.1-48.8c-0.2-7.4-1-14.8-1-22.1
		c0-12.1-1.7-24.1-1.2-36.1C1049.3,904.5,1049.7,904.5,1050,904.4L1050,904.4z"/>
	<path fill="#F6F3E0" d="M1220.3,368.5c1.4-3,2.7-6,3.1-9.4c0.8-6.6,2-13,5.2-18.9c4.1,0.5,5.1,3.9,6.5,6.9
		c-1.4,7.1-4.8,13.4-7,20.2c-1,3.1-3.6,5.7-7.7,5.4C1220.4,371.3,1220.4,369.9,1220.3,368.5z"/>
	<path fill="#D3D1C2" d="M1039.4,760c2.4-0.1,4.9,0.5,7.6-0.7c0.6-4.4,0.8-9,1.9-13.5c1.1-4.3,0.7-9.6,6.2-11.6
		c-1.5,9-5.4,17.5-5.7,26.7c-2.1,4.1-0.4,8.4-0.6,12.5c-0.5,7.9-1,15.8-1.6,23.6c-0.1,1.6,0.8,3.6-1.3,4.7c-1.9-1.3-1.2-3.3-1-5
		c0.9-9.8,1.5-19.6,1.6-30.2C1044.5,764.9,1041,763.4,1039.4,760z"/>
	<path fill="#A1A09C" d="M1116.4,396c0.5,2-0.7,2.5-2.3,2.7c0.4-1.4,0-2.7-0.8-3.8c-5.2-7.3-6.4-15.7-5.9-24.3
		c0.5-9.8,1-19.7,3.5-29.2c1-3.7,2.1-7.3,3.2-10.9c1.3,1.1,2,2.6,2.4,4.3c-1.2,0.5-1.3,1.6-1.7,2.7c-2.3,7.7-3.5,15.6-3.8,23.6
		C1110.6,373,1109.4,385.1,1116.4,396L1116.4,396z"/>
	<path fill="#BEBBAB" d="M1220.3,368.5c0.1,1.4,0.1,2.8,0.2,4.2c-0.6,5.6-1.5,11.2-3.3,16.6c-2.5-0.2-3.6-3-6-3.3
		c-0.1-0.4-0.3-0.8-0.4-1.1c1.1-0.6,1.4-1.6,1.4-2.8c-0.3-8.2,1.6-16.2,2.8-24.3c1-0.4,1-1.9,2.3-2c0.5,1,0.9,2.1,2.3,1.9
		c-1.8,3.8-2,8-3.2,11.8C1218.3,370.5,1219.1,368.7,1220.3,368.5L1220.3,368.5z"/>
	<path fill="#283050" d="M1347.3,482c0.9,0,1.8,0,2.7-0.1c1.5,0.8,2,2.3,2.3,3.8c-4.7,3-9.5,5.8-14,8.9c-3.5,2.4-4.8,6.3-5.8,10.3
		c-0.8,3.3-1.4,6.7-5,8.7c1.1-4.4,2-8.9,3.3-13.2c1.9-6.4,7.1-9.5,12.5-12.3C1345.9,486.7,1347.8,485.2,1347.3,482L1347.3,482z"/>
	<path fill="#E8E5D3" d="M1349.9,726.3c-0.3,3.6-3,5.2-5.6,6.8c-3.8,2.3-7.9,3.9-12.1,5.3c-4.4,1.5-8.8,3-11.1,7.7
		c-1.2,2.3-3.3,3.5-6.1,3.3l-0.1-0.1c3.2-3.9,5.7-8.5,9.1-11c8.8-3.4,18-3.9,23.3-11.9C1348.2,726.3,1349,726.3,1349.9,726.3
		L1349.9,726.3z"/>
	<path fill="#FDFDFD" d="M1003,751.9c-5.4-2-9.9-5.5-14.6-8.6c-1.9-1.3-3.6-2.5-5.9-2.2l-1-1c0.4-3.4-3.2-4.4-4.2-7
		c2.7-0.4,4.4,1,6.3,2.7c2.5,2.4,5.1,4.8,8.7,5.4c2.1,2.2,4.7,3.9,7.5,5.1C1002.4,747.4,1003.2,749.3,1003,751.9z"/>
	<path fill="#36406A" d="M926,539.9c0.2,4-3.6,5.5-5.5,8.1c-4.2,5.6-9,10.7-14.4,17c-0.8-6.5,6.8-7.8,5-13
		C915.5,547.2,920.7,543.4,926,539.9z M901.7,576.4l-0.5-0.2c-1.7-2.4-4.1-4.4-3.3-7.8c2.2,0.2,3.3-2,5.1-2.5c2.4,2-1,3.9,0.2,5.8
		c4.5,4.4,11.6,4.3,16,8.9C913.2,580.1,907.9,576.5,901.7,576.4z M1242.3,410.3c-7.9-0.2-14.5-3.6-20.3-8.6c0.4-2.7,2.3-1.8,3.7-2.1
		c2.5,4.5,6.8,6.5,11.4,8.2C1238.9,408.4,1241.1,408.3,1242.3,410.3L1242.3,410.3z"/>
	<path fill="#DDDCD9" d="M1349.9,726.3h-2.6c0.4-6.4,4-10.6,9.3-13.5l0.1,0.1C1354.5,717.3,1352.2,721.8,1349.9,726.3z"/>
	<path fill="#E8E5D3" d="M1302.9,757.4c0.1-1.4,0.1-2.7,0.2-4.1c4.5,0.4,7.5-3.8,11.7-4l0.1,0.1
		C1312.4,754.3,1306.8,754.6,1302.9,757.4L1302.9,757.4z"/>
	<path fill="#DDDCD9" d="M1363.6,703.5c-0.1,4.7-3.8,6.8-6.9,9.3l-0.1-0.1c-0.3-5,3.7-6.9,6.7-9.5L1363.6,703.5z"/>
	<path fill="#DDDCD9" d="M1017.9,753.1c0.9,0,1.8,0.1,2.7,0.1c0.5,1.8,0.9,3.6,1.4,5.4l-0.1,0.1
		C1017.2,757.1,1016.6,756.3,1017.9,753.1L1017.9,753.1z"/>
	<path fill="#36406A" d="M1028.2,439.5c-1.2,3.1-3.6,4.5-6.8,4.5C1023,441.5,1025.5,440.4,1028.2,439.5z"/>
	<path fill="#D3D1C2" d="M1035.4,757.4c3.8-2.7,3.4,0.9,4.1,2.7C1037.5,760.1,1036.1,759.1,1035.4,757.4z"/>
	<path fill="#36406A" d="M1020.5,444.4c-0.7,1.5-1.9,2.3-3.6,2.6C1017.5,445.2,1018.8,444.7,1020.5,444.4z M1356.4,491.3
		c-1.4-0.7-2.3-1.7-2.4-3.4C1355.9,488.3,1356.1,489.9,1356.4,491.3z M1219.3,392.5c-1.2,0.5-1.7,0.3-0.9-1
		C1218.7,391.8,1219,392.1,1219.3,392.5z"/>
	<path fill="#2C3455" d="M1055.7,1026.1c0,0.5-0.1,1-0.1,1.5c-0.1-0.3-0.2-0.7-0.3-1C1055.3,1026.4,1055.5,1026.3,1055.7,1026.1z
		 M1055.6,1036.8c-0.1,0.4-0.1,0.7,0.1,1.1c-0.1-0.2-0.3-0.5-0.4-0.7C1055.3,1037,1055.5,1036.9,1055.6,1036.8z"/>
	<path fill="#101115" d="M1152.9,685.7c15.8,0.4,31.5,3.2,47.4,3.2c7,0,14.1,1.5,21.9,0.1c2.3,1.9,5.4,2.7,9.2,1.5
		c3.7-1.1,7.6-1.3,11.7-0.8c5.4,0.6,11.3,1.7,16-2.4c1.1,0.9,1.7,1.4,2.4,2c2.3-0.8,3.3-4.6,6.5-3c1.3,3-2.5,2.3-2.4,4.4
		c0.9,1.4,2.2,0.4,4.1,0.5c2.4-8,8.2-15,8.6-24c1.9-1.2,3.8-2.3,5.6-3.5c4.8-3.1,7.1-10.3,5-15.5c0.1-2.2,0.1-4.5,0.2-6.7
		c3.4,1.1,2.2,4.4,3.1,6.7c2.8,9.2,2.3,18.8,3.9,30.6c1.6,3.7,1.6,3.7,0,10.6c-0.5,2-0.7,4-1,6c-2,1.5-4.3,2.8-4.8,5.5
		c-1.3,0.8-2.6,1.7-3.9,2.5c-0.8,0.2-1.7,0.5-2.5,0.7c-2.3-0.1-4.5-0.2-6.8-0.4c-1.5-3.5-5.2-2.2-7.1-2.9c-1.6-1.6-0.1-3.2-1.3-4.2
		h0.6c0,0-0.2,0.1-0.5,0.2c-1.9,2-0.5,4.6-1.3,6.8c-1.8,1.6-3.5,3.2-6.3,5.7c5.5,1,3.5,7.2,7.9,8.9c-0.1,0.7-0.1,1.8-0.4,1.9
		c-5.2,1.5-9.3,5.9-15.4,5.3c-4.7-0.5-9.4-0.1-13.3-0.1c-2.6,0.7-1.8,3.1-3,3.6c-2.5-0.2-1.5-3-3-3.3c-2.7-0.9-4.6,0.2-6,2.1
		c-2-1.1-3.4-2.6-5.7-2.4c-9.4,0.8-18.8-1.5-28.1-1.1c-11.7,0.4-23.2-1.8-35.1-1.4c-1,1.7-2.1,3.4-3,4.9c-3.2-0.4-0.7-3.9-3.3-4.7
		c-3.6,0.1-2.4,5.5-5.9,6.3c-1.1-2.5,1.6-4.9-0.5-7.5c-6.8-1-14.2-0.9-21.5-1.4c-14.1-0.9-28.2-0.4-42.3-1.5
		c-6.7-0.6-13.4-0.7-20,1.1c-0.8-1.2-2.2-1.4-3.5-1.8c-1.6,0.7-1.8,3.1-4,3.2c-0.7-0.8-1.4-1.5-1.8-2c-8,0.8-15-0.5-20.7-6.2
		c0.2-2.4,0.5-4.9,0.7-7.3c0.3-3.8,1.7-8.1,0.4-11.3c-2.4-5.6-1.7-10.9-1.4-16.4c0.4-9,5.1-14.9,14.1-17.2c-1.5-5-3.2-9.9-4.3-14.9
		c-4.9-22.1-7.1-44.6-10.2-67c-0.1-0.9,0.2-1.8,1-2.3c4,4.9,3.1,11.1,3.7,16.6c1.3,12.2,3.8,24.2,4.7,36.5c0.7,9.3,2.7,19,7.1,27.2
		c4.2,7.8,7.2,16.8,16.3,21.4c17.6,4.8,35.9,7.3,54.6,6.4c3.9,2.4,8.1,0.8,12.2,1.1h18.8C1151,685.7,1152,685.7,1152.9,685.7
		L1152.9,685.7z"/>
	<path fill="#F6F3E0" d="M1286.3,703.1c1.3-0.8,2.6-1.7,3.9-2.5c2.1,0.6,3.7-1.4,5.7-1.2c-0.6,3-1.7,5.8-1.6,8.4
		c-1.7,3-4.2,3.8-6.5,5.1c-1.6,0.9-4,1.1-4.1,3.7c-1,0.5-1.9,1-2.5,1.2c-2.4,0.3-2.5-3.1-6-1.3c-2.2,1.6-0.3,5.3-1,8.3
		c-2.7-1.6-1.6-5.9-5.1-6.9c-4.4-1.7-2.4-7.9-7.9-8.9c2.8-2.5,4.5-4.1,6.3-5.7c3.2-0.9,6.3,3.5,9.6,0.1c2.3,0.1,4.5,0.2,6.8,0.4
		C1285,705,1285.9,704.8,1286.3,703.1L1286.3,703.1z"/>
	<path fill="#283050" d="M1281.2,759.9c3.7,1,3.3,4.4,3.7,7c0.4,3.1,0.1,6.3,0.1,9.4c-1.9,0.2-2.5-1.7-4.1-2.6
		c-18.5,9.8-38,13.5-58.7,6.7c19-7,38.1-13.5,59.2-9.9C1284.3,767,1279.6,763.4,1281.2,759.9L1281.2,759.9z M1275.9,773
		c-14.7-1.3-28.9,0.8-42.5,6.8C1248.5,783.5,1262.3,779.2,1275.9,773z"/>
	<path fill="#2C3455" d="M1048.9,773.5c0.2-4.2-1.5-8.5,0.6-12.5c4.5,2.1,9.2,3.2,14.2,3.1c7.8-0.1,15.6,0,23.4,0
		c0.3,6.6-2,9.1-8.4,9.4c-9.5,0.4-18.5-1.6-27.2-5.1C1049.2,769.5,1051.2,772.7,1048.9,773.5z"/>
	<path fill="#DDDCD9" d="M1032.6,712.8c5.7,5.7,12.6,6.9,20.7,6.2c0.4,0.4,1.1,1.2,1.8,2c2.1-0.1,2.4-2.5,4-3.2
		c1.3,0.4,2.6,0.5,3.5,1.8c-1.5,2.6-3,5.1-4.5,7.7l-3.6,0.3c0-1.8,0-3.6-2.3-5c-0.6-0.1-1.8-0.4-2.8-0.3c-7.2,1-13.2-1.6-18.6-5.9
		c-7.1-5.6-14.7-10.1-23.8-12.7c-2.3,0.6-5,1.9-8.2-0.2c-1-3.7-5.2-6.3-5-11c4,3.1,7.6,6.7,12.7,8.2c7.6,2.3,15.1,5,21.4,10.2
		C1029,712,1030.6,712.9,1032.6,712.8L1032.6,712.8z"/>
	<path fill="#283050" d="M1285.1,781.7c2.1,2.7,2.1,5.4,0,8.1C1283.1,787,1283.1,784.4,1285.1,781.7z"/>
	<path fill="#272E4C" d="M1031.3,518.3c-0.5-7.2-2.5-14.1-5.1-20.7c-3.5-8.9-5.1-18.6-11.1-26.4c-1.4-1.8-2.7-3.5-4.2-5.6
		c1.3-2.7,5-5,1.5-8.2c2.4-1.4,3.9-1,6.3-0.8c7,15.9,14.2,32.2,21.9,49.5c0.6-19.2,1.3-37.4,4.7-55.4c1.5,17.9-0.5,36,2.8,54.9
		c-3.2,6.4-1.4,14.7-2.8,22.5c4.1-8.1,5.4-16.9,7.7-25.4c4.3-15.9,7.9-32,12.5-47.8c2.3-7.8,5.6-15.6,13.9-19.7
		c-4.1,10.1-9.7,19.5-13,30s-5.4,21.1-5.5,31.8c-1.7,1.4-2.2-0.3-3.6-0.8c-4,14.9-8,29.7-12.2,45.2c-2.5-2.8-2.1-5.8-5.1-8.7
		c-1,11-0.1,21.4-3.5,31.3c-2.8-0.6-3-2.6-3.8-4l0.3-29.5c2.3-0.3,2,2.6,3.4,3v-25.2c-1.8-0.4-3-1.6-4.8-0.8
		c0.7,2.1,1.6,4.2,2.1,6.3s1.4,4.4-1,6C1032.2,519.3,1031.8,518.8,1031.3,518.3L1031.3,518.3z"/>
	<path fill="#2C3455" d="M1322.8,596.8c-5.7-6.8-8.4-15.1-11-23.4c-1.1-3.4-1.8-7.1-6-8.7c-3.9,6.4-3.6,13.9-4.4,20.9
		c-2,18.5-4,36.9-7,55.2c-0.4,2.4-0.9,4.8-2.2,7c-0.8-2.3,0.4-5.5-3.1-6.7c1.4-22.7,4.5-45.1,10.2-67.6c-2.1-1.4-2-4.6-2.7-6.5
		c-2.2-1.5-2.4,1.8-4,0.6c-0.8-0.6-0.9-1.5-0.7-2.4c1-6.6,2.3-13.1,3.2-19.7c1.3-9,2.1-18.1,3.6-27.1c1.2-7.2,0.6-14.6,3.2-21.7
		c1.9-5.4,1.5-11.3,0.5-16.6c-1.5-8.1-1.1-15.9,0.3-23.9c1.6-0.5,3-2.2,5.3-0.1c-3.5,4.4-2,10.1-3.4,15.4c3.8-5.3,4.7-12.3,9.3-17.6
		c1.5,2.3,0.7,4-0.2,5.8c-7,14.4-10.3,29.4-7.7,46.2c2.5-8,5.8-14.8,6.9-22.9c0.9-6.7,5.1-13.6,11.3-18.9c2.1,3.3,1.5,6.1,0.5,9.1
		c-2.9,8.5-7.8,16.1-11,24.4c-2.7,7.3-5.7,14.5-8.7,21.6c-1.6,3.8-1.6,8.1-1.8,11.8c-0.4,9.8-3.2,19.5-1.4,29.5c1,1.3,2.8,1,4.1,1.7
		c2-1,1.6-3.7,3.7-4.6c-0.4,2.4,3.2,2.9,2.7,5.4c-0.3,5.6,3,10.1,4.8,15C1319.3,584.1,1322.2,590.1,1322.8,596.8L1322.8,596.8z"/>
	<path fill="#283050" d="M1155.1,658.3c-2.3,1.1-3.9-0.9-5.6-0.2c-1.4,2.1-0.1,4.6-1.3,6.7c-1.7,0.7-3.3,1.8-6.1,1.4
		c-0.7-18.5,3.1-36.4,7.5-54.3c2.4,3.3,1.9,7.8,5.9,9.8v8.8h1.3v-27.8c4,2.5,2,6,3,9.4C1164.8,620.9,1162.2,648.2,1155.1,658.3
		L1155.1,658.3z M1173.3,463.3c3.2,4.2,4.6,9.1,3.6,14.1c-3.2,15.9-8.8,30.9-16.8,45c-5.3,9.2-9.6,18.3-10.3,29.4
		c-0.4,7.4-0.7,14.7-1,22.1c-0.2,6.1-1.6,12-3.6,17.6c-3.9,10.7-8.4,21.2-12.6,31.8c-0.6,1.5-1.1,3-3.7,2.5c0.5-4,2-7.6,3.6-11.2
		c4.7-10.5,6.6-21.6,8.2-32.9c2.7-18,4.4-36.2,8.4-54c1.3-5.8,3.8-11.3,6.5-16.8c0.9,6.6-3.4,12.3-4.1,18.8c2.6,0,2.7-1.9,3.3-3.1
		c5.5-11.3,11.9-22.1,15.8-34.1c2.9-8.8,5.9-17.4,1.3-26.6C1171.6,465,1171.8,464.1,1173.3,463.3L1173.3,463.3z"/>
	<path fill="#292C44" d="M1289,647.9c2.2,5.1-0.2,12.4-5,15.5c-1.9,1.2-3.7,2.4-5.6,3.5c-2.3-1.9-2.3-5.1-2.4-7.4
		c-0.8-12.3-5.1-23.9-7.1-36c-0.7-4.6-1.8-9.2-2.7-13.7c5.5-7.1,1-15.6,3.6-24.1c5.8,12.4,0.7,25.2,5.4,36.8c0-6.2,2-12.2,2.2-18.7
		c4.2,0.6,5,3.6,6.1,6.2c-0.8,2.2-2.5,0.4-3.5,1.2c-0.8,1.3-1.6,2.7-1.6,4.3v26.3c0,2.9,1.1,4.7,4.4,4.6c2.2-3.5,0-7.5,1.5-11.3
		c5.1,6-1,12.3,1.3,18.6C1287.4,652.1,1285.2,648.1,1289,647.9L1289,647.9z"/>
	<path fill="#283050" d="M1121,535.7c2.5,7.3,2.5,14.2,2.5,21.2c0.1,15.7-7.4,28.7-13.7,42.3c-2.9,6.2-5,12.9-6.8,19.6
		c-5.3,20.1-14.2,38.5-25.2,56c-0.5,0.8-1.2,1.3-2.8,1c-0.2-4.5,3.3-7.6,5.3-10.8c10.3-16.7,16.5-35.2,22.2-53.7
		c1.7-5.6,3.9-10.9,6.5-16.1c4-8.2,8.3-16.3,10.2-25.4c2.2-10.1,2.2-20.2,0.2-30.2C1119.3,538.4,1118.9,537.3,1121,535.7L1121,535.7
		z"/>
	<path fill="#272E4C" d="M1293,530c-2.1,1.8-3.5,3.5-4.1,6.5c-1,6-2.5,12.1-6.1,17.5c2.6-16,8.3-31.6,7.7-49.4
		c-7.6,8.9-13.4,17.7-20.2,25.8c0.7-4.3,2.3-7.7,4.9-11.2c6.5-8.5,12.1-17.7,18.1-26.6c2.1-3,0.7-6.6,1.8-10.6
		c4.8,8.4-0.1,16.4,0.6,24.1C1296.5,514,1293.9,521.6,1293,530L1293,530z"/>
	<path fill="#283050" d="M1131.3,685.7c-4.1-0.3-8.3,1.3-12.2-1.1c-2.1-3.9-3.3-8.3-6.5-11.3c-1.8-0.8-2,2.2-3.7,1
		c-1.8-2,2-4.5-0.5-6.7c-2.2-1.9-1.4-4.4-0.9-7.3c5.1,1.5,4.6,7.7,9.1,9.5c3.8,1.5,6.7,5.1,11.4,6.5c-0.1-6-2.7-10.9-3.8-15
		c-1.7-3.4-5-1.5-6.4-4.2c1.1-3.8,4-1.9,6.2-2c3.8,3.9,3.4,9.6,7.4,13C1131.3,674,1131.3,679.8,1131.3,685.7z M1051.2,653.2
		c-2.6-0.8-2.2-2-2-3.1c4.2-17.5,6.9-35.2,10.4-52.9c4-20.5,4.8-41.2,4.2-62c-0.1-2.1-0.6-4.3,1.2-8c2.7,14,2.2,26.8,1.1,39.2
		C1063.6,595.8,1057.7,624.5,1051.2,653.2L1051.2,653.2z M1264.7,533c-0.3,2-2.8,1.2-3.4,2.8c-2.4,7.4-1.1,15-1.4,22.6
		c-4.7-13.2-8.3-26.4-7.9-40.5c3.3,7.1,2.5,15.3,5.6,23c5.1-22.4-2-43.5-5-65.1c3.5,0.9,2.5,3.4,3,5.2c2.9,10.1,4.4,20.4,5.3,30.8
		c0.4,5.1,1.6,10.2,1.1,15.3C1261.8,529.9,1265.1,530.5,1264.7,533L1264.7,533z"/>
	<path fill="#272E4C" d="M1312.2,563c0.5-2.5-3.1-2.9-2.7-5.4c6.2-2.4,12.6-4.2,17.8-8.9c5.1-4.5,11.8-3.4,18.4-3.3
		c3,1.6,5.8,4,10,4.2c3.7,0.1,4.6,2.2,4.4,7.6c-4.5-0.9-7.2-5.2-12-6.3c-3.3,1.7-7.4,1-11.3,1.8c-6.3,1.2-11.6,4.6-17.2,7.3
		C1317.1,561,1315,562.8,1312.2,563L1312.2,563z"/>
	<path fill="#DDDCD9" d="M963.8,610.2c-0.9,5.9,4,9.7,5.8,14.6c1.5,4.1,3,8.2,4.4,12.4c5,14.7,9.7,29.6,15.7,44
		c1.5,3.7,2.5,7.5,3.8,11.3c-2.3,0.4-2.6-2-4-2.7c-0.2-1.4,0.4-3.1-1.4-4c-1.1-4.3-2.4-8.4-5.6-11.9c-3.1-3.6-4-8.5-5-13
		c-3.3-15.3-8-30.1-15.1-44.1c-1.6-3.1-2.4-6.5-3.6-9.8C960.9,607.6,962.8,608.2,963.8,610.2L963.8,610.2z"/>
	<path fill="#283050" d="M1027.3,572.3c-1.3,0.2-2.6,0.5-3.8,0.7c-0.3-0.9-0.9-1.9-1.8-1.7c-9.3,2.3-18.7,0.4-28.2,1.3
		c-2.8,2.4-4.4,6.5-9,7.7c-0.2-3.7,3.3-4.5,4.3-7.7c-10.1-3.2-21.4-3.1-30.8-9.1c11.4,1.9,22.4,5.7,34,6.1c11.8,0.3,23.6,0.7,35-1.6
		C1028.5,569.8,1027,571,1027.3,572.3z"/>
	<path fill="#272E4C" d="M1331.8,603.9c-1.1,0.2-2.1,0.1-2.5-1.2c3.1-3.4,8.2-3.3,12.3-7.4h-13.7c4.8-6,12.1-1.6,14.9-6.5
		c6.1-0.7,11.1,0,15.8,1.7c1,1.5,0.8,2.7,0.2,4.2C1349.2,596.1,1340.2,599.1,1331.8,603.9L1331.8,603.9z"/>
	<path fill="#283050" d="M1157.9,496c-2.2,1-2.9-0.4-3.5-1.5c-4-6.9-6.4-14.2-5.7-22.4c0.4-4.2,2.7-7.1,4.9-10.1
		c4.5-6.2,11.4-9.8,17-14.9c0.4,4.3-3,5.8-5.5,7.8c-4.7,3.8-9.4,7.7-12.1,13.3c-3.8,7.8-1.7,15.1,2.3,22.1
		C1156.3,492.2,1157.9,493.7,1157.9,496L1157.9,496z M1255.3,457.9c4.4,0.6,4.6,3.5,5.5,5.8c9.2,24.3,11.6,38.4,7.8,48.1
		c-2.2-6.6-0.1-12.9-1.6-18.9c-1.5-5.8-2.3-11.8-4.2-17.5C1260.9,469.7,1258.1,464.2,1255.3,457.9L1255.3,457.9z M1152.9,685.7h-2.8
		c-0.4-1.3-2.3-1.4-2.6-3.6c0.7-5.5,2.9-11.3,3.6-17.5c3,5.1,1,10.7,2.1,16.2c7.8-3.1,13.9-9.1,21.4-12.7c1.5,2.5-0.4,2.7-1.3,3.4
		c-6,4.3-12,8.4-18.7,11.6C1153.3,683.7,1153,684.5,1152.9,685.7z"/>
	<path fill="#101115" d="M1032.9,530.4l-0.3,29.5c-1.2,0.5-1.2,2.4-2.9,2.5c-1.8-0.9-1.2-2.7-1-4.1c1.7-9.5,1.6-18.9,0.1-28.4
		c-0.4-2.8,0-5.8-0.1-8.7c0-1.9,0.7-3,2.6-3.1c0.4,0.5,0.8,1,1.3,1.5C1032.7,523.3,1032.8,526.9,1032.9,530.4z"/>
	<path fill="#283050" d="M1087.6,582.9c11.7-15.9,18.8-32.5,18.2-52.5C1112.7,539.4,1099.2,578.5,1087.6,582.9z M982.2,581.4
		c-7,7.7-15.4,13.2-25.5,16.2C965.1,592.1,973.4,586.3,982.2,581.4z M1273.3,493c2.6-6.7,6.6-12.6,12-17.4
		C1284.5,479.9,1278.4,488.9,1273.3,493z M1172.1,444.8c3.9-5.8,5.8-12,5.5-19C1181.6,432.3,1179.5,439.7,1172.1,444.8z
		 M1302.7,456.3c-4.9,2.8-6.1,9.1-12.3,12.9c2.6-7.2,6.8-11.3,10.5-15.7C1302.5,454.5,1302.6,455.4,1302.7,456.3L1302.7,456.3z
		 M1289.6,469.8c0.7,1.7,0.4,2.5-0.4,3c-0.5,0.3-1.1,0.5-2,0.8C1286.4,471.2,1287.8,470.6,1289.6,469.8z M1079.3,592
		c0.6,0.4,0.6,0.9,0,1.4C1078.6,592.9,1078.6,592.4,1079.3,592z"/>
	<path fill="#DDDCD9" d="M958.8,607c-1,0.3-1.5-0.2-1.6-1.1C958,605.9,958.5,606.3,958.8,607z"/>
	<path fill="#101115" d="M1151.1,261.7c-9.5,4.5-19.7,6.1-30.1,7.1C1130.4,264.2,1140.8,263.3,1151.1,261.7z"/>
	<path fill="#A1A09C" d="M1127.1,348.4c-2.4,2.2-1,5.4-2.3,8c-1.7,3.5-1.4,3.6-6,5.3c-3.3-1.6-2.7-4.5-2.4-7.3c2-0.6,2.2,2.3,5,1.5
		c3.1-3,1.2-7.8,2-11.9C1124.8,345.4,1126.6,346.3,1127.1,348.4L1127.1,348.4z"/>
	<path fill="#101115" d="M1154.8,252.7c-0.2,3.1-2.2,2.8-3.5,3.2c-4.6,1.3-8.7,4.3-13.9,4C1142.2,254.9,1148.8,254.5,1154.8,252.7z
		 M1146.1,314c-2-5-0.1-10.4,5.5-15.5C1151.8,301.9,1150.3,306.2,1146.1,314z"/>
	<path fill="#E8E5D3" d="M1318.8,691.2c3,0.4,6.2-0.7,9,0.7c1.1,3.7-1.7,4.5-3.9,5.4c-2.8,1.2-5.8,2.3-8.8,3
		c-5.7,1.3-9.3,4.9-11.9,9.9c-1.2,2.4-2.7,4.6-5.2,5.8c-1.7-1-0.2-3.1-2.1-4.4c-2.5,1.5-5.3,3.2-8.1,4.8c-1.4,0-2.8,0-4.2,0.1
		c0.1-2.6,2.5-2.8,4.1-3.7c2.3-1.3,4.8-2.2,6.5-5.1c-0.2-2.6,1-5.4,1.6-8.4c0.7-0.2,1.2-0.6,1.3-1.3c1.1,0,2.2-0.1,2.7-1.4
		C1305.9,693.3,1312.4,692.5,1318.8,691.2L1318.8,691.2z"/>
	<path fill="#FBF4CD" d="M1135.3,360c0.1,1.2,0.2,2.5,0.3,3.7c-0.3,1.9,0.9,2,2.3,2.1c3.2,0.2,6.5-0.7,9.6,1c-0.1,1.1-0.2,2.2-1,3.1
		c-3.8,4.2-8.9,6.5-13.8,8.9c-3.1,1.6-6.5-0.1-9.1-2.7c-0.9-3-0.5-6.2-0.4-8.6c1-4.1,5.4-4,6.6-7.1c2.1,0.3,2.3-1.6,3.2-2.7
		C1134.3,358,1134.4,359.5,1135.3,360L1135.3,360z"/>
	<path fill="#625E45" d="M1215,357.7c-1.2-0.9-2.4-1.9-4.1-1.5c0.5-7.6,6.2-10.6,12-13.6l0.5,0.5c-0.6,4.2-2.7,8.2-2,12.6
		c0.1,0.5-1.1,1.3-1.6,1.9c-1.4,0.1-1.8-1-2.3-1.9C1216,355.8,1216,357.3,1215,357.7z"/>
	<path fill="#FBF5D1" d="M992.2,741.1c0.3-2.3-1.6-3.6-2.7-5.2c-4-6.2-6.6-13.1-8.7-19.8c-2.8-1.3-4.8,0.1-6.4,0.7
		c-4.2-0.6-6.2-3-7.7-6.3c-1.8-3.9-3.7-7.7-5.7-11.5c-1.5-2.8-2.2-6.4-6.3-7.2c-1.6-0.3-2-2.4-2.6-3.8
		c-5.7-13.6-13.2-26.4-17.7-40.5c-1.6-4.9-1.6-9.9-2.9-14.6c2.6-2,3.6-0.4,4.4,1.3c2.4,5.3,5.1,10.5,7.2,15.9
		c6.4,15.8,14.4,30.8,24.1,44.8c4.7,6.7,9.5,13.6,16.1,19.1c5.2-0.5,9.3,2,12.6,6.1c3.1,3.9,7.7,6.2,11.1,9.7c1.7,1.7,4.1,3,4,5.9
		c-1.8,0-3.6,0.1-5.4-0.1c-1.7-0.2-3.4-2.1-5.4,0.6c9.2,3.8,17.8,2.8,26.2-0.8c2.9-1.3,5.6-2.9,8.9-2.3c-1.6,5.2-4.3,9.2-10.3,9.4
		c-2.2,0-1.1-2.9-2.8-3.2c-3.2,1.8-4.9,4.5-5.5,8c0.4,1.9,0.7,3.9,1.1,5.8c-1.3,3.2-0.7,4,4,5.6c0.1,2.6-0.2,5-4,5.4
		c-5-3.7-10.3-7.4-14.9-12.2c0.2-2.7-0.6-4.6-3.3-5.7C996.9,745,994.3,743.4,992.2,741.1L992.2,741.1z"/>
	<path fill="#D3D1C2" d="M1035.4,733c-3.3-0.5-6,1.1-8.9,2.3c-8.4,3.6-17,4.6-26.2,0.8c2-2.8,3.7-0.8,5.4-0.6
		c1.8,0.2,3.6,0.1,5.4,0.1c4.3,0.5,8.6,0,12.3-2.1c8.9-5.1,17.8-3.7,26.8-0.5c-2.8,2.5-5.9,1.5-8.9,0.7
		C1039.3,733.3,1037.4,733,1035.4,733z"/>
	<path fill="#242425" d="M1209.1,386.2c-8.2-4.6-17.2-6.7-26.4-8c-4.3-0.6-8.3,1.1-12.5,1c-1.1-2.2-4-0.2-5.3-2.1
		c8-1.3,16-1.2,24.1-0.5c8,0.6,14.9,4.5,21.7,8.2c0.1,0.4,0.2,0.8,0.4,1.1C1210.5,386,1209.8,386.1,1209.1,386.2L1209.1,386.2z"/>
	<path fill="#DDDCD9" d="M1318.8,691.2c-6.4,1.3-13,2.1-18.8,5.4c-1.1,0-2.2,0.1-2.7,1.4c-0.7,0.2-1.2,0.6-1.3,1.3
		c-2-0.2-3.6,1.8-5.7,1.2c0.5-2.8,2.8-4.1,4.8-5.5l24-7.2c0.8-0.3,1.7-0.4,2.6-0.6C1322.1,689.4,1319.6,689.7,1318.8,691.2
		L1318.8,691.2z"/>
	<path fill="#D3D1C2" d="M1277,703.4c-3.2,3.4-6.4-1-9.6-0.1c0.8-2.2-0.6-4.9,1.3-6.8l-0.1-0.1c1.1,1-0.3,2.5,1.3,4.2
		C1271.8,701.2,1275.6,699.9,1277,703.4L1277,703.4z M1286.3,703.1c-0.4,1.7-1.3,1.9-2.5,0.7
		C1284.6,703.5,1285.5,703.3,1286.3,703.1z M1268.8,696.4c0.3-0.1,0.5-0.2,0.5-0.2h-0.6L1268.8,696.4z"/>
	<path fill="#36406A" d="M1275.9,773c-13.6,6.2-27.4,10.5-42.5,6.8C1247,773.8,1261.2,771.6,1275.9,773z"/>
	<path fill="#DDDCD9" d="M1321.6,687.1c10.4-11.4,15-25.6,20.2-39.6c3.3-8.8,6.6-17.5,10.1-26.2c0.9-2.2,1.1-5.6,4.7-5.8
		c-4.3,13.6-10.1,26.5-15.1,39.8c-3.6,9.5-7.3,19.1-13.1,27.7C1326.7,685.5,1325,687.6,1321.6,687.1L1321.6,687.1z M1413.4,615.6
		c-0.3,0.9-0.9,1.2-1.9,1C1411.8,615.3,1412.7,615.7,1413.4,615.6z"/>
	<path fill="#FEFEFE" d="M954,635.4c-4.8,0.2-5.5-3.6-7.1-6.2c-3.9-3.6-8.1-3.3-12.6-1.2c-4.6-5.7-5.9-12.5-9.1-18.8
		C941.6,613.5,953.7,622.7,954,635.4L954,635.4z"/>
	<path fill="#FBF5D1" d="M988.1,685.8c1.8,0.9,1.2,2.6,1.4,4c-3,3-6.8,3.1-11,2.6c-8.4-4.4-12.5-12.3-15.3-21.3
		c-2.5-8-4.7-16.1-5.7-24.6c3,3.9,3.9,8.7,5.4,13.3c1.7,5.1,3.9,9.7,7.8,13.7c3.5,3.6,5.8,8.4,9.3,12.3H988.1z"/>
	<path fill="#36406A" d="M1032.9,530.4c-0.1-3.6-0.2-7.1-0.4-10.7c2.4-1.7,1.5-4,1-6c-0.5-2.1-1.3-4.2-2.1-6.3
		c1.8-0.8,3,0.4,4.8,0.8v25.2C1034.9,533,1035.3,530.1,1032.9,530.4z"/>
	<path fill="#625E45" d="M1147.5,366.9c-3-1.7-6.4-0.8-9.6-1c-1.5-0.1-2.6-0.3-2.3-2.1c7.6-1.1,15.2-0.3,22.8-0.2
		c13,0.3,26,0.7,39,1.1c1.4,0,3.3-0.7,4,2.3c-14.8,0.1-29.2,3.7-43.9,1C1154.2,367.3,1150.9,366.6,1147.5,366.9L1147.5,366.9z"/>
	<path fill="#101115" d="M1165,377.1c1.3,1.9,4.1-0.1,5.3,2.1c-14.1,2.3-28.7,1.8-42,8.2c-0.7,0.3-1.7,0-2.6-0.1
		c1.5-3.6,5.1-4.4,8.2-5.1C1144.1,380,1154.5,377.8,1165,377.1z M1125.6,387.2c0.6,2.4-0.3,3.3-2.7,2.7
		C1123.1,388.3,1123.9,387.3,1125.6,387.2z"/>
	<path fill="#F6F3E0" d="M1297.3,697.9c0.5-1.2,1.6-1.3,2.7-1.4C1299.5,697.9,1298.4,698,1297.3,697.9z M1295.9,699.3
		c0.2-0.7,0.6-1.2,1.3-1.3C1297.1,698.7,1296.7,699.1,1295.9,699.3z"/>
</g>
</svg>
