<svg xmlns="http://www.w3.org/2000/svg" baseProfile="tiny" viewBox="0 0 1462 539">
    <defs/>
    <style>path {fill:#016838}</style>
    <path d="M749 335a467 467 0 0137-11c-19 5-31 7-34 7l5-1-5 1c-3 0 7-4 31-11-44 12-62 10-27-3-35 13-37 7-3-9-34 16-29 12 7-6-36 18-36 16 0-4-36 20-44 18-11-2-33 20-34 17-2-4-32 21-26 15 10-9-36 24-29 17 9-9-38 26-32 19 10-11-42 30-35 23 8-10-43 33-46 30-4-4l-36 28 14-10a575 575 0 0112-11l-29 23c-20 16-21 15 6-8-32 28-33 27-2 0-31 27-31 25 0-4-31 29-25 19 10-14-35 33-38 32-4-1-34 33-58 54-35 29-23 25-26 20-5-7-21 27-26 25-7-2l-15 22a629 629 0 01-2-1l-3-1 8-16c-12 21-16 18-10-1l10-21a347 347 0 015-12c-17 36-19 34-3-3-16 37-23 39-9 2l-11 26 6-17-4 11 5-16-6 18c-9 23-14 27-8 2-8 29-9 26-2-5-7 31-8 25-1-8-7 33-12 28-8-8-4 36-9 46-6 15-3 31-3 28-1-5-2 33-4 32-3-1v-18c-1 38-2 27-1-17-2 44-3 34-3-14 0 48-2 49-2 2a800 800 0 01-2 38c1 36-1 46-3 15 2 31 1 32-1 1 2 31 1 31-1 0 2 31-2 14-7-24 5 38 3 40-2 2 5 38 4 47-2 14 6 33 6 46 0 18l4 22h-2l-4-15 3 16-2 1-1-2-5-21c5 17 5 20 1 11l-2-8 2 6-6-18c9 30 6 34-4 6 10 28 10 35 0 10l6 20h-1c-2 0-5-6-10-16 12 24 5 19-10-7 15 26 11 27-7 0 18 27 24 38 10 17l7 14-3 3-2 2-12-9c16 16 11 13-7-4l-20-18c26 25 25 29 0 5 19 18 28 29 22 27l-9-8a316 316 0 0113 12c7 7 2 6-13-5 21 15 15 15-10 0 25 15 22 20-3 7 25 13 30 19 7 8 23 11 18 10-8-1 26 11 11 8-21-5 32 13 30 13-3 0 33 13 28 14-7 2 35 12 34 12-2 1 36 11 36 14 0 3l18 6c30 9 28 12-3 4 31 8 18 8-19 1 37 7 34 7-5 0 39 7 26 9-17 3 43 6 43 7-2 1 45 6 52 7 10 1 42 6 56 9 20 4 36 5 42 7 10 4 32 3 35 4 4 1 31 3 41 6 15 4 26 2 26 4-1 2 27 2 20 3-9 2 29 1 25 5-6 7 31-2 35 3 5 7 30-4 38-4 12 0 26-4 21 3-7 9 23-5 22-2 3 5a5445 5445 0 00-10 3l-4 1 4-1c10-2 2 1-24 10 37-12 53-4 22 11 31-15 35-15 6 0 21-10 29-10 22-2l-5 3-26 18 19-11-5 4 6-4c10-5 14-2 7 6l-22 17c28-22 23-21-4-1 5-1 4 1-2 7l-15 12a401 401 0 0117-13c22-15 29-13 10 8l-2 1 2-1-5 5 7-7 6-5-13 13 13-14a155 155 0 01-9 13c12-13 16-18 12-15 11-11 9-7-6 9l-5 5 1-1-6 6 6-6c18-17 18-12-6 16 30-34 42-39 18-6 24-33 31-37 9-7 22-30 29-29 10 2 19-31 16-25-3 9 19-34 22-32 4 2 17-31 24-34 14-8a375 375 0 00-16 32c8-18 14-27 16-29v0c4-2 1 10-8 34 16-43 15-36-3 10 18-46 22-48 6-2 16-46 17-48 2-4 13-39 19-47 12-20l-2 7a476 476 0 01-2 7l6-20c9-29 13-29 5 4l8-26 3 2a324 324 0 012 1h1v1l-1 2a171 171 0 01-1 14l-1 7 1-7 2-4v-7l1-6h1l-2 12c5-16 9-10 6 21l2-18-3 41 1-13c3-35 5-31 3 13 2-48 6-51 5-4 1-47 3-54 4-11-1-43 4-33 7 15-3-48-1-49 3-2-4-47-2-56 2-12-2-24-2-37 0-38 2 1 4 9 7 26l-3-26h3l5 23-4-23h2l1 2a989 989 0 003 8c-1-11 5 3 15 37-13-47-9-53 6-10-15-43-13-43 3 0-13-37-14-41-4-15-4-16-4-21 2-11l4 9-4-9a817 817 0 00-5-14v-2h1a461 461 0 012-1l3-1 16 27c-8-14-12-24-13-29l3-1 15 21-14-22 2-1a318 318 0 0113 19l-1-1 7 11-7-11v-1c-10-15-11-18-5-9l6 11 5 6a8392 8392 0 0018 25c-29-44-29-56 0-18-29-38-24-42 7-5-23-27-29-38-18-29a1571 1571 0 0012 10c-29-31-21-35 13-6-34-29-35-36-2-10-16-13-24-20-23-21s10 4 27 17c-34-25-20-24 20 1-40-25-42-32-3-9-26-15-39-24-35-22l-6-3-3-3c-1-2-3-3-6-3h-10l-6 2c-2 1-3 4-5 7-7 17-22 26-45 26-12 0-22-4-31-12-9-9-14-21-16-38a152 152 0 010-23c1-16 6-29 16-37 9-8 19-12 31-12 23 0 38 8 45 26l5 7 6 2h10c3 0 5-1 7-3s2-4 2-6v-1l11-5 10-1zM254 335a467 467 0 0136-11l-33 7 4-1-4 1c-4 0 6-4 30-11-43 12-62 10-26-3-36 13-38 7-3-9-35 16-30 12 6-6-36 18-36 16 0-4-36 20-44 18-10-2-34 20-35 17-3-4-32 21-25 15 10-9-35 24-29 17 10-9-39 26-32 19 9-11-41 30-35 23 9-10-44 33-47 30-5-4l-35 28 13-10a575 575 0 0112-11l-28 23c-21 16-21 15 5-8-32 28-33 27-1 0-32 27-32 25 0-4-32 29-25 19 9-14-34 33-37 32-4-1-33 33-57 54-34 29-23 25-27 20-5-7-22 27-27 25-7-2l-16 22a629 629 0 01-2-1l-3-1 8-16c-12 21-16 18-10-1l11-21a347 347 0 014-12c-17 36-19 34-2-3-17 37-23 39-10 2-9 25-13 35-11 26l7-17-5 11 6-16-6 18c-10 23-15 27-8 2-8 29-10 26-3-5-7 31-8 25-1-8-7 33-12 28-7-8-5 36-10 46-7 15-3 31-3 28 0-5-3 33-5 32-3-1-2 33-2 21 0-18-2 38-3 27-2-17-1 44-3 34-2-14-1 48-3 49-3 2a800 800 0 01-2 38c1 36-1 46-3 15 2 31 2 32 0 1 2 31 0 31-2 0 2 31-2 14-6-24 4 38 3 40-2 2 5 38 3 47-3 14 6 33 6 46 0 18l4 22h-1l-5-15 3 16-2 1-1-2c0-2-1-9-5-21 5 17 5 20 2 11l-3-8 2 6-6-18c9 30 7 34-4 6 11 28 11 35 0 10 5 11 7 18 6 20h-1c-1 0-5-6-10-16 12 24 6 19-9-7 15 26 10 27-7 0 17 27 24 38 9 17 4 6 7 11 7 14l-2 3-2 2-12-9c16 16 10 13-7-4l-20-18c25 25 25 29-1 5 19 18 28 29 22 27l-9-8a316 316 0 0113 12c7 7 3 6-13-5 22 15 15 15-10 0 25 15 23 20-3 7 26 13 30 19 7 8 23 11 18 10-8-1 26 11 12 8-21-5 33 13 30 13-3 0 33 13 28 14-7 2 35 12 34 12-2 1 36 11 36 14 1 3 35 11 47 15 17 6 31 9 29 12-2 4 31 8 17 8-20 1 37 7 34 7-5 0 39 7 27 9-17 3 44 6 43 7-1 1 44 6 51 7 10 1 41 6 55 9 20 4 35 5 42 7 10 4 32 3 34 4 3 1 31 3 41 6 15 4 26 2 26 4 0 2 26 2 19 3-10 2 29 1 25 5-6 7 31-2 35 3 6 7 29-4 38-4 12 0 26-4 20 3-8 9 24-5 22-2 4 5a5445 5445 0 00-11 3l-4 1 5-1c10-2 1 1-25 10 38-12 53-4 22 11 31-15 36-15 7 0 20-10 28-10 21-2l-5 3-26 18 20-11-5 4 5-4c11-5 14-2 8 6l-22 17c27-22 22-21-4-1 4-1 3 1-3 7l-14 12a401 401 0 0116-13c22-15 29-13 10 8l-1 1 1-1-5 5 7-7 6-5-12 13 13-14a155 155 0 01-10 13l13-15c10-11 8-7-7 9l-5 5 1-1-5 6 5-6c19-17 18-12-6 16 30-34 43-39 18-6 25-33 31-37 9-7 22-30 29-29 11 2 18-31 16-25-4 9 20-34 23-32 4 2 17-31 24-34 14-8a375 375 0 00-16 32c9-18 14-27 17-29l-1 1 1-1c3-2 0 10-9 34 17-43 15-36-3 10 18-46 22-48 6-2 16-46 18-48 3-4 13-39 19-47 12-20l-3 7a476 476 0 01-2 7l6-20c10-29 13-29 5 4l8-26 3 2-3 23 5-23 2 1v1c-1-1-1-1-2 2a171 171 0 010 14l-1 7 1-7 1-4 1-7 1-6-2 12c5-16 9-10 7 21l1-18-3 41 1-13c3-35 5-31 3 13 2-48 6-51 5-4 1-47 4-54 4-11 0-43 4-33 7 15-3-48 0-49 3-2-3-47-2-56 2-12-2-24-2-37 0-38 2 1 4 9 7 26l-3-26h3l5 23-4-23h3v2a989 989 0 003 8c-1-11 5 3 15 37-13-47-8-53 7-10-15-43-13-43 3 0-14-37-15-41-5-15-4-16-3-21 3-11l4 9-4-9 9 19-15-33-1-2h2a461 461 0 012-1l3-1 16 27c-8-14-12-24-13-29l3-1 15 21-14-23h2a318 318 0 0112 19v-1l7 11-7-11v-1c-10-15-11-18-5-9l6 11 5 6a8392 8392 0 0018 25c-29-44-29-56 0-18-29-38-24-42 7-5-23-27-29-39-18-29a1571 1571 0 0012 10c-29-31-21-35 13-6-34-29-35-36-2-10-16-13-24-20-23-21s10 4 27 17c-34-25-20-24 20 1-40-25-42-32-3-10-26-14-39-23-35-21l-6-3-3-4-6-2h-10l-6 2c-2 1-3 4-5 7-7 17-22 26-45 26-12 0-22-4-31-12-9-9-14-21-16-38a152 152 0 010-23c1-16 6-29 16-37 9-8 19-12 31-12 23 0 38 8 45 26l5 7 6 2h10c3 0 5-1 7-3s2-4 2-6v-1l11-5 11-1z"/>
    <path fill-rule="evenodd"
          d="M554 402l-32-8-30-4c-20-4-17-4 8 0-24-5-20-6 16-3-31-4-30-4 2-3-37-5-42-4-19-7-23-3-23-3 0-4a546 546 0 0059-5c-48 2-51 2-12 0-45-1-50 0-19-5-36 2-38 1-5-6-38 4-42 5-17-1-31 6-33 6-8-3-27 4-27 2 0-10-24 6-21 3 12-13-30 13-30 13 0-1-30 13-31 13-2-3-31 15-33 15-6 0-29 14-30 13-3-5-25 15-24 14 4-7-27 16-26 16 5-6-29 20-29 19 0-3-40 22-41 21-26-4-17 17-20 20-11 9l7-7 7-7 1-2-4 4h-1l21-25c-23 24-29 28-19 13a677 677 0 002-3l11-16a480 480 0 005-9c-28 36-28 36-2 0-35 41-39 49-30 25-21 27-19 22-7-11l-14 26 8-19-9 19-1-1 7-17a1122 1122 0 01-9 16l4-10 4-8 11-29c-16 39-17 39-3 0-17 39-18 43-7 5-12 27-15 32-12 14-7 27-9 31-4 12l4-13 4-23-8 33-5 14h-1l3-24c-6 30-9 27-1-12-7 36-8 35-3-3-8 41-6 46-7 14l-4 22h-1l1-27c-3 28-4 22-3-26-2 42-2 41-1-3-2 45-2 45-2 2v18c-2 36-2 35-4 0a614 614 0 00-3 4c0 33 0 32-2-5 1 27 1 20-5-22 0 53 2 61-4 35l3 24h-2l-6-19 4 19-1-3-5-29 1 13v-3l1 4v8l3 10-3-9c1 8-2 1-10-22 10 39 10 42 0 12a333 333 0 013 22l-8-22c9 29 9 25-9-13 12 28 13 30-2-2l-11-25c16 47 17 50-2 11 14 38 14 42 1 21l-5-9 4 7-8-12 16 29 3 7 3 4c6 13 3 8-10-14l12 24v1c-2-1-7-9-16-23 18 30 17 29-4-4 18 32 18 32-3 1 20 32 20 30-2-1 20 35 23 38-3 12 18 26 14 25-15-11 26 32 24 32-5 0 27 32 26 30-5 0 31 37 37 39 12 17l22 20c4 6-1 1-18-15 16 16 20 21 12 15l-21-21 7 10-6-6 7 7c12 15 4 8-28-19 32 29 31 29-7 0 36 30 35 31-2 4l12 9-5-4 25 19-6-4 2 1a205 205 0 017 6l9 7-8-6-1-1h-1l-3-2h1l-4-2 4 3c24 21 18 19-12 6 32 19 33 21 5 5l19 14 5 2h1l5 1h14l6-1 2-1 1-1 1-1c5-6 9-11 14-14s12-4 21-4c11 0 21 3 28 9s11 14 11 25v4l-47 8c-20 3-37 9-49 18l-19 2 16 1-1 1-10 3-20 3 9-1-2 1 3-1c15 0 7 1-25 7 25-5 26-5 1 3a1538 1538 0 00-2 0l-5 2-15 3-14 3 21-4-2 1 4-1c20-4 13-2-22 6 47-10 49-9 10 2l33-8c21-6 20-6-2 2 33-8 34-8 2 4 31-10 30-9-4 3 32-11 30-10-4 4 35-10 39-11 10 8 10-2 17-3 19-2v4c-3 5-14 14-33 28 36-22 36-20 1 9 34-26 33-25-2 2 25-18 32-23 20-12a742 742 0 00-22 18l13-9c18-15 12-9-18 18a1684 1684 0 019-5c4-4 8-8 12-10l-3 2 10-8a890 890 0 0116-14l3-3 1 1-16 16 18-14 2 3-15 17 16-15 3 2-13 17 15-15 1 1a1061 1061 0 01-20 27c24-30 25-27-2 12 24-32 27-35 11-10l14-19-7 11-8 10-6 10 14-20-5 8c25-31 25-28 7 10 24-37 26-39 10-10l11-20 4 1-6 20 9-20 1 1-10 29c15-35 16-35 5 3 14-37 14-35 4 5a508 508 0 0111-37h1l-1 8-4 12-7 25a972 972 0 0113-43l1-1 7-1-1 10 3-10h4l-1 23 4-24 2-1 2 22c3-31 4-30 5 5-1-30 1-28 2 10 1-39 1-40 4-3-2-38-1-43 1-19l-1-18 1 8v-9h2l7-3 3 7-2-8 2-1 4 16-4-16 1-1 6 19-4-21 4-3 4 7 3 9 2 6a244 244 0 003 9l-1-3c-3-6 0 5 10 33-14-41-14-40 2 1-11-30-14-38-8-24l5 13-3-8 8 20c-5-14-7-24-8-29l-8-16c-4-11-2-6 8 16-2-10 4-2 17 22-18-42-18-45 1-12-8-16-13-26-13-29h2l13 19-11-19h1l12 17-10-18 3-1a439 439 0 014 3l19 22c-25-36-25-39-2-10-22-32-21-33 9-2a412 412 0 0117 16l-1-1c-26-30-23-29 11 3-42-42-46-50-23-30-29-29-29-31 0-11-28-24-27-25 4-4-29-22-29-23 0-2-34-24-38-28-15-15-25-19-25-21 0-7-24-16-23-17 4-5-22-13-18-15 19-2-35-15-37-17-9-10-27-10-24-11 11-2-30-8-27-10 12-1-30-8-25-11 24-2z
M390 438c-10 0-18-2-23-7-5-4-7-9-7-15 0-7 4-13 11-18 8-5 20-9 34-11l39-7v9c0 14-5 26-15 35s-23 14-39 14z"/>
    <path d="M1229 499c-44-39-46-41-8-10-41-36-43-38-7-10-39-33-40-35-7-9-35-28-35-29 0-1-35-29-33-30 3-5-25-19-34-27-28-23l-9-7 19 13-19-15v-3l19 10-19-13v-2l22 10c-31-18-28-18 4-4l-26-14v-1l21 6c-26-13-20-14 24 6-36-19-34-21 11-14-43-11-43-11-3-2-44-10-47-10-13-1-40-9-43-11-10-5-36-9-38-10-8-6l-22-5v-1l24 3c-29-5-25-5 14-2-36-8-37-7-5-7-38-5-42-8-14-10l-19-2v-4l19-3h-19v-2l25-6-25 2v-3l19-7-19 5 27-7c-24 8-25 8 0 3a1879 1879 0 0127-9c-42 9-43 9-3-3-47 13-53 9-27-3l-24 7v-1l20-10-20 6v-4l14-10 27-17c-40 20-42 23-10 1-37 21-40 21-12 0l-19 12v-4a531 531 0 010-2v-6l11-11 9-8a177 177 0 01-3 2l-7 7-10 7v-2l17-17-17 13v-2l-1-2 21-23c-28 28-29 24 3-18a1669 1669 0 00-32 35l16-21-20 21-11 1c1-2-5-28-5-28s3 28 1 29l-2 7v87c0 17-4 29-12 38s-19 13-33 13c-15 0-26-4-33-13-8-8-12-21-12-38v-88l-2-5 17-22-22 19-1-1-7-7c1 0-13-35-24-53 18 37 22 48 12 36v-1 1l-13-20c24 41 24 41-1 2 22 42 24 46-1 13 10 14 16 24 18 30l-3 2-1 1-15-13 10 13 3 3h-1l1 1v1l-9-11-14-15c27 33 26 33-3 5 30 31 30 33 2 7l7 7 17 21v1l-18-14c11 10 17 17 18 19v1c-1 0-9-5-23-16 27 23 27 22-4-1 13 13 16 19 7 17l-1-1h1-1l12 8c13 10 12 9-3 1l-11-9-35-16c37 23 35 24-9 2 34 18 39 22 17 12 26 13 24 11-6-7 42 20 44 22 14 2l27 15c17 13 16 14-2 8l17 9-5-2-12-7-13-5a345 345 0 0030 16v1l-18-6c21 14 23 15-7 7l-17-5c30 11 26 11-17 0a353 353 0 0125 11 400 400 0 00-8-2h-1a217 217 0 017 2c16 5 21 8 16 8l5 1 15 4-11-1c2 0-3-2-14-4l-21-2 29 6 4 1c16 3 12 4-14 1 31 4 32 5 6 4l21 3v1h-16l16 2v2l-18 1 18 2-13 2-13 1h5c21 0 18 3-12 9 31-4 32-3 2 3 33-5 37-9 13 2l18-3v1l-20 8c24-3 18 0-19 19 32-14 31-14-3 1 31-11 26-8-15 16 36-20 34-18-7 4l29-13 10-5-7 4-2 1h1l-6 3 6-3c4-1-4 4-26 16 29-16 38-22 29-18l7-3c6-3-1 2-21 14 24-14 32-20 26-17 14-7 11-5-12 5 32-16 34-16 9 0 26-15 25-14-4 3 28-14 28-12 0 8l23-13 7-4h1l-16 14c9-6 15-10 17-10v1c-1 3-7 8-15 17 22-18 22-16-2 10 24-21 24-19 0 10 16-17 22-22 19-16l6-8h1l-12 17-6 7c18-24 22-28 10-15a355 355 0 01-4 8l14-14-10 16c11-12 8-5-10 25 23-32 23-31 4 2a566 566 0 0111-15l13-20h1l-9 18 11-16 2 1-7 20 9-19 1 1-8 22 10-21h1l-6 17 7-16 2 1a997 997 0 011 0l2 1a481 481 0 013 1l2 1-1 3-7 28-2 7c11-35 15-34 9 9 6-31 8-39 6-23l3-22h1l-2 19 3-19 5 1v12l1-12h3a527 527 0 011 0l-1 20 2-20h1l2 26 1-26h3l1 9v-9h2l2 15v-16l5 17 2 9a450 450 0 013 8v-1c-3-20 0-14 6 15-7-44-6-46 6-10l-8-41 4-1 4 7-3-8 5-3 4 7-3-7 1-1a3054 3054 0 012-1l2-2 9 13a222 222 0 006 15c3 3 8 13 16 28-10-22-15-33-15-37l-6-8c-8-14-6-12 6 7 2 0 7 6 17 20l-16-28h1l18 20-14-20h2l5 5c-9-11 0-5 23 24-27-35-26-36 5-3l-22-27 1-1 20 21-19-22 2-4 13 9 5 4c-8-7-6-4 8 9l9 9-8-8 7 6 19 18-10-11a1210 1210 0 01-4-3c-25-25-19-21 17 9z"/>
    <path d="M1462 432l-25-13 15 8-20-11 4 3-4-3c-17-8-14-8 9 1-33-15-32-15 2-4-30-12-28-12 11-1-27-10-31-13-11-8l-20-6-7-3c-2-1-5-2-6-4-4 0-7-1-9-3l1 2-5-6c-8-9-22-15-42-19l-33-8c-6-2-10-4-13-7-4-3-5-7-5-13s3-12 9-15c7-4 15-6 25-6 17 0 29 4 36 13 3 3 6 5 10 5h12v1l3-1c1-3 4-5 7-6l13-9a403 403 0 01-15 7v-2a440 440 0 010-2l21-15-21 14-1-3 11-11-12 9-2-4 9-9-10 8-1-1 12-11c-15 13-16 14-1-1l22-29c-32 34-35 33-15 3l16-20-13 15 5-7-10 13c-11 12-7 4 12-23a663 663 0 01-27 32l4-5 9-13c-25 35-28 36-7 7-24 32-25 34-8 6l-14 20h-2l10-21c-17 28-17 25 0-11-18 33-20 34-6-1-15 31-15 28 0-13-17 38-18 38-7 0-14 38-14 39-3 3-13 36-14 37-4-1-12 36-11 33-5-5-12 40-12 47-6 26l-4 15-2-1 2-15-3 15h-1a528 528 0 01-1 0h-1l4-29c-7 35-6 33-2-3-6 36-6 36-3 0-5 37-6 39-3 7l-3 24a461 461 0 01-2 0h-1a704 704 0 01-1-38c-1 13-2 8-2-17 0 25-1 17-1-24 0 51-1 50-3 0 0 60 0 69-5 41 0 35 1 31-8-14 4 43 3 44-3 3 6 45 4 47-1 13a615 615 0 014 38h-2l-5-16 3 17h-3l-6-19 4 20-2 1-11-24 7 23 1 2v-1a142 142 0 010 1l-2 1-8-15 6 16-3 1-10-17c11 25 6 23-15-14 16 34 15 32-7-5 20 35 20 35-3 0 21 36 21 38-3 5 15 25 19 32 10 22l-1-2 1 1-5-5 5 6 2 3a1919 1919 0 0112 17l-14-12 12 15-2 2-14-13 12 16v1c-2-1-9-7-20-19 23 23 23 24-2 1l18 19a542 542 0 01-4-3l3 2-2-1 5 5v1l-15-12 14 14-1 2-17-12c19 18 15 18-18 0 27 18 25 18-9 2l19 11c8 6 11 10 10 12 16 8 16 8 0 2l-1-1h-2l-2-1 1 1-33-9c27 11 39 14 38 11 19 11 15 12-7 6l9 4 3-1c8 0 12 6 13 11v-1c8 13 22 22 43 26l34 8c8 3 13 5 17 8 4 4 6 8 6 13 0 7-4 12-12 16-8 5-17 7-27 7-19 0-32-5-39-15l-4-4-6-1h-12l-4 1-4 4-2 2-1 2 3-1-1 1 1 1-15 14 15-11 1 2-19 18c25-23 25-22-2 3l10-9-3 3 4-3c16-14 12-9-7 14l21-19 1 1-13 18 15-16v1a257 257 0 00-1 3l-4 5-16 18-17 24c30-36 30-36 3 0l12-15c20-25 18-22-4 9 28-38 31-40 14-8 24-32 22-30 2 7 22-35 23-35 6 0 11-20 17-30 20-32l1 1-6 17 9-16 3 2-5 14 8-13 5 2-2 24c9-32 9-29 0 12 11-38 12-38 7 0 10-34 9-30 3 18 7-43 7-43 3 2l4-32a420 420 0 001-3l-1 7-2 27 3-28v-2l1-12s0-1 0 0l-1 8 1-3v-1l2-13h6l1 12 1-12h2l1 23v-23h1l3 28-1-28h1l3 25-1-25h3l1 3 4 35 6 35c-8-54-6-56 1-13-7-48-6-48 2-5-9-53-7-61 2-34l-6-22h1l6 19-4-20 4 15c0-6 3 3 11 27-13-43-11-46 2-13l-10-30 2-1 8 16-6-17 3-1 7 12-5-13 3-1 12 18 5 9c-14-28-18-35-8-23l6 10-6-9a790 790 0 01-4-8l2-2 11 14c-12-23-5-17 29 27-27-36-26-36 5 0-30-39-30-42 0-11-20-25-25-32-14-24l12 13-10-11a619 619 0 01-4-6l13 13-15-14v-1h-1 1l-2-1-3-3c-1-1-1-1 0 0l-4-4-4-4v-1l12 12-11-12v-2a858 858 0 012-1l1-2 21 17c-26-26-24-25 6-6l-24-19a877 877 0 010-2l1-3 21 11c-21-18-14-18 31 0-38-18-38-18 1 0-38-18-38-19 0-1zM951 476c-13-10-2-6 35 12-18-11-52-25-53-24l-7-7v-2l18-21-22 17c-1-2-3-2-5-2h-3c-15 0-26-5-34-13l-3-5 5 2h3l-10-5-2-4 17 6c-24-13-20-14 19 3h1c-32-16-27-19 16-11-43-11-44-12-4-2-44-11-47-11-13-1-40-10-43-11-10-6-36-9-38-10-8-6l-22-5 24 3c-28-5-25-6 15-2-37-8-37-8-5-7-39-6-42-8-14-11l-20-2v-3l19-4-19 1v-2c4-2 12-4 25-6l-25 2v-3l19-7-19 4 27-6c-23 8-25 7 0 2a1879 1879 0 0127-8c-41 9-42 9-2-4-47 13-53 10-28-2l-24 7v-1l20-10-20 5v-4l14-9 27-17c-40 20-42 22-10 1-37 20-39 21-12 0l-19 12v-4a531 531 0 010-2v-6c3-3-3-30 31-11-31-21-29-19 8 0h1a308 308 0 01-40-25s11-2 20 1l-20-10 25 6c-26-12-21-18-25-19l19 5-19-7s13-2 26-1c-14-3-26-8-26-8h19c-9-1-19-7-19-7l20-2c-25-2-17-16-19-16v-1c2 0 8-6 8-6h1l5 6 1 1 13 13c-8-22-7-21 4 2-11-27-10-26 2 3-10-28-9-28 6 0-6-14-10-22-9-23l-4-7h1l10 15-8-17h1c3 2 7 7 13 16l-9-17h1l15 18-11-18h2l16 18-12-18h2l13 14-8-10v1l-3-5h8l1-1 14 11a505 505 0 01-12-14l14 10-6-4-8-7 12-11-13 10-3-2 10-11-11 10-2-1 2-2-2 2-1-1 20-24c-25 27-19 15-22 17l15-22-17 20c0-1 7-22 30-58-29 43-36 50-15 14-24 39-30 41-11 4l-17 28-5 9 9-18-11 18h-2c1-3 0-3-2 0h-2l8-22c-14 31-12 19-14 22h-1l5-20c-7 17-20 20-20 20s-5-10 9-12c0 0-8 2-10 0-7-13 19-9 19-9-21-5-20-5 2-2l1-1-22-5v-1a410 410 0 011-2v-1l20 3c-28-5-26-6 10-3h1c-33-7-33-7-2-6l-30-5s9-5 16-6l-16-1s9-7 16-8l-19 1s12-6 25-8l-25 2v-3l19-7-19 4 51-16c-47 13-53 10-27-3l-24 8 20-11-20 5s7-9 14-13l27-18c-40 21-42 23-10 2-37 20-40 20-12 0l-19 11s8-11 15-16c-7 4-15 5-15 5l11-12 9-7a177 177 0 01-3 1l-7 7-10 5 17-16c-8 6-17 9-18 8l21-23c-28 28-29 24 3-17l-32 34h-1c-4-3 1-17 1-27-1 11-13 28-13 28 0 1 1 8-25-34l22 43c-1 0-12-4-18-10l9 13 3 3v1l-1-1 1 1s3 8-26-20c30 31 30 33 2 7l7 7 17 21v1l-18-14 18 19v1c-1 0-9-5-23-16 27 23 2 15 2 15l12 8c13 10 12 9-3 1l-7-7 1 2a7 7 0 013 4c16 13 15 14-2 8l17 9-5-2-12-7-13-5a359 359 0 0030 16v1l-18-6c21 14 22 15-7 7l-18-5c30 11 27 11-17 0 38 11 37 10-5 0l29 8a1328 1328 0 010 2l36 14-11-1-1-1v1c15 3 11 5-15 2 30 4 32 5 6 4l21 2v2h-16l16 2v1l-19 2 19 1v1l-13 2-13 1h5c18 0 18 2-3 7v1c18-2 19-2 3 2 23-4 24-6 4 4l17-3v1l-13 6 13-3c6 5-2 17-2 17h-2s-9 6-23-19c4 8 6 19 6 19a437 437 0 01-2 0l-12-11-6-9 4 6-3-3 5 7 4 10a1385 1385 0 01-3 0s-12-11-20-21c21 29 18 30-13-2l15 18-10-11 20 24v1l-15-16 15 20v2c0-1-26 13-39 24 27-18 35-22 26-12 0 0 16-11-13 13 31-22 34-23 9 2 11-10 18-16 23-18l1 3 1 1c-2 3-3 7 0 5l2-3v1l1-1h1l-9 9-10 14c24-27 24-26 3 3 23-30 25-30 5-2l6-7 15-17-10 18 15-18-11 22c15-25 22-21 22-21v-1h3l-4 4-2 2 7 1v2h1l-12 1 14 1v2l-16 2h16v1l-21 3c19-1 23 0 11 1l1 1c8 0 7 1-1 3v1c6-1 9-2 10-1l-14 4-4 2c-1 1-7 4-19 7h-2 2l-6 2h1-1l-1 1a671 671 0 00-3 3l-1 1c21-6 21-5-1 1h-1c34-8 35-7 7 3l18-5c29-8 28-7 7 7l18-6v1l-8 5-22 11 13-5 12-7 5-2-17 9c18-6-4 9-41 32 17-8 45-24 46-25 15-8 16-9 3 0l-12 9 1-1-2 1 2-1c9-2 6 4-7 17 30-23 31-24 4-1 14-11 22-16 23-16v1l-18 18h1l17-13s-2 26 0 29v1l-18-14 18 19v1c-2 0-9-5-23-15 27 22 26 21-4-2 13 14 16 19 7 17-1-1-1-1 0 0l11 8c13 9 12 9-3 0l-3-1c17 13 16 15-2 8l17 9-5-2-12-7-13-5a345 345 0 0030 16v2l-18-7c21 14 22 15-7 7l-17-5c30 11 26 11-17 0a353 353 0 0125 11 400 400 0 00-8-1l-1-1a217 217 0 016 2c17 5 22 8 16 8l6 1 15 4v1l-46-7 33 6c16 3 12 4-14 2 30 3 32 4 6 3l21 3v1l-17 1 17 1v2l-19 2 19 1-13 2-14 1h6c21 0 18 3-13 9 32-3 33-3 2 4 34-6 38-9 14 2 10-3 17-4 18-3-1 2-8 4-20 9 23-3 18-1-19 18 32-13 31-13-3 2 24-9 26-9 7 2a391 391 0 0018-5c17-8 17-8 1 2v1c20-11 17-9-10 7 29-15 29-13 0 7l24-13 7-4v1l-15 13 17-10v1l-16 18c22-19 23-17-1 9 24-21 24-19 0 10 16-17 22-22 18-16l7-8v1l-12 16-6 7c19-24 22-28 10-15a355 355 0 01-3 8h-1l15-14-11 16c12-12 8-4-9 25 22-32 22-31 3 2a566 566 0 0111-14l14-21 1 1-9 17 11-16 2 2-8 20 10-19-8 23 10-22 1 1-5 16 7-16 2 1a997 997 0 011 1l2 1a481 481 0 012 0l3 1-1 3-8 28-1 8c11-35 14-35 8 9 7-32 9-40 7-24l3-22-2 20 4-20 4 1 1 12 1-12h3v20l1-20h1l3 26v-26h4v2l1-1v-1h1l2 2h1l3 2 13 10-13-14 1-1 2-4 30 19c-33-26-29-24 13-2-39-24-39-24 2 0l-20-14z"/>
</svg>