<svg xmlns="http://www.w3.org/2000/svg" viewBox="0 0 291 314">
    <path fill="#016838"
          d="M254 131a467 467 0 0137-11c-19 5-31 7-34 7l5-1-5 1c-3 0 7-4 31-11-44 12-62 10-27-3-35 13-37 7-3-9-34 16-29 12 7-6-36 18-36 16 0-4-36 20-44 18-11-2-33 20-34 17-2-4-32 21-26 15 10-9-36 24-29 17 9-9-38 26-32 19 10-11-42 30-35 23 8-10-43 33-46 30-4-4l-36 28 14-10a575 575 0 0112-11l-29 23c-20 16-21 15 6-8-32 28-33 27-2 0-31 27-31 25 0-4-31 29-25 19 10-14-35 33-38 32-4-1-34 33-58 54-35 29-23 25-26 20-5-7-21 27-26 25-7-2l-15 22a629 629 0 01-2-1l-3-1 8-16c-12 21-16 18-10-1l10-21a347 347 0 015-12c-17 36-19 34-3-3-16 37-23 39-9 2l-11 26 6-17-4 11 5-16-6 18c-9 23-14 27-8 2-8 29-9 26-2-5-7 31-8 25-1-8-7 33-12 28-8-8-4 36-9 46-6 15-3 31-3 28-1-5-2 33-4 32-3-1V31c-1 38-2 27-1-17-2 44-3 34-3-14 0 48-2 49-2 2a800 800 0 01-2 38c1 36-1 46-3 15 2 31 1 32-1 1 2 31 1 31-1 0 2 31-2 14-7-24 5 38 3 40-2 2 5 38 4 47-2 14 6 33 6 46 0 18l4 22h-2l-4-15 3 16-2 1-1-2-5-21c5 17 5 20 1 11l-2-8 2 6-6-18c9 30 6 34-4 6 10 28 10 35 0 10l6 20h-1c-2 0-5-6-10-16 12 24 5 19-10-7 15 26 11 27-7 0 18 27 24 38 10 17l7 14-3 3-2 2-12-9c16 16 11 13-7-4L62 76c26 25 25 29 0 5 19 18 28 29 22 27l-9-8a316 316 0 0113 12c7 7 2 6-13-5 21 15 15 15-10 0 25 15 22 20-3 7 25 13 30 19 7 8 23 11 18 10-8-1 26 11 11 8-21-5 32 13 30 13-3 0 33 13 28 14-7 2 35 12 34 12-2 1 36 11 36 14 0 3l18 6c30 9 28 12-3 4 31 8 18 8-19 1 37 7 34 7-5 0 39 7 26 9-17 3 43 6 43 7-2 1 45 6 52 7 10 1 42 6 56 9 20 4 36 5 42 7 10 4 32 3 35 4 4 1 31 3 41 6 15 4 26 2 26 4-1 2 27 2 20 3-9 2 29 1 25 5-6 7 31-2 35 3 5 7 30-4 38-4 12 0 26-4 21 3-7 9 23-5 22-2 3 5a5445 5445 0 00-10 3l-4 1 4-1c10-2 2 1-24 10 37-12 53-4 22 11 31-15 35-15 6 0 21-10 29-10 22-2l-5 3-26 18 19-11-5 4 6-4c10-5 14-2 7 6l-22 17c28-22 23-21-4-1 5-1 4 1-2 7l-15 12a401 401 0 0117-13c22-15 29-13 10 8l-2 1 2-1-5 5 7-7 6-5-13 13 13-14a155 155 0 01-9 13c12-13 16-18 12-15 11-11 9-7-6 9l-5 5 1-1-6 6 6-6c18-17 18-12-6 16 30-34 42-39 18-6 24-33 31-37 9-7 22-30 29-29 10 2 19-31 16-25-3 9 19-34 22-32 4 2 17-31 24-34 14-8a375 375 0 00-16 32c8-18 14-27 16-29 4-2 1 10-8 34 16-43 15-36-3 10 18-46 22-48 6-2 16-46 17-48 2-4 13-39 19-47 12-20l-2 7a476 476 0 01-2 7l6-20c9-29 13-29 5 4l8-26 3 2a324 324 0 012 1h1v1l-1 2a171 171 0 01-1 14l-1 7 1-7 2-4v-7l1-6h1l-2 12c5-16 9-10 6 21l2-18-3 41 1-13c3-35 5-31 3 13 2-48 6-51 5-4 1-47 3-54 4-11-1-43 4-33 7 15-3-48-1-49 3-2-4-47-2-56 2-12-2-24-2-37 0-38 2 1 4 9 7 26l-3-26h3l5 23-4-23h2l1 2a989 989 0 003 8c-1-11 5 3 15 37-13-47-9-53 6-10-15-43-13-43 3 0-13-37-14-41-4-15-4-16-4-21 2-11l4 9-4-9a817 817 0 00-5-14v-2h1a461 461 0 012-1l3-1 16 27c-8-14-12-24-13-29l3-1 15 21-14-22 2-1a318 318 0 0113 19l-1-1 7 11-7-11v-1c-10-15-11-18-5-9l6 11 5 6a8392 8392 0 0018 25c-29-44-29-56 0-18-29-38-24-42 7-5-23-27-29-38-18-29a1571 1571 0 0012 10c-29-31-21-35 13-6-34-29-35-36-2-10-16-13-24-20-23-21s10 4 27 17c-34-25-20-24 20 1-40-25-42-32-3-9-26-15-39-24-35-22l-6-3-3-3c-1-2-3-3-6-3h-10l-6 2c-2 1-3 4-5 7-7 17-22 26-45 26-12 0-22-4-31-12-9-9-14-21-16-38a152 152 0 010-23c1-16 6-29 16-37 9-8 19-12 31-12 23 0 38 8 45 26l5 7 6 2h10c3 0 5-1 7-3s2-4 2-6v-1l11-5z"/>
</svg>